<svg width="1299" height="268" viewBox="0 0 1299 268" fill="none" xmlns="http://www.w3.org/2000/svg">
<path d="M404.921 194.123L404.846 194.124L404.77 194.127C402.115 194.235 399.604 195.356 397.75 197.254C394.047 200.665 390.13 203.838 386.023 206.753C382.242 209.414 378.176 211.643 373.899 213.399C369.175 215.312 364.26 216.714 359.238 217.58C352.991 218.626 346.665 219.123 340.331 219.066L340.287 219.066L340.243 219.066C329.939 219.155 319.719 217.208 310.169 213.338C301.212 209.646 293.157 204.066 286.553 196.978C279.575 189.298 274.208 180.297 270.769 170.507C266.696 158.854 264.705 146.575 264.888 134.232L264.889 134.166L264.888 134.101C264.751 121.886 266.788 109.744 270.904 98.2428C274.436 88.3998 279.922 79.3727 287.031 71.7036C293.816 64.5143 302.059 58.8567 311.207 55.1091C321.29 51.0742 332.067 49.0547 342.927 49.165L342.979 49.1655L343.031 49.165C348.682 49.1047 354.325 49.5715 359.889 50.5594C364.285 51.3516 368.606 52.51 372.809 54.0225L372.821 54.0269L372.834 54.0313C375.988 55.1478 379.029 56.5611 381.916 58.2522C384.677 59.9508 386.917 61.4388 388.585 62.7128C390.395 64.0964 391.919 65.2792 392.939 66.1387C395.167 68.2914 398.049 69.6434 401.133 69.978L401.441 70.0113L401.75 70.0065C403.314 69.9824 404.852 69.6066 406.251 68.907C407.65 68.2074 408.874 67.202 409.832 65.9653L409.975 65.7804L410.1 65.583L410.794 64.4894L411.776 62.942L411.526 61.1265L410.832 56.1001L410.57 54.2021L409.106 52.9653C404.693 49.2349 400.056 45.7771 395.222 42.6112L395.219 42.6093C390.435 39.4816 385.335 36.8675 380.003 34.8104L379.995 34.8073L379.987 34.8043C374.446 32.6883 368.702 31.1475 362.846 30.2062L362.828 30.2035L362.811 30.2009C356.245 29.1921 349.609 28.7085 342.966 28.7546C329.216 28.6119 315.574 31.195 302.827 36.3549L302.812 36.3611L302.796 36.3675C290.809 41.3136 280.01 48.7532 271.117 58.1926L271.098 58.2133L271.078 58.2343C262.132 67.9507 255.225 79.3627 250.766 91.7953L250.763 91.8027L250.761 91.81C245.928 105.419 243.531 119.774 243.679 134.214C243.491 148.937 245.885 163.578 250.754 177.474L250.756 177.481L250.759 177.489C255.145 189.881 261.991 201.259 270.886 210.939L270.901 210.955L270.915 210.971C279.56 220.216 290.087 227.498 301.787 232.326L301.798 232.331L301.808 232.335C314.019 237.307 327.095 239.806 340.279 239.687C348.049 239.714 355.803 238.979 363.43 237.491L363.431 237.491C370.124 236.184 376.668 234.205 382.964 231.584L382.981 231.577L382.999 231.569C388.804 229.101 394.337 226.036 399.509 222.423L399.514 222.42C404.44 218.972 409.075 215.125 413.372 210.919L414.921 209.403L414.873 207.236L414.747 201.495L414.698 199.288L413.036 197.837L411.983 196.918C411.067 196.04 409.992 195.343 408.816 194.864C407.58 194.361 406.255 194.109 404.921 194.123Z" fill="#0053F1" stroke="#0053F1" stroke-width="10"/>
<path d="M647.934 30.8574H645.87L644.408 32.3125L640.475 36.2243L639.001 37.6904V39.7692V122.259H524.209V39.7692V37.6904L522.735 36.2243L518.803 32.3125L517.34 30.8574H515.277H512.038H509.975L508.512 32.3125L504.579 36.2243L503.105 37.6904V39.7692V228.524V230.595L504.57 232.059L508.502 235.992L509.967 237.457H512.038H515.277H517.348L518.812 235.992L522.745 232.059L524.209 230.595V228.524V143.09H639.001V228.524V230.595L640.465 232.059L644.398 235.992L645.863 237.457H647.934H651.172H653.243L654.708 235.992L658.641 232.059L660.105 230.595V228.524V39.7692V37.6904L658.631 36.2243L654.698 32.3125L653.236 30.8574H651.172H647.934Z" fill="#0053F1" stroke="#0053F1" stroke-width="10"/>
<path d="M824.379 32.3953L823.117 31.5518H821.599H818.887H817.369L816.107 32.3953L812.49 34.8139L811.236 35.6527L810.655 37.0454L731.919 225.8L730.89 228.266L732.368 230.491L735.985 235.938L737.469 238.172H740.15H742.188C744.465 238.223 746.699 237.546 748.564 236.237C750.391 234.954 751.769 233.132 752.506 231.029L820.172 68.4827L887.898 230.962C888.579 233.017 889.88 234.813 891.625 236.101C893.445 237.445 895.652 238.164 897.914 238.151H900.314H902.988L904.472 235.928L908.111 230.481L909.599 228.252L908.567 225.779L829.831 37.0452L829.25 35.6526L827.996 34.8139L824.379 32.3953Z" fill="#0053F1" stroke="#0053F1" stroke-width="10"/>
<path d="M994.696 30.8574H992.633L991.17 32.3125L987.238 36.2243L985.764 37.6904V39.7692V228.524V230.595L987.228 232.059L991.161 235.992L992.625 237.457H994.696H997.935H1000.01L1001.47 235.992L1005.4 232.059L1006.87 230.595V228.524V39.7692V37.6904L1005.39 36.2243L1001.46 32.3125L999.998 30.8574H997.935H994.696Z" fill="#0053F1" stroke="#0053F1" stroke-width="10"/>
<path d="M1264.65 32.3324L1263.18 30.8584H1261.1H1258.41H1256.35L1254.89 32.3135L1250.95 36.2253L1249.48 37.6913V39.7702V195.331L1132.28 35.7548C1131.27 34.2451 1129.9 33.0073 1128.29 32.1525C1126.65 31.2791 1124.82 30.8341 1122.96 30.8584H1121.93H1119.86L1118.4 32.3135L1114.47 36.2253L1113 37.6913V39.7702V228.525V230.596L1114.46 232.06L1118.39 235.993L1119.86 237.458H1121.93H1124.64H1126.72L1128.19 235.984L1132.1 232.051L1133.55 230.588V228.525V72.3027L1251.47 232.73C1252.42 234.143 1253.69 235.31 1255.18 236.132C1256.72 236.983 1258.45 237.438 1260.21 237.457L1260.24 237.458H1260.26H1261.06H1263.13L1264.6 235.993L1268.53 232.06L1269.99 230.596V228.525V39.7702V37.707L1268.54 36.2442L1264.65 32.3324Z" fill="#0053F1" stroke="#0053F1" stroke-width="10"/>
<path d="M129.797 35.2727L129.774 35.2616L129.751 35.2508C120.461 30.8489 110.309 28.5654 100.029 28.5654C89.7493 28.5654 79.5976 30.8489 70.3076 35.2508L70.2854 35.2613L70.2633 35.272C60.522 40.0053 52.0666 47.0194 45.6149 55.7188L45.6032 55.7346L45.5917 55.7504C38.3362 65.6959 32.96 76.884 29.7279 88.7631L29.727 88.7664C25.7068 103.583 23.7999 118.893 24.063 134.242C23.8087 149.55 25.7156 164.816 29.7273 179.591L29.7274 179.591C32.9538 191.468 38.3413 202.649 45.6202 212.574L45.6316 212.589L45.643 212.605C52.1016 221.27 60.5629 228.243 70.3033 232.925L70.3294 232.938L70.3558 232.95C79.6476 237.285 89.7762 239.531 100.029 239.531C110.282 239.531 120.411 237.285 129.703 232.95L129.732 232.936L129.761 232.922C139.49 228.229 147.945 221.262 154.412 212.61L154.427 212.59L154.442 212.569C161.706 202.64 167.09 191.465 170.33 179.597L170.332 179.59C174.341 164.815 176.247 149.549 175.996 134.243C176.259 118.893 174.352 103.583 170.332 88.7664L170.33 88.7605C167.091 76.8802 161.707 65.6922 154.444 55.7482L150.407 58.6972L154.424 55.7211C147.981 47.022 139.532 40.0072 129.797 35.2727ZM99.9347 218.329H99.9251L99.9156 218.329C92.8265 218.356 85.8231 216.781 79.4285 213.721C74.4626 211.272 69.9904 207.948 66.222 203.917L144.61 81.6688C146.508 85.8844 148.076 90.2454 149.299 94.7129C152.66 107.547 154.245 120.782 154.009 134.047L154.007 134.136L154.009 134.226C154.246 147.492 152.66 160.728 149.293 173.562L149.289 173.575C146.863 182.919 142.752 191.742 137.158 199.609C132.801 205.594 127.062 210.437 120.431 213.726C114.072 216.788 107.1 218.362 100.042 218.329L100.03 218.329H100.019H99.9347ZM45.6925 134.223L45.6941 134.136L45.6925 134.049C45.4621 120.774 47.0559 107.531 50.4292 94.6901L50.4296 94.6887C52.8888 85.3165 57.0404 76.473 62.6796 68.594C69.1122 59.8413 78.4083 53.619 88.9524 51.0088C99.4972 48.3985 110.623 49.5659 120.396 54.3077C124.825 56.5212 128.851 59.4482 132.314 62.9643L54.3059 184.708C52.7683 181.075 51.4704 177.342 50.4218 173.533C47.0534 160.708 45.4621 147.481 45.6925 134.223Z" fill="#0053F1" stroke="#0053F1" stroke-width="10"/>
</svg>
