<svg width="1293" height="415" viewBox="0 0 1293 415" fill="none" xmlns="http://www.w3.org/2000/svg">
<path fill-rule="evenodd" clip-rule="evenodd" d="M179.265 1.06603C177.887 1.38615 176.384 1.954 175.925 2.327C175.465 2.7 174.025 3.46549 172.724 4.02916C171.422 4.59145 170.357 5.23863 170.357 5.4641C170.357 5.69096 169.376 6.26855 168.178 6.74872C166.98 7.2275 165.849 7.86216 165.666 8.15722C165.483 8.45367 164.602 8.85589 163.709 9.05214C162.815 9.24838 161.756 9.80232 161.357 10.2839C160.957 10.7654 159.625 11.6423 158.396 12.231C155.607 13.5685 151.909 15.7133 148.022 18.2505C144.268 20.7 142.303 21.8246 139.382 23.1955C138.114 23.7898 136.927 24.5205 136.742 24.8184C136.558 25.1162 134.338 26.4147 131.809 27.7049C129.282 28.9937 125.959 30.7697 124.428 31.6534C122.897 32.5358 120.608 33.7425 119.34 34.3354C118.073 34.9269 116.946 35.6187 116.835 35.8748C116.501 36.6458 111.497 39.9569 110.666 39.9569C110.24 39.9569 109.042 40.5832 108.005 41.3487C106.968 42.1142 105.81 42.7405 105.435 42.7405C105.059 42.7405 104.043 43.3097 103.177 44.0056C102.311 44.7015 100.726 45.7078 99.6544 46.2436C97.8437 47.1497 96.8166 47.7454 91.1227 51.1928C85.7365 54.4566 71.8673 62.2256 71.4289 62.2256C71.2424 62.2256 70.2681 62.8519 69.2646 63.6174C68.2612 64.3814 66.8596 65.2736 66.1498 65.5993C65.44 65.9236 63.607 66.9145 62.076 67.8011C60.5451 68.6876 58.495 69.7969 57.5207 70.2646C56.5465 70.7336 55.575 71.3989 55.362 71.744C55.1477 72.0906 53.941 72.8714 52.6787 73.4796C51.4177 74.0892 49.2215 75.2514 47.8004 76.0614C46.3794 76.8714 43.0154 78.7879 40.3265 80.3189C37.6389 81.8498 34.2917 83.7844 32.8915 84.6181C31.49 85.4518 29.522 86.5221 28.5199 86.9981C27.5164 87.4727 25.0905 88.9605 23.1281 90.3036C21.1657 91.648 18.9848 92.9299 18.2819 93.1526C17.579 93.3753 16.3724 93.9807 15.6013 94.4956C9.72795 98.4233 8.32363 99.5103 5.97846 101.94C4.51847 103.452 3.19209 105.343 3.03064 106.144C2.86781 106.944 2.49619 108.504 2.20392 109.611C1.23105 113.296 1.51358 197.796 2.50176 198.616C3.61519 199.541 6.71193 198.918 8.67714 197.373C10.4378 195.988 12.5797 194.741 16.0119 193.106C17.316 192.485 18.6939 191.726 19.0738 191.421C19.4538 191.115 20.6424 190.138 21.7141 189.247C22.7857 188.357 24.4601 187.455 25.4329 187.243C26.4072 187.032 27.5151 186.485 27.895 186.027C28.2736 185.57 29.3564 184.831 30.2986 184.386C31.2423 183.941 34.268 182.208 37.0238 180.535C39.7795 178.862 42.9111 177.087 43.9827 176.592C45.0544 176.095 46.4323 175.239 47.0447 174.691C47.6571 174.141 49.6529 172.902 51.4789 171.938C53.305 170.973 55.2006 169.822 55.6905 169.378C56.1804 168.936 57.4302 168.276 58.4685 167.914C59.5068 167.552 61.2159 166.673 62.2681 165.959C63.3189 165.246 64.4421 164.661 64.7622 164.661C65.0823 164.661 65.8617 164.19 66.4936 163.613C67.1255 163.037 69.3969 161.634 71.5402 160.496C73.6836 159.357 75.8325 158.076 76.3155 157.647C76.7998 157.218 77.4693 156.867 77.8047 156.867C78.1401 156.867 79.1241 156.27 79.9926 155.54C80.8597 154.809 82.4449 153.808 83.5138 153.316C86.0747 152.134 89.0072 150.336 90.0163 149.327C90.4616 148.881 91.2605 148.517 91.7922 148.517C92.3225 148.517 93.6071 147.89 94.644 147.125C95.6809 146.359 96.8388 145.733 97.2146 145.733C97.5904 145.733 98.6064 145.164 99.4721 144.468C100.338 143.772 102.027 142.707 103.227 142.102C107.802 139.792 108.929 139.117 109.638 138.263C110.04 137.779 110.694 137.382 111.092 137.382C111.49 137.382 112.524 136.813 113.39 136.117C114.256 135.421 115.841 134.421 116.913 133.895C118.991 132.872 120.195 132.171 122.586 130.593C123.408 130.049 126.086 128.581 128.536 127.329C130.985 126.077 133.286 124.696 133.648 124.259C134.011 123.822 134.544 123.464 134.833 123.464C135.121 123.464 136.156 122.858 137.131 122.117C138.105 121.377 140.701 119.858 142.899 118.743C145.096 117.63 147.194 116.357 147.56 115.915C147.926 115.474 148.467 115.114 148.762 115.114C149.057 115.114 150.91 114.174 152.879 113.026C160.505 108.578 161.788 107.858 163.571 107.025C164.584 106.551 166.964 105.08 168.86 103.758C178.132 97.2834 186.367 96.1268 193.74 100.262C195.73 101.378 198.36 102.826 199.585 103.478C200.81 104.131 202.2 105.005 202.675 105.421C203.149 105.837 205.279 107.091 207.407 108.209C209.535 109.327 211.652 110.562 212.111 110.954C212.571 111.346 214.95 112.713 217.4 113.992C219.85 115.27 222.856 116.922 224.081 117.662C225.305 118.402 227.386 119.527 228.704 120.162C230.024 120.798 232.23 122.113 233.609 123.087C234.988 124.06 237.292 125.531 238.728 126.355C241.241 127.798 241.911 128.141 244.958 129.547C245.723 129.9 246.976 130.567 247.741 131.03C252.106 133.665 261.109 130.517 267.314 124.185C269.353 122.105 274.614 116.87 279.005 112.554C293.885 97.9292 302.047 89.2041 303.992 85.8498C309.129 76.9883 304.707 66.1574 293.662 60.5512C291.647 59.5283 289.857 58.4635 289.684 58.1852C289.513 57.9068 288.336 57.1956 287.068 56.6041C285.8 56.0112 283.51 54.7976 281.979 53.904C280.448 53.0119 278.381 51.8414 277.386 51.3042C276.391 50.7683 275.577 50.1434 275.577 49.9193C275.577 49.6939 273.635 48.5609 271.262 47.4002C268.889 46.2408 266.572 44.9938 266.113 44.6291C265.654 44.2645 263.524 43.0341 261.381 41.8956C259.237 40.7572 255.855 38.7655 253.865 37.4711C251.875 36.1768 248.505 34.1949 246.377 33.0689C244.249 31.9416 242.12 30.6764 241.645 30.2547C241.17 29.8344 239.905 29.0898 238.834 28.5999C237.762 28.1099 235.758 27.0522 234.38 26.2477C233.002 25.4447 230.076 23.826 227.877 22.6527C225.68 21.4781 222.292 19.4307 220.349 18.1002C218.408 16.771 214.877 14.7237 212.505 13.5518C210.132 12.3799 208.043 11.1816 207.863 10.8893C207.683 10.597 206.498 9.86773 205.23 9.26787C203.962 8.66801 201.923 7.56988 200.699 6.82805C191.653 1.34718 185.339 -0.349418 179.265 1.06603Z" fill="#0053F1"/>
<path fill-rule="evenodd" clip-rule="evenodd" d="M83.0942 173.958C82.4053 174.092 81.5924 174.664 81.289 175.23C80.9856 175.796 79.8791 176.544 78.8297 176.889C77.7803 177.236 76.6084 177.897 76.2257 178.359C75.843 178.819 74.7573 179.57 73.8151 180.025C72.8715 180.48 70.8478 181.578 69.3168 182.465C67.7859 183.351 65.6564 184.53 64.5847 185.084C63.513 185.638 62.4358 186.405 62.1922 186.786C61.9473 187.169 60.6112 187.767 59.2222 188.117C57.8318 188.467 56.5736 189.07 56.4247 189.458C56.2757 189.847 55.4198 190.469 54.5235 190.84C53.6272 191.212 52.8937 191.749 52.8937 192.036C52.8937 192.323 51.7761 193.051 50.4121 193.655C49.0468 194.259 47.79 194.978 47.6202 195.252C47.4504 195.528 46.3745 196.055 45.2305 196.424C44.0864 196.793 42.76 197.501 42.2827 197.998C41.8053 198.494 39.68 199.776 37.5589 200.846C35.4392 201.918 33.2611 203.232 32.721 203.767C32.181 204.303 31.3961 204.742 30.9785 204.742C30.561 204.742 29.5547 205.264 28.7433 205.902C27.9319 206.541 26.3355 207.321 25.197 207.635C24.0585 207.948 22.7962 208.679 22.3912 209.258C21.9861 209.836 21.332 210.309 20.9367 210.309C20.5429 210.309 19.7871 210.788 19.2582 211.371C18.7294 211.955 17.5004 212.756 16.5275 213.149C15.5547 213.542 14.6277 214.05 14.4691 214.278C14.3104 214.506 12.9952 215.201 11.5463 215.822C10.0975 216.442 8.91304 217.19 8.91304 217.483C8.91304 217.777 8.04038 218.305 6.97288 218.657C2.49687 220.133 2.78498 217.087 2.82256 262.576C2.85596 303.016 3.04107 307.95 4.57204 309.079C5.02298 309.411 5.69104 310.246 6.05847 310.935C6.42452 311.624 7.09815 312.188 7.55466 312.188C8.01117 312.188 8.62216 312.814 8.91304 313.58C9.20393 314.345 9.79405 314.972 10.2227 314.972C10.6528 314.972 11.3445 315.382 11.7593 315.883C12.1754 316.384 13.5213 317.279 14.7502 317.873C19.1539 320 21.5603 321.389 22.5067 322.348C23.0342 322.884 23.9013 323.322 24.4329 323.322C24.9632 323.322 26.2478 323.949 27.2847 324.714C28.3216 325.48 29.3961 326.106 29.6702 326.106C29.9458 326.106 30.8366 326.621 31.6508 327.251C34.1462 329.183 38.1087 331.652 38.728 331.663C39.0523 331.669 40.1476 332.287 41.1637 333.036C42.1783 333.786 43.7134 334.553 44.5736 334.742C45.4323 334.93 46.4469 335.459 46.8269 335.917C47.2054 336.373 48.3509 337.097 49.3697 337.523C50.3898 337.949 51.2235 338.54 51.2235 338.838C51.2235 339.136 51.9862 339.546 52.9187 339.751C53.8512 339.956 55.2653 340.727 56.0614 341.466C56.8589 342.203 57.9264 342.807 58.4344 342.807C58.9424 342.807 60.2076 343.434 61.2444 344.199C62.2813 344.965 63.424 345.591 63.7817 345.591C64.3815 345.591 67.5214 347.764 69.6703 349.666C70.17 350.11 71.4825 350.77 72.5848 351.135C73.6884 351.498 74.7462 352.049 74.9369 352.358C75.129 352.667 76.3217 353.414 77.5896 354.017C78.8576 354.62 81.1471 355.84 82.678 356.729C84.209 357.619 86.2869 358.741 87.2946 359.224C88.3037 359.707 89.2598 360.443 89.4213 360.862C89.5813 361.281 90.8103 361.899 92.1534 362.237C93.495 362.575 94.7936 363.164 95.0386 363.546C95.2821 363.928 96.3594 364.696 97.431 365.253C101.722 367.482 103.302 368.44 103.833 369.133C104.139 369.533 105.267 370.201 106.339 370.615C107.41 371.032 108.538 371.669 108.844 372.034C109.15 372.397 110.309 372.994 111.421 373.36C112.532 373.726 113.886 374.517 114.43 375.118C114.973 375.719 115.832 376.21 116.337 376.21C116.842 376.21 118.106 376.837 119.143 377.602C120.18 378.368 121.342 378.994 121.725 378.994C122.108 378.994 122.748 379.459 123.147 380.028C123.548 380.596 124.447 381.242 125.146 381.463C125.844 381.683 127.071 382.471 127.871 383.213C128.671 383.954 129.743 384.561 130.251 384.561C130.759 384.561 132.024 385.187 133.061 385.953C134.098 386.718 135.175 387.345 135.455 387.345C135.733 387.345 136.706 387.971 137.616 388.737C138.526 389.502 139.593 390.128 139.988 390.128C140.382 390.128 141.302 390.593 142.032 391.161C142.763 391.729 144.245 392.482 145.327 392.834C146.408 393.186 147.722 393.975 148.244 394.585C148.767 395.196 149.686 395.696 150.284 395.696C150.884 395.696 152.051 396.322 152.877 397.087C153.703 397.853 154.681 398.479 155.051 398.479C155.421 398.479 156.4 399.105 157.225 399.871C158.052 400.636 159.047 401.263 159.437 401.263C159.826 401.263 160.709 401.861 161.395 402.593C162.083 403.324 163.399 404.074 164.321 404.258C165.243 404.443 166.638 405.097 167.419 405.711C168.201 406.326 169.164 406.83 169.558 406.83C169.953 406.83 170.983 407.421 171.849 408.145C172.714 408.869 174.049 409.65 174.815 409.882C175.58 410.113 176.671 410.71 177.241 411.21C178.72 412.511 189.804 412.531 191.319 411.236C191.886 410.751 193.228 410.014 194.3 409.598C195.371 409.183 196.438 408.535 196.67 408.156C196.902 407.779 198.03 407.164 199.175 406.791C200.321 406.416 201.856 405.647 202.587 405.079C203.317 404.511 204.158 404.046 204.454 404.046C204.752 404.046 205.739 403.42 206.649 402.654C207.559 401.889 208.662 401.263 209.099 401.263C209.537 401.263 210.44 400.636 211.106 399.871C211.771 399.105 212.613 398.479 212.975 398.479C213.338 398.479 214.232 398.018 214.962 397.455C215.693 396.891 217.15 396.137 218.202 395.778C219.255 395.419 220.552 394.73 221.086 394.245C222.194 393.243 224.848 391.709 227.703 390.423C228.775 389.94 230.027 389.299 230.486 388.998C230.946 388.698 232.198 388.014 233.27 387.481C234.342 386.947 235.408 386.216 235.64 385.856C235.873 385.496 237 384.899 238.145 384.529C239.291 384.159 240.677 383.389 241.225 382.817C241.772 382.245 242.578 381.778 243.015 381.778C243.451 381.778 244.072 381.285 244.393 380.684C244.716 380.082 245.977 379.29 247.198 378.926C248.417 378.56 249.415 378.081 249.415 377.861C249.415 377.641 250.667 376.922 252.198 376.263C253.729 375.605 254.982 374.846 254.982 374.579C254.982 374.312 255.745 373.826 256.679 373.501C257.611 373.176 259.022 372.4 259.816 371.776C260.608 371.153 261.685 370.643 262.208 370.643C262.731 370.643 263.593 370.164 264.122 369.581C264.651 368.997 265.88 368.196 266.853 367.804C267.825 367.411 268.811 366.781 269.043 366.402C269.276 366.025 270.34 365.428 271.409 365.075C272.478 364.721 273.354 364.223 273.354 363.965C273.354 363.708 274.464 363.073 275.823 362.556C277.181 362.036 278.417 361.289 278.567 360.895C278.719 360.5 279.8 359.862 280.97 359.477C282.139 359.091 283.347 358.479 283.653 358.116C283.959 357.751 285.086 357.121 286.158 356.713C287.23 356.306 288.482 355.624 288.942 355.2C289.791 354.414 292.185 353.047 295.528 351.441C296.546 350.951 298.119 349.747 299.022 348.766C299.926 347.786 301.159 346.473 301.763 345.85C302.366 345.226 302.86 344.491 302.86 344.216C302.86 343.94 303.423 343.114 304.112 342.382C307.331 338.954 305.014 325.808 300.912 324.235C300.452 324.059 300.076 323.647 300.076 323.321C300.076 322.553 296.718 319.194 295.471 318.715C294.942 318.512 294.509 318.071 294.509 317.736C294.509 316.944 282.843 305.285 281.565 304.799C281.029 304.596 280.591 304.161 280.591 303.836C280.591 303.068 277.233 299.709 275.985 299.23C275.457 299.027 275.024 298.583 275.024 298.244C275.024 297.446 268.929 291.361 267.647 290.878C267.111 290.676 266.673 290.228 266.673 289.882C266.673 288.924 263.384 286.058 261.273 285.176C260.242 284.746 259.011 284.008 258.541 283.538C257.386 282.383 249.711 282.363 247.745 283.51C246.979 283.957 245.48 284.732 244.414 285.235C243.347 285.736 241.873 286.619 241.138 287.197C240.402 287.776 239.377 288.249 238.859 288.249C238.342 288.249 237.341 288.863 236.637 289.612C235.934 290.362 234.655 291.129 233.795 291.318C232.936 291.507 231.948 292.004 231.6 292.425C231.252 292.845 230.251 293.345 229.379 293.537C228.506 293.729 227.178 294.434 226.428 295.104C225.678 295.773 224.343 296.753 223.461 297.28C221.298 298.572 219.899 299.442 218.239 300.526C217.473 301.026 215.938 301.734 214.826 302.1C213.715 302.466 212.361 303.257 211.817 303.858C211.274 304.459 210.541 304.951 210.189 304.951C209.836 304.951 208.698 305.577 207.661 306.342C206.624 307.108 205.36 307.734 204.855 307.734C204.35 307.734 203.504 308.213 202.975 308.796C202.446 309.381 201.217 310.178 200.244 310.568C199.271 310.959 197.9 311.716 197.196 312.251C196.493 312.786 195.178 313.386 194.273 313.585C193.37 313.784 192.63 314.146 192.63 314.391C192.63 316.88 178.779 316.974 175.641 314.508C174.852 313.886 173.492 313.222 172.62 313.03C171.747 312.838 170.592 312.195 170.053 311.599C169.516 311.005 168.774 310.518 168.407 310.518C168.041 310.518 167.064 309.892 166.238 309.126C165.412 308.361 164.296 307.734 163.758 307.734C163.22 307.734 162.294 307.358 161.698 306.899C161.104 306.44 159.554 305.577 158.252 304.981C156.951 304.387 155.886 303.655 155.886 303.356C155.886 303.055 155.029 302.528 153.982 302.182C152.936 301.836 151.79 301.207 151.438 300.782C151.087 300.359 150.064 299.851 149.168 299.653C148.27 299.456 147.224 298.877 146.84 298.365C146.457 297.854 145.267 296.981 144.195 296.427C143.124 295.873 140.994 294.699 139.463 293.815C137.932 292.933 136.053 291.897 135.288 291.516C134.522 291.133 133.395 290.398 132.783 289.882C132.17 289.365 130.731 288.643 129.586 288.276C128.44 287.91 127.313 287.287 127.08 286.895C126.848 286.501 125.701 285.869 124.532 285.488C123.363 285.108 122.281 284.475 122.13 284.079C121.979 283.685 120.744 282.938 119.385 282.419C118.027 281.901 116.916 281.267 116.916 281.009C116.916 280.752 116.039 280.252 114.968 279.898C113.896 279.545 113.019 279.035 113.019 278.768C113.019 278.5 111.954 277.751 110.653 277.105C105.736 274.662 103.633 273.466 102.593 272.522C102.002 271.986 101.13 271.548 100.656 271.548C100.183 271.548 99.4505 271.133 99.0302 270.626C98.6099 270.12 97.4464 269.363 96.4443 268.944C95.4422 268.525 94.1241 267.749 93.5159 267.221C90.2076 264.342 88.4832 262.397 88.1826 261.198C87.9975 260.461 87.6467 259.857 87.4046 259.857C85.9223 259.857 85.74 255.037 85.74 215.838C85.74 177.932 85.63 173.446 84.7059 173.641C84.5096 173.682 83.7845 173.826 83.0942 173.958Z" fill="#0053F1"/>
<path fill-rule="evenodd" clip-rule="evenodd" d="M82.1162 173.828C75.8629 177.629 71.0056 180.46 68.755 181.614C67.8364 182.084 65.707 183.345 64.0229 184.414C62.3389 185.483 60.3973 186.613 59.7084 186.923C59.0195 187.234 57.8921 187.738 57.2032 188.044C56.5142 188.35 54.7912 189.458 53.3757 190.505C51.9589 191.553 48.9526 193.355 46.6951 194.511C44.4363 195.667 42.2052 196.929 41.7348 197.317C41.2644 197.704 39.3854 198.805 37.5594 199.766C35.7334 200.724 33.3618 202.084 32.2901 202.787C30.3026 204.088 28.098 205.296 25.6095 206.447C23.7751 207.295 23.4967 207.461 19.9212 209.835C18.2413 210.951 14.972 212.903 12.6575 214.173C10.3429 215.444 8.14527 216.848 7.77505 217.295C7.40483 217.742 6.60594 218.107 6.0019 218.107C5.39647 218.107 4.17448 218.885 3.28513 219.835L1.67065 221.565V261.973C1.67065 310.432 1.32827 307.312 7.27261 312.992C11.3408 316.878 13.8182 318.481 25.8322 324.996C28.3722 326.374 31.1154 327.94 31.9268 328.476C35.3562 330.739 36.677 331.531 41.1836 334.035C43.7932 335.483 46.9109 337.237 48.1106 337.931C54.1663 341.435 55.4175 342.135 59.1531 344.107C61.3716 345.28 64.5226 347.159 66.1524 348.282C69.4314 350.543 72.8845 352.581 77.1058 354.747C78.6368 355.533 80.8915 356.79 82.1162 357.542C83.341 358.293 85.3494 359.386 86.5783 359.969C87.8073 360.554 89.1531 361.44 89.5693 361.941C89.984 362.442 90.7468 362.853 91.2617 362.853C91.7781 362.853 93.0488 363.479 94.0857 364.245C95.1226 365.01 96.1845 365.637 96.4434 365.637C96.7022 365.637 97.593 366.101 98.4225 366.671C102.755 369.639 106.161 371.701 110.509 373.987C111.734 374.632 113.988 375.877 115.519 376.757C117.05 377.635 119.095 378.728 120.063 379.184C121.032 379.641 122.307 380.474 122.899 381.037C124.093 382.172 125.784 383.174 131.942 386.392C134.239 387.592 136.494 388.896 136.953 389.289C137.412 389.683 139.667 390.959 141.963 392.126C144.26 393.293 146.514 394.543 146.974 394.905C147.433 395.265 149.462 396.429 151.483 397.49C153.505 398.551 155.76 399.844 156.494 400.363C160.27 403.033 162.107 404.147 166.181 406.246C168.63 407.509 172.132 409.426 173.963 410.509C179.16 413.582 187.661 414.346 191.571 412.093C192.304 411.67 193.905 410.803 195.13 410.164C196.355 409.525 198.609 408.277 200.14 407.39C201.671 406.504 203.926 405.275 205.151 404.66C206.375 404.044 208.38 402.793 209.604 401.88C210.829 400.967 214.043 399.092 216.744 397.715C219.447 396.337 222.018 394.91 222.458 394.545C223.325 393.826 225.586 392.525 229.09 390.729C230.314 390.101 232.569 388.842 234.1 387.93C235.631 387.019 237.886 385.76 239.11 385.134C240.335 384.508 242.339 383.254 243.564 382.346C244.789 381.439 247.795 379.664 250.245 378.402C252.694 377.141 255.074 375.783 255.534 375.383C255.993 374.985 258.093 373.749 260.2 372.639C262.307 371.527 264.687 370.156 265.489 369.592C266.291 369.028 267.51 368.391 268.199 368.178C268.888 367.964 269.452 367.581 269.452 367.328C269.452 367.074 271.518 365.815 274.044 364.529C276.571 363.243 279.013 361.863 279.472 361.464C279.932 361.064 281.184 360.327 282.256 359.827C284.227 358.906 287.118 357.318 291.766 354.601C293.17 353.781 295.329 352.559 296.564 351.884C298.671 350.733 301.609 347.62 304.434 343.543C307.976 338.43 307.215 329.97 302.745 324.792C298.696 320.103 263.35 284.913 262.689 284.913C262.395 284.913 261.233 284.286 260.107 283.521C257.649 281.851 249.177 281.485 246.626 282.939C244.374 284.222 241.49 285.814 239.183 287.049C237.998 287.682 236.621 288.544 236.121 288.964C235.623 289.384 233.084 290.775 230.481 292.054C227.879 293.333 224.747 295.138 223.522 296.066C222.298 296.995 219.226 298.775 216.698 300.023C214.17 301.272 211.95 302.537 211.766 302.835C211.581 303.133 210.394 303.872 209.126 304.478C206.339 305.809 203.817 307.206 201.713 308.586C192.285 314.764 182.67 317.272 178.15 314.734C177.384 314.304 174.733 312.935 172.26 311.689C169.785 310.445 167.304 308.921 166.746 308.303C166.186 307.686 165.401 307.181 165 307.181C164.332 307.181 160.075 304.897 154.885 301.755C153.749 301.067 151.764 299.995 150.477 299.373C149.188 298.751 147.998 298.023 147.833 297.755C147.665 297.486 146.09 296.441 144.329 295.432C142.569 294.423 140.377 293.16 139.458 292.629C138.54 292.097 136.786 291.132 135.561 290.485C134.336 289.838 132.082 288.59 130.551 287.71C129.02 286.832 126.9 285.707 125.839 285.213C124.779 284.718 123.526 283.973 123.056 283.557C122.585 283.141 120.481 281.894 118.379 280.786C116.279 279.678 113.928 278.275 113.156 277.667C112.382 277.059 111.408 276.562 110.99 276.562C110.573 276.562 109.735 276.066 109.13 275.461C108.524 274.855 107.209 273.966 106.207 273.483C105.205 273 103.633 272.168 102.715 271.633C101.796 271.099 99.6264 269.849 97.8936 268.855C93.142 266.13 89.8783 262.977 88.133 259.423L86.57 256.242L86.2916 215.045C86.1385 192.386 85.8101 173.534 85.5623 173.152C84.9541 172.211 84.6897 172.264 82.1162 173.828ZM85.3967 174.45C85.5832 174.935 85.7349 193.561 85.7349 215.842C85.7349 255.041 85.9172 259.86 87.3995 259.86C87.6417 259.86 87.9924 260.464 88.1775 261.202C88.4781 262.4 90.2026 264.346 93.5108 267.224C94.1191 267.753 95.4371 268.528 96.4392 268.947C97.4413 269.366 98.6048 270.123 99.0251 270.63C99.4455 271.137 100.178 271.551 100.651 271.551C101.125 271.551 101.997 271.99 102.588 272.526C103.628 273.469 105.731 274.666 110.648 277.109C111.949 277.755 113.014 278.503 113.014 278.772C113.014 279.039 113.891 279.549 114.963 279.902C116.034 280.256 116.911 280.755 116.911 281.013C116.911 281.27 118.022 281.905 119.38 282.423C120.738 282.942 121.974 283.689 122.125 284.083C122.276 284.478 123.358 285.112 124.527 285.492C125.696 285.873 126.843 286.505 127.075 286.899C127.308 287.291 128.435 287.913 129.581 288.279C130.726 288.647 132.165 289.369 132.777 289.885C133.39 290.402 134.517 291.137 135.283 291.519C136.048 291.901 137.927 292.936 139.458 293.819C140.989 294.702 143.119 295.877 144.19 296.431C145.262 296.985 146.452 297.858 146.835 298.368C147.219 298.881 148.265 299.46 149.163 299.657C150.059 299.855 151.082 300.363 151.433 300.786C151.785 301.21 152.931 301.84 153.977 302.186C155.024 302.531 155.881 303.059 155.881 303.359C155.881 303.659 156.946 304.391 158.247 304.985C159.549 305.581 161.099 306.444 161.693 306.903C162.289 307.362 163.215 307.738 163.753 307.738C164.29 307.738 165.407 308.364 166.233 309.13C167.059 309.895 168.036 310.522 168.402 310.522C168.769 310.522 169.511 311.009 170.048 311.603C170.587 312.199 171.742 312.842 172.615 313.034C173.487 313.226 174.847 313.89 175.636 314.512C178.773 316.978 192.625 316.883 192.625 314.395C192.625 314.15 193.365 313.788 194.268 313.589C195.173 313.39 196.488 312.79 197.191 312.254C197.895 311.72 199.266 310.963 200.239 310.572C201.212 310.182 202.441 309.384 202.97 308.8C203.499 308.217 204.345 307.738 204.85 307.738C205.355 307.738 206.619 307.112 207.656 306.346C208.693 305.581 209.831 304.954 210.183 304.954C210.536 304.954 211.269 304.463 211.812 303.862C212.356 303.261 213.71 302.47 214.821 302.104C215.933 301.738 217.468 301.03 218.234 300.53C219.894 299.446 221.293 298.576 223.456 297.284C224.338 296.757 225.673 295.777 226.423 295.107C227.173 294.438 228.501 293.732 229.373 293.54C230.246 293.348 231.247 292.849 231.595 292.428C231.943 292.008 232.931 291.511 233.79 291.322C234.65 291.132 235.929 290.366 236.632 289.615C237.336 288.867 238.337 288.253 238.854 288.253C239.372 288.253 240.396 287.78 241.133 287.201C241.868 286.623 243.341 285.739 244.409 285.238C245.475 284.736 246.974 283.961 247.74 283.514C249.706 282.367 257.38 282.386 258.536 283.542C259.006 284.012 260.236 284.75 261.268 285.18C263.379 286.062 266.668 288.928 266.668 289.885C266.668 290.232 267.106 290.68 267.642 290.882C268.924 291.365 275.019 297.45 275.019 298.247C275.019 298.587 275.452 299.031 275.98 299.234C277.227 299.713 280.586 303.071 280.586 303.84C280.586 304.165 281.024 304.599 281.56 304.803C282.838 305.288 294.504 316.947 294.504 317.739C294.504 318.075 294.937 318.516 295.465 318.719C296.713 319.198 300.071 322.556 300.071 323.325C300.071 323.65 300.447 324.062 300.907 324.239C305.009 325.812 307.326 338.957 304.107 342.385C303.418 343.117 302.855 343.944 302.855 344.22C302.855 344.495 302.36 345.23 301.758 345.854C301.154 346.477 299.921 347.79 299.017 348.769C298.114 349.751 296.541 350.955 295.523 351.444C292.179 353.051 289.786 354.417 288.937 355.204C288.477 355.628 287.225 356.31 286.153 356.717C285.081 357.124 283.954 357.755 283.648 358.119C283.342 358.483 282.134 359.095 280.964 359.481C279.795 359.866 278.714 360.504 278.562 360.899C278.412 361.293 277.176 362.04 275.818 362.559C274.459 363.077 273.349 363.712 273.349 363.969C273.349 364.227 272.473 364.725 271.404 365.078C270.335 365.432 269.271 366.029 269.038 366.406C268.806 366.785 267.82 367.415 266.847 367.808C265.875 368.2 264.646 369 264.117 369.585C263.588 370.168 262.726 370.647 262.203 370.647C261.68 370.647 260.603 371.156 259.811 371.78C259.017 372.403 257.606 373.18 256.673 373.504C255.74 373.83 254.977 374.316 254.977 374.583C254.977 374.85 253.724 375.609 252.193 376.267C250.662 376.925 249.41 377.645 249.41 377.865C249.41 378.085 248.412 378.563 247.193 378.93C245.972 379.294 244.711 380.086 244.388 380.687C244.067 381.289 243.446 381.781 243.01 381.781C242.573 381.781 241.767 382.249 241.22 382.821C240.672 383.393 239.286 384.163 238.14 384.533C236.995 384.903 235.868 385.5 235.635 385.859C235.403 386.22 234.337 386.95 233.265 387.485C232.193 388.018 230.941 388.701 230.481 389.002C230.022 389.303 228.769 389.944 227.698 390.427C224.843 391.713 222.189 393.247 221.081 394.249C220.547 394.733 219.25 395.422 218.197 395.781C217.145 396.14 215.688 396.895 214.957 397.458C214.227 398.022 213.333 398.483 212.97 398.483C212.608 398.483 211.766 399.109 211.101 399.875C210.435 400.64 209.532 401.266 209.094 401.266C208.657 401.266 207.554 401.893 206.644 402.658C205.734 403.424 204.747 404.05 204.449 404.05C204.153 404.05 203.312 404.515 202.581 405.083C201.851 405.651 200.316 406.42 199.17 406.795C198.025 407.168 196.897 407.783 196.665 408.16C196.433 408.539 195.366 409.187 194.295 409.602C193.223 410.018 191.881 410.754 191.313 411.24C189.799 412.534 178.715 412.515 177.236 411.214C176.666 410.714 175.575 410.117 174.81 409.886C174.044 409.653 172.709 408.873 171.844 408.149C170.978 407.425 169.948 406.834 169.553 406.834C169.159 406.834 168.196 406.33 167.414 405.715C166.633 405.101 165.238 404.447 164.316 404.262C163.394 404.078 162.077 403.328 161.39 402.597C160.704 401.865 159.821 401.266 159.432 401.266C159.042 401.266 158.047 400.64 157.22 399.875C156.395 399.109 155.416 398.483 155.046 398.483C154.676 398.483 153.698 397.857 152.872 397.091C152.045 396.326 150.879 395.699 150.279 395.699C149.681 395.699 148.762 395.2 148.239 394.589C147.717 393.979 146.403 393.19 145.322 392.838C144.24 392.486 142.758 391.733 142.027 391.165C141.297 390.597 140.377 390.132 139.983 390.132C139.588 390.132 138.521 389.506 137.611 388.74C136.701 387.975 135.728 387.348 135.45 387.348C135.17 387.348 134.093 386.722 133.056 385.957C132.019 385.191 130.754 384.565 130.246 384.565C129.738 384.565 128.666 383.958 127.866 383.216C127.066 382.474 125.839 381.687 125.141 381.467C124.442 381.245 123.543 380.6 123.142 380.032C122.743 379.463 122.102 378.998 121.72 378.998C121.337 378.998 120.175 378.371 119.138 377.606C118.101 376.84 116.837 376.214 116.332 376.214C115.827 376.214 114.968 375.723 114.425 375.122C113.881 374.52 112.527 373.73 111.416 373.364C110.304 372.998 109.145 372.401 108.839 372.037C108.532 371.673 107.405 371.035 106.333 370.619C105.262 370.204 104.134 369.536 103.828 369.137C103.297 368.444 101.717 367.486 97.426 365.257C96.3543 364.7 95.277 363.932 95.0335 363.55C94.7885 363.167 93.49 362.579 92.1483 362.241C90.8052 361.902 89.5762 361.284 89.4162 360.865C89.2547 360.447 88.2986 359.71 87.2895 359.227C86.2819 358.744 84.2039 357.623 82.673 356.733C81.142 355.844 78.8525 354.623 77.5846 354.021C76.3167 353.418 75.1239 352.671 74.9318 352.362C74.7411 352.053 73.6834 351.501 72.5797 351.138C71.4774 350.774 70.1649 350.114 69.6653 349.67C67.5163 347.767 64.3765 345.595 63.7766 345.595C63.4189 345.595 62.2762 344.968 61.2394 344.203C60.2025 343.437 58.9373 342.811 58.4293 342.811C57.9213 342.811 56.8538 342.207 56.0563 341.469C55.2602 340.73 53.8462 339.959 52.9137 339.755C51.9812 339.55 51.2185 339.14 51.2185 338.842C51.2185 338.544 50.3848 337.952 49.3646 337.527C48.3458 337.101 47.2004 336.377 46.8218 335.92C46.4418 335.462 45.4272 334.934 44.5685 334.746C43.7084 334.556 42.1732 333.79 41.1586 333.039C40.1426 332.291 39.0472 331.673 38.7229 331.667C38.1036 331.656 34.1412 329.187 31.6457 327.255C30.8315 326.625 29.9407 326.11 29.6652 326.11C29.391 326.11 28.3165 325.483 27.2796 324.718C26.2427 323.952 24.9581 323.326 24.4279 323.326C23.8962 323.326 23.0291 322.888 22.5016 322.352C21.5552 321.393 19.1488 320.004 14.7451 317.877C13.5162 317.283 12.1703 316.388 11.7542 315.887C11.3394 315.386 10.6477 314.975 10.2177 314.975C9.78898 314.975 9.19886 314.349 8.90797 313.583C8.61709 312.818 8.00609 312.192 7.54959 312.192C7.09308 312.192 6.41944 311.628 6.0534 310.939C5.68597 310.25 5.01791 309.415 4.56697 309.082C3.036 307.954 2.85089 303.02 2.81749 262.58C2.77991 217.091 2.4918 220.137 6.96781 218.66C8.03531 218.308 8.90797 217.781 8.90797 217.487C8.90797 217.194 10.0924 216.446 11.5412 215.825C12.9901 215.205 14.3053 214.51 14.464 214.282C14.6227 214.054 15.5496 213.546 16.5225 213.153C17.4953 212.759 18.7243 211.959 19.2532 211.374C19.782 210.791 20.5378 210.312 20.9317 210.312C21.3269 210.312 21.9811 209.839 22.3861 209.262C22.7911 208.683 24.0535 207.952 25.1919 207.639C26.3304 207.324 27.9268 206.545 28.7382 205.906C29.5496 205.267 30.5559 204.745 30.9734 204.745C31.391 204.745 32.176 204.307 32.716 203.771C33.256 203.235 35.4341 201.921 37.5538 200.85C39.6749 199.779 41.8002 198.498 42.2776 198.002C42.755 197.505 44.0814 196.797 45.2254 196.428C46.3695 196.059 47.4453 195.532 47.6151 195.256C47.7849 194.982 49.0417 194.262 50.407 193.658C51.771 193.054 52.8886 192.326 52.8886 192.04C52.8886 191.753 53.6221 191.216 54.5184 190.844C55.4147 190.472 56.2707 189.85 56.4196 189.462C56.5685 189.074 57.8267 188.471 59.2171 188.12C60.6061 187.771 61.9422 187.173 62.1872 186.79C62.4307 186.408 63.508 185.642 64.5797 185.088C65.6513 184.534 67.7808 183.355 69.3118 182.468C70.8427 181.582 72.8664 180.484 73.81 180.028C74.7523 179.573 75.8379 178.823 76.2206 178.363C76.6034 177.9 77.7752 177.239 78.8247 176.893C79.8741 176.548 80.9805 175.8 81.284 175.234C81.5874 174.667 82.4002 174.095 83.0891 173.962C83.7794 173.829 84.5046 173.686 84.7008 173.644C84.8984 173.604 85.2116 173.966 85.3967 174.45Z" fill="#0053F1"/>
<path d="M1292.43 109.713H1104.01V150.259H1175.57V326.753H1218.5V150.259H1292.43V109.713Z" fill="#0053F1" stroke="#0053F1"/>
<path d="M891.745 109.713H1049.16V145.489H920.366C920.366 145.489 910.826 145.489 910.826 150.259V190.805C910.826 195.575 915.596 195.575 915.596 195.575H1022.92C1037.23 195.575 1051.54 205.115 1051.54 219.426V300.517C1051.54 314.828 1039.62 326.753 1025.31 326.753H867.895V286.207H1001.46C1001.46 286.207 1006.23 283.822 1006.23 279.052V243.276C1006.23 238.506 1001.46 238.506 1001.46 238.506H894.13C877.435 238.506 867.895 228.966 867.895 214.655V128.793C867.895 114.483 882.205 109.713 891.745 109.713Z" fill="#0053F1" stroke="#0053F1"/>
<path d="M405.19 147.874L383.725 109.713H545.909C560.219 109.713 574.529 121.638 574.529 138.334V221.811C574.529 236.121 545.909 243.276 545.909 243.276C545.909 243.276 541.138 240.891 545.909 252.816C550.679 264.742 572.144 314.828 574.529 321.983C576.914 329.138 574.529 329.138 574.529 329.138H522.058C517.288 329.138 491.052 248.046 491.052 248.046H426.656V329.138H383.725V209.885H522.058C531.598 209.885 531.598 200.345 531.598 200.345V155.029C531.598 147.874 522.058 147.874 522.058 147.874H405.19Z" fill="#0053F1" stroke="#0053F1"/>
<path d="M619.849 295.747V109.713H662.78V286.207H777.262V109.713H820.193C820.193 109.713 817.808 274.282 817.808 295.747C817.808 317.213 805.883 326.753 786.803 326.753H648.469C641.312 326.753 619.849 319.598 619.849 295.747Z" fill="#0053F1" stroke="#0053F1"/>
</svg>
