<svg width="1440" height="744" viewBox="0 0 1440 744" fill="none" xmlns="http://www.w3.org/2000/svg">
<g clip-path="url(#clip0)">
<circle opacity="0.3" cx="1355.38" cy="109.087" r="17.6448" fill="#F4F6FD"/>
<circle cx="1312.88" cy="167.882" r="5.8816" fill="#F88419"/>
<circle opacity="0.3" cx="727.159" cy="519.948" r="639.448" stroke="#0053F1"/>
<circle opacity="0.3" cx="704.224" cy="424.51" r="510.718" stroke="#0053F1"/>
<circle cx="1108.91" cy="119.703" r="44.3894" fill="#F4F6FD"/>
<path fill-rule="evenodd" clip-rule="evenodd" d="M1108.91 149.296C1092.63 149.296 1079.31 135.979 1079.31 119.556C1079.46 103.28 1092.63 89.9632 1109.05 90.1112C1125.33 90.2592 1138.5 103.428 1138.5 119.999C1138.35 136.127 1125.18 149.296 1108.91 149.296Z" fill="white"/>
<path fill-rule="evenodd" clip-rule="evenodd" d="M1096.41 119.216C1096.41 112.173 1102.12 106.465 1109.16 106.465C1116.2 106.465 1121.91 112.173 1121.91 119.216C1121.91 126.258 1116.2 131.966 1109.16 131.966C1102.12 131.966 1096.41 126.258 1096.41 119.216ZM1109.16 103.965C1100.74 103.965 1093.91 110.793 1093.91 119.216C1093.91 127.638 1100.74 134.466 1109.16 134.466C1117.58 134.466 1124.41 127.638 1124.41 119.216C1124.41 110.793 1117.58 103.965 1109.16 103.965ZM1110.86 123.806C1110.91 123.983 1110.97 124.139 1111.03 124.275H1113.91V124.102C1113.77 123.823 1113.66 123.49 1113.58 123.102C1113.51 122.715 1113.47 122.225 1113.47 121.634V116.901C1113.47 116.262 1113.35 115.702 1113.12 115.219C1112.88 114.729 1112.55 114.325 1112.13 114.005C1111.7 113.686 1111.2 113.444 1110.63 113.281C1110.06 113.118 1109.44 113.036 1108.77 113.036C1108.03 113.036 1107.37 113.131 1106.79 113.322C1106.22 113.505 1105.73 113.757 1105.33 114.077C1104.94 114.396 1104.64 114.767 1104.43 115.188C1104.22 115.61 1104.12 116.055 1104.12 116.524H1106.96C1106.96 116.109 1107.09 115.78 1107.35 115.535C1107.62 115.283 1108.04 115.158 1108.62 115.158C1109.27 115.158 1109.77 115.314 1110.12 115.627C1110.46 115.933 1110.64 116.351 1110.64 116.881V117.534H1109.06C1107.34 117.534 1106.04 117.853 1105.17 118.492C1104.31 119.125 1103.88 120.022 1103.88 121.185C1103.88 121.661 1103.97 122.103 1104.16 122.511C1104.35 122.912 1104.62 123.259 1104.96 123.551C1105.3 123.843 1105.7 124.071 1106.17 124.234C1106.65 124.397 1107.17 124.479 1107.73 124.479C1108.08 124.479 1108.4 124.445 1108.7 124.377C1109 124.316 1109.27 124.231 1109.52 124.122C1109.77 124.007 1109.99 123.874 1110.2 123.724C1110.4 123.575 1110.58 123.415 1110.74 123.245C1110.77 123.442 1110.81 123.629 1110.86 123.806ZM1109.13 122.184C1108.88 122.252 1108.62 122.286 1108.33 122.286C1107.79 122.286 1107.38 122.161 1107.11 121.909C1106.84 121.657 1106.71 121.341 1106.71 120.961C1106.71 120.709 1106.76 120.478 1106.85 120.267C1106.95 120.049 1107.09 119.866 1107.29 119.716C1107.49 119.56 1107.74 119.441 1108.06 119.359C1108.37 119.271 1108.75 119.227 1109.19 119.227H1110.64V121.124C1110.56 121.266 1110.44 121.409 1110.3 121.552C1110.16 121.688 1109.99 121.81 1109.79 121.919C1109.59 122.028 1109.37 122.116 1109.13 122.184Z" fill="#0053F1"/>
<circle cx="192.265" cy="454.103" r="44.3894" fill="#FAFBFE"/>
<path fill-rule="evenodd" clip-rule="evenodd" d="M192.265 483.696C175.989 483.696 162.673 470.38 162.673 453.956C162.821 437.68 175.989 424.364 192.413 424.512C208.689 424.66 221.858 437.828 221.858 454.4C221.71 470.528 208.541 483.696 192.265 483.696Z" fill="white"/>
<mask id="path-10-outside-1" maskUnits="userSpaceOnUse" x="180.908" y="438.307" width="23" height="32" fill="black">
<rect fill="white" x="180.908" y="438.307" width="23" height="32"/>
<path fill-rule="evenodd" clip-rule="evenodd" d="M194.561 451.564L193.901 455.033L200.172 455.901L199.732 457.527L193.571 456.66C193.131 458.069 192.911 459.587 192.361 460.887C191.81 462.405 191.26 463.923 190.6 465.332C189.72 467.175 188.18 468.476 186.089 468.801C184.879 469.018 183.559 468.91 182.568 468.151C182.238 467.934 181.908 467.5 181.908 467.175C181.908 466.741 182.128 466.199 182.458 465.983C182.678 465.874 183.229 465.983 183.559 466.091C183.889 466.416 184.219 466.85 184.439 467.284C185.099 468.151 185.979 468.259 186.859 467.609C187.85 466.741 188.4 465.549 188.73 464.357C189.39 461.755 190.05 459.261 190.6 456.66V456.226L184.769 455.359L184.989 453.733L191.04 454.6L191.81 451.239L185.539 450.264L185.759 448.529L192.251 449.396C192.471 448.746 192.581 448.204 192.801 447.662C193.351 445.71 193.901 443.759 195.221 442.025C196.542 440.29 198.082 439.206 200.392 439.314C201.383 439.314 202.373 439.64 203.033 440.398C203.143 440.507 203.363 440.724 203.363 440.94C203.363 441.374 203.363 441.916 203.033 442.241C202.593 442.567 202.043 442.458 201.603 442.025C201.273 441.699 201.053 441.374 200.722 441.049C200.062 440.182 199.072 440.073 198.302 440.832C197.752 441.374 197.202 442.133 196.872 442.892C196.101 445.168 195.551 447.553 194.781 449.938L200.833 450.806L200.392 452.432L194.561 451.564Z"/>
</mask>
<path fill-rule="evenodd" clip-rule="evenodd" d="M194.561 451.564L193.901 455.033L200.172 455.901L199.732 457.527L193.571 456.66C193.131 458.069 192.911 459.587 192.361 460.887C191.81 462.405 191.26 463.923 190.6 465.332C189.72 467.175 188.18 468.476 186.089 468.801C184.879 469.018 183.559 468.91 182.568 468.151C182.238 467.934 181.908 467.5 181.908 467.175C181.908 466.741 182.128 466.199 182.458 465.983C182.678 465.874 183.229 465.983 183.559 466.091C183.889 466.416 184.219 466.85 184.439 467.284C185.099 468.151 185.979 468.259 186.859 467.609C187.85 466.741 188.4 465.549 188.73 464.357C189.39 461.755 190.05 459.261 190.6 456.66V456.226L184.769 455.359L184.989 453.733L191.04 454.6L191.81 451.239L185.539 450.264L185.759 448.529L192.251 449.396C192.471 448.746 192.581 448.204 192.801 447.662C193.351 445.71 193.901 443.759 195.221 442.025C196.542 440.29 198.082 439.206 200.392 439.314C201.383 439.314 202.373 439.64 203.033 440.398C203.143 440.507 203.363 440.724 203.363 440.94C203.363 441.374 203.363 441.916 203.033 442.241C202.593 442.567 202.043 442.458 201.603 442.025C201.273 441.699 201.053 441.374 200.722 441.049C200.062 440.182 199.072 440.073 198.302 440.832C197.752 441.374 197.202 442.133 196.872 442.892C196.101 445.168 195.551 447.553 194.781 449.938L200.833 450.806L200.392 452.432L194.561 451.564Z" fill="#0053F1"/>
<path d="M193.901 455.033L193.41 454.94L193.311 455.457L193.832 455.529L193.901 455.033ZM200.172 455.901L200.655 456.031L200.803 455.483L200.241 455.405L200.172 455.901ZM199.732 457.527L199.663 458.022L200.1 458.083L200.215 457.657L199.732 457.527ZM193.571 456.66L193.641 456.164L193.22 456.105L193.094 456.511L193.571 456.66ZM192.361 460.887L191.9 460.693L191.895 460.705L191.891 460.717L192.361 460.887ZM190.6 465.332L191.051 465.548L191.053 465.544L190.6 465.332ZM186.089 468.801L186.012 468.307L186.001 468.309L186.089 468.801ZM182.568 468.151L182.872 467.754L182.858 467.743L182.843 467.733L182.568 468.151ZM182.458 465.983L182.237 465.534L182.21 465.548L182.184 465.565L182.458 465.983ZM183.559 466.091L183.91 465.735L183.826 465.653L183.715 465.616L183.559 466.091ZM184.439 467.284L183.993 467.51L184.013 467.55L184.041 467.586L184.439 467.284ZM186.859 467.609L187.156 468.011L187.173 467.999L187.189 467.985L186.859 467.609ZM188.73 464.357L189.212 464.49L189.214 464.479L188.73 464.357ZM190.6 456.66L191.089 456.763L191.1 456.712V456.66H190.6ZM190.6 456.226H191.1V455.795L190.674 455.731L190.6 456.226ZM184.769 455.359L184.273 455.292L184.207 455.781L184.695 455.853L184.769 455.359ZM184.989 453.733L185.06 453.238L184.561 453.166L184.493 453.666L184.989 453.733ZM191.04 454.6L190.969 455.095L191.425 455.16L191.528 454.712L191.04 454.6ZM191.81 451.239L192.298 451.351L192.418 450.828L191.887 450.745L191.81 451.239ZM185.539 450.264L185.043 450.201L184.982 450.683L185.462 450.758L185.539 450.264ZM185.759 448.529L185.825 448.033L185.326 447.967L185.263 448.466L185.759 448.529ZM192.251 449.396L192.184 449.892L192.592 449.946L192.724 449.557L192.251 449.396ZM192.801 447.662L193.264 447.85L193.274 447.824L193.282 447.797L192.801 447.662ZM200.392 439.314L200.369 439.814L200.381 439.814H200.392V439.314ZM203.033 440.398L202.656 440.727L202.668 440.741L202.682 440.755L203.033 440.398ZM203.033 442.241L203.33 442.643L203.359 442.622L203.384 442.598L203.033 442.241ZM200.722 441.049L200.325 441.352L200.346 441.38L200.372 441.405L200.722 441.049ZM196.872 442.892L196.413 442.692L196.405 442.712L196.398 442.732L196.872 442.892ZM194.781 449.938L194.305 449.785L194.123 450.349L194.71 450.433L194.781 449.938ZM200.833 450.806L201.315 450.936L201.463 450.391L200.903 450.311L200.833 450.806ZM200.392 452.432L200.319 452.926L200.759 452.992L200.875 452.562L200.392 452.432ZM194.07 451.471L193.41 454.94L194.392 455.127L195.052 451.658L194.07 451.471ZM193.832 455.529L200.104 456.396L200.241 455.405L193.969 454.538L193.832 455.529ZM199.69 455.77L199.25 457.396L200.215 457.657L200.655 456.031L199.69 455.77ZM199.802 457.032L193.641 456.164L193.501 457.155L199.663 458.022L199.802 457.032ZM193.094 456.511C192.868 457.234 192.697 457.99 192.522 458.693C192.344 459.408 192.159 460.081 191.9 460.693L192.821 461.082C193.112 460.393 193.313 459.656 193.492 458.935C193.675 458.202 193.834 457.495 194.048 456.809L193.094 456.511ZM191.891 460.717C191.339 462.239 190.796 463.735 190.147 465.12L191.053 465.544C191.724 464.111 192.282 462.571 192.831 461.058L191.891 460.717ZM190.149 465.117C189.331 466.83 187.92 468.01 186.012 468.307L186.166 469.295C188.44 468.942 190.109 467.52 191.051 465.548L190.149 465.117ZM186.001 468.309C184.864 468.513 183.708 468.394 182.872 467.754L182.264 468.548C183.409 469.425 184.894 469.523 186.177 469.293L186.001 468.309ZM182.843 467.733C182.735 467.662 182.614 467.545 182.524 467.416C182.479 467.353 182.448 467.295 182.429 467.248C182.409 467.198 182.408 467.175 182.408 467.175H181.408C181.408 467.487 181.557 467.779 181.705 467.991C181.862 468.214 182.072 468.423 182.294 468.569L182.843 467.733ZM182.408 467.175C182.408 467.036 182.445 466.861 182.516 466.7C182.59 466.535 182.676 466.438 182.733 466.401L182.184 465.565C181.911 465.744 181.721 466.027 181.603 466.295C181.481 466.568 181.408 466.881 181.408 467.175H182.408ZM182.679 466.431C182.642 466.449 182.636 466.441 182.696 466.438C182.746 466.436 182.816 466.44 182.902 466.451C183.074 466.474 183.263 466.52 183.403 466.566L183.715 465.616C183.524 465.553 183.273 465.491 183.032 465.46C182.912 465.444 182.782 465.434 182.657 465.439C182.542 465.443 182.384 465.462 182.237 465.534L182.679 466.431ZM183.208 466.447C183.504 466.739 183.8 467.129 183.993 467.51L184.885 467.057C184.638 466.57 184.274 466.094 183.91 465.735L183.208 466.447ZM184.041 467.586C184.43 468.097 184.925 468.435 185.501 468.511C186.076 468.587 186.643 468.39 187.156 468.011L186.562 467.207C186.195 467.478 185.882 467.552 185.632 467.52C185.383 467.487 185.108 467.337 184.837 466.981L184.041 467.586ZM187.189 467.985C188.282 467.028 188.868 465.731 189.212 464.49L188.248 464.223C187.931 465.367 187.418 466.455 186.53 467.233L187.189 467.985ZM189.214 464.479C189.873 461.885 190.537 459.377 191.089 456.763L190.111 456.556C189.564 459.145 188.907 461.625 188.245 464.234L189.214 464.479ZM191.1 456.66V456.226H190.1V456.66H191.1ZM190.674 455.731L184.842 454.864L184.695 455.853L190.527 456.721L190.674 455.731ZM185.264 455.426L185.484 453.8L184.493 453.666L184.273 455.292L185.264 455.426ZM184.918 454.228L190.969 455.095L191.111 454.105L185.06 453.238L184.918 454.228ZM191.528 454.712L192.298 451.351L191.323 451.128L190.553 454.488L191.528 454.712ZM191.887 450.745L185.616 449.769L185.462 450.758L191.734 451.733L191.887 450.745ZM186.035 450.326L186.255 448.592L185.263 448.466L185.043 450.201L186.035 450.326ZM185.693 449.025L192.184 449.892L192.317 448.901L185.825 448.033L185.693 449.025ZM192.724 449.557C192.839 449.218 192.925 448.905 193.006 448.628C193.088 448.345 193.164 448.095 193.264 447.85L192.337 447.474C192.217 447.77 192.129 448.062 192.045 448.349C191.961 448.641 191.882 448.924 191.777 449.236L192.724 449.557ZM193.282 447.797C193.835 445.834 194.365 443.975 195.619 442.327L194.823 441.722C193.437 443.543 192.866 445.586 192.319 447.526L193.282 447.797ZM195.619 442.327C196.878 440.674 198.277 439.716 200.369 439.814L200.416 438.815C197.887 438.696 196.205 439.906 194.823 441.722L195.619 442.327ZM200.392 439.814C201.282 439.814 202.116 440.107 202.656 440.727L203.41 440.07C202.629 439.173 201.483 438.814 200.392 438.814V439.814ZM202.682 440.755C202.739 440.811 202.793 440.865 202.835 440.922C202.854 440.949 202.863 440.967 202.867 440.975C202.87 440.984 202.863 440.97 202.863 440.94H203.863C203.863 440.673 203.733 440.458 203.644 440.335C203.548 440.202 203.437 440.094 203.384 440.042L202.682 440.755ZM202.863 440.94C202.863 441.165 202.862 441.364 202.83 441.543C202.798 441.719 202.745 441.823 202.682 441.885L203.384 442.598C203.651 442.335 203.763 442.004 203.814 441.72C203.864 441.438 203.863 441.15 203.863 440.94H202.863ZM202.736 441.839C202.555 441.973 202.279 441.989 201.954 441.668L201.252 442.381C201.807 442.927 202.631 443.16 203.33 442.643L202.736 441.839ZM201.954 441.668C201.807 441.524 201.683 441.378 201.544 441.214C201.408 441.053 201.257 440.874 201.073 440.693L200.372 441.405C200.518 441.549 200.642 441.695 200.781 441.86C200.917 442.02 201.068 442.2 201.252 442.381L201.954 441.668ZM201.12 440.746C200.724 440.225 200.193 439.889 199.601 439.833C199.004 439.776 198.424 440.01 197.951 440.476L198.653 441.188C198.95 440.895 199.25 440.804 199.506 440.828C199.767 440.853 200.061 441.006 200.325 441.352L201.12 440.746ZM197.951 440.476C197.361 441.057 196.772 441.868 196.413 442.692L197.33 443.091C197.632 442.398 198.143 441.691 198.653 441.188L197.951 440.476ZM196.398 442.732C196.008 443.884 195.675 445.062 195.345 446.24C195.014 447.421 194.687 448.604 194.305 449.785L195.257 450.092C195.646 448.888 195.979 447.685 196.308 446.509C196.638 445.329 196.965 444.176 197.345 443.052L196.398 442.732ZM194.71 450.433L200.762 451.301L200.903 450.311L194.852 449.443L194.71 450.433ZM200.35 450.675L199.91 452.301L200.875 452.562L201.315 450.936L200.35 450.675ZM200.466 451.937L194.635 451.07L194.488 452.059L200.319 452.926L200.466 451.937Z" fill="white" mask="url(#path-10-outside-1)"/>
<circle cx="1153.3" cy="653.856" r="44.3894" fill="#F4F6FD"/>
<path fill-rule="evenodd" clip-rule="evenodd" d="M1153.3 683.449C1137.02 683.449 1123.7 670.132 1123.7 653.709C1123.85 637.433 1137.02 624.116 1153.44 624.264C1169.72 624.412 1182.89 637.581 1182.89 654.152C1182.74 670.28 1169.57 683.449 1153.3 683.449Z" fill="#FEFEFF"/>
<path fill-rule="evenodd" clip-rule="evenodd" d="M1153.13 639.06C1150.17 639.094 1147.42 639.999 1145.12 641.529L1145.66 642.215C1147.9 640.744 1150.58 639.899 1153.46 639.931C1160.88 640.014 1166.98 645.976 1167.22 653.398C1167.48 661.438 1160.88 668.034 1152.84 667.775C1145.42 667.535 1139.46 661.439 1139.37 654.014C1139.34 651.137 1140.19 648.457 1141.66 646.222L1140.97 645.681C1139.44 647.98 1138.54 650.73 1138.5 653.686C1138.41 661.773 1144.86 668.466 1152.96 668.648C1161.39 668.839 1168.28 661.951 1168.09 653.515C1167.91 645.414 1161.21 638.969 1153.13 639.06Z" fill="#0053F1"/>
<path fill-rule="evenodd" clip-rule="evenodd" d="M1144.59 643.701C1144.59 644.503 1143.94 645.152 1143.14 645.152C1142.34 645.152 1141.69 644.503 1141.69 643.701C1141.69 642.9 1142.34 642.251 1143.14 642.251C1143.94 642.251 1144.59 642.9 1144.59 643.701Z" fill="#0053F1"/>
<path fill-rule="evenodd" clip-rule="evenodd" d="M1157.65 653.856V658.208H1153.3C1150.89 658.208 1148.95 656.259 1148.95 653.856C1148.95 651.452 1150.89 649.504 1153.3 649.504C1155.7 649.504 1157.65 651.452 1157.65 653.856ZM1153.35 646.603C1149.32 646.573 1146.04 649.832 1146.04 653.856C1146.04 657.862 1149.29 661.109 1153.3 661.109H1160.55V653.947C1160.55 649.948 1157.35 646.633 1153.35 646.603Z" fill="#0053F1"/>
<circle cx="1348.61" cy="370.503" r="44.3894" fill="#F4F6FD"/>
<path fill-rule="evenodd" clip-rule="evenodd" d="M1348.61 400.096C1332.33 400.096 1319.02 386.78 1319.02 370.356C1319.17 354.08 1332.33 340.764 1348.76 340.912C1365.03 341.06 1378.2 354.228 1378.2 370.8C1378.05 386.928 1364.89 400.096 1348.61 400.096Z" fill="#FEFEFF"/>
<path fill-rule="evenodd" clip-rule="evenodd" d="M1344.78 365.426L1344.75 365.351C1344.6 364.921 1344.62 364.451 1344.81 364.036L1348.09 356.761C1348.21 356.497 1348.39 356.266 1348.62 356.087C1348.85 355.909 1349.11 355.788 1349.4 355.736C1349.68 355.684 1349.98 355.702 1350.25 355.788C1350.53 355.874 1350.78 356.026 1350.99 356.23C1351.24 356.486 1351.41 356.812 1351.48 357.167C1351.55 357.522 1351.51 357.889 1351.36 358.22L1348.1 365.566C1347.96 365.895 1347.72 366.172 1347.41 366.363C1347.11 366.553 1346.75 366.646 1346.39 366.631C1346.03 366.616 1345.69 366.493 1345.4 366.278C1345.11 366.063 1344.89 365.766 1344.78 365.426ZM1350.61 363.207C1350.44 363.362 1350.31 363.549 1350.22 363.758C1350.09 364.052 1350.04 364.376 1350.09 364.693C1350.14 365.01 1350.29 365.305 1350.5 365.544C1350.72 365.782 1351 365.953 1351.31 366.035C1351.62 366.118 1351.94 366.109 1352.25 366.01L1356.36 364.67C1356.63 364.582 1356.87 364.427 1357.07 364.219C1357.26 364.01 1357.4 363.756 1357.46 363.479C1357.53 363.203 1357.52 362.915 1357.45 362.641C1357.37 362.368 1357.22 362.119 1357.02 361.919L1356.97 361.865C1356.75 361.645 1356.47 361.492 1356.17 361.422C1355.87 361.351 1355.55 361.368 1355.26 361.469L1351.19 362.861C1350.98 362.935 1350.78 363.053 1350.61 363.207ZM1353.76 366.597L1353.68 366.622C1353.34 366.74 1353.05 366.957 1352.83 367.245C1352.62 367.534 1352.5 367.88 1352.48 368.238C1352.47 368.597 1352.56 368.953 1352.75 369.258C1352.94 369.563 1353.22 369.804 1353.54 369.95L1360.89 373.204C1361.22 373.351 1361.59 373.394 1361.94 373.329C1362.3 373.263 1362.62 373.09 1362.88 372.835C1363.08 372.63 1363.24 372.379 1363.32 372.103C1363.41 371.826 1363.43 371.533 1363.38 371.248C1363.32 370.963 1363.2 370.695 1363.02 370.467C1362.85 370.239 1362.61 370.057 1362.35 369.938L1355.08 366.659C1354.66 366.471 1354.19 366.449 1353.76 366.597ZM1355.95 372.511C1355.79 372.343 1355.6 372.208 1355.39 372.115C1355.1 371.987 1354.78 371.946 1354.46 371.997C1354.15 372.048 1353.85 372.19 1353.61 372.404C1353.38 372.619 1353.21 372.898 1353.12 373.207C1353.04 373.516 1353.05 373.842 1353.15 374.147L1354.49 378.259C1354.58 378.528 1354.73 378.769 1354.94 378.961C1355.15 379.152 1355.41 379.287 1355.68 379.352C1355.96 379.418 1356.24 379.412 1356.52 379.335C1356.79 379.259 1357.04 379.113 1357.24 378.914L1357.29 378.86C1357.51 378.64 1357.66 378.364 1357.73 378.061C1357.8 377.758 1357.79 377.442 1357.69 377.149L1356.29 373.094C1356.22 372.878 1356.1 372.679 1355.95 372.511ZM1352.48 375.653L1352.45 375.581C1352.33 375.242 1352.12 374.947 1351.83 374.734C1351.54 374.52 1351.2 374.398 1350.84 374.382C1350.48 374.367 1350.13 374.46 1349.82 374.648C1349.52 374.837 1349.28 375.112 1349.13 375.439L1345.87 382.785C1345.73 383.116 1345.68 383.483 1345.75 383.838C1345.82 384.193 1345.99 384.52 1346.24 384.776C1346.45 384.981 1346.7 385.133 1346.98 385.219C1347.25 385.305 1347.55 385.323 1347.83 385.271C1348.12 385.218 1348.38 385.098 1348.61 384.919C1348.84 384.741 1349.02 384.51 1349.14 384.246L1352.42 376.971C1352.61 376.555 1352.63 376.084 1352.48 375.653ZM1346.56 377.838C1346.73 377.683 1346.87 377.496 1346.96 377.286C1347.09 376.993 1347.13 376.67 1347.07 376.354C1347.02 376.039 1346.88 375.745 1346.67 375.509C1346.45 375.272 1346.17 375.102 1345.87 375.019C1345.56 374.937 1345.23 374.945 1344.93 375.042L1340.81 376.383C1340.54 376.47 1340.3 376.624 1340.11 376.832C1339.92 377.039 1339.78 377.293 1339.71 377.568C1339.65 377.843 1339.65 378.13 1339.73 378.403C1339.8 378.676 1339.95 378.925 1340.15 379.126L1340.2 379.18C1340.42 379.401 1340.7 379.556 1341 379.626C1341.31 379.696 1341.63 379.679 1341.92 379.576L1345.98 378.184C1346.2 378.11 1346.39 377.992 1346.56 377.838ZM1343.46 374.42L1343.53 374.395C1343.87 374.278 1344.17 374.062 1344.38 373.773C1344.6 373.485 1344.72 373.139 1344.74 372.779C1344.75 372.42 1344.66 372.064 1344.47 371.759C1344.28 371.454 1344 371.213 1343.67 371.068L1336.33 367.813C1336 367.667 1335.63 367.624 1335.27 367.691C1334.92 367.757 1334.59 367.93 1334.34 368.187C1334.13 368.391 1333.98 368.643 1333.89 368.919C1333.81 369.196 1333.79 369.489 1333.84 369.774C1333.89 370.059 1334.02 370.327 1334.19 370.555C1334.37 370.783 1334.6 370.964 1334.87 371.083L1342.14 374.361C1342.56 374.547 1343.03 374.569 1343.46 374.42ZM1341.24 368.563C1341.39 368.732 1341.58 368.867 1341.79 368.96C1342.08 369.092 1342.41 369.135 1342.73 369.085C1343.05 369.034 1343.34 368.892 1343.58 368.676C1343.82 368.459 1343.99 368.178 1344.07 367.866C1344.15 367.554 1344.14 367.225 1344.04 366.919L1342.7 362.807C1342.61 362.537 1342.46 362.294 1342.25 362.101C1342.04 361.909 1341.79 361.773 1341.51 361.707C1341.23 361.641 1340.94 361.646 1340.67 361.723C1340.4 361.8 1340.15 361.946 1339.95 362.146L1339.89 362.2C1339.67 362.421 1339.52 362.699 1339.45 363.004C1339.38 363.309 1339.4 363.627 1339.5 363.923L1340.9 367.982C1340.97 368.197 1341.09 368.395 1341.24 368.563Z" fill="#0053F1"/>
<circle cx="100.528" cy="633.141" r="44.3894" fill="#F6F8FE"/>
<path fill-rule="evenodd" clip-rule="evenodd" d="M100.527 662.734C84.2511 662.734 70.9346 649.417 70.9346 632.993C71.0825 616.718 84.2511 603.401 100.675 603.549C116.951 603.697 130.119 616.866 130.119 633.437C129.971 649.565 116.803 662.734 100.527 662.734Z" fill="#FEFEFF"/>
<path d="M97.3906 637.294C97.3982 637.294 97.4059 637.294 97.4135 637.294C97.4154 637.294 97.4173 637.294 97.4194 637.294H99.3747C99.3752 637.434 99.3753 637.517 99.3753 637.542C99.3709 639.536 99.3713 641.529 99.3749 643.522C99.375 643.663 99.3308 643.743 99.2026 643.805C98.5313 644.128 98.0246 644.964 98.1628 645.857C98.3232 646.896 99.3891 647.68 100.418 647.478C101.324 647.301 101.919 646.682 102.047 645.73C102.133 645.084 101.823 644.231 100.992 643.804C100.88 643.747 100.818 643.684 100.818 643.545C100.822 641.609 100.822 639.673 100.818 637.737C100.818 637.675 100.828 637.63 100.849 637.598V637.294H103.237C103.312 637.294 103.386 637.288 103.459 637.276C104.01 637.22 104.521 637.032 104.959 636.745L108.393 638.735L108.379 638.746C108.471 638.798 108.562 638.85 108.654 638.902C108.825 638.999 108.891 639.106 108.885 639.306C108.855 640.464 109.865 641.411 111.042 641.285C112.198 641.162 113.017 640.049 112.749 638.924C112.427 637.575 110.967 636.966 109.787 637.695C109.663 637.772 109.573 637.793 109.441 637.715C108.443 637.132 107.442 636.552 106.438 635.98C106.385 635.95 106.349 635.921 106.326 635.889L105.977 635.687C106.267 635.204 106.433 634.641 106.433 634.04C106.433 632.846 105.78 631.81 104.812 631.244L104.824 631.237C104.841 631.224 104.86 631.212 104.882 631.199C105.307 630.956 105.732 630.712 106.156 630.468L108.977 628.839C109.133 628.749 109.289 628.658 109.445 628.568C109.567 628.497 109.65 628.496 109.77 628.577C110.198 628.864 110.678 628.955 111.181 628.867C112.161 628.695 112.871 627.808 112.783 626.761C112.688 625.625 111.575 624.776 110.462 625.022C109.486 625.238 108.873 626.002 108.884 627.005C108.886 627.176 108.839 627.273 108.686 627.361C108.293 627.586 107.9 627.811 107.507 628.037L107.507 628.038L103.912 630.121C103.278 629.011 102.148 628.212 100.821 628.003C100.821 626.315 100.825 624.627 100.815 622.939C100.814 622.686 100.873 622.539 101.11 622.403C101.961 621.914 102.284 620.861 101.895 619.964C101.503 619.058 100.5 618.575 99.56 618.861C98.7043 619.122 98.2273 619.727 98.1434 620.607C98.0789 621.286 98.4 622.041 99.1748 622.465C99.2938 622.53 99.3768 622.587 99.3762 622.75C99.3747 623.247 99.3735 623.744 99.3727 624.241H99.4013V628.009C98.2251 628.204 97.1882 628.866 96.531 629.825C96.3627 629.862 96.1985 629.91 96.0391 629.967C94.5579 629.12 93.0833 628.262 91.5996 627.419C91.3771 627.293 91.2698 627.157 91.3069 626.901C91.3217 626.799 91.2902 626.689 91.2735 626.584C91.1215 625.625 90.1845 624.824 89.0535 625.009C87.944 625.192 87.2395 626.197 87.4226 627.272C87.6561 628.645 89.2224 629.34 90.404 628.589C90.5373 628.504 90.6295 628.498 90.7662 628.577C91.1871 628.823 91.6086 629.068 92.0304 629.312L92.0464 629.284L94.6778 630.806C93.9557 631.491 93.5055 632.448 93.5055 633.513C93.5055 634.336 93.7743 635.095 94.2297 635.713L91.1641 637.483L91.1622 637.47C91.0134 637.555 90.8646 637.64 90.7157 637.725C90.6491 637.762 90.5199 637.754 90.4523 637.714C90.1344 637.522 89.7958 637.394 89.4253 637.384C88.1925 637.353 87.4428 638.36 87.4006 639.235C87.3519 640.261 88.1271 641.311 89.381 641.301C90.4806 641.293 91.3173 640.411 91.3065 639.31C91.3048 639.114 91.3625 639.002 91.535 638.904C92.382 638.422 93.6463 637.693 95.3281 636.718C95.9271 637.083 96.6349 637.294 97.3906 637.294ZM112.025 629.015C111.882 629.1 111.832 629.187 111.833 629.351C111.837 631.88 111.837 634.409 111.833 636.938C111.833 637.09 111.872 637.182 112.011 637.262C112.909 637.781 113.363 638.739 113.202 639.746C113.047 640.711 112.277 641.503 111.278 641.693C110.699 641.803 110.139 641.715 109.631 641.404C109.477 641.309 109.368 641.326 109.223 641.409C107.05 642.669 104.874 643.925 102.696 645.176C102.547 645.262 102.491 645.356 102.492 645.53C102.494 646.747 101.555 647.806 100.383 647.924C99.1338 648.05 98.0296 647.265 97.7597 646.052C97.7185 645.866 97.7045 645.671 97.7003 645.48C97.6971 645.351 97.6613 645.272 97.5464 645.205C95.3384 643.934 93.1322 642.66 90.9269 641.385C90.8075 641.315 90.7137 641.315 90.5932 641.387C89.1522 642.255 87.3157 641.423 87.0101 639.802C86.8172 638.778 87.2339 637.82 88.1501 637.281C88.2948 637.195 88.3603 637.109 88.36 636.932C88.3534 634.403 88.3544 631.874 88.3584 629.345C88.3585 629.193 88.319 629.103 88.18 629.022C87.2603 628.488 86.8276 627.559 87.0042 626.516C87.1797 625.48 87.9803 624.72 89.0222 624.572C89.5807 624.492 90.1193 624.594 90.6025 624.903C90.7147 624.975 90.7981 624.973 90.9123 624.907C93.1111 623.634 95.3116 622.364 97.5138 621.097C97.647 621.021 97.699 620.933 97.6993 620.776C97.7029 619.383 98.803 618.317 100.197 618.345C101.283 618.367 102.3 619.264 102.454 620.337C102.468 620.435 102.49 620.496 102.49 620.632C102.49 620.929 102.6 621.055 102.831 621.188C104.968 622.411 107.099 623.644 109.228 624.879C109.375 624.964 109.481 624.968 109.633 624.881C111.08 624.056 112.834 624.847 113.186 626.48C113.219 626.632 113.216 626.792 113.227 626.931C113.204 627.858 112.801 628.549 112.025 629.015ZM110.29 639.347C110.29 639.025 110.521 638.791 110.838 638.792C111.143 638.793 111.402 639.045 111.406 639.343C111.409 639.63 111.131 639.908 110.842 639.908C110.533 639.908 110.29 639.662 110.29 639.347ZM99.5386 620.741C99.5397 620.429 99.7828 620.188 100.097 620.188C100.411 620.188 100.653 620.428 100.654 620.741C100.655 621.041 100.393 621.307 100.098 621.303C99.7983 621.3 99.5376 621.038 99.5386 620.741ZM89.9025 639.349C89.9013 639.664 89.6562 639.911 89.3484 639.908C89.0575 639.905 88.7886 639.634 88.7873 639.341C88.7858 639.048 89.0519 638.792 89.3573 638.792C89.6736 638.792 89.9037 639.027 89.9025 639.349ZM100.103 644.998C100.417 645 100.655 645.238 100.654 645.549C100.652 645.859 100.41 646.092 100.092 646.09C99.7763 646.089 99.5351 645.848 99.5386 645.538C99.5422 645.23 99.788 644.995 100.103 644.998ZM89.3635 627.488C89.0454 627.49 88.7968 627.259 88.7874 626.951C88.778 626.651 89.0295 626.4 89.3431 626.395C89.6704 626.39 89.8978 626.609 89.9025 626.932C89.9074 627.256 89.6854 627.485 89.3635 627.488ZM110.831 627.489C110.509 627.486 110.286 627.257 110.29 626.933C110.293 626.611 110.521 626.392 110.848 626.396C111.162 626.4 111.412 626.649 111.404 626.951C111.397 627.256 111.147 627.491 110.831 627.489ZM97.3906 635.944C95.9904 635.944 94.8553 634.856 94.8553 633.513C94.8553 632.176 95.9812 631.091 97.3735 631.082C97.8192 630.036 98.8849 629.299 100.129 629.299C101.759 629.299 103.084 630.565 103.106 632.135C103.108 632.135 103.11 632.135 103.111 632.135C104.2 632.135 105.083 632.988 105.083 634.04C105.083 635.043 104.279 635.866 103.26 635.939C103.253 635.942 103.245 635.944 103.237 635.944H97.4194C97.4181 635.944 97.417 635.944 97.4158 635.944C97.4074 635.944 97.3989 635.944 97.3906 635.944Z" fill="#0053F1"/>
<circle cx="914.654" cy="182.182" r="6.97933" fill="#F88419"/>
<circle cx="941.408" cy="201.957" r="10.469" fill="#FEFFFF"/>
<circle cx="941.409" cy="171.713" r="3.48966" fill="#0053F1"/>
<circle cx="400.224" cy="150.244" r="6.97933" transform="rotate(-180 400.224 150.244)" fill="#F88419"/>
<circle cx="373.469" cy="130.469" r="10.469" transform="rotate(-180 373.469 130.469)" fill="#FEFFFF"/>
<circle cx="373.469" cy="160.713" r="3.48966" transform="rotate(-180 373.469 160.713)" fill="#0053F1"/>
<circle cx="387.834" cy="599.834" r="10.8342" fill="#F88419"/>
<circle cx="466.689" cy="684.269" r="16.2513" fill="#F4F6FD"/>
<circle cx="425.157" cy="646.349" r="5.4171" fill="#0053F1"/>
<circle cx="1255.82" cy="702.825" r="3.82487" fill="#F88419"/>
<circle cx="951.816" cy="647.674" r="10.8342" fill="#F88419"/>
<circle cx="901.256" cy="683.788" r="5.4171" fill="#0053F1"/>
<circle r="10.8342" transform="matrix(-1 0 0 1 44.8338 206.834)" fill="#F88419"/>
<circle r="5.4171" transform="matrix(-1 0 0 1 95.3934 242.948)" fill="#0053F1"/>
<circle cx="1365.76" cy="131.763" r="11.7632" fill="#0053F1"/>
</g>
<defs>
<clipPath id="clip0">
<rect width="1440" height="744" fill="white"/>
</clipPath>
</defs>
</svg>
