<svg width="122" height="64" viewBox="0 0 122 64" fill="none" xmlns="http://www.w3.org/2000/svg">
<g clip-path="url(#clip0)">
<path d="M5.15233 53.1855L0.673828 62.9887H2.64L6.02619 55.6908L9.30314 62.9887H11.597L7.00927 53.1855H5.15233Z" fill="#0053F1"/>
<path d="M15.2559 62.9887V53.1855H17.1674V61.5182H22.3013V62.9887H15.2559Z" fill="#0053F1"/>
<path d="M38.3042 62.9887V53.1855H40.325V57.3246H45.1312V53.1855H47.2066V62.9887H45.1312V59.2853H40.325V62.9887H38.3042Z" fill="#0053F1"/>
<path d="M55.0166 53.1855L50.5381 62.9887H52.6681L56.0543 55.6908L59.4951 62.9887H61.5705L56.9828 53.1855H55.0166Z" fill="#0053F1"/>
<path d="M76.2617 54.4924L75.0602 55.6906C73.6948 54.5469 71.5118 54.7479 70.3086 55.6906C68.7793 56.8887 69.0524 60.0475 70.7455 61.0278C72.6528 62.1322 74.3138 61.173 75.0602 60.5921L76.4256 61.9536C73.5309 64.3499 70.3086 63.3989 68.6701 61.9536C67.2501 60.701 66.1577 56.2352 69.2709 54.0023C72.2716 51.85 75.2786 53.4577 76.2617 54.4924Z" fill="#0053F1"/>
<path d="M80.1396 62.9887V53.1855H82.1605V57.3246H86.9121V53.1855H88.9329V62.9887H86.9121V59.1763H82.1605V62.9887H80.1396Z" fill="#0053F1"/>
<path d="M96.5791 53.1855L92.1006 62.9887H94.2852L97.7261 55.6908L101.167 62.9887H103.242L98.7638 53.1855H96.5791Z" fill="#0053F1"/>
<path d="M106.52 62.9887V53.1855H108.431V62.9887H106.52Z" fill="#0053F1"/>
<path d="M112.91 53.1855V62.9887H114.93V56.6166L120.01 62.9887H121.321V53.1855H119.354V59.1763L114.548 53.1855H112.91Z" fill="#0053F1"/>
<path d="M52.231 29.876C45.3494 38.4809 41.7447 38.1736 34.8085 29.876L27.6538 37.1738L35.0816 44.2607C41.3078 35.8736 45.5679 35.54 52.1218 44.2607C58.7849 35.7647 62.608 35.6558 69.4897 44.2607C76.2074 35.7102 79.8667 35.6558 86.7483 44.2607L94.2307 37.1738L86.8575 29.876C79.9759 38.4809 76.3167 38.4265 69.5989 29.876C62.7173 38.4809 58.8942 38.372 52.231 29.876Z" fill="#0053F1"/>
<path d="M43.6015 18.0581L38.686 22.9052L43.6015 27.7522L48.4077 22.9052L43.6015 18.0581Z" fill="#0053F1"/>
<path d="M60.8603 18.0581L55.9448 22.9052L60.8603 27.7522L65.6665 22.9052L60.8603 18.0581Z" fill="#0053F1"/>
<path d="M78.3373 18.0581L73.4219 22.9052L78.3373 27.7522L83.1435 22.9052L78.3373 18.0581Z" fill="#0053F1"/>
<path d="M69.599 8.30908L66.1035 11.7946L69.599 15.3346L73.0945 11.7946L69.599 8.30908Z" fill="#0053F1"/>
<path d="M52.2313 8.30908L48.7358 11.7946L52.2313 15.3346L55.7267 11.7946L52.2313 8.30908Z" fill="#0053F1"/>
<path d="M58.2935 3.18957L60.8604 5.80373L63.482 3.18957L60.8604 0.629883L58.2935 3.18957Z" fill="#0053F1"/>
<path fill-rule="evenodd" clip-rule="evenodd" d="M26.2886 62.9887V53.1855H30.8217C32.0596 53.1855 34.5356 53.8391 34.5356 56.4533C34.5356 59.721 32.4056 60.2111 30.8217 60.2111H28.1455V62.9887H26.2886ZM28.1455 55.0917V58.305H30.6032C31.8594 58.305 32.4602 57.9237 32.4602 56.4533C32.4602 55.2769 31.0402 55.0554 30.3302 55.0917H28.1455Z" fill="#0053F1"/>
</g>
<defs>
<clipPath id="clip0">
<rect width="122" height="63" fill="white" transform="translate(0 0.5)"/>
</clipPath>
</defs>
</svg>
