<svg width="125" height="72" viewBox="0 0 125 72" fill="none" xmlns="http://www.w3.org/2000/svg">
<path d="M11.6251 55.5044L7.51367 64.5295H9.31868L12.4273 57.8108L15.4357 64.5295H17.5415L13.3298 55.5044H11.6251Z" fill="#0053F1"/>
<path d="M20.9014 64.5295V55.5044H22.6562V63.1757H27.3693V64.5295H20.9014Z" fill="#0053F1"/>
<path d="M42.0596 64.5295V55.5044H43.9147V59.315H48.327V55.5044H50.2323V64.5295H48.327V61.12H43.9147V64.5295H42.0596Z" fill="#0053F1"/>
<path d="M57.4024 55.5044L53.291 64.5295H55.2464L58.3551 57.8108L61.5139 64.5295H63.4192L59.2075 55.5044H57.4024Z" fill="#0053F1"/>
<path d="M76.9062 56.7074L75.8031 57.8105C74.5496 56.7575 72.5456 56.9426 71.441 57.8105C70.0371 58.9135 70.2878 61.8216 71.8421 62.7241C73.5931 63.7408 75.1179 62.8578 75.8031 62.323L77.0566 63.5765C74.3992 65.7826 71.441 64.9071 69.9368 63.5765C68.6332 62.4233 67.6304 58.3119 70.4883 56.2562C73.2431 54.2747 76.0037 55.7548 76.9062 56.7074Z" fill="#0053F1"/>
<path d="M80.4658 64.5295V55.5044H82.321V59.315H86.6832V55.5044H88.5383V64.5295H86.6832V61.0197H82.321V64.5295H80.4658Z" fill="#0053F1"/>
<path d="M95.5587 55.5044L91.4473 64.5295H93.4529L96.6117 57.8108L99.7705 64.5295H101.676L97.5643 55.5044H95.5587Z" fill="#0053F1"/>
<path d="M104.684 64.5295V55.5044H106.438V64.5295H104.684Z" fill="#0053F1"/>
<path d="M110.55 55.5044V64.5295H112.405V58.6632L117.068 64.5295H118.271V55.5044H116.466V61.0197L112.054 55.5044H110.55Z" fill="#0053F1"/>
<path d="M54.8459 34.0444C48.5283 41.9664 45.2191 41.6836 38.8514 34.0444L32.2832 40.7631L39.1021 47.2875C44.818 39.5661 48.7289 39.2589 54.7456 47.2875C60.8626 39.4658 64.3723 39.3655 70.6899 47.2875C76.857 39.4157 80.2164 39.3655 86.5339 47.2875L93.403 40.7631L86.6342 34.0444C80.3166 41.9664 76.9573 41.9163 70.7902 34.0444C64.4726 41.9664 60.9629 41.8662 54.8459 34.0444Z" fill="#0053F1"/>
<path d="M46.9237 23.1646L42.4111 27.6269L46.9237 32.0893L51.3359 27.6269L46.9237 23.1646Z" fill="#0053F1"/>
<path d="M62.7674 23.1646L58.2549 27.6269L62.7674 32.0893L67.1797 27.6269L62.7674 23.1646Z" fill="#0053F1"/>
<path d="M78.8123 23.1646L74.2998 27.6269L78.8123 32.0893L83.2246 27.6269L78.8123 23.1646Z" fill="#0053F1"/>
<path d="M70.79 14.1895L67.5811 17.3984L70.79 20.6574L73.999 17.3984L70.79 14.1895Z" fill="#0053F1"/>
<path d="M54.8456 14.1895L51.6367 17.3984L54.8456 20.6574L58.0546 17.3984L54.8456 14.1895Z" fill="#0053F1"/>
<path d="M60.4111 9.47617L62.7677 11.8829L65.1744 9.47617L62.7677 7.11963L60.4111 9.47617Z" fill="#0053F1"/>
<path fill-rule="evenodd" clip-rule="evenodd" d="M31.0293 64.5295V55.5044H35.1909C36.3273 55.5044 38.6003 56.1061 38.6003 58.5128C38.6003 61.5211 36.6449 61.9724 35.1909 61.9724H32.734V64.5295H31.0293ZM32.734 57.2593V60.2175H34.9903C36.1435 60.2175 36.695 59.8665 36.695 58.5128C36.695 57.4297 35.3914 57.2259 34.7396 57.2593H32.734Z" fill="#0053F1"/>
</svg>
