<svg width="205" height="56" viewBox="0 0 205 56" fill="none" xmlns="http://www.w3.org/2000/svg">
<path fill-rule="evenodd" clip-rule="evenodd" d="M27.3713 0.5C12.2545 0.5 0 12.8833 0 28C0 43.1167 12.2545 55.5 27.3713 55.5C42.488 55.5 54.7426 43.1167 54.7426 28C54.7426 12.8833 42.488 0.5 27.3713 0.5ZM31.8501 17.5005L16.9203 26.0005V9.00048L31.8501 17.5005ZM20.4038 28.0005L32.3476 21.0005V35.0005L20.4038 28.0005ZM47.7754 28.0006L35.8316 35.0006V21.0006L47.7754 28.0006ZM16.9203 47.0001L31.8501 38.5001L16.9203 30.0001V47.0001Z" fill="#0053F1"/>
<path d="M75.9147 26.5C78.9485 26.5 80.5489 24.58 80.5489 22.18C80.5489 20.164 79.1873 18.508 77.4913 18.244C78.9962 17.932 80.2384 16.588 80.2384 14.572C80.2384 12.436 78.6857 10.492 75.652 10.492H67.2674V26.5H75.9147ZM74.9115 16.9H70.6594V13.42H74.9115C76.0581 13.42 76.7747 14.164 76.7747 15.172C76.7747 16.18 76.0581 16.9 74.9115 16.9ZM75.0309 23.548H70.6594V19.828H75.0309C76.3686 19.828 77.0852 20.692 77.0852 21.7C77.0852 22.852 76.3208 23.548 75.0309 23.548Z" fill="#0053F1"/>
<path d="M93.2354 26.5V23.5H86.499V10.492H83.107V26.5H93.2354Z" fill="#0053F1"/>
<path d="M110.469 26.5L104.33 10.492H100.078L93.9147 26.5H97.7845L98.7877 23.788H105.62L106.599 26.5H110.469ZM104.688 20.788H99.7194L102.204 13.9L104.688 20.788Z" fill="#0053F1"/>
<path d="M118.839 26.788C122.351 26.788 124.357 24.844 125.504 22.852L122.59 21.436C121.921 22.756 120.488 23.764 118.839 23.764C115.949 23.764 113.847 21.532 113.847 18.508C113.847 15.484 115.949 13.252 118.839 13.252C120.488 13.252 121.921 14.284 122.59 15.58L125.504 14.14C124.381 12.148 122.351 10.228 118.839 10.228C114.062 10.228 110.359 13.588 110.359 18.508C110.359 23.428 114.062 26.788 118.839 26.788Z" fill="#0053F1"/>
<path d="M141.163 26.5L134.403 18.004L140.733 10.492H136.553L130.915 17.644V10.492H127.523V26.5H130.915V21.58L132.157 20.092L136.983 26.5H141.163Z" fill="#0053F1"/>
<path d="M73.1418 44.728C75.3733 44.728 76.8862 43.664 77.9452 42.22L76.6025 41.479C75.8839 42.562 74.579 43.322 73.1418 43.322C70.3808 43.322 68.2816 41.175 68.2816 38.173C68.2816 35.152 70.3808 33.024 73.1418 33.024C74.579 33.024 75.8839 33.803 76.6025 34.867L77.9263 34.126C76.924 32.701 75.3733 31.618 73.1418 31.618C69.5108 31.618 66.6553 34.278 66.6553 38.173C66.6553 42.068 69.5108 44.728 73.1418 44.728Z" fill="#0053F1"/>
<path d="M90.6884 44.5L85.6014 31.827H83.6535L78.5854 44.5H80.3819L81.4977 41.688H87.7761L88.8919 44.5H90.6884ZM87.3034 40.282H81.9515L84.6369 33.461L87.3034 40.282Z" fill="#0053F1"/>
<path d="M93.9072 44.5V39.465H97.4057C99.902 39.465 101.358 37.717 101.358 35.646C101.358 33.575 99.9398 31.827 97.4057 31.827H92.3376V44.5H93.9072ZM97.2166 38.059H93.9072V33.233H97.2166C98.7106 33.233 99.7318 34.221 99.7318 35.646C99.7318 37.071 98.7106 38.059 97.2166 38.059Z" fill="#0053F1"/>
<path d="M105.006 44.5V31.827H103.437V44.5H105.006Z" fill="#0053F1"/>
<path d="M112.651 44.5V33.233H116.66V31.827H107.091V33.233H111.082V44.5H112.651Z" fill="#0053F1"/>
<path d="M128.271 44.5L123.183 31.827H121.236L116.167 44.5H117.964L119.08 41.688H125.358L126.474 44.5H128.271ZM124.885 40.282H119.534L122.219 33.461L124.885 40.282Z" fill="#0053F1"/>
<path d="M137.352 44.5V43.094H131.489V31.827H129.92V44.5H137.352Z" fill="#0053F1"/>
<path d="M158.168 26.5V23.5H150.285V19.876H158.001V16.876H150.285V13.492H158.168V10.492H146.893V26.5H158.168Z" fill="#0053F1"/>
<path d="M166.624 26.5C171.617 26.5 175.081 23.332 175.081 18.508C175.081 13.684 171.617 10.492 166.624 10.492H160.342V26.5H166.624ZM166.624 23.5H163.734V13.492H166.624C169.897 13.492 171.617 15.676 171.617 18.508C171.617 21.22 169.778 23.5 166.624 23.5Z" fill="#0053F1"/>
<path d="M184.726 26.812C187.616 26.812 189.886 25.612 191.51 23.788V17.644H183.914V20.62H188.118V22.54C187.473 23.14 186.135 23.764 184.726 23.764C181.835 23.764 179.733 21.532 179.733 18.508C179.733 15.484 181.835 13.252 184.726 13.252C186.422 13.252 187.783 14.212 188.5 15.34L191.319 13.804C190.124 11.908 188.046 10.228 184.726 10.228C180.068 10.228 176.246 13.444 176.246 18.508C176.246 23.548 180.068 26.812 184.726 26.812Z" fill="#0053F1"/>
<path d="M205 26.5V23.5H197.117V19.876H204.833V16.876H197.117V13.492H205V10.492H193.725V26.5H205Z" fill="#0053F1"/>
</svg>
