<svg width="220" height="36" viewBox="0 0 220 36" fill="none" xmlns="http://www.w3.org/2000/svg">
<path d="M71.9468 7.75327C81.5603 10.8302 86.6341 18.2661 87.9692 21.5994C87.9692 14.984 82.1149 4.67638 67.0168 2.98407C54.9384 1.63022 36.7182 6.8302 29.1177 9.59943C36.6667 7.13789 59.93 3.90712 71.9468 7.75327Z" fill="#0053F1"/>
<path d="M60.5464 1.18694C66.5548 -0.917932 79.65 -1.27456 84.7341 9.18695C81.1907 4.87929 73.0254 -0.302553 60.5464 1.18694Z" fill="#0053F1"/>
<path d="M62.0868 7.90738C42.0588 6.21511 13.6088 15.8049 0 21.292C28.8095 13.1382 49.916 11.4459 67.3249 16.0613C81.2521 19.7536 86.6341 30.6254 87.8151 35.7534C89.2017 19.5997 80.4636 9.46015 62.0868 7.90738Z" fill="#0053F1"/>
<path d="M167.792 32.9605V34.1765C167.396 34.3845 166.956 34.4885 166.47 34.4885C165.69 34.4885 165.038 34.2405 164.515 33.7445C163.943 33.1953 163.658 32.5153 163.658 31.7045C163.658 30.8405 163.943 30.1446 164.515 29.6166C165.017 29.1473 165.671 28.9126 166.478 28.9126C166.948 28.9126 167.385 29.022 167.792 29.2406V30.4566C167.444 30.0566 167.014 29.8566 166.502 29.8566C165.978 29.8566 165.551 30.0406 165.22 30.4086C164.894 30.7713 164.731 31.2085 164.731 31.7205C164.731 32.2805 164.913 32.726 165.276 33.0565C165.639 33.382 166.061 33.5445 166.542 33.5445C167.044 33.5445 167.46 33.35 167.792 32.9605Z" fill="#0053F1"/>
<path d="M177.273 34.3686L176.8 33.2486H174.645L174.173 34.3686H173.043L175.342 29.0327H176.159L178.394 34.3686H177.273ZM174.974 32.4006H176.496L175.735 30.4807L174.974 32.4006Z" fill="#0053F1"/>
<path d="M183.665 29.0327H185.219C185.55 29.0327 185.82 29.0621 186.028 29.1207C186.242 29.1741 186.442 29.2807 186.629 29.4407C186.992 29.7607 187.174 30.1901 187.174 30.7287C187.174 31.2301 187.027 31.6274 186.733 31.9206C186.418 32.2354 185.967 32.3926 185.379 32.3926H184.706V34.3686H183.665V29.0327ZM184.706 29.9287V31.4966H185.131C185.436 31.4966 185.662 31.4406 185.812 31.3286C186.004 31.1794 186.1 30.9714 186.1 30.7047C186.1 30.4434 186.002 30.2407 185.804 30.0967C185.644 29.9847 185.398 29.9287 185.067 29.9287H184.706Z" fill="#0053F1"/>
<path d="M192.59 29.0327H193.632V34.3686H192.59V29.0327Z" fill="#0053F1"/>
<path d="M202.061 29.9287H200.86V34.3686H199.818V29.9287H198.617V29.0327H202.061V29.9287Z" fill="#0053F1"/>
<path d="M210.693 34.3686L210.22 33.2486H208.065L207.592 34.3686H206.463L208.762 29.0327H209.579L211.814 34.3686H210.693ZM208.394 32.4006H209.916L209.155 30.4807L208.394 32.4006Z" fill="#0053F1"/>
<path d="M217.084 29.0327H218.125V33.4726H219.776V34.3686H217.084V29.0327Z" fill="#0053F1"/>
<path d="M92.9517 10.4775L97.5205 10.4995C98.9702 10.5141 100.094 10.8724 100.892 11.5743C101.69 12.2762 102.089 13.2743 102.089 14.5684C102.089 16.2647 101.324 17.4273 99.7938 18.0561C101.009 18.2243 101.943 18.663 102.595 19.3722C103.246 20.0742 103.572 21.0027 103.572 22.158C103.572 23.5326 103.122 24.6293 102.221 25.4483C101.321 26.2672 99.9772 26.6766 98.1904 26.6766H92.9517V10.4775ZM94.9726 25.0095H97.6743C100.178 25.0095 101.431 24.0225 101.431 22.0483C101.431 20.1327 100.112 19.1748 97.4765 19.1748H94.9726V25.0095ZM94.9945 17.4639H97.3886C98.1867 17.4639 98.8165 17.2262 99.2777 16.751C99.739 16.2684 99.9698 15.6177 99.9698 14.7988C99.9698 13.9872 99.7171 13.3474 99.2118 12.8794C98.7139 12.4042 98.0221 12.1666 97.136 12.1666H94.9945V17.4639Z" fill="#0053F1"/>
<path d="M106.01 10.4995H108.03V24.878H112.874V26.6766H106.01V10.4995Z" fill="#0053F1"/>
<path d="M122.076 9.93994L129.61 26.6764H127.402L125.601 22.432H118.539L116.716 26.6764H114.508L122.076 9.93994ZM119.33 20.6991H124.81L122.613 15.5115C122.46 15.2263 122.346 14.9667 122.273 14.7328C122.2 14.4915 122.156 14.2904 122.141 14.1295C122.127 13.9687 122.105 13.6579 122.076 13.1973C122.046 13.753 121.998 14.1515 121.933 14.3928C121.874 14.6267 121.731 14.9996 121.504 15.5115L119.33 20.6991Z" fill="#0053F1"/>
<path d="M144.89 14.2832C143.419 12.8135 141.789 12.0787 140.003 12.0787C139.146 12.0787 138.33 12.2505 137.554 12.5941C136.778 12.9305 136.108 13.3911 135.544 13.976C134.987 14.5537 134.541 15.2483 134.204 16.0599C133.874 16.8642 133.71 17.716 133.71 18.6153C133.71 19.8218 133.992 20.9258 134.555 21.9275C135.119 22.9219 135.892 23.7079 136.873 24.2856C137.861 24.8632 138.945 25.152 140.124 25.152C141.017 25.152 141.841 24.9838 142.595 24.6475C143.356 24.3038 144.122 23.7664 144.89 23.0352V25.4152L144.616 25.5578C143.569 26.1427 142.884 26.4973 142.562 26.6216C141.932 26.8702 141.12 26.9945 140.124 26.9945C138.952 26.9945 137.843 26.7788 136.796 26.3475C135.749 25.916 134.848 25.3311 134.094 24.5926C133.347 23.8542 132.754 22.9694 132.315 21.9385C131.883 20.9002 131.667 19.7998 131.667 18.6372C131.667 17.4747 131.887 16.3706 132.326 15.3251C132.773 14.2722 133.373 13.3692 134.127 12.6161C134.888 11.8556 135.796 11.2561 136.851 10.8174C137.905 10.3714 139.018 10.1484 140.19 10.1484C140.783 10.1264 141.306 10.1667 141.76 10.269C142.214 10.3714 142.61 10.5067 142.946 10.6748C143.283 10.8357 143.84 11.1391 144.616 11.5851L144.89 11.7387V14.2832Z" fill="#0053F1"/>
<path d="M149.446 10.4995H151.466V16.9923C151.466 17.4895 151.393 18.0671 151.247 18.7251C151.298 18.6374 151.357 18.5277 151.423 18.3961C151.496 18.2645 151.547 18.1731 151.576 18.1219C151.613 18.0634 151.661 17.9903 151.719 17.9026C151.778 17.8075 151.844 17.7198 151.917 17.6394C151.99 17.5589 152.081 17.4639 152.191 17.3542L158.397 10.4775H160.901L153.762 18.3413L161.703 26.6766H158.979L152.576 19.7561L151.466 20.9735V26.6766H149.446V10.4995Z" fill="#0053F1"/>
<path d="M163.892 10.4775H172.129V12.2762H165.913V17.3322H172.031V19.109H165.913V24.8779H172.129V26.6766H163.892V10.4775Z" fill="#0053F1"/>
<path d="M175.67 10.4775H180.217C182.773 10.4775 184.768 11.1868 186.203 12.6053C187.638 14.0237 188.356 15.9906 188.356 18.5058C188.356 20.1509 188.045 21.584 187.422 22.8051C186.807 24.0261 185.892 24.9767 184.677 25.6566C183.461 26.3366 182.011 26.6766 180.327 26.6766H175.67V10.4775ZM177.735 24.8779H180.009C181.949 24.8779 183.468 24.2967 184.567 23.1341C185.672 21.9715 186.225 20.4507 186.225 18.5716C186.225 16.5974 185.698 15.0547 184.644 13.9433C183.589 12.8319 182.128 12.2762 180.261 12.2762H177.735V24.8779Z" fill="#0053F1"/>
<path d="M205.257 15.2702C203.844 13.0694 201.999 11.969 199.722 11.969C198.558 11.969 197.489 12.2651 196.515 12.8574C195.549 13.4423 194.783 14.2502 194.22 15.2812C193.656 16.3121 193.374 17.4454 193.374 18.6811C193.374 19.9168 193.648 21.0318 194.197 22.0262C194.747 23.0206 195.505 23.7993 196.471 24.3623C197.445 24.918 198.536 25.1958 199.744 25.1958C201.326 25.1958 202.632 24.7352 203.665 23.8139C204.704 22.8926 205.287 21.6899 205.411 20.2056H200.414V18.4069H207.663V18.703C207.663 21.2183 206.938 23.24 205.488 24.7681C204.038 26.2962 202.116 27.0603 199.722 27.0603C198.528 27.0603 197.405 26.8483 196.35 26.4242C195.303 26.0001 194.406 25.4188 193.659 24.6804C192.913 23.9419 192.323 23.0535 191.891 22.0153C191.459 20.977 191.243 19.8656 191.243 18.6811C191.243 17.0945 191.613 15.6468 192.352 14.338C193.099 13.0218 194.117 11.9873 195.406 11.2342C196.702 10.481 198.133 10.1045 199.7 10.1045C201.15 10.1045 202.475 10.4189 203.676 11.0477C204.877 11.6692 205.905 12.6051 206.762 13.8554L205.257 15.2702Z" fill="#0053F1"/>
<path d="M211.033 10.4775H219.27V12.2762H213.054V17.3322H219.171V19.109H213.054V24.8779H219.27V26.6766H211.033V10.4775Z" fill="#0053F1"/>
</svg>
