<svg width="168" height="28" viewBox="0 0 168 28" fill="none" xmlns="http://www.w3.org/2000/svg">
<path d="M39.8664 16.3313C39.8664 19.9779 36.9799 22.3481 33.4098 22.3481H25.0161V1.79736H32.8401C36.3216 1.79736 39.1448 4.1155 39.1448 7.67085C39.1448 9.3769 38.4865 10.7313 37.3977 11.695C38.8916 12.6588 39.8664 14.2476 39.8664 16.3313ZM29.5864 6.19922V9.84574H32.8401C33.8655 9.84574 34.5872 9.07736 34.5872 8.02248C34.5872 6.9676 33.9035 6.19922 32.8401 6.19922H29.5864ZM35.2961 15.9797C35.2961 14.8337 34.5492 14.0132 33.4098 14.0132H29.5864V17.9462H33.4098C34.5492 17.9462 35.2961 17.1258 35.2961 15.9797Z" fill="#0053F1"/>
<path d="M40.8667 0.911621H45.1458V22.3479H40.8667V0.911621Z" fill="#0053F1"/>
<path d="M46.2095 15.016C46.2095 10.6401 49.5771 7.26709 53.7802 7.26709C57.9707 7.26709 61.351 10.6401 61.351 15.016C61.351 19.3918 57.9834 22.7648 53.7802 22.7648C49.5771 22.7648 46.2095 19.3918 46.2095 15.016ZM57.0592 15.016C57.0592 12.9322 55.6286 11.5517 53.7802 11.5517C51.9192 11.5517 50.5013 12.9322 50.5013 15.016C50.5013 17.0997 51.9319 18.4801 53.7802 18.4801C55.6286 18.4801 57.0592 17.0997 57.0592 15.016Z" fill="#0053F1"/>
<path d="M120.449 15.016C120.449 10.6401 123.816 7.26709 128.019 7.26709C132.21 7.26709 135.59 10.6401 135.59 15.016C135.59 19.3918 132.223 22.7648 128.019 22.7648C123.816 22.7648 120.449 19.3918 120.449 15.016ZM131.298 15.016C131.298 12.9322 129.868 11.5517 128.019 11.5517C126.171 11.5517 124.741 12.9322 124.741 15.016C124.741 17.0997 126.171 18.4801 128.019 18.4801C129.868 18.4801 131.298 17.0997 131.298 15.016Z" fill="#0053F1"/>
<path d="M62.123 15.016C62.123 10.6401 65.3514 7.26709 69.6938 7.26709C72.4664 7.26709 74.9224 8.76476 76.1505 11.0308L72.4157 13.2578C71.9346 12.2289 70.8965 11.6169 69.6432 11.6169C67.7821 11.6169 66.4148 12.9973 66.4148 15.029C66.4148 17.0606 67.7821 18.4411 69.6432 18.4411C70.8965 18.4411 71.96 17.829 72.4157 16.8001L76.1505 19.0011C74.9224 21.2932 72.4917 22.7908 69.6938 22.7908C65.3514 22.7648 62.123 19.3918 62.123 15.016Z" fill="#0053F1"/>
<path d="M86.0003 22.3611L81.43 15.8755V22.3611H77.1509V1.79736H81.43V14.1044L85.7091 7.67085H90.7099L85.5192 15.016L90.8618 22.3611H86.0003Z" fill="#0053F1"/>
<path fill-rule="evenodd" clip-rule="evenodd" d="M6.66748 7.65283H11.8881V10.189H9.1329V19.8556H18.5174V10.189H15.99V7.65283H20.9828V22.3918H6.66748V7.65283Z" fill="#0053F1"/>
<path fill-rule="evenodd" clip-rule="evenodd" d="M0.84375 1.66211H15.1717V16.401H9.90042V13.8649H12.7063V4.19824H3.30917V13.8649H5.77322V16.401H0.84375V1.66211Z" fill="#0053F1"/>
<path d="M100.964 22.6868C95.2294 22.6868 90.6338 18.1156 90.6338 12.1901C90.6338 6.18635 95.3434 1.88867 101.04 1.88867C105.244 1.88867 109.586 4.7017 110.763 8.97332H105.193C104.307 7.33239 102.75 6.3817 100.914 6.3817C97.7361 6.3817 95.5966 9.03844 95.5966 12.2031C95.5966 15.4719 97.6222 18.2068 100.939 18.2068C103.066 18.2068 104.99 17.204 105.598 14.9901H99.7871V10.9008H111.333C111.358 11.2524 111.358 11.604 111.358 11.9556C111.358 18.0896 106.94 22.6868 100.964 22.6868Z" fill="#0053F1"/>
<path d="M116.904 14.0393V22.283H112.536V7.26718H116.638V8.86904H116.689C117.448 7.3323 118.664 6.75928 120.347 6.75928V11.2783C118.423 11.3304 116.904 11.7081 116.904 14.0393Z" fill="#0053F1"/>
<path d="M145.984 22.2829V20.6811H145.933C145.174 22.309 143.781 22.7648 142.148 22.7648C140.54 22.7648 138.92 22.1918 137.856 20.8764C136.679 19.3657 136.54 18.1155 136.54 16.2532V7.26709H140.907V15.576C140.907 17.282 141.274 18.5843 143.249 18.5843C145.06 18.5843 145.743 17.2559 145.743 15.5239V7.26709H150.111V22.2829H145.984Z" fill="#0053F1"/>
<path d="M160.138 22.8039C158.404 22.8039 156.935 22.257 155.745 20.9416V27.297H151.377V7.26718H155.479V8.92114H155.505H155.555C156.682 7.46253 158.315 6.75928 160.1 6.75928C164.62 6.75928 167.228 10.5751 167.228 14.9249C167.241 19.1184 164.405 22.8039 160.138 22.8039ZM159.227 10.9528C157.125 10.9528 155.568 12.6588 155.568 14.7946C155.568 16.9044 157.15 18.6104 159.227 18.6104C161.303 18.6104 162.886 16.9044 162.886 14.7946C162.873 12.6588 161.328 10.9528 159.227 10.9528Z" fill="#0053F1"/>
</svg>
