<svg width="156" height="26" viewBox="0 0 156 26" fill="none" xmlns="http://www.w3.org/2000/svg">
<path d="M37.0191 15.1648C37.0191 18.5508 34.3388 20.7518 31.0236 20.7518H23.2295V1.66895H30.4946C33.7275 1.66895 36.349 3.8215 36.349 7.1229C36.349 8.70708 35.7377 9.96476 34.7267 10.8596C36.1139 11.7545 37.0191 13.2299 37.0191 15.1648ZM27.4733 5.75639V9.14243H30.4946C31.4468 9.14243 32.1169 8.42894 32.1169 7.44941C32.1169 6.46987 31.4821 5.75639 30.4946 5.75639H27.4733ZM32.7752 14.8383C32.7752 13.7741 32.0816 13.0122 31.0236 13.0122H27.4733V16.6643H31.0236C32.0816 16.6643 32.7752 15.9025 32.7752 14.8383Z" fill="#0053F1"/>
<path d="M37.9478 0.84668H41.9212V20.7518H37.9478V0.84668Z" fill="#0053F1"/>
<path d="M42.9087 13.9434C42.9087 9.88014 46.0357 6.74805 49.9387 6.74805C53.8299 6.74805 56.9687 9.88014 56.9687 13.9434C56.9687 18.0067 53.8416 21.1388 49.9387 21.1388C46.0357 21.1388 42.9087 18.0067 42.9087 13.9434ZM52.9835 13.9434C52.9835 12.0085 51.655 10.7266 49.9387 10.7266C48.2106 10.7266 46.8939 12.0085 46.8939 13.9434C46.8939 15.8783 48.2223 17.1602 49.9387 17.1602C51.655 17.1602 52.9835 15.8783 52.9835 13.9434Z" fill="#0053F1"/>
<path d="M111.845 13.9434C111.845 9.88014 114.972 6.74805 118.875 6.74805C122.766 6.74805 125.905 9.88014 125.905 13.9434C125.905 18.0067 122.778 21.1388 118.875 21.1388C114.972 21.1388 111.845 18.0067 111.845 13.9434ZM121.92 13.9434C121.92 12.0085 120.592 10.7266 118.875 10.7266C117.159 10.7266 115.83 12.0085 115.83 13.9434C115.83 15.8783 117.159 17.1602 118.875 17.1602C120.592 17.1602 121.92 15.8783 121.92 13.9434Z" fill="#0053F1"/>
<path d="M57.6855 13.9434C57.6855 9.88014 60.6833 6.74805 64.7155 6.74805C67.2901 6.74805 69.5707 8.13874 70.711 10.2429L67.243 12.3109C66.7963 11.3555 65.8323 10.7871 64.6685 10.7871C62.9404 10.7871 61.6708 12.069 61.6708 13.9555C61.6708 15.842 62.9404 17.1239 64.6685 17.1239C65.8323 17.1239 66.8198 16.5555 67.243 15.6002L70.711 17.6439C69.5707 19.7723 67.3136 21.163 64.7155 21.163C60.6833 21.1388 57.6855 18.0067 57.6855 13.9434Z" fill="#0053F1"/>
<path d="M79.8575 20.7639L75.6136 14.7415V20.7639H71.6401V1.66895H75.6136V13.0969L79.5871 7.1229H84.2306L79.4107 13.9434L84.3717 20.7639H79.8575Z" fill="#0053F1"/>
<path fill-rule="evenodd" clip-rule="evenodd" d="M6.19092 7.10596H11.0387V9.46094H8.48024V18.4371H17.1944V9.46094H14.8476V7.10596H19.4837V20.7921H6.19092V7.10596Z" fill="#0053F1"/>
<path fill-rule="evenodd" clip-rule="evenodd" d="M0.783203 1.54346H14.0877V15.2296H9.19297V12.8746H11.7984V3.89844H3.07252V12.8746H5.36057V15.2296H0.783203V1.54346Z" fill="#0053F1"/>
<path d="M93.7529 21.066C88.4275 21.066 84.1602 16.8213 84.1602 11.319C84.1602 5.74412 88.5333 1.75342 93.8234 1.75342C97.7264 1.75342 101.759 4.36551 102.852 8.33202H97.6794C96.8565 6.8083 95.4105 5.92551 93.7059 5.92551C90.7552 5.92551 88.7684 8.39249 88.7684 11.3311C88.7684 14.3664 90.6494 16.906 93.7294 16.906C95.7044 16.906 97.4913 15.9748 98.0556 13.919H92.6596V10.1218H103.381C103.404 10.4483 103.404 10.7748 103.404 11.1013C103.404 16.7971 99.3017 21.066 93.7529 21.066Z" fill="#0053F1"/>
<path d="M108.553 13.0364V20.6913H104.498V6.748H108.306V8.23544H108.353C109.059 6.80846 110.187 6.27637 111.751 6.27637V10.4726C109.964 10.521 108.553 10.8717 108.553 13.0364Z" fill="#0053F1"/>
<path d="M135.556 20.6913V19.2039H135.509C134.804 20.7155 133.511 21.1388 131.994 21.1388C130.501 21.1388 128.997 20.6067 128.009 19.3853C126.916 17.9825 126.787 16.8216 126.787 15.0923V6.74805H130.842V14.4634C130.842 16.0476 131.183 17.2569 133.017 17.2569C134.698 17.2569 135.333 16.0234 135.333 14.415V6.74805H139.389V20.6913H135.556Z" fill="#0053F1"/>
<path d="M148.7 21.175C147.089 21.175 145.725 20.6671 144.62 19.4457V25.3471H140.564V6.748H144.373V8.28381H144.397H144.444C145.49 6.92939 147.007 6.27637 148.664 6.27637C152.861 6.27637 155.283 9.81962 155.283 13.8587C155.295 17.7527 152.661 21.175 148.7 21.175ZM147.853 10.1703C145.902 10.1703 144.456 11.7545 144.456 13.7378C144.456 15.6968 145.925 17.281 147.853 17.281C149.781 17.281 151.251 15.6968 151.251 13.7378C151.239 11.7545 149.805 10.1703 147.853 10.1703Z" fill="#0053F1"/>
</svg>
