<svg width="491" height="177" viewBox="0 0 491 177" fill="none" xmlns="http://www.w3.org/2000/svg">
<path fill-rule="evenodd" clip-rule="evenodd" d="M427.615 123.836H473.666V91.5333L490.126 83.897V140.312H411.154V38.0124H490.126V54.4888H473.666H427.615V123.836Z" fill="#0053F1"/>
<path fill-rule="evenodd" clip-rule="evenodd" d="M88.5117 153.571V153.57L100.15 165.22L88.5117 176.87L0.248291 88.5198L88.5117 0.169434L100.15 11.8188L88.5117 23.4682L42.7351 69.2902L23.5242 88.5198L88.5117 153.571ZM101.464 140.605L68.4581 107.567L49.4295 88.5192L55.6877 82.2549L101.464 36.4335L113.102 48.0828L72.7054 88.5192L113.102 128.956L153.499 88.5192L124.716 59.708L124.741 36.4329L176.775 88.5192L113.103 152.255L113.102 152.254L101.464 140.605ZM115.095 104.556L120.117 99.5288C125.071 94.5705 125.071 86.4569 120.117 81.4981C115.163 76.5393 107.058 76.5393 102.104 81.4981L97.082 86.5251L115.095 104.556Z" fill="#0053F1"/>
<path fill-rule="evenodd" clip-rule="evenodd" d="M342.602 54.4888V140.312H326.141V38.0124H395.699V54.4888H342.602Z" fill="#0053F1"/>
<path fill-rule="evenodd" clip-rule="evenodd" d="M259.586 123.836C269.095 123.836 277.752 119.93 284.037 113.637C290.323 107.346 294.226 98.6802 294.226 89.1623C294.226 79.6439 290.323 70.9784 284.038 64.6866C277.752 58.3948 269.095 54.4888 259.586 54.4888H234.77V105.701H218.31V38.0124H259.586C287.691 38.0124 310.686 61.0288 310.686 89.1623C310.686 117.295 287.691 140.312 259.586 140.312H218.31V123.836H236.628H259.586Z" fill="#0053F1"/>
<path fill-rule="evenodd" clip-rule="evenodd" d="M360.92 80.9241H395.699V97.4005H360.92V80.9241Z" fill="#0053F1"/>
</svg>
