<svg width="135" height="48" viewBox="0 0 135 48" fill="none" xmlns="http://www.w3.org/2000/svg">
<path fill-rule="evenodd" clip-rule="evenodd" d="M55.1633 0C58.14 0 60.5988 2.43228 60.5988 5.35441V19.5381C60.5988 20.2815 60.4533 20.9776 60.1623 21.6258C59.735 22.5768 59.0696 23.3775 58.199 23.962C57.2847 24.5754 56.271 24.8925 55.1633 24.8925H43.4206C43.1981 24.8925 43.0176 24.7147 43.0176 24.4955V0.396964C43.0176 0.17784 43.1981 0 43.4206 0H55.1633ZM124.832 10.3288C123.792 12.766 133.542 13.2989 134.849 19.0351C135.012 19.7518 135.074 20.2949 134.876 21.0002C134.232 23.2856 132.076 24.8925 129.638 24.8925H119.992C119.77 24.8925 119.589 24.7147 119.589 24.4955V20.8808C119.589 20.6617 119.77 20.4838 119.992 20.4838H128.697C129.303 20.4838 129.795 20.3777 129.86 19.6303C130.115 16.7054 120.286 17.5306 119.696 10.2595C119.589 8.92899 120.25 7.63774 121.193 6.70885C122.216 5.7012 123.582 5.16387 125.025 5.16387H133.972C134.194 5.16387 134.375 5.3417 134.375 5.56083V9.17574C134.375 9.39487 134.194 9.57271 133.972 9.57271H125.998C125.404 9.57271 124.972 10.0011 124.832 10.3288ZM47.668 20.3117H54.6041C55.3746 20.3117 55.9486 19.7331 55.9486 18.9873V5.90523C55.9486 5.14624 55.3612 4.5808 54.6041 4.5808H47.668V20.3117ZM65.07 24.4955V5.56083C65.07 5.3417 65.2505 5.16387 65.473 5.16387H68.9678C69.1714 5.16387 69.3398 5.31281 69.3669 5.50589L69.5692 6.62215C70.5861 5.66785 71.8986 5.16387 73.3014 5.16387H75.8876C76.11 5.16387 76.2906 5.3417 76.2906 5.56083V9.34786C76.2906 9.56699 76.11 9.74483 75.8876 9.74483H71.0647C70.3002 9.74483 69.7202 10.3158 69.7202 11.0691V24.4955C69.7202 24.7147 69.5397 24.8925 69.3172 24.8925H65.473C65.2505 24.8925 65.07 24.7147 65.07 24.4955ZM78.7347 10.5183C78.7347 9.77484 78.8803 9.07888 79.1712 8.43072C79.5976 7.48086 80.2648 6.67789 81.1347 6.09435C82.0467 5.4816 83.065 5.16387 84.1703 5.16387H89.832C92.79 5.16387 95.2674 7.57677 95.2674 10.5183V19.5381C95.2674 22.4653 92.8036 24.8925 89.832 24.8925H84.1703C81.9747 24.8925 80.0496 23.5816 79.1712 21.6258C78.8764 20.9691 78.7347 20.2552 78.7347 19.5381V10.5183ZM84.7295 20.3117H89.2728C90.0433 20.3117 90.6172 19.7329 90.6172 18.9873V11.0691C90.6172 10.3101 90.0298 9.74483 89.2728 9.74483H84.7295C83.9649 9.74483 83.385 10.3158 83.385 11.0691V18.9873C83.385 19.7463 83.9723 20.3117 84.7295 20.3117ZM99.3543 29.5559V5.56083C99.3543 5.3417 99.5348 5.16387 99.7573 5.16387H103.252C103.456 5.16387 103.624 5.31281 103.651 5.50589L103.853 6.62215C104.87 5.66785 106.183 5.16387 107.586 5.16387H110.801C112.992 5.16387 114.92 6.47019 115.8 8.43072C116.095 9.08762 116.237 9.80088 116.237 10.5183V19.5381C116.237 22.4599 113.778 24.8925 110.801 24.8925H107.586C106.207 24.8925 105.039 24.442 104.005 23.5706V29.5428C104.005 29.762 103.917 30.0316 103.695 30.0316H99.7039C99.4815 30.0316 99.3543 29.775 99.3543 29.5559ZM104.005 10.5183V18.9873C104.005 19.7463 104.592 20.3117 105.349 20.3117H110.242C111.013 20.3117 111.586 19.7329 111.586 18.9873V10.5183C111.586 10.0899 111.236 9.74483 110.801 9.74483H104.79C104.355 9.74483 104.005 10.09 104.005 10.5183Z" fill="#0053F1"/>
<path fill-rule="evenodd" clip-rule="evenodd" d="M16.4731 47.9978C1.21721 48.208 -3.12225 32.5711 2.13149 23.9646L12.3027 7.30294L19.4867 19.0713L19.4993 19.0577L22.9914 24.7781C26.7083 30.8672 25.8669 36.8779 20.4923 40.234C20.7205 39.228 24.3064 34.6121 19.0752 26.0419L12.313 14.9648L10.4598 18.0006L5.57891 25.996C4.51182 27.7442 3.98391 29.9299 4.01583 32.1862C4.04436 34.2066 4.52568 36.2535 5.47349 38.0713C6.37794 39.8059 7.71987 41.3251 9.51071 42.3858C11.3135 43.4536 13.6093 44.0824 16.4259 44.0437H16.5203C19.3368 44.0824 21.6327 43.4536 23.4355 42.3858C25.2263 41.325 26.5682 39.8059 27.4727 38.0713C28.4205 36.2535 28.9018 34.2066 28.9303 32.1862C28.9623 29.93 28.4344 27.7442 27.3673 25.996L21.6885 16.6935L21.6886 16.6934L14.1294 4.31047L16.4731 0.471191L30.8147 23.9646C36.0684 32.5711 31.729 48.208 16.4731 47.9978Z" fill="#0053F1"/>
<path fill-rule="evenodd" clip-rule="evenodd" d="M43.2169 33.7195L44.8823 33.7193C44.9784 33.7193 45.059 33.7857 45.079 33.8746L48.011 42.9135L50.9699 33.8573C50.9971 33.7735 51.0763 33.72 51.1612 33.7198L52.8041 33.7193C52.9479 33.7193 53.0441 33.8635 52.9909 33.9923L49.0345 46.1713C49.0072 46.2551 48.9281 46.3086 48.8431 46.3088L47.2003 46.3093C47.1053 46.3093 47.0257 46.2445 47.0044 46.1573L43.0255 33.9783C42.9833 33.8487 43.0815 33.7216 43.2169 33.7195ZM125.809 37.3271C125.806 38.8317 132.739 39.1287 132.786 42.9934C132.786 43.2768 132.781 43.5237 132.722 43.806C132.423 45.2391 131.099 46.3093 129.614 46.3093H124.032C123.921 46.3093 123.831 46.2204 123.831 46.1108V44.559C123.831 44.4494 123.921 44.3605 124.032 44.3605H129.614C130.123 44.3605 130.521 44.0875 130.726 43.6328C130.815 43.4118 130.807 43.2222 130.807 42.9934C130.807 40.3366 123.797 40.483 123.831 37.3271C123.831 36.9493 123.816 36.597 123.894 36.2227C124.194 34.7895 125.516 33.7193 127.003 33.7193H132.134C132.245 33.7193 132.336 33.8083 132.336 33.9178V35.4696C132.336 35.5792 132.245 35.6681 132.134 35.6681H127.003C126.329 35.6681 125.809 36.1811 125.809 36.8442V37.3271ZM55.0555 36.8663C55.0555 35.1354 56.493 33.7193 58.2501 33.7193H61.4909C63.2486 33.7193 64.6856 35.1351 64.6856 36.8663V40.7902C64.6856 40.8998 64.5953 40.9887 64.4841 40.9887H57.0338V43.1623C57.0338 43.826 57.5764 44.3605 58.2501 44.3605H64.0339C64.1451 44.3605 64.2354 44.4494 64.2354 44.559V46.1108C64.2354 46.2204 64.1451 46.3093 64.0339 46.3093H58.2501C56.493 46.3093 55.0555 44.8932 55.0555 43.1623V36.8663ZM62.7071 39.0399V36.8663C62.7071 36.2056 62.17 35.6681 61.4909 35.6681H58.2501C57.5764 35.6681 57.0338 36.2026 57.0338 36.8663V39.0399H62.7071ZM69.6352 33.8937L69.7773 34.5801C70.3644 34.0182 71.1612 33.7193 71.9782 33.7193H74.3188C76.0759 33.7193 77.5134 35.1355 77.5134 36.8663V46.1108C77.5134 46.2204 77.4232 46.3093 77.3119 46.3093H75.7366C75.6254 46.3093 75.5351 46.2204 75.5351 46.1108V36.8663C75.5351 36.2026 74.9925 35.6681 74.3188 35.6681H71.078C70.4042 35.6681 69.8616 36.2026 69.8616 36.8663V46.1108C69.8616 46.2204 69.7714 46.3093 69.6601 46.3093H68.0848C67.9736 46.3093 67.8833 46.2204 67.8833 46.1108V33.9178C67.8833 33.8083 67.9736 33.7193 68.0848 33.7193H69.4351C69.538 33.7193 69.6231 33.7954 69.6352 33.8937ZM79.8109 35.4696V33.9178C79.8109 33.8083 79.9012 33.7193 80.0124 33.7193H81.7239V30.5925C81.7239 30.483 81.8142 30.394 81.9254 30.394H83.5008C83.612 30.394 83.7023 30.483 83.7023 30.5925V33.7193H86.989C87.1002 33.7193 87.1904 33.8083 87.1904 33.9178V35.4696C87.1904 35.5792 87.1002 35.6681 86.989 35.6681H83.7023V43.1623C83.7023 43.826 84.2448 44.3605 84.9186 44.3605H87.2141C87.3254 44.3605 87.4156 44.4494 87.4156 44.559V46.1108C87.4156 46.2204 87.3254 46.3093 87.2141 46.3093H84.9186C83.1608 46.3093 81.7239 44.8935 81.7239 43.1623V35.6681H80.0124C79.9012 35.6681 79.8109 35.5792 79.8109 35.4696ZM90.0732 43.1623V33.9178C90.0732 33.8083 90.1635 33.7193 90.2747 33.7193H91.85C91.9613 33.7193 92.0515 33.8083 92.0515 33.9178V43.1623C92.0515 43.826 92.5941 44.3605 93.2679 44.3605H96.5087C97.1824 44.3605 97.725 43.826 97.725 43.1623V33.9178C97.725 33.8083 97.8153 33.7193 97.9265 33.7193H99.5018C99.6131 33.7193 99.7033 33.8083 99.7033 33.9178V46.1108C99.7033 46.2204 99.6131 46.3093 99.5018 46.3093H98.1515C98.0487 46.3093 97.9636 46.2332 97.9515 46.1349L97.8095 45.4493C97.2155 46.0217 96.4356 46.3093 95.6084 46.3093H93.2679C91.5107 46.3093 90.0732 44.8932 90.0732 43.1623ZM103.239 46.1108V33.9178C103.239 33.8083 103.329 33.7193 103.44 33.7193H104.79C104.893 33.7193 104.978 33.7954 104.99 33.8937L105.133 34.5801C105.72 34.0182 106.516 33.7193 107.334 33.7193H109.156C109.268 33.7193 109.358 33.8083 109.358 33.9178V35.4696C109.358 35.5792 109.268 35.6681 109.156 35.6681H106.433C105.759 35.6681 105.217 36.2026 105.217 36.8663V46.1108C105.217 46.2204 105.127 46.3093 105.015 46.3093H103.44C103.329 46.3093 103.239 46.2204 103.239 46.1108ZM111.565 36.8663C111.565 35.1354 113.003 33.7193 114.76 33.7193H118.001C119.758 33.7193 121.196 35.1355 121.196 36.8663V40.7902C121.196 40.8998 121.105 40.9887 120.994 40.9887H113.544V43.1623C113.544 43.826 114.086 44.3605 114.76 44.3605H120.544C120.655 44.3605 120.745 44.4494 120.745 44.559V46.1108C120.745 46.2204 120.655 46.3093 120.544 46.3093H114.76C113.003 46.3093 111.565 44.8932 111.565 43.1623V36.8663ZM119.217 39.0399V36.8663C119.217 36.2054 118.68 35.6681 118.001 35.6681H114.76C114.086 35.6681 113.544 36.2026 113.544 36.8663V39.0399H119.217Z" fill="#0053F1"/>
</svg>
