<svg width="108" height="72" viewBox="0 0 108 72" fill="none" xmlns="http://www.w3.org/2000/svg">
<path d="M10.2131 10.5097L12.0632 6.66715L13.9226 0.0727539L16.2997 4.55428L16.3336 4.69648L16.2236 15.6991L24.0147 22.7629L32.853 26.4912L40.1134 22.3615L40.2771 22.3247L51.4749 23.2683L79.8495 15.2295L81.8004 14.6769H81.8005L89.5461 9.13479L89.7347 9.08177L107.912 10.6765L107.852 13.3098L107.8 13.4726L104.66 18.0188L104.625 18.0603L104.618 18.0667L104.617 18.0682L104.614 18.0713L101.148 21.517L95.7411 29.5686L95.6902 29.6265L86.4528 37.7352L86.3389 37.7964L74.2233 41.0783L73.9779 45.7371L73.9356 45.7708L73.9622 45.8179L71.5443 52.9441L71.0492 58.7467L68.4589 55.3685L68.4296 55.3223L66.4296 51.4532L66.397 51.3158L66.416 44.5867L61.1589 43.5487L48.4251 53.018L40.0265 62.8326L39.7259 58.8415L39.7416 58.7213L41.6661 53.1089L41.6809 53.072L44.8287 46.7423L44.8571 46.6972L48.7685 41.4748L37.6736 40.0572L37.5666 40.0202L20.7772 30.2373L20.6675 30.1252L14.589 19.0532L14.4254 19.2415L14.2063 19.3396L8.02371 19.2553L7.86318 19.2034L2.49772 15.4023L2.40505 15.2937L0.0180664 10.513L10.2131 10.5097ZM99.8591 21.6657L89.6021 29.4189L89.5869 29.3981L89.6009 29.4201L77.5046 38.5339L87.7786 32.8203L99.8591 21.6657ZM95.7321 24.0519L104.214 17.6406L105.99 15.069L95.7321 24.0519ZM89.2631 28.9402L104.043 15.9971L84.1072 29.2641L74.969 37.4136L89.2631 28.9402ZM85.0256 32.1342L72.971 39.2799L73.9876 40.4505L85.0256 32.1342ZM71.5701 51.0714L70.7858 52.7811L70.8667 54.0743L70.9738 52.8561L70.9885 52.7856L71.5701 51.0714ZM70.4955 52.0267L72.9581 46.657L69.3338 49.456L70.4955 52.0267ZM70.0388 52.8533L67.1897 51.6609L68.7279 54.6363L70.0388 52.8533ZM67.2629 51.0552L69.9238 52.1688L68.8623 49.8201L67.2629 51.0552ZM68.6142 49.2715L66.9889 45.6755L66.9752 50.5372L68.6142 49.2715ZM67.2031 44.7423L69.0857 48.9074L72.9982 45.8861L72.7929 45.8456L72.5029 45.7884L67.2031 44.7423ZM72.4858 45.1836L73.3301 45.3502L72.6201 41.3936L69.9168 41.8955L67.3437 44.1682L72.2644 45.1398L72.4858 45.1836ZM70.4713 57.0016L70.2551 53.5394L69.0496 55.179L70.4713 57.0016ZM84.2203 28.0757L88.8729 21.1153L84.2157 23.2716L84.2203 28.0757ZM89.8856 20.6467L84.9865 27.9756L107.279 13.1404L107.291 12.6378L107.153 12.6521L89.8856 20.6467ZM89.405 20.2209L89.4146 14.4744L87.8044 14.6398L84.4886 22.4972L89.405 20.2209ZM89.4155 13.8816L89.4206 10.8101L88.0659 14.0203L89.4155 13.8816ZM89.9983 9.71939L89.9916 13.8225L105.992 12.1787L89.9983 9.71939ZM89.9907 14.4152L89.9814 19.954L105.354 12.8369L89.9907 14.4152ZM83.9994 22.1643L87.1465 14.7076L82.2858 15.2067L83.9994 22.1643ZM87.4079 14.0879L89.0428 10.2139L82.9944 14.5413L87.4079 14.0879ZM98.7439 10.4663L107.31 11.7835L107.323 11.2197L98.7439 10.4663ZM74.2878 37.2387L83.6449 28.8941L83.6406 24.1864L74.2878 37.2387ZM72.4992 38.7366L82.9654 24.1302L68.6951 34.3571L72.4992 38.7366ZM72.5161 40.8142L72.3279 39.7658L70.7754 41.1372L72.5161 40.8142ZM72.9904 40.1919L73.0831 40.7088L73.39 40.6518L72.9904 40.1919ZM73.1872 41.2884L73.5331 43.2156L73.6391 41.2045L73.1872 41.2884ZM64.7596 42.254L69.6583 41.3445L71.1976 39.985L64.7596 42.254ZM68.7999 42.1027L62.6572 43.243L66.6227 44.026L68.7999 42.1027ZM65.1773 36.878L71.6634 38.6641L68.2188 34.6984L65.1773 36.878ZM71.5352 39.2407L64.6486 37.3443L61.713 42.7024L71.5352 39.2407ZM65.376 36.0163L67.8338 34.2549L66.9184 33.201L65.376 36.0163ZM68.31 33.9138L79.3796 25.9806L67.3208 32.7748L68.31 33.9138ZM61.5757 34.6764L64.4056 36.5791L66.3686 32.996L64.5173 33.0212L61.5757 34.6764ZM64.1233 37.0942L61.3103 35.2028L61.3689 42.1218L64.1233 37.0942ZM68.1446 31.6364L82.773 23.3943L75.0328 23.5189L68.1446 31.6364ZM81.7794 15.5683L75.5398 22.9214L83.5586 22.7923L81.7794 15.5683ZM67.6142 31.3617L74.2586 23.5313L70.2029 23.5967L67.6142 31.3617ZM74.7656 22.9339L81.0797 15.4929L72.052 18.0508L70.4004 23.0042L74.7656 22.9339ZM66.6572 32.4028L69.5898 23.6066L63.6418 23.7023L64.6953 32.4295L66.6572 32.4028ZM69.7874 23.014L71.3785 18.2415L63.2603 20.5416L63.5708 23.1142L69.7874 23.014ZM60.7966 42.5503L60.7339 35.1502L55.8958 37.8727L60.7966 42.5503ZM60.6376 43.206L55.717 38.509L55.9606 46.6839L60.6376 43.206ZM63.0605 23.7117L61.5224 23.7365L54.1212 38.1972L64.1294 32.5654L63.0605 23.7117ZM60.8668 23.747L51.6052 23.8961L53.5813 37.982L60.8668 23.747ZM53.613 23.2744L61.171 23.1527L62.3799 20.7908L53.613 23.2744ZM61.8264 23.1421L62.9895 23.1235L62.7694 21.2998L61.8264 23.1421ZM53.1084 38.7673L51.0774 24.2924L44.9405 31.6024L49.4281 40.8382L53.1084 38.7673ZM55.3918 46.9454L55.1552 39.0073L51.4211 46.8052L55.3918 46.9454ZM48.6672 51.2166L50.5127 47.363L49.0299 47.3107L48.6672 51.2166ZM50.7904 46.7829L54.7479 38.5185L49.5761 41.4289L49.0845 46.7227L50.7904 46.7829ZM51.1433 47.3853L49.0004 51.8598L54.8421 47.516L51.1433 47.3853ZM99.7401 22.5714L88.1416 33.2808L88.0861 33.3201L76.1932 39.9342L86.1277 37.2429L95.2858 29.2038L99.7401 22.5714ZM45.2079 47.7227L44.1774 52.7649L47.7621 52.5318L45.2079 47.7227ZM44.0549 53.3642L43.0192 58.4316L47.5568 53.1366L44.0549 53.3642ZM42.6209 57.4973L43.4578 53.403L42.2528 53.4813L42.6209 57.4973ZM43.5802 52.8036L44.3599 48.9885L42.4254 52.8787L43.5802 52.8036ZM42.2141 59.3712L41.7745 54.5749L40.3067 58.8558L40.5025 61.3683L42.2141 59.3712ZM45.5803 47.1887L48.0335 51.8078L48.453 47.2902L45.5803 47.1887ZM45.6556 46.6016L48.5076 46.7023L48.9219 42.2402L45.6556 46.6016ZM40.7396 22.9567L41.7198 24.9743L49.1964 23.6696L40.7396 22.9567ZM41.9882 25.5267L44.6618 31.0288L50.5326 24.0355L41.9882 25.5267ZM48.806 40.8837L44.5324 32.0885L38.2781 39.5386L48.806 40.8837ZM44.2538 31.515L41.3945 25.6303L40.0646 25.8623L38.1455 38.7907L44.2538 31.515ZM41.1259 25.0779L40.402 23.588L40.1558 25.2471L41.1259 25.0779ZM37.5876 38.6113L39.4642 25.9671L33.267 27.0486L37.5876 38.6113ZM39.5556 25.3518L39.8796 23.1693L34.4872 26.2363L39.5556 25.3518ZM36.9338 38.5172L32.6936 27.1695L27.5207 28.5384L36.9338 38.5172ZM21.0626 29.6385L22.5375 29.2481L23.2609 24.8724L20.0974 21.5187L15.3381 19.211L21.0626 29.6385ZM23.1496 29.0861L26.4195 28.2209L23.7589 25.4004L23.1496 29.0861ZM27.061 28.0511L31.9634 26.7537L24.0845 23.4303L23.8784 24.6773L27.061 28.0511ZM26.8792 28.7081L23.0444 29.7229L22.87 30.7781L36.1078 38.4914L26.8792 28.7081ZM22.4323 29.8849L21.6793 30.0842L22.3361 30.4669L22.4323 29.8849ZM23.3803 24.1492L23.5392 23.1878L21.5749 22.2351L23.3803 24.1492ZM15.1141 18.4492L18.9616 20.3149L16.1151 17.2972L15.1141 18.4492ZM20.4392 21.0313L22.1527 21.8622L16.216 16.4795L16.2153 16.5535L20.4392 21.0313ZM15.6369 16.79L11.7428 12.6621L14.6958 18.0409L15.635 16.9604L15.6369 16.79ZM14.2898 18.5081L10.4748 11.5589L8.41189 18.6713L14.0808 18.7487L14.2898 18.5081ZM10.7482 10.7344L15.6529 15.1815L15.6867 11.7941L12.2361 7.64339L10.7482 10.7344ZM12.6102 7.18209L15.6958 10.8937L15.7523 5.22266L12.6102 7.18209ZM8.15102 17.4959L10.0056 11.1013H7.42094L8.15102 17.4959ZM7.6667 18.3469L6.89093 11.5511L3.78298 15.5956L7.6667 18.3469ZM3.67005 14.7864L6.5018 11.1013H3.7337L3.67005 14.7864ZM3.08826 15.1033L3.15743 11.1013H0.956627L2.8847 14.9592L3.08826 15.1033ZM12.7351 6.41303L15.6614 4.58816L14.0917 1.62053L12.7351 6.41303Z" fill="#0053F1"/>
<path fill-rule="evenodd" clip-rule="evenodd" d="M10.107 66.185V71.5871H8.76118L8.75146 62.996L12.1155 66.5889L15.4132 62.9771L15.394 64.9681L12.0583 68.3949L10.107 66.185ZM79.3898 71.5871H77.8958L76.003 67.1413L76.6929 65.5255L79.3898 71.5871ZM71.8294 71.5871H73.3236L76.2368 64.7441L75.6603 62.9771L71.8294 71.5871ZM94.2938 66.8793H96.2315V68.1339H94.2938V70.3329H98.2828V71.5871H94.2938H92.9478V70.3329V68.1339V66.8793V65.3049H94.2938V66.8793ZM92.9478 64.6804V63.4259H98.2828V64.6804H92.9478ZM84.7955 63.4259H83.4496V69.7077H84.7955V63.4259ZM83.4496 70.3329V71.5871H88.7845V70.3329H83.4496ZM33.2934 63.4259C34.3665 63.4259 35.3311 63.9016 36.0223 64.6705C36.6816 65.4045 37.0901 66.4077 37.0901 67.5063C37.0901 68.6051 36.6816 69.6086 36.0225 70.3423C35.3311 71.1111 34.3665 71.5871 33.2934 71.5871C32.2196 71.5871 31.255 71.1111 30.5641 70.3423C29.9044 69.6086 29.4961 68.6051 29.4961 67.5063C29.4961 66.4077 29.9044 65.4045 30.5641 64.6705C31.255 63.9016 32.2196 63.4259 33.2934 63.4259ZM33.2934 64.6953C34.6889 64.6953 35.8201 65.9542 35.8201 67.5063C35.8201 69.059 34.6889 70.3178 33.2934 70.3178C31.8973 70.3178 30.7661 69.059 30.7661 67.5063C30.7661 65.9542 31.8973 64.6953 33.2934 64.6953ZM22.6341 63.4259C23.7074 63.4259 24.6724 63.9016 25.3634 64.6705C26.0229 65.4045 26.4307 66.4077 26.4307 67.5063C26.4307 68.6051 26.0229 69.6086 25.3634 70.3423C24.6724 71.1111 23.7078 71.5871 22.6341 71.5871C21.5606 71.5871 20.5965 71.1111 19.9051 70.3423C19.2453 69.6086 18.8375 68.6051 18.8375 67.5063C18.8375 66.4077 19.2453 65.4045 19.9051 64.6705C20.5965 63.9016 21.5606 63.4259 22.6341 63.4259ZM22.6341 64.6953C24.0298 64.6953 25.1614 65.9542 25.1614 67.5063C25.1614 69.059 24.0298 70.3178 22.6341 70.3178C21.2386 70.3178 20.1069 69.059 20.1069 67.5063C20.1069 65.9542 21.2386 64.6953 22.6341 64.6953ZM63.7049 68.1703H66.3918V71.5629H67.7372V68.1703V66.7936V63.4014H66.3918V66.7936H63.7049H62.4021H62.3591V71.5871H63.7049V68.1703ZM62.3591 63.4259H63.7049V66.1172H62.3591V63.4259ZM56.4142 67.9594V63.4259H57.795L57.8046 71.8899L54.4025 68.1894L51.0198 71.7626L51.0099 69.8157L54.5295 65.7202L56.4142 67.9594ZM51.0099 68.9368V63.4259H52.3906V67.4354L51.0099 68.9368ZM40.913 66.056L40.9317 71.5871H42.2773V67.5799L40.913 66.056ZM45.3725 68.2815L45.3127 63.4259H46.6582L46.7061 71.7923L40.9221 65.0172V62.996L45.3725 68.2815ZM15.3749 65.7927V71.5871H14.0295V67.1649L15.3749 65.7927Z" fill="#0053F1"/>
</svg>
