<svg width="227" height="72" viewBox="0 0 227 72" fill="none" xmlns="http://www.w3.org/2000/svg">
<path d="M97.1345 10.2178V21.6237H94.4265V12.8316H91.012V21.6237H88.4218V12.8316H85.4783C85.0881 12.8316 84.7719 13.1508 84.7719 13.5445V21.6237H82.1816V13.7821C82.1816 11.8136 83.7631 10.2178 85.7138 10.2178H97.1345Z" fill="#0053F1"/>
<path d="M127.04 13.6635V21.6239H129.63V13.5447C129.63 13.151 129.947 12.8318 130.337 12.8318H136.812V21.6239H139.403V10.0991H130.572C128.622 10.0991 127.04 11.695 127.04 13.6635Z" fill="#0053F1"/>
<path d="M141.051 10.0991V21.6239H143.641V10.0991H141.051Z" fill="#0053F1"/>
<path d="M145.172 13.6635V21.6239H147.762V13.5447C147.762 13.151 148.078 12.8318 148.469 12.8318H155.062V21.6239H157.652V10.0991H148.704C146.753 10.0991 145.172 11.695 145.172 13.6635Z" fill="#0053F1"/>
<path d="M159.183 13.6635V21.6239H171.192V15.9209H168.602V19.1288H161.773V13.5447C161.773 13.151 162.089 12.8318 162.479 12.8318H170.721V10.0991H162.715C160.764 10.0991 159.183 11.695 159.183 13.6635Z" fill="#0053F1"/>
<path d="M172.723 19.01V21.6239H181.318C183.268 21.6239 184.85 20.0281 184.85 18.0595V14.7328H175.195V14.0199C175.195 13.3637 175.722 12.8318 176.373 12.8318H184.85V10.0991H176.255C174.304 10.0991 172.723 11.695 172.723 13.6635V17.109H182.024V17.8219C182.024 18.4781 181.497 19.01 180.847 19.01H172.723Z" fill="#0053F1"/>
<path d="M198.507 10.0989C198.507 10.0038 190.423 10.0593 186.38 10.0989V12.7127H191.325V21.6236H193.798V12.7127H198.507V10.0989Z" fill="#0053F1"/>
<path fill-rule="evenodd" clip-rule="evenodd" d="M200.156 21.6239V13.6635C200.156 11.695 201.737 10.0991 203.688 10.0991H212.283V21.6239H209.693V18.6536H202.746V21.6239H200.156ZM203.452 12.713C203.062 12.713 202.746 13.0321 202.746 13.4259V16.0397H209.693V12.713H203.452Z" fill="#0053F1"/>
<path fill-rule="evenodd" clip-rule="evenodd" d="M112.793 21.6239H115.384V18.0595H120.8L122.683 21.6239H125.274L123.39 17.8219L124.013 17.4889C124.861 17.0359 125.391 16.147 125.391 15.1788V10.0991H116.326C114.375 10.0991 112.793 11.695 112.793 13.6635V21.6239ZM116.09 12.8318C115.7 12.8318 115.384 13.151 115.384 13.5447V15.4457H122.095C122.485 15.4457 122.801 15.1265 122.801 14.7328V12.8318H116.09Z" fill="#0053F1"/>
<path fill-rule="evenodd" clip-rule="evenodd" d="M111.145 10.2178H102.197C100.247 10.2178 98.665 11.8136 98.665 13.7821V18.0594C98.665 20.0279 100.247 21.6237 102.197 21.6237H107.613C109.564 21.6237 111.145 20.0279 111.145 18.0594V10.2178ZM107.849 19.0099C108.239 19.0099 108.555 18.6907 108.555 18.297V12.7128H102.079C101.689 12.7128 101.373 13.032 101.373 13.4257V18.297C101.373 18.6907 101.689 19.0099 102.079 19.0099H107.849Z" fill="#0053F1"/>
<path fill-rule="evenodd" clip-rule="evenodd" d="M213.813 21.5052H216.403V17.9409H221.819L223.703 21.5052H226.293L224.409 17.7032L225.033 17.3703C225.881 16.9173 226.411 16.0284 226.411 15.0602V9.98047H217.345C215.394 9.98047 213.813 11.5763 213.813 13.5448V21.5052ZM217.11 12.7131C216.719 12.7131 216.403 13.0323 216.403 13.426V15.327H223.114C223.505 15.327 223.821 15.0079 223.821 14.6141V12.7131H217.11Z" fill="#0053F1"/>
<path d="M86.3985 28.0396L85.0697 30.9854L83.8815 28.0396H81.9077L84.0984 33.2673H85.9012L88.2013 28.0396H86.3985Z" fill="#0053F1"/>
<path d="M104.552 31.9603V31.2475H106.789V29.9405H104.552L104.555 29.3465H107.143V28.0396H102.904V33.2673H107.142V31.9603H104.552Z" fill="#0053F1"/>
<path d="M125.861 27.9209V30.2719L123.912 27.9209H122.405V33.2674H124.074V30.7738L126.141 33.2674H127.511V27.9209H125.861Z" fill="#0053F1"/>
<path d="M144.05 33.2673H145.884V29.3465H147.477V28.0396H142.457V29.3465H144.05V33.2673Z" fill="#0053F1"/>
<path d="M164.834 33.3861C166.505 33.3861 167.424 32.4439 167.424 30.7972V28.0396H165.665V30.7423C165.665 31.5813 165.346 31.895 164.833 31.895C164.32 31.895 164.002 31.5813 164.002 30.7423V28.0396H162.244V30.7972C162.244 32.4439 163.163 33.3861 164.834 33.3861Z" fill="#0053F1"/>
<path d="M185.901 33.2673H187.86L186.717 31.5735C187.37 31.2363 187.743 30.7722 187.743 29.8483C187.743 28.578 186.38 28.0396 185.264 28.0396H182.73V33.2673H184.479V31.9603H184.977L185.901 33.2673ZM185.792 29.9405C185.792 30.3405 185.556 30.547 185.148 30.547H184.479V29.3465H185.148C185.438 29.3465 185.792 29.5406 185.792 29.9405Z" fill="#0053F1"/>
<path d="M204.575 31.9605V31.2476H206.749V29.9407H204.575V29.3466H207.102V27.9209H202.863V33.2674H207.22V31.9605H204.575Z" fill="#0053F1"/>
<path d="M224.366 33.3929C226.052 33.3929 226.899 32.546 226.899 31.5423C226.899 29.5191 223.939 30.2429 223.939 29.5842C223.939 29.396 224.109 29.2278 224.645 29.2278C225.119 29.2278 225.522 29.4286 226.058 29.703L226.666 28.1312C226.099 27.8097 225.345 27.6528 224.615 27.6528C222.929 27.6528 222.082 28.484 222.082 29.5034C222.055 31.8417 224.998 31.0328 224.998 31.7228C224.998 31.8417 224.93 31.9605 224.41 31.9605C223.811 31.9605 223.1 31.7853 222.587 31.4795L221.996 32.8283C222.54 33.1655 223.457 33.3929 224.366 33.3929Z" fill="#0053F1"/>
<path d="M29.5523 0L45.751 14.3147C48.4096 16.664 52.3792 16.6696 55.0444 14.3278L71.3495 0L57.1284 16.4802C54.8176 19.158 54.8122 23.1438 57.1156 25.828L71.3495 42.4158L55.2222 28.2444C52.4814 25.8359 48.3773 25.9191 45.7343 28.4362L0.117676 71.8812L43.1987 25.8185C45.6811 23.1642 45.776 19.0466 43.4184 16.2787L29.5523 0Z" fill="#0053F1"/>
</svg>
