<svg width="100" height="72" viewBox="0 0 100 72" fill="none" xmlns="http://www.w3.org/2000/svg">
<path d="M14.771 27.1654C14.3325 27.1654 14.1133 27.0639 14.1133 26.861C14.1133 26.7427 14.1723 26.6496 14.2904 26.5821C14.4084 26.4975 14.5939 26.4299 14.8469 26.3792C15.5046 26.2609 15.9684 26.0748 16.2382 25.8212C16.5081 25.5507 16.643 25.1279 16.643 24.5531V13.6222C16.643 12.8952 16.5334 12.3626 16.3141 12.0245C16.1118 11.6694 15.7154 11.4327 15.1252 11.3143C14.6192 11.2129 14.3663 11.0438 14.3663 10.8071C14.3663 10.7056 14.4253 10.6296 14.5433 10.5788C14.6783 10.5112 14.8385 10.4774 15.024 10.4774C15.5131 10.4774 16.0443 10.4943 16.6177 10.5281L17.8573 10.5535C18.2114 10.5535 18.7258 10.5197 19.4004 10.452C20.0413 10.3844 20.5387 10.3506 20.8929 10.3506C22.8829 10.3506 24.4598 10.7648 25.6235 11.5933C26.8039 12.4218 27.3943 13.5631 27.3943 15.0171C27.3943 16.0992 27.1751 17.0799 26.7365 17.9591C26.315 18.8214 25.6656 19.5147 24.7887 20.0387C23.9286 20.546 22.8576 20.7996 21.5759 20.7996C21.205 20.7996 20.9097 20.7489 20.6905 20.6474C20.4713 20.5291 20.3617 20.4023 20.3617 20.267C20.3617 20.1824 20.4123 20.098 20.5135 20.0134C20.6146 19.9288 20.7073 19.8866 20.7917 19.8866C20.8761 19.8866 21.0194 19.9034 21.2218 19.9373C21.4241 19.9541 21.6518 19.9627 21.9048 19.9627C22.7987 19.9627 23.4817 19.5569 23.9539 18.7453C24.426 17.9337 24.6622 16.8009 24.6622 15.3468C24.6622 13.9773 24.3248 12.9459 23.6503 12.2527C22.9758 11.5595 22.0566 11.2129 20.8929 11.2129C19.8642 11.2129 19.3498 11.5933 19.3498 12.3542L19.3245 24.3502C19.3245 24.9421 19.4595 25.3986 19.7292 25.7198C20.016 26.041 20.4797 26.2609 21.1206 26.3792C21.3736 26.4299 21.5591 26.4975 21.6771 26.5821C21.7951 26.6496 21.8542 26.7427 21.8542 26.861C21.8542 27.0639 21.635 27.1654 21.1965 27.1654C21.0279 27.1654 20.4629 27.14 19.5016 27.0893C19.08 27.0386 18.65 27.0132 18.2114 27.0132C17.6381 27.0132 17.0815 27.0386 16.5418 27.0893C16.3732 27.0893 16.1118 27.0978 15.7576 27.1147C15.4034 27.1485 15.0746 27.1654 14.771 27.1654Z" fill="#0053F1"/>
<path d="M29.8049 27.4191C29.4675 27.4191 29.1218 27.3008 28.7677 27.064C28.4303 26.8443 28.1521 26.5653 27.9329 26.2271C27.7135 25.872 27.604 25.5255 27.604 25.1872C27.604 24.6461 27.7558 24.2066 28.0594 23.8684C28.3629 23.5302 28.8519 23.2175 29.5266 22.93L31.9804 21.8902C32.3176 21.7549 32.52 21.6366 32.5875 21.5352C32.6549 21.4337 32.697 21.2055 32.714 20.8504L32.7646 19.3033C32.7814 18.83 32.6634 18.4495 32.4105 18.162C32.1743 17.8577 31.8369 17.7055 31.3986 17.7055C31.1624 17.7055 30.9179 17.7478 30.665 17.8323C30.4288 17.9169 30.2349 18.0267 30.0831 18.162C29.9481 18.2974 29.8807 18.5171 29.8807 18.8215L29.906 19.3794C29.906 19.5147 29.6614 19.7091 29.1724 19.9627C28.7001 20.1995 28.3206 20.3178 28.0341 20.3178C27.9329 20.3178 27.8485 20.2839 27.7811 20.2163C27.7305 20.1488 27.7052 20.0727 27.7052 19.9881C27.7052 19.4301 28.0593 18.8468 28.7677 18.2381C29.3578 17.7141 30.0325 17.2829 30.7914 16.9447C31.5503 16.5896 32.1996 16.4121 32.7393 16.4121C33.4476 16.4121 34.021 16.6573 34.4595 17.1476C34.8979 17.6209 35.1088 18.2381 35.0919 18.999L34.9655 24.7307C34.9485 25.1026 35.0244 25.407 35.1931 25.6438C35.3617 25.8805 35.5726 25.9988 35.8256 25.9988C36.2303 25.9988 36.5339 25.8974 36.7363 25.6945C36.8037 25.6269 36.8627 25.593 36.9133 25.593C36.9975 25.593 37.0651 25.6269 37.1157 25.6945C37.1831 25.7452 37.2169 25.8044 37.2169 25.872C37.2169 26.058 37.0987 26.2693 36.8627 26.506C36.576 26.7935 36.2639 27.0133 35.9267 27.1654C35.6062 27.3345 35.2943 27.4191 34.9908 27.4191C34.1307 27.4191 33.456 26.9626 32.967 26.0495H32.8911C32.3346 26.5399 31.8116 26.8865 31.3227 27.0894C30.8335 27.3091 30.3276 27.4191 29.8049 27.4191ZM31.1203 26.0495C31.5925 26.0495 32.0057 25.872 32.3599 25.5169C32.5284 25.3479 32.6211 25.0436 32.6381 24.6039L32.6887 23.1583V23.0315C32.6887 22.7947 32.6128 22.6764 32.461 22.6764C32.3599 22.6764 32.2164 22.7186 32.031 22.8032C31.2889 23.0907 30.7576 23.3866 30.4373 23.6909C30.1337 23.9952 29.9819 24.3418 29.9819 24.7307C29.9819 25.1534 30.0914 25.4831 30.3108 25.7198C30.5468 25.9396 30.8167 26.0495 31.1203 26.0495Z" fill="#0053F1"/>
<path d="M38.1041 27.1397C37.7667 27.1397 37.5981 27.0382 37.5981 26.8353C37.5981 26.717 37.6402 26.6239 37.7246 26.5563C37.8258 26.4888 37.9776 26.4295 38.18 26.3788C38.5172 26.3112 38.7618 26.2013 38.9136 26.0491C39.0654 25.8801 39.1413 25.6687 39.1413 25.4151V19.8355C39.1413 19.379 39.0737 19.0154 38.9389 18.7449C38.8039 18.4574 38.5594 18.2716 38.2053 18.187C38.1377 18.1701 38.0703 18.1277 38.0029 18.0602C37.9523 17.9926 37.927 17.908 37.927 17.8066C37.927 17.6375 38.0112 17.5191 38.18 17.4515C38.6183 17.3332 39.099 17.1557 39.6219 16.9189C40.1615 16.6822 40.6253 16.4539 41.0133 16.2341C41.2324 16.0989 41.3842 16.0312 41.4686 16.0312C41.5866 16.0312 41.6457 16.0989 41.6457 16.2341L41.5698 18.187C41.5698 18.2546 41.5866 18.2884 41.6204 18.2884C42.0588 17.7305 42.5394 17.274 43.0623 16.9189C43.6019 16.5638 44.1248 16.3863 44.6307 16.3863C45.0691 16.3863 45.4065 16.4793 45.6426 16.6653C45.8786 16.8344 45.9968 17.0626 45.9968 17.35C45.9968 17.6712 45.8703 18.0094 45.6173 18.3645C45.3812 18.7196 45.1197 18.8971 44.8331 18.8971C44.6981 18.8971 44.4284 18.8042 44.0236 18.6181C43.956 18.5843 43.8296 18.5335 43.6442 18.466C43.4754 18.3814 43.3236 18.3391 43.1888 18.3391C42.6997 18.3391 42.2949 18.5082 41.9745 18.8464C41.654 19.1846 41.4939 19.7594 41.4939 20.571V25.339C41.4939 25.5926 41.5951 25.7955 41.7975 25.9477C41.9998 26.0998 42.337 26.252 42.8093 26.4042C43.0117 26.4549 43.155 26.5141 43.2394 26.5817C43.3406 26.6493 43.3912 26.7339 43.3912 26.8353C43.3912 27.0382 43.2309 27.1397 42.9105 27.1397C42.4214 27.1397 41.9745 27.1143 41.5698 27.0636C41.0638 27.0297 40.6759 27.0128 40.4061 27.0128C40.1362 27.0128 39.782 27.0297 39.3436 27.0636C38.9895 27.1143 38.5762 27.1397 38.1041 27.1397Z" fill="#0053F1"/>
<path d="M46.9152 27.1399C46.5948 27.1399 46.4346 27.0385 46.4346 26.8356C46.4346 26.6495 46.6116 26.5059 46.9658 26.4044C47.3874 26.2861 47.6826 26.1677 47.8512 26.0494C48.0198 25.914 48.1042 25.7111 48.1042 25.4407V19.9625C48.1042 18.8805 47.7247 18.2802 46.9658 18.1619C46.7972 18.145 46.7128 18.0182 46.7128 17.7814C46.7128 17.5785 46.7887 17.4686 46.9405 17.4517C48.0368 17.215 49.074 16.767 50.0521 16.1076C50.2544 15.9892 50.3894 15.9301 50.4568 15.9301C50.5918 15.9301 50.6592 15.9977 50.6592 16.1329C50.6592 16.2344 50.6254 16.6233 50.558 17.2996C50.4568 18.314 50.4062 19.1002 50.4062 19.6582V25.4407C50.4062 25.6943 50.4906 25.8972 50.6592 26.0494C50.8448 26.1847 51.1398 26.303 51.5446 26.4044C51.8987 26.5059 52.0758 26.6495 52.0758 26.8356C52.0758 27.0385 51.924 27.1399 51.6205 27.1399C51.1819 27.1399 50.7689 27.1145 50.3809 27.0638C49.9088 27.03 49.5293 27.0131 49.2425 27.0131C48.9558 27.0131 48.5933 27.03 48.1548 27.0638C47.8006 27.1145 47.3874 27.1399 46.9152 27.1399ZM49.192 14.1801C48.7704 14.1801 48.4077 14.0364 48.1042 13.7489C47.8174 13.4446 47.6741 13.0811 47.6741 12.6584C47.6741 12.2188 47.8174 11.8553 48.1042 11.5678C48.4077 11.2635 48.7704 11.1113 49.192 11.1113C49.6305 11.1113 50.0015 11.2635 50.305 11.5678C50.6086 11.8553 50.7604 12.2188 50.7604 12.6584C50.7604 13.0811 50.6086 13.4446 50.305 13.7489C50.0015 14.0364 49.6305 14.1801 49.192 14.1801Z" fill="#0053F1"/>
<path d="M58.9494 27.4186C58.3253 27.4186 57.558 27.3003 56.6473 27.0636L56.0908 26.9114C55.6523 26.7761 55.374 26.7085 55.256 26.7085C55.0536 26.7085 54.8259 26.8185 54.573 27.0382C54.438 27.1397 54.3453 27.1904 54.2947 27.1904C54.1935 27.1904 54.1006 27.1565 54.0164 27.0889C53.9321 27.0214 53.89 26.9453 53.89 26.8607C53.89 26.7424 53.9152 26.5563 53.9658 26.3027C53.9827 26.2013 54.0079 25.9984 54.0417 25.694C54.0923 25.3728 54.1176 25.0768 54.1176 24.8064L54.067 12.861C54.067 12.4045 53.9742 12.0156 53.7888 11.6944C53.6032 11.3562 53.3334 11.128 52.9793 11.0096C52.7599 10.942 52.6504 10.8152 52.6504 10.6292C52.6504 10.4601 52.7516 10.3587 52.954 10.3249C53.4599 10.2234 54.4801 9.86836 56.0149 9.25968C56.1161 9.20896 56.2003 9.18359 56.2679 9.18359C56.4027 9.18359 56.4703 9.25968 56.4703 9.41185C56.4703 9.47947 56.4533 9.74155 56.4197 10.1981C56.4027 10.6377 56.3944 11.1364 56.3944 11.6944L56.3691 16.9696C56.3691 17.4937 56.445 17.7558 56.5967 17.7558C57.1195 17.35 57.7013 17.0289 58.3422 16.7921C59 16.5385 59.5986 16.4117 60.1383 16.4117C60.9815 16.4117 61.7573 16.6399 62.4657 17.0964C63.174 17.5361 63.7305 18.1448 64.1353 18.9225C64.54 19.6833 64.7424 20.5371 64.7424 21.484C64.7424 22.6506 64.4978 23.682 64.0088 24.5781C63.5197 25.4743 62.8366 26.1759 61.9597 26.6831C61.0826 27.1735 60.0793 27.4186 58.9494 27.4186ZM59.4806 26.531C60.3237 26.531 60.9984 26.1083 61.5044 25.2629C62.0103 24.4174 62.2633 23.3608 62.2633 22.0927C62.2633 21.3826 62.1451 20.6893 61.9091 20.013C61.673 19.3197 61.3188 18.7449 60.8467 18.2884C60.3743 17.8319 59.7925 17.6037 59.1012 17.6037C58.5614 17.6037 58.0555 17.6883 57.5833 17.8573C57.111 18.0263 56.7062 18.2546 56.3691 18.542V23.6397C56.3691 24.4852 56.681 25.1783 57.3051 25.7194C57.929 26.2605 58.6541 26.531 59.4806 26.531Z" fill="#0053F1"/>
<path d="M74.3648 27.5712C74.2298 27.5712 74.1624 27.4951 74.1624 27.343L74.213 26.6075C74.2636 26.3031 74.2889 26.0242 74.2889 25.7705V25.5676C73.1082 26.8019 71.7339 27.419 70.1654 27.419C69.339 27.419 68.6559 27.1316 68.1164 26.5567C67.5935 25.9819 67.3322 25.2041 67.3322 24.2235V19.2019C67.3322 18.8299 67.2478 18.5339 67.0792 18.3142C66.9104 18.0774 66.6407 17.8999 66.2697 17.7816C66.0335 17.714 65.9155 17.5702 65.9155 17.3504C65.9155 17.0968 66.042 16.9531 66.295 16.9193C66.8683 16.8855 67.349 16.8348 67.7369 16.7671C68.1247 16.6995 68.6138 16.5896 69.2042 16.4374C69.3727 16.4036 69.4824 16.3867 69.533 16.3867C69.7354 16.3867 69.8281 16.5051 69.8113 16.7418C69.6931 17.4687 69.6342 18.1198 69.6342 18.6946V23.6148C69.6342 24.2235 69.8281 24.7476 70.216 25.1872C70.6038 25.6099 71.0508 25.8298 71.5568 25.8466C71.9952 25.8466 72.3578 25.8127 72.6446 25.7452C72.9311 25.6776 73.2094 25.5338 73.4794 25.314C74.0865 24.8407 74.3901 24.2403 74.3901 23.5133V19.075C74.3901 18.6354 74.2213 18.3142 73.8841 18.1113C73.5636 17.8916 73.2094 17.7731 72.8216 17.7562C72.4505 17.7562 72.2651 17.6041 72.2651 17.2997C72.2651 17.0123 72.4505 16.8686 72.8216 16.8686C73.7491 16.8348 74.4407 16.7925 74.896 16.7418C75.3682 16.6741 75.8488 16.5727 76.3379 16.4374C76.4391 16.4036 76.5318 16.3867 76.6162 16.3867C76.7174 16.3867 76.8016 16.4121 76.8692 16.4628C76.9366 16.5135 76.9704 16.5812 76.9704 16.6657C76.9704 16.7164 76.9619 16.7671 76.9451 16.8179C76.9281 16.8517 76.9113 16.894 76.8945 16.9447C76.8607 17.1476 76.8186 17.4434 76.768 17.8323C76.7342 18.2213 76.7174 18.5171 76.7174 18.72V24.5785C76.7174 25.3562 76.8692 25.7452 77.1727 25.7452L78.1846 25.6944C78.4544 25.6944 78.5894 25.8213 78.5894 26.0749C78.5894 26.3116 78.4629 26.4468 78.2099 26.4807C77.569 26.5653 76.9957 26.6836 76.4897 26.8357C76.0006 26.9879 75.4778 27.1739 74.9213 27.3937C74.6851 27.512 74.4996 27.5712 74.3648 27.5712Z" fill="#0053F1"/>
<path d="M82.4133 27.419C81.2834 27.419 80.3557 27.1232 79.6306 26.5314C79.5294 26.3453 79.445 26.0242 79.3776 25.5676C79.3271 25.0943 79.3018 24.6378 79.3018 24.1981C79.3018 24.0291 79.4282 23.9445 79.6812 23.9445C79.7656 23.9445 79.8415 23.9699 79.9089 24.0206C79.9933 24.0544 80.0522 24.1052 80.086 24.1727C80.3221 24.9504 80.6678 25.5508 81.1231 25.9734C81.5785 26.3792 82.0844 26.5821 82.641 26.5821C83.1131 26.5821 83.5011 26.4299 83.8046 26.1256C84.1082 25.8044 84.26 25.424 84.26 24.9843C84.26 24.5447 84.1082 24.1727 83.8046 23.8684C83.5179 23.5472 83.0204 23.1751 82.3121 22.7525C81.4352 22.2453 80.7858 21.7465 80.3642 21.2561C79.9427 20.7489 79.7318 20.1487 79.7318 19.4555C79.7318 18.5593 80.0607 17.8238 80.7184 17.249C81.3761 16.6741 82.2615 16.3867 83.3746 16.3867C83.8637 16.3867 84.3021 16.4374 84.69 16.5389C85.0948 16.6403 85.3899 16.7587 85.5754 16.894C85.7104 17.08 85.8199 17.3843 85.9043 17.807C86.0055 18.2127 86.0561 18.6354 86.0561 19.075C86.0561 19.1426 86.0223 19.1933 85.9549 19.2272C85.8875 19.2611 85.8116 19.2779 85.7272 19.2779C85.6092 19.2779 85.491 19.2526 85.3731 19.2019C85.2719 19.1343 85.2128 19.0665 85.196 18.999C84.7238 17.7984 84.0491 17.1983 83.1722 17.1983C82.7506 17.1983 82.3795 17.3336 82.0591 17.6041C81.7556 17.8577 81.6038 18.1959 81.6038 18.6185C81.6038 18.9904 81.7388 19.3287 82.0085 19.633C82.2783 19.9205 82.7254 20.2417 83.3493 20.5967C84.4286 21.2054 85.1875 21.7634 85.626 22.2706C86.0814 22.761 86.309 23.395 86.309 24.1727C86.309 25.1704 85.9549 25.9649 85.2466 26.5567C84.5382 27.1316 83.5938 27.419 82.4133 27.419Z" fill="#0053F1"/>
<path d="M21.9053 53.802C21.7197 53.802 21.5932 53.7174 21.5258 53.5483C21.3402 53.1087 21.1211 52.517 20.8681 51.773L16.1375 39.5487C15.7496 38.5681 15.1509 37.9678 14.3414 37.748C14.0716 37.6466 13.8776 37.562 13.7596 37.4944C13.6416 37.4098 13.5825 37.3084 13.5825 37.1901C13.5825 36.9872 13.8018 36.8857 14.2402 36.8857L15.6822 36.9111C16.5254 36.9449 17.1494 36.9618 17.5542 36.9618C17.9589 36.9618 18.566 36.9449 19.3756 36.9111L20.6151 36.8857C20.8175 36.8857 20.9861 36.9111 21.1211 36.9618C21.256 37.0125 21.3234 37.0886 21.3234 37.1901C21.3234 37.3254 21.2475 37.4437 21.0958 37.5451C20.9608 37.6466 20.7754 37.7058 20.5392 37.7226C19.4767 37.858 18.9455 38.1877 18.9455 38.7118C18.9455 38.9822 18.9793 39.219 19.0467 39.4219C19.1141 39.6248 19.1564 39.7431 19.1732 39.7769L22.6895 49.2369C22.7233 49.3383 22.7654 49.389 22.816 49.389C22.8666 49.389 22.9172 49.3298 22.9677 49.2115L26.2311 40.5632C26.4166 40.0898 26.5093 39.6586 26.5093 39.2697C26.5093 38.8301 26.3744 38.4835 26.1046 38.2299C25.8516 37.9594 25.4975 37.7987 25.0421 37.748C24.8059 37.7141 24.6121 37.6466 24.4603 37.5451C24.3085 37.4437 24.2326 37.3337 24.2326 37.2154C24.2326 37.114 24.3 37.0379 24.435 36.9872C24.57 36.9364 24.747 36.9111 24.9662 36.9111C25.4554 36.9111 25.8178 36.9196 26.054 36.9364L27.4453 36.9618C27.8333 36.9618 28.3645 36.9449 29.0391 36.9111C29.6462 36.8772 30.0594 36.8604 30.2786 36.8604C30.7845 36.8604 31.0375 36.9703 31.0375 37.1901C31.0375 37.3084 30.9701 37.4098 30.8351 37.4944C30.7171 37.562 30.5231 37.6297 30.2533 37.6973C29.174 37.9509 28.3728 38.7118 27.8501 39.9798L22.8919 52.0266C22.5209 52.9228 22.31 53.43 22.2594 53.5483C22.175 53.7174 22.057 53.802 21.9053 53.802Z" fill="#0053F1"/>
<path d="M33.2928 53.8273C32.3821 53.8273 31.5726 53.5905 30.8642 53.1171C30.1559 52.6438 29.5994 51.9927 29.1946 51.1643C28.8067 50.3188 28.6128 49.3551 28.6128 48.273C28.6128 47.2925 28.8405 46.3878 29.2958 45.5593C29.768 44.7139 30.3921 44.0462 31.1678 43.5558C31.9605 43.0485 32.8121 42.7949 33.7228 42.7949C34.7685 42.7949 35.6286 43.1078 36.3031 43.7333C36.9946 44.3588 37.3403 45.1451 37.3403 46.0919C37.3403 46.3794 37.2729 46.5907 37.1379 46.726C37.0199 46.8613 36.8259 46.9289 36.5561 46.9289H31.3196C31.0834 46.9289 30.9148 46.9965 30.8136 47.1318C30.7293 47.2671 30.6872 47.5122 30.6872 47.8673C30.6872 48.6113 30.8474 49.296 31.1678 49.9216C31.4882 50.5471 31.9267 51.046 32.4832 51.4179C33.0566 51.773 33.6807 51.9505 34.3552 51.9505C35.2997 51.9505 36.1428 51.5786 36.8849 50.8346C36.9693 50.6993 37.062 50.6317 37.1632 50.6317C37.315 50.6317 37.3909 50.7246 37.3909 50.9107C37.3909 51.1643 37.2729 51.4855 37.0367 51.8744C36.6826 52.4492 36.1681 52.9227 35.4936 53.2947C34.8359 53.6497 34.1023 53.8273 33.2928 53.8273ZM33.3686 46.0666C34.1276 46.0666 34.7094 46.0244 35.1141 45.9398C35.2659 45.889 35.3418 45.6776 35.3418 45.3057C35.3418 44.8324 35.1479 44.4349 34.76 44.1137C34.372 43.7755 33.9084 43.6065 33.3686 43.6065C33.0145 43.6065 32.6518 43.7165 32.2809 43.9362C31.9099 44.1559 31.6063 44.4349 31.3702 44.7731C31.151 45.1113 31.0413 45.441 31.0413 45.7622C31.0413 45.9651 31.151 46.0666 31.3702 46.0666H33.3686Z" fill="#0053F1"/>
<path d="M38.8931 53.523C38.7414 53.523 38.6149 53.4976 38.5137 53.4469C38.4295 53.3961 38.3872 53.3201 38.3872 53.2186C38.3872 53.1003 38.4295 53.0072 38.5137 52.9396C38.6149 52.8721 38.7667 52.8128 38.969 52.7621C39.3064 52.6775 39.5594 52.5761 39.728 52.4578C39.9135 52.3224 40.0062 52.1027 40.0062 51.7984V46.2188C40.0062 45.7284 39.9473 45.3565 39.8291 45.1029C39.7111 44.8324 39.475 44.6464 39.1208 44.5449C38.9522 44.511 38.8679 44.3927 38.8679 44.1898C38.8679 43.9701 38.9437 43.8516 39.0955 43.8348C40.175 43.5473 41.1531 43.1161 42.03 42.5413C42.165 42.4399 42.2746 42.3892 42.3589 42.3892C42.477 42.3892 42.5359 42.4652 42.5359 42.6174L42.4853 43.1247C42.4685 43.2429 42.4517 43.3951 42.4347 43.5812C42.4179 43.7672 42.4094 43.9616 42.4094 44.1645C42.4094 44.3505 42.4264 44.4603 42.46 44.4942C43.0504 43.9194 43.666 43.4966 44.3067 43.2261C44.9476 42.9386 45.656 42.7949 46.4317 42.7949C47.275 42.7949 47.9748 43.1332 48.5313 43.8094C49.0879 44.4688 49.3662 45.3143 49.3662 46.3456V51.8237C49.3662 52.1281 49.4505 52.331 49.6191 52.4324C49.7879 52.5339 50.0577 52.6438 50.4286 52.7621C50.7998 52.8974 50.9852 53.0579 50.9852 53.244C50.9852 53.43 50.8251 53.523 50.5045 53.523C50.0324 53.523 49.6276 53.4976 49.2903 53.4469C48.8519 53.413 48.4977 53.3961 48.2278 53.3961C47.958 53.3961 47.6038 53.413 47.1653 53.4469C46.8449 53.4976 46.4402 53.523 45.951 53.523C45.833 53.523 45.7234 53.4976 45.6222 53.4469C45.521 53.413 45.4704 53.3454 45.4704 53.244C45.4704 53.0579 45.656 52.8974 46.0269 52.7621C46.3981 52.6438 46.6594 52.5339 46.8111 52.4324C46.9799 52.331 47.0641 52.1281 47.0641 51.8237V46.5738C47.0641 45.8806 46.8787 45.3396 46.5076 44.9507C46.1366 44.5449 45.6392 44.3335 45.015 44.3166C44.0875 44.3166 43.2612 44.6125 42.5359 45.2043C42.4011 45.3396 42.3336 45.5172 42.3336 45.7369V51.8237C42.3336 52.1281 42.4179 52.3395 42.5865 52.4578C42.7553 52.5761 43.0083 52.6775 43.3454 52.7621C43.7166 52.8636 43.902 53.0157 43.902 53.2186C43.902 53.4215 43.7419 53.523 43.4213 53.523C42.966 53.523 42.5697 53.4976 42.2324 53.4469C41.8276 53.413 41.4819 53.3961 41.1952 53.3961C40.9254 53.3961 40.5712 53.413 40.1327 53.4469C39.7785 53.4976 39.3655 53.523 38.8931 53.523Z" fill="#0053F1"/>
<path d="M56.1498 53.8018C55.2221 53.8018 54.5055 53.5397 53.9996 53.0156C53.5104 52.4915 53.2659 51.7221 53.2659 50.7077V44.8238C53.2659 44.6884 53.2069 44.5955 53.0889 44.5448C52.9707 44.4772 52.76 44.4433 52.4564 44.4433H52.2541C52.1529 44.4433 52.0685 44.3758 52.0011 44.2404C51.9335 44.1051 51.8999 43.9615 51.8999 43.8093C51.8999 43.7586 51.9167 43.7078 51.9505 43.6571C52.0011 43.6064 52.0432 43.5725 52.077 43.5557C52.5491 43.2852 53.0383 42.9385 53.5442 42.5158C54.0502 42.0932 54.4802 41.6958 54.8344 41.3238C54.8512 41.307 54.9103 41.2478 55.0114 41.1463C55.1126 41.0449 55.2221 40.9941 55.3403 40.9941C55.5933 40.9941 55.7113 41.1209 55.6945 41.3746L55.5427 42.6173V42.7187C55.5427 42.8709 55.5933 42.9809 55.6945 43.0484C55.7957 43.0992 55.9474 43.1245 56.1498 43.1245H59.0843C59.1349 43.1245 59.1855 43.1838 59.2361 43.3021C59.2867 43.4204 59.312 43.5388 59.312 43.6571C59.312 43.8432 59.2867 44.0207 59.2361 44.1897C59.1855 44.3587 59.1264 44.4433 59.059 44.4433H56.6052C56.1834 44.4433 55.9052 44.4855 55.7704 44.5701C55.6522 44.6547 55.5933 44.8491 55.5933 45.1535V50.0736C55.5933 50.7838 55.7366 51.3332 56.0233 51.7221C56.3099 52.0941 56.7147 52.2801 57.2376 52.2801C57.676 52.2801 58.0218 52.2462 58.2748 52.1787C58.5446 52.1111 58.7975 52.0011 59.0337 51.849L59.1602 51.7982C59.295 51.7982 59.3625 51.9336 59.3625 52.204C59.3625 52.3223 59.1938 52.5169 58.8566 52.7873C58.5361 53.041 58.1313 53.2692 57.6423 53.4721C57.1532 53.6918 56.6558 53.8018 56.1498 53.8018Z" fill="#0053F1"/>
<path d="M68.3926 53.9541C68.2576 53.9541 68.1902 53.878 68.1902 53.7258L68.2408 52.9903C68.2914 52.686 68.3167 52.407 68.3167 52.1534V51.9505C67.1361 53.1847 65.7617 53.8019 64.1933 53.8019C63.3668 53.8019 62.6838 53.5144 62.1442 52.9396C61.6213 52.3648 61.36 51.5869 61.36 50.6063V45.5847C61.36 45.2128 61.2756 44.9168 61.107 44.697C60.9383 44.4603 60.6685 44.2827 60.2975 44.1644C60.0614 44.0969 59.9434 43.953 59.9434 43.7333C59.9434 43.4797 60.0698 43.336 60.3228 43.3021C60.8962 43.2683 61.3768 43.2175 61.7648 43.15C62.1525 43.0824 62.6417 42.9724 63.232 42.8203C63.4006 42.7864 63.5103 42.7695 63.5608 42.7695C63.7632 42.7695 63.8559 42.8878 63.8391 43.1246C63.7209 43.8516 63.662 44.5026 63.662 45.0774V49.9976C63.662 50.6063 63.8559 51.1304 64.2439 51.57C64.6316 51.9927 65.0787 52.2126 65.5846 52.2295C66.023 52.2295 66.3856 52.1956 66.6724 52.128C66.959 52.0604 67.2373 51.9166 67.5072 51.6969C68.1143 51.2235 68.4179 50.6232 68.4179 49.8962V45.4579C68.4179 45.0182 68.2491 44.697 67.912 44.4941C67.5914 44.2744 67.2373 44.1559 66.8495 44.1391C66.4783 44.1391 66.2929 43.9869 66.2929 43.6826C66.2929 43.3951 66.4783 43.2514 66.8495 43.2514C67.777 43.2175 68.4685 43.1753 68.9238 43.1246C69.396 43.057 69.8766 42.9556 70.3658 42.8203C70.467 42.7864 70.5597 42.7695 70.644 42.7695C70.7452 42.7695 70.8294 42.7949 70.897 42.8456C70.9644 42.8963 70.9982 42.9639 70.9982 43.0485C70.9982 43.0992 70.9897 43.15 70.9729 43.2007C70.9559 43.2346 70.9391 43.2768 70.9223 43.3275C70.8885 43.5304 70.8464 43.8262 70.7958 44.2152C70.762 44.6041 70.7452 44.8999 70.7452 45.1028V50.9614C70.7452 51.7391 70.897 52.128 71.2006 52.128L72.2125 52.0773C72.4822 52.0773 72.6172 52.2041 72.6172 52.4577C72.6172 52.6945 72.4907 52.8296 72.2378 52.8635C71.5968 52.9481 71.0235 53.0664 70.5176 53.2186C70.0284 53.3707 69.5057 53.5568 68.9491 53.7765C68.713 53.8948 68.5274 53.9541 68.3926 53.9541Z" fill="#0053F1"/>
<path d="M73.7594 53.523C73.422 53.523 73.2534 53.4215 73.2534 53.2186C73.2534 53.1003 73.2955 53.0072 73.3799 52.9396C73.4811 52.8721 73.6329 52.8128 73.8353 52.7621C74.1726 52.6945 74.4171 52.5846 74.5689 52.4324C74.7206 52.2634 74.7965 52.052 74.7965 51.7984V46.2188C74.7965 45.7623 74.7291 45.3987 74.5942 45.1282C74.4592 44.8408 74.2147 44.6549 73.8605 44.5703C73.7931 44.5534 73.7256 44.5111 73.6582 44.4435C73.6076 44.3759 73.5823 44.2913 73.5823 44.1899C73.5823 44.0208 73.6667 43.9024 73.8353 43.8348C74.2738 43.7165 74.7544 43.539 75.2772 43.3022C75.8169 43.0654 76.2806 42.8372 76.6685 42.6174C76.8877 42.4821 77.0395 42.4146 77.1239 42.4146C77.2419 42.4146 77.301 42.4821 77.301 42.6174L77.2251 44.5703C77.2251 44.6379 77.2419 44.6717 77.2757 44.6717C77.7142 44.1138 78.1948 43.6573 78.7176 43.3022C79.2573 42.9471 79.7801 42.7696 80.286 42.7696C80.7246 42.7696 81.0617 42.8626 81.2979 43.0486C81.5341 43.2176 81.6521 43.4459 81.6521 43.7334C81.6521 44.0546 81.5256 44.3928 81.2726 44.7478C81.0364 45.1029 80.7751 45.2804 80.4884 45.2804C80.3534 45.2804 80.0836 45.1875 79.6789 45.0014C79.6115 44.9676 79.485 44.9168 79.2994 44.8493C79.1308 44.7647 78.979 44.7225 78.8441 44.7225C78.3549 44.7225 77.9502 44.8915 77.6298 45.2297C77.3094 45.5679 77.1492 46.1427 77.1492 46.9543V51.7223C77.1492 51.9759 77.2504 52.1788 77.4527 52.331C77.6551 52.4831 77.9925 52.6353 78.4646 52.7875C78.667 52.8382 78.8103 52.8974 78.8947 52.965C78.9959 53.0326 79.0465 53.1172 79.0465 53.2186C79.0465 53.4215 78.8862 53.523 78.5658 53.523C78.0767 53.523 77.6298 53.4976 77.2251 53.4469C76.7191 53.413 76.3312 53.3962 76.0614 53.3962C75.7916 53.3962 75.4375 53.413 74.9989 53.4469C74.6448 53.4976 74.2315 53.523 73.7594 53.523Z" fill="#0053F1"/>
<path d="M86.7723 53.8273C85.8616 53.8273 85.052 53.5905 84.3437 53.1171C83.6354 52.6438 83.0789 51.9927 82.6741 51.1643C82.2863 50.3188 82.0923 49.3551 82.0923 48.273C82.0923 47.2925 82.32 46.3878 82.7753 45.5593C83.2476 44.7139 83.8716 44.0462 84.6473 43.5558C85.44 43.0485 86.2916 42.7949 87.2023 42.7949C88.248 42.7949 89.1081 43.1078 89.7826 43.7333C90.4741 44.3588 90.8198 45.1451 90.8198 46.0919C90.8198 46.3794 90.7524 46.5907 90.6174 46.726C90.4994 46.8613 90.3055 46.9289 90.0356 46.9289H84.7991C84.5631 46.9289 84.3943 46.9965 84.2931 47.1318C84.2089 47.2671 84.1666 47.5122 84.1666 47.8673C84.1666 48.6113 84.3269 49.296 84.6473 49.9216C84.9678 50.5471 85.4062 51.046 85.9627 51.4179C86.5363 51.773 87.1602 51.9505 87.8347 51.9505C88.7792 51.9505 89.6225 51.5786 90.3644 50.8346C90.4488 50.6993 90.5415 50.6317 90.6427 50.6317C90.7945 50.6317 90.8704 50.7246 90.8704 50.9107C90.8704 51.1643 90.7524 51.4855 90.5162 51.8744C90.1621 52.4492 89.6478 52.9227 88.9731 53.2947C88.3154 53.6497 87.5818 53.8273 86.7723 53.8273ZM86.8481 46.0666C87.6071 46.0666 88.1889 46.0244 88.5936 45.9398C88.7454 45.889 88.8213 45.6776 88.8213 45.3057C88.8213 44.8324 88.6274 44.4349 88.2395 44.1137C87.8517 43.7755 87.3879 43.6065 86.8481 43.6065C86.494 43.6065 86.1315 43.7165 85.7604 43.9362C85.3894 44.1559 85.0858 44.4349 84.8497 44.7731C84.6305 45.1113 84.5208 45.441 84.5208 45.7622C84.5208 45.9651 84.6305 46.0666 84.8497 46.0666H86.8481Z" fill="#0053F1"/>
<path d="M95.1301 53.8019C94.0001 53.8019 93.0725 53.5061 92.3474 52.9142C92.2462 52.7282 92.1619 52.407 92.0944 51.9505C92.0439 51.4771 92.0186 51.0206 92.0186 50.5809C92.0186 50.4119 92.145 50.3273 92.398 50.3273C92.4822 50.3273 92.5581 50.3527 92.6257 50.4034C92.7099 50.4373 92.769 50.488 92.8028 50.5556C93.0388 51.3333 93.3846 51.9336 93.84 52.3563C94.2953 52.762 94.8012 52.9649 95.3578 52.9649C95.8299 52.9649 96.2179 52.8128 96.5215 52.5084C96.825 52.1872 96.9768 51.8068 96.9768 51.3672C96.9768 50.9275 96.825 50.5556 96.5215 50.2512C96.2347 49.93 95.7372 49.558 95.0289 49.1353C94.1518 48.6281 93.5026 48.1294 93.081 47.639C92.6593 47.1317 92.4486 46.5316 92.4486 45.8383C92.4486 44.9421 92.7775 44.2066 93.4352 43.6318C94.0929 43.057 94.9783 42.7695 96.0914 42.7695C96.5804 42.7695 97.0189 42.8203 97.4068 42.9217C97.8116 43.0231 98.1067 43.1414 98.2922 43.2768C98.4271 43.4628 98.5367 43.7671 98.6211 44.1898C98.7223 44.5956 98.7729 45.0182 98.7729 45.4579C98.7729 45.5254 98.7391 45.5762 98.6717 45.61C98.6041 45.6439 98.5282 45.6608 98.444 45.6608C98.3259 45.6608 98.2079 45.6354 98.0899 45.5847C97.9887 45.5171 97.9296 45.4494 97.9128 45.3818C97.4405 44.1813 96.7659 43.5811 95.889 43.5811C95.4673 43.5811 95.0963 43.7164 94.7759 43.9869C94.4724 44.2405 94.3206 44.5787 94.3206 45.0014C94.3206 45.3733 94.4554 45.7115 94.7253 46.0158C94.9951 46.3033 95.442 46.6245 96.0661 46.9796C97.1454 47.5883 97.9043 48.1462 98.3428 48.6534C98.7982 49.1438 99.0259 49.7779 99.0259 50.5556C99.0259 51.5532 98.6717 52.3477 97.9634 52.9396C97.2551 53.5144 96.3106 53.8019 95.1301 53.8019Z" fill="#0053F1"/>
<path d="M1.01855 1.021L1.01856 70.9784H71.1374" stroke="#0053F1" stroke-width="0.7"/>
<path d="M1.01875 0.0849609L1.86764 1.9573L1.01875 1.53177L0.0849609 1.9573L1.01875 0.0849609Z" fill="#0053F1"/>
<path d="M72.0712 71.0641L70.2036 71.9152L70.6281 71.0641L70.2036 70.1279L72.0712 71.0641Z" fill="#0053F1"/>
</svg>
