<svg width="80" height="72" viewBox="0 0 80 72" fill="none" xmlns="http://www.w3.org/2000/svg">
<g clip-path="url(#clip0)">
<path d="M51.6264 38.3046L51.7516 38.1355L50.8343 37.4393L50.7089 37.6303C50.587 37.8165 50.447 37.9751 50.2895 38.1078C50.1266 38.2377 49.9547 38.3479 49.7734 38.4387C49.5992 38.5223 49.4187 38.5868 49.2318 38.6321C49.0427 38.671 48.8621 38.69 48.6896 38.69C48.2312 38.69 47.8224 38.6105 47.4598 38.4553C47.1001 38.2983 46.7953 38.0839 46.543 37.8124C46.2899 37.54 46.0939 37.2178 45.956 36.8433C45.8181 36.4695 45.7482 36.0638 45.7482 35.6243C45.7482 35.1849 45.8181 34.7792 45.956 34.4054C46.0939 34.0309 46.2899 33.7087 46.543 33.4363C46.7953 33.1646 47.1001 32.9502 47.4598 32.7933C47.8224 32.638 48.2312 32.5585 48.6896 32.5585C49.0369 32.5585 49.3751 32.6322 49.7062 32.7815L49.7074 32.782C50.0325 32.9258 50.2995 33.1535 50.5096 33.4718L50.6409 33.6705L51.5506 32.9128L51.4231 32.7501C51.0738 32.3045 50.6593 31.9818 50.1792 31.7909C49.7172 31.5977 49.2199 31.502 48.6896 31.502C48.0968 31.502 47.5466 31.6045 47.0417 31.8122L47.0407 31.8127C46.5457 32.0194 46.1182 32.3087 45.7606 32.6807C45.4033 33.0453 45.1258 33.4793 44.9269 33.9799C44.7267 34.4839 44.6279 35.0328 44.6279 35.6243C44.6279 36.2159 44.7267 36.7679 44.9265 37.2783L44.9269 37.2793C45.1258 37.7799 45.4032 38.217 45.7599 38.5882L45.7606 38.589L45.7614 38.5898C46.1189 38.9546 46.5462 39.2399 47.0407 39.4464L47.0424 39.4471L47.0443 39.4478C47.5484 39.648 48.0978 39.7466 48.6896 39.7466C49.2645 39.7466 49.8026 39.636 50.3014 39.4127C50.8098 39.1852 51.2509 38.8124 51.6264 38.3046Z" fill="#0053F1" stroke="#0053F1" stroke-width="0.2"/>
<path fill-rule="evenodd" clip-rule="evenodd" d="M19.9495 31.6909H17.5913V39.5572H18.7116V36.0263H20.1073C20.4203 36.0263 20.7205 35.9854 21.0071 35.9026C21.303 35.8191 21.5657 35.6924 21.7924 35.5205L21.7932 35.52C22.03 35.3385 22.2152 35.1097 22.3484 34.8366C22.4923 34.5559 22.5601 34.2311 22.5601 33.8691C22.5601 33.4577 22.4781 33.0985 22.2994 32.8047C22.1361 32.5183 21.9198 32.2894 21.6506 32.1228C21.3963 31.9615 21.1131 31.851 20.8031 31.79C20.51 31.7244 20.2253 31.6909 19.9495 31.6909ZM21.3183 33.3611L21.32 33.3641L21.3217 33.3669C21.3971 33.4959 21.4398 33.6602 21.4398 33.8691C21.4398 34.0886 21.399 34.2583 21.3289 34.3877C21.2528 34.528 21.1558 34.6388 21.0377 34.7237C20.9138 34.8058 20.77 34.8693 20.6042 34.9126C20.4315 34.9507 20.2555 34.9697 20.0757 34.9697H18.7116V32.7475H20.0336C20.212 32.7475 20.3909 32.7698 20.5709 32.8148C20.7417 32.8574 20.8865 32.9263 21.0086 33.0192L21.0131 33.0226L21.0177 33.0258C21.1431 33.1112 21.243 33.2219 21.3183 33.3611Z" fill="#0053F1" stroke="#0053F1" stroke-width="0.2"/>
<path fill-rule="evenodd" clip-rule="evenodd" d="M26.2003 31.6909H25.2042L21.769 39.5572H22.9611L23.8023 37.5816H27.4616L28.2712 39.5572H29.5133L26.2003 31.6909ZM24.257 36.525L25.6667 33.212L27.0337 36.525H24.257Z" fill="#0053F1" stroke="#0053F1" stroke-width="0.2"/>
<path fill-rule="evenodd" clip-rule="evenodd" d="M30.0474 31.6909H32.2163C32.3188 31.6909 32.4553 31.6946 32.6247 31.7017C32.804 31.7091 32.996 31.7314 33.2 31.7679C33.4105 31.8054 33.6231 31.8652 33.8376 31.9465C34.0661 32.0332 34.2714 32.1594 34.4525 32.3247C34.6369 32.493 34.7858 32.7025 34.9014 32.9486C35.0231 33.2082 35.0793 33.5142 35.0793 33.8586C35.0793 34.2383 35.0125 34.5699 34.8651 34.8412C34.7331 35.0965 34.56 35.3098 34.3449 35.4769L34.3441 35.4777C34.1414 35.6334 33.9156 35.75 33.6678 35.8274C33.5446 35.8659 33.4237 35.8986 33.3053 35.9251L35.5073 39.5572H34.2189L32.1264 36.0263H31.1676V39.5572H30.0474V31.6909ZM33.2306 34.8484L33.2317 34.848C33.4437 34.7645 33.5928 34.6673 33.6914 34.5634C33.797 34.4519 33.8612 34.3384 33.8928 34.223L33.894 34.2186L33.8953 34.2143C33.9395 34.0756 33.959 33.9576 33.959 33.8586C33.959 33.7596 33.9395 33.6417 33.8953 33.5028L33.894 33.4986L33.8928 33.4943C33.8612 33.3787 33.797 33.2653 33.6914 33.1539C33.5928 33.05 33.4437 32.9528 33.2317 32.8693L33.2306 32.8689L33.2296 32.8685C33.0402 32.7916 32.7762 32.7475 32.4266 32.7475H31.1676V34.9697H32.4266C32.7762 34.9697 33.0402 34.9257 33.2296 34.8488L33.2306 34.8484Z" fill="#0053F1" stroke="#0053F1" stroke-width="0.2"/>
<path d="M35.4482 31.6909V32.7475H37.9929V39.5572H39.1132V32.7475H41.6578V31.6909H35.4482Z" fill="#0053F1" stroke="#0053F1" stroke-width="0.2"/>
<path d="M42.3799 31.6909H43.5002V39.5572H42.3799V31.6909Z" fill="#0053F1" stroke="#0053F1" stroke-width="0.2"/>
<path d="M52.5151 31.6909H53.6354V38.5007H57.1054V39.5572H52.5151V31.6909Z" fill="#0053F1" stroke="#0053F1" stroke-width="0.2"/>
<path d="M62.7518 31.6909H57.7725V39.5572H62.92V38.5007H58.8927V36.0263H62.5099V34.9697H58.8927V32.7475H62.7518V31.6909Z" fill="#0053F1" stroke="#0053F1" stroke-width="0.2"/>
<path fill-rule="evenodd" clip-rule="evenodd" d="M0.065918 36.0154L36.0367 0.065918L40.0154 4.04225L43.9941 0.065918L79.9648 36.0154L43.9941 71.9649L40.0154 67.9885L36.0367 71.9649L0.065918 36.0154ZM39.2116 4.84558L8.02329 36.0154L39.2116 67.1852L36.0367 70.3582L1.67355 36.0154L36.0367 1.6726L39.2116 4.84558ZM40.0154 5.64893L70.3998 36.0154L40.0154 66.3818L9.63093 36.0154L40.0154 5.64893ZM40.8193 4.84558L72.0075 36.0154L40.8193 67.1852L43.9941 70.3582L78.3572 36.0154L43.9941 1.6726L40.8193 4.84558Z" fill="#0053F1" stroke="#0053F1" stroke-width="0.2"/>
</g>
<defs>
<clipPath id="clip0">
<rect width="80" height="72" fill="white"/>
</clipPath>
</defs>
</svg>
