<svg width="116" height="23" viewBox="0 0 116 23" fill="none" xmlns="http://www.w3.org/2000/svg">
<path d="M26.9008 8.65622C28.7537 8.65622 30.1657 8.9524 31.1363 9.54496C32.107 10.1375 32.5924 11.2216 32.5924 12.7973C32.5924 13.6293 32.4568 14.3226 32.1858 14.8773C31.9148 15.432 31.5146 15.8575 30.9851 16.1537C30.4556 16.4499 29.8662 16.6548 29.2171 16.7682C28.5679 16.8816 27.7958 16.9384 26.9008 16.9384H24.5371V22.3654H22.6084V8.65622H26.9008ZM24.5371 10.2824V15.2556H27.052C27.5058 15.2556 27.8871 15.2428 28.196 15.2177C28.5048 15.1925 28.8264 15.1326 29.1604 15.0381C29.4944 14.9436 29.7592 14.8112 29.9546 14.641C30.1499 14.4708 30.3106 14.2312 30.4367 13.9224C30.5629 13.6136 30.6258 13.2384 30.6258 12.7973C30.6258 12.3686 30.5629 11.9968 30.4367 11.6816C30.3106 11.3665 30.1499 11.1207 29.9546 10.9441C29.7592 10.7677 29.4976 10.629 29.1698 10.5282C28.8421 10.4273 28.5206 10.3611 28.2055 10.3297C27.8903 10.2981 27.5058 10.2824 27.052 10.2824H24.5371ZM39.2483 13.9886C38.7692 13.9381 38.4478 13.913 38.2839 13.913C37.4771 13.913 36.8784 14.1588 36.4875 14.6505C36.0968 15.1421 35.9013 15.9362 35.9013 17.0329V22.3654H34.1808V12.1922H35.8635V13.9697C36.393 12.7847 37.3512 12.1733 38.7378 12.1355C38.9521 12.1355 39.1222 12.1417 39.2483 12.1544V13.9886ZM48.3436 13.3835C49.3143 14.2911 49.7997 15.6022 49.7997 17.3166C49.7997 19.031 49.3143 20.3421 48.3436 21.2497C47.3729 22.1573 46.2322 22.6111 44.9211 22.6111C43.6102 22.6111 42.4692 22.1573 41.4986 21.2497C40.5279 20.3421 40.0426 19.031 40.0426 17.3166C40.0426 15.6022 40.5279 14.2911 41.4986 13.3835C42.4692 12.4757 43.6102 12.022 44.9211 12.022C46.2322 12.022 47.3729 12.4757 48.3436 13.3835ZM44.9211 21.0985C45.7657 21.0985 46.4843 20.7738 47.0766 20.1246C47.6692 19.4753 47.9654 18.5393 47.9654 17.3166C47.9654 16.056 47.6723 15.1105 47.0861 14.4803C46.4999 13.8498 45.7783 13.5347 44.9211 13.5347C44.0513 13.5347 43.3264 13.8404 42.7465 14.4519C42.1667 15.0633 41.8767 16.0182 41.8767 17.3166C41.8767 18.5772 42.1697 19.5227 42.7559 20.1529C43.3422 20.7833 44.0639 21.0985 44.9211 21.0985ZM53.5814 22.3654H51.8608V12.1922H53.5814V13.7238C54.2748 12.5893 55.2959 12.022 56.6448 12.022C58.1071 12.022 59.084 12.6208 59.5757 13.8185C60.3573 12.6208 61.4981 12.022 62.998 12.022C65.1915 12.022 66.2885 13.3268 66.2885 15.9362V22.3654H64.5674V16.4468C64.5674 15.5266 64.4194 14.808 64.1234 14.2911C63.8274 13.7742 63.2502 13.5159 62.393 13.5159C61.6369 13.5159 61.038 13.8025 60.5967 14.3762C60.1556 14.9497 59.9349 15.7724 59.9349 16.8438V22.3654H58.2142V16.4468C58.2142 15.5266 58.0661 14.808 57.7697 14.2911C57.4737 13.7742 56.8969 13.5159 56.0397 13.5159C55.2833 13.5159 54.6845 13.8025 54.2432 14.3762C53.8021 14.9497 53.5814 15.7724 53.5814 16.8438V22.3654ZM70.0132 17.8461C70.0514 18.8798 70.3789 19.6804 70.9968 20.2474C71.6147 20.8147 72.3331 21.0985 73.1526 21.0985C74.5142 21.0985 75.4405 20.5374 75.9319 19.4155H77.7092C77.4576 20.3483 76.9309 21.1142 76.1305 21.713C75.3301 22.3117 74.3372 22.6111 73.1526 22.6111C71.5894 22.6111 70.3665 22.1133 69.4841 21.1173C68.6016 20.1215 68.1607 18.8482 68.1607 17.2977C68.1607 15.7219 68.63 14.4487 69.5692 13.478C70.5084 12.5074 71.6837 12.022 73.0959 12.022C74.6209 12.022 75.8216 12.583 76.6978 13.7049C77.5741 14.8269 77.9552 16.2073 77.8418 17.8461H70.0132ZM70.0323 16.371H76.0263C76.0016 15.6022 75.7241 14.9309 75.1944 14.3574C74.6653 13.7836 73.9654 13.4969 73.0959 13.4969C72.2634 13.4969 71.5641 13.7333 70.9968 14.2061C70.4294 14.6788 70.1081 15.4004 70.0323 16.371ZM80.338 9.63949H82.0585V12.1922H83.9875V13.5725H82.0585V19.6046C82.0585 20.1593 82.1183 20.5185 82.238 20.6824C82.3582 20.8464 82.6511 20.9281 83.1173 20.9281H83.9875V22.3654H82.7393C81.7564 22.3654 81.1101 22.2014 80.8011 21.8737C80.4922 21.546 80.338 20.8589 80.338 19.8127V13.5725H78.7304V12.1922H80.338V9.63949ZM87.0504 17.8461C87.0887 18.8798 87.4161 19.6804 88.034 20.2474C88.6519 20.8147 89.3703 21.0985 90.1899 21.0985C91.5509 21.0985 92.4777 20.5374 92.9692 19.4155H94.7464C94.4942 20.3483 93.9682 21.1142 93.1678 21.713C92.3673 22.3117 91.3745 22.6111 90.1899 22.6111C88.6266 22.6111 87.4038 22.1133 86.5213 21.1173C85.6389 20.1215 85.1974 18.8482 85.1974 17.2977C85.1974 15.7219 85.6673 14.4487 86.6064 13.478C87.5456 12.5074 88.721 12.022 90.1325 12.022C91.6582 12.022 92.8588 12.583 93.7351 13.7049C94.6114 14.8269 94.9925 16.2073 94.879 17.8461H87.0504ZM87.0696 16.371H93.0636C93.0383 15.6022 92.7614 14.9309 92.2317 14.3574C91.702 13.7836 91.0027 13.4969 90.1325 13.4969C89.3007 13.4969 88.6014 13.7333 88.034 14.2061C87.4667 14.6788 87.1454 15.4004 87.0696 16.371ZM103.18 20.9093C102.487 22.0439 101.422 22.6111 99.9844 22.6111C97.8162 22.6111 96.7321 21.3064 96.7321 18.697V12.1922H98.4526V18.1864C98.4526 18.6277 98.4779 19.0058 98.5285 19.321C98.579 19.6361 98.6734 19.9386 98.8121 20.2285C98.9509 20.5185 99.1686 20.7391 99.4646 20.8903C99.7606 21.0417 100.135 21.1173 100.589 21.1173C101.409 21.1173 102.046 20.8305 102.499 20.257C102.953 19.6833 103.18 18.8608 103.18 17.7894V12.1922H104.901V22.3654H103.18V20.9093ZM113.447 15.1611C113.208 14.0389 112.408 13.478 111.046 13.478C110.479 13.478 109.981 13.5852 109.553 13.7995C109.124 14.0137 108.909 14.3352 108.909 14.7639C108.909 15.4823 109.427 15.9425 110.46 16.1442L111.897 16.4279C112.402 16.5287 112.846 16.6485 113.23 16.7871C113.615 16.9257 113.977 17.1086 114.318 17.3355C114.658 17.5624 114.919 17.8523 115.103 18.2053C115.285 18.5582 115.376 18.9743 115.376 19.4534C115.376 20.424 114.985 21.193 114.204 21.7603C113.423 22.3276 112.433 22.6111 111.235 22.6111C109.975 22.6111 108.957 22.2614 108.182 21.5617C107.407 20.862 106.968 20.0332 106.868 19.0752H108.682C108.96 20.4618 109.823 21.1551 111.273 21.1551C111.942 21.1551 112.502 21.0165 112.956 20.7391C113.41 20.4618 113.637 20.0962 113.637 19.6424C113.637 18.8104 112.95 18.2494 111.576 17.9595L110.063 17.6569C108.134 17.2661 107.17 16.3271 107.17 14.8395C107.17 13.9697 107.558 13.2794 108.333 12.7689C109.108 12.2584 110.076 12.0031 111.235 12.0031C112.32 12.0031 113.217 12.2867 113.93 12.854C114.642 13.4213 115.08 14.1902 115.244 15.1611H113.447Z" fill="#0053F1"/>
<path fill-rule="evenodd" clip-rule="evenodd" d="M5.93135 22.3654H8.05597C6.1565 19.3057 4.25752 16.2454 2.36071 13.1846C2.07471 12.7223 1.99118 12.2928 2.20568 11.7456C2.30754 11.4858 2.52421 11.2389 2.7339 11.0538C2.67191 10.9699 2.61256 10.8842 2.55607 10.7963C2.25162 10.3238 2.02876 9.79938 1.89802 9.24155C-0.0423293 10.1822 -0.479119 12.0626 0.638525 13.9344L5.93135 22.3654ZM5.12239 15.6476C6.36069 15.7895 7.5101 15.7834 8.74941 15.6493C10.2466 15.4875 11.5979 15.124 12.4342 14.5744C13.3026 14.0041 13.8867 13.0969 13.8867 12.0378C13.8878 10.8124 13.1332 9.85803 12.1062 9.31111C12.0165 9.76639 11.8656 10.1955 11.6572 10.5912C11.5464 10.8017 11.4199 11.0017 11.2779 11.1901C11.5141 11.431 11.723 11.7382 11.723 12.038C11.723 12.5247 11.1642 13.0615 10.7564 13.2938C10.2854 13.5609 9.58894 13.7311 9.05066 13.7882C8.35086 13.8641 7.63941 13.8957 6.93592 13.9092C6.56234 13.9092 6.16956 13.8883 5.79602 13.8669C5.17029 13.8311 4.48748 13.7951 3.88157 13.6286L5.12239 15.6476Z" fill="#0053F1"/>
<path fill-rule="evenodd" clip-rule="evenodd" d="M6.99833 0C8.90716 3.1144 8.23753 4.97846 7.97902 6.14424C7.57757 7.955 9.8691 8.55705 10.0373 6.44651C10.0765 5.95426 10.0478 5.38156 10.0187 4.84244C12.3744 8.6194 10.8354 12.0303 6.99833 12.0304C3.77728 12.0306 1.96572 9.08628 3.24034 6.15398C3.10192 7.70568 4.19344 8.20426 4.01412 7.49595C3.96851 7.31552 3.86837 7.00558 3.80535 6.378C3.50228 3.36488 7.20985 2.59522 6.99833 0Z" fill="#0053F1"/>
</svg>
