<svg width="143" height="48" viewBox="0 0 143 48" fill="none" xmlns="http://www.w3.org/2000/svg">
<path d="M8.76365 27.3438C3.93785 27.3438 1.89171 25.6818 1.62147 25.6818C1.46704 25.6818 0.887947 26.4337 0.463276 26.9877H0.115819L0 19.6274H0.386064C1.27401 22.2391 3.32015 24.8904 5.01883 25.761C5.86817 26.1963 7.41243 26.7898 8.72505 26.7898C12.3927 26.7898 14.9021 24.6134 14.9021 21.2498C14.9021 18.4798 13.0104 17.2531 10.6168 16.3826C8.18456 15.4724 7.37382 15.2746 5.13465 14.4436C2.58663 13.4543 0.231639 10.9217 0.231639 7.75599C0.231639 2.45343 4.43974 0 9.14972 0C13.6281 0 15.404 1.78071 15.5584 1.78071C15.7128 1.78071 16.2919 1.02886 16.678 0.474861H17.1026V7.32071H16.678C15.4426 4.03628 12.9718 0.633145 9.11111 0.633145C5.98399 0.633145 3.51318 2.493 3.51318 5.85657C3.51318 8.42871 5.28908 9.97199 7.79849 10.8821C9.80603 11.6736 11.1959 12.0297 13.1262 12.742C16.4849 13.9687 18.4539 16.343 18.4539 19.8253C18.5311 24.4551 14.4388 27.3438 8.76365 27.3438Z" fill="#0053F1"/>
<path d="M30.769 27.303C25.3255 27.303 20.8857 23.2668 20.8857 17.6476C20.8857 11.5932 25.3641 7.95264 30.8848 7.95264C37.2163 7.95264 40.6908 12.5033 40.6908 17.5289C40.6908 23.1085 36.2125 27.303 30.769 27.303ZM30.769 8.50663C26.4837 8.50663 24.7078 13.2948 24.7078 17.7268C24.7078 22.3962 26.6767 26.749 30.8848 26.749C35.0157 26.749 36.9074 21.8818 36.9074 17.5685C36.9074 13.4135 35.0157 8.50663 30.769 8.50663Z" fill="#0053F1"/>
<path d="M59.2214 27.0273H42.5435V26.6316C43.4314 26.5129 44.5896 26.1963 45.0529 25.6028C45.4003 25.2071 45.5548 23.9803 45.5548 22.8723C45.5548 21.9226 45.5934 19.4692 45.5934 17.5698C45.5934 15.4725 45.5934 14.6811 45.5934 12.6234C45.5934 11.3966 45.5934 10.1304 45.1687 9.69507C44.6668 9.1015 43.663 8.82451 42.6979 8.66622V8.27051H52.002V8.66622C51.0755 8.82451 49.0679 9.06193 49.0293 10.9218C48.9135 13.3356 48.9135 14.6811 48.9135 17.2136C48.9135 19.5879 48.9135 20.6959 48.9521 23.0702C48.9907 24.1782 49.0293 25.2071 49.3768 25.6819C49.647 26.0776 50.9597 26.4733 52.1951 26.4733C52.7355 26.4733 53.971 26.3942 55.2064 26.0381C57.3683 25.4049 59.0284 22.7932 59.8005 20.8938L60.148 20.9729L59.2214 27.0273Z" fill="#0053F1"/>
<path d="M60.5742 27.0273V26.6316C61.4622 26.5129 62.4659 26.2359 63.045 25.6028C63.3925 25.2071 63.3925 23.9803 63.4311 22.8723C63.4697 21.9226 63.4697 19.4692 63.4697 17.5698C63.4697 15.4725 63.4697 14.6415 63.4697 12.5442C63.4697 11.3571 63.4697 10.0116 63.0836 9.57636C62.5818 8.98279 61.578 8.74536 60.6514 8.66622V8.27051H69.5695V8.66622C68.7974 8.78494 67.6006 8.94322 67.1373 9.77422C66.7899 10.3678 66.8285 11.3571 66.8285 12.1485C66.7899 13.8896 66.7899 15.3142 66.7899 17.4511C66.7899 19.7462 66.7899 22.1205 66.7899 23.2285C66.7899 24.2573 66.7899 25.2862 67.0601 25.6423C67.5234 26.2359 68.7974 26.5525 69.5695 26.5921V26.9878L60.5742 27.0273Z" fill="#0053F1"/>
<path d="M81.4983 27.0289C78.487 27.0289 73.6612 27.0289 71.7695 27.0289V26.6332C72.6961 26.5145 73.8157 26.1979 74.2403 25.7231C74.5878 25.3274 74.7422 24.0611 74.7422 22.9531C74.7808 22.0034 74.7808 19.5104 74.7808 17.6109C74.7808 15.5137 74.7808 14.6431 74.7808 12.5854C74.7808 11.3982 74.7808 10.0528 74.3562 9.61753C73.8157 8.98439 72.8505 8.8261 71.8854 8.74696V8.35125C72.6961 8.35125 76.3251 8.31167 80.1857 8.31167C82.3863 8.31167 84.7027 8.23254 86.9419 9.18225C89.8759 10.4485 92.3468 12.9415 92.3468 17.4131C92.3468 25.2482 86.0539 27.0289 81.4983 27.0289ZM82.6951 9.1031C82.0002 8.94482 81.4211 8.86568 80.2243 8.86568C79.4522 8.86568 78.7573 8.94482 78.2554 9.06353C78.101 10.7255 78.0624 11.8731 78.0624 17.7692C78.0624 19.9457 78.0624 21.8451 78.101 22.9531C78.1396 23.9028 78.2168 25.1295 78.6801 25.6439C79.4908 26.5145 80.456 26.4749 80.9579 26.4749C81.6914 26.4749 82.6179 26.3562 83.2742 26.1188C86.7874 25.0504 88.5247 21.8847 88.5247 17.4131C88.5633 13.5747 86.1311 9.69667 82.6951 9.1031Z" fill="#0053F1"/>
<path d="M94.5474 27.0273V26.6316C95.4353 26.5129 96.4391 26.2359 97.0182 25.6028C97.3656 25.2071 97.3656 23.9803 97.4042 22.8723C97.4428 21.9226 97.4428 19.4692 97.4428 17.5698C97.4428 15.4725 97.4428 14.6415 97.4428 12.5442C97.4428 11.3571 97.4428 10.0116 97.0568 9.57636C96.5549 8.98279 95.5511 8.74536 94.6246 8.66622V8.27051H103.543V8.66622C102.771 8.78494 101.574 8.94322 101.11 9.77422C100.763 10.3678 100.802 11.3571 100.802 12.1485C100.763 13.8896 100.763 15.3142 100.763 17.4511C100.763 19.7462 100.763 22.1205 100.763 23.2285C100.763 24.2573 100.763 25.2862 101.033 25.6423C101.497 26.2359 102.771 26.5525 103.543 26.5921V26.9878L94.5474 27.0273Z" fill="#0053F1"/>
<path d="M124.237 13.8893C123.658 12.6231 122.268 10.6445 121.728 10.1301C120.994 9.45735 120.183 9.29906 118.793 9.25949C117.404 9.21992 117.828 9.21992 116.284 9.21992C116.245 11.0006 116.207 14.7203 116.207 16.8176C116.207 19.1128 116.207 22.041 116.207 23.1886C116.207 24.1383 116.245 25.2068 116.516 25.5629C117.018 26.3148 118.407 26.5126 119.218 26.6313V27.027H109.875V26.6313C110.802 26.5126 111.651 26.3939 112.501 25.5233C112.848 25.1276 112.848 23.9009 112.887 22.7929C112.925 21.8432 112.925 18.8358 112.925 16.9363C112.925 14.8391 112.887 11.2776 112.887 9.18035C111.381 9.18035 111.729 9.18035 110.377 9.21992C109.026 9.25949 108.254 9.49692 107.52 10.1696C106.98 10.6841 105.551 12.6231 105.011 13.8893L104.702 13.8102L105.667 7.91406C106.401 8.15149 107.096 8.62635 108.37 8.62635C110.841 8.62635 116.554 8.62635 121.071 8.62635C122.423 8.62635 122.924 8.23063 123.735 7.91406L124.7 13.8102L124.237 13.8893Z" fill="#0053F1"/>
<path d="M138.906 11.9506C138.366 12.7816 136.397 15.7891 134.852 18.3216C134.852 20.6168 134.852 22.0809 134.852 23.1889C134.852 24.1386 134.891 25.207 135.161 25.5632C135.702 26.315 136.899 26.5129 137.671 26.6316V27.0273H128.521V26.6316C129.447 26.5129 130.22 26.4338 131.03 25.5632C131.416 25.207 131.416 23.9012 131.455 22.7932C131.455 21.8435 131.494 20.775 131.494 18.9152C130.876 17.8468 128.328 13.6126 127.286 12.1485C125.741 9.89292 124.892 8.78492 123.348 8.74535V8.34963H132.266V8.74535C131.223 8.86406 129.949 8.98278 129.949 9.7742C129.949 10.2095 130.567 11.1988 131.146 12.1485C131.88 13.3752 133.347 15.7495 134.582 17.6093C135.007 16.9762 136.358 14.6811 137.786 12.1881C138.095 11.6736 138.674 10.6052 138.674 10.0116C138.674 8.90363 137.4 8.86406 136.435 8.70577V8.31006H142.998V8.70577C140.991 9.02234 140.219 10.0512 138.906 11.9506Z" fill="#0053F1"/>
<path d="M35.8647 38.7405C35.7489 38.8592 35.5172 39.1758 35.0926 40.2047C34.359 41.9458 33.3553 44.5971 32.6218 46.6152L32.0041 48.0002H31.811C30.6528 44.9928 29.8035 42.7768 28.9541 40.5212C28.6839 39.8485 28.5681 39.5715 28.3364 39.0967C28.2206 38.8988 27.9504 38.3448 27.1396 38.3448V38.1865H31.1161V38.3052C30.9617 38.3448 30.0737 38.424 30.0737 39.0175C30.0737 39.4924 32.0041 44.3992 32.5832 45.9821C32.7376 45.5864 33.6255 43.3704 34.5521 40.7587C34.8995 39.7694 34.9767 39.2945 34.9767 39.0967C34.9767 38.5822 34.166 38.3844 33.7413 38.3448V38.2261H36.8299V38.3844C36.2894 38.3448 35.9033 38.6614 35.8647 38.7405Z" fill="#0053F1"/>
<path d="M46.0195 47.8419H40.1514V47.7232C40.4602 47.6836 40.8463 47.5649 41.0007 47.367C41.1165 47.2087 41.1551 46.7735 41.1551 46.3777C41.1937 46.0216 41.1937 45.151 41.1937 44.4783C41.1937 43.7265 41.1937 43.4099 41.1937 42.658C41.1937 42.2227 41.1937 41.6687 41.0393 41.5105C40.8463 41.3126 40.576 41.3126 40.2672 41.2335V41.1147H45.5563L46.1354 42.8559L46.0195 42.935C45.5177 42.3019 44.9386 41.7083 44.5525 41.5105C44.3595 41.4313 43.8576 41.3126 43.0855 41.3126C42.8538 41.3126 42.5836 41.3522 42.5064 41.3522C42.4678 41.5105 42.4291 41.55 42.4291 42.0249C42.3905 42.8955 42.3905 44.043 42.3905 44.3596C42.5064 44.3596 43.0855 44.32 43.3557 44.2805C44.1278 44.1222 44.3595 43.6473 44.4753 42.9746H44.5911V46.0216H44.4753C44.3981 45.6259 44.0892 45.1115 43.8962 44.874C43.7032 44.7157 43.4329 44.597 43.0469 44.5575C42.8538 44.5179 42.6994 44.5179 42.3905 44.5179C42.3905 45.5467 42.4291 46.1403 42.4291 46.536C42.4678 46.9317 42.4678 47.3274 42.5836 47.4857C42.6994 47.644 43.0855 47.7232 43.5873 47.7232C43.7804 47.7232 44.0506 47.7232 44.3595 47.644C45.1316 47.5253 45.7493 46.8922 46.367 45.8237L46.4828 45.8633L46.0195 47.8419Z" fill="#0053F1"/>
<path d="M57.7942 41.7861C57.717 41.9839 57.717 42.5379 57.6784 43.0919C57.6398 43.6459 57.6398 44.3582 57.6398 45.1892C57.6398 45.9015 57.6398 47.0491 57.6398 47.7613C57.6398 47.8009 57.5625 47.88 57.4853 47.88C57.4081 47.88 57.3309 47.8405 57.2537 47.7613C55.1689 45.2683 54.088 44.0021 52.4665 42.0631C52.4665 43.5668 52.4665 43.9229 52.4665 45.7432C52.4665 46.3763 52.5051 46.9303 52.6209 47.1678C52.7367 47.4448 53.1228 47.603 53.6247 47.6426V47.7613H51.1153V47.6426C51.3855 47.603 51.8102 47.5239 52.0032 47.2073C52.1576 46.9303 52.1962 46.4159 52.2349 45.7036C52.2735 45.1496 52.2735 44.4769 52.2735 43.6459C52.2735 42.9336 52.2735 42.5379 52.2349 42.1818C52.1576 41.4299 51.4627 41.1529 51.0767 41.1133V40.9946H53.2L57.4467 45.9806C57.4467 44.4769 57.4467 44.8726 57.4467 43.0523C57.4467 42.5379 57.4467 42.0631 57.3695 41.8256C57.2537 41.4695 56.8676 41.2321 56.2885 41.1925V41.0738H58.7979V41.1925C58.3347 41.2716 57.9486 41.4299 57.7942 41.7861Z" fill="#0053F1"/>
<path d="M70.1469 43.0934C69.9539 42.6186 69.452 41.9063 69.259 41.7084C68.9887 41.471 68.7185 41.3919 68.2166 41.3919C67.7147 41.3523 67.8692 41.3523 67.3287 41.3523C67.2901 41.9854 67.2901 43.3704 67.2901 44.1223C67.2901 44.9533 67.2901 46.0217 67.2901 46.4174C67.2901 46.7736 67.3287 47.1693 67.4059 47.288C67.5989 47.565 68.1008 47.6441 68.3324 47.6837V47.8024H65.0123V47.6441C65.3597 47.6046 65.63 47.565 65.9388 47.2484C66.0547 47.1297 66.0547 46.6549 66.0547 46.2592C66.0933 45.903 66.0933 44.8346 66.0933 44.1223C66.0933 43.3704 66.0547 42.0646 66.0547 41.3127C65.5142 41.3127 65.63 41.3127 65.1667 41.3523C64.7034 41.3919 64.4332 41.471 64.1629 41.7084C63.9699 41.9063 63.468 42.579 63.275 43.0539L63.1592 43.0143L63.5066 40.8774C63.7769 40.9566 64.0085 41.1149 64.4332 41.1149C65.2825 41.1149 67.3287 41.1149 68.9115 41.1149C69.3748 41.1149 69.5678 40.9566 69.8381 40.8774L70.1855 43.0143H70.1469V43.0934Z" fill="#0053F1"/>
<path d="M81.2275 41.7855C81.1503 41.9834 81.1117 42.6165 81.1117 43.2101C81.0731 43.7641 81.0731 44.516 81.0345 45.1095C80.9959 45.7822 81.0731 47.9587 78.3707 47.9587C75.8226 47.9587 75.7068 45.9405 75.7068 45.4657C75.7068 45.1095 75.7068 44.516 75.7068 43.8432C75.7068 43.0914 75.7068 43.3684 75.7068 42.6165C75.7068 42.1812 75.7068 41.7064 75.591 41.5481C75.4366 41.3502 75.0891 41.2711 74.7803 41.192V41.0732H77.8688V41.192C77.4827 41.2711 76.9808 41.3502 76.9422 41.9438C76.9036 42.4582 76.9036 43.0122 76.9036 43.4475C76.9036 44.3181 76.9036 44.6742 76.9422 45.2678C76.9808 46.5737 77.6758 47.4838 78.7567 47.4838C80.6871 47.4838 80.8029 45.9405 80.8029 44.7138C80.8029 44.0411 80.8029 43.7245 80.8029 43.2101C80.8029 42.6957 80.7643 42.1417 80.7257 41.9042C80.6098 41.5481 80.2238 41.3107 79.6447 41.2711V41.1524H82.1541V41.2711C81.7294 41.2711 81.382 41.4294 81.2275 41.7855Z" fill="#0053F1"/>
<path d="M92.1923 47.8414C91.9993 47.604 92.0765 47.7227 91.6904 47.1291C91.2271 46.4169 91.0341 46.0607 90.4936 45.3484C90.262 45.0714 89.9531 44.7944 89.6829 44.7549C89.4899 44.6757 89.4126 44.6757 89.2968 44.6757C89.2968 45.4276 89.2968 46.2586 89.2968 46.4564C89.2968 46.8521 89.3354 47.0896 89.4126 47.327C89.4899 47.4853 89.8373 47.7227 90.3006 47.7227V47.8414H87.019V47.6831C87.3279 47.6436 87.714 47.5644 87.8684 47.327C88.0228 47.1687 88.0228 46.7334 88.0228 46.2981C88.0228 45.942 88.0614 45.0714 88.0614 44.3987C88.0614 43.6469 88.0614 43.3303 88.0614 42.5784C88.0614 42.1432 88.0228 41.6287 87.907 41.4704C87.714 41.2726 87.4437 41.233 87.0963 41.1934V41.0747C87.2507 41.0747 89.1038 41.0352 89.7987 41.0352C90.648 41.0352 91.2657 41.0747 91.8448 41.3122C92.4239 41.5892 92.7714 42.064 92.7714 42.8159C92.7714 43.726 92.0379 44.28 91.1885 44.557V44.5966C91.3816 44.7153 91.6132 44.9527 91.8062 45.1902C92.1537 45.665 92.5398 46.2981 92.8486 46.6939C93.3119 47.327 93.6979 47.5644 94.277 47.6436V47.7623L92.1923 47.8414ZM90.6867 41.4309C90.4164 41.2726 90.1076 41.233 89.7987 41.233C89.5671 41.233 89.4512 41.2726 89.374 41.2726C89.3354 41.4309 89.3354 41.5892 89.2968 41.9849C89.2582 42.8554 89.2582 44.0821 89.2582 44.5174C89.7215 44.5174 90.1076 44.5174 90.4936 44.3987C91.2271 44.1217 91.4974 43.5281 91.4974 42.8554C91.4974 42.2223 91.2271 41.7079 90.6867 41.4309Z" fill="#0053F1"/>
<path d="M104.469 47.8419H98.6011V47.7232C98.9099 47.6836 99.296 47.5649 99.4504 47.367C99.5662 47.2087 99.6048 46.7735 99.6048 46.3777C99.6434 46.0216 99.6435 45.151 99.6435 44.4783C99.6435 43.7265 99.6435 43.4099 99.6435 42.658C99.6435 42.2227 99.6434 41.6687 99.489 41.5105C99.296 41.3126 99.0257 41.3126 98.7169 41.2335V41.1147H104.006L104.585 42.8559L104.469 42.935C103.967 42.3019 103.388 41.7083 103.002 41.5105C102.809 41.4313 102.307 41.3126 101.535 41.3126C101.304 41.3126 101.033 41.3522 100.956 41.3522C100.917 41.5105 100.879 41.55 100.879 42.0249C100.84 42.8955 100.84 44.043 100.84 44.3596C100.956 44.3596 101.535 44.32 101.805 44.2805C102.578 44.1222 102.809 43.6473 102.925 42.9746H103.041V46.0216H102.925C102.848 45.6259 102.539 45.1115 102.346 44.874C102.153 44.7157 101.883 44.597 101.497 44.5575C101.304 44.5179 101.149 44.5179 100.84 44.5179C100.84 45.5467 100.879 46.1403 100.879 46.536C100.917 46.9317 100.917 47.3274 101.033 47.4857C101.149 47.644 101.535 47.7232 102.037 47.7232C102.23 47.7232 102.5 47.7232 102.809 47.644C103.581 47.5253 104.199 46.8922 104.817 45.8237L104.933 45.8633L104.469 47.8419Z" fill="#0053F1"/>
<path d="M112.306 47.9592C110.916 47.9592 110.337 47.4844 110.26 47.4844C110.221 47.4844 110.105 47.6822 109.989 47.8405H109.912L109.835 45.6641H109.951C110.182 46.3764 110.762 47.1678 111.186 47.4448C111.495 47.6031 111.804 47.8009 112.229 47.8009C113.155 47.8009 113.696 47.2074 113.696 46.4159C113.696 45.5849 112.962 45.3079 112.306 45.1496C111.842 45.0309 111.572 44.9518 111.186 44.8331C110.453 44.5956 109.835 43.8438 109.835 43.0128C109.835 41.7465 110.916 40.9551 112.229 40.9551C113.387 40.9551 113.85 41.4695 113.927 41.4695C113.966 41.4695 114.12 41.2321 114.236 41.0738H114.313V43.1711H114.197C113.85 42.2609 113.194 41.1529 112.19 41.1529C111.341 41.1529 110.8 41.7069 110.8 42.4588C110.8 43.0919 111.225 43.5272 111.765 43.7251C112.113 43.8438 112.499 43.9229 113.232 44.1604C114.12 44.4374 114.699 45.1101 114.699 46.0202C114.815 47.1678 113.773 47.9592 112.306 47.9592Z" fill="#0053F1"/>
<path d="M22.7786 43.6074H0.193848V43.9636H22.7786V43.6074Z" fill="#0053F1"/>
<path d="M143 43.6074H120.416V43.9636H143V43.6074Z" fill="#0053F1"/>
</svg>
