<svg width="145" height="40" viewBox="0 0 145 40" fill="none" xmlns="http://www.w3.org/2000/svg">
<path d="M131.374 26.835H130.605V30.3247L133.922 30.2766V29.6027H131.374V26.835Z" fill="#0053F1"/>
<path d="M121.042 27.5088V26.835H124.886V27.5088H123.324V30.3247H122.531V27.5088H121.042Z" fill="#0053F1"/>
<path d="M0.144043 21.8532H38.8571C39.3297 21.8853 40.2749 21.7136 40.2749 20.7701V17.6414C40.299 17.3847 40.198 16.7557 39.6021 16.2936C39.0061 15.8315 34.6118 11.9454 32.4891 10.0602C32.1767 9.79541 31.5519 9.0782 31.5519 8.3273V2.19012C31.5359 1.51623 31.8546 0.168457 33.258 0.168457H44.6004V3.34535L37.1269 3.27315C36.8866 3.25711 36.4012 3.40311 36.382 4.11551C36.3628 4.8279 36.374 6.65861 36.382 7.48494C36.3339 7.75772 36.358 8.40913 36.8386 8.83272C37.3192 9.2563 41.5245 12.9563 43.5671 14.7533C43.9035 14.994 44.5764 15.6919 44.5764 16.5583V25.0782H0.144043V21.8532Z" fill="#0053F1"/>
<path d="M47.7969 25.0782V0.168457H58.947C59.58 0.200547 60.8454 0.582416 60.8454 1.85317V14.1757C60.8776 14.7934 60.5955 16.0289 59.2113 16.0289H52.5549V12.8279C53.9568 12.8038 56.7602 12.7701 56.7602 12.8279V3.51382H51.834V25.0541L47.7969 25.0782Z" fill="#0053F1"/>
<path d="M44.793 21.7329H47.4844V25.0783H44.793V21.7329Z" fill="#0053F1"/>
<path d="M52.1704 25.0542V21.7329H63.1764L62.4314 25.0542H52.1704Z" fill="#0053F1"/>
<path d="M59.6196 39.9999L68.0303 0.0239258H72.2116L77.5464 25.054H73.5573L70.1209 5.96857L68.0303 17.1599H71.3225L71.9852 20.3849H67.6939L64.4017 39.9999H59.6196Z" fill="#0053F1"/>
<path d="M72.5962 0.0239258L73.269 3.22489H79.4449V0.0239258H72.5962Z" fill="#0053F1"/>
<path d="M79.8291 0.0239258H92.8536V11.841C92.8858 12.3545 92.6566 13.415 91.4839 13.5498C90.875 13.5979 89.5518 13.6942 89.1289 13.6942L93.6947 25.0059H89.3692L84.8034 13.5498V11.2153H88.8886V3.5137H83.8903V25.0059H79.8291V0.0239258Z" fill="#0053F1"/>
<path d="M96.1221 0.0239258H100.111V10.4692L104.629 0.0239258H109.099L100.135 18.4836V25.054L96.1221 25.0059V0.0239258Z" fill="#0053F1"/>
<path d="M93.3345 0.0239258V3.22489H95.8816V0.0239258H93.3345Z" fill="#0053F1"/>
<path d="M100.472 0.0239258V3.22489H102.803L104.293 0.0239258H100.472Z" fill="#0053F1"/>
<path d="M108.186 3.22489L109.772 0.0239258H144.952V3.34523L108.186 3.22489Z" fill="#0053F1"/>
<path d="M104.028 13.2612L101.721 17.449L105.182 25.0061L109.675 24.982L104.028 13.2612Z" fill="#0053F1"/>
<path fill-rule="evenodd" clip-rule="evenodd" d="M73.918 26.9072V30.3248H76.2489C76.9698 30.3248 77.979 29.8579 77.979 28.5679C77.979 27.2779 77.0899 26.9072 76.4411 26.9072H73.918ZM74.6869 29.6028V27.5089H76.0566C76.8737 27.5089 77.2581 27.7737 77.2581 28.5679C77.2581 29.4584 76.5853 29.6028 76.0566 29.6028H74.6869Z" fill="#0053F1"/>
<path d="M79.1807 26.835H80.0217V30.3247H79.1807V26.835Z" fill="#0053F1"/>
<path d="M83.3139 28.4234H85.1882V29.6027C85.1882 30.0119 85.02 30.3247 84.4673 30.3247H82.0403C81.7999 30.3408 81.3193 30.2188 81.3193 29.6027V27.5088C81.3193 27.2842 81.4635 26.835 82.0403 26.835H84.4673C85.1882 26.835 85.2363 27.196 85.2363 27.8699H84.4673V27.5088H82.1123V29.6027H84.4673V29.001H83.3139V28.4234Z" fill="#0053F1"/>
<path d="M86.5098 26.835H87.3267V30.3247H86.5098V26.835Z" fill="#0053F1"/>
<path d="M88.3599 26.835V27.5088H89.8498V30.3247H90.6428V27.5088H92.2049V26.835H88.3599Z" fill="#0053F1"/>
<path fill-rule="evenodd" clip-rule="evenodd" d="M92.085 30.2766L94.1035 26.835H94.8244L96.795 30.2766H95.8337L95.4012 29.6027H93.3826L92.902 30.2766H92.085ZM94.4159 27.5088L93.695 28.8807H95.1609L94.4159 27.5088Z" fill="#0053F1"/>
<path d="M97.4917 26.835H98.2607V29.6027H100.808V30.2766L97.4917 30.3247V26.835Z" fill="#0053F1"/>
<path d="M107.489 28.0866V27.6775H105.35V29.6029H107.489V29.0012H108.21V29.6992C108.225 29.8917 108.147 30.2768 107.705 30.2768H105.182C104.974 30.2687 104.557 30.142 104.557 29.6992V27.5572C104.549 27.3325 104.696 26.8833 105.35 26.8833H107.489C107.729 26.8672 108.21 26.9795 108.21 27.5572V28.0866H107.489Z" fill="#0053F1"/>
<path fill-rule="evenodd" clip-rule="evenodd" d="M108.762 30.2766L110.781 26.835H111.502L113.472 30.2766H112.511L112.078 29.6027H110.06L109.579 30.2766H108.762ZM111.093 27.5088L110.372 28.8807H111.838L111.093 27.5088Z" fill="#0053F1"/>
<path fill-rule="evenodd" clip-rule="evenodd" d="M114.265 26.8833V30.3249H114.986V28.8809H117.197C117.437 28.905 117.918 28.8424 117.918 28.3995V27.5572C117.958 27.3325 117.87 26.8833 117.197 26.8833H114.265ZM114.986 28.2311V27.5572H116.812C117.005 27.5572 117.077 27.5572 117.077 27.8941C117.077 28.1637 116.9 28.2311 116.812 28.2311H114.986Z" fill="#0053F1"/>
<path d="M119.912 26.8833V30.2768H119.191V26.8833H119.912Z" fill="#0053F1"/>
<path fill-rule="evenodd" clip-rule="evenodd" d="M125.103 30.2766L127.122 26.835H127.843L129.813 30.2766H128.852L128.419 29.6027H126.401L125.92 30.2766H125.103ZM127.434 27.5088L126.713 28.8807H128.179L127.434 27.5088Z" fill="#0053F1"/>
</svg>
