<svg width="162" height="64" viewBox="0 0 162 64" fill="none" xmlns="http://www.w3.org/2000/svg">
<path d="M112.574 0H48.2207V38.2376H112.574V0Z" fill="#0053F1"/>
<path d="M111.253 1.42139H49.5034V36.8653H111.253V1.42139Z" fill="white"/>
<path d="M110.389 2.32861H50.4702V35.9883H110.389V2.32861Z" fill="#0053F1"/>
<path d="M63.2274 24.8479C63.2186 24.8479 63.2102 24.8444 63.204 24.8382C63.1978 24.832 63.1943 24.8235 63.1943 24.8148C63.1943 24.806 63.1978 24.7976 63.204 24.7913C63.2102 24.7851 63.2186 24.7816 63.2274 24.7816L67.9677 24.7312H68.0194C68.4713 24.7559 68.907 24.9082 69.2763 25.1705C69.5703 25.4032 69.8102 25.6973 69.9796 26.0322C70.149 26.3671 70.2438 26.7349 70.2574 27.1102C70.2574 28.6251 70.8464 29.2631 71.1193 29.4791C71.1557 29.5077 71.2017 29.5211 71.2477 29.5165C71.2938 29.512 71.3363 29.4898 71.3664 29.4546C71.5775 29.2083 72.0386 28.6395 72.0961 28.2867C72.1694 27.8273 71.9065 26.9907 71.7772 26.6897C71.6479 26.3887 67.0067 12.2892 66.9435 12.102C66.9004 11.9019 66.3646 10.2818 67.1389 9.79219C67.9648 9.2637 69.2691 9.2493 69.8897 9.24066C70.4126 9.23202 74.6975 9.24066 76.0593 9.24066C76.4439 9.23576 76.8247 9.31694 77.174 9.47826C77.6279 9.69283 78.1795 10.0788 78.4166 10.7469C78.8576 11.9782 78.6852 13.0582 79.3704 13.5954C79.6694 13.8347 79.9947 14.039 80.34 14.2045C80.3538 14.2113 80.3649 14.2226 80.3716 14.2365C80.3782 14.2505 80.38 14.2662 80.3767 14.2813C80.3734 14.2964 80.3652 14.3099 80.3533 14.3197C80.3415 14.3296 80.3266 14.3351 80.3113 14.3355L75.6298 14.4003C75.6298 14.4003 74.1804 14.4378 73.6676 12.7645C73.455 12.0703 73.4421 11.4396 73.2912 10.9169C73.0772 10.1767 72.7353 9.69859 72.4567 9.96932C71.8059 10.6044 71.7786 11.0177 72.4021 12.7832C73.0255 14.5487 77.1697 27.1836 77.1697 27.1836C77.1697 27.1836 77.5547 28.1398 77.1884 28.8757C76.8221 29.6116 75.8956 29.9788 75.061 29.9788H67.429C67.3644 29.9788 66.1908 29.8348 65.6162 28.9491C65.2986 28.4545 65.1213 27.8825 65.1034 27.2945C65.0718 26.4967 64.5891 25.1546 63.2274 24.8479Z" fill="white"/>
<path d="M78.089 9.21596C78.0844 9.21596 78.0801 9.21778 78.0768 9.22102C78.0736 9.22426 78.0718 9.22866 78.0718 9.23324C78.0718 9.23782 78.0736 9.24222 78.0768 9.24546C78.0801 9.2487 78.0844 9.25052 78.089 9.25052C78.5346 9.37355 78.9406 9.61092 79.2668 9.9392C79.593 10.2675 79.8282 10.6754 79.9492 11.1226C80.4017 12.7527 85.1564 27.9251 85.1564 27.9251C85.1564 27.9251 85.6822 29.9944 87.3585 29.9944H94.4359C95.598 29.9944 96.6625 28.9547 96.6625 27.6183C96.6625 25.8413 96.6768 11.5517 96.6768 11.5517C96.6768 11.5517 96.6036 9.67966 98.6606 9.23324C98.6651 9.23324 98.6695 9.23142 98.6728 9.22818C98.676 9.22494 98.6778 9.22054 98.6778 9.21596C98.6778 9.21138 98.676 9.20698 98.6728 9.20374C98.6695 9.2005 98.6651 9.19868 98.6606 9.19868H93.722C93.722 9.19868 91.5228 9.21596 91.5228 11.52C91.5228 13.8241 91.5429 26.5656 91.4984 27.3793C91.4122 28.8985 90.9238 29.3118 90.569 28.6292C89.9829 27.5146 85.5414 12.2645 85.5313 12.2314C85.5313 12.217 84.8792 9.27644 83.0376 9.21596C81.5107 9.167 78.734 9.20444 78.089 9.21596Z" fill="white"/>
<path d="M10.1511 48.6736V45.2578C10.1514 45.2478 10.1486 45.2379 10.1432 45.2295C10.1379 45.221 10.1301 45.2143 10.1209 45.2103C9.85949 45.0966 7.92457 44.2901 5.73827 44.3233C5.72491 44.3236 5.71217 44.329 5.70258 44.3383C5.693 44.3477 5.68728 44.3603 5.68656 44.3737C5.67616 44.4457 5.69333 44.519 5.73464 44.5788C5.77594 44.6387 5.83831 44.6806 5.90921 44.6962C6.27838 44.7783 8.71175 45.3082 9.68424 48.1855C9.68424 48.1855 9.68424 48.1855 9.68424 48.1941C9.69286 48.2387 9.77186 48.6261 10.0793 48.7154C10.0867 48.7183 10.0947 48.7195 10.1026 48.7189C10.1106 48.7182 10.1183 48.7158 10.1252 48.7118C10.1321 48.7078 10.138 48.7023 10.1425 48.6957C10.147 48.6891 10.1499 48.6815 10.1511 48.6736Z" fill="#0053F1"/>
<path d="M4.33659 44.2832C3.70311 44.1709 1.92908 44.6043 0.828747 45.8183C-0.115009 46.8594 -0.215561 48.19 0.338913 49.2038C0.71383 49.8864 2.06267 51.2559 5.72565 53.5081C9.07261 55.5703 7.62322 58.3193 6.55018 58.4878C6.4525 58.5037 6.38786 58.7225 6.48267 58.7845C6.57194 58.8164 6.66669 58.8301 6.76134 58.8248C8.05416 58.7542 8.6546 58.5929 9.80233 57.4798C11.1253 56.1953 10.9328 54.5133 9.93161 53.092C8.9304 51.6706 7.14344 50.7389 5.72565 49.7799C4.30786 48.8208 1.16775 46.4678 4.30068 44.5957C4.41847 44.5338 4.44001 44.3019 4.33659 44.2832Z" fill="#0053F1"/>
<path d="M0.321546 54.0236C0.321546 54.0236 0.248287 53.4101 0.608839 53.8277C0.969391 54.2454 1.63591 57.6755 4.72431 58.4287C4.83593 58.4634 4.9503 58.4884 5.06618 58.5036C5.16961 58.4964 5.36353 58.8247 4.86364 58.8549C4.05491 58.901 1.97922 58.6101 0.34453 57.6914C0.335929 57.6864 0.328761 57.6793 0.323726 57.6707C0.318691 57.6621 0.31596 57.6524 0.315801 57.6424L0.321546 54.0236Z" fill="#0053F1"/>
<path d="M35.3601 49.2496V49.5636C35.3602 49.5754 35.356 49.5869 35.3484 49.5959C35.3407 49.6049 35.3301 49.6108 35.3184 49.6125C35.011 49.6543 33.1106 50.0575 33.1106 53.7757C33.1106 57.8194 37.318 57.5904 38.7128 56.1964C38.7253 56.1799 38.741 56.1661 38.759 56.1558C38.7769 56.1456 38.7968 56.1391 38.8174 56.1368C38.838 56.1345 38.8588 56.1364 38.8786 56.1425C38.8984 56.1485 38.9167 56.1586 38.9325 56.172C39.0546 56.2699 38.9929 56.46 38.9325 56.5752C38.8722 56.6904 37.9945 58.8303 35.1331 58.8303C32.2717 58.8303 30.5264 56.3822 30.5264 54.212C30.5264 52.0419 31.9743 49.228 35.3127 49.2007C35.3254 49.2011 35.3374 49.2064 35.3463 49.2155C35.3551 49.2247 35.3601 49.2369 35.3601 49.2496Z" fill="#0053F1"/>
<path d="M36.2347 49.2066C36.5335 49.2426 38.8778 49.5796 38.8807 51.0916C38.8766 51.4373 38.7398 51.7682 38.4986 52.0154C38.2575 52.2625 37.9305 52.407 37.5859 52.4186C37.2412 52.4303 36.9053 52.3084 36.648 52.0781C36.3907 51.8478 36.2319 51.527 36.2046 51.1823C36.2046 51.0671 36.0408 50.3529 36.8912 49.8733C36.8944 49.8718 36.8972 49.8695 36.8993 49.8667C36.9015 49.8639 36.903 49.8606 36.9037 49.8571C36.9044 49.8536 36.9043 49.85 36.9033 49.8466C36.9024 49.8432 36.9007 49.84 36.8984 49.8373C36.734 49.677 36.5214 49.5758 36.2936 49.5493C36.2887 49.5488 36.2841 49.5467 36.2805 49.5433C36.2768 49.5399 36.2744 49.5355 36.2735 49.5306L36.2103 49.2325C36.2099 49.2291 36.2102 49.2257 36.2112 49.2225C36.2123 49.2192 36.2141 49.2162 36.2164 49.2138C36.2187 49.2113 36.2216 49.2094 36.2248 49.2081C36.2279 49.2069 36.2313 49.2064 36.2347 49.2066Z" fill="#0053F1"/>
<path d="M43.4889 43.6435C43.4894 43.6379 43.4885 43.6322 43.4863 43.627C43.4841 43.6218 43.4806 43.6172 43.4762 43.6136C43.4718 43.6101 43.4666 43.6076 43.4611 43.6066C43.4555 43.6055 43.4498 43.6058 43.4444 43.6075L40.1032 44.3203C40.1032 44.3203 39.8877 44.3534 39.8877 44.4816C39.8884 44.5301 39.904 44.5772 39.9322 44.6166C39.9605 44.656 40.0001 44.6858 40.0457 44.7019C40.1578 44.7466 40.9593 45.144 40.9593 45.6956C40.9593 46.1276 40.9593 56.8948 40.9593 56.8948C40.9593 56.8948 40.9938 57.6652 40.6102 58.0468C40.498 58.1802 40.3596 58.289 40.2037 58.3665C40.0012 58.4558 40.106 58.679 40.2942 58.679H44.3163C44.3233 58.6787 44.3299 58.6756 44.3347 58.6705C44.3395 58.6654 44.3422 58.6587 44.3422 58.6517V58.4429C44.3425 58.4376 44.3411 58.4324 44.3383 58.428C44.3355 58.4236 44.3313 58.4202 44.3264 58.4184C44.1064 58.3269 43.9146 58.1784 43.7707 57.9881C43.6268 57.7978 43.536 57.5725 43.5076 57.3355C43.4329 56.6126 43.486 44.4845 43.4889 43.6435Z" fill="#0053F1"/>
<path d="M43.8854 54.6413C43.8799 54.6341 43.877 54.6252 43.877 54.6161C43.877 54.607 43.8799 54.5982 43.8854 54.5909L45.8534 52.4554C45.8534 52.4554 47.1835 51.1031 47.1835 50.3687C47.1835 49.7164 46.2972 49.6789 46.0961 49.6775C46.0908 49.6777 46.0855 49.6768 46.0805 49.6748C46.0755 49.6729 46.071 49.6699 46.0672 49.6661C46.0634 49.6624 46.0605 49.6578 46.0585 49.6528C46.0566 49.6479 46.0557 49.6425 46.0559 49.6372V49.3938C46.0557 49.3884 46.0566 49.383 46.0585 49.3779C46.0605 49.3729 46.0634 49.3683 46.0672 49.3644C46.0709 49.3605 46.0754 49.3574 46.0804 49.3553C46.0854 49.3531 46.0907 49.352 46.0961 49.3521H50.9643C50.97 49.352 50.9757 49.3532 50.9809 49.3555C50.9862 49.3578 50.9909 49.3611 50.9948 49.3653C50.9987 49.3695 51.0017 49.3744 51.0036 49.3798C51.0056 49.3852 51.0063 49.391 51.006 49.3967C51.006 49.4889 50.97 49.6919 50.8135 49.6919C50.6124 49.6919 48.2278 50.0534 45.8634 53.0717C45.8581 53.079 45.8553 53.0879 45.8553 53.0969C45.8553 53.1059 45.8581 53.1148 45.8634 53.1221L48.6315 56.9915C48.6588 57.0433 49.3684 58.3624 50.8063 58.3624C50.8063 58.3624 50.8925 58.6504 50.6971 58.6504H47.5843C47.3003 58.6294 47.0234 58.5513 46.7702 58.4206C46.517 58.29 46.2926 58.1096 46.1105 57.8901C45.3922 56.9641 44.0506 54.8962 43.8854 54.6413Z" fill="#0053F1"/>
<path d="M55.14 49.2711C55.14 49.2628 55.1381 49.2547 55.1345 49.2472C55.1309 49.2397 55.1257 49.2332 55.1192 49.228C55.1126 49.2229 55.1051 49.2193 55.097 49.2176C55.0889 49.2158 55.0805 49.2159 55.0725 49.2179L51.7902 49.9782C51.7902 49.9782 51.5819 50.0156 51.589 50.1539C51.5962 50.2921 51.7327 50.3771 51.9582 50.5269C52.1837 50.6766 52.652 51.0021 52.6606 51.5162C52.6693 52.0303 52.6606 56.9624 52.6606 56.9768C52.6606 56.9768 52.5472 58.3002 52.0099 58.3002C51.9585 58.3076 51.9116 58.3334 51.8777 58.3728C51.8439 58.4123 51.8255 58.4628 51.8261 58.5148C51.8261 58.6746 51.8591 58.6588 51.9453 58.6588H55.986C55.9898 58.6588 55.9934 58.6581 55.9968 58.6566C56.0002 58.6551 56.0033 58.653 56.0059 58.6503C56.0084 58.6476 56.0104 58.6444 56.0117 58.6409C56.013 58.6374 56.0135 58.6337 56.0133 58.63V58.437C56.0135 58.4276 56.0109 58.4183 56.0058 58.4103C56.0007 58.4024 55.9933 58.3961 55.9846 58.3924C55.841 58.3262 55.1888 57.9921 55.1888 57.3383C55.1888 56.6442 55.1457 50.0185 55.14 49.2711Z" fill="#0053F1"/>
<path d="M60.4894 49.2582C60.4891 49.2514 60.4874 49.2448 60.4843 49.2388C60.4812 49.2328 60.4768 49.2275 60.4715 49.2234C60.4661 49.2193 60.4599 49.2164 60.4533 49.2149C60.4468 49.2135 60.4399 49.2135 60.4334 49.215L57.0964 49.9696C57.0511 49.9796 57.0112 50.0064 56.9846 50.0445C56.958 50.0826 56.9467 50.1294 56.9528 50.1755C56.9787 50.3425 57.049 50.3685 57.0706 50.3843C57.0921 50.4001 57.8477 50.7544 57.921 51.2483C57.9942 51.7423 57.921 57.2418 57.921 57.2418C57.921 57.2418 57.9382 57.9921 57.309 58.3262C57.2683 58.346 57.2335 58.3763 57.2083 58.414C57.183 58.4517 57.1682 58.4954 57.1654 58.5407C57.1628 58.5625 57.1652 58.5845 57.1724 58.6052C57.1796 58.6259 57.1914 58.6446 57.2069 58.66C57.2224 58.6754 57.2412 58.6871 57.2619 58.6941C57.2826 58.7011 57.3046 58.7034 57.3263 58.7006H61.3197V58.4514C61.3197 58.4514 60.5497 58.0497 60.5497 57.2879C60.5468 56.5563 60.4937 49.9293 60.4894 49.2582Z" fill="#0053F1"/>
<path d="M61.5449 50.851C61.5162 50.8632 61.4851 50.8687 61.454 50.867C61.4228 50.8652 61.3925 50.8563 61.3654 50.8409C61.3297 50.8184 61.299 50.7891 61.2749 50.7545C61.2478 50.7081 61.2238 50.66 61.203 50.6105C61.1885 50.5781 61.1837 50.5421 61.1893 50.5071C61.1949 50.472 61.2107 50.4394 61.2346 50.4132C61.5946 50.0344 62.0267 49.7318 62.5054 49.5233C62.984 49.3148 63.4995 49.2046 64.0214 49.1992C65.8428 49.1992 66.3197 50.4852 66.3197 51.3939C66.3197 52.3025 66.3844 56.892 66.3844 56.892C66.3844 56.892 66.3657 58.0685 67.1629 58.3709C67.1919 58.386 67.2157 58.4094 67.2313 58.4381C67.2469 58.4668 67.2536 58.4996 67.2505 58.5322C67.2505 58.6589 67.1974 58.656 67.15 58.656H63.1135C63.1135 58.656 63.0245 58.656 63.0187 58.5394C63.013 58.4227 63.046 58.4083 63.0949 58.3954C63.1437 58.3824 63.8533 57.936 63.8533 57.1814C63.8533 56.4268 63.961 53.2659 63.8533 51.967C63.816 51.4731 63.0302 50.2375 61.5449 50.851Z" fill="#0053F1"/>
<path d="M109.266 49.2596C109.266 49.2527 109.264 49.246 109.261 49.2398C109.258 49.2336 109.254 49.2282 109.248 49.2239C109.243 49.2196 109.237 49.2166 109.23 49.215C109.223 49.2135 109.216 49.2135 109.21 49.215L105.867 49.9696C105.822 49.9796 105.782 50.0064 105.755 50.0445C105.729 50.0826 105.717 50.1294 105.723 50.1755C105.749 50.3425 105.82 50.3685 105.841 50.3843C105.863 50.4001 106.618 50.7544 106.691 51.2483C106.765 51.7423 106.691 57.2418 106.691 57.2418C106.691 57.2418 106.709 57.9921 106.08 58.3261C106.039 58.346 106.004 58.3763 105.979 58.414C105.954 58.4517 105.939 58.4954 105.936 58.5407C105.933 58.5625 105.936 58.5845 105.943 58.6052C105.95 58.6258 105.962 58.6446 105.977 58.66C105.993 58.6754 106.012 58.6871 106.032 58.6941C106.053 58.7011 106.075 58.7033 106.097 58.7006H110.06C110.064 58.7008 110.068 58.7002 110.071 58.6988C110.075 58.6974 110.078 58.6953 110.081 58.6927C110.084 58.69 110.086 58.6867 110.088 58.6831C110.089 58.6795 110.09 58.6757 110.09 58.6718V58.4658C110.09 58.4605 110.089 58.4553 110.086 58.4507C110.083 58.4462 110.079 58.4425 110.074 58.4399C109.967 58.3794 109.319 57.9834 109.319 57.2879C109.323 56.5563 109.271 49.9451 109.266 49.2596Z" fill="#0053F1"/>
<path d="M110.32 50.851C110.292 50.8632 110.261 50.8687 110.229 50.867C110.198 50.8652 110.168 50.8563 110.141 50.8409C110.105 50.8184 110.074 50.7891 110.05 50.7545C110.023 50.7081 109.999 50.66 109.978 50.6105C109.964 50.5782 109.959 50.5421 109.964 50.507C109.97 50.4718 109.986 50.4392 110.01 50.4132C110.37 50.0342 110.802 49.7315 111.281 49.5229C111.759 49.3144 112.275 49.2043 112.797 49.1992C114.618 49.1992 115.095 50.4852 115.095 51.3939C115.095 52.3025 115.158 56.892 115.158 56.892C115.158 56.892 115.141 58.0685 115.938 58.3709C115.967 58.386 115.991 58.4094 116.007 58.4381C116.022 58.4668 116.029 58.4996 116.026 58.5322C116.026 58.6589 115.973 58.656 115.924 58.656H111.9C111.857 58.656 111.801 58.656 111.796 58.5394C111.79 58.4227 111.823 58.4083 111.872 58.3954C111.921 58.3824 112.63 57.936 112.63 57.1814C112.63 56.4268 112.738 53.2659 112.63 51.967C112.593 51.4731 111.809 50.2375 110.32 50.851Z" fill="#0053F1"/>
<path d="M72.521 49.2021V49.5218C72.521 49.5218 71.448 49.6817 71.448 51.2657V52.9506C71.448 52.9506 71.3934 54.6513 72.521 54.8903V55.2115C72.521 55.2115 69.0376 55.0747 69.0735 52.3069C69.1094 49.4398 72.521 49.2021 72.521 49.2021Z" fill="#0053F1"/>
<path d="M73.3369 49.5218V49.2021C73.3369 49.2021 76.8031 49.2655 76.8031 52.1326C76.8031 54.9998 73.3728 55.2115 73.3728 55.2115L73.3829 54.909C73.3829 54.909 74.4918 54.7175 74.4918 52.2075C74.4918 49.6975 73.3369 49.5218 73.3369 49.5218Z" fill="#0053F1"/>
<path d="M70.8577 54.8429C70.8381 54.8302 70.8159 54.8222 70.7927 54.8194C70.7696 54.8167 70.7461 54.8193 70.7241 54.8271C70.3621 54.9596 68.7705 55.6465 68.7705 57.6021C68.7705 59.8082 72.7323 59.4957 72.9147 59.4957C73.0971 59.4957 75.519 59.3301 76.0333 60.0285C76.5274 60.7025 76.4426 61.5982 75.6483 62.3196C75.6225 62.3425 75.6051 62.3735 75.5991 62.4075C75.5931 62.4415 75.5988 62.4765 75.6152 62.5069L75.6626 62.5933C75.6727 62.6114 75.6864 62.6272 75.7028 62.6398C75.7192 62.6524 75.738 62.6615 75.7581 62.6665C75.7782 62.6715 75.7991 62.6723 75.8195 62.6689C75.8399 62.6654 75.8593 62.6578 75.8767 62.6465C76.4269 62.2753 76.8766 61.773 77.1854 61.1846C77.4943 60.5962 77.6527 59.9402 77.6464 59.2754C77.6464 56.8489 75.0694 56.8849 75.0694 56.8849H71.2024C70.8979 56.8849 70.1639 56.7582 70.1639 56.113C70.1639 55.6393 70.5948 55.2721 70.862 55.0935C70.8841 55.0809 70.9025 55.0627 70.9153 55.0407C70.9281 55.0187 70.9348 54.9937 70.9348 54.9682C70.9348 54.9427 70.9281 54.9177 70.9153 54.8957C70.9025 54.8737 70.8841 54.8555 70.862 54.8429H70.8577Z" fill="#0053F1"/>
<path d="M69.1971 59.5432L69.3508 59.6483C69.3626 59.657 69.371 59.6694 69.3747 59.6836C69.3784 59.6978 69.377 59.7128 69.3709 59.7261C69.2331 60.0353 69.1598 60.3695 69.1554 60.7082C69.1554 61.6471 70.6551 64.1758 74.7217 62.8928C74.7346 62.8885 74.7486 62.8887 74.7614 62.8934C74.7742 62.8981 74.785 62.907 74.7921 62.9187L74.8826 63.0627C74.8868 63.0695 74.8896 63.077 74.8908 63.0849C74.8921 63.0928 74.8918 63.1009 74.8899 63.1086C74.888 63.1164 74.8847 63.1237 74.88 63.1302C74.8752 63.1366 74.8693 63.1421 74.8625 63.1462C74.601 63.306 73.3614 63.9973 71.448 63.9973C69.2847 63.9973 67.9272 63.1692 67.9272 61.9927C67.9272 60.773 68.9155 59.7448 69.1195 59.5446C69.1301 59.535 69.1438 59.5296 69.158 59.5293C69.1723 59.529 69.1862 59.534 69.1971 59.5432Z" fill="#0053F1"/>
<path d="M75.8452 50.0457C75.8452 50.0457 76.6439 48.8332 78.0559 48.8332C78.1992 48.8306 78.3414 48.8571 78.4742 48.9111C78.607 48.965 78.7275 49.0453 78.8285 49.1471C78.9295 49.2489 79.009 49.3702 79.0621 49.5036C79.1152 49.637 79.1409 49.7797 79.1376 49.9233C79.1376 50.7024 78.642 51.143 78.0674 51.143C77.4928 51.143 76.7473 50.8118 76.9312 49.8628C76.9312 49.8628 76.3566 49.8945 76.0693 50.2488L75.8452 50.0457Z" fill="#0053F1"/>
<path d="M79.4434 44.6732V44.5508C79.4434 44.5278 79.4524 44.5059 79.4686 44.4897C79.4848 44.4735 79.5067 44.4644 79.5296 44.4644H85.8126C85.824 44.4644 85.8352 44.4666 85.8456 44.4709C85.8561 44.4753 85.8656 44.4816 85.8736 44.4897C85.8816 44.4977 85.8879 44.5072 85.8923 44.5177C85.8966 44.5282 85.8988 44.5394 85.8988 44.5508V44.6847C85.8989 44.7047 85.8921 44.724 85.8795 44.7395C85.8669 44.755 85.8494 44.7657 85.8299 44.7696C85.6331 44.8085 85.0729 44.9655 84.9077 45.5242C84.7066 46.2039 85.037 47.0492 85.1648 47.4913C85.2926 47.9334 88.0708 54.657 88.2877 55.1797C88.292 55.19 88.2942 55.201 88.2942 55.2121C88.2942 55.2233 88.292 55.2343 88.2877 55.2445L86.9431 58.5667C86.9431 58.5667 86.7047 58.9527 86.5122 58.512C86.3197 58.0714 81.1973 45.9836 81.1973 45.9836C81.1973 45.9836 80.8094 44.8085 79.5209 44.7596C79.4996 44.7574 79.4798 44.7474 79.4655 44.7314C79.4511 44.7154 79.4433 44.6947 79.4434 44.6732Z" fill="#0053F1"/>
<path d="M88.7402 44.6645V44.5349C88.7402 44.5162 88.7476 44.4983 88.7608 44.485C88.774 44.4718 88.792 44.4644 88.8106 44.4644H94.3755C94.3941 44.4644 94.412 44.4718 94.4252 44.485C94.4384 44.4983 94.4459 44.5162 94.4459 44.5349V44.666C94.4459 44.684 94.4391 44.7013 94.4268 44.7144C94.4145 44.7275 94.3977 44.7354 94.3798 44.7365C93.9788 44.7814 93.5932 44.917 93.252 45.133C92.9109 45.3491 92.6231 45.6399 92.4104 45.9836C91.6563 47.1241 90.9739 48.3352 90.668 49.385C90.668 49.385 90.5832 49.6615 90.3993 49.6111C90.2672 49.5751 90.316 49.3692 90.3433 49.2684C90.3706 49.1676 90.7599 47.7851 90.7599 46.9211C90.7599 46.057 90.3146 44.7725 88.8121 44.7336C88.8028 44.734 88.7935 44.7325 88.7848 44.7292C88.7761 44.7259 88.7681 44.7209 88.7614 44.7144C88.7547 44.708 88.7494 44.7002 88.7457 44.6917C88.7421 44.6831 88.7402 44.6738 88.7402 44.6645Z" fill="#0053F1"/>
<path d="M99.8543 49.4902V49.2756C99.8542 49.2663 99.8521 49.257 99.8481 49.2486C99.8442 49.2401 99.8385 49.2325 99.8314 49.2264C99.8244 49.2203 99.8161 49.2157 99.8072 49.213C99.7982 49.2103 99.7888 49.2096 99.7796 49.2108C99.2208 49.2943 95.6914 49.974 95.6914 53.8334C95.6914 58.0253 98.9953 58.8102 100.11 58.8735C101.834 58.9657 103.826 58.0095 104.254 56.244C104.276 56.1605 104.132 55.9934 103.925 56.1461C103.925 56.1461 103.256 57.2276 101.348 57.2276C99.4679 57.2276 98.3015 55.4865 98.2684 53.95C98.268 53.9411 98.2695 53.9323 98.2726 53.924C98.2758 53.9157 98.2806 53.9081 98.2868 53.9018C98.293 53.8954 98.3004 53.8904 98.3086 53.8871C98.3168 53.8837 98.3256 53.8821 98.3345 53.8823H104.587C104.604 53.8823 104.62 53.8759 104.632 53.8644C104.644 53.8528 104.651 53.8371 104.652 53.8204C104.674 53.2689 104.695 49.2454 100.749 49.2036C100.733 49.2036 100.717 49.2097 100.704 49.2209C100.692 49.2321 100.685 49.2475 100.683 49.2641L100.666 49.4513C100.664 49.466 100.668 49.4809 100.676 49.4932C100.684 49.5056 100.696 49.5147 100.71 49.519C100.972 49.5996 102.176 50.1483 102.191 53.4662C102.191 53.4837 102.184 53.5006 102.172 53.513C102.16 53.5254 102.143 53.5324 102.125 53.5324H98.323C98.3144 53.5324 98.3059 53.5307 98.2979 53.5273C98.29 53.524 98.2828 53.5191 98.2768 53.5129C98.2708 53.5067 98.266 53.4994 98.2629 53.4914C98.2597 53.4834 98.2582 53.4748 98.2584 53.4662C98.2584 53.0025 98.3402 50.2304 99.8155 49.5521C99.8272 49.5466 99.8371 49.5378 99.8439 49.5268C99.8508 49.5159 99.8544 49.5031 99.8543 49.4902Z" fill="#0053F1"/>
<path d="M15.7048 46.2254L13.2628 46.5638C13.2544 46.5651 13.2467 46.5692 13.241 46.5755C13.2352 46.5818 13.2318 46.5898 13.2312 46.5983V49.3604H12.2472C12.2417 49.3604 12.2361 49.3615 12.231 49.3637C12.2258 49.3659 12.2212 49.3691 12.2173 49.3731C12.2134 49.3771 12.2103 49.3819 12.2083 49.3871C12.2063 49.3924 12.2054 49.398 12.2056 49.4036V49.6253C12.2056 49.633 12.2086 49.6403 12.214 49.6457C12.2194 49.6511 12.2267 49.6541 12.2343 49.6541H13.2556L13.3045 56.3705C13.3045 56.3705 13.1335 58.8532 15.6028 58.8532C18.0721 58.8532 18.8737 56.9494 18.6625 56.8141C18.4513 56.6787 18.3422 56.8789 18.3048 56.9336C18.1627 57.0974 17.9856 57.2272 17.7867 57.3132C17.5877 57.3992 17.3721 57.4392 17.1556 57.4304C16.423 57.4304 15.7723 56.9523 15.7723 55.95V49.6412L18.0922 49.6325C18.1063 49.6325 18.1198 49.6269 18.1298 49.6169C18.1398 49.6069 18.1454 49.5934 18.1454 49.5792V49.3863C18.1454 49.376 18.1413 49.3661 18.134 49.3588C18.1267 49.3515 18.1169 49.3474 18.1066 49.3474L15.7695 49.356V46.2801C15.7706 46.2717 15.7695 46.2632 15.7665 46.2553C15.7634 46.2475 15.7585 46.2405 15.752 46.235C15.7456 46.2296 15.7379 46.2259 15.7297 46.2242C15.7214 46.2225 15.7129 46.2229 15.7048 46.2254Z" fill="#0053F1"/>
<path d="M120.219 46.2253L117.767 46.5652C117.757 46.5659 117.748 46.5704 117.742 46.5777C117.735 46.5849 117.732 46.5944 117.732 46.6041V49.3214C117.732 49.3267 117.731 49.3319 117.73 49.3368C117.728 49.3417 117.725 49.3461 117.721 49.3499C117.718 49.3536 117.713 49.3566 117.709 49.3587C117.704 49.3607 117.699 49.3618 117.693 49.3618H116.745C116.735 49.3618 116.725 49.3658 116.717 49.3731C116.71 49.3803 116.705 49.3902 116.705 49.4006V49.6167C116.705 49.6271 116.71 49.637 116.717 49.6442C116.725 49.6515 116.735 49.6555 116.745 49.6555H117.718C117.728 49.6555 117.738 49.6596 117.746 49.6668C117.753 49.6741 117.758 49.684 117.758 49.6944L117.805 56.3719C117.805 56.3719 117.634 58.8546 120.104 58.8546C122.573 58.8546 123.356 56.9451 123.163 56.8155C122.971 56.6858 122.843 56.8803 122.806 56.935C122.664 57.0988 122.487 57.2286 122.288 57.3146C122.089 57.4006 121.873 57.4406 121.657 57.4318C120.924 57.4318 120.273 56.9537 120.273 55.9514V49.6815C120.273 49.671 120.277 49.661 120.285 49.6534C120.292 49.6459 120.302 49.6415 120.312 49.6411L122.61 49.6325C122.621 49.6321 122.631 49.6277 122.638 49.6202C122.645 49.6127 122.649 49.6026 122.649 49.5922L122.642 49.3863C122.642 49.3759 122.638 49.366 122.631 49.3588C122.623 49.3515 122.613 49.3474 122.603 49.3474L120.305 49.356C120.3 49.3562 120.294 49.3553 120.29 49.3535C120.285 49.3516 120.28 49.3488 120.277 49.3451C120.273 49.3415 120.27 49.3372 120.268 49.3323C120.266 49.3275 120.265 49.3224 120.265 49.3171V46.2685C120.265 46.2624 120.265 46.2562 120.263 46.2504C120.261 46.2446 120.257 46.2393 120.253 46.2351C120.248 46.2309 120.243 46.2278 120.237 46.2261C120.231 46.2244 120.225 46.2241 120.219 46.2253Z" fill="#0053F1"/>
<path d="M127.489 49.2076L123.934 49.5821C123.923 49.5835 123.913 49.5888 123.906 49.597C123.899 49.6052 123.895 49.6158 123.895 49.6267V49.9233C123.895 49.9299 123.896 49.9363 123.899 49.9423C123.902 49.9482 123.906 49.9535 123.91 49.9578C123.915 49.962 123.921 49.9651 123.927 49.9669C123.934 49.9687 123.94 49.969 123.947 49.968C124.165 49.9277 124.995 49.8456 124.995 50.9098V56.4496C124.995 56.4496 124.898 58.8588 127.343 58.8588C127.921 58.8706 128.495 58.7546 129.024 58.5189C129.553 58.2832 130.023 57.9336 130.402 57.4951C130.422 57.4699 130.432 57.439 130.432 57.4073C130.432 57.3755 130.422 57.3446 130.402 57.3194L130.306 57.1956C130.286 57.1694 130.256 57.152 130.223 57.1469C130.19 57.1418 130.157 57.1494 130.129 57.1682C129.986 57.2705 129.642 57.4274 128.93 57.3929C127.891 57.3439 127.524 56.536 127.524 55.7267C127.524 54.9621 127.535 49.811 127.536 49.2465C127.535 49.2352 127.529 49.2248 127.52 49.2176C127.512 49.2104 127.5 49.2068 127.489 49.2076Z" fill="#0053F1"/>
<path d="M133.476 49.2048L130.028 49.5475C130.022 49.5482 130.017 49.5511 130.013 49.5556C130.009 49.5601 130.007 49.5659 130.007 49.572V49.8686C130.007 49.8749 130.009 49.8809 130.013 49.8854C130.018 49.89 130.024 49.8927 130.03 49.8931C130.173 49.8931 130.948 49.9507 130.948 50.6275V58.3865C130.948 58.3865 130.912 58.9395 131.462 58.8588C132.012 58.7782 134.53 58.3491 134.542 58.1388C134.553 57.9286 134.31 57.9185 134.188 57.907C134.066 57.8954 133.503 57.9674 133.503 57.2575V49.2292C133.503 49.2258 133.502 49.2223 133.501 49.2192C133.5 49.216 133.498 49.2131 133.495 49.2108C133.492 49.2085 133.489 49.2068 133.486 49.2057C133.483 49.2047 133.479 49.2044 133.476 49.2048Z" fill="#0053F1"/>
<path d="M138.699 49.2369C138.699 49.2328 138.698 49.2287 138.697 49.225C138.695 49.2213 138.692 49.218 138.689 49.2155C138.686 49.2129 138.682 49.2112 138.678 49.2104C138.674 49.2097 138.67 49.2098 138.666 49.211L135.398 49.931C135.398 49.931 135.154 49.9613 135.154 50.1312C135.154 50.3011 135.277 50.3601 135.351 50.4192C135.424 50.4782 136.154 50.8512 136.154 51.4272V56.9239C136.154 56.9239 136.182 57.9175 135.496 58.3265C135.496 58.3265 135.352 58.4244 135.352 58.5223C135.352 58.6203 135.414 58.6663 135.506 58.6663H139.404C139.404 58.6663 139.564 58.6548 139.564 58.5223C139.559 58.4728 139.54 58.4258 139.509 58.3874C139.477 58.3491 139.435 58.3213 139.387 58.3078C139.183 58.1882 139.015 58.0172 138.898 57.8117C138.781 57.6062 138.72 57.3736 138.721 57.137C138.718 56.3954 138.7 49.7654 138.699 49.2369Z" fill="#0053F1"/>
<path d="M140.263 50.7085C139.964 50.7257 139.68 50.8446 139.457 51.0455C139.36 51.1463 139.225 51.0455 139.225 51.0455C139.225 51.0455 139.041 50.9404 139.225 50.7575C139.409 50.5746 140.429 49.208 141.621 49.208C142.813 49.208 143.241 50.0274 143.241 50.6409C143.241 51.2543 142.764 52.2033 141.823 52.2033C141.622 52.2102 141.422 52.1768 141.234 52.105C141.046 52.0332 140.875 51.9245 140.729 51.7852C140.584 51.6459 140.468 51.4789 140.388 51.294C140.308 51.1092 140.266 50.9101 140.263 50.7085Z" fill="#0053F1"/>
<path d="M148.443 49.2497V49.4225C148.443 49.4305 148.441 49.4385 148.438 49.4456C148.434 49.4527 148.428 49.4587 148.421 49.4628C148.227 49.5794 146.833 50.5169 146.817 53.446C146.817 53.4587 146.822 53.4709 146.831 53.4801C146.839 53.4892 146.851 53.4946 146.864 53.4949H150.78C150.793 53.4946 150.805 53.4892 150.814 53.4801C150.822 53.4709 150.827 53.4587 150.827 53.446C150.813 50.3326 149.503 49.5722 149.309 49.4772C149.301 49.4736 149.295 49.468 149.29 49.4608C149.286 49.4537 149.283 49.4454 149.283 49.4369V49.2497C149.283 49.2433 149.284 49.2368 149.286 49.2308C149.288 49.2248 149.292 49.2193 149.296 49.2147C149.301 49.2101 149.306 49.2064 149.312 49.204C149.318 49.2016 149.324 49.2005 149.331 49.2007C149.78 49.2007 153.218 49.3289 153.242 53.7829C153.242 53.7957 153.237 53.8079 153.228 53.8171C153.219 53.8262 153.207 53.8315 153.195 53.8319H146.874C146.868 53.8317 146.861 53.8328 146.855 53.8352C146.85 53.8376 146.844 53.8413 146.84 53.8459C146.835 53.8505 146.832 53.856 146.83 53.862C146.827 53.868 146.826 53.8744 146.827 53.8809C146.856 54.3014 147.154 57.2506 150.033 57.2506C151.668 57.2506 152.384 56.3016 152.521 56.0985C152.524 56.0934 152.529 56.0889 152.534 56.0854C152.539 56.082 152.545 56.0796 152.551 56.0784C152.557 56.0772 152.563 56.0772 152.569 56.0784C152.575 56.0796 152.581 56.0821 152.586 56.0856L152.873 56.2771C152.882 56.2828 152.89 56.2918 152.893 56.3024C152.896 56.313 152.896 56.3245 152.892 56.3347C152.755 56.6458 151.678 58.8692 148.762 58.8692C145.975 58.8692 144.214 56.7696 144.214 54.0364C144.214 51.535 146.005 49.2353 148.395 49.205C148.408 49.205 148.419 49.2096 148.428 49.2179C148.437 49.2262 148.442 49.2376 148.443 49.2497Z" fill="#0053F1"/>
<path d="M158.785 49.2063C159.127 49.2293 161.143 49.3791 161.563 49.7564C161.568 49.7607 161.572 49.766 161.575 49.7719C161.578 49.7779 161.579 49.7844 161.579 49.7909V51.9856C161.579 51.9978 161.574 52.0095 161.566 52.0182C161.557 52.0268 161.545 52.0316 161.533 52.0316H161.282C161.272 52.0318 161.263 52.0287 161.255 52.023C161.247 52.0173 161.242 52.0092 161.239 52C161.147 51.712 160.41 49.6253 158.781 49.5864C158.769 49.5864 158.758 49.5817 158.749 49.5734C158.741 49.565 158.736 49.5536 158.736 49.5418V49.2538C158.736 49.2473 158.737 49.2408 158.739 49.2347C158.742 49.2287 158.745 49.2232 158.75 49.2187C158.754 49.2141 158.76 49.2107 158.766 49.2085C158.772 49.2064 158.779 49.2056 158.785 49.2063Z" fill="#0053F1"/>
<path d="M159.23 52.8756C159.948 53.3724 161.997 54.2192 161.997 56.2381C161.997 58.4385 159.779 58.8014 159.268 58.8547C159.255 58.8562 159.242 58.8549 159.23 58.8509C159.218 58.8468 159.207 58.8402 159.198 58.8314C159.189 58.8225 159.181 58.8118 159.177 58.7999C159.172 58.788 159.17 58.7752 159.171 58.7625L159.181 58.5379C159.182 58.518 159.19 58.499 159.203 58.484C159.216 58.469 159.234 58.4591 159.253 58.4558C159.484 58.4068 159.9 58.1217 159.9 57.1943C159.9 56.1647 157.699 54.9694 157.699 54.9694C156.764 54.4553 154.894 53.407 154.894 51.8258C154.894 49.5793 157.228 49.251 157.732 49.2064C157.744 49.2054 157.756 49.2069 157.768 49.2109C157.779 49.2148 157.79 49.2211 157.799 49.2294C157.808 49.2376 157.815 49.2477 157.82 49.2588C157.824 49.27 157.827 49.282 157.827 49.2942V49.4584C157.827 49.4736 157.823 49.4886 157.816 49.5019C157.809 49.5153 157.798 49.5266 157.785 49.5347C157.568 49.6614 156.622 50.272 157.094 51.0726C157.626 51.9597 159.171 52.8497 159.23 52.8756Z" fill="#0053F1"/>
<path d="M155.159 55.396H155.398C155.414 55.3958 155.429 55.4009 155.442 55.4105C155.455 55.4202 155.464 55.4338 155.468 55.4493C155.579 55.8511 156.362 58.4187 158.189 58.4835C158.208 58.4838 158.225 58.4916 158.239 58.505C158.252 58.5185 158.259 58.5366 158.259 58.5555V58.8003C158.26 58.8189 158.253 58.8369 158.24 58.8506C158.228 58.8643 158.21 58.8726 158.192 58.8737C157.95 58.8867 157.042 58.8607 155.132 58.0442C155.119 58.0386 155.107 58.0292 155.1 58.0171C155.092 58.0051 155.087 57.991 155.087 57.9766V55.4694C155.087 55.4599 155.089 55.4504 155.092 55.4414C155.096 55.4325 155.101 55.4244 155.108 55.4176C155.115 55.4108 155.123 55.4053 155.131 55.4016C155.14 55.3979 155.15 55.396 155.159 55.396Z" fill="#0053F1"/>
<path d="M25.0718 52.0316V57.0387C25.0718 57.9819 25.5717 58.833 27.1618 58.833C28.752 58.833 29.3165 57.7486 29.4027 57.6104C29.5147 57.4361 29.2935 57.1251 29.0723 57.4174C28.8813 57.6708 28.4819 57.6392 28.4819 57.6392C27.5798 57.6392 27.5841 56.3705 27.5841 56.3705V52.7459C27.5841 49.932 25.7167 49.2019 24.5949 49.2019C23.9967 49.1926 23.4002 49.2692 22.8237 49.4295C22.815 49.4323 22.8075 49.4379 22.8023 49.4455C22.7971 49.453 22.7945 49.4621 22.795 49.4712V49.6152C22.7947 49.6212 22.7958 49.6272 22.798 49.6327C22.8003 49.6383 22.8037 49.6433 22.8081 49.6474C22.8125 49.6515 22.8177 49.6546 22.8233 49.6565C22.829 49.6584 22.835 49.6591 22.8409 49.6584C23.0306 49.6354 23.743 49.5778 24.2099 49.958C24.7514 50.4015 25.0718 51.1302 25.0718 52.0316Z" fill="#0053F1"/>
<path d="M25.0819 53.6402C25.0824 53.6344 25.0816 53.6287 25.0795 53.6233C25.0775 53.6179 25.0743 53.6131 25.0702 53.6091C25.0661 53.6051 25.0611 53.602 25.0557 53.6002C25.0503 53.5984 25.0445 53.5977 25.0388 53.5984C24.5332 53.6474 19.9896 54.1543 19.8675 56.4353C19.7641 58.3074 21.0842 58.833 22.0754 58.833C22.9648 58.8352 23.8237 58.508 24.4872 57.9142C24.4934 57.9089 24.4979 57.9017 24.4999 57.8937C24.502 57.8857 24.5016 57.8773 24.4987 57.8696L24.4096 57.6219C24.4064 57.613 24.4002 57.6056 24.3921 57.6009C24.3839 57.5961 24.3744 57.5944 24.3651 57.596C24.1267 57.6435 22.6773 57.884 22.4359 56.5721C22.2233 55.4201 22.8669 54.3515 25.0446 53.8951C25.0533 53.893 25.0611 53.8883 25.067 53.8816C25.0729 53.8749 25.0766 53.8665 25.0776 53.8576L25.0819 53.6402Z" fill="#0053F1"/>
<path d="M22.0781 49.9134C22.0781 49.9134 22.0579 49.7132 21.8008 49.9047C21.5437 50.0962 20.5425 50.6809 20.5425 51.7192C20.5425 52.3398 21.1616 52.7603 21.6916 52.7603C21.8387 52.7607 21.9844 52.732 22.1203 52.6757C22.2563 52.6195 22.3798 52.5369 22.4838 52.4326C22.5877 52.3284 22.6701 52.2045 22.7262 52.0683C22.7823 51.932 22.811 51.786 22.8107 51.6385C22.8107 50.5427 21.887 50.5427 21.887 50.5427C21.887 50.5427 21.7635 50.2259 22.0465 50.138C22.0465 50.138 22.1628 50.1366 22.0781 49.9134Z" fill="#0053F1"/>
<path d="M53.7178 47.5746C54.454 47.5746 55.0508 46.9763 55.0508 46.2382C55.0508 45.5002 54.454 44.9019 53.7178 44.9019C52.9816 44.9019 52.3848 45.5002 52.3848 46.2382C52.3848 46.9763 52.9816 47.5746 53.7178 47.5746Z" fill="#3C5FAB"/>
</svg>
