<svg width="120" height="26" viewBox="0 0 120 26" fill="none" xmlns="http://www.w3.org/2000/svg">
<path d="M6.14974 17.712C6.71769 17.712 7.18662 17.6628 7.55665 17.5643C8.50532 17.3119 9.04114 16.838 9.04114 15.7789C9.04114 15.1702 8.76575 14.6646 8.21499 14.2618C7.78622 13.9481 7.09615 13.6697 6.20834 13.2639C5.72847 13.0446 6.05724 12.5058 6.28212 12.2651L7.7903 10.6504C8.13862 10.2793 8.5934 9.9926 9.1198 10.1811C9.53384 10.3295 9.78182 10.4897 10.1255 10.664C10.8139 11.0128 11.3863 11.4202 11.8424 11.8856C12.8988 12.9636 13.1977 14.3096 13.1977 15.8057C13.1977 17.542 12.6125 18.889 11.4422 19.8464C10.2718 20.8043 8.50769 21.283 6.14974 21.283C4.14229 21.283 1.92706 20.9109 0.160156 19.86L1.29611 16.5306C1.82962 16.8349 2.48796 17.1079 3.27104 17.3496C4.05414 17.5912 5.01372 17.712 6.14974 17.712ZM3.61957 12.2213C2.48492 11.5988 1.49559 10.846 0.908879 9.64361C0.616184 9.04405 0.469969 8.31455 0.469969 7.45549C0.469969 4.83542 1.95412 3.01817 4.31667 2.25998C5.12557 2.00048 6.03775 1.87074 7.05324 1.87074C8.25805 1.87074 9.29934 2.00501 10.1772 2.27339C11.0549 2.54185 11.7778 2.83721 12.3457 3.15942L11.184 6.46205C10.6848 6.19352 10.1298 5.95628 9.51875 5.75048C8.90775 5.54459 8.17207 5.44169 7.31137 5.44169C6.16199 5.44169 4.60067 5.58375 4.60067 7.1333C4.60067 7.83152 4.94577 8.2621 5.49134 8.62334C5.85875 8.86653 6.06277 8.97115 6.41405 9.1154C7.1999 9.43828 7.22329 9.63978 6.6816 10.239L5.30694 11.7603C4.89969 12.2109 4.20549 12.5426 3.61957 12.2213ZM15.9085 3.26684L19.7553 2.62244V6.78426H24.3765V10.1135H19.7553V15.0807C19.7553 15.9219 19.8973 16.5933 20.1811 17.0945C20.4651 17.5955 21.0375 17.8464 21.8981 17.8464C22.7095 17.8464 23.6173 17.6905 24.3765 17.3898L24.9186 20.5044C24.454 20.7012 23.9376 20.8714 23.3696 21.0145C22.8016 21.1577 22.1045 21.2293 21.2785 21.2293C20.2285 21.2293 19.3595 21.0816 18.671 20.7863C17.294 20.1955 16.4806 19.134 16.1538 17.6314C15.9902 16.8797 15.9085 16.0473 15.9085 15.1345V3.26684ZM32.1733 18.1148C32.5518 18.1148 32.9133 18.1058 33.2575 18.088C33.6018 18.07 33.8771 18.0433 34.0836 18.0074V14.9733C33.9288 14.9375 33.6964 14.9017 33.3866 14.8659C33.0768 14.8302 32.7929 14.8122 32.5346 14.8122C31.4411 14.8122 29.9013 14.9612 29.9013 16.4501C29.9013 17.0766 30.1035 17.5106 30.5079 17.7524C30.9126 17.994 31.4675 18.1148 32.1733 18.1148ZM31.8634 6.4083C32.9993 6.4083 33.9459 6.54256 34.7033 6.81109C36.1253 7.31535 37.0885 8.26799 37.4916 9.79131C37.6808 10.5074 37.7756 11.3039 37.7756 12.181V20.5044C37.2248 20.6297 36.459 20.7774 35.4778 20.9475C34.4968 21.1173 33.3091 21.2024 31.9151 21.2024C29.9048 21.2024 27.4701 20.8279 26.4935 18.7323C26.2181 18.1417 26.0805 17.4167 26.0805 16.5574C26.0805 15.734 26.2396 15.0359 26.5581 14.4631C26.8765 13.8904 27.3025 13.4339 27.836 13.0938C28.9896 12.3587 30.4771 12.1273 31.8118 12.1273C32.311 12.1273 32.7541 12.1496 33.1413 12.1944C33.5286 12.2391 33.8428 12.2973 34.0836 12.3689V11.9931C34.0836 11.3128 33.8858 10.7668 33.4898 10.3552C33.094 9.9435 32.4056 9.73763 31.4246 9.73763C30.28 9.73763 28.9128 9.88654 27.836 10.3015L27.3455 7.07962C27.969 6.87983 28.6373 6.73844 29.2816 6.63656C30.135 6.50134 30.9998 6.4083 31.8634 6.4083ZM45.1075 11.8543C45.9005 10.9639 46.6909 10.0664 47.4526 9.14689C48.1021 8.36377 48.7564 7.58265 49.3888 6.78426H53.9628C53.0504 7.87151 52.1598 8.91432 51.2906 9.90325C50.4215 10.8967 49.4706 11.9169 48.4378 12.9729C48.9541 13.4563 49.4878 14.0336 50.0384 14.7093C51.5934 16.6045 53.0448 18.6888 54.1434 20.9071H49.7201C48.7143 19.2077 47.6706 17.5415 46.407 16.0339C45.9725 15.5148 45.5376 15.0762 45.1075 14.7182V20.9071H41.2608V0.716185L45.1075 0.0717773V11.8543ZM54.6339 13.953C54.6339 12.7 54.8188 11.6038 55.1891 10.664C55.5589 9.72421 56.0453 8.94115 56.6476 8.31455C57.8386 7.07618 59.4598 6.4083 61.1398 6.4083C63.0674 6.4083 64.5908 7.02134 65.7094 8.24745C66.8281 9.47363 67.3874 11.277 67.3874 13.6576C67.3874 14.1566 67.3499 14.6639 67.3099 15.1613H58.5839C58.6699 15.9847 59.0401 16.638 59.6941 17.1214C60.3481 17.6047 61.2259 17.8464 62.3273 17.8464C63.0329 17.8464 63.7258 17.7791 64.4056 17.6449C65.0854 17.5106 65.6406 17.3451 66.0709 17.1482L66.5871 20.397C66.3808 20.5044 66.1053 20.6117 65.7611 20.7192C65.4168 20.8265 65.0338 20.9206 64.6121 21.001C62.6971 21.3669 60.4426 21.4763 58.6226 20.7192C56.8839 19.9959 55.6503 18.7132 55.0599 16.8528C54.7759 15.9579 54.6339 14.9913 54.6339 13.953ZM63.6698 12.4227C63.6166 11.3732 63.2499 10.4527 62.3144 9.95241C62.0133 9.79131 61.6389 9.71078 61.1914 9.71078C60.7611 9.71078 60.3911 9.78679 60.0813 9.93899C59.1086 10.417 58.7426 11.3767 58.5839 12.4227H63.6698ZM75.7781 21.1756C73.7084 21.1425 71.1718 20.7327 70.5759 18.2892C70.4296 17.6895 70.3564 17.0139 70.3564 16.2622V0.716185L74.2031 0.0717773V15.4566C74.2031 15.8146 74.2291 16.1368 74.2806 16.4233C74.4789 17.5226 75.3601 17.799 76.3201 17.8732L75.7781 21.1756ZM90.3129 6.78426C88.8948 11.7651 87.2219 16.652 85.1108 21.3635C84.5579 22.5957 83.8601 23.9394 82.8346 24.8137C81.8604 25.6448 80.7061 25.8743 79.4741 25.8743C78.8718 25.8743 78.3166 25.816 77.8046 25.6997C77.2968 25.5834 76.8796 25.4536 76.5524 25.3104L77.2238 22.1154C77.9206 22.3674 78.5243 22.4912 79.2631 22.4912C79.9518 22.4912 80.4809 22.2988 80.8509 21.914C81.2209 21.5292 81.5394 20.9965 81.7976 20.3164C80.9154 18.5265 80.0378 16.5172 79.1599 14.2886C78.2823 12.0602 77.4561 9.55859 76.6814 6.78426H80.7606C80.9328 7.4822 81.1349 8.23856 81.3716 9.05296C82.0483 11.4246 82.8026 13.7952 83.6651 16.1011C84.1878 14.5949 84.6473 13.0607 85.0764 11.5232C85.5233 9.95146 85.9364 8.36939 86.3371 6.78426H90.3129ZM94.6761 18.7858C94.6761 19.5915 94.4308 20.2044 93.9403 20.6252C93.4498 21.0459 92.8946 21.2562 92.2749 21.2562C91.6554 21.2562 91.1004 21.0459 90.6099 20.6252C90.1193 20.2044 89.8741 19.5915 89.8741 18.7858C89.8741 17.9805 90.1193 17.3673 90.6099 16.9468C91.1004 16.5261 91.6554 16.3158 92.2749 16.3158C92.8946 16.3158 93.4498 16.5261 93.9403 16.9468C94.4308 17.3673 94.6761 17.9805 94.6761 18.7858ZM99.4994 20.9071C98.6174 19.1172 97.7224 17.0228 96.8146 14.6242C95.9066 12.2257 95.0504 9.61226 94.2371 6.78426H98.3163C98.4883 7.4822 98.6906 8.23856 98.9273 9.05296C99.3956 10.6945 99.8876 12.3268 100.403 13.953C100.653 14.7406 100.902 15.4566 101.143 16.1011C101.669 14.5848 102.17 13.0623 102.632 11.5232C103.103 9.95227 103.573 8.37856 103.966 6.78426H107.946C107.133 9.61226 106.276 12.2257 105.369 14.6242C104.465 17.0228 103.57 19.1172 102.688 20.9071H99.4994ZM108.979 13.8456C108.979 10.8573 110.348 8.22677 113.032 6.99903C113.892 6.6052 114.873 6.4083 115.975 6.4083C117.302 6.4083 118.496 6.64765 119.719 7.18696L118.918 10.382C118.557 10.2389 118.161 10.1135 117.731 10.0062C117.3 9.89873 116.818 9.84505 116.285 9.84505C115.149 9.84505 114.301 10.212 113.742 10.9459C113.182 11.6797 112.903 12.6464 112.903 13.8456C112.903 15.1164 113.165 16.1011 113.69 16.7991C114.609 18.0216 116.588 17.9382 117.937 17.712C118.471 17.6224 118.961 17.4792 119.409 17.2824L119.951 20.558C119.503 20.7549 118.944 20.9251 118.273 21.0681C117.601 21.2113 116.861 21.283 116.052 21.283C114.813 21.283 113.746 21.0906 112.851 20.7057C111.12 19.9614 109.931 18.6555 109.379 16.7857C109.112 15.8817 108.979 14.9017 108.979 13.8456Z" fill="#0053F1"/>
</svg>
