<svg width="135" height="30" viewBox="0 0 135 30" fill="none" xmlns="http://www.w3.org/2000/svg">
<g clip-path="url(#clip0)">
<path d="M6.91846 20.2552C7.5574 20.2552 8.08495 20.2003 8.50124 20.0905C9.56849 19.8089 10.1713 19.2804 10.1713 18.099C10.1713 17.4201 9.86147 16.8562 9.24186 16.4069C8.7595 16.057 7.98317 15.7465 6.98438 15.2939C6.44453 15.0493 6.81439 14.4483 7.06739 14.1799L8.76409 12.3788C9.15595 11.9649 9.66758 11.6451 10.2598 11.8554C10.7256 12.0209 11.0045 12.1996 11.3912 12.394C12.1656 12.783 12.8095 13.2374 13.3226 13.7566C14.5111 14.959 14.8474 16.4602 14.8474 18.1289C14.8474 20.0656 14.1891 21.568 12.8725 22.636C11.5558 23.7043 9.57115 24.2383 6.91846 24.2383C4.66007 24.2383 2.16794 23.8232 0.180176 22.651L1.45812 18.9375C2.05832 19.2769 2.79895 19.5814 3.67992 19.851C4.56091 20.1205 5.64044 20.2552 6.91846 20.2552ZM4.07202 14.1309C2.79554 13.4367 1.68253 12.597 1.02249 11.2559C0.693207 10.5871 0.528715 9.77345 0.528715 8.81527C0.528715 5.89288 2.19839 3.86595 4.85626 3.02028C5.76627 2.73084 6.79247 2.58613 7.93489 2.58613C9.29031 2.58613 10.4618 2.73588 11.4493 3.03524C12.4368 3.33467 13.2501 3.66411 13.8889 4.0235L12.582 7.7072C12.0204 7.40769 11.396 7.14307 10.7086 6.91353C10.0212 6.68388 9.19358 6.5691 8.22529 6.5691C6.93224 6.5691 5.17576 6.72756 5.17576 8.4559C5.17576 9.23469 5.56399 9.71494 6.17776 10.1179C6.5911 10.3891 6.82062 10.5058 7.21581 10.6667C8.09989 11.0268 8.1262 11.2516 7.51681 11.92L5.97031 13.6168C5.51215 14.1193 4.73117 14.4894 4.07202 14.1309ZM17.8971 4.14331L22.2247 3.42456V8.06659H27.4235V11.78H22.2247V17.3203C22.2247 18.2586 22.3844 19.0074 22.7038 19.5665C23.0233 20.1253 23.6671 20.4051 24.6354 20.4051C25.5481 20.4051 26.5694 20.2313 27.4235 19.8958L28.0334 23.3698C27.5107 23.5893 26.9298 23.7791 26.2908 23.9388C25.6518 24.0985 24.8675 24.1784 23.9383 24.1784C22.757 24.1784 21.7794 24.0136 21.0048 23.6842C19.4557 23.0253 18.5406 21.8414 18.173 20.1653C17.9889 19.3268 17.8971 18.3985 17.8971 17.3803V4.14331ZM36.1949 20.7046C36.6208 20.7046 37.0274 20.6945 37.4146 20.6746C37.802 20.6545 38.1118 20.6247 38.3441 20.5847V17.2006C38.1699 17.1606 37.9085 17.1206 37.5599 17.0808C37.2114 17.0409 36.8921 17.0209 36.6014 17.0209C35.3713 17.0209 33.6389 17.187 33.6389 18.8477C33.6389 19.5465 33.8664 20.0306 34.3214 20.3003C34.7767 20.5698 35.4009 20.7046 36.1949 20.7046ZM35.8464 7.64725C37.1242 7.64725 38.1892 7.797 39.0412 8.09651C40.6409 8.65896 41.7245 9.72152 42.1781 11.4206C42.3909 12.2193 42.4976 13.1077 42.4976 14.086V23.3698C41.8779 23.5096 41.0163 23.6743 39.9125 23.864C38.8089 24.0535 37.4728 24.1484 35.9045 24.1484C33.6429 24.1484 30.9039 23.7306 29.8051 21.3932C29.4954 20.7345 29.3405 19.9258 29.3405 18.9675C29.3405 18.049 29.5196 17.2704 29.8779 16.6315C30.236 15.9927 30.7153 15.4835 31.3154 15.1041C32.6133 14.2842 34.2868 14.0262 35.7883 14.0262C36.3498 14.0262 36.8484 14.051 37.2839 14.101C37.7197 14.1509 38.0731 14.2158 38.3441 14.2956V13.8764C38.3441 13.1176 38.1215 12.5087 37.676 12.0496C37.2307 11.5904 36.4563 11.3607 35.3527 11.3607C34.0649 11.3607 32.5269 11.5268 31.3154 11.9897L30.7636 8.39603C31.4651 8.17319 32.2169 8.01549 32.9418 7.90185C33.9018 7.75103 34.8748 7.64725 35.8464 7.64725ZM50.7459 13.7216C51.638 12.7285 52.5273 11.7274 53.3842 10.7018C54.1149 9.82835 54.851 8.9571 55.5624 8.06659H60.7081C59.6818 9.27929 58.6798 10.4424 57.7019 11.5455C56.7241 12.6535 55.6544 13.7915 54.4925 14.9694C55.0734 15.5084 55.6738 16.1523 56.2933 16.9061C58.0426 19.0199 59.6754 21.3447 60.9114 23.819H55.9351C54.8036 21.9235 53.6294 20.065 52.2078 18.3835C51.719 17.8046 51.2298 17.3153 50.7459 16.916V23.819H46.4184V1.29835L50.7459 0.57959V13.7216ZM61.4632 16.0625C61.4632 14.665 61.6711 13.4422 62.0878 12.394C62.5038 11.3458 63.0509 10.4723 63.7286 9.77345C65.0684 8.3922 66.8923 7.64725 68.7823 7.64725C70.9509 7.64725 72.6646 8.33103 73.9231 9.69861C75.1816 11.0663 75.8109 13.0778 75.8109 15.733C75.8109 16.2896 75.7687 16.8554 75.7237 17.4102H65.9069C66.0037 18.3287 66.4201 19.0573 67.1559 19.5964C67.8916 20.1356 68.8792 20.4051 70.1182 20.4051C70.9121 20.4051 71.6915 20.3301 72.4563 20.1804C73.2211 20.0306 73.8457 19.846 74.3298 19.6264L74.9105 23.25C74.6784 23.3698 74.3684 23.4895 73.9813 23.6094C73.5939 23.7291 73.163 23.834 72.6886 23.9237C70.5342 24.3319 67.9979 24.4539 65.9504 23.6094C63.9944 22.8026 62.6066 21.3719 61.9424 19.2969C61.6229 18.2987 61.4632 17.2206 61.4632 16.0625ZM71.6285 14.3556C71.5687 13.185 71.1562 12.1583 70.1038 11.6003C69.7649 11.4206 69.3438 11.3308 68.8404 11.3308C68.3563 11.3308 67.94 11.4156 67.5914 11.5853C66.4972 12.1184 66.0854 13.189 65.9069 14.3556H71.6285ZM85.2504 24.1184C82.922 24.0815 80.0682 23.6245 79.3979 20.899C79.2333 20.2301 79.151 19.4766 79.151 18.6381V1.29835L83.4785 0.57959V17.7396C83.4785 18.1389 83.5078 18.4983 83.5657 18.8178C83.7888 20.0439 84.7801 20.3523 85.8601 20.435L85.2504 24.1184ZM101.602 8.06659C100.007 13.6222 98.1247 19.0729 95.7496 24.328C95.1277 25.7024 94.3426 27.2011 93.1889 28.1763C92.093 29.1033 90.7944 29.3593 89.4084 29.3593C88.7307 29.3593 88.1062 29.2944 87.5302 29.1646C86.9589 29.0349 86.4896 28.8901 86.1215 28.7304L86.8767 25.1667C87.6607 25.4478 88.3398 25.5858 89.171 25.5858C89.9457 25.5858 90.5411 25.3712 90.9573 24.942C91.3736 24.5128 91.7319 23.9187 92.0223 23.1601C91.0299 21.1637 90.0425 18.9226 89.0549 16.4368C88.0676 13.9512 87.1381 11.161 86.2666 8.06659H90.8557C91.0494 8.84506 91.2768 9.68869 91.5431 10.5971C92.3043 13.2423 93.1529 15.8865 94.1232 18.4584C94.7112 16.7785 95.2282 15.0672 95.711 13.3523C96.2137 11.5992 96.6785 9.83462 97.1292 8.06659H101.602ZM106.511 21.4529C106.511 22.3516 106.235 23.0352 105.683 23.5046C105.131 23.9738 104.506 24.2083 103.809 24.2083C103.112 24.2083 102.488 23.9738 101.936 23.5046C101.384 23.0352 101.108 22.3516 101.108 21.4529C101.108 20.5547 101.384 19.8707 101.936 19.4018C102.488 18.9325 103.112 18.698 103.809 18.698C104.506 18.698 105.131 18.9325 105.683 19.4018C106.235 19.8707 106.511 20.5547 106.511 21.4529ZM111.937 23.819C110.945 21.8226 109.938 19.4865 108.916 16.8112C107.895 14.1359 106.932 11.2209 106.017 8.06659H110.606C110.799 8.84506 111.027 9.68869 111.293 10.5971C111.82 12.428 112.374 14.2486 112.953 16.0625C113.234 16.9409 113.515 17.7396 113.786 18.4584C114.378 16.7672 114.942 15.069 115.461 13.3523C115.991 11.6001 116.519 9.84485 116.961 8.06659H121.439C120.524 11.2209 119.561 14.1359 118.54 16.8112C117.523 19.4865 116.516 21.8226 115.524 23.819H111.937ZM122.601 15.9427C122.601 12.6096 124.142 9.67554 127.161 8.30614C128.129 7.86687 129.233 7.64725 130.472 7.64725C131.964 7.64725 133.308 7.91422 134.683 8.51576L133.783 12.0795C133.376 11.9198 132.931 11.78 132.447 11.6602C131.963 11.5404 131.421 11.4805 130.82 11.4805C129.543 11.4805 128.589 11.8899 127.96 12.7084C127.33 13.5269 127.016 14.6051 127.016 15.9427C127.016 17.3602 127.311 18.4584 127.902 19.237C128.936 20.6005 131.161 20.5075 132.679 20.2552C133.279 20.1553 133.831 19.9956 134.335 19.7761L134.945 23.4296C134.441 23.6492 133.812 23.8391 133.057 23.9986C132.302 24.1583 131.469 24.2383 130.559 24.2383C129.165 24.2383 127.965 24.0237 126.957 23.5943C125.01 22.7641 123.672 21.3076 123.051 19.2221C122.751 18.2137 122.601 17.1206 122.601 15.9427Z" fill="#0053F1"/>
</g>
<defs>
<clipPath id="clip0">
<rect width="135" height="29" fill="white" transform="translate(0 0.5)"/>
</clipPath>
</defs>
</svg>
