<svg width="163" height="40" viewBox="0 0 163 40" fill="none" xmlns="http://www.w3.org/2000/svg">
<path d="M59.8363 3.38783H65.0338V0.437012H51.4619V3.38783H56.6523V16.6556H59.8363V3.38783Z" fill="#0053F1"/>
<path d="M81.4998 0.437012H69.9868V16.6556H81.6102V13.7048H72.9964V9.75111H79.8432V6.92879H72.9964V3.24051H81.4998V0.437012Z" fill="#0053F1"/>
<path d="M99.0592 10.7706L91.1234 0.437012H88.0127V16.6556H91.2873L91.1234 6.29887L99.0592 16.6556H102.151V0.437012H99.0592V10.7706Z" fill="#0053F1"/>
<path d="M118.154 3.24051L108.485 13.7048V16.6556H121.9V13.7048L112.494 13.8521L122.139 3.6501L121.9 0.437012H108.79V3.24051H118.154Z" fill="#0053F1"/>
<path d="M80.3959 23.1694H77.6041L70.6777 39.3498L74.2116 39.4186L75.2055 36.4809H82.6046L83.8193 39.4186L87.3908 39.3498L80.3959 23.1694ZM81.2794 32.9694H76.7516L78.9603 27.2776L81.2794 32.9694Z" fill="#0053F1"/>
<path d="M108.004 23.1694V39.3498H111.043V23.1694H108.004Z" fill="#0053F1"/>
<path d="M123.575 26.011H128.724V23.1694H115.411V26.011H120.321V39.3498H123.435L123.575 26.011Z" fill="#0053F1"/>
<path d="M140.648 23.1694H138.004L130.861 39.3498H134.398L135.613 36.2897H143.129L144.226 39.3498H147.791L140.648 23.1694ZM141.907 33.5574H136.827L139.257 27L141.907 33.5574Z" fill="#0053F1"/>
<path d="M151.535 39.3498H162.922V36.2897H154.717V23.1694H151.535V39.3498Z" fill="#0053F1"/>
<path d="M39.5352 0.327637V14.7539H13.252V24.8085H21.3137V39.3495H0V0.327637H39.5352Z" fill="#0053F1"/>
<path d="M31.584 24.8086H39.5352V39.3496H31.584V24.8086Z" fill="#0053F1"/>
<path d="M155.491 11.0479H153.137V16.8305H149.748V0.437012H155.859C157.802 0.437012 159.301 0.868616 160.355 1.73182C161.41 2.59502 161.937 4.25194 161.937 5.39107C161.937 6.50949 161.692 7.88116 161.203 8.63179C160.721 9.37489 159.987 9.96787 159 10.4107L162.558 16.6728V16.8305H159L155.491 11.0479ZM153.088 8.19657H155.822C156.673 8.19657 157.16 8.09795 157.627 7.67008C158.094 7.23474 158.362 6.55032 158.362 5.7922C158.362 5.01907 158.071 4.59572 157.627 4.15286C157.298 3.82499 156.771 3.61017 155.859 3.61017H153.137L153.088 8.19657Z" fill="#0053F1"/>
<path fill-rule="evenodd" clip-rule="evenodd" d="M135.612 17.2678C140.37 17.2678 144.226 13.4022 144.226 8.63388C144.226 3.86553 140.37 0 135.612 0C130.855 0 126.999 3.86553 126.999 8.63388C126.999 13.4022 130.855 17.2678 135.612 17.2678ZM135.723 14.2077C138.711 14.2077 141.134 11.7122 141.134 8.63388C141.134 5.55556 138.711 3.06011 135.723 3.06011C132.734 3.06011 130.312 5.55556 130.312 8.63388C130.312 11.7122 132.734 14.2077 135.723 14.2077Z" fill="#0053F1"/>
<path d="M103.366 28.5887V28.5426C103.366 25.2383 101.151 22.9507 97.4893 22.9507H91.2183V39.3441H94.3104V33.9889H97.1605C100.603 33.9889 103.366 32.3321 103.366 28.5887ZM100.053 28.6351C100.053 30.0215 98.9586 30.9288 97.2702 30.9288H94.3104V26.1625H97.2044C98.8927 26.1625 100.053 26.7758 100.053 28.5887V28.6351Z" fill="#0053F1"/>
<path d="M60.1865 22.7324C64.0738 22.7324 67.0334 25.0275 67.8064 26.9947L64.1621 27.9783C63.4995 26.9947 62.2847 26.0111 60.1865 26.0111C56.4318 26.0111 55.1065 29.0712 55.1065 31.3663C55.1065 33.6614 56.9839 36.4811 60.1865 36.4811C63.3891 36.4811 64.1621 34.8636 64.7143 34.2078L68.2481 34.8636C67.5855 37.9237 63.4995 39.8988 60.1865 39.7816C54.5544 39.5825 51.6831 34.9729 51.6831 31.0384C51.6831 26.5576 55.3274 22.7324 60.1865 22.7324Z" fill="#0053F1"/>
</svg>
