<svg width="173" height="72" viewBox="0 0 173 72" fill="none" xmlns="http://www.w3.org/2000/svg">
<path d="M70.8147 57.4484C69.4152 57.4484 68.3135 57.894 67.5095 58.7853C66.7053 59.6767 66.3034 60.8971 66.3034 62.4467C66.3034 64.0318 66.6824 65.2625 67.4407 66.1385C68.199 67.0146 69.2829 67.4527 70.6926 67.4527C71.6289 67.4527 72.489 67.3336 73.2727 67.0956V67.7792C72.5347 68.0375 71.6137 68.1667 70.5094 68.1667C68.9419 68.1667 67.7079 67.6629 66.8071 66.655C65.9063 65.6473 65.4561 64.2394 65.4561 62.4316C65.4561 61.3022 65.6698 60.3071 66.0972 59.4462C66.5297 58.5854 67.1481 57.922 67.9521 57.456C68.7613 56.9851 69.7002 56.7495 70.7689 56.7495C71.858 56.7495 72.8326 56.9521 73.6925 57.3573L73.3796 58.056C72.5654 57.6509 71.7103 57.4484 70.8147 57.4484Z" fill="#0053F1"/>
<path d="M81.1348 64.0954H76.6005L75.0433 68.015H74.1807L78.6692 56.8638H79.1654L83.5622 68.015H82.6844L81.1348 64.0954ZM76.8829 63.3965H80.8752L79.3562 59.3933C79.2289 59.0793 79.0763 58.6437 78.8982 58.0867C78.7608 58.5729 78.6107 59.0135 78.4478 59.4085L76.8829 63.3965Z" fill="#0053F1"/>
<path d="M91.8679 60.0992C91.8679 61.1728 91.5015 61.9956 90.7687 62.5679C90.0359 63.1402 88.9978 63.4262 87.6542 63.4262H85.9291V68.0144H85.1504V56.9087H87.8833C90.5397 56.9087 91.8679 57.9722 91.8679 60.0992ZM85.9291 62.7578H87.4634C88.7204 62.7578 89.6288 62.5527 90.1885 62.1426C90.7483 61.7273 91.0282 61.0563 91.0282 60.1295C91.0282 59.2736 90.7636 58.6407 90.2344 58.2304C89.7052 57.8152 88.8858 57.6076 87.7763 57.6076H85.9291V62.7578Z" fill="#0053F1"/>
<path d="M94.2954 68.0144V56.9087H95.0741V68.0144H94.2954Z" fill="#0053F1"/>
<path d="M101.143 68.0144H100.357V57.6379H96.731V56.9087H104.769V57.6379H101.143V68.0144Z" fill="#0053F1"/>
<path d="M111.806 64.0954H107.272L105.715 68.015H104.852L109.34 56.8638H109.837L114.234 68.015H113.356L111.806 64.0954ZM107.554 63.3965H111.547L110.028 59.3933C109.9 59.0793 109.748 58.6437 109.57 58.0867C109.432 58.5729 109.282 59.0135 109.119 59.4085L107.554 63.3965Z" fill="#0053F1"/>
<path d="M115.821 68.0144V56.9087H116.6V67.2852H121.92V68.0144H115.821Z" fill="#0053F1"/>
<path d="M63.1621 50.4005V33.0981H75.7341V35.14H65.4631V40.4392H75.0817V42.4692H65.4631V48.3587H76.1373V50.4005H63.1621Z" fill="#0053F1"/>
<path d="M79.293 50.4005V33.0981H81.6531L90.7855 46.6827V33.0981H92.9915V50.4005H90.6314L81.4989 36.8041V50.4005H79.293Z" fill="#0053F1"/>
<path d="M96.8696 50.4005V33.0981H102.859C104.211 33.0981 105.243 33.1807 105.955 33.346C106.951 33.5741 107.801 33.9872 108.505 34.5852C109.422 35.3564 110.106 36.3438 110.556 37.5476C111.015 38.7436 111.244 40.1127 111.244 41.655C111.244 42.969 111.09 44.1334 110.782 45.1484C110.473 46.1634 110.078 47.0053 109.596 47.6742C109.113 48.3351 108.584 48.8583 108.006 49.2439C107.437 49.6215 106.745 49.9087 105.931 50.1054C105.124 50.3022 104.195 50.4005 103.144 50.4005H96.8696ZM99.1704 48.3587H102.883C104.029 48.3587 104.927 48.2525 105.575 48.0401C106.231 47.8275 106.753 47.5286 107.141 47.143C107.686 46.6001 108.109 45.8724 108.41 44.9596C108.718 44.0389 108.872 42.9256 108.872 41.6195C108.872 39.8098 108.572 38.421 107.971 37.4532C107.378 36.4775 106.654 35.8245 105.8 35.4941C105.184 35.258 104.191 35.14 102.823 35.14H99.1704V48.3587Z" fill="#0053F1"/>
<path d="M114.47 50.4005V33.0981H127.042V35.14H116.771V40.4392H126.389V42.4692H116.771V48.3587H127.445V50.4005H114.47Z" fill="#0053F1"/>
<path d="M135.047 50.4005V35.14H129.318V33.0981H143.1V35.14H137.348V50.4005H135.047Z" fill="#0053F1"/>
<path d="M149.896 50.4005V35.14H144.167V33.0981H157.949V35.14H152.197V50.4005H149.896Z" fill="#0053F1"/>
<path d="M156.61 50.4005L163.287 33.0981H165.766L172.881 50.4005H170.261L168.233 45.1602H160.963L159.053 50.4005H156.61ZM161.627 43.2954H167.521L165.707 38.5037C165.153 37.048 164.742 35.852 164.473 34.9156C164.252 36.0251 163.939 37.1267 163.536 38.2204L161.627 43.2954Z" fill="#0053F1"/>
<path d="M5.88777 0.0732422L0.0737305 3.48039L40.1906 68.6018L69.6484 16.5304L40.1906 61.7875L5.88777 0.0732422Z" fill="#0053F1"/>
</svg>
