<svg width="492" height="382" viewBox="0 0 492 382" fill="none" xmlns="http://www.w3.org/2000/svg">
<mask id="mask0" mask-type="alpha" maskUnits="userSpaceOnUse" x="0" y="0" width="492" height="382">
<rect width="492" height="382" fill="#C4C4C4"/>
</mask>
<g mask="url(#mask0)">
<path d="M357.989 500.679C489.264 447.795 454.561 373.623 478.698 275.532C502.835 177.442 500.168 139.902 441.407 71.3792C382.646 2.85632 281.17 -22.5596 208.781 58.4884C136.392 139.536 69.37 131.823 27.9773 192.031C-13.4155 252.239 -5.7652 323.569 69.0649 373.882C143.895 424.195 196.113 565.899 357.989 500.679Z" fill="#F4F6FD"/>
<path d="M404.94 349.433L317.186 326.868H400.026L489.781 349.433H404.94Z" fill="#DFDEF8"/>
<path d="M92.2829 349.433L180.037 326.868H97.2081L7.44141 349.433H92.2829Z" fill="#DFDEF8"/>
<path d="M252.659 325.633C252.659 325.633 252.577 325.217 252.446 324.445" stroke="#2E353A" stroke-miterlimit="10"/>
<path d="M252.056 322.117C250.789 313.887 248.646 293.353 256.685 284.184C266.879 272.581 279.097 282.522 313.147 284.184C347.197 285.847 364.72 280.871 365.075 251.584C365.43 222.296 345.457 220.361 345.457 220.361H332.836" stroke="#131313" stroke-miterlimit="10" stroke-dasharray="1.99 1.99"/>
<path d="M331.641 220.408H330.457" stroke="#2E353A" stroke-miterlimit="10"/>
<path d="M330.457 87.6892H331.641" stroke="#2E353A" stroke-miterlimit="10"/>
<path d="M334.009 87.6892H376.631C376.631 87.6892 389.477 88.8056 388.944 103.675C388.411 118.544 367.041 132.475 368.402 162.166C369.764 191.857 420.271 187.427 427.15 217.153C434.028 246.88 383.498 245.396 378.797 260.74C377.32 264.18 376.593 267.897 376.666 271.642C376.666 276.63 376.666 288.483 376.666 293.554" stroke="#131313" stroke-miterlimit="10" stroke-dasharray="1.99 1.99"/>
<path d="M376.666 268.626V269.814" stroke="#2E353A" stroke-miterlimit="10"/>
<path d="M173.56 46.2881H172.376" stroke="#2E353A" stroke-miterlimit="10"/>
<path d="M169.582 45.7778H148.812C148.812 45.7778 67.6981 45.7778 91.7842 98.4036C91.7842 138.489 36.2339 137.63 58.9946 161.294C81.7553 184.957 121.344 219.209 128.461 240.625C131.198 258.197 114.6 266.333 109.087 273.516C109.087 273.516 105.117 277.138 104.775 281.561C104.504 285.04 104.657 296.441 104.775 301.12" stroke="#131313" stroke-miterlimit="10" stroke-dasharray="1.99 1.99"/>
<path d="M104.832 271.797C104.832 272.545 104.832 272.985 104.832 272.985" stroke="#2E353A" stroke-miterlimit="10"/>
<path d="M181.956 112.688C179.398 112.692 176.887 113.372 174.675 114.659C174.879 113.519 174.982 112.362 174.982 111.203C174.986 106.17 173.116 101.317 169.738 97.5951C166.36 93.8733 161.718 91.5514 156.722 91.0846C151.726 90.6178 146.736 92.0397 142.731 95.0716C138.726 98.1035 135.994 102.527 135.072 107.474C132.642 106.585 130.049 106.238 127.472 106.459C124.895 106.68 122.398 107.462 120.154 108.752C117.91 110.042 115.974 111.807 114.481 113.926C112.988 116.044 111.975 118.464 111.511 121.016C111.048 123.568 111.145 126.191 111.798 128.701C112.45 131.211 113.64 133.549 115.287 135.549C116.933 137.55 118.995 139.166 121.328 140.284C123.662 141.402 126.211 141.995 128.797 142.022H181.968C185.846 142.022 189.565 140.477 192.307 137.727C195.049 134.976 196.589 131.245 196.589 127.355C196.589 123.465 195.049 119.734 192.307 116.984C189.565 114.233 185.846 112.688 181.968 112.688H181.956Z" fill="#DFDEF8"/>
<path d="M186.335 108.295C183.777 108.298 181.266 108.978 179.054 110.266C179.258 109.126 179.361 107.969 179.361 106.81C179.365 101.777 177.495 96.9237 174.117 93.202C170.739 89.4802 166.097 87.1584 161.101 86.6916C156.105 86.2247 151.115 87.6467 147.11 90.6786C143.105 93.7104 140.373 98.1336 139.451 103.081C137.021 102.192 134.428 101.845 131.851 102.066C129.274 102.287 126.777 103.069 124.533 104.359C122.289 105.648 120.353 107.414 118.86 109.532C117.367 111.651 116.354 114.07 115.89 116.623C115.427 119.175 115.524 121.798 116.176 124.308C116.829 126.818 118.019 129.155 119.666 131.156C121.312 133.157 123.374 134.772 125.707 135.891C128.041 137.009 130.59 137.602 133.176 137.629H186.347C190.225 137.629 193.944 136.084 196.686 133.333C199.428 130.583 200.968 126.852 200.968 122.962C200.968 119.072 199.428 115.341 196.686 112.591C193.944 109.84 190.225 108.295 186.347 108.295H186.335Z" fill="white" stroke="#342BDB" stroke-opacity="0.23" stroke-miterlimit="10"/>
<path d="M415.486 129.529C412.759 129.53 410.081 130.251 407.719 131.619C407.928 130.407 408.035 129.179 408.039 127.949C408.04 122.592 406.047 117.427 402.451 113.467C398.854 109.507 393.913 107.036 388.595 106.54C383.278 106.044 377.967 107.557 373.703 110.783C369.44 114.01 366.531 118.717 365.547 123.982C362.953 123.016 360.179 122.632 357.421 122.857C354.663 123.082 351.988 123.91 349.583 125.284C347.179 126.657 345.103 128.542 343.503 130.806C341.902 133.071 340.816 135.659 340.32 138.39C339.824 141.121 339.93 143.927 340.631 146.612C341.332 149.297 342.611 151.796 344.378 153.932C346.145 156.068 348.357 157.789 350.859 158.976C353.36 160.162 356.091 160.784 358.858 160.799H415.486C419.615 160.799 423.575 159.153 426.495 156.225C429.415 153.296 431.055 149.323 431.055 145.181C431.055 141.04 429.415 137.067 426.495 134.138C423.575 131.21 419.615 129.564 415.486 129.564V129.529Z" fill="#DFDEF8"/>
<path d="M411.107 125.136C408.38 125.137 405.702 125.858 403.34 127.226C403.549 126.014 403.656 124.786 403.66 123.556C403.661 118.199 401.668 113.034 398.072 109.074C394.475 105.114 389.534 102.643 384.216 102.147C378.899 101.651 373.588 103.164 369.324 106.39C365.061 109.617 362.152 114.324 361.168 119.589C358.574 118.624 355.8 118.24 353.042 118.464C350.284 118.689 347.609 119.517 345.204 120.891C342.8 122.264 340.724 124.149 339.124 126.414C337.523 128.678 336.437 131.266 335.941 133.997C335.445 136.728 335.551 139.534 336.252 142.219C336.953 144.905 338.232 147.403 339.999 149.539C341.766 151.675 343.978 153.397 346.48 154.583C348.982 155.77 351.712 156.392 354.479 156.406H411.107C415.236 156.406 419.196 154.761 422.116 151.832C425.036 148.903 426.676 144.931 426.676 140.789C426.676 136.647 425.036 132.674 422.116 129.746C419.196 126.817 415.236 125.171 411.107 125.171V125.136Z" fill="white" stroke="#342BDB" stroke-opacity="0.23" stroke-miterlimit="10"/>
<path d="M401.043 160.385H405.779" stroke="#C1BFEB" stroke-linecap="round" stroke-linejoin="round"/>
<path d="M377.956 160.385H394.531" stroke="#C1BFEB" stroke-linecap="round" stroke-linejoin="round"/>
<path d="M362.281 103.01C364.705 100.966 367.698 99.7219 370.853 99.447" stroke="#C1BFEB" stroke-linecap="round" stroke-linejoin="round"/>
<path d="M356.646 111.691C357.072 109.813 357.878 108.043 359.013 106.49" stroke="#C1BFEB" stroke-linecap="round" stroke-linejoin="round"/>
<path d="M122.045 161.49C117.946 161.492 113.92 162.578 110.372 164.637C110.696 162.814 110.858 160.966 110.857 159.114C110.863 151.062 107.87 143.298 102.464 137.345C97.0585 131.393 89.6309 127.68 81.638 126.937C73.6451 126.193 65.6637 128.472 59.2591 133.326C52.8546 138.181 48.4891 145.26 47.0188 153.176C43.1305 151.745 38.9773 151.184 34.8501 151.532C30.7229 151.88 26.7214 153.128 23.1259 155.191C19.5303 157.253 16.4277 160.079 14.0353 163.47C11.6429 166.862 10.0185 170.737 9.27588 174.824C8.53328 178.912 8.69043 183.112 9.73632 187.132C10.7822 191.153 12.6916 194.895 15.3307 198.097C17.9697 201.299 21.2748 203.883 25.0143 205.67C28.7537 207.456 32.8373 208.4 36.9789 208.437H122.045C128.157 208.299 133.973 205.767 138.247 201.382C142.521 196.997 144.914 191.108 144.914 184.975C144.914 178.843 142.521 172.954 138.247 168.569C133.973 164.184 128.157 161.651 122.045 161.513V161.49Z" fill="#DFDEF8"/>
<path d="M117.666 157.097C113.567 157.1 109.541 158.185 105.993 160.244C106.317 158.421 106.479 156.573 106.478 154.721C106.484 146.669 103.491 138.905 98.0851 132.952C92.6796 127 85.252 123.288 77.2591 122.544C69.2662 121.801 61.2848 124.079 54.8802 128.934C48.4757 133.788 44.1102 140.867 42.6399 148.783C38.7516 147.352 34.5984 146.791 30.4712 147.139C26.344 147.487 22.3425 148.736 18.747 150.798C15.1514 152.86 12.0488 155.686 9.65639 159.077C7.26396 162.469 5.63957 166.344 4.89697 170.431C4.15437 174.519 4.31152 178.719 5.35742 182.739C6.40331 186.76 8.31266 190.502 10.9517 193.704C13.5908 196.906 16.8959 199.49 20.6353 201.277C24.3748 203.063 28.4584 204.007 32.6 204.044H117.666C123.778 203.906 129.594 201.374 133.868 196.989C138.142 192.604 140.535 186.715 140.535 180.582C140.535 174.45 138.142 168.561 133.868 164.176C129.594 159.791 123.778 157.258 117.666 157.12V157.097Z" fill="white" stroke="#342BDB" stroke-opacity="0.23" stroke-miterlimit="10"/>
<path d="M10.7559 201.657C11.947 202.45 13.1933 203.156 14.4853 203.771" stroke="#C1BFEB" stroke-linecap="round" stroke-linejoin="round"/>
<path d="M1.46191 190.707C2.59584 193.411 4.24467 195.868 6.3161 197.939" stroke="#C1BFEB" stroke-linecap="round" stroke-linejoin="round"/>
<path d="M53.9463 120.636C58.8639 117.242 64.7616 115.572 70.7228 115.886" stroke="#C1BFEB" stroke-linecap="round" stroke-linejoin="round"/>
<path d="M48.8193 125.387C49.6446 124.305 50.5811 123.314 51.6135 122.43" stroke="#C1BFEB" stroke-linecap="round" stroke-linejoin="round"/>
<path d="M330.457 81.1218H324.833V96.0386H330.457V81.1218Z" fill="#131313" stroke="#131313" stroke-miterlimit="10"/>
<path d="M330.457 211.869H324.833V226.785H330.457V211.869Z" fill="#131313" stroke="#131313" stroke-miterlimit="10"/>
<path d="M179.184 37.5708H173.561V52.4875H179.184V37.5708Z" fill="#131313" stroke="#131313" stroke-miterlimit="10"/>
<path d="M179.184 168.437H173.561V183.354H179.184V168.437Z" fill="#131313" stroke="#131313" stroke-miterlimit="10"/>
<path d="M326.68 29.3169H178.651V61.4783H326.68V29.3169Z" fill="white" stroke="#131313" stroke-miterlimit="10"/>
<path d="M287.787 37.5234H185.767V53.2717H287.787V37.5234Z" fill="#F88419" stroke="#131313" stroke-miterlimit="10"/>
<path d="M301.604 48.6753C303.788 48.6753 305.558 46.8993 305.558 44.7086C305.558 42.5179 303.788 40.7419 301.604 40.7419C299.42 40.7419 297.649 42.5179 297.649 44.7086C297.649 46.8993 299.42 48.6753 301.604 48.6753Z" fill="white" stroke="#131313" stroke-miterlimit="10"/>
<path d="M321.056 44.7086C321.056 43.9241 320.824 43.1572 320.39 42.5048C319.955 41.8525 319.338 41.3441 318.615 41.0439C317.893 40.7437 317.097 40.6651 316.33 40.8182C315.563 40.9712 314.859 41.349 314.306 41.9038C313.753 42.4585 313.376 43.1653 313.223 43.9348C313.071 44.7042 313.149 45.5018 313.448 46.2266C313.748 46.9514 314.255 47.5709 314.905 48.0068C315.555 48.4426 316.32 48.6753 317.102 48.6753C318.151 48.6753 319.156 48.2574 319.898 47.5135C320.64 46.7696 321.056 45.7606 321.056 44.7086Z" fill="#F88419" stroke="#131313" stroke-miterlimit="10"/>
<path d="M278.529 48.6753C280.712 48.6753 282.483 46.8993 282.483 44.7086C282.483 42.5179 280.712 40.7419 278.529 40.7419C276.345 40.7419 274.574 42.5179 274.574 44.7086C274.574 46.8993 276.345 48.6753 278.529 48.6753Z" fill="white" stroke="#131313" stroke-miterlimit="10"/>
<path d="M321.068 61.478H184.275V72.4875H321.068V61.478Z" fill="#131313" stroke="#131313" stroke-miterlimit="10"/>
<path d="M326.68 72.4875H178.651V104.649H326.68V72.4875Z" fill="white" stroke="#131313" stroke-miterlimit="10"/>
<path d="M287.787 80.6943H185.767V96.4424H287.787V80.6943Z" fill="#F88419" stroke="#131313" stroke-miterlimit="10"/>
<path d="M301.604 91.8579C303.788 91.8579 305.558 90.082 305.558 87.8912C305.558 85.7005 303.788 83.9246 301.604 83.9246C299.42 83.9246 297.649 85.7005 297.649 87.8912C297.649 90.082 299.42 91.8579 301.604 91.8579Z" fill="#F88419" stroke="#131313" stroke-miterlimit="10"/>
<path d="M321.056 87.8912C321.056 87.1067 320.824 86.3398 320.39 85.6875C319.955 85.0352 319.338 84.5267 318.615 84.2265C317.893 83.9263 317.097 83.8477 316.33 84.0008C315.563 84.1538 314.859 84.5316 314.306 85.0864C313.753 85.6411 313.376 86.3479 313.223 87.1174C313.071 87.8868 313.149 88.6844 313.448 89.4092C313.748 90.134 314.255 90.7535 314.905 91.1894C315.555 91.6252 316.32 91.8579 317.102 91.8579C317.622 91.8595 318.137 91.7579 318.617 91.5591C319.097 91.3603 319.534 91.0682 319.902 90.6996C320.269 90.3309 320.56 89.893 320.758 89.411C320.957 88.9291 321.058 88.4126 321.056 87.8912Z" fill="white" stroke="#2E353A" stroke-miterlimit="10"/>
<path d="M278.529 91.8579C280.712 91.8579 282.483 90.082 282.483 87.8912C282.483 85.7005 280.712 83.9246 278.529 83.9246C276.345 83.9246 274.574 85.7005 274.574 87.8912C274.574 90.082 276.345 91.8579 278.529 91.8579Z" fill="white" stroke="#131313" stroke-miterlimit="10"/>
<path d="M321.068 104.661H184.275V115.67H321.068V104.661Z" fill="#131313" stroke="#131313" stroke-miterlimit="10"/>
<path d="M326.68 115.67H178.651V147.831H326.68V115.67Z" fill="white" stroke="#131313" stroke-miterlimit="10"/>
<path d="M287.787 123.876H185.767V139.625H287.787V123.876Z" fill="#F88419" stroke="#131313" stroke-miterlimit="10"/>
<path d="M301.604 135.028C303.788 135.028 305.558 133.252 305.558 131.062C305.558 128.871 303.788 127.095 301.604 127.095C299.42 127.095 297.649 128.871 297.649 131.062C297.649 133.252 299.42 135.028 301.604 135.028Z" fill="white" stroke="#131313" stroke-miterlimit="10"/>
<path d="M321.056 131.062C321.056 130.277 320.824 129.51 320.39 128.858C319.955 128.206 319.338 127.697 318.615 127.397C317.893 127.097 317.097 127.018 316.33 127.171C315.563 127.324 314.859 127.702 314.306 128.257C313.753 128.812 313.376 129.518 313.223 130.288C313.071 131.057 313.149 131.855 313.448 132.58C313.748 133.304 314.255 133.924 314.905 134.36C315.555 134.796 316.32 135.028 317.102 135.028C318.151 135.028 319.156 134.61 319.898 133.867C320.64 133.123 321.056 132.114 321.056 131.062Z" fill="#F88419" stroke="#131313" stroke-miterlimit="10"/>
<path d="M278.529 135.028C280.712 135.028 282.483 133.252 282.483 131.062C282.483 128.871 280.712 127.095 278.529 127.095C276.345 127.095 274.574 128.871 274.574 131.062C274.574 133.252 276.345 135.028 278.529 135.028Z" fill="white" stroke="#131313" stroke-miterlimit="10"/>
<path d="M321.068 147.831H184.275V158.841H321.068V147.831Z" fill="#131313" stroke="#131313" stroke-miterlimit="10"/>
<path d="M326.68 158.841H178.651V191.002H326.68V158.841Z" fill="white" stroke="#131313" stroke-miterlimit="10"/>
<path d="M287.787 167.047H185.767V182.795H287.787V167.047Z" fill="#F88419" stroke="#131313" stroke-miterlimit="10"/>
<path d="M301.604 178.211C303.788 178.211 305.558 176.435 305.558 174.245C305.558 172.054 303.788 170.278 301.604 170.278C299.42 170.278 297.649 172.054 297.649 174.245C297.649 176.435 299.42 178.211 301.604 178.211Z" fill="#F88419" stroke="#131313" stroke-miterlimit="10"/>
<path d="M321.056 174.244C321.056 173.46 320.824 172.693 320.39 172.041C319.955 171.388 319.338 170.88 318.615 170.58C317.893 170.28 317.097 170.201 316.33 170.354C315.563 170.507 314.859 170.885 314.306 171.44C313.753 171.994 313.376 172.701 313.223 173.471C313.071 174.24 313.149 175.038 313.448 175.762C313.748 176.487 314.255 177.107 314.905 177.543C315.555 177.979 316.32 178.211 317.102 178.211C317.622 178.213 318.137 178.111 318.617 177.912C319.097 177.714 319.534 177.422 319.902 177.053C320.269 176.684 320.56 176.246 320.758 175.764C320.957 175.282 321.058 174.766 321.056 174.244Z" fill="white" stroke="#131313" stroke-miterlimit="10"/>
<path d="M278.529 178.211C280.712 178.211 282.483 176.435 282.483 174.245C282.483 172.054 280.712 170.278 278.529 170.278C276.345 170.278 274.574 172.054 274.574 174.245C274.574 176.435 276.345 178.211 278.529 178.211Z" fill="white" stroke="#131313" stroke-miterlimit="10"/>
<path d="M321.068 191.014H184.275V202.023H321.068V191.014Z" fill="#131313" stroke="#131313" stroke-miterlimit="10"/>
<path d="M326.68 202.023H178.651V234.185H326.68V202.023Z" fill="white" stroke="#131313" stroke-miterlimit="10"/>
<path d="M287.787 210.23H185.767V225.978H287.787V210.23Z" fill="#F88419" stroke="#131313" stroke-miterlimit="10"/>
<path d="M301.604 221.382C303.788 221.382 305.558 219.606 305.558 217.415C305.558 215.224 303.788 213.448 301.604 213.448C299.42 213.448 297.649 215.224 297.649 217.415C297.649 219.606 299.42 221.382 301.604 221.382Z" fill="white" stroke="#131313" stroke-miterlimit="10"/>
<path d="M321.056 217.415C321.056 216.631 320.824 215.864 320.39 215.211C319.955 214.559 319.338 214.051 318.615 213.75C317.893 213.45 317.097 213.372 316.33 213.525C315.563 213.678 314.859 214.056 314.306 214.61C313.753 215.165 313.376 215.872 313.223 216.641C313.071 217.411 313.149 218.208 313.448 218.933C313.748 219.658 314.255 220.277 314.905 220.713C315.555 221.149 316.32 221.382 317.102 221.382C318.151 221.382 319.156 220.964 319.898 220.22C320.64 219.476 321.056 218.467 321.056 217.415Z" fill="#F88419" stroke="#131313" stroke-miterlimit="10"/>
<path d="M278.529 221.382C280.712 221.382 282.483 219.606 282.483 217.415C282.483 215.224 280.712 213.448 278.529 213.448C276.345 213.448 274.574 215.224 274.574 217.415C274.574 219.606 276.345 221.382 278.529 221.382Z" fill="white" stroke="#131313" stroke-miterlimit="10"/>
<path d="M262.521 24.9939H270.809" stroke="#2E353A" stroke-linecap="round" stroke-linejoin="round"/>
<path d="M205.101 24.9939H253.05" stroke="#2E353A" stroke-linecap="round" stroke-linejoin="round"/>
<path d="M172.542 220.361V226.299" stroke="#131313" stroke-miterlimit="10"/>
<path d="M172.542 201.952V214.422" stroke="#131313" stroke-miterlimit="10"/>
<path d="M305.807 254.375H200.306V326.88H305.807V254.375Z" fill="#131313" stroke="#131313" stroke-miterlimit="10"/>
<path d="M321.636 358.934H184.488L200.306 326.88H305.807L321.636 358.934Z" fill="white" stroke="#131313" stroke-miterlimit="10"/>
<path d="M298.908 259.844H206.193V320.877H298.908V259.844Z" fill="white" stroke="#131313" stroke-miterlimit="10"/>
<path d="M268.751 293.599L268.205 291.46L260.599 293.5L254.187 289.817L260.599 286.135L268.205 288.175L268.751 286.035L263.284 284.542L269 281.258L267.906 279.317L262.19 282.651L263.632 277.178L261.544 276.63L259.506 284.194L253.094 287.926V280.512L258.661 274.938L257.12 273.396L253.094 277.377V270.758H250.906V277.377L246.88 273.396L245.339 274.938L250.906 280.512V287.926L244.494 284.194L242.456 276.63L240.368 277.178L241.81 282.651L236.094 279.317L235 281.258L240.716 284.542L235.249 286.035L235.795 288.175L243.401 286.135L249.813 289.817L243.401 293.5L235.795 291.46L235.249 293.599L240.716 295.092L235 298.377L236.094 300.317L241.81 296.983L240.368 302.457L242.456 303.005L244.494 295.441L250.906 291.708V299.123L245.339 304.697L246.88 306.239L250.906 302.258V308.877H253.094V302.258L257.12 306.239L258.661 304.697L253.094 299.123V291.708L259.506 295.441L261.544 303.005L263.632 302.457L262.19 296.983L267.906 300.317L269 298.377L263.284 295.092L268.751 293.599Z" fill="#0053F1"/>
<path d="M248.658 337.034L248.836 333.127H243.271L242.893 337.034H248.658Z" fill="white" stroke="#131313" stroke-miterlimit="10"/>
<path d="M260.178 337.034L259.989 333.127H254.412L254.424 337.034H260.178Z" fill="white" stroke="#131313" stroke-miterlimit="10"/>
<path d="M290.179 341.202H296.146L294.737 337.034H288.983L290.179 341.202Z" fill="white" stroke="#131313" stroke-miterlimit="10"/>
<path d="M242.893 337.034L243.272 333.127H237.695L237.139 337.034H242.893Z" fill="white" stroke="#131313" stroke-miterlimit="10"/>
<path d="M231.372 337.034L232.118 333.127H226.542L225.618 337.034H231.372Z" fill="white" stroke="#131313" stroke-miterlimit="10"/>
<path d="M283.218 337.034L282.282 333.127H276.706L277.464 337.034H283.218Z" fill="white" stroke="#131313" stroke-miterlimit="10"/>
<path d="M288.983 337.034L287.859 333.127H282.282L283.218 337.034H288.983Z" fill="white" stroke="#131313" stroke-miterlimit="10"/>
<path d="M225.618 337.034L226.542 333.127H220.965L219.853 337.034H225.618Z" fill="white" stroke="#131313" stroke-miterlimit="10"/>
<path d="M265.943 337.034L265.565 333.127H259.988L260.178 337.034H265.943Z" fill="white" stroke="#131313" stroke-miterlimit="10"/>
<path d="M294.737 337.034L293.435 333.127H287.858L288.983 337.034H294.737Z" fill="white" stroke="#131313" stroke-miterlimit="10"/>
<path d="M277.464 337.034L276.706 333.127H271.142L271.698 337.034H277.464Z" fill="white" stroke="#131313" stroke-miterlimit="10"/>
<path d="M271.698 337.034L271.142 333.127H265.565L265.944 337.034H271.698Z" fill="white" stroke="#131313" stroke-miterlimit="10"/>
<path d="M254.424 337.034L254.412 333.127H248.836L248.658 337.034H254.424Z" fill="white" stroke="#131313" stroke-miterlimit="10"/>
<path d="M214.098 337.034H208.333L206.746 341.202H212.701L214.098 337.034Z" fill="white" stroke="#131313" stroke-miterlimit="10"/>
<path d="M215.389 333.127H209.825L208.333 337.034H214.099L215.389 333.127Z" fill="white" stroke="#131313" stroke-miterlimit="10"/>
<path d="M219.853 337.034L220.966 333.127H215.389L214.099 337.034H219.853Z" fill="white" stroke="#131313" stroke-miterlimit="10"/>
<path d="M205.042 345.68L203.207 350.49H209.612L211.211 345.68H205.042Z" fill="white" stroke="#131313" stroke-miterlimit="10"/>
<path d="M212.702 341.203H206.747L205.042 345.68H211.21L212.702 341.203Z" fill="white" stroke="#131313" stroke-miterlimit="10"/>
<path d="M211.21 345.68L209.611 350.49H216.016L217.39 345.68H211.21Z" fill="white" stroke="#131313" stroke-miterlimit="10"/>
<path d="M237.139 337.034L237.695 333.127H232.119L231.373 337.034H237.139Z" fill="white" stroke="#131313" stroke-miterlimit="10"/>
<path d="M236.546 341.202L237.138 337.034H231.372L230.579 341.202H236.546Z" fill="white" stroke="#131313" stroke-miterlimit="10"/>
<path d="M230.579 341.202L231.372 337.034H225.619L224.624 341.202H230.579Z" fill="white" stroke="#131313" stroke-miterlimit="10"/>
<path d="M242.502 341.202L242.893 337.034H237.139L236.547 341.202H242.502Z" fill="white" stroke="#131313" stroke-miterlimit="10"/>
<path d="M219.853 337.034H214.099L212.702 341.202H218.669L219.853 337.034Z" fill="white" stroke="#131313" stroke-miterlimit="10"/>
<path d="M291.47 345.68H297.639L296.147 341.203H290.18L291.47 345.68Z" fill="white" stroke="#131313" stroke-miterlimit="10"/>
<path d="M224.624 341.202L225.619 337.034H219.853L218.669 341.202H224.624Z" fill="white" stroke="#131313" stroke-miterlimit="10"/>
<path d="M212.702 341.203L211.21 345.68H217.39L218.669 341.203H212.702Z" fill="white" stroke="#131313" stroke-miterlimit="10"/>
<path d="M278.257 341.202L277.464 337.034H271.698L272.302 341.202H278.257Z" fill="white" stroke="#131313" stroke-miterlimit="10"/>
<path d="M272.301 341.202L271.697 337.034H265.943L266.346 341.202H272.301Z" fill="white" stroke="#131313" stroke-miterlimit="10"/>
<path d="M290.179 341.202L288.984 337.034H283.218L284.224 341.202H290.179Z" fill="white" stroke="#131313" stroke-miterlimit="10"/>
<path d="M254.424 341.202V337.034H248.658L248.457 341.202H254.424Z" fill="white" stroke="#131313" stroke-miterlimit="10"/>
<path d="M266.346 341.202L265.944 337.034H260.178L260.379 341.202H266.346Z" fill="white" stroke="#131313" stroke-miterlimit="10"/>
<path d="M260.379 341.202L260.178 337.034H254.424V341.202H260.379Z" fill="white" stroke="#131313" stroke-miterlimit="10"/>
<path d="M248.457 341.202L248.658 337.034H242.893L242.502 341.202H248.457Z" fill="white" stroke="#131313" stroke-miterlimit="10"/>
<path d="M266.347 341.203L266.773 345.68H272.953L272.302 341.203H266.347Z" fill="white" stroke="#131313" stroke-miterlimit="10"/>
<path d="M272.302 341.203L272.953 345.68H279.121L278.257 341.203H272.302Z" fill="white" stroke="#131313" stroke-miterlimit="10"/>
<path d="M218.669 341.203L217.391 345.68H223.559L224.625 341.203H218.669Z" fill="white" stroke="#131313" stroke-miterlimit="10"/>
<path d="M278.257 341.203L279.121 345.68H285.289L284.224 341.203H278.257Z" fill="white" stroke="#131313" stroke-miterlimit="10"/>
<path d="M254.424 341.203V345.68H260.604L260.379 341.203H254.424Z" fill="white" stroke="#131313" stroke-miterlimit="10"/>
<path d="M284.224 341.203L285.289 345.68H291.469L290.179 341.203H284.224Z" fill="white" stroke="#131313" stroke-miterlimit="10"/>
<path d="M260.379 341.203L260.604 345.68H266.772L266.346 341.203H260.379Z" fill="white" stroke="#131313" stroke-miterlimit="10"/>
<path d="M230.579 341.203L229.727 345.68H235.907L236.546 341.203H230.579Z" fill="white" stroke="#131313" stroke-miterlimit="10"/>
<path d="M224.624 341.203L223.559 345.68H229.727L230.579 341.203H224.624Z" fill="white" stroke="#131313" stroke-miterlimit="10"/>
<path d="M248.457 341.203L248.256 345.68H254.424V341.203H248.457Z" fill="white" stroke="#131313" stroke-miterlimit="10"/>
<path d="M242.501 341.203L242.075 345.68H248.255L248.457 341.203H242.501Z" fill="white" stroke="#131313" stroke-miterlimit="10"/>
<path d="M236.547 341.203L235.907 345.68H242.076L242.502 341.203H236.547Z" fill="white" stroke="#131313" stroke-miterlimit="10"/>
<path d="M284.224 341.202L283.218 337.034H277.464L278.257 341.202H284.224Z" fill="white" stroke="#131313" stroke-miterlimit="10"/>
<path d="M215.39 333.127L216.728 329.125H211.341L209.825 333.127H215.39Z" fill="white" stroke="#131313" stroke-miterlimit="10"/>
<path d="M209.825 333.127H204.675L203.018 337.034H208.333L209.825 333.127Z" fill="white" stroke="#131313" stroke-miterlimit="10"/>
<path d="M211.34 329.125H206.38L204.675 333.127H209.825L211.34 329.125Z" fill="white" stroke="#131313" stroke-miterlimit="10"/>
<path d="M208.333 337.034H203.017L201.241 341.202H206.747L208.333 337.034Z" fill="white" stroke="#131313" stroke-miterlimit="10"/>
<path d="M206.746 341.203H201.241L199.335 345.68H205.042L206.746 341.203Z" fill="white" stroke="#131313" stroke-miterlimit="10"/>
<path d="M205.042 345.68H199.335L197.299 350.49H203.207L205.042 345.68Z" fill="white" stroke="#131313" stroke-miterlimit="10"/>
<path d="M300.503 337.034L302.101 341.202H307.37L305.594 337.034H300.503Z" fill="white" stroke="#131313" stroke-miterlimit="10"/>
<path d="M303.818 345.68H309.276L307.37 341.203H302.102L303.818 345.68Z" fill="white" stroke="#131313" stroke-miterlimit="10"/>
<path d="M305.653 350.49H311.313L309.276 345.68H303.818L305.653 350.49Z" fill="white" stroke="#131313" stroke-miterlimit="10"/>
<path d="M259.989 333.127L259.799 329.125H254.412V333.127H259.989Z" fill="white" stroke="#131313" stroke-miterlimit="10"/>
<path d="M300.503 337.034H305.594L303.937 333.127H299.012L300.503 337.034Z" fill="white" stroke="#131313" stroke-miterlimit="10"/>
<path d="M297.638 345.68H303.818L302.102 341.203H296.146L297.638 345.68Z" fill="white" stroke="#131313" stroke-miterlimit="10"/>
<path d="M220.966 333.127L222.115 329.125H216.728L215.39 333.127H220.966Z" fill="white" stroke="#131313" stroke-miterlimit="10"/>
<path d="M293.436 333.127L294.738 337.034H300.504L299.012 333.127H293.436Z" fill="white" stroke="#131313" stroke-miterlimit="10"/>
<path d="M303.937 333.127L302.244 329.125H297.473L299.012 333.127H303.937Z" fill="white" stroke="#131313" stroke-miterlimit="10"/>
<path d="M299.012 333.127L297.473 329.125H292.098L293.435 333.127H299.012Z" fill="white" stroke="#131313" stroke-miterlimit="10"/>
<path d="M279.121 345.68L280.045 350.49H286.45L285.289 345.68H279.121Z" fill="white" stroke="#131313" stroke-miterlimit="10"/>
<path d="M299.248 350.49H305.653L303.818 345.68H297.638L299.248 350.49Z" fill="white" stroke="#131313" stroke-miterlimit="10"/>
<path d="M293.435 333.127L292.097 329.125H286.71L287.858 333.127H293.435Z" fill="white" stroke="#131313" stroke-miterlimit="10"/>
<path d="M291.47 345.68L292.843 350.49H299.248L297.638 345.68H291.47Z" fill="white" stroke="#131313" stroke-miterlimit="10"/>
<path d="M285.289 345.68L286.449 350.49H292.843L291.469 345.68H285.289Z" fill="white" stroke="#131313" stroke-miterlimit="10"/>
<path d="M296.146 341.202H302.101L300.503 337.034H294.737L296.146 341.202Z" fill="white" stroke="#131313" stroke-miterlimit="10"/>
<path d="M243.272 333.127L243.651 329.125H238.264L237.695 333.127H243.272Z" fill="white" stroke="#131313" stroke-miterlimit="10"/>
<path d="M287.859 333.127L286.71 329.125H281.323L282.282 333.127H287.859Z" fill="white" stroke="#131313" stroke-miterlimit="10"/>
<path d="M237.696 333.127L238.264 329.125H232.877L232.119 333.127H237.696Z" fill="white" stroke="#131313" stroke-miterlimit="10"/>
<path d="M254.412 333.127V329.125H249.025L248.836 333.127H254.412Z" fill="white" stroke="#131313" stroke-miterlimit="10"/>
<path d="M232.118 333.127L232.876 329.125H227.489L226.542 333.127H232.118Z" fill="white" stroke="#131313" stroke-miterlimit="10"/>
<path d="M226.542 333.127L227.489 329.125H222.114L220.966 333.127H226.542Z" fill="white" stroke="#131313" stroke-miterlimit="10"/>
<path d="M248.836 333.127L249.026 329.125H243.65L243.271 333.127H248.836Z" fill="white" stroke="#131313" stroke-miterlimit="10"/>
<path d="M282.282 333.127L281.323 329.125H275.948L276.706 333.127H282.282Z" fill="white" stroke="#131313" stroke-miterlimit="10"/>
<path d="M276.706 333.127L275.948 329.125H270.562L271.142 333.127H276.706Z" fill="white" stroke="#131313" stroke-miterlimit="10"/>
<path d="M265.565 333.127L265.174 329.125H259.799L259.988 333.127H265.565Z" fill="white" stroke="#131313" stroke-miterlimit="10"/>
<path d="M279.121 345.68H272.952H266.772H260.604H254.424H248.255H242.075H235.907H229.727H223.558H217.39L216.017 350.49H222.422H228.815H235.22H241.625H248.03H254.424H260.829H267.234H273.639H280.044L279.121 345.68Z" fill="white" stroke="#131313" stroke-miterlimit="10"/>
<path d="M271.141 333.127L270.561 329.125H265.174L265.565 333.127H271.141Z" fill="white" stroke="#131313" stroke-miterlimit="10"/>
<path d="M321.696 358.934H184.488V360.882H321.696V358.934Z" fill="#131313" stroke="#131313" stroke-linecap="round" stroke-linejoin="round"/>
<path d="M344.629 254.375H425.137V326.88H344.629C344.12 326.88 343.632 326.677 343.273 326.316C342.913 325.955 342.711 325.466 342.711 324.956V256.31C342.709 256.057 342.758 255.805 342.854 255.57C342.949 255.336 343.09 255.122 343.269 254.942C343.447 254.762 343.659 254.619 343.892 254.522C344.126 254.425 344.376 254.375 344.629 254.375Z" fill="white" stroke="#2E353A" stroke-linecap="round" stroke-linejoin="round"/>
<path d="M427.908 254.375H344.878V326.88H427.908V254.375Z" fill="#131313" stroke="#131313" stroke-miterlimit="10"/>
<path d="M423.907 260.111H351.805V321.143H423.907V260.111Z" fill="white" stroke="#2E353A" stroke-linecap="round" stroke-linejoin="round"/>
<path d="M400.803 293.599L400.368 291.46L394.329 293.5L389.237 289.817L394.329 286.135L400.368 288.175L400.803 286.035L396.461 284.542L401 281.258L400.132 279.317L395.592 282.651L396.737 277.178L395.079 276.63L393.461 284.194L388.368 287.926V280.512L392.789 274.938L391.566 273.396L388.368 277.377V270.758H386.632V277.377L383.434 273.396L382.211 274.938L386.632 280.512V287.926L381.539 284.194L379.921 276.63L378.263 277.178L379.408 282.651L374.868 279.317L374 281.258L378.539 284.542L374.197 286.035L374.632 288.175L380.671 286.135L385.763 289.817L380.671 293.5L374.632 291.46L374.197 293.599L378.539 295.092L374 298.377L374.868 300.317L379.408 296.983L378.263 302.457L379.921 303.005L381.539 295.441L386.632 291.708V299.123L382.211 304.697L383.434 306.239L386.632 302.258V308.877H388.368V302.258L391.566 306.239L392.789 304.697L388.368 299.123V291.708L393.461 295.441L395.079 303.005L396.737 302.457L395.592 296.983L400.132 300.317L401 298.377L396.461 295.092L400.803 293.599Z" fill="#0053F1"/>
<path d="M344.878 326.88L407.816 345.134H492.67L427.908 326.88H344.878Z" fill="white" stroke="#131313" stroke-miterlimit="10"/>
<path d="M412.09 334.101L404.217 331.856L400.771 331.82L408.621 334.077L412.09 334.101Z" fill="white" stroke="#2E353A" stroke-width="0.25" stroke-miterlimit="10"/>
<path d="M418.945 334.16L411.048 331.927L407.65 331.892L415.524 334.136L418.945 334.16Z" fill="white" stroke="#2E353A" stroke-width="0.25" stroke-miterlimit="10"/>
<path d="M443.831 336.523L447.123 336.547L438.942 334.303L435.662 334.279L443.831 336.523Z" fill="white" stroke="#2E353A" stroke-width="0.25" stroke-miterlimit="10"/>
<path d="M408.621 334.077L400.772 331.821L397.303 331.785L405.129 334.053L408.621 334.077Z" fill="white" stroke="#2E353A" stroke-width="0.25" stroke-miterlimit="10"/>
<path d="M401.624 334.029L393.799 331.761L390.282 331.725L398.084 334.006L401.624 334.029Z" fill="white" stroke="#2E353A" stroke-width="0.25" stroke-miterlimit="10"/>
<path d="M432.371 334.255L424.415 332.046L421.111 332.022L429.044 334.231L432.371 334.255Z" fill="white" stroke="#2E353A" stroke-width="0.25" stroke-miterlimit="10"/>
<path d="M435.662 334.279L427.695 332.082L424.415 332.046L432.371 334.255L435.662 334.279Z" fill="white" stroke="#2E353A" stroke-width="0.25" stroke-miterlimit="10"/>
<path d="M398.084 334.006L390.282 331.725L386.73 331.689L394.509 333.982L398.084 334.006Z" fill="white" stroke="#2E353A" stroke-width="0.25" stroke-miterlimit="10"/>
<path d="M422.331 334.184L414.422 331.951L411.048 331.927L418.945 334.16L422.331 334.184Z" fill="white" stroke="#2E353A" stroke-width="0.25" stroke-miterlimit="10"/>
<path d="M438.942 334.302L430.962 332.117L427.694 332.082L435.662 334.279L438.942 334.302Z" fill="white" stroke="#2E353A" stroke-width="0.25" stroke-miterlimit="10"/>
<path d="M429.045 334.231L421.112 332.022L417.773 331.987L425.706 334.208L429.045 334.231Z" fill="white" stroke="#2E353A" stroke-width="0.25" stroke-miterlimit="10"/>
<path d="M425.706 334.208L417.773 331.987L414.423 331.951L422.332 334.184L425.706 334.208Z" fill="white" stroke="#2E353A" stroke-width="0.25" stroke-miterlimit="10"/>
<path d="M415.524 334.136L407.65 331.891L404.217 331.856L412.09 334.101L415.524 334.136Z" fill="white" stroke="#2E353A" stroke-width="0.25" stroke-miterlimit="10"/>
<path d="M390.921 333.946L387.298 333.923L395.254 336.286L398.889 336.31L390.921 333.946Z" fill="white" stroke="#2E353A" stroke-width="0.25" stroke-miterlimit="10"/>
<path d="M383.154 331.654L379.555 331.618L387.298 333.923L390.921 333.947L383.154 331.654Z" fill="white" stroke="#2E353A" stroke-width="0.25" stroke-miterlimit="10"/>
<path d="M394.508 333.982L386.73 331.69L383.154 331.654L390.921 333.946L394.508 333.982Z" fill="white" stroke="#2E353A" stroke-width="0.25" stroke-miterlimit="10"/>
<path d="M403.412 338.709L411.806 341.203H415.477L407.071 338.721L403.412 338.709Z" fill="white" stroke="#2E353A" stroke-width="0.25" stroke-miterlimit="10"/>
<path d="M398.889 336.309L395.254 336.286L403.411 338.709L407.07 338.72L398.889 336.309Z" fill="white" stroke="#2E353A" stroke-width="0.25" stroke-miterlimit="10"/>
<path d="M407.07 338.72L415.476 341.203H419.123L410.693 338.732L407.07 338.72Z" fill="white" stroke="#2E353A" stroke-width="0.25" stroke-miterlimit="10"/>
<path d="M405.128 334.053L397.302 331.785L393.798 331.761L401.624 334.029L405.128 334.053Z" fill="white" stroke="#2E353A" stroke-width="0.25" stroke-miterlimit="10"/>
<path d="M413.167 336.381L405.129 334.053L401.624 334.029L409.639 336.357L413.167 336.381Z" fill="white" stroke="#2E353A" stroke-width="0.25" stroke-miterlimit="10"/>
<path d="M409.639 336.357L401.624 334.029L398.084 334.006L406.087 336.345L409.639 336.357Z" fill="white" stroke="#2E353A" stroke-width="0.25" stroke-miterlimit="10"/>
<path d="M416.672 336.393L408.622 334.077L405.129 334.053L413.168 336.381L416.672 336.393Z" fill="white" stroke="#2E353A" stroke-width="0.25" stroke-miterlimit="10"/>
<path d="M394.508 333.982L390.921 333.947L398.889 336.31L402.5 336.322L394.508 333.982Z" fill="white" stroke="#2E353A" stroke-width="0.25" stroke-miterlimit="10"/>
<path d="M452.214 338.839L455.506 338.851L447.123 336.547L443.832 336.524L452.214 338.839Z" fill="white" stroke="#2E353A" stroke-width="0.25" stroke-miterlimit="10"/>
<path d="M406.088 336.345L398.084 334.006L394.509 333.982L402.5 336.321L406.088 336.345Z" fill="white" stroke="#2E353A" stroke-width="0.25" stroke-miterlimit="10"/>
<path d="M398.889 336.31L407.07 338.721L410.693 338.732L402.5 336.322L398.889 336.31Z" fill="white" stroke="#2E353A" stroke-width="0.25" stroke-miterlimit="10"/>
<path d="M437.189 336.5L429.044 334.231L425.705 334.208L433.827 336.476L437.189 336.5Z" fill="white" stroke="#2E353A" stroke-width="0.25" stroke-miterlimit="10"/>
<path d="M433.827 336.476L425.705 334.208L422.331 334.184L430.453 336.464L433.827 336.476Z" fill="white" stroke="#2E353A" stroke-width="0.25" stroke-miterlimit="10"/>
<path d="M443.832 336.523L435.662 334.279L432.371 334.255L440.528 336.512L443.832 336.523Z" fill="white" stroke="#2E353A" stroke-width="0.25" stroke-miterlimit="10"/>
<path d="M423.61 336.428L415.523 334.136L412.09 334.101L420.153 336.405L423.61 336.428Z" fill="white" stroke="#2E353A" stroke-width="0.25" stroke-miterlimit="10"/>
<path d="M430.453 336.464L422.331 334.184L418.945 334.16L427.043 336.44L430.453 336.464Z" fill="white" stroke="#2E353A" stroke-width="0.25" stroke-miterlimit="10"/>
<path d="M427.043 336.44L418.945 334.16L415.523 334.136L423.61 336.429L427.043 336.44Z" fill="white" stroke="#2E353A" stroke-width="0.25" stroke-miterlimit="10"/>
<path d="M420.153 336.404L412.09 334.1L408.621 334.077L416.672 336.392L420.153 336.404Z" fill="white" stroke="#2E353A" stroke-width="0.25" stroke-miterlimit="10"/>
<path d="M430.453 336.464L438.776 338.804L442.174 338.816L433.827 336.476L430.453 336.464Z" fill="white" stroke="#2E353A" stroke-width="0.25" stroke-miterlimit="10"/>
<path d="M433.827 336.476L442.174 338.816L445.536 338.827L437.19 336.5L433.827 336.476Z" fill="white" stroke="#2E353A" stroke-width="0.25" stroke-miterlimit="10"/>
<path d="M402.5 336.322L410.693 338.733L414.304 338.744L406.087 336.345L402.5 336.322Z" fill="white" stroke="#2E353A" stroke-width="0.25" stroke-miterlimit="10"/>
<path d="M437.189 336.5L445.536 338.827H448.887L440.528 336.512L437.189 336.5Z" fill="white" stroke="#2E353A" stroke-width="0.25" stroke-miterlimit="10"/>
<path d="M423.609 336.428L431.909 338.78L435.354 338.792L427.043 336.44L423.609 336.428Z" fill="white" stroke="#2E353A" stroke-width="0.25" stroke-miterlimit="10"/>
<path d="M440.528 336.511L448.887 338.827L452.214 338.839L443.832 336.523L440.528 336.511Z" fill="white" stroke="#2E353A" stroke-width="0.25" stroke-miterlimit="10"/>
<path d="M427.043 336.44L435.354 338.792L438.776 338.803L430.453 336.464L427.043 336.44Z" fill="white" stroke="#2E353A" stroke-width="0.25" stroke-miterlimit="10"/>
<path d="M409.64 336.357L417.868 338.756H421.42L413.168 336.381L409.64 336.357Z" fill="white" stroke="#2E353A" stroke-width="0.25" stroke-miterlimit="10"/>
<path d="M406.088 336.345L414.305 338.744L417.868 338.756L409.64 336.357L406.088 336.345Z" fill="white" stroke="#2E353A" stroke-width="0.25" stroke-miterlimit="10"/>
<path d="M420.152 336.405L428.44 338.78H431.909L423.609 336.428L420.152 336.405Z" fill="white" stroke="#2E353A" stroke-width="0.25" stroke-miterlimit="10"/>
<path d="M416.672 336.393L424.948 338.768L428.44 338.78L420.153 336.405L416.672 336.393Z" fill="white" stroke="#2E353A" stroke-width="0.25" stroke-miterlimit="10"/>
<path d="M413.167 336.381L421.419 338.756L424.947 338.768L416.671 336.393L413.167 336.381Z" fill="white" stroke="#2E353A" stroke-width="0.25" stroke-miterlimit="10"/>
<path d="M440.528 336.511L432.371 334.255L429.044 334.231L437.189 336.5L440.528 336.511Z" fill="white" stroke="#2E353A" stroke-width="0.25" stroke-miterlimit="10"/>
<path d="M383.154 331.654L374.878 329.208L371.303 329.172L379.555 331.618L383.154 331.654Z" fill="white" stroke="#2E353A" stroke-width="0.25" stroke-miterlimit="10"/>
<path d="M379.556 331.618L376.205 331.583L383.936 333.899L387.299 333.923L379.556 331.618Z" fill="white" stroke="#2E353A" stroke-width="0.25" stroke-miterlimit="10"/>
<path d="M371.303 329.172L367.977 329.125L376.205 331.583L379.556 331.618L371.303 329.172Z" fill="white" stroke="#2E353A" stroke-width="0.25" stroke-miterlimit="10"/>
<path d="M387.298 333.923L383.936 333.899L391.868 336.274L395.254 336.286L387.298 333.923Z" fill="white" stroke="#2E353A" stroke-width="0.25" stroke-miterlimit="10"/>
<path d="M395.254 336.286L391.868 336.274L400.014 338.709H403.412L395.254 336.286Z" fill="white" stroke="#2E353A" stroke-width="0.25" stroke-miterlimit="10"/>
<path d="M403.412 338.709H400.014L408.384 341.203H411.806L403.412 338.709Z" fill="white" stroke="#2E353A" stroke-width="0.25" stroke-miterlimit="10"/>
<path d="M442.197 334.326L450.39 336.559L453.255 336.583L445.051 334.35L442.197 334.326Z" fill="white" stroke="#2E353A" stroke-width="0.25" stroke-miterlimit="10"/>
<path d="M458.785 338.851L461.662 338.863L453.256 336.583L450.391 336.559L458.785 338.851Z" fill="white" stroke="#2E353A" stroke-width="0.25" stroke-miterlimit="10"/>
<path d="M467.404 341.203H470.281L461.662 338.863L458.785 338.851L467.404 341.203Z" fill="white" stroke="#2E353A" stroke-width="0.25" stroke-miterlimit="10"/>
<path d="M411.048 331.927L402.618 329.54L399.232 329.504L407.65 331.891L411.048 331.927Z" fill="white" stroke="#2E353A" stroke-width="0.25" stroke-miterlimit="10"/>
<path d="M442.198 334.326L445.051 334.35L437.048 332.176L434.194 332.141L442.198 334.326Z" fill="white" stroke="#2E353A" stroke-width="0.25" stroke-miterlimit="10"/>
<path d="M455.505 338.851H458.785L450.391 336.559L447.123 336.547L455.505 338.851Z" fill="white" stroke="#2E353A" stroke-width="0.25" stroke-miterlimit="10"/>
<path d="M386.73 331.69L378.431 329.255L374.879 329.208L383.155 331.654L386.73 331.69Z" fill="white" stroke="#2E353A" stroke-width="0.25" stroke-miterlimit="10"/>
<path d="M430.962 332.117L438.942 334.302L442.198 334.326L434.194 332.141L430.962 332.117Z" fill="white" stroke="#2E353A" stroke-width="0.25" stroke-miterlimit="10"/>
<path d="M437.048 332.177L428.5 329.849L425.67 329.813L434.194 332.141L437.048 332.177Z" fill="white" stroke="#2E353A" stroke-width="0.25" stroke-miterlimit="10"/>
<path d="M434.194 332.141L425.67 329.813L422.438 329.778L430.962 332.117L434.194 332.141Z" fill="white" stroke="#2E353A" stroke-width="0.25" stroke-miterlimit="10"/>
<path d="M445.536 338.827L454.108 341.203H457.47L448.887 338.827H445.536Z" fill="white" stroke="#2E353A" stroke-width="0.25" stroke-miterlimit="10"/>
<path d="M464.112 341.203H467.404L458.784 338.851H455.505L464.112 341.203Z" fill="white" stroke="#2E353A" stroke-width="0.25" stroke-miterlimit="10"/>
<path d="M430.962 332.117L422.437 329.778L419.193 329.742L427.694 332.082L430.962 332.117Z" fill="white" stroke="#2E353A" stroke-width="0.25" stroke-miterlimit="10"/>
<path d="M452.214 338.839L460.798 341.202H464.113L455.505 338.851L452.214 338.839Z" fill="white" stroke="#2E353A" stroke-width="0.25" stroke-miterlimit="10"/>
<path d="M448.887 338.827L457.47 341.203H460.797L452.214 338.839L448.887 338.827Z" fill="white" stroke="#2E353A" stroke-width="0.25" stroke-miterlimit="10"/>
<path d="M447.122 336.547L450.39 336.559L442.197 334.326L438.941 334.303L447.122 336.547Z" fill="white" stroke="#2E353A" stroke-width="0.25" stroke-miterlimit="10"/>
<path d="M400.772 331.82L392.401 329.421L388.944 329.374L397.303 331.785L400.772 331.82Z" fill="white" stroke="#2E353A" stroke-width="0.25" stroke-miterlimit="10"/>
<path d="M427.694 332.082L419.193 329.742L415.926 329.694L424.415 332.046L427.694 332.082Z" fill="white" stroke="#2E353A" stroke-width="0.25" stroke-miterlimit="10"/>
<path d="M397.302 331.785L388.944 329.374L385.463 329.338L393.798 331.761L397.302 331.785Z" fill="white" stroke="#2E353A" stroke-width="0.25" stroke-miterlimit="10"/>
<path d="M407.65 331.892L399.232 329.504L395.834 329.457L404.216 331.856L407.65 331.892Z" fill="white" stroke="#2E353A" stroke-width="0.25" stroke-miterlimit="10"/>
<path d="M393.798 331.761L385.463 329.338L381.959 329.291L390.282 331.725L393.798 331.761Z" fill="white" stroke="#2E353A" stroke-width="0.25" stroke-miterlimit="10"/>
<path d="M390.282 331.725L381.959 329.291L378.431 329.255L386.73 331.69L390.282 331.725Z" fill="white" stroke="#2E353A" stroke-width="0.25" stroke-miterlimit="10"/>
<path d="M404.217 331.856L395.835 329.457L392.401 329.421L400.772 331.82L404.217 331.856Z" fill="white" stroke="#2E353A" stroke-width="0.25" stroke-miterlimit="10"/>
<path d="M424.415 332.046L415.926 329.695L412.635 329.659L421.112 332.022L424.415 332.046Z" fill="white" stroke="#2E353A" stroke-width="0.25" stroke-miterlimit="10"/>
<path d="M421.111 332.022L412.634 329.659L409.319 329.623L417.773 331.987L421.111 332.022Z" fill="white" stroke="#2E353A" stroke-width="0.25" stroke-miterlimit="10"/>
<path d="M414.422 331.951L405.981 329.576L402.618 329.54L411.048 331.927L414.422 331.951Z" fill="white" stroke="#2E353A" stroke-width="0.25" stroke-miterlimit="10"/>
<path d="M445.537 338.827L442.174 338.816L438.777 338.804L435.355 338.792L431.91 338.78H428.441L424.948 338.768L421.42 338.756H417.868L414.304 338.744L410.693 338.732L419.123 341.202H422.734H426.333H429.897H433.425H436.941H440.422H443.879H447.313H450.723H454.109L445.537 338.827Z" fill="white" stroke="#2E353A" stroke-width="0.25" stroke-miterlimit="10"/>
<path d="M417.773 331.987L409.319 329.623L405.98 329.576L414.422 331.951L417.773 331.987Z" fill="white" stroke="#2E353A" stroke-width="0.25" stroke-miterlimit="10"/>
<path d="M344.878 326.88V329.303L407.793 348.245L407.816 345.134L344.878 326.88Z" fill="white" stroke="#131313" stroke-miterlimit="10"/>
<path d="M492.67 345.134H407.816V348.234H492.67V345.134Z" fill="#131313" stroke="#131313" stroke-linecap="round" stroke-linejoin="round"/>
<path d="M158.371 326.88H77.8628L77.8628 254.375H158.371C158.88 254.375 159.368 254.577 159.727 254.938C160.087 255.299 160.289 255.788 160.289 256.298V324.944C160.291 325.197 160.242 325.449 160.146 325.684C160.051 325.919 159.91 326.132 159.731 326.312C159.553 326.492 159.341 326.635 159.108 326.732C158.874 326.83 158.624 326.88 158.371 326.88Z" fill="white" stroke="#2E353A" stroke-linecap="round" stroke-linejoin="round"/>
<path d="M75.092 326.88H158.122V254.375H75.092L75.092 326.88Z" fill="#131313" stroke="#131313" stroke-miterlimit="10"/>
<path d="M79.8977 320.914H152V259.881H79.8977L79.8977 320.914Z" fill="white" stroke="#131313" stroke-linecap="round" stroke-linejoin="round"/>
<path d="M103.197 293.599L103.632 291.46L109.671 293.5L114.763 289.817L109.671 286.135L103.632 288.175L103.197 286.035L107.539 284.542L103 281.258L103.868 279.317L108.408 282.651L107.263 277.178L108.921 276.63L110.539 284.194L115.632 287.926V280.512L111.211 274.938L112.434 273.396L115.632 277.377V270.758H117.368V277.377L120.566 273.396L121.789 274.938L117.368 280.512V287.926L122.461 284.194L124.079 276.63L125.737 277.178L124.592 282.651L129.132 279.317L130 281.258L125.461 284.542L129.803 286.035L129.368 288.175L123.329 286.135L118.237 289.817L123.329 293.5L129.368 291.46L129.803 293.599L125.461 295.092L130 298.377L129.132 300.317L124.592 296.983L125.737 302.457L124.079 303.005L122.461 295.441L117.368 291.708V299.123L121.789 304.697L120.566 306.239L117.368 302.258V308.877H115.632V302.258L112.434 306.239L111.211 304.697L115.632 299.123V291.708L110.539 295.441L108.921 303.005L107.263 302.457L108.408 296.983L103.868 300.317L103 298.377L107.539 295.092L103.197 293.599Z" fill="#0053F1"/>
<path d="M158.122 326.88L95.1834 345.134H10.3301L75.0919 326.88H158.122Z" fill="white" stroke="#2E353A" stroke-linecap="round" stroke-linejoin="round"/>
<path d="M90.9092 334.101L98.7824 331.856L102.228 331.82L94.3781 334.077L90.9092 334.101Z" fill="white" stroke="#2E353A" stroke-width="0.25" stroke-miterlimit="10"/>
<path d="M84.0547 334.16L91.9516 331.927L95.3495 331.892L87.4763 334.136L84.0547 334.16Z" fill="white" stroke="#2E353A" stroke-width="0.25" stroke-miterlimit="10"/>
<path d="M59.1673 336.523L55.876 336.547L64.057 334.303L67.3365 334.279L59.1673 336.523Z" fill="white" stroke="#2E353A" stroke-width="0.25" stroke-miterlimit="10"/>
<path d="M94.3779 334.077L102.228 331.821L105.696 331.785L97.8706 334.053L94.3779 334.077Z" fill="white" stroke="#2E353A" stroke-width="0.25" stroke-miterlimit="10"/>
<path d="M101.375 334.029L109.201 331.761L112.717 331.725L104.915 334.006L101.375 334.029Z" fill="white" stroke="#2E353A" stroke-width="0.25" stroke-miterlimit="10"/>
<path d="M70.6289 334.255L78.585 332.046L81.8882 332.022L73.9558 334.231L70.6289 334.255Z" fill="white" stroke="#2E353A" stroke-width="0.25" stroke-miterlimit="10"/>
<path d="M67.3369 334.279L75.3049 332.082L78.5844 332.046L70.6283 334.255L67.3369 334.279Z" fill="white" stroke="#2E353A" stroke-width="0.25" stroke-miterlimit="10"/>
<path d="M104.915 334.006L112.717 331.725L116.269 331.689L108.491 333.982L104.915 334.006Z" fill="white" stroke="#2E353A" stroke-width="0.25" stroke-miterlimit="10"/>
<path d="M80.668 334.184L88.5767 331.951L91.9509 331.927L84.054 334.16L80.668 334.184Z" fill="white" stroke="#2E353A" stroke-width="0.25" stroke-miterlimit="10"/>
<path d="M64.0576 334.302L72.0374 332.117L75.3051 332.082L67.3371 334.279L64.0576 334.302Z" fill="white" stroke="#2E353A" stroke-width="0.25" stroke-miterlimit="10"/>
<path d="M73.9551 334.231L81.8875 332.022L85.2263 331.987L77.2938 334.208L73.9551 334.231Z" fill="white" stroke="#2E353A" stroke-width="0.25" stroke-miterlimit="10"/>
<path d="M77.2939 334.208L85.2264 331.987L88.577 331.951L80.6682 334.184L77.2939 334.208Z" fill="white" stroke="#2E353A" stroke-width="0.25" stroke-miterlimit="10"/>
<path d="M87.4756 334.136L95.3488 331.891L98.7823 331.856L90.909 334.101L87.4756 334.136Z" fill="white" stroke="#2E353A" stroke-width="0.25" stroke-miterlimit="10"/>
<path d="M112.078 333.946L115.701 333.922L107.745 336.286L104.11 336.309L112.078 333.946Z" fill="white" stroke="#2E353A" stroke-width="0.25" stroke-miterlimit="10"/>
<path d="M119.845 331.654L123.444 331.618L115.701 333.922L112.078 333.946L119.845 331.654Z" fill="white" stroke="#2E353A" stroke-width="0.25" stroke-miterlimit="10"/>
<path d="M108.491 333.982L116.27 331.69L119.845 331.654L112.079 333.946L108.491 333.982Z" fill="white" stroke="#2E353A" stroke-width="0.25" stroke-miterlimit="10"/>
<path d="M99.5878 338.708L91.1937 341.202H87.5234L95.9294 338.72L99.5878 338.708Z" fill="white" stroke="#2E353A" stroke-width="0.25" stroke-miterlimit="10"/>
<path d="M104.111 336.309L107.745 336.286L99.5881 338.708L95.9297 338.72L104.111 336.309Z" fill="white" stroke="#2E353A" stroke-width="0.25" stroke-miterlimit="10"/>
<path d="M95.9295 338.72L87.5235 341.202H83.877L92.2948 338.732L95.9295 338.72Z" fill="white" stroke="#2E353A" stroke-width="0.25" stroke-miterlimit="10"/>
<path d="M97.8711 334.053L105.697 331.785L109.201 331.761L101.376 334.029L97.8711 334.053Z" fill="white" stroke="#2E353A" stroke-width="0.25" stroke-miterlimit="10"/>
<path d="M89.832 336.381L97.871 334.053L101.375 334.029L93.3602 336.357L89.832 336.381Z" fill="white" stroke="#2E353A" stroke-width="0.25" stroke-miterlimit="10"/>
<path d="M93.3604 336.357L101.376 334.029L104.916 334.006L96.9122 336.345L93.3604 336.357Z" fill="white" stroke="#2E353A" stroke-width="0.25" stroke-miterlimit="10"/>
<path d="M86.3271 336.393L94.378 334.077L97.8707 334.053L89.8316 336.381L86.3271 336.393Z" fill="white" stroke="#2E353A" stroke-width="0.25" stroke-miterlimit="10"/>
<path d="M108.491 333.982L112.078 333.946L104.11 336.31L100.499 336.322L108.491 333.982Z" fill="white" stroke="#2E353A" stroke-width="0.25" stroke-miterlimit="10"/>
<path d="M50.7855 338.839L47.4941 338.851L55.8765 336.547L59.1678 336.524L50.7855 338.839Z" fill="white" stroke="#2E353A" stroke-width="0.25" stroke-miterlimit="10"/>
<path d="M96.9121 336.345L104.916 334.005L108.491 333.982L100.499 336.321L96.9121 336.345Z" fill="white" stroke="#131313" stroke-width="0.25" stroke-miterlimit="10"/>
<path d="M104.111 336.309L95.9296 338.72L92.2949 338.732L100.5 336.321L104.111 336.309Z" fill="white" stroke="#2E353A" stroke-width="0.25" stroke-miterlimit="10"/>
<path d="M65.8096 336.5L73.9551 334.231L77.2939 334.207L69.172 336.476L65.8096 336.5Z" fill="white" stroke="#2E353A" stroke-width="0.25" stroke-miterlimit="10"/>
<path d="M69.1719 336.476L77.2938 334.208L80.668 334.184L72.5461 336.464L69.1719 336.476Z" fill="white" stroke="#2E353A" stroke-width="0.25" stroke-miterlimit="10"/>
<path d="M59.168 336.523L67.3372 334.279L70.6286 334.255L62.4712 336.512L59.168 336.523Z" fill="white" stroke="#2E353A" stroke-width="0.25" stroke-miterlimit="10"/>
<path d="M79.3896 336.428L87.476 334.136L90.9094 334.101L82.8468 336.405L79.3896 336.428Z" fill="white" stroke="#2E353A" stroke-width="0.25" stroke-miterlimit="10"/>
<path d="M72.5469 336.464L80.6687 334.184L84.0548 334.16L75.9566 336.44L72.5469 336.464Z" fill="white" stroke="#2E353A" stroke-width="0.25" stroke-miterlimit="10"/>
<path d="M75.9561 336.44L84.0543 334.16L87.4759 334.136L79.3895 336.429L75.9561 336.44Z" fill="white" stroke="#2E353A" stroke-width="0.25" stroke-miterlimit="10"/>
<path d="M82.8467 336.404L90.9094 334.1L94.3784 334.077L86.3275 336.392L82.8467 336.404Z" fill="white" stroke="#2E353A" stroke-width="0.25" stroke-miterlimit="10"/>
<path d="M72.5463 336.464L64.2231 338.804L60.8252 338.816L69.172 336.476L72.5463 336.464Z" fill="white" stroke="#2E353A" stroke-width="0.25" stroke-miterlimit="10"/>
<path d="M69.1721 336.476L60.8253 338.816L57.4629 338.827L65.8097 336.5L69.1721 336.476Z" fill="white" stroke="#2E353A" stroke-width="0.25" stroke-miterlimit="10"/>
<path d="M100.499 336.322L92.2945 338.733L88.6953 338.744L96.9119 336.345L100.499 336.322Z" fill="white" stroke="#2E353A" stroke-width="0.25" stroke-miterlimit="10"/>
<path d="M65.8096 336.5L57.4629 338.827H54.1123L62.4709 336.512L65.8096 336.5Z" fill="white" stroke="#2E353A" stroke-width="0.25" stroke-miterlimit="10"/>
<path d="M79.3893 336.428L71.0898 338.78L67.6445 338.792L75.9558 336.44L79.3893 336.428Z" fill="white" stroke="#2E353A" stroke-width="0.25" stroke-miterlimit="10"/>
<path d="M62.4707 336.511L54.112 338.827L50.7852 338.839L59.1675 336.523L62.4707 336.511Z" fill="white" stroke="#2E353A" stroke-width="0.25" stroke-miterlimit="10"/>
<path d="M75.9565 336.44L67.6452 338.792L64.2236 338.803L72.5468 336.464L75.9565 336.44Z" fill="white" stroke="#2E353A" stroke-width="0.25" stroke-miterlimit="10"/>
<path d="M93.3604 336.357L85.1319 338.756H81.5801L89.8322 336.381L93.3604 336.357Z" fill="white" stroke="#2E353A" stroke-width="0.25" stroke-miterlimit="10"/>
<path d="M96.9121 336.345L88.6955 338.744L85.1318 338.756L93.3603 336.357L96.9121 336.345Z" fill="white" stroke="#2E353A" stroke-width="0.25" stroke-miterlimit="10"/>
<path d="M82.8464 336.405L74.5588 338.78H71.0898L79.3893 336.428L82.8464 336.405Z" fill="white" stroke="#2E353A" stroke-width="0.25" stroke-miterlimit="10"/>
<path d="M86.327 336.393L78.0512 338.768L74.5586 338.78L82.8462 336.404L86.327 336.393Z" fill="white" stroke="#2E353A" stroke-width="0.25" stroke-miterlimit="10"/>
<path d="M89.832 336.381L81.5799 338.756L78.0518 338.768L86.3275 336.393L89.832 336.381Z" fill="white" stroke="#2E353A" stroke-width="0.25" stroke-miterlimit="10"/>
<path d="M62.4707 336.511L70.6281 334.255L73.955 334.231L65.8094 336.5L62.4707 336.511Z" fill="white" stroke="#2E353A" stroke-width="0.25" stroke-miterlimit="10"/>
<path d="M119.845 331.654L128.121 329.207L131.696 329.172L123.444 331.618L119.845 331.654Z" fill="white" stroke="#2E353A" stroke-width="0.25" stroke-miterlimit="10"/>
<path d="M123.444 331.618L126.795 331.583L119.064 333.899L115.701 333.922L123.444 331.618Z" fill="white" stroke="#2E353A" stroke-width="0.25" stroke-miterlimit="10"/>
<path d="M131.696 329.172L135.023 329.125L126.795 331.583L123.444 331.618L131.696 329.172Z" fill="white" stroke="#2E353A" stroke-width="0.25" stroke-miterlimit="10"/>
<path d="M115.701 333.923L119.064 333.899L111.131 336.274L107.745 336.286L115.701 333.923Z" fill="white" stroke="#2E353A" stroke-width="0.25" stroke-miterlimit="10"/>
<path d="M107.745 336.286L111.131 336.274L102.986 338.709H99.5879L107.745 336.286Z" fill="white" stroke="#2E353A" stroke-width="0.25" stroke-miterlimit="10"/>
<path d="M99.5875 338.708H102.985L94.6149 341.202H91.1934L99.5875 338.708Z" fill="white" stroke="#2E353A" stroke-width="0.25" stroke-miterlimit="10"/>
<path d="M60.8022 334.326L52.6093 336.559L49.7441 336.583L57.9489 334.35L60.8022 334.326Z" fill="white" stroke="#2E353A" stroke-width="0.25" stroke-miterlimit="10"/>
<path d="M44.2149 338.851L41.3379 338.863L49.7439 336.583L52.609 336.559L44.2149 338.851Z" fill="white" stroke="#2E353A" stroke-width="0.25" stroke-miterlimit="10"/>
<path d="M35.5957 341.203H32.7188L41.3379 338.863L44.2148 338.851L35.5957 341.203Z" fill="white" stroke="#2E353A" stroke-width="0.25" stroke-miterlimit="10"/>
<path d="M91.9512 331.927L100.381 329.54L103.767 329.504L95.3491 331.891L91.9512 331.927Z" fill="white" stroke="#131313" stroke-width="0.25" stroke-miterlimit="10"/>
<path d="M60.8016 334.326L57.9482 334.35L65.9517 332.176L68.7932 332.141L60.8016 334.326Z" fill="white" stroke="#2E353A" stroke-width="0.25" stroke-miterlimit="10"/>
<path d="M47.4944 338.851H44.2148L52.609 336.559L55.8767 336.547L47.4944 338.851Z" fill="white" stroke="#2E353A" stroke-width="0.25" stroke-miterlimit="10"/>
<path d="M116.27 331.689L124.569 329.255L128.121 329.208L119.845 331.654L116.27 331.689Z" fill="white" stroke="#131313" stroke-width="0.25" stroke-miterlimit="10"/>
<path d="M72.0374 332.117L64.0576 334.302L60.8018 334.326L68.7934 332.141L72.0374 332.117Z" fill="white" stroke="#2E353A" stroke-width="0.25" stroke-miterlimit="10"/>
<path d="M65.9521 332.176L74.5003 329.849L77.3299 329.813L68.7936 332.141L65.9521 332.176Z" fill="white" stroke="#131313" stroke-width="0.25" stroke-miterlimit="10"/>
<path d="M68.793 332.141L77.3292 329.813L80.5613 329.778L72.037 332.117L68.793 332.141Z" fill="white" stroke="#131313" stroke-width="0.25" stroke-miterlimit="10"/>
<path d="M57.4625 338.827L48.8907 341.203H45.5283L54.1119 338.827H57.4625Z" fill="white" stroke="#2E353A" stroke-width="0.25" stroke-miterlimit="10"/>
<path d="M38.8871 341.203H35.5957L44.2149 338.851H47.4944L38.8871 341.203Z" fill="white" stroke="#2E353A" stroke-width="0.25" stroke-miterlimit="10"/>
<path d="M72.0371 332.117L80.5615 329.778L83.8055 329.742L75.3048 332.082L72.0371 332.117Z" fill="white" stroke="#131313" stroke-width="0.25" stroke-miterlimit="10"/>
<path d="M50.7853 338.839L42.2018 341.202H38.8867L47.494 338.851L50.7853 338.839Z" fill="white" stroke="#2E353A" stroke-width="0.25" stroke-miterlimit="10"/>
<path d="M54.1127 338.827L45.529 341.203H42.2021L50.7858 338.839L54.1127 338.827Z" fill="white" stroke="#2E353A" stroke-width="0.25" stroke-miterlimit="10"/>
<path d="M55.8761 336.547L52.6084 336.559L60.8013 334.326L64.0571 334.302L55.8761 336.547Z" fill="white" stroke="#2E353A" stroke-width="0.25" stroke-miterlimit="10"/>
<path d="M102.228 331.82L110.598 329.421L114.055 329.374L105.696 331.785L102.228 331.82Z" fill="white" stroke="#131313" stroke-width="0.25" stroke-miterlimit="10"/>
<path d="M75.3047 332.082L83.8054 329.742L87.0731 329.694L78.5842 332.046L75.3047 332.082Z" fill="white" stroke="#131313" stroke-width="0.25" stroke-miterlimit="10"/>
<path d="M105.697 331.785L114.056 329.374L117.537 329.338L109.202 331.761L105.697 331.785Z" fill="white" stroke="#131313" stroke-width="0.25" stroke-miterlimit="10"/>
<path d="M95.3496 331.891L103.767 329.504L107.165 329.457L98.7831 331.856L95.3496 331.891Z" fill="white" stroke="#131313" stroke-width="0.25" stroke-miterlimit="10"/>
<path d="M109.201 331.761L117.536 329.338L121.041 329.291L112.717 331.725L109.201 331.761Z" fill="white" stroke="#131313" stroke-width="0.25" stroke-miterlimit="10"/>
<path d="M112.718 331.725L121.041 329.291L124.569 329.255L116.27 331.69L112.718 331.725Z" fill="white" stroke="#131313" stroke-width="0.25" stroke-miterlimit="10"/>
<path d="M98.7822 331.856L107.165 329.457L110.598 329.421L102.228 331.82L98.7822 331.856Z" fill="white" stroke="#131313" stroke-width="0.25" stroke-miterlimit="10"/>
<path d="M78.585 332.046L87.0739 329.695L90.3652 329.659L81.8882 332.022L78.585 332.046Z" fill="white" stroke="#131313" stroke-width="0.25" stroke-miterlimit="10"/>
<path d="M81.8877 332.022L90.3648 329.659L93.6798 329.623L85.2264 331.987L81.8877 332.022Z" fill="white" stroke="#131313" stroke-width="0.25" stroke-miterlimit="10"/>
<path d="M88.5771 331.951L97.0187 329.576L100.381 329.54L91.9514 331.927L88.5771 331.951Z" fill="white" stroke="#131313" stroke-width="0.25" stroke-miterlimit="10"/>
<path d="M57.4624 338.827L60.8248 338.815L64.2227 338.803L67.6443 338.792L71.0896 338.78H74.5586L78.0512 338.768L81.5794 338.756H85.1312L88.6949 338.744L92.2941 338.732L83.8762 341.202H80.2652H76.666H73.1141H69.5742H66.0578H62.577H59.1199H55.6865H52.2767H48.8906L57.4624 338.827Z" fill="white" stroke="#2E353A" stroke-width="0.25" stroke-miterlimit="10"/>
<path d="M85.2266 331.987L93.6799 329.623L97.0187 329.576L88.5771 331.951L85.2266 331.987Z" fill="white" stroke="#131313" stroke-width="0.25" stroke-miterlimit="10"/>
<path d="M158.122 326.88V329.302L95.1954 348.245L95.1836 345.134L158.122 326.88Z" fill="white" stroke="#131313" stroke-miterlimit="10"/>
<path d="M10.3303 348.245H95.1836V345.146H10.3303V348.245Z" fill="#131313" stroke="#131313" stroke-linecap="round" stroke-linejoin="round"/>
<circle opacity="0.3" cx="451" cy="45" r="9" fill="#C4C1FA"/>
<circle opacity="0.3" cx="27" cy="54" r="9" transform="rotate(-180 27 54)" fill="#C4C1FA"/>
<circle opacity="0.3" cx="447" cy="200" r="7" transform="rotate(-180 447 200)" fill="#C4C1FA"/>
<circle cx="427" cy="44" r="6" fill="#0053F1"/>
<circle cx="51" cy="55" r="6" transform="rotate(-180 51 55)" fill="#0053F1"/>
<circle cx="466" cy="201" r="5" transform="rotate(-180 466 201)" fill="#0053F1"/>
<circle cx="442" cy="23" r="3" fill="#F88419"/>
<circle cx="36" cy="76" r="3" transform="rotate(-180 36 76)" fill="#F88419"/>
<circle cx="454.5" cy="217.5" r="2.5" transform="rotate(-180 454.5 217.5)" fill="#F88419"/>
<circle opacity="0.3" r="7" transform="matrix(-1 0 0 1 34 248)" fill="#C4C1FA"/>
<circle r="5" transform="matrix(-1 0 0 1 53 247)" fill="#0053F1"/>
<circle r="2.5" transform="matrix(-1 0 0 1 41.5 230.5)" fill="#F88419"/>
</g>
</svg>
