<svg width="492" height="382" viewBox="0 0 492 382" fill="none" xmlns="http://www.w3.org/2000/svg">
<mask id="mask0" mask-type="alpha" maskUnits="userSpaceOnUse" x="0" y="0" width="492" height="382">
<rect width="492" height="382" fill="#C4C4C4"/>
</mask>
<g mask="url(#mask0)">
<path d="M156.653 14.7209C156.653 14.7209 124.649 -5.30386 97.5696 26.1637C70.4897 57.6312 104.955 79.0864 114.802 120.566C124.649 162.046 50.7952 139.161 23.7154 170.628C-3.36451 202.096 21.1674 246.437 39.7171 252.873C58.2668 259.31 95.1078 242.146 100.031 275.043C100.031 275.043 108.648 289.347 85.2605 330.827C61.8734 372.307 63.1043 416.647 106.186 426.66C149.268 436.672 159.115 369.446 191.118 379.458C223.122 389.471 214.505 468.14 276.051 456.697C337.596 445.254 306.552 391.602 325.151 367.644C343.75 343.686 368.368 375.167 395.448 350.852C422.528 326.536 379.446 273.613 383.139 237.854C386.832 202.096 416.374 199.235 418.835 169.198C421.297 139.161 402.834 143.452 362.214 103.402C321.594 63.3526 341.288 34.7457 312.978 16.1513C284.667 -2.44318 258.818 53.3402 221.891 41.8975C199.534 34.9564 177.713 25.8662 156.653 14.7209Z" fill="#F4F6FD"/>
<path d="M194.939 327.989C237.847 313.934 265.378 303.288 296.712 302.917C296.712 302.917 341.344 308.685 359.813 302.917C413.814 286.021 418.518 224.49 389.362 179.064C359.173 132.021 304.838 145.446 304.838 145.446C239.805 157.426 196.417 144.211 173.725 133.206C155.54 124.413 133.562 127.686 119.551 142.235C116.395 145.374 113.925 149.139 112.299 153.289C92.341 208.113 115.328 261.69 123.528 294.407C126.557 306.536 152.019 342.044 194.939 327.989Z" stroke="#B2B1D5" stroke-linecap="round" stroke-linejoin="round" stroke-dasharray="2 2"/>
<path d="M214.849 115.629C213.114 135.322 211.294 155.288 211.749 174.968C212.819 222.648 217.788 270.174 220.937 317.747C222.819 346.101 228.637 376.067 222.709 404.243C217.161 430.654 195.328 452.456 166.73 454.411C135.254 456.568 112.51 428.261 115.942 399.788C118.513 378.46 131.822 358.756 132.609 337.262C133.655 308.327 98.5497 312.059 75.7327 293.421C48.8812 271.525 22.3741 242.412 14.5757 208.477C12.3248 198.725 11.7467 188.334 15.4982 178.961C32.4849 136.637 104.589 126.009 132.609 161.982C161.478 199.069 150.1 253.005 197.345 258.064C244.591 263.124 290.963 243.739 336.461 232.779C381.96 221.819 432.699 248.798 424.827 306.099C416.954 363.4 343.46 361.789 309.339 322.119C275.218 282.449 290.963 201.593 297.962 169.518C301.812 151.934 311.701 136.152 320.373 120.464C327.199 108.094 335.81 95.1784 333.596 80.5688C327.064 37.4983 252.414 25.3177 229.72 62.4875C229.695 62.5349 218.17 77.808 214.849 115.629Z" stroke="#B2B1D5" stroke-linecap="round" stroke-linejoin="round" stroke-dasharray="2 2"/>
<path d="M228.587 286.088C217.073 286.088 206.031 281.5 197.889 273.333C189.748 265.166 185.174 254.09 185.174 242.54C185.174 230.99 189.748 219.913 197.889 211.746C206.031 203.58 217.073 198.991 228.587 198.991C240.101 198.991 251.143 203.58 259.285 211.746C267.426 219.913 272 230.99 272 242.54C272 254.09 267.426 265.166 259.285 273.333C251.143 281.5 240.101 286.088 228.587 286.088Z" fill="#DFDEF8"/>
<path d="M224.194 281.683C212.68 281.683 201.638 277.095 193.497 268.928C185.355 260.761 180.781 249.684 180.781 238.134C180.781 226.585 185.355 215.508 193.497 207.341C201.638 199.174 212.68 194.586 224.194 194.586C235.708 194.586 246.75 199.174 254.892 207.341C263.034 215.508 267.607 226.585 267.607 238.134C267.607 249.684 263.034 260.761 254.892 268.928C246.75 277.095 235.708 281.683 224.194 281.683Z" fill="white" stroke="#DFDEF8" stroke-width="2" stroke-miterlimit="10"/>
<g clip-path="url(#clip0)">
<g style="mix-blend-mode:darken">
<path d="M217.896 211.395C217.415 211.318 217.395 211.309 217.621 211.274C218.055 211.205 219.08 211.299 219.786 211.47C221.434 211.871 222.934 212.899 224.535 214.724L224.961 215.209L225.569 215.108C228.133 214.687 230.741 215.022 232.922 216.053C233.522 216.337 234.468 216.902 234.586 217.047C234.624 217.093 234.693 217.391 234.74 217.709C234.902 218.808 234.821 219.651 234.492 220.28C234.314 220.623 234.304 220.731 234.424 221.024C234.52 221.258 234.787 221.431 235.052 221.431C235.594 221.43 236.178 220.533 236.448 219.285L236.555 218.789L236.768 219.036C237.935 220.389 238.851 222.235 239.009 223.548L239.05 223.891L238.854 223.58C238.516 223.044 238.177 222.679 237.743 222.385C236.96 221.855 236.132 221.674 233.94 221.556C231.96 221.449 230.839 221.276 229.728 220.905C227.838 220.274 226.885 219.434 224.639 216.418C223.641 215.078 223.025 214.337 222.412 213.74C221.018 212.384 219.649 211.673 217.896 211.395Z" fill="#0053F1"/>
</g>
<g style="mix-blend-mode:darken">
<path d="M235.033 214.386C235.083 213.488 235.202 212.896 235.441 212.355C235.536 212.141 235.624 211.966 235.638 211.966C235.652 211.966 235.61 212.124 235.546 212.317C235.373 212.842 235.344 213.56 235.464 214.395C235.616 215.454 235.702 215.607 236.796 216.752C237.309 217.288 237.906 217.965 238.123 218.256L238.516 218.785L238.123 218.407C237.642 217.945 236.535 217.044 236.291 216.915C236.127 216.829 236.102 216.831 236.001 216.933C235.908 217.028 235.889 217.171 235.876 217.845C235.855 218.896 235.716 219.57 235.378 220.245C235.195 220.609 235.166 220.531 235.332 220.12C235.455 219.812 235.468 219.677 235.467 218.66C235.465 216.616 235.228 216.125 233.838 215.284C233.486 215.07 232.905 214.763 232.548 214.6C232.191 214.438 231.908 214.296 231.918 214.285C231.958 214.245 233.313 214.65 233.859 214.865C234.671 215.185 234.804 215.226 234.903 215.187C234.969 215.162 235.001 214.965 235.033 214.386Z" fill="#0053F1"/>
</g>
<g style="mix-blend-mode:darken">
<path d="M218.83 217.882C217.854 216.505 217.249 214.394 217.38 212.817L217.42 212.328L217.643 212.37C218.06 212.448 218.78 212.722 219.117 212.932C220.043 213.507 220.443 214.264 220.851 216.208C220.97 216.778 221.127 217.423 221.199 217.641C221.315 217.992 221.753 218.812 222.109 219.345C222.366 219.729 222.196 219.911 221.628 219.858C220.762 219.778 219.588 218.949 218.83 217.882Z" fill="#0053F1"/>
</g>
<g style="mix-blend-mode:darken">
<path d="M233.848 228.127C229.283 226.246 227.675 224.613 227.675 221.857C227.675 221.452 227.688 221.12 227.705 221.12C227.722 221.12 227.898 221.254 228.098 221.417C229.023 222.177 230.06 222.502 232.93 222.93C234.618 223.183 235.569 223.386 236.445 223.684C239.232 224.63 240.955 226.549 241.367 229.164C241.486 229.924 241.416 231.348 241.222 232.099C241.07 232.692 240.603 233.761 240.479 233.802C240.445 233.814 240.411 233.679 240.402 233.496C240.355 232.514 239.871 231.558 239.057 230.842C238.131 230.028 236.888 229.38 233.848 228.127Z" fill="#0053F1"/>
</g>
<g style="mix-blend-mode:darken">
<path d="M230.643 228.909C230.585 228.561 230.486 228.116 230.422 227.92L230.306 227.565L230.522 227.813C230.821 228.157 231.058 228.598 231.259 229.184C231.412 229.631 231.429 229.765 231.428 230.492C231.426 231.205 231.407 231.355 231.266 231.758C231.043 232.393 230.767 232.843 230.303 233.327C229.469 234.196 228.397 234.676 226.849 234.876C226.58 234.91 225.797 234.969 225.108 235.006C223.371 235.098 222.228 235.289 221.201 235.658C221.053 235.711 220.921 235.744 220.908 235.73C220.866 235.688 221.566 235.261 222.143 234.976C222.958 234.574 223.768 234.356 225.585 234.046C226.482 233.893 227.409 233.707 227.644 233.633C229.866 232.936 231.008 231.136 230.643 228.909Z" fill="#0053F1"/>
</g>
<g style="mix-blend-mode:darken">
<path d="M232.736 232.713C232.129 231.378 231.99 230.09 232.322 228.888C232.358 228.76 232.415 228.655 232.449 228.655C232.484 228.655 232.627 228.734 232.767 228.83C233.047 229.023 233.608 229.347 235.101 230.181C236.964 231.221 238.027 232.026 238.75 232.946C239.383 233.752 239.774 234.67 239.963 235.789C240.069 236.423 240.007 237.948 239.848 238.587C239.347 240.599 238.182 242.18 236.521 243.103C236.278 243.238 236.059 243.349 236.036 243.349C236.012 243.35 236.101 243.119 236.233 242.837C236.791 241.641 236.855 240.478 236.433 239.184C236.174 238.391 235.647 237.424 234.582 235.789C233.344 233.889 233.04 233.383 232.736 232.713Z" fill="#0053F1"/>
</g>
<g style="mix-blend-mode:darken">
<path d="M215.588 239.914C217.282 238.45 219.39 237.41 221.31 237.091C222.138 236.953 223.516 237.008 224.282 237.208C225.511 237.53 226.609 238.251 227.181 239.109C227.739 239.948 227.979 240.68 228.228 242.307C228.327 242.949 228.434 243.593 228.466 243.739C228.653 244.582 229.018 245.256 229.47 245.595C230.187 246.132 231.423 246.166 232.638 245.68C232.844 245.598 233.023 245.541 233.036 245.554C233.08 245.599 232.468 246.018 232.036 246.239C231.455 246.536 230.993 246.651 230.38 246.651C229.266 246.651 228.342 246.071 227.571 244.889C227.419 244.657 227.078 243.96 226.813 243.341C225.999 241.44 225.597 240.861 224.652 240.228C223.829 239.676 222.768 239.577 221.97 239.978C220.922 240.504 220.629 241.876 221.38 242.745C221.678 243.09 222.235 243.388 222.69 243.446C223.541 243.555 224.273 242.892 224.273 242.012C224.273 241.44 224.059 241.114 223.519 240.865C222.781 240.524 221.988 240.922 221.992 241.632C221.994 241.934 222.122 242.124 222.418 242.261C222.608 242.349 222.613 242.356 222.458 242.323C221.781 242.179 221.623 241.344 222.167 240.79C222.82 240.124 224.171 240.418 224.635 241.327C224.83 241.708 224.852 242.468 224.682 242.927C224.302 243.954 223.193 244.494 222.068 244.2C221.303 244 220.991 243.784 220.068 242.81C218.463 241.118 217.84 240.79 215.527 240.421L215.084 240.35L215.588 239.914Z" fill="#0053F1"/>
</g>
<g style="mix-blend-mode:darken">
<path fill-rule="evenodd" clip-rule="evenodd" d="M208.061 209.636C213.419 216.292 217.109 219.039 217.519 219.619C217.858 220.098 217.73 220.529 217.15 220.867C216.828 221.054 216.164 221.244 215.832 221.244C215.457 221.244 215.328 221.096 215.328 221.096C215.11 220.885 214.987 220.922 213.869 218.89C212.317 216.424 211.017 214.378 210.982 214.344C210.9 214.265 210.901 214.267 213.711 219.413C214.165 220.486 213.801 220.879 213.801 221.032C213.801 221.343 213.718 221.506 213.344 221.934C212.719 222.646 212.44 223.447 212.239 225.105C212.013 226.963 211.378 228.276 209.618 230.523C208.588 231.838 208.42 232.079 208.16 232.609C207.832 233.276 207.742 233.65 207.706 234.493C207.667 235.384 207.742 235.96 208.008 236.812C208.241 237.558 208.484 238.051 209.106 239.036C209.642 239.886 209.951 240.518 209.951 240.765C209.951 240.961 209.987 240.962 210.818 240.77C212.807 240.31 214.422 239.502 215.33 238.511C215.892 237.897 216.024 237.559 216.028 236.719C216.031 236.169 216.012 236.054 215.867 235.738C215.631 235.223 215.2 234.795 214.252 234.132C213.01 233.262 212.479 232.563 212.333 231.6C212.213 230.811 212.352 230.253 213.039 228.779C213.751 227.253 213.927 226.603 214.046 225.065C214.123 224.071 214.23 223.679 214.509 223.364C214.8 223.036 215.062 222.925 215.782 222.824C216.955 222.66 217.703 222.349 218.317 221.77C218.85 221.267 219.073 220.783 219.107 220.054L219.133 219.501L218.835 219.145C217.757 217.858 207.338 208.624 207.272 208.624C207.258 208.624 207.613 209.079 208.061 209.636ZM210.556 235.501C210.8 235.059 210.67 234.491 210.262 234.213C209.877 233.951 209.278 234.075 209.278 234.417C209.278 234.521 209.335 234.597 209.462 234.664C209.675 234.776 209.691 234.903 209.523 235.162C209.352 235.424 209.366 235.655 209.562 235.811C209.877 236.064 210.322 235.925 210.556 235.501Z" fill="#0053F1"/>
</g>
<g style="mix-blend-mode:darken">
<path fill-rule="evenodd" clip-rule="evenodd" d="M219.875 223.114C219.323 223.287 218.788 223.885 218.622 224.512C218.521 224.894 218.578 225.565 218.73 225.772C218.975 226.107 219.211 226.195 219.852 226.191C221.107 226.182 222.198 225.631 222.325 224.942C222.429 224.377 221.95 223.595 221.29 223.252C220.949 223.074 220.225 223.004 219.875 223.114ZM221.341 224.288C221.535 224.007 221.45 223.703 221.121 223.497C220.494 223.105 219.547 223.429 219.547 224.036C219.547 224.337 220.041 224.666 220.494 224.666C220.795 224.666 221.208 224.482 221.341 224.288Z" fill="#0053F1"/>
</g>
</g>
<path d="M241.639 202.568C245.709 204.517 249.416 207.153 252.597 210.361" stroke="#DFDEF8" stroke-width="0.75" stroke-linecap="round" stroke-linejoin="round"/>
<path d="M200.184 207.212C201.082 206.495 202.03 205.816 203.015 205.161C208.266 201.707 214.265 199.562 220.51 198.904C226.755 198.247 233.066 199.096 238.918 201.382" stroke="#DFDEF8" stroke-width="0.75" stroke-linecap="round" stroke-linejoin="round"/>
<path d="M219.822 277.524C214.133 276.824 208.666 274.888 203.801 271.85C198.935 268.813 194.789 264.747 191.651 259.937V259.937C187.216 253.155 184.969 245.17 185.213 237.063C185.458 228.957 188.183 221.122 193.018 214.622" stroke="#DFDEF8" stroke-width="0.75" stroke-linecap="round" stroke-linejoin="round"/>
<path d="M234.4 276.598C231.834 277.277 229.206 277.691 226.557 277.833" stroke="#DFDEF8" stroke-width="0.75" stroke-linecap="round" stroke-linejoin="round"/>
<path d="M252.597 210.361C254.468 212.251 256.151 214.319 257.621 216.536V216.536C260.464 220.881 262.425 225.746 263.392 230.852C264.358 235.958 264.311 241.206 263.253 246.294C262.195 251.382 260.147 256.21 257.227 260.503C254.306 264.796 250.57 268.469 246.232 271.312C243.384 273.179 240.31 274.673 237.084 275.758" stroke="#DFDEF8" stroke-width="0.75" stroke-linecap="round" stroke-linejoin="round"/>
<path d="M408.661 286.088C397.147 286.088 386.105 281.5 377.963 273.333C369.822 265.166 365.248 254.09 365.248 242.54C365.248 230.99 369.822 219.913 377.963 211.746C386.105 203.58 397.147 198.991 408.661 198.991C420.175 198.991 431.217 203.58 439.359 211.746C447.5 219.913 452.074 230.99 452.074 242.54C452.074 254.09 447.5 265.166 439.359 273.333C431.217 281.5 420.175 286.088 408.661 286.088Z" fill="#DFDEF8"/>
<path d="M404.27 281.683C392.756 281.683 381.713 277.095 373.572 268.928C365.43 260.761 360.856 249.684 360.856 238.134C360.856 226.585 365.43 215.508 373.572 207.341C381.713 199.174 392.756 194.586 404.27 194.586C415.783 194.586 426.826 199.174 434.967 207.341C443.109 215.508 447.683 226.585 447.683 238.134C447.683 249.684 443.109 260.761 434.967 268.928C426.826 277.095 415.783 281.683 404.27 281.683Z" fill="white" stroke="#DFDEF8" stroke-width="1.3" stroke-miterlimit="10"/>
<path fill-rule="evenodd" clip-rule="evenodd" d="M416.856 233.998L408.79 236.144L406.991 227.747L409.39 227.203L410.335 231.182C410.335 231.182 412.514 227.596 409.609 223.883C407.943 222.027 407.128 221.9 405.318 221.617L405.164 221.593C403.475 221.35 399.548 221.923 398.378 226.521C397.882 229.482 398.441 231.673 402.247 234.542L402.033 237.734C402.033 237.734 397.784 234.733 396.689 232.628C395.841 230.962 394.388 227.671 397.012 223.091C398.424 220.801 401.209 218.603 406.115 218.835C408.583 218.939 414.607 221.963 413.673 229.03C413.512 230.355 412.826 232.119 412.826 232.119L416.135 231.378L416.856 233.998ZM403.561 250.041V225.982H406.173V250.041H403.561ZM403.036 256.836C407.931 257.195 410.773 255.072 412.249 252.823C414.988 248.317 413.621 244.986 412.826 243.292C411.788 241.158 407.62 238.046 407.62 238.046L407.32 241.233C411.044 244.206 411.546 246.415 410.975 249.358C409.684 253.921 405.74 254.396 404.063 254.106C404.007 254.096 403.952 254.086 403.898 254.076C402.095 253.746 401.287 253.599 399.675 251.701C396.873 247.907 399.145 244.385 399.145 244.385L399.987 248.393L402.402 247.913L400.822 239.469L392.699 241.401L393.351 244.032L396.677 243.384C396.677 243.384 395.945 245.125 395.749 246.444C394.631 253.482 400.569 256.668 403.036 256.836Z" fill="#0053F1"/>
<path d="M383.858 271.941C380.014 269.572 376.607 266.555 373.786 263.024" stroke="#DFDEF8" stroke-width="0.75" stroke-linecap="round" stroke-linejoin="round"/>
<path d="M425.572 271.732C424.587 272.349 423.577 272.967 422.531 273.473C416.946 276.347 410.757 277.841 404.48 277.83C398.202 277.82 392.019 276.304 386.443 273.411" stroke="#DFDEF8" stroke-width="0.75" stroke-linecap="round" stroke-linejoin="round"/>
<path d="M413.506 199.74C419.088 201.038 424.319 203.545 428.835 207.084C433.35 210.624 437.039 215.11 439.645 220.229V220.229C443.335 227.444 444.724 235.623 443.623 243.656C442.521 251.689 438.984 259.189 433.489 265.136" stroke="#DFDEF8" stroke-width="0.75" stroke-linecap="round" stroke-linejoin="round"/>
<path d="M398.879 199.097C401.504 198.716 404.161 198.604 406.808 198.764" stroke="white" stroke-width="0.75" stroke-linecap="round" stroke-linejoin="round"/>
<path d="M373.786 263.024C372.122 260.935 370.67 258.684 369.452 256.305C367.086 251.683 365.652 246.638 365.232 241.459C364.811 236.28 365.413 231.069 367.003 226.124C368.592 221.178 371.138 216.596 374.495 212.639C377.852 208.681 381.954 205.427 386.566 203.062V203.062C389.595 201.506 392.81 200.348 396.133 199.616" stroke="#DFDEF8" stroke-width="0.75" stroke-linecap="round" stroke-linejoin="round"/>
<path opacity="0.2" d="M204.174 363.534C208.024 361.177 212.252 359.506 216.671 358.594" stroke="white" stroke-width="0.75" stroke-linecap="round" stroke-linejoin="round"/>
<path opacity="0.2" d="M185.348 400.87C185.249 399.722 185.2 398.548 185.2 397.375C185.196 391.077 186.692 384.869 189.564 379.268C192.436 373.667 196.6 368.836 201.711 365.177" stroke="white" stroke-width="0.75" stroke-linecap="round" stroke-linejoin="round"/>
<path d="M51.8426 286.088C46.1384 286.093 40.4892 284.97 35.2178 282.784C29.9464 280.598 25.1562 277.391 21.121 273.346C17.0858 269.302 13.8848 264.5 11.7007 259.214C9.51671 253.928 8.39258 248.262 8.39258 242.54C8.39258 236.818 9.51671 231.152 11.7007 225.866C13.8848 220.58 17.0858 215.778 21.121 211.733C25.1562 207.689 29.9464 204.482 35.2178 202.296C40.4892 200.109 46.1384 198.987 51.8426 198.991C63.3564 198.991 74.3987 203.58 82.5403 211.747C90.6818 219.913 95.2556 230.99 95.2556 242.54C95.2556 254.09 90.6818 265.166 82.5403 273.333C74.3987 281.5 63.3564 286.088 51.8426 286.088Z" fill="#DFDEF8"/>
<path d="M47.45 281.683C41.7458 281.688 36.0966 280.565 30.8252 278.379C25.5538 276.192 20.7636 272.985 16.7285 268.941C12.6933 264.897 9.49217 260.094 7.30815 254.808C5.12413 249.522 4 243.856 4 238.134C4 232.412 5.12413 226.747 7.30815 221.461C9.49217 216.175 12.6933 211.372 16.7285 207.328C20.7636 203.284 25.5538 200.077 30.8252 197.89C36.0966 195.704 41.7458 194.581 47.45 194.586C58.9639 194.586 70.0062 199.174 78.1477 207.341C86.2892 215.508 90.8631 226.585 90.8631 238.134C90.8631 249.684 86.2892 260.761 78.1477 268.928C70.0062 277.095 58.9639 281.683 47.45 281.683Z" fill="white" stroke="#DFDEF8" stroke-width="1.3" stroke-miterlimit="10"/>
<g clip-path="url(#clip1)">
<path fill-rule="evenodd" clip-rule="evenodd" d="M47.3714 207.526C59.1966 207.526 68.7828 217.112 68.7828 228.937C68.7828 240.762 59.1966 250.349 47.3714 250.349C35.5461 250.349 25.96 240.762 25.96 228.937C25.96 217.112 35.5461 207.526 47.3714 207.526ZM62.692 229.064C62.692 237.6 55.7915 244.521 47.2793 244.521C38.7671 244.521 31.8666 237.6 31.8666 229.064C31.8666 220.527 38.7671 213.607 47.2793 213.607C55.7915 213.607 62.692 220.527 62.692 229.064Z" fill="#0053F1"/>
<path fill-rule="evenodd" clip-rule="evenodd" d="M48.5928 220.464C48.5928 220.853 48.3875 221.192 48.0755 221.374V222.338L48.1093 222.343L49.62 222.542C49.6239 222.542 49.6279 222.542 49.6318 222.543L49.6282 222.533C49.6316 222.533 49.6337 222.533 49.6355 222.533C49.6378 222.534 49.6398 222.536 49.6446 222.541C49.9073 222.673 52.5099 224.965 52.5099 228.358C52.5099 231.652 51.4792 232.3 51.0191 232.589L51.0183 232.589C50.9609 232.626 50.9125 232.656 50.8761 232.685C50.8268 232.718 50.7612 232.718 50.7201 232.677L50.6888 232.646L50.681 232.639C50.4335 232.395 49.846 231.815 48.6265 231.643C48.4541 231.618 48.2817 231.601 48.1093 231.585L48.0755 231.583V233.976H50.9664C51.6643 233.976 52.239 233.48 52.3786 232.826C52.3868 232.777 52.436 232.735 52.4935 232.735C53.8984 232.735 55.2852 232.418 56.5503 231.807L56.8038 231.684C56.8943 231.639 57.0004 231.652 57.0792 231.708C57.1515 231.76 57.2061 231.844 57.2061 231.933C57.2061 232.032 57.1487 232.131 57.0501 232.181C55.8935 232.741 55.1724 233.888 54.7483 235.101C54.5564 235.65 54.3098 236.173 54.0154 236.664C53.8238 236.983 53.4561 237.185 53.1175 237.03L52.592 236.798C52.198 236.624 51.771 236.624 51.377 236.798L50.8515 237.03C50.4574 237.204 50.0305 237.204 49.6364 237.03L49.111 236.798C48.7168 236.624 48.2899 236.624 47.8959 236.798L47.3704 237.03C46.9763 237.204 46.5494 237.204 46.1553 237.03L45.6299 236.798C45.2358 236.624 44.8089 236.624 44.4148 236.798L43.8893 237.03C43.4953 237.204 43.0601 237.204 42.6742 237.03L42.1488 236.798C41.7547 236.624 41.3196 236.624 40.9337 236.798L40.4493 237.013C40.2195 237.115 39.9597 237 39.8237 236.789C38.983 235.484 38.5117 233.946 38.5117 232.297C38.5117 232.181 38.5117 232.065 38.5199 231.949C38.5199 231.883 38.5774 231.833 38.6349 231.833H43.0847C43.1504 231.833 43.1997 231.883 43.1997 231.949V232.52C43.1997 233.323 43.8483 233.976 44.6446 233.976H47.0328V231.57C46.4898 231.596 46.0431 231.66 45.7776 231.701C45.7313 231.708 45.6922 231.687 45.6672 231.657L45.6627 231.66C45.6381 231.627 45.6299 231.586 45.6545 231.544C45.8597 231.106 46.2621 229.906 46.1882 227.316C46.1061 224.511 45.129 222.691 44.7514 222.095C44.6939 222.012 44.7678 221.904 44.8663 221.913L47.0328 222.198V221.369C46.7254 221.186 46.5238 220.849 46.5238 220.464C46.5238 219.884 46.9918 219.413 47.5665 219.413C48.1412 219.413 48.5928 219.884 48.5928 220.464ZM44.932 230.773V226.222C44.932 226.181 44.9074 226.131 44.8664 226.115L42.8056 225.146C42.7481 225.122 42.6743 225.146 42.6496 225.213L40.515 230.723C40.4822 230.806 40.5396 230.889 40.6217 230.889H44.8171C44.8828 230.889 44.932 230.839 44.932 230.773Z" fill="#0053F1"/>
</g>
<path d="M26.9619 204.433C30.8117 202.074 35.0399 200.403 39.4589 199.493" stroke="#DFDEF8" stroke-width="0.75" stroke-linecap="round" stroke-linejoin="round"/>
<path d="M8.12431 241.769C8.02582 240.608 7.97657 239.447 7.97657 238.261C7.97193 231.963 9.46795 225.755 12.3399 220.154C15.212 214.553 19.3768 209.722 24.4873 206.063" stroke="#DFDEF8" stroke-width="0.75" stroke-linecap="round" stroke-linejoin="round"/>
<path d="M77.5042 263.827C73.8082 268.209 69.205 271.731 64.0148 274.147C58.8246 276.564 53.172 277.817 47.45 277.821C39.3684 277.831 31.4793 275.348 24.8521 270.708C18.2249 266.068 13.1804 259.497 10.4023 251.884" stroke="#DFDEF8" stroke-width="0.75" stroke-linecap="round" stroke-linejoin="round"/>
<path d="M84.7319 251.056C83.8806 253.577 82.7706 256.003 81.4199 258.294" stroke="#DFDEF8" stroke-width="0.75" stroke-linecap="round" stroke-linejoin="round"/>
<path d="M39.459 199.505C42.0762 198.968 44.7412 198.699 47.4127 198.702V198.702C57.8621 198.702 67.8834 202.866 75.2722 210.278C82.661 217.69 86.812 227.742 86.812 238.224C86.8143 241.638 86.3756 245.038 85.5069 248.339" stroke="#DFDEF8" stroke-width="0.75" stroke-linecap="round" stroke-linejoin="round"/>
<path d="M228.587 131.886C217.073 131.886 206.031 127.298 197.889 119.131C189.748 110.964 185.174 99.8875 185.174 88.3378C185.174 76.788 189.748 65.7113 197.889 57.5443C206.031 49.3774 217.073 44.7893 228.587 44.7893C240.101 44.7893 251.143 49.3774 259.285 57.5443C267.426 65.7113 272 76.788 272 88.3378C272 99.8875 267.426 110.964 259.285 119.131C251.143 127.298 240.101 131.886 228.587 131.886Z" fill="#DFDEF8"/>
<path d="M224.194 127.48C212.68 127.48 201.638 122.892 193.497 114.725C185.355 106.558 180.781 95.4814 180.781 83.9316C180.781 72.3818 185.355 61.3051 193.497 53.1381C201.638 44.9712 212.68 40.3831 224.194 40.3831C235.708 40.3831 246.75 44.9712 254.892 53.1381C263.034 61.3051 267.607 72.3818 267.607 83.9316C267.607 95.4814 263.034 106.558 254.892 114.725C246.75 122.892 235.708 127.48 224.194 127.48Z" fill="white" stroke="#DFDEF8" stroke-width="1.3" stroke-miterlimit="10"/>
<g clip-path="url(#clip2)">
<path d="M231.95 86.6558H226.24M217.104 62.675H222.814H217.104ZM231.95 64.9589L217.104 70.4282L231.95 64.9589ZM231.95 78.9026L217.104 84.3719L231.95 78.9026Z" stroke="#0053F1" stroke-width="3" stroke-linecap="round" stroke-linejoin="round"/>
<path d="M231.95 71.8105L217.104 77.5203" stroke="#0053F1" stroke-width="3" stroke-linecap="round" stroke-linejoin="bevel"/>
</g>
<path d="M204.173 50.624C208.023 48.2668 212.251 46.5954 216.67 45.6838" stroke="white" stroke-width="0.75" stroke-linecap="round" stroke-linejoin="round"/>
<path d="M185.347 87.9602C185.248 86.8116 185.199 85.6383 185.199 84.4649C185.195 78.1665 186.691 71.9583 189.563 66.3574C192.435 60.7565 196.599 55.9253 201.71 52.2664" stroke="#DFDEF8" stroke-width="0.75" stroke-linecap="round" stroke-linejoin="round"/>
<path d="M254.715 110.031C251.018 114.422 246.41 117.949 241.212 120.366C236.014 122.783 230.353 124.031 224.624 124.024V124.024C216.544 124.026 208.659 121.539 202.034 116.901C195.408 112.262 190.362 105.696 187.576 98.0881" stroke="#DFDEF8" stroke-width="0.75" stroke-linecap="round" stroke-linejoin="round"/>
<path d="M261.955 97.2603C261.093 99.7773 259.984 102.202 258.643 104.498" stroke="#DFDEF8" stroke-width="0.75" stroke-linecap="round" stroke-linejoin="round"/>
<path d="M216.67 45.7086C219.287 45.1712 221.952 44.9022 224.624 44.9058V44.9058C235.073 44.9058 245.094 49.0697 252.483 56.4816C259.872 63.8934 264.023 73.9461 264.023 84.428C264.024 87.842 263.585 91.2419 262.718 94.5432" stroke="#DFDEF8" stroke-width="0.75" stroke-linecap="round" stroke-linejoin="round"/>
<path d="M314.861 366.041C343.373 366.041 366.486 342.855 366.486 314.254C366.486 285.653 343.373 262.468 314.861 262.468C286.349 262.468 263.235 285.653 263.235 314.254C263.235 342.855 286.349 366.041 314.861 366.041Z" fill="white" stroke="#131313" stroke-miterlimit="10"/>
<path d="M314.86 262.469C314.86 262.469 288.746 259.628 284.584 272.584C280.423 285.54 297.98 283.243 295.21 289.257C292.44 295.272 280.891 303.102 285.508 311.946C290.125 320.789 298.436 330.472 289.201 327.236C279.967 324 277.665 323.061 279.512 333.25C281.359 343.44 291.048 346.219 306.746 344.823C322.445 343.427 321.053 350.85 329.82 351.776C338.586 352.703 347.365 347.602 347.365 334.634C347.365 321.665 336.751 324.457 346.441 317.973C356.131 311.489 354.296 294.815 351.526 289.727C348.756 284.638 343.215 286.948 343.215 280.464C343.215 273.98 329.894 261.604 314.86 262.469Z" fill="#131313" stroke="#131313" stroke-miterlimit="10"/>
<path d="M300.492 268.52C300.492 268.52 290.827 267.224 291.147 273.362C291.468 279.5 308.237 291.468 324.034 291.802C339.83 292.135 341.431 284.033 339.178 282.415" stroke="white" stroke-width="0.75" stroke-linecap="round" stroke-linejoin="round"/>
<path d="M310.49 273.658C310.49 273.658 302.758 274.622 303.718 279.834C304.679 285.046 309.517 287.59 316.942 290.505" stroke="white" stroke-width="0.75" stroke-linecap="round" stroke-linejoin="round"/>
<path d="M349.162 305.338C349.162 305.338 348.522 313.428 338.537 318.603C328.552 323.778 319.551 331.509 328.17 335.412C336.789 339.315 341.713 343.81 338.488 344.786" stroke="white" stroke-width="0.75" stroke-linecap="round" stroke-linejoin="round"/>
<path d="M299.852 329.261C299.852 329.261 295.986 338.314 290.187 336.671C284.387 335.029 282.442 330.496 286.321 330.496C290.199 330.496 290.507 332.435 290.507 332.435" stroke="white" stroke-width="0.75" stroke-linecap="round" stroke-linejoin="round"/>
<path d="M330.633 292.209C330.633 292.209 338.55 292.086 337.257 299.842C335.964 307.598 328.552 308.252 326.619 314.07" stroke="white" stroke-width="0.75" stroke-linecap="round" stroke-linejoin="round"/>
<path d="M314.861 366.091C326.448 366.104 337.7 362.187 346.787 354.975C343.167 352.295 336.715 347.565 332.96 345.094C327.53 341.463 320.291 330.162 310.626 332.176C302.869 333.806 282.111 342.772 274.206 346.255C279.036 352.442 285.207 357.444 292.251 360.881C299.295 364.317 307.028 366.099 314.861 366.091Z" fill="white" stroke="#131313" stroke-miterlimit="10"/>
<path d="M309.05 330.472C309.05 330.472 294.743 334.634 292.896 346.675C291.049 358.717 304.666 350.035 304.666 350.035C304.666 350.035 311.82 360.57 318.284 357.334C324.748 354.098 325.671 342.97 321.977 335.56C318.284 328.15 309.05 330.472 309.05 330.472Z" fill="white" stroke="#131313" stroke-miterlimit="10"/>
<path d="M308.668 321.628C308.743 325.574 308.208 329.507 307.079 333.287C305.27 338.882 299.372 346.589 304.617 350.047C309.862 353.506 316.585 342.501 318.333 333.263C320.081 324.024 321.349 312.983 321.349 312.983L308.668 321.628Z" fill="white"/>
<g style="mix-blend-mode:multiply">
<path d="M307.448 332.052C309.139 332.666 310.895 333.081 312.681 333.287C314.282 333.473 314.922 333.127 315.143 332.719C314.946 335.029 314.195 341.365 311.573 346.033C310.773 347.466 310.12 348.676 309.603 349.739C313.494 347.108 317.126 339.771 318.357 333.3C320.105 324.074 321.324 313.057 321.324 313.057L308.643 321.702C308.704 325.19 308.302 328.671 307.448 332.052Z" fill="#F2F2FB"/>
</g>
<path d="M308.668 321.628C308.743 325.574 308.208 329.507 307.079 333.287C305.27 338.882 299.372 346.589 304.617 350.047C309.862 353.506 316.585 342.501 318.333 333.263C320.081 324.024 321.349 312.983 321.349 312.983L308.668 321.628Z" stroke="#131313" stroke-miterlimit="10"/>
<path d="M300.924 285.812C300.924 285.812 296.491 304.338 296.491 311.242C296.491 318.146 302.82 326.593 310.847 327.297C321.091 328.125 324.859 314.317 327.075 306.449C328.996 299.62 330.301 293.716 330.621 292.259C315.046 298.162 300.924 285.812 300.924 285.812Z" fill="white"/>
<g style="mix-blend-mode:multiply">
<path d="M330.632 292.209C329.084 292.802 327.479 293.237 325.843 293.506C325.117 298.211 322.888 309.784 317.778 316.898C313.445 322.938 308.803 325.124 306.168 325.914C307.635 326.648 309.226 327.1 310.859 327.248C321.103 328.075 324.87 314.267 327.087 306.4" fill="#F2F2FB"/>
</g>
<path d="M300.924 285.812C300.924 285.812 296.491 304.338 296.491 311.242C296.491 318.146 302.82 326.593 310.847 327.297C321.091 328.125 324.859 314.317 327.075 306.449C328.996 299.62 330.301 293.716 330.621 292.259C315.046 298.162 300.924 285.812 300.924 285.812Z" stroke="#131313" stroke-linecap="round" stroke-linejoin="round"/>
<path d="M309.369 298.928C308.806 300.943 307.92 302.853 306.747 304.584C305.146 306.597 301.723 304.782 302.733 305.992C303.291 306.701 303.989 307.287 304.784 307.712C305.578 308.137 306.452 308.392 307.35 308.462" stroke="#131313" stroke-linecap="round" stroke-linejoin="round"/>
<path d="M301.625 312.291C301.625 312.291 304.642 316.737 310.872 314.514" stroke="#131313" stroke-linecap="round" stroke-linejoin="round"/>
<path d="M306.439 297.495C306.254 298.594 305.614 299.41 305.01 299.298C304.407 299.187 304.062 298.224 304.247 297.125C304.432 296.025 305.072 295.223 305.675 295.321C306.279 295.42 306.623 296.396 306.439 297.495Z" fill="#131313"/>
<path d="M316.585 300.397C316.314 301.484 315.624 302.25 315.033 302.102C314.442 301.954 314.171 300.965 314.43 299.879C314.689 298.792 315.378 298.038 315.981 298.174C316.585 298.31 316.843 299.323 316.585 300.397Z" fill="#131313"/>
<path d="M302.314 292.061C302.314 292.061 303.927 288.232 308.754 290.455" stroke="#131313" stroke-linecap="round" stroke-linejoin="round"/>
<path d="M314.368 293.703C314.368 293.703 318.801 292.295 320.007 296.729" stroke="#131313" stroke-linecap="round" stroke-linejoin="round"/>
<path d="M135.151 366.042C163.663 366.042 186.776 342.856 186.776 314.255C186.776 285.654 163.663 262.469 135.151 262.469C106.639 262.469 83.5254 285.654 83.5254 314.255C83.5254 342.856 106.639 366.042 135.151 366.042Z" fill="white" stroke="#131313" stroke-miterlimit="10"/>
<path d="M102.855 354.604C112.98 362.786 125.81 366.83 138.78 365.927C151.749 365.025 163.9 359.243 172.801 349.738C166.99 342.229 155.084 329.36 141.836 329.36C127.135 329.36 109.676 346.959 102.855 354.604Z" fill="white" stroke="#263238" stroke-miterlimit="10"/>
<path d="M129.438 325.531C129.438 325.531 120.684 326.532 119.933 333.312C119.182 340.093 124.427 351.381 124.932 352.628C125.436 353.876 136.69 342.6 140.938 342.6C145.185 342.6 156.192 348.615 156.192 348.615C156.192 348.615 152.696 334.559 146.441 329.286C140.187 324.012 131.174 323.518 129.438 325.531Z" fill="white" stroke="#263238" stroke-miterlimit="10"/>
<g style="mix-blend-mode:multiply">
<path d="M117.926 300.632C117.926 300.632 114.171 296.865 112.176 299.879C110.182 302.892 111.918 306.4 114.639 308.66C117.36 310.92 121.645 311.13 121.645 309.413C121.645 307.697 117.926 300.632 117.926 300.632Z" fill="#F2F2FB"/>
</g>
<path d="M117.926 300.632C117.926 300.632 114.171 296.865 112.176 299.879C110.182 302.892 111.918 306.4 114.639 308.66C117.36 310.92 121.645 311.13 121.645 309.413C121.645 307.697 117.926 300.632 117.926 300.632Z" stroke="#131313" stroke-miterlimit="10"/>
<path d="M150.209 291.9C150.209 291.9 151.957 287.38 154.457 292.147C156.956 296.914 152.204 301.175 152.204 301.175L150.209 291.9Z" fill="white" stroke="#131313" stroke-miterlimit="10"/>
<path d="M121.681 309.463C121.681 309.463 126.679 327.532 127.935 333.806C129.191 340.08 134.941 349.121 139.189 346.157C143.436 343.193 143.203 337.623 140.691 332.855C139.037 329.56 137.698 326.115 136.689 322.567L121.681 309.463Z" fill="white"/>
<g style="mix-blend-mode:multiply">
<path d="M140.691 332.806C139.037 329.51 137.698 326.066 136.689 322.518L121.681 309.463C121.681 309.463 125.781 324.284 127.48 331.694C129.65 333.394 132.118 334.672 134.756 335.461C137.037 336.087 139.471 335.808 141.553 334.683C141.305 334.04 141.017 333.413 140.691 332.806Z" fill="#F2F2FB"/>
</g>
<path d="M121.681 309.463C121.681 309.463 126.679 327.532 127.935 333.806C129.191 340.08 134.941 349.121 139.189 346.157C143.436 343.193 143.203 337.623 140.691 332.855C139.037 329.56 137.698 326.115 136.689 322.567L121.681 309.463Z" stroke="#263238" stroke-miterlimit="10"/>
<path d="M112.705 290.64C112.705 290.64 124.463 319.047 129.474 325.531C134.486 332.015 147.943 332.559 153.742 323.061C159.541 313.563 152.991 300.731 151.994 294.951C150.996 289.171 148.3 279.648 149.987 277.895C151.674 276.141 158.741 274.881 155.995 270.361C153.249 265.84 149.236 268.101 148.743 264.84C148.251 261.579 150.738 253.539 141.479 252.292C132.22 251.044 115.956 262.073 109.467 270.608C102.978 279.142 100.91 286.874 112.705 290.64Z" fill="#131313" stroke="#131313" stroke-miterlimit="10"/>
<path d="M116.399 282.106C116.399 282.106 108.692 281.526 112.558 274.091C116.424 266.655 142.218 256.639 142.538 262.135C142.858 267.631 137.059 269.249 137.059 269.249" stroke="white" stroke-width="0.75" stroke-linecap="round" stroke-linejoin="round"/>
<path d="M126.766 275.066C126.766 275.066 120.967 273.77 122.9 269.57C124.833 265.371 139.017 263.395 136.444 266.013C134.918 267.547 133.181 268.853 131.285 269.891" stroke="white" stroke-width="0.75" stroke-linecap="round" stroke-linejoin="round"/>
<path d="M145.444 307.709C145.444 307.709 141.196 314.477 134.437 311.217" stroke="white" stroke-width="0.75" stroke-linecap="round" stroke-linejoin="round"/>
<path d="M151.957 294.901C151.021 289.504 148.547 280.797 149.667 278.265C148.916 276.449 146.33 272.213 138.697 271.818C128.933 271.311 118.431 276.832 116.424 282.106C114.417 287.38 119.182 284.576 120.93 288.38C122.679 292.184 118.172 296.667 119.182 299.422C120.192 302.176 124.932 313.007 124.932 313.007C125.683 309.994 136.949 304.967 136.949 304.967C138.578 305.399 140.265 305.57 141.947 305.473C144.2 305.226 142.945 303.213 142.945 303.213L154.481 303.905C153.496 300.261 152.327 297.087 151.957 294.901Z" fill="white"/>
<g style="mix-blend-mode:multiply">
<path d="M125.313 284.119C124.845 279.179 121.62 278.203 119.477 278.117C118.147 279.18 117.091 280.548 116.399 282.106C114.405 287.38 119.157 284.576 120.905 288.38C122.654 292.184 118.148 296.668 119.157 299.422C120.167 302.176 124.907 313.008 124.907 313.008C125.153 312.044 126.458 310.871 128.133 309.735C125.67 306.215 122.666 301.929 120.967 299.446C117.766 294.691 126.04 291.777 125.313 284.119Z" fill="#F2F2FB"/>
</g>
<path d="M151.957 294.901C151.021 289.504 148.547 280.797 149.667 278.265C148.916 276.449 146.33 272.213 138.697 271.818C128.933 271.311 118.431 276.832 116.424 282.106C114.417 287.38 119.182 284.576 120.93 288.38C122.679 292.184 118.172 296.667 119.182 299.422C120.192 302.176 124.932 313.007 124.932 313.007C125.683 309.994 136.949 304.967 136.949 304.967C138.578 305.399 140.265 305.57 141.947 305.473C144.2 305.226 142.945 303.213 142.945 303.213L154.481 303.905C153.496 300.261 152.327 297.087 151.957 294.901Z" stroke="#131313" stroke-miterlimit="10"/>
<path d="M130.755 293.691C131.075 295.087 130.755 296.359 130.127 296.507C129.499 296.656 128.662 295.643 128.354 294.235C128.046 292.827 128.354 291.567 128.982 291.419C129.61 291.27 130.447 292.283 130.755 293.691Z" fill="#131313"/>
<path d="M145.653 290.616C145.973 292.024 145.653 293.283 145.025 293.432C144.397 293.58 143.56 292.567 143.24 291.159C142.92 289.751 143.24 288.491 143.88 288.343C144.52 288.195 145.333 289.208 145.653 290.616Z" fill="#131313"/>
<path d="M124.932 287.121C124.932 287.121 125.929 281.6 131.691 283.86" stroke="#131313" stroke-linecap="round" stroke-linejoin="round"/>
<path d="M147.179 281.353C142.919 278.586 141.417 282.588 141.417 282.588C141.417 282.588 138.721 285.552 139.817 291.023" stroke="#131313" stroke-linecap="round" stroke-linejoin="round"/>
<path d="M125.683 301.929L132.935 298.928" stroke="#131313" stroke-width="0.5" stroke-linecap="round" stroke-linejoin="round"/>
<path d="M143.203 296.667L149.199 296.161" stroke="#131313" stroke-width="0.5" stroke-linecap="round" stroke-linejoin="round"/>
<path d="M326.934 203.345C354.654 196.654 371.719 168.687 365.048 140.88C358.378 113.073 330.498 95.9553 302.778 102.647C275.057 109.338 257.992 137.304 264.663 165.112C271.333 192.919 299.213 210.037 326.934 203.345Z" fill="white" stroke="#131313" stroke-miterlimit="10"/>
<path d="M358.952 142.687C365.906 123.878 355.718 102.743 336.197 95.4794C316.675 88.2161 295.212 97.5756 288.257 116.384C281.303 135.193 291.49 156.328 311.012 163.592C330.534 170.855 351.997 161.495 358.952 142.687Z" fill="#131313" stroke="#131313" stroke-miterlimit="10"/>
<path d="M358.679 122.338C360.386 128.457 360.275 134.943 358.359 141" stroke="white" stroke-width="0.75" stroke-linecap="round" stroke-linejoin="round"/>
<path d="M356.07 145.903C356.07 145.903 353.78 148.855 352.475 150.498" stroke="white" stroke-width="0.75" stroke-linecap="round" stroke-linejoin="round"/>
<path d="M302.536 106.616C302.536 106.616 297.316 112.791 300.579 120.375" stroke="white" stroke-width="0.75" stroke-linecap="round" stroke-linejoin="round"/>
<path d="M314.861 204.791C324.374 204.808 333.705 202.174 341.812 197.183C335.792 191.613 320.118 177.743 312.731 177.138C304.999 176.508 282.43 183.758 275.203 186.166C280.044 192.002 286.107 196.696 292.962 199.915C299.816 203.134 307.293 204.799 314.861 204.791Z" fill="white" stroke="#131313" stroke-miterlimit="10"/>
<path d="M322.482 183.672C322.691 183.054 322.876 182.436 323.073 181.93C319.108 179.287 315.378 177.36 312.731 177.138C309.517 177.105 306.311 177.474 303.189 178.237C301.822 181.942 301.465 185.648 300.357 191.959C298.855 200.493 301.108 203 307.363 199.74C313.617 196.479 319.983 191.193 322.482 183.672Z" fill="white" stroke="#131313" stroke-miterlimit="10"/>
<path d="M307.473 167.85C307.473 167.85 308.975 170.617 307.227 177.138C305.479 183.659 301.071 194.429 303.115 196.479C305.159 198.529 317.483 189.192 317.976 182.165C318.468 175.137 318.48 161.082 318.48 161.082L307.473 167.85Z" fill="white"/>
<g style="mix-blend-mode:multiply">
<path d="M308.051 172.074L315.956 178.25L315.353 188.13C316.753 186.415 317.66 184.348 317.975 182.153C318.48 175.125 318.48 161.07 318.48 161.07L307.473 167.838C308.008 169.181 308.206 170.636 308.051 172.074Z" fill="#F2F2FB"/>
</g>
<path d="M307.473 167.85C307.473 167.85 308.975 170.617 307.227 177.138C305.479 183.659 301.071 194.429 303.115 196.479C305.159 198.529 317.483 189.192 317.976 182.165C318.468 175.137 318.48 161.082 318.48 161.082L307.473 167.85Z" stroke="#131313" stroke-miterlimit="10"/>
<path d="M294.927 136.986C294.927 136.986 293.178 132.466 290.925 135.751C288.672 139.036 291.418 143.026 292.673 143.026C293.929 143.026 294.927 136.986 294.927 136.986Z" fill="white" stroke="#131313" stroke-miterlimit="10"/>
<path d="M300.714 122.424C300.714 122.424 293.462 136.726 291.714 146.52C289.965 156.315 297.217 171.111 304.469 171.111C311.721 171.111 322.938 159.822 322.938 159.822C322.938 159.822 333.44 160.069 334.942 156.562C336.444 153.054 334.696 150.287 331.938 150.287H326.434C326.434 150.287 324.932 151.041 325.683 144.013C326.434 136.986 328.688 133.725 328.688 133.725C328.688 133.725 309.702 135.22 300.714 122.424Z" fill="white"/>
<g style="mix-blend-mode:multiply">
<path d="M319.946 155.29C318.424 159.172 315.921 162.591 312.683 165.209C309.445 167.827 305.583 169.555 301.477 170.222H301.403C302.35 170.776 303.422 171.078 304.518 171.098C311.77 171.098 322.987 159.81 322.987 159.81C322.987 159.81 333.489 160.057 334.991 156.549C336.493 153.042 334.745 150.275 331.987 150.275H326.483C326.483 150.275 324.981 151.029 325.732 144.001C326.483 136.973 328.737 133.713 328.737 133.713C328.737 133.713 327.505 133.799 325.474 133.713H325.388" fill="#F2F2FB"/>
</g>
<path d="M300.714 122.424C300.714 122.424 293.462 136.726 291.714 146.52C289.965 156.315 297.217 171.111 304.469 171.111C311.721 171.111 322.938 159.822 322.938 159.822C322.938 159.822 333.44 160.069 334.942 156.562C336.444 153.054 334.696 150.287 331.938 150.287H326.434C326.434 150.287 324.932 151.041 325.683 144.013C326.434 136.986 328.688 133.725 328.688 133.725C328.688 133.725 309.702 135.22 300.714 122.424Z" stroke="#131313" stroke-miterlimit="10"/>
<path d="M301.677 136.739C301.718 137.137 301.683 137.7 301.555 138.326C301.416 138.937 301.207 139.451 300.997 139.786C300.926 139.899 300.862 139.982 300.808 140.038C300.786 139.966 300.765 139.868 300.751 139.741C300.708 139.347 300.743 138.786 300.882 138.156C301.021 137.53 301.23 137.016 301.44 136.685C301.509 136.576 301.571 136.496 301.624 136.441C301.645 136.514 301.664 136.612 301.677 136.739ZM300.697 140.131C300.697 140.131 300.698 140.13 300.7 140.129C300.698 140.131 300.697 140.131 300.697 140.131ZM300.864 140.169C300.865 140.17 300.866 140.171 300.866 140.171C300.866 140.171 300.865 140.17 300.864 140.169ZM301.736 136.348C301.736 136.349 301.735 136.349 301.733 136.35C301.735 136.349 301.736 136.348 301.736 136.348ZM301.568 136.306C301.567 136.305 301.566 136.304 301.566 136.304C301.566 136.304 301.567 136.305 301.568 136.306Z" fill="#131313" stroke="#131313"/>
<path d="M313.314 143.582C313.175 144.197 312.965 144.716 312.754 145.053C312.684 145.165 312.621 145.247 312.568 145.303C312.545 145.23 312.523 145.13 312.509 144.999C312.465 144.608 312.5 144.054 312.64 143.431C312.778 142.81 312.988 142.293 313.199 141.957C313.268 141.846 313.331 141.765 313.384 141.71C313.408 141.784 313.43 141.886 313.445 142.019C313.488 142.412 313.453 142.966 313.314 143.582ZM312.459 145.395C312.459 145.395 312.46 145.394 312.462 145.394C312.46 145.395 312.459 145.395 312.459 145.395ZM312.624 145.429C312.625 145.43 312.626 145.431 312.626 145.431C312.626 145.431 312.625 145.43 312.624 145.429ZM313.492 141.62C313.492 141.62 313.491 141.62 313.489 141.621C313.491 141.62 313.492 141.62 313.492 141.62ZM313.328 141.585C313.327 141.584 313.326 141.583 313.326 141.583C313.326 141.583 313.327 141.583 313.328 141.585Z" fill="#131313" stroke="#131313"/>
<path d="M303.965 141.753C303.965 141.753 298.461 145.767 299.212 146.768C301.266 148.54 303.79 149.673 306.476 150.028C308.729 150.028 308.225 147.274 308.225 147.274" stroke="#131313" stroke-linecap="round" stroke-linejoin="round"/>
<path d="M299.963 153.301C302.714 154.806 305.863 155.418 308.975 155.055C310.26 154.929 311.496 154.499 312.583 153.801C313.67 153.104 314.577 152.158 315.23 151.041" stroke="#131313" stroke-linecap="round" stroke-linejoin="round"/>
<path d="M300.468 132.466C300.468 132.466 301.97 129.205 304.974 132.972" stroke="#131313" stroke-linecap="round" stroke-linejoin="round"/>
<path d="M313.223 136.986C313.223 136.986 318.234 135.479 318.234 140.493" stroke="#131313" stroke-linecap="round" stroke-linejoin="round"/>
<path d="M143.531 204.109C171.665 199.467 190.721 172.826 186.093 144.604C181.466 116.383 154.908 97.2675 126.774 101.909C98.64 106.551 79.5842 133.192 84.2114 161.414C88.8387 189.635 115.397 208.751 143.531 204.109Z" fill="white" stroke="#131313" stroke-miterlimit="10"/>
<path d="M99.6292 179.275C98.7428 182.819 94.7043 182.325 95.9356 186.685C104.185 196.372 115.706 202.667 128.294 204.365C140.881 206.062 153.651 203.044 164.158 195.886C167.852 191.502 170.068 186.895 170.166 183.19C170.499 171.877 158.58 163.429 157.94 157.982C157.3 152.535 162.446 140.222 162.446 140.222C162.446 140.222 171.459 138.925 174.685 130.86C177.911 122.795 165.648 104.652 154.69 99.1558C143.732 93.6598 125.386 98.5136 116.374 111.754C107.361 124.993 118.307 136.628 112.508 142.766C106.709 148.904 91.577 149.226 89.9641 161.502C88.3512 173.779 100.59 175.397 99.6292 179.275Z" fill="#131313" stroke="#131313" stroke-miterlimit="10"/>
<path d="M154.726 111.469C154.726 111.469 157.989 119.485 145.283 124.215C132.577 128.945 122.776 126.401 119.501 134.775C116.226 143.149 118.774 148.991 119.144 153.301C119.513 157.611 109.294 156.932 103.138 162.403C96.9817 167.875 109.294 174.421 112.581 178.064C115.869 181.708 115.118 187.167 109.306 188.995" stroke="white" stroke-width="0.75" stroke-linecap="round" stroke-linejoin="round"/>
<path d="M116.238 128.229C116.238 128.229 120.954 116.57 128.218 114.742C135.482 112.914 143.473 118.386 148.915 113.285C154.357 108.184 153.274 104.553 149.272 101.638" stroke="white" stroke-width="0.75" stroke-linecap="round" stroke-linejoin="round"/>
<path d="M160.169 116.2C160.169 116.2 172.888 124.586 168.529 131.144C164.17 137.702 162.718 129.687 162.718 129.687" stroke="white" stroke-width="0.75" stroke-linecap="round" stroke-linejoin="round"/>
<path d="M107.152 196.504C116.796 202.756 128.244 205.602 139.683 204.591C151.121 203.58 161.897 198.769 170.302 190.921C166.501 187.419 162.47 184.175 158.236 181.214C150.184 175.718 143.744 173.803 139.238 174.1C139.238 174.1 135.692 175.718 128.933 182.177C124.525 186.389 113.936 192.651 107.152 196.504Z" fill="white" stroke="#131313" stroke-miterlimit="10"/>
<path d="M151.144 182.98C151.147 180.83 150.84 178.692 150.232 176.631C146.823 174.922 143.048 174.074 139.238 174.161C139.238 174.161 136.418 175.396 131.038 180.337C130.924 181.25 130.866 182.17 130.865 183.091C130.865 191.576 135.396 198.443 140.998 198.443C146.6 198.443 151.144 191.464 151.144 182.98Z" fill="white" stroke="#131313" stroke-miterlimit="10"/>
<path d="M136.653 157.624C136.653 157.624 136.653 166.677 135.692 175.075C134.732 183.474 136.012 192.515 142.132 193.157C148.251 193.799 147.278 179.275 146.638 173.457C146.258 169.807 146.258 166.127 146.638 162.477L136.653 157.624Z" fill="white"/>
<g style="mix-blend-mode:multiply">
<path d="M135.507 177.027L146.379 166.455C146.379 166.121 146.379 165.8 146.379 165.504L144.162 161.366L136.615 157.661C136.615 157.661 136.615 166.714 135.655 175.113C135.618 175.718 135.556 176.372 135.507 177.027Z" fill="#F2F2FB"/>
</g>
<path d="M136.653 157.624C136.653 157.624 136.653 166.677 135.692 175.075C134.732 183.474 136.012 192.515 142.132 193.157C148.251 193.799 147.278 179.275 146.638 173.457C146.258 169.807 146.258 166.127 146.638 162.477L136.653 157.624Z" stroke="#131313" stroke-miterlimit="10"/>
<path d="M158.555 117.249C158.555 117.249 159.196 121.448 148.25 126.623C137.304 131.798 131.825 135.985 130.865 140.827C129.905 145.668 129.572 147.62 129.572 147.62C129.572 147.62 127.319 143.087 123.133 145.347C118.947 147.607 122.813 156.339 126.679 156.66C130.545 156.981 131.505 155.685 131.505 155.685C131.505 155.685 144.064 168.282 151.464 168.282C158.863 168.282 161.769 161.181 163.382 148.521C164.945 136.368 158.555 117.249 158.555 117.249Z" fill="white"/>
<g style="mix-blend-mode:multiply">
<path d="M134.386 143.161C134.777 139.093 136.22 135.197 138.573 131.86C133.98 134.874 131.481 137.714 130.865 140.827C129.892 145.681 129.572 147.62 129.572 147.62C129.572 147.62 127.319 143.087 123.133 145.347C118.947 147.607 122.813 156.339 126.679 156.66C130.545 156.981 131.505 155.685 131.505 155.685C131.505 155.685 144.064 168.282 151.464 168.282C149.267 167.187 147.201 165.845 145.307 164.281C140.924 161.069 134.029 151.189 134.386 143.161Z" fill="#F2F2FB"/>
</g>
<path d="M158.555 117.249C158.555 117.249 159.196 121.448 148.25 126.623C137.304 131.798 131.825 135.985 130.865 140.827C129.905 145.668 129.572 147.62 129.572 147.62C129.572 147.62 127.319 143.087 123.133 145.347C118.947 147.607 122.813 156.339 126.679 156.66C130.545 156.981 131.505 155.685 131.505 155.685C131.505 155.685 144.064 168.282 151.464 168.282C158.863 168.282 161.769 161.181 163.382 148.521C164.945 136.368 158.555 117.249 158.555 117.249Z" stroke="#131313" stroke-miterlimit="10"/>
<path d="M156.327 136.85C155.961 137.851 155.81 138.918 155.882 139.982C155.954 141.046 156.248 142.083 156.745 143.025C158.432 146.199 159.282 147.249 158.654 148.101C158.474 148.394 158.238 148.649 157.96 148.85C157.681 149.051 157.366 149.196 157.032 149.275C156.698 149.354 156.352 149.367 156.014 149.311C155.675 149.256 155.35 149.135 155.059 148.953" stroke="#131313" stroke-linecap="round" stroke-linejoin="round"/>
<path d="M155.059 156.549C155.059 156.549 148.903 158.884 146.822 154.425" stroke="#131313" stroke-linecap="round" stroke-linejoin="round"/>
<path d="M148.44 141.617C148.44 142.249 148.349 142.81 148.217 143.195C148.174 143.323 148.129 143.419 148.089 143.489C148.052 143.423 148.011 143.331 147.97 143.21C147.841 142.831 147.753 142.271 147.753 141.617C147.753 140.964 147.841 140.403 147.97 140.024C148.011 139.903 148.052 139.811 148.089 139.745C148.129 139.815 148.174 139.912 148.217 140.039C148.349 140.424 148.44 140.985 148.44 141.617ZM147.999 143.611C147.999 143.611 148 143.61 148.002 143.609C148 143.611 147.999 143.611 147.999 143.611ZM148.176 143.609C148.177 143.61 148.178 143.61 148.178 143.61C148.178 143.61 148.177 143.61 148.176 143.609ZM148.178 139.624C148.178 139.624 148.177 139.625 148.176 139.626C148.177 139.625 148.178 139.624 148.178 139.624ZM148.002 139.625C148 139.624 147.999 139.623 147.999 139.623C147.999 139.623 148 139.624 148.002 139.625Z" fill="#263238" stroke="#131313"/>
<path d="M159.632 138.863C159.632 139.494 159.542 140.044 159.411 140.419C159.367 140.546 159.322 140.64 159.282 140.707C159.242 140.64 159.198 140.546 159.153 140.419C159.023 140.044 158.933 139.494 158.933 138.863C158.933 138.232 159.023 137.682 159.153 137.308C159.198 137.181 159.242 137.086 159.282 137.02C159.322 137.086 159.367 137.181 159.411 137.308C159.542 137.682 159.632 138.232 159.632 138.863ZM159.197 140.818C159.197 140.818 159.198 140.817 159.2 140.816C159.198 140.817 159.197 140.818 159.197 140.818ZM159.365 140.816C159.366 140.817 159.367 140.818 159.367 140.818C159.367 140.818 159.366 140.817 159.365 140.816ZM159.367 136.909C159.367 136.909 159.366 136.909 159.365 136.91C159.366 136.909 159.367 136.909 159.367 136.909ZM159.2 136.91C159.198 136.909 159.197 136.909 159.197 136.909C159.197 136.909 159.198 136.909 159.2 136.91Z" fill="#263238" stroke="#131313"/>
<path d="M142.82 134.528C142.82 134.528 144.052 131.131 149.149 131.774" stroke="#131313" stroke-linecap="round" stroke-linejoin="round"/>
<path d="M156.536 131.132C156.536 131.132 158.014 127.537 161.178 130.502" stroke="#131313" stroke-linecap="round" stroke-linejoin="round"/>
<circle opacity="0.3" cx="441" cy="109" r="9" fill="#C4C1FA"/>
<circle opacity="0.3" r="9" transform="matrix(-1 0 0 1 51 314)" fill="#C4C1FA"/>
<circle cx="63" cy="57" r="9" fill="#F88419"/>
<circle opacity="0.3" r="9" transform="matrix(1 0 0 -1 70 15)" fill="#C4C1FA"/>
<circle cx="419" cy="90" r="6" fill="#0053F1"/>
<circle r="6" transform="matrix(-1 0 0 1 32 333)" fill="#0053F1"/>
<circle r="6" transform="matrix(1 0 0 -1 376 15)" fill="#0053F1"/>
<circle cx="92" cy="51" r="6" transform="rotate(-180 92 51)" fill="#0053F1"/>
<circle r="6" transform="matrix(1 0 0 -1 413 322)" fill="#F88419"/>
<circle cx="441" cy="87" r="3" fill="#F88419"/>
<circle r="3" transform="matrix(-1 0 0 1 16 318)" fill="#F88419"/>
<circle r="3" transform="matrix(1 0 0 -1 382 36)" fill="#F88419"/>
</g>
<defs>
<clipPath id="clip0">
<rect width="35.8229" height="39.5288" fill="white" transform="translate(206.036 208.624)"/>
</clipPath>
<clipPath id="clip1">
<rect width="42.8228" height="42.8228" fill="white" transform="translate(25.96 207.526)"/>
</clipPath>
<clipPath id="clip2">
<rect width="19.413" height="28.5485" fill="white" transform="translate(214.82 60.3911)"/>
</clipPath>
</defs>
</svg>
