<svg width="492" height="382" viewBox="0 0 492 382" fill="none" xmlns="http://www.w3.org/2000/svg">
<mask id="mask0" mask-type="alpha" maskUnits="userSpaceOnUse" x="0" y="0" width="492" height="382">
<rect width="492" height="382" fill="#C4C4C4"/>
</mask>
<g mask="url(#mask0)">
<path d="M435.811 82.6611C398.577 40.1244 346.685 11.8496 290.449 10.0236C210.357 7.43681 169.097 74.804 109.648 105.887C50.1989 136.97 8.92519 164.276 1.64403 225.142C-5.63713 286.008 0.430493 343.028 50.1851 371.524C99.9397 400.02 130.278 352.157 194.581 354.689C258.884 357.22 297.731 435.045 378.416 411.709C431.522 396.354 470.879 340.095 485.676 285.98C505.947 211.835 482.476 136.057 435.811 82.6611Z" fill="#F4F6FD"/>
<path d="M161.044 239.794C161.044 239.794 168.711 284.737 172.076 307.811C175.441 330.885 174.958 331.327 173.041 338.576C171.125 345.824 135.656 411.891 134.939 412.846C134.222 413.8 128.044 412.597 127.272 410.439L126.555 408.281C126.555 408.281 142.124 351.316 146.675 341.218C151.225 331.12 151.239 328.007 146.923 316.471C142.607 304.934 134.843 284.309 134.843 284.309C134.843 284.309 130.706 326.361 124.059 357.845C117.412 389.329 119.508 423.705 117.84 424.894C116.171 426.084 109.442 427.066 108.49 424.424C107.539 421.782 95.3067 378.512 98.9059 349.919C102.505 321.326 106.339 312.417 102.505 295.112C98.6715 277.807 94.107 253.295 95.0723 239.78C96.0376 226.265 150.922 224.66 161.044 239.794Z" fill="#131313" stroke="#263238" stroke-linecap="round" stroke-linejoin="round"/>
<path d="M243.425 176.632H229.166C227.787 176.632 216.686 182.358 216.686 182.358L192.099 189.87L194.953 199.885L218.479 188.072L226.67 187.366C229.243 187.14 231.651 185.997 233.455 184.143C233.455 184.143 241.646 181.999 243.425 180.574C245.204 179.149 243.425 176.632 243.425 176.632Z" fill="white" stroke="#263238" stroke-linecap="round" stroke-linejoin="round"/>
<path d="M420.297 67.9999C420.297 67.9999 416.063 54.2636 397.791 51.6491C379.519 49.0347 361.937 55.5778 356.049 69.9642C350.16 84.3506 363.495 91.696 359.579 102.818C355.663 113.94 333.157 104.118 320.774 119.501C308.39 134.883 310.004 146.973 317.175 157.777C324.345 168.58 333.488 170.226 324.676 180.352C315.864 190.478 306.418 196.053 310.652 212.736C314.885 229.418 332.84 243.487 369.949 244.137C407.058 244.787 411.692 212.085 409.085 185.581C406.479 159.077 414.946 153.198 428.391 139.462C441.837 125.725 440.499 90.9075 420.297 67.9999Z" fill="#131313" stroke="#131313" stroke-linecap="round" stroke-linejoin="round"/>
<path d="M332.771 231.259C336.067 234.025 340.025 234.952 343.335 233.403" stroke="white" stroke-linecap="round" stroke-linejoin="round"/>
<path d="M330.331 134.911C327.09 137.474 324.933 141.169 324.291 145.258C321.643 161.705 339.101 168.608 342.218 178.153C345.334 187.698 328.993 195.666 326.346 211.062C325.217 216.804 326.37 222.76 329.559 227.662" stroke="white" stroke-linecap="round" stroke-linejoin="round"/>
<path d="M369.274 93.3152C369.274 93.3152 367.688 112.944 358.697 120.912C354.353 124.758 346.796 126.736 339.846 129.627" stroke="white" stroke-linecap="round" stroke-linejoin="round"/>
<path d="M395.393 89.1787C397.853 96.6141 402.362 103.199 408.397 108.172C424.269 120.912 432.198 123.029 432.198 123.029" stroke="white" stroke-linecap="round" stroke-linejoin="round"/>
<path d="M392.523 74.2114C392.571 76.1403 392.756 78.0633 393.075 79.9661" stroke="white" stroke-linecap="round" stroke-linejoin="round"/>
<path d="M414.216 65.7452C405.707 64.7277 397.086 66.2026 389.394 69.992C376.169 76.3552 366.654 85.9139 360.297 81.6671" stroke="white" stroke-linecap="round" stroke-linejoin="round"/>
<path d="M425.413 112.778C427.039 114.195 428.778 115.477 430.612 116.61" stroke="white" stroke-linecap="round" stroke-linejoin="round"/>
<path d="M409.982 67.3083C409.982 67.3083 406.893 92.0421 421.442 108.808" stroke="white" stroke-linecap="round" stroke-linejoin="round"/>
<path d="M360.255 70.504C360.255 70.504 362.903 74.737 377.189 66.2572C391.476 57.7775 402.577 61.471 408.396 63.6013" stroke="white" stroke-linecap="round" stroke-linejoin="round"/>
<path d="M386.801 305.639C386.801 305.639 385.491 333.125 385.491 346.211C385.491 359.298 383.201 406.399 384.842 422.1C386.483 437.8 395.874 445.339 398.867 444.676C401.859 444.012 400.494 433.609 396.909 425.046C393.323 416.484 393.323 399.856 394.62 395.997C395.916 392.137 407.665 368.842 407.665 355.756C407.665 342.67 405.39 333.181 407.017 322.377C408.644 311.573 409.623 307.008 409.623 307.008L386.801 305.639Z" fill="white" stroke="#131313" stroke-miterlimit="10"/>
<path d="M381.299 305.639C381.299 305.639 382.596 333.125 382.596 346.211C382.596 359.298 384.885 406.399 383.257 422.1C381.63 437.8 372.225 445.339 369.233 444.676C366.24 444.012 367.606 433.609 371.191 425.046C374.777 416.484 374.777 399.856 373.466 395.997C372.156 392.137 360.421 368.842 360.421 355.756C360.421 342.67 362.71 333.181 361.083 322.377C359.456 311.573 358.463 307.008 358.463 307.008L381.299 305.639Z" fill="white" stroke="#131313" stroke-miterlimit="10"/>
<path d="M378.789 118.851L347.485 130.623L362.158 196.371C362.158 196.371 351.402 210.439 346.837 225.172C342.272 239.904 344.217 264.748 348.133 280.131C352.05 295.513 358.117 312.182 358.117 312.182H411.457C411.457 312.182 425.096 265.73 422.489 237.926C421.001 221.41 415.877 205.431 407.486 191.142L420.862 129.308L390.524 117.868L378.789 118.851Z" fill="#F88419" stroke="#131313" stroke-linecap="round" stroke-linejoin="round"/>
<path d="M374.514 254.097C374.514 254.097 384.663 279.163 383.891 299.525" stroke="#131313" stroke-linecap="round" stroke-linejoin="round"/>
<path d="M396.385 258.8C393.99 264.912 390.839 270.698 387.008 276.022" stroke="#131313" stroke-linecap="round" stroke-linejoin="round"/>
<path d="M376.514 113.65C377.155 120.51 378.354 127.306 380.099 133.97C382.705 143.045 387.918 146.074 391.503 135.271C395.089 124.467 393.793 106.747 393.793 106.747C393.793 106.747 385.312 118.837 376.514 113.65Z" fill="white" stroke="#131313" stroke-linecap="round" stroke-linejoin="round"/>
<path d="M420.863 129.377L448.277 187.269C449.767 190.506 449.119 197.837 446.388 200.12C445.49 200.876 444.434 201.423 443.299 201.718C442.163 202.014 440.976 202.052 439.824 201.829C438.672 201.607 437.584 201.129 436.639 200.431C435.695 199.734 434.917 198.833 434.363 197.796L414.671 158.828L420.863 129.377Z" fill="#F88419" stroke="#131313" stroke-linecap="round" stroke-linejoin="round"/>
<path opacity="0.3" d="M425.087 201.213C425.717 201.571 426.103 202.242 426.097 202.968L425.957 220.467L426.097 237.963C426.103 238.691 425.715 239.365 425.083 239.724L409.909 248.349L394.876 257.219C394.25 257.588 393.474 257.588 392.849 257.219L377.814 248.349L362.637 239.722C362.007 239.364 361.621 238.692 361.626 237.966L361.767 220.467L361.626 202.971C361.621 202.244 362.009 201.57 362.64 201.211L377.814 192.585L392.848 183.716C393.474 183.347 394.25 183.347 394.875 183.715L409.909 192.585L425.087 201.213Z" fill="#DFDEF8"/>
<path d="M429.087 197.2C429.717 197.558 430.103 198.23 430.097 198.956L429.957 216.455L430.097 233.951C430.103 234.678 429.715 235.352 429.083 235.711L413.909 244.337L398.876 253.206C398.25 253.575 397.474 253.576 396.849 253.207L381.814 244.337L366.637 235.709C366.007 235.351 365.621 234.68 365.626 233.954L365.767 216.455L365.626 198.959C365.621 198.231 366.009 197.557 366.64 197.198L381.814 188.573L396.848 179.704C397.474 179.334 398.25 179.334 398.875 179.703L413.909 188.573L429.087 197.2Z" fill="#0053F1"/>
<path fill-rule="evenodd" clip-rule="evenodd" d="M421.717 203.431L398.95 190.283L376.155 203.479L376.128 229.823L398.895 242.971L421.69 229.775L421.717 203.431ZM419.024 204.991L398.951 193.404L378.85 205.04L378.822 228.263L398.894 239.85L418.995 228.214L419.024 204.991ZM409.788 205.784L413.715 208.167L413.571 216.014L416.573 216.176L416.662 206.459L409.863 202.617L381.301 219.166L381.14 222.382L395.562 214.026L396 214.787L396 214.787L400.63 222.834L403.526 221.156L398.459 212.348L409.788 205.784ZM398.458 212.348L398.459 212.348L397.902 211.38L397.902 211.381L398.458 212.348ZM395.485 235.726L413.484 225.297L413.131 229.946L415.995 228.286L416.423 217.688L413.663 217.591L413.461 221.88L392.527 234.016L395.485 235.726ZM392.929 202.382L381.228 214.034L381.225 216.427L407.079 201.447L404.145 199.753L392.414 206.55L400.397 198.177L397.917 196.746L381.237 206.401L381.234 209.158L392.929 202.382Z" fill="white"/>
<path d="M437.494 185.581L408.148 229.087L413.664 234.979C413.664 234.979 449.201 200.964 450.512 196.371C451.822 191.779 447.905 186.564 445.616 182.967" fill="#F88419"/>
<path d="M437.494 185.581L408.148 229.087L413.664 234.979C413.664 234.979 449.201 200.964 450.512 196.371C451.822 191.779 447.905 186.564 445.616 182.967" stroke="#131313" stroke-linecap="round" stroke-linejoin="round"/>
<path d="M408.148 229.086C408.148 229.086 399.667 232.365 398.688 233.015C396.714 235.209 394.872 237.519 393.172 239.932C393.172 239.932 391.531 243.86 393.172 243.86C394.813 243.86 396.109 241.232 397.088 240.582C398.067 239.932 398.384 243.196 397.088 244.51C395.792 245.824 392.193 251.427 394.799 252.686C397.405 253.944 399.694 250.403 400.674 250.403C401.653 250.403 406.865 251.053 409.803 247.775C412.74 244.496 413.719 235.021 413.719 235.021L408.148 229.086Z" fill="white" stroke="#131313" stroke-linecap="round" stroke-linejoin="round"/>
<path d="M347.486 130.623L333.42 186.605C332.689 189.538 329.876 196.219 332.344 197.962L333.985 199.608C337.667 202.209 344.811 201.586 346.783 197.547L356.656 171.845L347.486 130.623Z" fill="#F88419" stroke="#131313" stroke-linecap="round" stroke-linejoin="round"/>
<path d="M340.632 184.599L300.516 179.066L300.199 186.259C300.199 186.259 322.043 197.879 329.158 201.158C336.274 204.436 344.396 202.804 346.672 197.575C348.947 192.346 351.347 181.404 351.347 181.404" fill="#F88419"/>
<path d="M340.632 184.599L300.516 179.066L300.199 186.259C300.199 186.259 322.043 197.879 329.158 201.158C336.274 204.436 344.396 202.804 346.672 197.575C348.947 192.346 351.347 181.404 351.347 181.404" stroke="#131313" stroke-linecap="round" stroke-linejoin="round"/>
<path d="M295.194 181.736C293.861 181.248 292.47 180.941 291.056 180.823L288.492 174.128C288.492 174.128 281.762 172.661 277.818 173.353C273.874 174.045 278.742 179.882 279.68 181.279C280.024 181.805 281.927 182.303 284.148 182.663L282.92 186.813C282.92 186.813 286.878 189.136 289.664 189.136C292.449 189.136 300.241 186.176 300.241 186.176C299.022 184.237 297.269 182.695 295.194 181.736Z" fill="white" stroke="#131313" stroke-linecap="round" stroke-linejoin="round"/>
<path d="M257.8 156.123C258.427 155.753 259.205 155.753 259.832 156.123L274.864 164.99L290.04 173.617C290.67 173.976 291.058 174.647 291.052 175.372L290.911 192.872L291.052 210.373C291.058 211.098 290.67 211.769 290.04 212.127L274.864 220.754L259.832 229.622C259.205 229.992 258.427 229.992 257.8 229.622L242.769 220.754L227.592 212.127C226.962 211.769 226.575 211.098 226.581 210.373L226.721 192.872L226.581 175.372C226.575 174.647 226.962 173.976 227.592 173.617L242.769 164.99L257.8 156.123Z" fill="#DFDEF8"/>
<path d="M253.8 152.11C254.427 151.74 255.205 151.74 255.832 152.11L270.864 160.978L286.04 169.605C286.67 169.963 287.058 170.635 287.052 171.36L286.911 188.86L287.052 206.36C287.058 207.085 286.67 207.757 286.04 208.115L270.864 216.742L255.832 225.61C255.205 225.98 254.427 225.98 253.8 225.61L238.769 216.742L223.592 208.115C222.962 207.757 222.575 207.085 222.581 206.36L222.721 188.86L222.581 171.36C222.575 170.635 222.962 169.963 223.592 169.605L238.769 160.978L253.8 152.11Z" fill="#0053F1"/>
<path fill-rule="evenodd" clip-rule="evenodd" d="M255.515 162.577L232.762 175.778L232.752 202.161L255.496 215.345L278.249 202.144L278.259 175.761L255.515 162.577ZM255.514 165.695L235.458 177.335L235.45 200.601L255.497 212.227L275.553 200.586L275.562 177.321L255.514 165.695ZM251.576 174.111L255.601 171.891L262.308 175.936L263.95 173.411L255.601 168.479L248.879 172.463V205.53L251.576 207.276V190.579H252.456V190.579H261.722V187.226H251.576V174.111ZM251.576 187.226V187.226H250.462V190.579H250.462V187.226H251.576ZM270.284 201.486V180.649L274.124 183.277L274.122 179.962L265.182 174.296L263.716 176.644L267.319 178.962L267.326 203.201L270.284 201.486ZM240.2 187.049L244.409 203.03L246.474 204.228V174.296L243.542 175.998V189.579L240.305 178.465L237.827 179.903L237.82 199.209L240.2 200.589V187.049Z" fill="white"/>
<path d="M300.517 179.039C300.517 179.039 290.408 174.128 288.45 174.128C286.492 174.128 281.928 182.317 280.3 183.299C278.673 184.281 275.736 185.914 278.673 186.564C281.181 186.89 283.722 186.311 285.844 184.931C286.764 184.227 287.635 183.46 288.45 182.635C288.45 182.635 290.739 183.949 293.015 184.931C295.348 185.656 297.761 186.093 300.199 186.232L300.517 179.039Z" fill="white" stroke="#131313" stroke-linecap="round" stroke-linejoin="round"/>
<path d="M99.2504 66.5479C99.2504 66.5479 93.0449 60.323 75.8073 60.323C58.5698 60.323 47.5377 81.7643 47.5377 96.9807C47.5377 112.197 56.5012 133.638 59.9488 148.163C63.3963 162.688 60.6383 174.446 47.5377 175.829C34.4371 177.213 27.7627 189.386 40.8633 203.91C53.9639 218.435 88.9079 209.029 99.9399 188.971C110.972 168.913 115.109 156.463 110.282 121.189C105.456 85.9142 99.2504 66.5479 99.2504 66.5479Z" fill="#131313" stroke="#131313" stroke-linecap="round" stroke-linejoin="round"/>
<path d="M88.8113 71.6241C88.8113 71.6241 68.1262 70.9601 60.8451 93.6741C53.5639 116.388 68.1676 131.757 70.8291 157.14C73.4906 182.524 67.5057 195.223 51.523 193.895C35.5403 192.567 43.5248 179.177 49.5234 179.177C55.5221 179.177 55.5083 185.194 55.5083 185.194" stroke="white" stroke-linecap="round" stroke-linejoin="round"/>
<path d="M86.8116 80.9617C79.4891 92.2495 74.2213 106.179 79.9166 119.238C84.6742 130.221 93.7067 138.023 90.1764 151.054" stroke="white" stroke-linecap="round" stroke-linejoin="round"/>
<path d="M135.519 71.6105C135.519 71.6105 143.793 76.8947 142 82.9951C140.207 89.0955 132.885 91.2949 131.864 89.0955C130.844 86.896 126.348 75.8849 128.017 72.6203C129.686 69.3557 135.519 71.6105 135.519 71.6105Z" fill="#131313" stroke="#131313" stroke-linecap="round" stroke-linejoin="round"/>
<path d="M119.301 121.078C119.508 121.686 119.301 122.904 123.438 130.927C126.113 136.211 138.607 142.685 138.607 142.685C138.607 142.685 120.776 145.687 116.115 146.697C111.454 147.707 92.4102 139.918 92.4102 139.918C92.4102 139.918 102.753 136.128 102.753 123.319C102.753 110.509 104.504 108.213 104.504 108.213C106.383 108.095 108.259 108.485 109.936 109.345C111.612 110.204 113.027 111.499 114.033 113.096C115.926 115.663 117.685 118.327 119.301 121.078Z" fill="white" stroke="#263238" stroke-linecap="round" stroke-linejoin="round"/>
<path d="M141.311 132.947C141.311 132.947 150.274 135.713 153.722 141.246C157.169 146.78 168.201 193.812 168.201 193.812C168.201 193.812 169.58 193.812 177.165 191.737C184.749 189.662 181.371 190.852 181.371 190.852L186.197 192.235L194.857 188.735L198.87 200.231L191.713 203.301C191.713 203.301 188.266 210.91 184.129 212.985C177.811 215.9 171.006 217.608 164.064 218.02C155.101 218.712 148.206 213.178 148.206 206.262C148.206 199.345 140.621 145.396 140.621 145.396" fill="#F88419"/>
<path d="M141.311 132.947C141.311 132.947 150.274 135.713 153.722 141.246C157.169 146.78 168.201 193.812 168.201 193.812C168.201 193.812 169.58 193.812 177.165 191.737C184.749 189.662 181.371 190.852 181.371 190.852L186.197 192.235L194.857 188.735L198.87 200.231L191.713 203.301C191.713 203.301 188.266 210.91 184.129 212.985C177.811 215.9 171.006 217.608 164.064 218.02C155.101 218.712 148.206 213.178 148.206 206.262C148.206 199.345 140.621 145.396 140.621 145.396" stroke="#263238" stroke-linecap="round" stroke-linejoin="round"/>
<path d="M128.168 257.818C112.489 259.699 102.215 258.91 95.9272 257.721C95.1266 251.762 94.8497 245.745 95.0998 239.738C96.0513 226.278 150.922 224.605 160.989 239.738C160.989 239.738 161.54 243.03 162.368 248.19C161.168 249.49 154.563 254.664 128.168 257.818Z" fill="white" stroke="#131313" stroke-linecap="round" stroke-linejoin="round"/>
<path d="M158.506 218.864C157.403 191.488 163.085 180.297 141.31 132.947C132.774 130.775 130.209 132.2 127.52 128.382C123.425 132.284 118.282 134.9 112.723 135.907C103.194 137.733 97.9265 133.057 97.9265 133.057C97.9265 133.057 70.76 135.907 73.6008 149.726C76.4415 163.545 91.4314 202.388 92.0381 216.221C92.6449 230.055 87.3771 244.69 92.0381 247.733C96.6992 250.776 119.618 253.432 137.049 250.389C154.48 247.346 166.56 242.809 165.594 238.382C164.629 233.955 158.879 228.021 158.506 218.864Z" fill="#F88419" stroke="#131313" stroke-linecap="round" stroke-linejoin="round"/>
<path d="M155.942 188.486C155.942 188.486 141.503 213.386 130.292 223.857" stroke="#263238" stroke-linecap="round" stroke-linejoin="round"/>
<path d="M134.291 210.993C128.479 216.922 121.703 221.816 114.254 225.462" stroke="#263238" stroke-linecap="round" stroke-linejoin="round"/>
<path d="M99.9404 128.105C99.9404 128.105 103.167 137.788 112.696 135.907C118.255 134.9 123.398 132.284 127.493 128.382C128.61 129.945 131.271 131.148 134.567 132.2C132.347 146.033 115.261 150.376 104.767 147.416C98.3546 145.659 95.1139 137.844 92.5352 133.901C95.6379 133.306 99.9404 128.105 99.9404 128.105Z" fill="white" stroke="#131313" stroke-linecap="round" stroke-linejoin="round"/>
<path d="M87.6528 234.509C87.6528 234.509 95.9269 257.541 98.9055 270.295C101.884 283.05 99.5674 287.725 99.7743 294.697C99.9811 301.669 99.7743 309.692 98.5056 309.318C97.2369 308.945 96.6301 306.303 96.6439 303.578C96.6577 300.853 96.4922 293.383 96.4922 293.383C96.4922 293.383 93.1137 303.827 92.7138 304.726C92.3139 305.625 90.4798 305.999 90.99 303.052C91.5002 300.106 93.4584 290.672 93.4584 290.672C93.4584 290.672 88.1493 300.147 87.708 300.714C87.2667 301.281 85.0603 301.351 85.6809 299.414C86.3014 297.477 90.8383 287.061 90.8383 287.061C90.8383 287.061 84.3984 294.448 83.6813 294.199C82.9642 293.95 83.0056 292.746 83.6813 291.432C84.357 290.118 88.3837 285.097 88.9767 284.35C89.5696 283.603 89.4179 283.783 90.1074 280.975C90.7969 278.166 92.8655 275.552 93.2792 274.653C93.6929 273.754 73.8076 233.859 73.8076 233.859L87.6528 234.509Z" fill="white" stroke="#131313" stroke-linecap="round" stroke-linejoin="round"/>
<path d="M84.0266 137.263C84.0266 137.263 69.3126 139.946 65.9616 147.333C62.6107 154.72 67.3407 168.802 67.3407 177.531C67.3407 186.26 62.6658 210.412 64.6654 216.457C66.6649 222.502 68.0164 230.553 68.6783 233.237C69.3402 235.92 75.3665 237.926 75.3665 237.926L77.2281 246.06L92.3972 243.197L90.7148 235.893C90.7148 235.893 94.0658 236.557 92.7282 228.506C91.3906 220.455 88.7153 215.752 88.7153 209.043C88.7153 202.334 88.0396 179.523 91.3906 165.427" fill="#F88419"/>
<path d="M84.0266 137.263C84.0266 137.263 69.3126 139.946 65.9616 147.333C62.6107 154.72 67.3407 168.802 67.3407 177.531C67.3407 186.26 62.6658 210.412 64.6654 216.457C66.6649 222.502 68.0164 230.553 68.6783 233.237C69.3402 235.92 75.3665 237.926 75.3665 237.926L77.2281 246.06L92.3972 243.197L90.7148 235.893C90.7148 235.893 94.0658 236.557 92.7282 228.506C91.3906 220.455 88.7153 215.752 88.7153 209.043C88.7153 202.334 88.0396 179.523 91.3906 165.427" stroke="#131313" stroke-linecap="round" stroke-linejoin="round"/>
<path d="M216.576 182.76L222.354 174.681L231.442 172.703C231.442 172.703 235.193 171.582 234.683 173.602C234.172 175.622 233.483 175.829 231.097 176.548L226.96 177.766C226.261 179.937 224.852 181.809 222.961 183.078C222.354 183.405 221.688 183.607 221.003 183.673" fill="white"/>
<path d="M216.576 182.76L222.354 174.681L231.442 172.703C231.442 172.703 235.193 171.582 234.683 173.602C234.172 175.622 233.483 175.829 231.097 176.548L226.96 177.766C226.261 179.937 224.852 181.809 222.961 183.078C222.354 183.405 221.688 183.607 221.003 183.673" stroke="#263238" stroke-linecap="round" stroke-linejoin="round"/>
<path d="M133.892 74.2529C133.892 74.2529 137.546 98.0457 135.519 106.788C133.492 115.531 126.569 123.844 119.302 122.848C112.034 121.852 106.532 111.865 106.532 111.865C106.532 111.865 104.298 113.248 103.291 111.671C102.285 110.094 102.078 105.972 103.291 101.698C104.505 97.4233 123.563 69.3699 133.892 74.2529Z" fill="white" stroke="#263238" stroke-linecap="round" stroke-linejoin="round"/>
<path d="M119.508 90.9075C119.852 90.0153 120.452 89.2457 121.233 88.6965C122.014 88.1472 122.94 87.843 123.893 87.8225" stroke="#263238" stroke-linecap="round" stroke-linejoin="round"/>
<path d="M130.223 87.0067C130.867 86.737 131.581 86.6871 132.257 86.8646C132.932 87.0421 133.53 87.4371 133.96 87.989" stroke="#263238" stroke-linecap="round" stroke-linejoin="round"/>
<path d="M129.85 93.9788C129.85 93.9788 128.692 97.852 131.008 99.0278C133.325 100.204 131.008 102.126 130.236 103.288" stroke="#263238" stroke-linecap="round" stroke-linejoin="round"/>
<path d="M127.948 109.5C126.835 109.69 125.694 109.613 124.617 109.274C123.541 108.935 122.56 108.343 121.756 107.549" stroke="#263238" stroke-linecap="round" stroke-linejoin="round"/>
<path d="M124.541 95.3068C124.541 96.4826 124.1 97.4233 123.562 97.4233C123.024 97.4233 122.597 96.4826 122.597 95.3068C122.597 94.1309 123.024 93.1902 123.562 93.1902C124.1 93.1902 124.541 94.1447 124.541 95.3068Z" fill="#263238"/>
<path d="M133.312 94.7949C133.312 95.9569 132.87 96.9114 132.333 96.9114C131.795 96.9114 131.354 95.9569 131.354 94.7949C131.354 93.6329 131.795 92.6785 132.333 92.6785C132.87 92.6785 133.312 93.6468 133.312 94.7949Z" fill="#263238"/>
<path d="M107.525 63.0892C107.525 63.0892 136.939 60.6269 138.152 66.7273C139.366 72.8277 115.647 93.4115 108.559 102.514C101.471 111.616 98.8231 113.898 95.1825 112.474C91.5419 111.049 80.7167 91.5302 84.771 78.3057C88.8253 65.0811 107.525 63.0892 107.525 63.0892Z" fill="#131313" stroke="#131313" stroke-linecap="round" stroke-linejoin="round"/>
<path d="M126.776 64.2793C126.776 64.2793 121.453 86.3292 108.131 96.3443C94.8103 106.359 89.4873 101.712 89.4873 101.712" stroke="white" stroke-linecap="round" stroke-linejoin="round"/>
<path d="M107.524 63.0896C107.524 63.0896 111.454 80.3117 104.766 88.3348C98.0781 96.358 86.1221 95.6802 86.1221 95.6802" stroke="white" stroke-linecap="round" stroke-linejoin="round"/>
<path d="M389.353 78.0982C388.953 77.9183 388.911 77.6417 389.146 77.282C389.008 76.6457 388.911 76.203 388.856 75.9817C386.378 77.6027 383.778 79.0273 381.079 80.2423C376.125 82.5001 370.839 83.9345 365.427 84.4891C365.427 84.4891 368.033 102.472 373.246 111.644C377.038 118.298 380.748 121.784 390.539 115.572C392.803 114.089 394.752 112.17 396.271 109.926C397.791 107.682 398.852 105.158 399.392 102.5C393.862 94.9194 390.552 83.0366 389.353 78.0982Z" fill="white" stroke="#131313" stroke-linecap="round" stroke-linejoin="round"/>
<path d="M384.857 88.916C384.518 88.0228 383.921 87.2517 383.142 86.7019C382.363 86.1521 381.438 85.8488 380.485 85.8311" stroke="#131313" stroke-linecap="round" stroke-linejoin="round"/>
<path d="M374.155 85.0149C373.512 84.7461 372.799 84.6953 372.125 84.8701C371.45 85.0449 370.851 85.4358 370.418 85.9834" stroke="#131313" stroke-linecap="round" stroke-linejoin="round"/>
<path d="M374.514 92.0286C374.514 92.0286 375.672 95.9017 373.356 97.0636C371.039 98.2256 373.356 100.176 374.128 101.338" stroke="#131313" stroke-linecap="round" stroke-linejoin="round"/>
<path d="M376.444 107.494C377.556 107.685 378.696 107.609 379.772 107.272C380.849 106.936 381.83 106.348 382.636 105.557" stroke="#131313" stroke-linecap="round" stroke-linejoin="round"/>
<path d="M379.823 93.3147C379.823 94.4767 380.265 95.4312 380.802 95.4312C381.34 95.4312 381.781 94.4767 381.781 93.3147C381.781 92.1527 381.34 91.1982 380.802 91.1982C380.265 91.1982 379.823 92.1389 379.823 93.3147Z" fill="#131313"/>
<path d="M371.066 92.8308C371.066 93.9928 371.494 94.9473 372.032 94.9473C372.57 94.9473 373.011 93.9928 373.011 92.8308C373.011 91.6688 372.583 90.7144 372.032 90.7144C371.48 90.7144 371.066 91.655 371.066 92.8308Z" fill="#131313"/>
<circle opacity="0.3" cx="438" cy="20" r="9" fill="#C4C1FA"/>
<circle opacity="0.3" cx="133" cy="14" r="9" transform="rotate(-180 133 14)" fill="#C4C1FA"/>
<circle opacity="0.3" cx="445" cy="245" r="7" transform="rotate(-180 445 245)" fill="#C4C1FA"/>
<circle cx="412" cy="5" r="6" fill="#0053F1"/>
<circle cx="171" cy="26" r="6" transform="rotate(-180 171 26)" fill="#0053F1"/>
<circle cx="464" cy="223" r="5" transform="rotate(-180 464 223)" fill="#0053F1"/>
<circle cx="409" cy="26" r="3" fill="#0FAF4D"/>
<circle cx="150" cy="32" r="3" transform="rotate(-180 150 32)" fill="#F88419"/>
<circle cx="468.5" cy="251.5" r="2.5" transform="rotate(-180 468.5 251.5)" fill="#F88419"/>
<circle opacity="0.3" r="7" transform="matrix(-1 0 0 1 34 248)" fill="#C4C1FA"/>
<circle r="5" transform="matrix(-1 0 0 1 53 247)" fill="#2B21ED"/>
<circle r="2.5" transform="matrix(-1 0 0 1 41.5 230.5)" fill="#F88419"/>
</g>
</svg>
