<svg width="123" height="40" viewBox="0 0 123 40" fill="none" xmlns="http://www.w3.org/2000/svg">
<path d="M121.424 30.7539C121.526 30.7539 121.588 30.6735 121.588 30.573V30.4323C121.588 30.3318 121.526 30.2715 121.424 30.2715H120.994V30.7539H121.424ZM120.994 30.975V31.5178H120.707V30.0303H121.403C121.71 30.0303 121.895 30.2112 121.895 30.5127C121.895 30.774 121.751 30.9147 121.567 30.975L121.895 31.5378H121.567L121.26 30.9951C121.26 30.975 120.994 30.975 120.994 30.975ZM121.158 32.0404C121.874 32.1007 122.488 31.5982 122.57 30.8946C122.57 30.8142 122.57 30.7338 122.57 30.6534C122.508 30.0504 122.017 29.5479 121.383 29.5077C120.667 29.4474 120.053 29.9499 119.971 30.6534C119.971 30.7338 119.971 30.8142 119.971 30.8946C120.032 31.4976 120.544 32.0002 121.158 32.0404ZM60.9471 22.8946L60.7015 22.975C58.88 23.5178 56.9358 23.4977 55.1143 22.9549L54.8687 22.8745L57.693 13.8092C57.7544 13.5881 58.0819 13.5881 58.1433 13.8092L60.9471 22.8946ZM54.4799 9.78913L46.6414 32.3218H51.9216L53.6408 26.8343L53.8864 26.9147C56.4855 27.6987 59.3508 27.6987 61.9295 26.9348L62.175 26.8544L63.8533 32.3218H69.1335L61.336 9.78913C60.8448 8.36199 59.4736 7.41727 57.9591 7.41727H57.8772C56.3218 7.41727 54.9711 8.38209 54.4799 9.78913ZM108.817 13.6484H103.209L97.7448 20.8645V7.41727H93.0171V32.3419H97.7448V23.377L104.151 32.3419H109.431L102.431 22.6534C102.186 22.3117 102.206 21.8494 102.452 21.5278L108.817 13.6484ZM84.0122 13.6484H76.4193C74.0862 13.6484 72.1829 15.5178 72.1829 17.8092V32.3419H76.9105V18.8746C76.9105 18.2916 77.4017 17.8092 77.9952 17.8092H82.9275C83.521 17.8092 84.0122 18.2916 84.0122 18.8746V32.3419H88.7398V17.8092C88.7398 15.5178 86.8364 13.6484 84.5033 13.6484H84.0122ZM122.856 13.6484H116.43C114.097 13.6484 112.194 15.5178 112.194 17.8092V32.3419H116.921V18.8746C116.921 18.2916 117.412 17.8092 118.006 17.8092H122.856V13.6484ZM21.7549 0.663501L35.0373 7.35697C36.9611 8.32179 38.1686 10.2715 38.1686 12.4022V15.4575H33.2772V12.4022C33.2772 12.0806 33.093 11.7791 32.8065 11.6384L19.5241 4.94491C19.2785 4.8243 18.9715 4.8243 18.7259 4.94491L5.44356 11.6384C5.15704 11.7791 4.97285 12.0806 4.97285 12.4022V15.4575H0.0610352V12.4022C0.0610352 10.2715 1.26852 8.32179 3.19232 7.35697L16.4747 0.663501C18.1324 -0.16062 20.0971 -0.16062 21.7549 0.663501ZM23.3103 19.759C23.3103 17.4876 21.4275 15.6384 19.1148 15.6384C16.8021 15.6384 14.9193 17.4876 14.9193 19.759C14.9193 22.0303 16.8021 23.8796 19.1148 23.8796C21.4275 23.8595 23.3103 22.0303 23.3103 19.759ZM32.8065 28.2816C33.093 28.1409 33.2772 27.8394 33.2772 27.5177V24.4625H38.1686V27.5379C38.1686 29.6685 36.9611 31.6183 35.0373 32.563L21.7549 39.2564C20.9363 39.6585 20.0357 39.8796 19.1148 39.8796C18.1938 39.8796 17.2933 39.6585 16.4747 39.2564L3.19232 32.563C1.26852 31.5982 0.0610352 29.6484 0.0610352 27.5379V24.4826H4.95238V27.5379C4.95238 27.8595 5.13657 28.161 5.4231 28.3017L16.6589 33.9499V28.3419C12.8522 27.2966 10.0279 23.8394 10.0279 19.759C10.0279 14.8344 14.1006 10.8344 19.1148 10.8344C24.129 10.8344 28.2017 14.8344 28.2017 19.759C28.2017 23.8394 25.3774 27.2966 21.5503 28.3419V33.9499L32.8065 28.2816Z" fill="#0053F1"/>
</svg>
