<svg width="127" height="60" viewBox="0 0 127 60" fill="none" xmlns="http://www.w3.org/2000/svg">
<g clip-path="url(#clip0)">
<path d="M3.87197 41.1533H5.36844L9.26491 51.1768H7.59903L6.54021 48.4521H2.67197L1.62727 51.1768H-0.0527344L3.87197 41.1533ZM6.22962 47.2804L4.62021 42.8898L2.95433 47.2804H6.22962Z" fill="#0053F1"/>
<path d="M16.4369 43.5108C16.3145 43.3696 16.1122 43.2235 15.8299 43.0731C15.5569 42.913 15.2369 42.7766 14.8698 42.6637C14.5028 42.5508 14.1216 42.4943 13.7263 42.4943C13.0581 42.4943 12.564 42.6165 12.2439 42.8613C11.9334 43.1062 11.7781 43.445 11.7781 43.8778C11.7781 44.1977 11.8675 44.4518 12.0463 44.6402C12.2251 44.8188 12.4981 44.9741 12.8651 45.106C13.2322 45.2283 13.6934 45.3553 14.2487 45.4872C14.9263 45.6474 15.5098 45.8402 15.9992 46.066C16.4981 46.2827 16.8793 46.5743 17.1428 46.9413C17.4157 47.3084 17.5522 47.7933 17.5522 48.3955C17.5522 49.0824 17.3875 49.6378 17.0581 50.0613C16.7287 50.4849 16.2816 50.7955 15.7169 50.9931C15.1616 51.1815 14.5498 51.2755 13.8816 51.2755C13.1192 51.2755 12.3804 51.1577 11.6651 50.9225C10.9498 50.6874 10.3098 50.353 9.74512 49.9202L10.4651 48.5649C10.6251 48.725 10.8793 48.9086 11.2275 49.1155C11.5757 49.3131 11.9804 49.4874 12.4416 49.6378C12.9122 49.779 13.4016 49.8496 13.9098 49.8496C14.531 49.8496 15.011 49.7415 15.3498 49.5249C15.6886 49.299 15.8581 48.9791 15.8581 48.5649C15.8581 48.226 15.7451 47.9578 15.5192 47.7602C15.3028 47.5533 14.9875 47.3838 14.5734 47.2519C14.1687 47.1108 13.6793 46.9647 13.1051 46.8143C12.4463 46.6449 11.8957 46.4521 11.4534 46.2355C11.011 46.0188 10.6769 45.7462 10.451 45.4166C10.2346 45.0871 10.1263 44.6591 10.1263 44.1319C10.1263 43.4733 10.2863 42.9178 10.6063 42.4661C10.9263 42.005 11.3593 41.6614 11.9051 41.4355C12.4604 41.2003 13.0816 41.0825 13.7686 41.0825C14.4463 41.0825 15.0722 41.1906 15.6463 41.4072C16.2204 41.6238 16.724 41.8921 17.1569 42.2119L16.4369 43.5108Z" fill="#0053F1"/>
<path d="M18.6436 46.0943C18.6436 45.4824 18.7518 44.8802 18.9683 44.2873C19.1847 43.6943 19.5001 43.1578 19.9141 42.6778C20.3377 42.1978 20.8459 41.8167 21.4388 41.5343C22.0412 41.2427 22.7283 41.0967 23.5 41.0967C24.4036 41.0967 25.1847 41.2992 25.8436 41.7037C26.5024 42.1083 26.9918 42.6355 27.3118 43.2849L26.0694 44.1179C25.8812 43.7133 25.6412 43.3978 25.3494 43.172C25.0671 42.9368 24.7565 42.7718 24.4177 42.6778C24.0883 42.5742 23.7636 42.5226 23.4436 42.5226C22.9165 42.5226 22.4553 42.6306 22.06 42.8473C21.6647 43.0542 21.3306 43.3321 21.0577 43.6802C20.7942 44.0283 20.5918 44.4192 20.4506 44.852C20.3189 45.2848 20.253 45.718 20.253 46.1508C20.253 46.8002 20.3895 47.4073 20.6624 47.972C20.9447 48.5274 21.3259 48.9792 21.8059 49.3273C22.2953 49.6661 22.8553 49.8355 23.486 49.8355C23.8059 49.8355 24.14 49.779 24.4883 49.6661C24.8365 49.5531 25.1565 49.3789 25.4483 49.1437C25.7401 48.8989 25.9753 48.579 26.1542 48.1837L27.4671 48.932C27.26 49.4309 26.9353 49.8545 26.493 50.2026C26.06 50.5506 25.5706 50.8145 25.0247 50.9932C24.4883 51.1718 23.9565 51.2614 23.4294 51.2614C22.7236 51.2614 22.0789 51.1154 21.4953 50.8237C20.9118 50.5224 20.4083 50.1271 19.9847 49.6378C19.5612 49.1389 19.2318 48.5839 18.9965 47.972C18.7612 47.3508 18.6436 46.7248 18.6436 46.0943Z" fill="#0053F1"/>
<path d="M35.9466 49.7792V51.1768H29.0713V41.1533H35.8195V42.551H30.6525V45.4027H35.1278V46.7157H30.6525V49.7792H35.9466Z" fill="#0053F1"/>
<path d="M39.2999 44.0898V51.1768H37.7188V41.1533H39.0176L44.6929 48.3957V41.1674H46.2882V51.1768H44.9046L39.2999 44.0898Z" fill="#0053F1"/>
<path d="M54.6117 43.5108C54.4895 43.3696 54.287 43.2235 54.0046 43.0731C53.732 42.913 53.4117 42.7766 53.0446 42.6637C52.6776 42.5508 52.2964 42.4943 51.9011 42.4943C51.2332 42.4943 50.739 42.6165 50.4187 42.8613C50.1082 43.1062 49.9529 43.445 49.9529 43.8778C49.9529 44.1977 50.0424 44.4518 50.2211 44.6402C50.4002 44.8188 50.6729 44.9741 51.0399 45.106C51.407 45.2283 51.8685 45.3553 52.4235 45.4872C53.1011 45.6474 53.6848 45.8402 54.174 46.066C54.673 46.2827 55.0542 46.5743 55.3176 46.9413C55.5907 47.3084 55.727 47.7933 55.727 48.3955C55.727 49.0824 55.5624 49.6378 55.2329 50.0613C54.9037 50.4849 54.4564 50.7955 53.8917 50.9931C53.3367 51.1815 52.7248 51.2755 52.0564 51.2755C51.294 51.2755 50.5555 51.1577 49.8399 50.9225C49.1248 50.6874 48.4846 50.353 47.9199 49.9202L48.6399 48.5649C48.8001 48.725 49.0542 48.9086 49.4023 49.1155C49.7508 49.3131 50.1554 49.4874 50.6164 49.6378C51.0871 49.779 51.5764 49.8496 52.0846 49.8496C52.7058 49.8496 53.1858 49.7415 53.5246 49.5249C53.8635 49.299 54.0329 48.9791 54.0329 48.5649C54.0329 48.226 53.9199 47.9578 53.694 47.7602C53.4779 47.5533 53.1624 47.3838 52.7482 47.2519C52.3436 47.1108 51.8543 46.9647 51.2799 46.8143C50.6212 46.6449 50.0707 46.4521 49.6282 46.2355C49.1861 46.0188 48.8517 45.7462 48.6258 45.4166C48.4096 45.0871 48.3011 44.6591 48.3011 44.1319C48.3011 43.4733 48.4612 42.9178 48.7811 42.4661C49.1014 42.005 49.5342 41.6614 50.0799 41.4355C50.6354 41.2003 51.2565 41.0825 51.9434 41.0825C52.6211 41.0825 53.2471 41.1906 53.8211 41.4072C54.3955 41.6238 54.8989 41.8921 55.3317 42.2119L54.6117 43.5108Z" fill="#0053F1"/>
<path d="M57.4551 51.1768V41.1533H59.0363V51.1768H57.4551Z" fill="#0053F1"/>
<path d="M62.0775 41.1533L65.0982 49.2427L68.1057 41.1533H69.7857L65.8469 51.1768H64.35L60.3975 41.1533H62.0775Z" fill="#0053F1"/>
<path d="M78.0267 49.7792V51.1768H71.1514V41.1533H77.8996V42.551H72.7325V45.4027H77.2079V46.7157H72.7325V49.7792H78.0267Z" fill="#0053F1"/>
<path d="M85.8808 41.1533H87.3772L91.2737 51.1768H89.6078L88.549 48.4521H84.6808L83.6361 51.1768H81.9561L85.8808 41.1533ZM88.2389 47.2804L86.629 42.8898L84.9631 47.2804H88.2389Z" fill="#0053F1"/>
<path d="M98.4467 43.5108C98.324 43.3696 98.122 43.2235 97.8396 43.0731C97.5665 42.913 97.2467 42.7766 96.8796 42.6637C96.5125 42.5508 96.1314 42.4943 95.7361 42.4943C95.0677 42.4943 94.5736 42.6165 94.2537 42.8613C93.9431 43.1062 93.7878 43.445 93.7878 43.8778C93.7878 44.1977 93.8769 44.4518 94.0561 44.6402C94.2347 44.8188 94.5078 44.9741 94.8749 45.106C95.2419 45.2283 95.703 45.3553 96.2584 45.4872C96.9361 45.6474 97.5193 45.8402 98.009 46.066C98.5075 46.2827 98.8887 46.5743 99.1525 46.9413C99.4252 47.3084 99.562 47.7933 99.562 48.3955C99.562 49.0824 99.397 49.6378 99.0678 50.0613C98.7383 50.4849 98.2914 50.7955 97.7267 50.9931C97.1712 51.1815 96.5593 51.2755 95.8914 51.2755C95.129 51.2755 94.39 51.1577 93.6749 50.9225C92.9593 50.6874 92.3196 50.353 91.7549 49.9202L92.4749 48.5649C92.6346 48.725 92.8887 48.9086 93.2372 49.1155C93.5853 49.3131 93.9899 49.4874 94.4514 49.6378C94.9217 49.779 95.4114 49.8496 95.9196 49.8496C96.5408 49.8496 97.0208 49.7415 97.3596 49.5249C97.6984 49.299 97.8678 48.9791 97.8678 48.5649C97.8678 48.226 97.7549 47.9578 97.529 47.7602C97.3124 47.5533 96.9969 47.3838 96.5831 47.2519C96.1781 47.1108 95.6889 46.9647 95.1149 46.8143C94.4558 46.6449 93.9052 46.4521 93.4631 46.2355C93.0206 46.0188 92.6867 45.7462 92.4608 45.4166C92.2442 45.0871 92.1361 44.6591 92.1361 44.1319C92.1361 43.4733 92.2958 42.9178 92.6161 42.4661C92.9359 42.005 93.3687 41.6614 93.9149 41.4355C94.4699 41.2003 95.0911 41.0825 95.7784 41.0825C96.4561 41.0825 97.0817 41.1906 97.6561 41.4072C98.23 41.6238 98.7334 41.8921 99.1667 42.2119L98.4467 43.5108Z" fill="#0053F1"/>
<path d="M107.218 43.5108C107.096 43.3696 106.893 43.2235 106.611 43.0731C106.338 42.913 106.018 42.7766 105.651 42.6637C105.284 42.5508 104.903 42.4943 104.508 42.4943C103.84 42.4943 103.345 42.6165 103.025 42.8613C102.715 43.1062 102.559 43.445 102.559 43.8778C102.559 44.1977 102.649 44.4518 102.828 44.6402C103.007 44.8188 103.279 44.9741 103.646 45.106C104.013 45.2283 104.475 45.3553 105.03 45.4872C105.708 45.6474 106.291 45.8402 106.78 46.066C107.279 46.2827 107.661 46.5743 107.924 46.9413C108.197 47.3084 108.333 47.7933 108.333 48.3955C108.333 49.0824 108.169 49.6378 107.839 50.0613C107.51 50.4849 107.063 50.7955 106.498 50.9931C105.943 51.1815 105.331 51.2755 104.663 51.2755C103.9 51.2755 103.162 51.1577 102.446 50.9225C101.731 50.6874 101.091 50.353 100.526 49.9202L101.246 48.5649C101.407 48.725 101.661 48.9086 102.009 49.1155C102.357 49.3131 102.762 49.4874 103.223 49.6378C103.694 49.779 104.183 49.8496 104.691 49.8496C105.312 49.8496 105.792 49.7415 106.131 49.5249C106.47 49.299 106.639 48.9791 106.639 48.5649C106.639 48.226 106.526 47.9578 106.3 47.7602C106.084 47.5533 105.769 47.3838 105.355 47.2519C104.95 47.1108 104.461 46.9647 103.886 46.8143C103.228 46.6449 102.677 46.4521 102.235 46.2355C101.793 46.0188 101.458 45.7462 101.232 45.4166C101.016 45.0871 100.908 44.6591 100.908 44.1319C100.908 43.4733 101.068 42.9178 101.388 42.4661C101.708 42.005 102.141 41.6614 102.686 41.4355C103.242 41.2003 103.863 41.0825 104.55 41.0825C105.228 41.0825 105.854 41.1906 106.428 41.4072C107.002 41.6238 107.505 41.8921 107.938 42.2119L107.218 43.5108Z" fill="#0053F1"/>
<path d="M116.936 49.7792V51.1768H110.061V41.1533H116.809V42.551H111.642V45.4027H116.117V46.7157H111.642V49.7792H116.936Z" fill="#0053F1"/>
<path d="M126.063 42.551H122.731V51.1768H121.136V42.551H117.79V41.1533H126.063V42.551Z" fill="#0053F1"/>
<path d="M6.18379 59.5587V54.4587L3.91614 58.4204H3.52791L1.25144 54.4587V59.5587H0.633789V53.2939H1.26908L3.7132 57.5822L6.17497 53.2939H6.80144V59.5587H6.18379Z" fill="#0053F1"/>
<path d="M17.2827 53.2939H17.8033L20.4062 59.5587H19.7533L18.9415 57.5998H16.1268L15.3239 59.5587H14.6621L17.2827 53.2939ZM18.8003 57.1145L17.5386 54.0175L16.2592 57.1145H18.8003Z" fill="#0053F1"/>
<path d="M28.893 54.4322V59.5587H28.2754V53.2939H28.7872L32.8991 58.5175V53.3028H33.5167V59.5587H32.9432L28.893 54.4322Z" fill="#0053F1"/>
<path d="M44.0024 53.2939H44.523L47.1259 59.5587H46.473L45.6612 57.5998H42.8465L42.0436 59.5587H41.3818L44.0024 53.2939ZM45.5201 57.1145L44.2583 54.0175L42.9789 57.1145H45.5201Z" fill="#0053F1"/>
<path d="M57.2771 59.6029C56.8535 59.6029 56.4627 59.5147 56.1035 59.3382C55.7506 59.156 55.4418 58.9116 55.1771 58.6059C54.9124 58.3001 54.7068 57.9587 54.5594 57.5823C54.4182 57.1998 54.3477 56.8116 54.3477 56.4176C54.3477 55.9999 54.4182 55.6028 54.5594 55.2265C54.7068 54.844 54.9097 54.506 55.1682 54.2118C55.4272 53.9118 55.733 53.6766 56.0859 53.5059C56.4388 53.3351 56.8244 53.25 57.2418 53.25C57.8594 53.25 58.3624 53.3766 58.7506 53.6294C59.1388 53.8822 59.4331 54.2118 59.6329 54.6176L59.1565 54.9353C58.9566 54.547 58.6888 54.2616 58.3535 54.0794C58.0182 53.8972 57.645 53.8059 57.233 53.8059C56.8862 53.8059 56.5712 53.8796 56.2888 54.0265C56.0127 54.1734 55.7744 54.3706 55.5741 54.6176C55.38 54.8647 55.23 55.144 55.1241 55.4559C55.0182 55.7678 54.9653 56.0912 54.9653 56.4265C54.9653 56.7794 55.0244 57.1147 55.1418 57.4323C55.2596 57.7443 55.4241 58.0235 55.6359 58.2706C55.8538 58.5119 56.1035 58.7029 56.3859 58.8441C56.6744 58.9796 56.9859 59.0471 57.3212 59.0471C57.6803 59.0471 58.0213 58.9619 58.3447 58.7912C58.6743 58.6204 58.9888 58.3557 59.2888 57.9971V56.9559H57.8947V56.4794H59.8094V59.5588H59.2888V58.6412C58.7127 59.2822 58.0421 59.6029 57.2771 59.6029Z" fill="#0053F1"/>
<path d="M72.2577 59.0116V59.5587H68.0488V53.2939H72.1783V53.841H68.6665V56.0998H71.7282V56.6204H68.6665V59.0116H72.2577Z" fill="#0053F1"/>
<path d="M85.9465 59.5587V54.4587L83.6788 58.4204H83.2906L81.0141 54.4587V59.5587H80.3965V53.2939H81.0318L83.4759 57.5822L85.9376 53.2939H86.5641V59.5587H85.9465Z" fill="#0053F1"/>
<path d="M99.3133 59.0116V59.5587H95.1045V53.2939H99.2339V53.841H95.7221V56.0998H98.7839V56.6204H95.7221V59.0116H99.3133Z" fill="#0053F1"/>
<path d="M108.07 54.4322V59.5587H107.452V53.2939H107.964L112.076 58.5175V53.3028H112.693V59.5587H112.12L108.07 54.4322Z" fill="#0053F1"/>
<path d="M125.686 53.841H123.454V59.5587H122.836V53.841H120.604V53.2939H125.686V53.841Z" fill="#0053F1"/>
<path d="M34.4805 29.5588H51.0246V24.2647H46.3922L56.5393 14.7794V29.5588H69.554V14.7794L79.2599 24.2647H75.0687V29.5588H90.951L64.0393 0V24.2647H61.8334V0L34.4805 29.5588Z" fill="#0053F1"/>
</g>
<defs>
<clipPath id="clip0">
<rect width="126.618" height="60" fill="white" transform="translate(0.277344)"/>
</clipPath>
</defs>
</svg>
