<svg width="125" height="42" viewBox="0 0 125 42" fill="none" xmlns="http://www.w3.org/2000/svg">
<g clip-path="url(#clip0)">
<path d="M59.3613 15.4846H50.5565L49.0367 18.9994C48.6597 19.8681 48.4654 20.5225 48.4654 20.9514C48.4654 21.2898 48.6311 21.5944 48.9625 21.8541C49.2881 22.1079 50.0023 22.2771 51.0936 22.3561V22.9654H43.9287V22.3561C44.8772 22.1925 45.4886 21.9782 45.7685 21.713C46.34 21.1827 46.9684 20.1051 47.6599 18.4859L55.6532 0.0151367H56.2189L64.1208 18.6834C64.755 20.184 65.332 21.1545 65.852 21.6057C66.3719 22.0513 67.0918 22.2997 68.0232 22.3561V22.9654H59.0641V22.3561C59.967 22.311 60.5783 22.1643 60.8984 21.9103C61.2183 21.6565 61.3725 21.3462 61.3725 20.9796C61.3725 20.4943 61.1496 19.7271 60.7039 18.6777L59.3613 15.4846ZM58.8471 14.266L55.019 5.21115L51.088 14.266H58.8471ZM84.7984 1.13219V0.522899H92.7861V1.13219H91.9346C91.0434 1.13219 90.3577 1.49896 89.8778 2.23797C89.6435 2.58208 89.5293 3.37195 89.5293 4.61878V13.713C89.5293 15.9641 89.3065 17.7074 88.8551 18.9486C88.4037 20.1897 87.5125 21.2559 86.1926 22.1416C84.8727 23.0275 83.0786 23.4732 80.8045 23.4732C78.3305 23.4732 76.4508 23.05 75.1709 22.1982C73.8854 21.3519 72.977 20.2066 72.4455 18.7737C72.0856 17.792 71.9085 15.9528 71.9085 13.2505V4.48334C71.9085 3.10677 71.7142 2.20411 71.3314 1.77534C70.9485 1.34664 70.3258 1.13219 69.4687 1.13219H68.6174V0.522899H78.422V1.13219H77.5536C76.6166 1.13219 75.948 1.42556 75.548 2.00666C75.2681 2.40163 75.1309 3.2309 75.1309 4.48334V14.2603C75.1309 15.1291 75.2109 16.1277 75.371 17.256C75.5366 18.3788 75.828 19.2533 76.2508 19.8851C76.6793 20.5113 77.2908 21.0303 78.0848 21.4422C78.8848 21.8482 79.8618 22.0515 81.0216 22.0515C82.5073 22.0515 83.8386 21.7299 85.0098 21.0924C86.1812 20.4549 86.981 19.6311 87.4096 18.6382C87.8381 17.6397 88.0551 15.9472 88.0551 13.5664V4.48334C88.0551 3.08418 87.901 2.20978 87.5867 1.86C87.1524 1.37483 86.5069 1.13219 85.6498 1.13219H84.7984ZM108.87 18.6101L107.282 22.9654H93.8889V22.3447C97.8313 18.7962 100.602 15.902 102.208 13.6567C103.813 11.4113 104.619 9.35776 104.619 7.49598C104.619 6.07428 104.179 4.90644 103.293 3.99257C102.414 3.07858 101.362 2.62161 100.134 2.62161C99.014 2.62161 98.0142 2.93751 97.1284 3.57507C96.2371 4.21255 95.5858 5.14909 95.1572 6.379H94.5402C94.8202 4.35362 95.54 2.79652 96.6943 1.70768C97.8484 0.624426 99.2939 0.0828641 101.031 0.0828641C102.871 0.0828641 104.413 0.669556 105.648 1.8374C106.882 3.00525 107.499 4.38181 107.499 5.97275C107.499 7.10667 107.23 8.24639 106.693 9.3803C105.87 11.1631 104.528 13.053 102.676 15.0501C99.8938 18.0402 98.1798 19.8342 97.5227 20.4267H103.391C104.585 20.4267 105.425 20.3815 105.905 20.2968C106.385 20.2066 106.819 20.026 107.207 19.7553C107.596 19.4901 107.933 19.1064 108.219 18.6101H108.87ZM114.286 2.72313L119.834 0.0828641H120.389V19.005C120.389 20.2631 120.44 21.0528 120.549 21.3631C120.657 21.6678 120.874 21.9103 121.211 22.074C121.549 22.2376 122.234 22.3335 123.268 22.3561V22.9654H114.698V22.3561C115.772 22.3335 116.463 22.2433 116.772 22.0795C117.086 21.9217 117.303 21.7074 117.429 21.4365C117.549 21.1658 117.612 20.3533 117.612 19.005V6.88669C117.612 5.25628 117.555 4.20689 117.446 3.74433C117.366 3.38889 117.223 3.12936 117.018 2.96578C116.806 2.80213 116.561 2.71753 116.269 2.71753C115.852 2.71753 115.275 2.88679 114.538 3.2309L114.286 2.72313Z" fill="#0053F1"/>
<path d="M55.219 28.2944L55.5164 32.6995H55.219C54.8192 31.3813 54.2507 30.4285 53.5105 29.8509C52.7702 29.2701 51.8846 28.9798 50.8469 28.9798C49.9811 28.9798 49.1947 29.1982 48.494 29.6355C47.7934 30.0728 47.2415 30.7678 46.8383 31.7271C46.4384 32.6831 46.2368 33.8741 46.2368 35.2969C46.2368 36.4716 46.4254 37.4895 46.8053 38.3511C47.1853 39.2124 47.7571 39.8716 48.517 40.3317C49.2804 40.7917 50.1495 41.0203 51.1245 41.0203C51.9738 41.0203 52.7239 40.8408 53.3717 40.4818C54.0227 40.123 54.7365 39.4083 55.5132 38.3381L55.8139 38.5337C55.1562 39.6856 54.3894 40.5275 53.5138 41.0626C52.638 41.5945 51.5971 41.8621 50.3942 41.8621C48.223 41.8621 46.541 41.066 45.3513 39.4703C44.4623 38.2826 44.0161 36.886 44.0161 35.2805C44.0161 33.9851 44.3103 32.7941 44.8952 31.7108C45.4802 30.6242 46.2865 29.7857 47.3109 29.1885C48.3387 28.5913 49.459 28.2944 50.6751 28.2944C51.6203 28.2944 52.5521 28.5228 53.4741 28.983C53.7418 29.1232 53.9367 29.195 54.0524 29.195C54.2242 29.195 54.3763 29.1331 54.5052 29.0123C54.6738 28.8394 54.7927 28.6012 54.8622 28.2944H55.219ZM65.5922 37.2417H60.4998L59.6207 39.2745C59.4026 39.777 59.2904 40.1556 59.2904 40.4035C59.2904 40.5994 59.3861 40.7755 59.5778 40.9255C59.7661 41.0724 60.1793 41.1703 60.8105 41.216V41.5684H56.6663V41.216C57.2151 41.1214 57.5686 40.9974 57.7305 40.844C58.0609 40.5373 58.4246 39.914 58.8243 38.9775L63.4476 28.2944H63.7747L68.345 39.0918C68.7119 39.9597 69.0457 40.521 69.3463 40.7821C69.647 41.0397 70.0634 41.1834 70.6022 41.216V41.5684H65.4204V41.216C65.9426 41.19 66.2962 41.105 66.4812 40.9582C66.6663 40.8114 66.7555 40.6319 66.7555 40.4199C66.7555 40.1392 66.6266 39.6954 66.3689 39.0886L65.5922 37.2417ZM65.2948 36.5369L63.0807 31.2997L60.8072 36.5369H65.2948ZM74.8916 35.4829V39.2777C74.8916 40.0935 74.9808 40.5994 75.1626 40.7951C75.407 41.0756 75.7772 41.216 76.273 41.216H76.7751V41.5684H71.1441V41.216H71.6399C72.195 41.216 72.5949 41.0365 72.8327 40.6809C72.9616 40.4852 73.0278 40.0152 73.0278 39.2777V30.8788C73.0278 30.063 72.9419 29.5572 72.7667 29.3614C72.5124 29.0808 72.1388 28.9405 71.6399 28.9405H71.1441V28.5881H75.9623C77.1388 28.5881 78.0641 28.7089 78.7448 28.9471C79.4222 29.1852 79.994 29.5898 80.4599 30.1576C80.9258 30.7254 81.1572 31.3975 81.1572 32.1742C81.1572 33.2346 80.8036 34.0961 80.0964 34.7584C79.3893 35.4209 78.3913 35.7537 77.0991 35.7537C76.7818 35.7537 76.4416 35.7309 76.0746 35.6852C75.7045 35.6427 75.3113 35.5742 74.8916 35.4829ZM74.8916 34.9347C75.232 35 75.536 35.0489 75.8004 35.0782C76.0614 35.1108 76.2895 35.1272 76.4746 35.1272C77.1453 35.1272 77.7204 34.8694 78.2062 34.3571C78.6919 33.8449 78.9366 33.1825 78.9366 32.37C78.9366 31.8086 78.8208 31.2867 78.5894 30.8069C78.3581 30.3273 78.0278 29.9683 77.6047 29.7301C77.1785 29.4919 76.6959 29.3713 76.1573 29.3713C75.8268 29.3713 75.407 29.4332 74.8916 29.554V34.9347ZM87.9814 41.216V41.5684H82.3502V41.216H82.8162C83.3614 41.216 83.7548 41.0594 84.0026 40.7494C84.1578 40.5439 84.2339 40.0544 84.2339 39.2777V30.8788C84.2339 30.2229 84.1909 29.789 84.1083 29.58C84.0423 29.4202 83.9101 29.2831 83.7084 29.1689C83.4243 29.0155 83.1268 28.9405 82.8162 28.9405H82.3502V28.5881H87.9814V28.9405H87.5088C86.9735 28.9405 86.5835 29.0972 86.339 29.4071C86.1771 29.6127 86.0977 30.1021 86.0977 30.8788V39.2777C86.0977 39.9336 86.1407 40.3676 86.2233 40.5765C86.286 40.7362 86.4215 40.8734 86.6298 40.9876C86.9073 41.1411 87.1982 41.216 87.5088 41.216H87.9814ZM99.9377 28.5881L100.076 31.639H99.7096C99.6369 31.1038 99.5412 30.7188 99.4188 30.4905C99.2172 30.1217 98.9529 29.8477 98.619 29.6748C98.2853 29.4985 97.8491 29.4103 97.3071 29.4103H95.4565V39.317C95.4565 40.1164 95.5424 40.6156 95.7175 40.8147C95.9621 41.0822 96.3388 41.216 96.8479 41.216H97.3005V41.5684H91.709V41.216H92.1816C92.7434 41.216 93.14 41.0496 93.3779 40.7168C93.52 40.5112 93.5927 40.0446 93.5927 39.317V29.4103H92.0163C91.4017 29.4103 90.9654 29.456 90.7077 29.5442C90.3706 29.665 90.0865 29.8966 89.8452 30.2425C89.6072 30.5851 89.4652 31.0517 89.4188 31.639H89.0521L89.1908 28.5881H99.9377ZM108.067 37.2417H102.975L102.096 39.2745C101.877 39.777 101.765 40.1556 101.765 40.4035C101.765 40.5994 101.861 40.7755 102.053 40.9255C102.241 41.0724 102.654 41.1703 103.285 41.216V41.5684H99.1411V41.216C99.6897 41.1214 100.043 40.9974 100.205 40.844C100.536 40.5373 100.899 39.914 101.299 38.9775L105.922 28.2944H106.249L110.82 39.0918C111.187 39.9597 111.52 40.521 111.821 40.7821C112.122 41.0397 112.538 41.1834 113.077 41.216V41.5684H107.895V41.216C108.417 41.19 108.771 41.105 108.956 40.9582C109.141 40.8114 109.23 40.6319 109.23 40.4199C109.23 40.1392 109.101 39.6954 108.844 39.0886L108.067 37.2417ZM107.77 36.5369L105.556 31.2997L103.282 36.5369H107.77ZM124.683 37.9855L125 38.0541L123.87 41.5684H113.698V41.216H114.191C114.746 41.216 115.142 41.0397 115.38 40.6841C115.516 40.4818 115.582 40.012 115.582 39.2777V30.8788C115.582 30.0696 115.493 29.5638 115.311 29.3614C115.06 29.0808 114.686 28.9405 114.191 28.9405H113.698V28.5881H119.647V28.9405C118.949 28.9339 118.46 28.996 118.176 29.1298C117.895 29.2603 117.703 29.43 117.601 29.6291C117.499 29.8313 117.446 30.3143 117.446 31.0744V39.2583C117.446 39.79 117.499 40.1522 117.601 40.3513C117.677 40.4884 117.799 40.5862 117.961 40.6515C118.12 40.7136 118.625 40.7462 119.475 40.7462H120.433C121.444 40.7462 122.152 40.6743 122.558 40.5275C122.964 40.3806 123.338 40.1196 123.675 39.7476C124.009 39.3757 124.346 38.7883 124.683 37.9855Z" fill="#0053F1"/>
<path fill-rule="evenodd" clip-rule="evenodd" d="M1.37891 40.8963L16.8577 25.7386C17.3634 25.2434 18.1909 25.2434 18.6969 25.7386L34.1755 40.8963H1.37891Z" fill="#0053F1"/>
<path d="M16.9025 16.5848C17.385 16.1124 18.1671 16.1124 18.6497 16.5848L35.0672 32.6637C35.2906 32.8825 35.4286 33.1846 35.4286 33.5183C35.4286 34.1858 34.876 34.7269 34.1945 34.7269C33.8538 34.7269 33.5452 34.5916 33.3218 34.373L17.7761 19.1511L2.23033 34.373C2.007 34.5916 1.69847 34.7269 1.35771 34.7269C0.676126 34.7269 0.123535 34.1858 0.123535 33.5183C0.123535 33.1846 0.261617 32.8825 0.48502 32.6637L16.9025 16.5848Z" fill="#0053F1"/>
<path d="M16.9025 8.95979C17.385 8.48736 18.1671 8.48736 18.6497 8.95979L35.0672 25.0388C35.2906 25.2575 35.4286 25.5596 35.4286 25.8933C35.4286 26.5609 34.876 27.102 34.1945 27.102C33.8538 27.102 33.5452 26.9666 33.3218 26.7479L17.7761 11.526L2.23033 26.7479C2.007 26.9666 1.69847 27.102 1.35771 27.102C0.676126 27.102 0.123535 26.5609 0.123535 25.8933C0.123535 25.5596 0.261617 25.2575 0.48502 25.0388L16.9025 8.95979Z" fill="#0053F1"/>
<path d="M16.9025 1.33527C17.385 0.862853 18.1671 0.862853 18.6497 1.33527L35.0672 17.4143C35.2906 17.633 35.4286 17.9351 35.4286 18.2688C35.4286 18.9364 34.876 19.4773 34.1945 19.4773C33.8538 19.4773 33.5452 19.3421 33.3218 19.1234L17.7761 3.90151L2.23033 19.1234C2.007 19.3421 1.69847 19.4773 1.35771 19.4773C0.676126 19.4773 0.123535 18.9364 0.123535 18.2688C0.123535 17.9351 0.261617 17.633 0.48502 17.4143L16.9025 1.33527Z" fill="#0053F1"/>
</g>
<defs>
<clipPath id="clip0">
<rect width="125" height="42" fill="white"/>
</clipPath>
</defs>
</svg>
