<svg width="1160" height="639" viewBox="0 0 1160 639" fill="none" xmlns="http://www.w3.org/2000/svg">
<path d="M474.48 276.96C550.96 276.96 612.96 214.96 612.96 138.48C612.96 61.9996 550.96 0 474.48 0C398 0 336 61.9996 336 138.48C336 214.96 398 276.96 474.48 276.96Z" fill="#0053F1"/>
<path d="M731.5 220.831C782.134 220.831 823.18 179.784 823.18 129.151C823.18 78.5172 782.134 37.4707 731.5 37.4707C680.867 37.4707 639.82 78.5172 639.82 129.151C639.82 179.784 680.867 220.831 731.5 220.831Z" fill="#0053F1"/>
<path d="M473.599 440.62C510.829 440.62 541.009 410.439 541.009 373.21C541.009 335.98 510.829 305.8 473.599 305.8C436.37 305.8 406.189 335.98 406.189 373.21C406.189 410.439 436.37 440.62 473.599 440.62Z" fill="#0053F1"/>
<path d="M680.97 458.14C739.479 458.14 786.91 410.709 786.91 352.2C786.91 293.691 739.479 246.26 680.97 246.26C622.461 246.26 575.03 293.691 575.03 352.2C575.03 410.709 622.461 458.14 680.97 458.14Z" fill="#0053F1"/>
<path d="M11.7945 603.7V502.086H45.0146C56.0414 502.086 64.3231 504.366 69.8598 508.925C75.443 513.485 78.2346 520.231 78.2346 529.164C78.2346 533.91 76.8854 538.121 74.1868 541.796C71.4883 545.426 67.8127 548.24 63.16 550.241C68.6501 551.776 72.9771 554.708 76.1409 559.035C79.3513 563.315 80.9564 568.433 80.9564 574.388C80.9564 583.508 78.002 590.673 72.0931 595.884C66.1842 601.095 57.8327 603.7 47.0385 603.7H11.7945ZM25.1942 556.173V592.743H47.3176C53.5522 592.743 58.4608 591.138 62.0433 587.928C65.6724 584.671 67.487 580.204 67.487 574.528C67.487 562.291 60.8336 556.173 47.527 556.173H25.1942ZM25.1942 545.426H45.4333C51.2957 545.426 55.9716 543.96 59.4611 541.029C62.9971 538.098 64.7652 534.12 64.7652 529.095C64.7652 523.511 63.1367 519.464 59.8799 516.951C56.623 514.392 51.6679 513.113 45.0146 513.113H25.1942V545.426ZM112.85 603.7H99.9393V496.503H112.85V603.7ZM130.158 565.246C130.158 557.848 131.601 551.195 134.485 545.286C137.417 539.377 141.464 534.817 146.629 531.607C151.84 528.397 157.772 526.792 164.425 526.792C174.708 526.792 183.013 530.351 189.34 537.469C195.715 544.588 198.902 554.056 198.902 565.874V566.781C198.902 574.132 197.483 580.739 194.644 586.602C191.853 592.417 187.828 596.954 182.571 600.211C177.36 603.468 171.358 605.096 164.565 605.096C154.329 605.096 146.024 601.537 139.65 594.418C133.322 587.3 130.158 577.878 130.158 566.153V565.246ZM143.139 566.781C143.139 575.156 145.07 581.879 148.932 586.951C152.84 592.022 158.051 594.558 164.565 594.558C171.125 594.558 176.336 591.999 180.198 586.881C184.06 581.716 185.99 574.505 185.99 565.246C185.99 556.964 184.013 550.264 180.058 545.146C176.15 539.982 170.939 537.4 164.425 537.4C158.051 537.4 152.91 539.935 149.002 545.007C145.093 550.078 143.139 557.336 143.139 566.781ZM245.382 594.558C249.988 594.558 254.012 593.162 257.455 590.37C260.898 587.579 262.806 584.089 263.178 579.902H275.391C275.159 584.229 273.67 588.346 270.925 592.255C268.18 596.163 264.504 599.28 259.898 601.606C255.338 603.933 250.5 605.096 245.382 605.096C235.099 605.096 226.911 601.676 220.816 594.837C214.767 587.951 211.743 578.553 211.743 566.642V564.478C211.743 557.127 213.092 550.59 215.791 544.867C218.489 539.144 222.351 534.701 227.376 531.537C232.447 528.373 238.426 526.792 245.312 526.792C253.78 526.792 260.805 529.327 266.389 534.399C272.018 539.47 275.019 546.054 275.391 554.149H263.178C262.806 549.264 260.945 545.263 257.595 542.145C254.292 538.982 250.197 537.4 245.312 537.4C238.752 537.4 233.657 539.773 230.028 544.518C226.445 549.217 224.654 556.034 224.654 564.967V567.409C224.654 576.11 226.445 582.81 230.028 587.509C233.611 592.208 238.728 594.558 245.382 594.558ZM310.984 568.735L302.889 577.18V603.7H289.978V496.503H302.889V561.338L309.798 553.033L333.317 528.187H349.02L319.638 559.732L352.44 603.7H337.295L310.984 568.735ZM399.827 603.7V502.086H428.511C437.351 502.086 445.167 504.04 451.96 507.948C458.753 511.857 463.987 517.416 467.663 524.628C471.385 531.84 473.269 540.121 473.316 549.473V555.964C473.316 565.548 471.455 573.946 467.733 581.158C464.057 588.37 458.776 593.906 451.89 597.768C445.051 601.63 437.072 603.607 427.952 603.7H399.827ZM413.227 513.113V592.743H427.324C437.653 592.743 445.679 589.533 451.402 583.112C457.171 576.691 460.056 567.549 460.056 555.685V549.752C460.056 538.214 457.334 529.257 451.89 522.883C446.493 516.463 438.816 513.206 428.86 513.113H413.227ZM528.101 539.773C526.147 539.447 524.03 539.284 521.75 539.284C513.282 539.284 507.536 542.89 504.512 550.101V603.7H491.601V528.187H504.163L504.373 536.911C508.607 530.165 514.608 526.792 522.378 526.792C524.891 526.792 526.798 527.117 528.101 527.769V539.773ZM569.975 605.096C559.739 605.096 551.411 601.746 544.99 595.046C538.57 588.3 535.359 579.297 535.359 568.037V565.665C535.359 558.174 536.778 551.497 539.617 545.635C542.501 539.726 546.503 535.12 551.62 531.816C556.785 528.467 562.368 526.792 568.37 526.792C578.187 526.792 585.818 530.025 591.261 536.492C596.705 542.96 599.427 552.218 599.427 564.269V569.643H548.271C548.457 577.087 550.62 583.112 554.761 587.718C558.948 592.278 564.252 594.558 570.673 594.558C575.233 594.558 579.094 593.627 582.258 591.766C585.422 589.905 588.19 587.439 590.563 584.368L598.45 590.51C592.122 600.234 582.63 605.096 569.975 605.096ZM568.37 537.4C563.159 537.4 558.786 539.307 555.25 543.122C551.714 546.891 549.527 552.195 548.689 559.035H586.515V558.058C586.143 551.497 584.375 546.426 581.211 542.843C578.048 539.214 573.767 537.4 568.37 537.4ZM661.051 603.7C660.307 602.211 659.702 599.559 659.237 595.744C653.235 601.979 646.07 605.096 637.741 605.096C630.297 605.096 624.179 603.002 619.387 598.815C614.641 594.581 612.268 589.23 612.268 582.763C612.268 574.9 615.246 568.805 621.201 564.478C627.203 560.105 635.624 557.918 646.465 557.918H659.027V551.986C659.027 547.473 657.678 543.89 654.98 541.238C652.281 538.54 648.303 537.19 643.045 537.19C638.439 537.19 634.578 538.353 631.46 540.68C628.343 543.006 626.784 545.821 626.784 549.124H613.803C613.803 545.356 615.129 541.727 617.781 538.237C620.48 534.701 624.109 531.91 628.669 529.862C633.275 527.815 638.323 526.792 643.813 526.792C652.514 526.792 659.33 528.978 664.262 533.352C669.193 537.679 671.752 543.658 671.938 551.288V586.043C671.938 592.976 672.822 598.489 674.591 602.584V603.7H661.051ZM639.626 593.86C643.674 593.86 647.512 592.813 651.141 590.719C654.77 588.626 657.399 585.904 659.027 582.554V567.06H648.908C633.089 567.06 625.179 571.69 625.179 580.949C625.179 584.996 626.528 588.16 629.227 590.44C631.926 592.72 635.392 593.86 639.626 593.86ZM704.321 528.187L704.67 536.562C710.207 530.048 717.674 526.792 727.073 526.792C737.634 526.792 744.823 530.839 748.638 538.935C751.15 535.306 754.407 532.375 758.408 530.141C762.456 527.908 767.225 526.792 772.715 526.792C789.279 526.792 797.7 535.562 797.979 553.102V603.7H785.068V553.87C785.068 548.473 783.835 544.448 781.369 541.796C778.903 539.098 774.762 537.749 768.947 537.749C764.154 537.749 760.176 539.191 757.013 542.076C753.849 544.914 752.011 548.752 751.499 553.591V603.7H738.518V554.219C738.518 543.239 733.144 537.749 722.397 537.749C713.929 537.749 708.136 541.354 705.019 548.566V603.7H692.108V528.187H704.321ZM911.039 558.825H868.397V603.7H854.998V502.086H917.948V513.113H868.397V547.868H911.039V558.825ZM977.061 596.233C972.036 602.142 964.661 605.096 954.937 605.096C946.888 605.096 940.746 602.77 936.513 598.117C932.325 593.418 930.208 586.485 930.162 577.32V528.187H943.073V576.971C943.073 588.416 947.725 594.139 957.031 594.139C966.894 594.139 973.455 590.463 976.712 583.112V528.187H989.623V603.7H977.34L977.061 596.233ZM1021.52 528.187L1021.94 537.679C1027.7 530.421 1035.24 526.792 1044.55 526.792C1060.51 526.792 1068.56 535.794 1068.69 553.8V603.7H1055.78V553.731C1055.74 548.287 1054.48 544.262 1052.02 541.657C1049.6 539.051 1045.8 537.749 1040.64 537.749C1036.45 537.749 1032.78 538.865 1029.61 541.099C1026.45 543.332 1023.98 546.263 1022.21 549.892V603.7H1009.3V528.187H1021.52ZM1085.03 565.316C1085.03 553.731 1087.77 544.425 1093.26 537.4C1098.75 530.328 1105.94 526.792 1114.83 526.792C1123.67 526.792 1130.67 529.816 1135.83 535.864V496.503H1148.74V603.7H1136.88L1136.25 595.605C1131.09 601.932 1123.9 605.096 1114.69 605.096C1105.94 605.096 1098.8 601.513 1093.26 594.348C1087.77 587.183 1085.03 577.831 1085.03 566.293V565.316ZM1097.94 566.781C1097.94 575.342 1099.7 582.042 1103.24 586.881C1106.78 591.72 1111.66 594.139 1117.9 594.139C1126.09 594.139 1132.06 590.463 1135.83 583.112V548.426C1131.97 541.308 1126.04 537.749 1118.04 537.749C1111.71 537.749 1106.78 540.191 1103.24 545.077C1099.7 549.962 1097.94 557.197 1097.94 566.781Z" fill="#0053F1"/>
</svg>
