<svg width="108" height="54" viewBox="0 0 108 54" fill="none" xmlns="http://www.w3.org/2000/svg">
<g clip-path="url(#clip0)">
<path d="M37.9652 53.2601L37.568 53.5L37.1453 53.2469L25.5313 46.3483L13.7001 53.251L13.2733 53.5L12.8751 53.254L0 45.873V30.2051L0.398735 29.9839L12.4681 22.856V8.12746L12.871 7.89211L25.539 0.5L37.9867 7.89464L38.3859 8.14771V8.59058V22.8479L50.8802 29.9778L51.2891 30.1955V45.8811L37.9652 53.2601ZM38.3839 38.3012V51.1723L49.6538 44.9311V32.0601L38.3839 38.3012ZM1.63584 44.9387L12.4681 51.148V38.2921L1.63584 32.0829V44.9387ZM14.104 38.2891V51.1358L24.7175 44.9433V32.0965L14.104 38.2891ZM26.3533 44.9478L36.7481 51.1227V38.2845L26.3533 32.1097V44.9478ZM27.1079 30.6692L37.5803 36.8912L48.8149 30.6687L37.5808 24.259L27.1079 30.6692ZM2.43229 30.6692L13.2825 36.8912L23.942 30.6692L13.2825 24.261L2.43229 30.6692ZM14.104 22.8601L24.7175 29.2404V16.4083L14.104 10.028V22.8601ZM26.3533 16.4038V29.2267L36.7481 22.8646V10.0417L26.3533 16.4038ZM14.8795 8.59817L25.5313 15.0028L35.9935 8.59817L25.5313 2.38434L14.8795 8.59817Z" fill="#0053F1"/>
<path d="M76.7202 23.9649H73.8769V21.7992H66.4395V31.7615H73.8769V28.7297H70.1579V26.3473H76.7202V32.4113C76.7202 34.1438 74.8247 34.5771 73.8769 34.5771H66.0019C64.252 34.5771 63.8145 33.1331 63.8145 32.4113V21.7992C63.8145 20.2403 64.9084 19.2007 66.4395 19.2007H73.8769C75.6267 19.2007 76.7202 20.0667 76.7202 21.3664V23.9649Z" fill="#0053F1"/>
<path d="M99.4694 34.5776L93.5635 19.8491H96.6256L100.782 30.6804L104.938 19.8517H108L102.094 34.5802L99.4694 34.5776Z" fill="#0053F1"/>
<path fill-rule="evenodd" clip-rule="evenodd" d="M80.2197 34.5771V19.2007H87.875C90.7182 19.2007 92.031 21.3664 92.031 23.0979C92.031 24.8294 91.5934 26.3463 89.8436 26.5629C91.8122 27.2128 92.4681 29.1619 92.4681 30.6778C92.4681 32.1937 91.5934 34.5751 88.0937 34.5751L80.2197 34.5771ZM82.6259 28.0798H87.6572C88.7506 28.0798 89.1908 28.9463 89.1908 29.8123C89.1908 31.5453 88.5344 31.7615 87.6572 31.7615H82.6259V28.0798ZM87.6572 21.7992H82.6259V25.2647H87.6572C87.876 25.2647 89.407 25.1346 89.407 23.7463C89.4086 22.2324 88.5318 21.7992 87.6572 21.7992Z" fill="#0053F1"/>
</g>
<defs>
<clipPath id="clip0">
<rect width="108" height="53" fill="white" transform="translate(0 0.5)"/>
</clipPath>
</defs>
</svg>
