<svg width="101" height="50" viewBox="0 0 101 50" fill="none" xmlns="http://www.w3.org/2000/svg">
<g clip-path="url(#clip0)">
<path d="M35.4615 49.7737L35.0905 50L34.6956 49.7613L23.8476 43.2531L12.7966 49.7651L12.3979 50L12.026 49.7679L0 42.8048V28.0237L0.37244 27.815L11.6459 21.0906V7.19572L12.0222 6.97369L23.8547 0L35.4815 6.97608L35.8545 7.21482V7.63262V21.0829L47.5247 27.8093L47.9067 28.0146V42.8124L35.4615 49.7737ZM35.8526 35.6616V47.804L46.3792 41.9162V29.7737L35.8526 35.6616ZM1.52796 41.9233L11.6459 47.7811V35.653L1.52796 29.7952V41.9233ZM13.1739 35.6501V47.7697L23.0874 41.9276V29.8081L13.1739 35.6501ZM24.6154 41.9319L34.3246 47.7572V35.6458L24.6154 29.8205V41.9319ZM25.3202 28.4615L35.1019 34.3313L45.5957 28.4611L35.1024 22.4142L25.3202 28.4615ZM2.27188 28.4615L12.4065 34.3313L22.3631 28.4615L12.4065 22.4161L2.27188 28.4615ZM13.1739 21.0944L23.0874 27.1136V15.0079L13.1739 8.98868V21.0944ZM24.6154 15.0036V27.1007L34.3246 21.0987V9.00158L24.6154 15.0036ZM13.8982 7.63978L23.8476 13.6819L33.6198 7.63978L23.8476 1.77768L13.8982 7.63978Z" fill="#0053F1"/>
<path d="M71.6601 22.1372H69.0043V20.094H62.0574V29.4924H69.0043V26.6322H65.5306V24.3847H71.6601V30.1055C71.6601 31.7399 69.8896 32.1486 69.0043 32.1486H61.6486C60.0142 32.1486 59.6055 30.7863 59.6055 30.1055V20.094C59.6055 18.6233 60.6273 17.6426 62.0574 17.6426H69.0043C70.6387 17.6426 71.6601 18.4596 71.6601 19.6857V22.1372Z" fill="#0053F1"/>
<path d="M92.91 32.1487L87.3936 18.2539H90.2537L94.1357 28.4721L98.0176 18.2563H100.878L95.3618 32.1511L92.91 32.1487Z" fill="#0053F1"/>
<path fill-rule="evenodd" clip-rule="evenodd" d="M74.9297 32.1486V17.6426H82.0801C84.7358 17.6426 85.962 19.6857 85.962 21.3192C85.962 22.9527 85.5533 24.3837 83.9189 24.5881C85.7577 25.2012 86.3703 27.04 86.3703 28.4701C86.3703 29.9001 85.5533 32.1467 82.2844 32.1467L74.9297 32.1486ZM77.1772 26.0191H81.8766C82.898 26.0191 83.3091 26.8366 83.3091 27.6536C83.3091 29.2885 82.696 29.4924 81.8766 29.4924H77.1772V26.0191ZM81.8766 20.094H77.1772V23.3633H81.8766C82.081 23.3633 83.5111 23.2406 83.5111 21.9309C83.5125 20.5027 82.6936 20.094 81.8766 20.094Z" fill="#0053F1"/>
</g>
<defs>
<clipPath id="clip0">
<rect width="100.878" height="50" fill="white"/>
</clipPath>
</defs>
</svg>
