<svg width="293" height="151" viewBox="0 0 293 151" fill="none" xmlns="http://www.w3.org/2000/svg">
<path d="M140 95.6C139.5 95.6 138.9 95.5 138.4 95.2L102.5 74.4C101.5 73.8 100.9 72.8 100.9 71.7V30.2C100.9 29.1 101.5 28.1 102.4 27.5C103.4 26.9 104.5 26.9 105.5 27.5L141.4 48.2C142.9 49.1 143.4 51 142.5 52.4C141.6 53.9 139.7 54.4 138.3 53.5L107 35.5V69.8L136.7 86.9L136.6 73.3L128.6 68.7C127.1 67.8 126.6 65.9 127.5 64.5C128.4 63 130.3 62.5 131.7 63.4L141.3 68.9C142.3 69.5 142.8 70.5 142.9 71.6L143 92.3C143 93.4 142.4 94.4 141.5 95C141 95.4 140.5 95.6 140 95.6Z" fill="#0053F1"/>
<path d="M153.3 95.6C152.8 95.6 152.2 95.5 151.7 95.2C150.7 94.6 150.1 93.6 150.1 92.5V51C150.1 49.9 150.7 48.9 151.7 48.3L187.6 27.6C189.1 26.7 191 27.3 191.8 28.7C192.7 30.2 192.1 32.1 190.7 32.9L156.4 52.7V87.1L187.7 69C189.2 68.1 191.1 68.7 191.9 70.1C192.8 71.6 192.2 73.5 190.8 74.3L155 95C154.5 95.4 153.8 95.6 153.3 95.6Z" fill="#0053F1"/>
<path d="M113.5 25.5C112.4 25.5 111.4 24.9 110.8 23.9C109.9 22.4 110.5 20.5 111.9 19.7L144.8 0.7C145.8 0.1 146.9 0.1 147.9 0.7L180.8 19.7C182.3 20.6 182.8 22.5 181.9 23.9C181 25.4 179.1 25.9 177.7 25L146.3 6.9L115 25C114.7 25.3 114.2 25.5 113.5 25.5Z" fill="#0053F1"/>
<path d="M270.5 149.6H273L266.9 115.5H263.6L257.4 149.6H259.9L261.5 140.1H268.9L270.5 149.6ZM261.9 137.9L264.8 121.1C264.9 120.1 265.1 119.2 265.2 118.2C265.3 119.3 265.5 120.3 265.7 121.4L268.5 138H261.9V137.9V137.9Z" fill="#0053F1"/>
<path d="M279.4 149.6V115.7H281.8V147.5H293V149.6H279.4Z" fill="#0053F1"/>
<path d="M81.7001 149.6V115.7H84.0001V147.5H95.2001V149.6H81.7001Z" fill="#0053F1"/>
<path d="M23.8 117.8V130.9H33.5V132.9H23.8V147.5H33.5V149.6H21.5V115.7H33.5V117.8H23.8Z" fill="#0053F1"/>
<path d="M49.7001 149.6L41.8 118.6L42.0001 149.6H39.8V115.7H43.2001L51.3 147.3L51.0001 115.7H53.3V149.6H49.7001Z" fill="#0053F1"/>
<path d="M75.2001 126.6V122C75.2001 120.2 75.0001 118.5 73.5001 117.2C71.7001 115.7 69.5 115.8 68.8 115.8H62.0001V149.7H68.8C69.5 149.7 71.7001 149.8 73.5001 148.3C75.0001 147 75.2001 145.3 75.2001 143.5V139.1C75.2001 137.3 75.2001 135.4 73.6001 134.1C72.8001 133.4 71.7001 133.1 70.9001 132.9C71.7001 132.8 72.8001 132.4 73.6001 131.7C75.0001 130.3 75.2001 128.4 75.2001 126.6ZM68.5001 118.3C69.0001 118.3 70.8001 118.2 72.2001 119.1C72.8001 119.9 72.9001 121 72.9001 123V126.6C72.9001 127.4 72.9001 128.2 72.6001 128.9C71.7001 131.4 69.1001 131.7 66.9001 131.7H64.5001V118.3H68.5001ZM68.5001 147H64.5001V133.8H66.9001C69.2001 133.8 71.7001 134.1 72.6001 136.6C72.8001 137.3 72.9001 138.1 72.9001 138.9V142.3C72.9001 144.2 72.8001 145.4 72.2001 146.2C70.7001 147.1 68.8001 147 68.5001 147Z" fill="#0053F1"/>
<path d="M111.7 147.1C111 148.3 109.2 150 105.7 150C105 150 102.1 150 100.4 147.9C99.1 146.2 98.9 144.3 98.9 142.3V123.2C98.9 122.8 98.9 120.9 99.4 119.4C100.4 116.6 103 115.3 105.9 115.3C107.4 115.3 109 115.6 110.2 116.5C112.6 118.3 112.6 121.3 112.6 123.9V142.7C112.7 144.3 112.5 145.7 111.7 147.1ZM110.3 125.3C110.3 122.5 110.2 120.9 109.5 119.6C109.3 119.2 108.9 118.5 108 118C107.7 117.8 106.8 117.5 105.7 117.5C104.4 117.5 103.5 118 103.1 118.2C101 119.5 101.1 122.2 101.1 122.8V141.5C101.1 143.4 101.2 144.5 101.5 145.3C101.8 146.2 103 147.9 105.7 147.9C106.7 147.9 107.6 147.7 108.3 147.1C110.1 145.8 110.2 143.7 110.2 141.8L110.3 125.3Z" fill="#0053F1"/>
<path d="M133.3 146.3C132.7 148.1 131 150.1 126.8 150.1C122.8 150.1 121.1 147.4 120.7 146C120.4 145 120.2 144 120.2 141.9V123.5C120.2 121.4 120.2 119.6 121.4 117.9C122.7 116 124.7 115.4 126.9 115.4C129.4 115.4 131.9 116.4 132.9 118.9C133.4 120.1 133.4 121.6 133.4 121.9V126.7H131.1V124.4C131.1 121.9 131.1 120.5 130.5 119.4C130.4 119.1 130 118.6 129.3 118.2C128.9 118 128.2 117.6 127.1 117.6C126.7 117.6 125.7 117.6 124.7 118.3C122.5 119.6 122.7 122.4 122.7 123V139.7C122.7 141.5 122.6 144.4 123.6 146.1C123.9 146.7 124.4 147.2 125 147.5C126 148 127 148.1 127.4 148.1C128.5 148.1 129.1 147.8 129.5 147.6C131.6 146.5 131.5 144.1 131.5 143.5V138.1H133.9V143.3C133.8 144.8 133.5 145.5 133.3 146.3Z" fill="#0053F1"/>
<path d="M151.8 149.6L145.7 132L143.2 136.7V149.6H140.8V115.7H143.3V132.3L151.7 115.7H154.3L147.2 129.2L154.5 149.6H151.8Z" fill="#0053F1"/>
<path d="M184.5 146.3C183.9 148.1 182.2 150.1 178 150.1C174 150.1 172.3 147.4 171.9 146C171.6 145 171.4 144 171.4 141.9V123.5C171.4 121.4 171.4 119.6 172.6 117.9C173.9 116 175.9 115.4 178.1 115.4C180.6 115.4 183.1 116.4 184.1 118.9C184.6 120.1 184.6 121.6 184.6 121.9V126.7H182.3V124.4C182.3 121.9 182.3 120.5 181.7 119.4C181.6 119.1 181.2 118.6 180.5 118.2C180.1 118 179.4 117.6 178.3 117.6C177.9 117.6 176.9 117.6 175.9 118.3C173.7 119.6 173.9 122.4 173.9 123V139.7C173.9 141.5 173.8 144.4 174.8 146.1C175.1 146.7 175.6 147.2 176.2 147.5C177.2 148 178.2 148.1 178.6 148.1C179.7 148.1 180.3 147.8 180.7 147.6C182.8 146.5 182.7 144.1 182.7 143.5V138.1H185.1V143.3C185 144.8 184.8 145.5 184.5 146.3Z" fill="#0053F1"/>
<path d="M224.3 132C222.6 134.1 219.7 134.2 218.3 134.2H214.8V149.7H212.4V115.7H217.7C219.8 115.7 222.1 115.6 223.8 117C225.6 118.5 225.6 120.7 225.6 123.2V127C225.7 128.9 225.7 130.4 224.3 132ZM223.3 124.1C223.3 121.1 223.3 119.4 221.9 118.4C221 117.7 220.3 117.6 218.3 117.6H214.7V132.1H218.5C219.8 132.1 221.1 132 222.1 130.9C223.4 129.6 223.2 127.3 223.2 127L223.3 124.1Z" fill="#0053F1"/>
<path d="M235.2 115.7H232.8V149.6H235.2V115.7Z" fill="#0053F1"/>
<path d="M249.2 117.8V149.6H246.8V117.8H240.8V115.7H255.2V117.8H249.2Z" fill="#0053F1"/>
<path d="M11.8 142.3C11.8 143.4 11.8 144.9 11.3 145.9C10.9 146.9 9.80005 148.1 7.30005 148.1C7.20005 148.1 7.00007 148.1 6.70007 148.1C4.60007 148 3.50007 146.5 3.20007 145.8C2.70007 144.8 2.60006 143.6 2.50006 141.7C2.50006 141.6 2.50006 124.3 2.50006 124.3C2.50006 122.2 2.30007 119.9 4.10007 118.4C5.30007 117.5 6.60007 117.5 7.10007 117.5C9.50007 117.5 10.6001 118.7 11.0001 119.7C11.4001 120.7 11.5001 122.2 11.5001 123.3V126.8H13.8V122.1C13.8 121.9 13.8001 120.5 13.6001 119.6C13.1001 117.9 11.5 115.5 7.30005 115.5C5.00005 115.5 3.80006 116 3.00006 116.6C2.80006 116.7 2.40005 117 1.90005 117.5C0.400055 119 0.300049 121.3 0.300049 123.3V142.6C0.300049 143.4 0.400061 144.2 0.500061 145C0.700061 146.1 1.00007 146.9 1.60007 147.7C1.70007 147.8 1.80007 148.1 2.10007 148.3C2.30007 148.5 2.40006 148.6 2.50006 148.7C3.60006 149.7 5.10007 150.2 6.70007 150.2C6.70007 150.2 6.80007 150.2 6.70007 150.2C6.70007 150.2 7.30006 150.2 7.50006 150.2C11.8001 150.1 13.4001 147.8 13.9001 146.1C14.1001 145.2 14.1001 143.8 14.1001 143.6V134.2H6.80005V136.3H11.8V142.3V142.3Z" fill="#0053F1"/>
<path d="M203.5 149.6H206L199.9 115.5H196.6L190.4 149.6H192.9L194.5 140.1H201.9L203.5 149.6ZM195 137.9L197.9 121.1C198 120.1 198.2 119.2 198.3 118.2C198.4 119.3 198.6 120.3 198.8 121.4L201.6 138H195V137.9Z" fill="#0053F1"/>
</svg>
