<?xml version="1.0" encoding="utf-8"?>
<svg version="1.1" id="Слой_2" xmlns="http://www.w3.org/2000/svg" xmlns:xlink="http://www.w3.org/1999/xlink" x="0px" y="0px"
	 viewBox="0 0 1060.2 595.3" style="enable-background:new 0 0 1060.2 595.3;" xml:space="preserve">
<style type="text/css">
	.st0{fill:#0053F1;}
</style>
<g>
	<path class="st0" d="M516,306.6c-0.5,0-1.1-0.1-1.6-0.4l-35.9-20.8c-1-0.6-1.6-1.6-1.6-2.7v-41.5c0-1.1,0.6-2.1,1.5-2.7
		c1-0.6,2.1-0.6,3.1,0l35.9,20.7c1.5,0.9,2,2.8,1.1,4.2c-0.9,1.5-2.8,2-4.2,1.1l-31.3-18v34.3l29.7,17.1l-0.1-13.6l-8-4.6
		c-1.5-0.9-2-2.8-1.1-4.2c0.9-1.5,2.8-2,4.2-1.1l9.6,5.5c1,0.6,1.5,1.6,1.6,2.7l0.1,20.7c0,1.1-0.6,2.1-1.5,2.7
		C517,306.4,516.5,306.6,516,306.6"/>
	<path class="st0" d="M529.3,306.6c-0.5,0-1.1-0.1-1.6-0.4c-1-0.6-1.6-1.6-1.6-2.7V262c0-1.1,0.6-2.1,1.6-2.7l35.9-20.7
		c1.5-0.9,3.4-0.3,4.2,1.1c0.9,1.5,0.3,3.4-1.1,4.2l-34.3,19.8v34.4l31.3-18.1c1.5-0.9,3.4-0.3,4.2,1.1c0.9,1.5,0.3,3.4-1.1,4.2
		L531,306C530.5,306.4,529.8,306.6,529.3,306.6"/>
	<path class="st0" d="M489.5,236.5c-1.1,0-2.1-0.6-2.7-1.6c-0.9-1.5-0.3-3.4,1.1-4.2l32.9-19c1-0.6,2.1-0.6,3.1,0l32.9,19
		c1.5,0.9,2,2.8,1.1,4.2c-0.9,1.5-2.8,2-4.2,1.1l-31.4-18.1L491,236C490.7,236.3,490.2,236.5,489.5,236.5"/>
	<path class="st0" d="M646.5,360.6h2.5l-6.1-34.1h-3.3l-6.2,34.1h2.5l1.6-9.5h7.4L646.5,360.6z M637.9,348.9l2.9-16.8
		c0.1-1,0.3-1.9,0.4-2.9c0.1,1.1,0.3,2.1,0.5,3.2l2.8,16.6h-6.6V348.9z"/>
	<polygon class="st0" points="655.4,360.6 655.4,326.7 657.8,326.7 657.8,358.5 669,358.5 669,360.6 	"/>
	<polygon class="st0" points="457.7,360.6 457.7,326.7 460,326.7 460,358.5 471.2,358.5 471.2,360.6 	"/>
	<polygon class="st0" points="399.8,328.8 399.8,341.9 409.5,341.9 409.5,343.9 399.8,343.9 399.8,358.5 409.5,358.5 409.5,360.6 
		397.5,360.6 397.5,326.7 409.5,326.7 409.5,328.8 	"/>
	<polygon class="st0" points="425.7,360.6 417.8,329.6 418,360.6 415.8,360.6 415.8,326.7 419.2,326.7 427.3,358.3 427,326.7 
		429.3,326.7 429.3,360.6 	"/>
	<path class="st0" d="M451.2,337.6V333c0-1.8-0.2-3.5-1.7-4.8c-1.8-1.5-4-1.4-4.7-1.4H438v33.9h6.8c0.7,0,2.9,0.1,4.7-1.4
		c1.5-1.3,1.7-3,1.7-4.8v-4.4c0-1.8,0-3.7-1.6-5c-0.8-0.7-1.9-1-2.7-1.2c0.8-0.1,1.9-0.5,2.7-1.2C451,341.3,451.2,339.4,451.2,337.6
		 M444.5,329.3c0.5,0,2.3-0.1,3.7,0.8c0.6,0.8,0.7,1.9,0.7,3.9v3.6c0,0.8,0,1.6-0.3,2.3c-0.9,2.5-3.5,2.8-5.7,2.8h-2.4l0,0v-13.4
		L444.5,329.3L444.5,329.3z M444.5,358h-4v-13.2l0,0h2.4c2.3,0,4.8,0.3,5.7,2.8c0.2,0.7,0.3,1.5,0.3,2.3v3.4c0,1.9-0.1,3.1-0.7,3.9
		C446.7,358.1,444.8,358,444.5,358z"/>
	<path class="st0" d="M487.7,358.1c-0.7,1.2-2.5,2.9-6,2.9c-0.7,0-3.6,0-5.3-2.1c-1.3-1.7-1.5-3.6-1.5-5.6v-19.1
		c0-0.4,0-2.3,0.5-3.8c1-2.8,3.6-4.1,6.5-4.1c1.5,0,3.1,0.3,4.3,1.2c2.4,1.8,2.4,4.8,2.4,7.4v18.8
		C488.7,355.3,488.5,356.7,487.7,358.1 M486.3,336.3c0-2.8-0.1-4.4-0.8-5.7c-0.2-0.4-0.6-1.1-1.5-1.6c-0.3-0.2-1.2-0.5-2.3-0.5
		c-1.3,0-2.2,0.5-2.6,0.7c-2.1,1.3-2,4-2,4.6v18.7c0,1.9,0.1,3,0.4,3.8c0.3,0.9,1.5,2.6,4.2,2.6c1,0,1.9-0.2,2.6-0.8
		c1.8-1.3,1.9-3.4,1.9-5.3L486.3,336.3L486.3,336.3z"/>
	<path class="st0" d="M509.3,357.3c-0.6,1.8-2.3,3.8-6.5,3.8c-4,0-5.7-2.7-6.1-4.1c-0.3-1-0.5-2-0.5-4.1v-18.4c0-2.1,0-3.9,1.2-5.6
		c1.3-1.9,3.3-2.5,5.5-2.5c2.5,0,5,1,6,3.5c0.5,1.2,0.5,2.7,0.5,3v4.8h-2.3v-2.3c0-2.5,0-3.9-0.6-5c-0.1-0.3-0.5-0.8-1.2-1.2
		c-0.4-0.2-1.1-0.6-2.2-0.6c-0.4,0-1.4,0-2.4,0.7c-2.2,1.3-2,4.1-2,4.7v16.7c0,1.8-0.1,4.7,0.9,6.4c0.3,0.6,0.8,1.1,1.4,1.4
		c1,0.5,2,0.6,2.4,0.6c1.1,0,1.7-0.3,2.1-0.5c2.1-1.1,2-3.5,2-4.1v-5.4h2.4v5.2C509.8,355.8,509.5,356.5,509.3,357.3"/>
	<polygon class="st0" points="527.8,360.6 521.7,343 519.2,347.7 519.2,360.6 516.8,360.6 516.8,326.7 519.3,326.7 519.3,343.3 
		527.7,326.7 530.3,326.7 523.2,340.2 530.5,360.6 	"/>
	<path class="st0" d="M560.5,357.3c-0.6,1.8-2.3,3.8-6.5,3.8c-4,0-5.7-2.7-6.1-4.1c-0.3-1-0.5-2-0.5-4.1v-18.4c0-2.1,0-3.9,1.2-5.6
		c1.3-1.9,3.3-2.5,5.5-2.5c2.5,0,5,1,6,3.5c0.5,1.2,0.5,2.7,0.5,3v4.8h-2.3v-2.3c0-2.5,0-3.9-0.6-5c-0.1-0.3-0.5-0.8-1.2-1.2
		c-0.4-0.2-1.1-0.6-2.2-0.6c-0.4,0-1.4,0-2.4,0.7c-2.2,1.3-2,4.1-2,4.7v16.7c0,1.8-0.1,4.7,0.9,6.4c0.3,0.6,0.8,1.1,1.4,1.4
		c1,0.5,2,0.6,2.4,0.6c1.1,0,1.7-0.3,2.1-0.5c2.1-1.1,2-3.5,2-4.1v-5.4h2.4v5.2C561,355.8,560.8,356.5,560.5,357.3"/>
	<path class="st0" d="M600.3,343c-1.7,2.1-4.6,2.2-6,2.2h-3.5v15.5h-2.4v-34h5.3c2.1,0,4.4-0.1,6.1,1.3c1.8,1.5,1.8,3.7,1.8,6.2v3.8
		C601.7,339.9,601.7,341.4,600.3,343 M599.3,335.1c0-3,0-4.7-1.4-5.7c-0.9-0.7-1.6-0.8-3.6-0.8h-3.6v14.5h3.8c1.3,0,2.6-0.1,3.6-1.2
		c1.3-1.3,1.1-3.6,1.1-3.9L599.3,335.1L599.3,335.1z"/>
	<rect x="608.8" y="326.7" class="st0" width="2.4" height="33.9"/>
	<polygon class="st0" points="625.2,328.8 625.2,360.6 622.8,360.6 622.8,328.8 616.8,328.8 616.8,326.7 631.2,326.7 631.2,328.8 	
		"/>
	<path class="st0" d="M387.8,353.3c0,1.1,0,2.6-0.5,3.6c-0.4,1-1.5,2.2-4,2.2c-0.1,0-0.3,0-0.6,0c-2.1-0.1-3.2-1.6-3.5-2.3
		c-0.5-1-0.6-2.2-0.7-4.1c0-0.1,0-17.4,0-17.4c0-2.1-0.2-4.4,1.6-5.9c1.2-0.9,2.5-0.9,3-0.9c2.4,0,3.5,1.2,3.9,2.2
		c0.4,1,0.5,2.5,0.5,3.6v3.5h2.3v-4.7c0-0.2,0-1.6-0.2-2.5c-0.5-1.7-2.1-4.1-6.3-4.1c-2.3,0-3.5,0.5-4.3,1.1
		c-0.2,0.1-0.6,0.4-1.1,0.9c-1.5,1.5-1.6,3.8-1.6,5.8v19.3c0,0.8,0.1,1.6,0.2,2.4c0.2,1.1,0.5,1.9,1.1,2.7c0.1,0.1,0.2,0.4,0.5,0.6
		c0.2,0.2,0.3,0.3,0.4,0.4c1.1,1,2.6,1.5,4.2,1.5c0,0,0.1,0,0,0c0,0,0.6,0,0.8,0c4.3-0.1,5.9-2.4,6.4-4.1c0.2-0.9,0.2-2.3,0.2-2.5
		v-9.4h-7.3v2.1h5V353.3z"/>
	<path class="st0" d="M579.5,360.6h2.5l-6.1-34.1h-3.3l-6.2,34.1h2.5l1.6-9.5h7.4L579.5,360.6z M571,348.9l2.9-16.8
		c0.1-1,0.3-1.9,0.4-2.9c0.1,1.1,0.3,2.1,0.5,3.2l2.8,16.6H571V348.9z"/>
</g>
</svg>
