<svg width="658" height="231" viewBox="0 0 658 231" fill="none" xmlns="http://www.w3.org/2000/svg">
<path fill-rule="evenodd" clip-rule="evenodd" d="M573.9 96.9C578.2 97.8 588.5 97.3 592.3 95.8C597 93.9 600.6 89.8 600.6 83.3C600.6 76.7 597.3 72.8 592.8 70.8C589 69.1 578.1 68.4 573.9 69.5V96.9V96.9ZM327.6 112.2L320.8 117C331 139 358.8 140.3 367 122.6C370.3 115.4 368.8 107.8 364.9 102.2C357.7 91.8 338.4 92.3 334.4 81.7C330.1 70.5 345.7 64.3 355.3 72.6C358.2 75.1 359.5 77.1 360.9 79.8L368.2 75.7C355.9 51 324.6 59.1 324.6 79.4C324.6 95.8 342.2 98.1 352.2 103.2C367.6 111.1 357.8 132.8 340.2 125.3C334.2 122.8 331.3 117.3 327.6 112.2V112.2ZM463.3 133.8H473.2L495.5 81L517.8 133.8H527.7L495.5 61.5L463.3 133.8V133.8ZM418.8 133.8H427.6V69.7H446.2V61.5H400.2V69.7H418.8V133.8ZM282.6 65.4V61.5H273.8V73.7L282.6 65.4V65.4ZM273.8 133.8H282.6V75.8L273.8 84.2V133.8ZM648.8 65.4V61.5H657.6V73.7L648.8 65.4V65.4ZM657.6 133.8H648.8V75.8L657.6 84.2V133.8ZM573.9 104.9H582.6L602.7 133.8H613.5L592.3 104.1C598.2 101.8 603.6 99.8 607 93.1C610.2 86.7 610.1 78.1 606.5 72.2C598.2 58.8 579 61.3 565.1 61.5V133.8H573.9V104.9ZM154.7 224.5C151 224.1 147.3 223.5 143.6 222.8C126.1 219.3 109.6 211.9 95.2 201.2C98.3 198.6 101.2 195.9 104 193.1C118.1 207.3 135.5 218.1 154.9 224.5H154.7V224.5ZM104 213.6C111.7 218.1 119.9 221.7 128.5 224.5C117.7 223.4 107.3 220.8 97.5 217.1C99.8 216 101.9 214.8 104 213.6ZM26.8 224.5C30.5 224.1 34.2 223.5 37.9 222.8C55.4 219.3 71.9 211.9 86.3 201.2C83.2 198.6 80.3 195.9 77.5 193.1C63.4 207.3 46 218.1 26.6 224.5H26.8V224.5ZM77.4 213.6C69.7 218.1 61.5 221.7 52.9 224.5C63.7 223.4 74.1 220.8 83.9 217.1C81.7 216 79.6 214.8 77.4 213.6ZM90.7 8C87.4 10.7 84.2 13.6 81.2 16.6C80 15.2 78.7 13.9 77.4 12.6C81.6 8.30001 86 4.59999 90.7 0.899994C95.4 4.59999 99.8 8.30001 104 12.6C102.7 13.9 101.4 15.2 100.2 16.6C97.2 13.6 94.1 10.7 90.7 8ZM90.7 204.7C93.3 206.6 95.9 208.5 98.6 210.2C96 211.6 93.4 212.9 90.7 214.2C88 213 85.4 211.7 82.8 210.2C85.5 208.5 88.2 206.7 90.7 204.7ZM90.7 177.4C93.6 181.5 96.8 185.4 100.2 189.1C97.2 192.1 94 195 90.7 197.7C87.4 195 84.2 192.1 81.2 189.1C84.6 185.4 87.8 181.5 90.7 177.4ZM90.7 38.3C94.5 44.4 97.7 50.8 100.4 57.5C106 71.5 109.1 86.8 109.1 102.9C109.1 126.6 102.4 148.7 90.7 167.5C79 148.8 72.3 126.6 72.3 102.9C72.3 86.8 75.4 71.5 81 57.5C83.7 50.7 87 44.3 90.7 38.3ZM121.9 201.2C135.8 189.6 147.2 175.1 155.2 158.7C163.4 141.8 168 122.9 168 102.9C168 82.9 163.4 64 155.2 47.1C147.2 30.6 135.8 16.2 121.9 4.60001C120.4 5.70001 118.9 6.90001 117.4 8.10001C131.1 19.3 142.4 33.4 150.2 49.5C158 65.6 162.4 83.8 162.4 102.9C162.4 122.1 158 140.2 150.2 156.3C142.4 172.4 131.1 186.5 117.4 197.7C114.1 195 110.9 192.1 107.9 189.1C129.5 165.5 141.3 134.9 141.3 102.9C141.3 82.9 136.7 63.9 128.5 47.1C123.1 36 116.1 25.7 107.9 16.7C106.6 18 105.3 19.4 104.1 20.7C111.9 29.3 118.5 39 123.6 49.5C131.4 65.6 135.8 83.8 135.8 102.9C135.8 104.9 135.8 106.9 135.7 108.9C134.3 137.3 123.2 164.1 104.1 185.1C100.5 181.1 97.2 176.9 94.1 172.6C107.1 152.6 114.7 128.6 114.7 102.9C114.7 86.1 111.5 70.1 105.6 55.4C102.5 47.6 98.6 40.2 94.1 33.2C97.2 28.8 100.5 24.6 104.1 20.6C102.9 19.2 101.6 17.9 100.3 16.6C96.9 20.3 93.7 24.2 90.8 28.3C87.9 24.2 84.7 20.3 81.3 16.6C80 17.9 78.7 19.2 77.5 20.6C81.1 24.6 84.4 28.7 87.5 33.2C83 40.2 79.1 47.6 76 55.4C70.1 70.1 66.9 86.1 66.9 102.9C66.9 128.6 74.5 152.5 87.5 172.6C84.5 177 81.1 181.2 77.5 185.1C58.4 164.1 47.3 137.3 45.9 108.9C45.8 106.9 45.8 104.9 45.8 102.9C45.8 83.8 50.2 65.6 58 49.5C63.1 39 69.7 29.3 77.5 20.7C76.3 19.3 75 18 73.7 16.7C65.4 25.7 58.5 36 53.1 47.1C44.9 64 40.3 82.9 40.3 102.9C40.3 134.9 52.2 165.5 73.7 189.1C70.7 192.1 67.5 195 64.2 197.7C50.5 186.5 39.2 172.4 31.4 156.3C23.6 140.2 19.2 122 19.2 102.9C19.2 83.7 23.6 65.6 31.4 49.5C39.2 33.4 50.5 19.3 64.2 8.10001C62.7 6.90001 61.2 5.70001 59.7 4.60001C45.8 16.2 34.4 30.7 26.4 47.1C18.2 64 13.6 82.9 13.6 102.9C13.6 122.9 18.2 141.8 26.4 158.7C34.4 175.1 45.8 189.6 59.7 201.2C46 211.3 30.2 218.7 12.9 222.4L0.400024 225.1L12.9 227.8C17.3 228.8 21.8 229.5 26.4 230C30.9 230.5 35.5 230.7 40.1 230.7C58.1 230.7 75.2 227 90.8 220.3C106.3 227 123.5 230.7 141.5 230.7C146.1 230.7 150.7 230.4 155.2 230C159.8 229.5 164.3 228.8 168.7 227.8L181.2 225.1L168.7 222.4C151.4 218.7 135.5 211.3 121.9 201.2V201.2ZM511 178.1H514L521 188.1H524.7L517.4 177.8C519.4 177 521.3 176.3 522.5 174C523.6 171.8 523.6 168.8 522.3 166.8C519.4 162.2 512.8 163 508 163.1V188.1H511V178.1V178.1ZM566.2 180.6L563.8 182.2C567.3 189.8 576.9 190.3 579.7 184.2C580.8 181.7 580.3 179.1 579 177.1C576.5 173.5 569.8 173.7 568.5 170C567 166.1 572.4 164 575.7 166.9C576.7 167.8 577.1 168.4 577.6 169.4L580.1 168C575.9 159.5 565 162.3 565.1 169.3C565.1 175 571.2 175.7 574.6 177.5C579.9 180.2 576.5 187.7 570.4 185.1C568.5 184.3 567.4 182.3 566.2 180.6V180.6ZM373.3 163.1H369.9L362.2 181.3L354.5 163.1H351.1L362.2 188.1L373.3 163.1ZM455.2 188H458.2V165.9H464.6V163.1H448.8V165.9H455.2V188ZM389.2 175.9H399.4V173.1H389.2V166H400.3V163.2H386.2V188.2H400.3V185.4H389.2V175.9ZM539.9 175.9H550.1V173.1H539.9V166H551V163.2H536.9V188.2H551V185.4H539.9V175.9V175.9ZM479.6 180.7V163.1H476.6V180.7C476.6 184.8 480.4 188.1 485.1 188.1C489.8 188.1 493.6 184.8 493.6 180.7V163.1H490.6V180.7C490.6 183.6 488.1 185.9 485.1 185.9C482 185.9 479.6 183.6 479.6 180.7ZM436.6 189.1V163.1H433.6V181.6L414.8 162.1V188.1H417.8V169.6L436.6 189.1ZM511 175.3C512.5 175.6 516 175.4 517.3 174.9C518.9 174.3 520.2 172.8 520.2 170.6C520.2 168.3 519.1 167 517.5 166.3C516.2 165.7 512.4 165.5 511 165.9V175.3V175.3Z" fill="#0053F1"/>
</svg>
