<svg width="496" height="279" viewBox="0 0 496 279" fill="none" xmlns="http://www.w3.org/2000/svg">
<path fill-rule="evenodd" clip-rule="evenodd" d="M339.2 138.1C330.1 120.4 315.6 114.7 315.6 114.7C366.2 107.4 365.8 58.5 365.8 58.5C366.1 1.9 297.3 0.800003 297.3 0.800003H183.3L181.7 0.699997V0.800003V6.2V6.5H195.8C220.5 9.8 217.5 43.6 217.5 43.6V192.7C217.8 227 181.7 224.3 181.7 224.3V230.8H289.4V224.3C254.4 223.9 254 191.5 254 191.5V119.3H274.3C292.2 119.2 312.9 165.7 312.9 165.7L343.1 230.8H398.3V225.6C370.8 221.1 350.5 160.3 339.2 138.1ZM436.1 138.1C427 120.4 412.5 114.7 412.5 114.7C463.1 107.4 462.7 58.5 462.7 58.5C463 1.9 394.2 0.800003 394.2 0.800003H355V6.5C386.6 7 421.7 13.8 422.5 59.5C423.2 100.3 389.9 111.2 380.1 113.6C378.5 114 376.8 114.2 375.2 114.2H355V119.3H371.2C389.1 119.2 409.8 165.7 409.8 165.7L440 230.8H495.2V225.6C467.7 221.1 447.4 160.3 436.1 138.1ZM151.7 0.899994H40.1V6.89999C40.1 6.89999 51.1 7.4 61.5 11.8C71.9 16.2 78.4 26.6 78.5 37.8C78.5 43.9 78.5 52.2 78.5 59.3V221.4C78.5 221.4 82.2 271.9 52.3 273.4C22.4 274.9 41.5 247.8 23.7 241.1C5.89999 234.4 -1.10004 249.6 1.29996 257.8C3.59996 266 11.1 279.6 52.4 278.8C93.7 278 116.2 244.4 116.2 212.5V40.5C116.2 35.1 117.3 29.6 119.7 24.7C123.8 16.4 132.7 6.8 151.9 6.8V0.899994H151.7ZM283.2 113.6C281.6 114 279.9 114.2 278.3 114.2H254V6.60001C286.6 6.70001 324.8 12 325.6 59.6C326.3 100.4 293 111.3 283.2 113.6Z" fill="#0053F1"/>
</svg>
