<svg width="530" height="101" viewBox="0 0 530 101" fill="none" xmlns="http://www.w3.org/2000/svg">
<path d="M96.6412 97.5225C97.9983 96.1531 97.9983 93.9329 96.6412 92.5635C95.2841 91.1941 93.0838 91.1941 91.7267 92.5635C90.3697 93.9329 90.3697 96.1531 91.7267 97.5224C93.0838 98.8918 95.2841 98.8918 96.6412 97.5225Z" fill="#0053F1"/>
<path d="M89.5758 90.393C90.7386 89.2197 90.7386 87.3174 89.5758 86.1441C88.4131 84.9708 86.5279 84.9708 85.3651 86.1441C84.2024 87.3174 84.2024 89.2197 85.3651 90.393C86.5279 91.5663 88.4131 91.5663 89.5758 90.393Z" fill="#0053F1"/>
<path d="M83.2088 83.9706C84.1772 82.9934 84.1772 81.409 83.2088 80.4318C82.2403 79.4546 80.6702 79.4545 79.7018 80.4318C78.7333 81.409 78.7333 82.9934 79.7018 83.9706C80.6702 84.9478 82.2403 84.9478 83.2088 83.9706Z" fill="#0053F1"/>
<path d="M77.56 78.2561C78.3341 77.475 78.3341 76.2086 77.56 75.4274C76.7858 74.6463 75.5308 74.6463 74.7566 75.4274C73.9825 76.2086 73.9825 77.475 74.7566 78.2562C75.5308 79.0373 76.7858 79.0373 77.56 78.2561Z" fill="#0053F1"/>
<path d="M72.5972 73.2497C73.1769 72.6647 73.1769 71.7162 72.5972 71.1311C72.0174 70.5461 71.0773 70.5461 70.4976 71.1311C69.9178 71.7162 69.9178 72.6647 70.4976 73.2497C71.0773 73.8348 72.0174 73.8348 72.5972 73.2497Z" fill="#0053F1"/>
<path d="M68.3421 68.9581C68.7307 68.566 68.7307 67.9301 68.3421 67.538C67.9534 67.1458 67.3233 67.1458 66.9347 67.538C66.546 67.9301 66.546 68.566 66.9347 68.9581C67.3233 69.3503 67.9534 69.3503 68.3421 68.9581Z" fill="#0053F1"/>
<path d="M64.7855 65.3681C64.98 65.1718 64.98 64.8536 64.7855 64.6573C64.591 64.461 64.2757 64.461 64.0812 64.6573C63.8867 64.8536 63.8867 65.1718 64.0812 65.3681C64.2757 65.5643 64.591 65.5643 64.7855 65.3681Z" fill="#0053F1"/>
<path d="M61.2283 61.7772C62.1967 60.8 62.1967 59.2156 61.2283 58.2384C60.2599 57.2612 58.6897 57.2612 57.7213 58.2384C56.7528 59.2156 56.7528 60.8 57.7213 61.7772C58.6897 62.7544 60.2599 62.7544 61.2283 61.7772Z" fill="#0053F1"/>
<path d="M7.38572 7.43738C8.74395 6.06914 8.74395 3.85078 7.38572 2.48254C6.02748 1.1143 3.82535 1.1143 2.46711 2.48254C1.10888 3.85078 1.10888 6.06914 2.46711 7.43738C3.82535 8.80562 6.02748 8.80562 7.38572 7.43738Z" fill="#0053F1"/>
<path d="M13.7394 13.8588C14.9022 12.6855 14.9022 10.7832 13.7394 9.60994C12.5767 8.43664 10.6915 8.43664 9.5287 9.60993C8.36594 10.7832 8.36594 12.6855 9.5287 13.8588C10.6915 15.0321 12.5767 15.0321 13.7394 13.8588Z" fill="#0053F1"/>
<path d="M19.3919 19.5712C20.3603 18.5939 20.3603 17.0096 19.3919 16.0324C18.4234 15.0552 16.8533 15.0552 15.8849 16.0324C14.9164 17.0096 14.9164 18.5939 15.8849 19.5712C16.8533 20.5484 18.4234 20.5484 19.3919 19.5712Z" fill="#0053F1"/>
<path d="M24.349 24.5745C25.1231 23.7934 25.1231 22.5269 24.349 21.7458C23.5749 20.9647 22.3198 20.9647 21.5457 21.7458C20.7716 22.5269 20.7716 23.7934 21.5457 24.5745C22.3198 25.3556 23.5749 25.3556 24.349 24.5745Z" fill="#0053F1"/>
<path d="M28.6064 28.8708C29.1862 28.2858 29.1862 27.3373 28.6064 26.7522C28.0266 26.1672 27.0866 26.1672 26.5068 26.7522C25.927 27.3373 25.927 28.2858 26.5068 28.8708C27.0866 29.4559 28.0266 29.4559 28.6064 28.8708Z" fill="#0053F1"/>
<path d="M32.1707 32.465C32.5594 32.0728 32.5594 31.437 32.1707 31.0448C31.7821 30.6526 31.1519 30.6526 30.7633 31.0448C30.3746 31.437 30.3746 32.0728 30.7633 32.465C31.1519 32.8571 31.7821 32.8571 32.1707 32.465Z" fill="#0053F1"/>
<path d="M35.0253 35.3456C35.2198 35.1493 35.2198 34.8311 35.0253 34.6349C34.8308 34.4386 34.5154 34.4386 34.3209 34.6349C34.1264 34.8311 34.1264 35.1493 34.3209 35.3456C34.5154 35.5419 34.8308 35.5419 35.0253 35.3456Z" fill="#0053F1"/>
<path d="M41.3836 41.7645C42.352 40.7873 42.352 39.2029 41.3836 38.2257C40.4151 37.2485 38.845 37.2485 37.8766 38.2257C36.9081 39.2029 36.9081 40.7873 37.8766 41.7645C38.845 42.7417 40.4151 42.7417 41.3836 41.7645Z" fill="#0053F1"/>
<path d="M7.37791 97.5135C8.73614 96.1453 8.73614 93.927 7.3779 92.5587C6.01967 91.1905 3.81754 91.1905 2.4593 92.5587C1.10107 93.927 1.10106 96.1453 2.4593 97.5135C3.81753 98.8818 6.01967 98.8818 7.37791 97.5135Z" fill="#0053F1"/>
<path d="M13.7336 90.3871C14.8963 89.2138 14.8963 87.3116 13.7336 86.1383C12.5708 84.965 10.6856 84.965 9.52285 86.1383C8.36009 87.3116 8.36008 89.2138 9.52284 90.3871C10.6856 91.5604 12.5708 91.5604 13.7336 90.3871Z" fill="#0053F1"/>
<path d="M19.3875 83.9676C20.3559 82.9904 20.3559 81.4061 19.3875 80.4289C18.419 79.4516 16.8489 79.4516 15.8805 80.4288C14.912 81.4061 14.912 82.9904 15.8805 83.9676C16.8489 84.9449 18.419 84.9449 19.3875 83.9676Z" fill="#0053F1"/>
<path d="M24.3544 78.263C25.1285 77.4819 25.1285 76.2154 24.3544 75.4343C23.5803 74.6532 22.3252 74.6532 21.5511 75.4343C20.777 76.2154 20.777 77.4819 21.5511 78.263C22.3252 79.0441 23.5803 79.0441 24.3544 78.263Z" fill="#0053F1"/>
<path d="M28.6118 73.2566C29.1916 72.6715 29.1916 71.723 28.6118 71.1379C28.032 70.5529 27.092 70.5529 26.5122 71.138C25.9324 71.723 25.9324 72.6715 26.5122 73.2566C27.092 73.8416 28.032 73.8416 28.6118 73.2566Z" fill="#0053F1"/>
<path d="M32.1751 68.9601C32.5638 68.5679 32.5638 67.9321 32.1751 67.5399C31.7865 67.1477 31.1563 67.1477 30.7677 67.5399C30.379 67.9321 30.379 68.5679 30.7677 68.9601C31.1563 69.3523 31.7865 69.3523 32.1751 68.9601Z" fill="#0053F1"/>
<path d="M35.0287 65.372C35.2232 65.1757 35.2232 64.8575 35.0287 64.6612C34.8342 64.465 34.5189 64.465 34.3244 64.6612C34.1298 64.8575 34.1298 65.1757 34.3244 65.372C34.5189 65.5682 34.8342 65.5682 35.0287 65.372Z" fill="#0053F1"/>
<path d="M41.3909 61.7821C42.3593 60.8049 42.3593 59.2205 41.3909 58.2433C40.4225 57.2661 38.8523 57.2661 37.8839 58.2433C36.9154 59.2205 36.9154 60.8049 37.8839 61.7821C38.8523 62.7593 40.4225 62.7593 41.3909 61.7821Z" fill="#0053F1"/>
<path d="M96.6466 7.44531C98.0037 6.07593 98.0037 3.85572 96.6466 2.48634C95.2895 1.11696 93.0892 1.11696 91.7321 2.48634C90.375 3.85572 90.375 6.07592 91.7321 7.4453C93.0892 8.81468 95.2895 8.81469 96.6466 7.44531Z" fill="#0053F1"/>
<path d="M89.5808 13.8647C90.7435 12.6914 90.7435 10.7891 89.5808 9.61579C88.418 8.44249 86.5328 8.44249 85.37 9.61578C84.2073 10.7891 84.2073 12.6914 85.37 13.8647C86.5328 15.038 88.418 15.038 89.5808 13.8647Z" fill="#0053F1"/>
<path d="M83.2102 19.5731C84.1787 18.5959 84.1787 17.0115 83.2102 16.0343C82.2418 15.0571 80.6717 15.0571 79.7032 16.0343C78.7348 17.0115 78.7348 18.5959 79.7032 19.5731C80.6717 20.5503 82.2418 20.5503 83.2102 19.5731Z" fill="#0053F1"/>
<path d="M77.5555 24.5686C78.3297 23.7875 78.3297 22.5211 77.5555 21.7399C76.7814 20.9588 75.5264 20.9588 74.7522 21.7399C73.9781 22.5211 73.9781 23.7875 74.7522 24.5686C75.5263 25.3498 76.7814 25.3498 77.5555 24.5686Z" fill="#0053F1"/>
<path d="M72.5937 28.865C73.1735 28.2799 73.1735 27.3314 72.5937 26.7464C72.0139 26.1613 71.0739 26.1613 70.4941 26.7464C69.9143 27.3314 69.9143 28.2799 70.4941 28.865C71.0739 29.45 72.0139 29.45 72.5937 28.865Z" fill="#0053F1"/>
<path d="M68.3392 32.462C68.7278 32.0699 68.7278 31.434 68.3392 31.0419C67.9505 30.6497 67.3204 30.6497 66.9317 31.0419C66.5431 31.434 66.5431 32.0699 66.9317 32.462C67.3204 32.8542 67.9505 32.8542 68.3392 32.462Z" fill="#0053F1"/>
<path d="M64.7821 35.3407C64.9766 35.1445 64.9766 34.8262 64.7821 34.63C64.5876 34.4337 64.2723 34.4337 64.0778 34.63C63.8833 34.8262 63.8833 35.1445 64.0778 35.3407C64.2723 35.537 64.5876 35.537 64.7821 35.3407Z" fill="#0053F1"/>
<path d="M61.2229 41.7587C62.1914 40.7814 62.1914 39.1971 61.2229 38.2199C60.2545 37.2427 58.6843 37.2427 57.7159 38.2199C56.7475 39.1971 56.7475 40.7814 57.7159 41.7587C58.6843 42.7359 60.2545 42.7359 61.2229 41.7587Z" fill="#0053F1"/>
<path d="M39.6339 52.5022C41.0033 52.5022 42.1134 51.3817 42.1134 49.9996C42.1134 48.6175 41.0033 47.4971 39.6339 47.4971C38.2644 47.4971 37.1543 48.6175 37.1543 49.9996C37.1543 51.3817 38.2644 52.5022 39.6339 52.5022Z" fill="#0053F1"/>
<path d="M59.4737 52.5022C60.8432 52.5022 61.9533 51.3817 61.9533 49.9996C61.9533 48.6175 60.8432 47.4971 59.4737 47.4971C58.1043 47.4971 56.9941 48.6175 56.9941 49.9996C56.9941 51.3817 58.1043 52.5022 59.4737 52.5022Z" fill="#0053F1"/>
<path d="M4.9202 53.5069C6.8396 53.5069 8.39558 51.9368 8.39558 50C8.39558 48.0632 6.8396 46.4932 4.9202 46.4932C3.0008 46.4932 1.44482 48.0632 1.44482 50C1.44482 51.9368 3.0008 53.5069 4.9202 53.5069Z" fill="#0053F1"/>
<path d="M16.6906 52.1274C17.8534 50.9541 17.8534 49.0518 16.6906 47.8785C15.5278 46.7052 13.6426 46.7052 12.4799 47.8785C11.3171 49.0518 11.3171 50.9541 12.4799 52.1274C13.6426 53.3007 15.5278 53.3007 16.6906 52.1274Z" fill="#0053F1"/>
<path d="M25.0213 51.7694C25.9897 50.7922 25.9897 49.2078 25.0213 48.2306C24.0528 47.2534 22.4827 47.2534 21.5143 48.2306C20.5458 49.2078 20.5458 50.7922 21.5143 51.7694C22.4827 52.7466 24.0528 52.7466 25.0213 51.7694Z" fill="#0053F1"/>
<path d="M32.3558 51.4134C33.13 50.6323 33.1299 49.3658 32.3558 48.5847C31.5817 47.8035 30.3266 47.8035 29.5525 48.5847C28.7784 49.3658 28.7784 50.6323 29.5525 51.4134C30.3266 52.1945 31.5817 52.1945 32.3558 51.4134Z" fill="#0053F1"/>
<path d="M94.1873 53.5069C96.1067 53.5069 97.6627 51.9368 97.6627 50C97.6627 48.0632 96.1067 46.4932 94.1873 46.4932C92.2679 46.4932 90.7119 48.0632 90.7119 50C90.7119 51.9368 92.2679 53.5069 94.1873 53.5069Z" fill="#0053F1"/>
<path d="M86.6257 52.1244C87.7884 50.9511 87.7884 49.0489 86.6257 47.8756C85.4629 46.7023 83.5777 46.7023 82.4149 47.8756C81.2522 49.0489 81.2522 50.9511 82.4149 52.1244C83.5777 53.2977 85.4629 53.2977 86.6257 52.1244Z" fill="#0053F1"/>
<path d="M77.5891 51.7723C78.5576 50.7951 78.5576 49.2107 77.5891 48.2335C76.6207 47.2563 75.0506 47.2563 74.0821 48.2335C73.1137 49.2108 73.1137 50.7951 74.0821 51.7723C75.0506 52.7495 76.6207 52.7495 77.5891 51.7723Z" fill="#0053F1"/>
<path d="M69.5516 51.4105C70.3258 50.6293 70.3258 49.3629 69.5516 48.5817C68.7775 47.8006 67.5224 47.8006 66.7483 48.5817C65.9742 49.3629 65.9742 50.6293 66.7483 51.4104C67.5224 52.1916 68.7775 52.1916 69.5516 51.4105Z" fill="#0053F1"/>
<path d="M49.5543 62.5129C50.9237 62.5129 52.0339 61.3925 52.0339 60.0104C52.0339 58.6282 50.9237 57.5078 49.5543 57.5078C48.1849 57.5078 47.0747 58.6282 47.0747 60.0104C47.0747 61.3925 48.1849 62.5129 49.5543 62.5129Z" fill="#0053F1"/>
<path d="M49.5543 42.4924C50.9237 42.4924 52.0339 41.372 52.0339 39.9899C52.0339 38.6077 50.9237 37.4873 49.5543 37.4873C48.1849 37.4873 47.0747 38.6077 47.0747 39.9899C47.0747 41.372 48.1849 42.4924 49.5543 42.4924Z" fill="#0053F1"/>
<path d="M49.552 98.544C51.4714 98.544 53.0274 96.9739 53.0274 95.0371C53.0274 93.1003 51.4714 91.5303 49.552 91.5303C47.6326 91.5303 46.0767 93.1003 46.0767 95.0371C46.0767 96.9739 47.6326 98.544 49.552 98.544Z" fill="#0053F1"/>
<path d="M51.6599 87.4096C52.8226 86.2363 52.8226 84.334 51.6599 83.1607C50.4971 81.9874 48.6119 81.9874 47.4491 83.1607C46.2864 84.334 46.2864 86.2363 47.4491 87.4096C48.6119 88.5829 50.4971 88.5829 51.6599 87.4096Z" fill="#0053F1"/>
<path d="M51.3059 78.2928C52.2744 77.3156 52.2744 75.7313 51.306 74.7541C50.3375 73.7769 48.7674 73.7769 47.7989 74.7541C46.8305 75.7313 46.8305 77.3156 47.7989 78.2928C48.7674 79.27 50.3375 79.27 51.3059 78.2928Z" fill="#0053F1"/>
<path d="M50.9598 70.1829C51.734 69.4018 51.7339 68.1353 50.9598 67.3542C50.1857 66.5731 48.9306 66.5731 48.1565 67.3542C47.3824 68.1353 47.3824 69.4018 48.1565 70.1829C48.9306 70.964 50.1857 70.964 50.9598 70.1829Z" fill="#0053F1"/>
<path d="M49.552 8.46882C51.4714 8.46882 53.0274 6.89874 53.0274 4.96195C53.0274 3.02516 51.4714 1.45508 49.552 1.45508C47.6326 1.45508 46.0767 3.02516 46.0767 4.96195C46.0767 6.89874 47.6326 8.46882 49.552 8.46882Z" fill="#0053F1"/>
<path d="M51.6569 16.8412C52.8197 15.6679 52.8197 13.7656 51.6569 12.5924C50.4941 11.4191 48.6089 11.4191 47.4462 12.5924C46.2834 13.7657 46.2834 15.6679 47.4462 16.8412C48.6089 18.0145 50.4941 18.0145 51.6569 16.8412Z" fill="#0053F1"/>
<path d="M51.3059 25.2489C52.2744 24.2717 52.2744 22.6873 51.3059 21.7101C50.3375 20.7329 48.7674 20.7329 47.7989 21.7101C46.8305 22.6873 46.8305 24.2717 47.7989 25.2489C48.7674 26.2261 50.3375 26.2261 51.3059 25.2489Z" fill="#0053F1"/>
<path d="M50.9574 32.6487C51.7315 31.8676 51.7315 30.6011 50.9574 29.82C50.1833 29.0389 48.9282 29.0389 48.1541 29.82C47.38 30.6011 47.38 31.8676 48.1541 32.6487C48.9282 33.4299 50.1833 33.4299 50.9574 32.6487Z" fill="#0053F1"/>
<path d="M28.788 8.1025C30.504 7.23543 31.1984 5.12868 30.339 3.39696C29.4796 1.66525 27.3918 0.964314 25.6759 1.83139C23.9599 2.69846 23.2655 4.8052 24.1249 6.53692C24.9843 8.26864 27.0721 8.96957 28.788 8.1025Z" fill="#0053F1"/>
<path d="M34.207 14.2554C34.7261 12.6808 33.8822 10.9798 32.322 10.4561C30.7618 9.93242 29.0762 10.7843 28.5571 12.3589C28.038 13.9335 28.882 15.6345 30.4422 16.1582C32.0024 16.6819 33.6879 15.83 34.207 14.2554Z" fill="#0053F1"/>
<path d="M37.428 21.5536C37.8604 20.2422 37.1574 18.8255 35.858 18.3893C34.5585 17.9531 33.1546 18.6626 32.7223 19.9741C32.2899 21.2855 32.9929 22.7022 34.2923 23.1384C35.5918 23.5746 36.9957 22.8651 37.428 21.5536Z" fill="#0053F1"/>
<path d="M40.2041 27.9456C40.5497 26.8973 39.9878 25.7648 38.9491 25.4162C37.9104 25.0675 36.7882 25.6347 36.4426 26.683C36.097 27.7313 36.6589 28.8637 37.6976 29.2124C38.7363 29.561 39.8585 28.9939 40.2041 27.9456Z" fill="#0053F1"/>
<path d="M42.5452 33.4489C42.804 32.6637 42.3832 31.8155 41.6052 31.5544C40.8273 31.2933 39.9868 31.7181 39.7279 32.5032C39.4691 33.2883 39.8899 34.1365 40.6679 34.3976C41.4459 34.6588 42.2864 34.234 42.5452 33.4489Z" fill="#0053F1"/>
<path d="M74.9962 6.52979C75.8556 4.79807 75.1612 2.69132 73.4452 1.82425C71.7293 0.957171 69.6415 1.65811 68.7821 3.38983C67.9227 5.12156 68.6171 7.22829 70.3331 8.09537C72.049 8.96245 74.1368 8.26152 74.9962 6.52979Z" fill="#0053F1"/>
<path d="M68.6814 16.1611C70.2415 15.6373 71.0855 13.9363 70.5664 12.3617C70.0474 10.7872 68.3617 9.93526 66.8015 10.459C65.2413 10.9827 64.3974 12.6837 64.9165 14.2583C65.4356 15.8329 67.1212 16.6848 68.6814 16.1611Z" fill="#0053F1"/>
<path d="M65.2285 22.7431C66.5295 22.3009 67.2289 20.8781 66.7906 19.5651C66.3523 18.2521 64.9423 17.5462 63.6413 17.9884C62.3403 18.4306 61.641 19.8535 62.0793 21.1664C62.5176 22.4794 63.9275 23.1853 65.2285 22.7431Z" fill="#0053F1"/>
<path d="M61.4218 29.2098C62.4605 28.8611 63.0223 27.7287 62.6768 26.6804C62.3312 25.6321 61.209 25.065 60.1703 25.4136C59.1316 25.7623 58.5697 26.8947 58.9153 27.943C59.2609 28.9913 60.3831 29.5585 61.4218 29.2098Z" fill="#0053F1"/>
<path d="M58.448 34.4026C59.226 34.1415 59.6468 33.2933 59.388 32.5082C59.1291 31.723 58.2886 31.2983 57.5107 31.5594C56.7327 31.8205 56.3119 32.6687 56.5707 33.4538C56.8296 34.239 57.67 34.6638 58.448 34.4026Z" fill="#0053F1"/>
<path d="M30.3365 96.6011C31.1959 94.8694 30.5015 92.7626 28.7856 91.8955C27.0696 91.0285 24.9819 91.7294 24.1225 93.4611C23.2631 95.1928 23.9575 97.2996 25.6734 98.1667C27.3894 99.0337 29.4771 98.3328 30.3365 96.6011Z" fill="#0053F1"/>
<path d="M32.3166 89.537C33.8768 89.0133 34.7208 87.3123 34.2017 85.7377C33.6826 84.1631 31.997 83.3112 30.4368 83.8349C28.8766 84.3587 28.0326 86.0597 28.5517 87.6342C29.0708 89.2088 30.7564 90.0607 32.3166 89.537Z" fill="#0053F1"/>
<path d="M35.8575 81.6049C37.1569 81.1687 37.8599 79.7519 37.4275 78.4405C36.9952 77.1291 35.5913 76.4195 34.2918 76.8557C32.9924 77.2919 32.2894 78.7086 32.7218 80.0201C33.1541 81.3315 34.558 82.0411 35.8575 81.6049Z" fill="#0053F1"/>
<path d="M38.9564 74.5809C39.9951 74.2322 40.557 73.0998 40.2114 72.0515C39.8658 71.0032 38.7437 70.436 37.705 70.7847C36.6663 71.1334 36.1044 72.2658 36.45 73.3141C36.7955 74.3624 37.9177 74.9296 38.9564 74.5809Z" fill="#0053F1"/>
<path d="M41.6082 68.4358C42.3861 68.1747 42.807 67.3265 42.5481 66.5414C42.2893 65.7563 41.4488 65.3315 40.6708 65.5926C39.8929 65.8537 39.472 66.7019 39.7309 67.487C39.9897 68.2722 40.8302 68.697 41.6082 68.4358Z" fill="#0053F1"/>
<path d="M73.4492 98.1611C75.1651 97.294 75.8595 95.1873 75.0001 93.4556C74.1407 91.7238 72.053 91.0229 70.337 91.89C68.621 92.7571 67.9267 94.8638 68.7861 96.5955C69.6455 98.3273 71.7332 99.0282 73.4492 98.1611Z" fill="#0053F1"/>
<path d="M70.5723 87.6304C71.0914 86.0559 70.2474 84.3548 68.6872 83.8311C67.127 83.3074 65.4414 84.1593 64.9223 85.7339C64.4032 87.3085 65.2472 89.0095 66.8074 89.5332C68.3676 90.0569 70.0532 89.205 70.5723 87.6304Z" fill="#0053F1"/>
<path d="M66.4006 80.0234C66.833 78.7119 66.1301 77.2952 64.8306 76.859C63.5312 76.4228 62.1273 77.1324 61.6949 78.4438C61.2626 79.7552 61.9655 81.172 63.265 81.6081C64.5644 82.0443 65.9683 81.3348 66.4006 80.0234Z" fill="#0053F1"/>
<path d="M62.6773 73.3069C63.0228 72.2586 62.461 71.1262 61.4222 70.7775C60.3835 70.4289 59.2614 70.996 58.9158 72.0443C58.5702 73.0926 59.1321 74.225 60.1708 74.5737C61.2095 74.9223 62.3317 74.3552 62.6773 73.3069Z" fill="#0053F1"/>
<path d="M59.3933 67.4947C59.6522 66.7096 59.2313 65.8614 58.4534 65.6003C57.6754 65.3392 56.8349 65.7639 56.5761 66.5491C56.3172 67.3342 56.7381 68.1824 57.516 68.4435C58.294 68.7047 59.1345 68.2799 59.3933 67.4947Z" fill="#0053F1"/>
<path d="M6.49006 75.6601C8.20661 74.7942 8.90053 72.6889 8.03998 70.9578C7.17942 69.2266 5.09026 68.5252 3.37371 69.3911C1.65716 70.257 0.963246 72.3624 1.8238 74.0935C2.68436 75.8246 4.77351 76.526 6.49006 75.6601Z" fill="#0053F1"/>
<path d="M16.022 69.2965C16.5411 67.7219 15.6971 66.0209 14.1369 65.4972C12.5767 64.9734 10.8911 65.8253 10.372 67.3999C9.85294 68.9745 10.6969 70.6755 12.2571 71.1992C13.8173 71.7229 15.5029 70.871 16.022 69.2965Z" fill="#0053F1"/>
<path d="M22.9407 65.4033C23.373 64.0918 22.6701 62.6751 21.3707 62.2389C20.0712 61.8027 18.6673 62.5122 18.235 63.8237C17.8026 65.1351 18.5056 66.5518 19.805 66.988C21.1045 67.4242 22.5084 66.7147 22.9407 65.4033Z" fill="#0053F1"/>
<path d="M28.9605 61.9592C29.3061 60.911 28.7442 59.7785 27.7055 59.4298C26.6668 59.0812 25.5446 59.6483 25.199 60.6966C24.8534 61.7449 25.4153 62.8774 26.454 63.226C27.4927 63.5747 28.6149 63.0075 28.9605 61.9592Z" fill="#0053F1"/>
<path d="M34.1111 58.9655C34.3699 58.1803 33.9491 57.3321 33.1711 57.071C32.3932 56.8099 31.5527 57.2346 31.2939 58.0198C31.035 58.8049 31.4559 59.6531 32.2338 59.9142C33.0118 60.1754 33.8523 59.7506 34.1111 58.9655Z" fill="#0053F1"/>
<path d="M8.04094 29.0364C8.9015 27.3052 8.20758 25.1999 6.49103 24.334C4.77448 23.4681 2.68533 24.1695 1.82477 25.9006C0.964218 27.6318 1.65814 29.7371 3.37469 30.603C5.09124 31.469 7.18039 30.7675 8.04094 29.0364Z" fill="#0053F1"/>
<path d="M14.1379 34.5058C15.6981 33.9821 16.5421 32.2811 16.023 30.7065C15.5039 29.1319 13.8183 28.28 12.2581 28.8037C10.6979 29.3274 9.85391 31.0284 10.373 32.603C10.8921 34.1776 12.5777 35.0295 14.1379 34.5058Z" fill="#0053F1"/>
<path d="M21.3692 37.7601C22.6687 37.324 23.3716 35.9072 22.9392 34.5958C22.5069 33.2843 21.103 32.5748 19.8035 33.011C18.5041 33.4472 17.8012 34.8639 18.2335 36.1754C18.6658 37.4868 20.0697 38.1963 21.3692 37.7601Z" fill="#0053F1"/>
<path d="M27.7084 40.5604C28.7471 40.2117 29.309 39.0793 28.9634 38.031C28.6178 36.9827 27.4956 36.4155 26.4569 36.7642C25.4182 37.1129 24.8563 38.2453 25.2019 39.2936C25.5475 40.3419 26.6697 40.9091 27.7084 40.5604Z" fill="#0053F1"/>
<path d="M33.1677 42.9183C33.9457 42.6571 34.3665 41.8089 34.1077 41.0238C33.8488 40.2387 33.0084 39.8139 32.2304 40.075C31.4524 40.3362 31.0316 41.1843 31.2904 41.9695C31.5493 42.7546 32.3898 43.1794 33.1677 42.9183Z" fill="#0053F1"/>
<path d="M97.297 74.0923C98.1564 72.3606 97.462 70.2538 95.746 69.3867C94.0301 68.5197 91.9423 69.2206 91.0829 70.9523C90.2235 72.6841 90.9179 74.7908 92.6339 75.6579C94.3499 76.525 96.4376 75.824 97.297 74.0923Z" fill="#0053F1"/>
<path d="M86.86 71.1913C88.4202 70.6676 89.2642 68.9666 88.7451 67.392C88.226 65.8174 86.5404 64.9655 84.9802 65.4892C83.4201 66.013 82.5761 67.714 83.0952 69.2885C83.6143 70.8631 85.2999 71.715 86.86 71.1913Z" fill="#0053F1"/>
<path d="M79.3218 66.9848C80.6213 66.5486 81.3242 65.1318 80.8919 63.8204C80.4595 62.5089 79.0556 61.7994 77.7562 62.2356C76.4567 62.6718 75.7538 64.0885 76.1861 65.4C76.6185 66.7114 78.0224 67.4209 79.3218 66.9848Z" fill="#0053F1"/>
<path d="M72.662 63.2235C73.7007 62.8748 74.2626 61.7424 73.917 60.6941C73.5714 59.6458 72.4492 59.0786 71.4105 59.4273C70.3718 59.7759 69.8099 60.9084 70.1555 61.9567C70.5011 63.005 71.6233 63.5721 72.662 63.2235Z" fill="#0053F1"/>
<path d="M66.8962 59.9212C67.6742 59.66 68.095 58.8119 67.8362 58.0267C67.5774 57.2416 66.7369 56.8168 65.9589 57.078C65.1809 57.3391 64.7601 58.1873 65.019 58.9724C65.2778 59.7575 66.1183 60.1823 66.8962 59.9212Z" fill="#0053F1"/>
<path d="M95.7534 30.6054C97.4693 29.7384 98.1637 27.6316 97.3043 25.8999C96.4449 24.1682 94.3572 23.4672 92.6412 24.3343C90.9252 25.2014 90.2309 27.3081 91.0903 29.0399C91.9497 30.7716 94.0374 31.4725 95.7534 30.6054Z" fill="#0053F1"/>
<path d="M88.7481 32.5972C89.2672 31.0227 88.4232 29.3216 86.863 28.7979C85.3028 28.2742 83.6172 29.1261 83.0981 30.7007C82.579 32.2753 83.423 33.9763 84.9832 34.5C86.5434 35.0237 88.229 34.1718 88.7481 32.5972Z" fill="#0053F1"/>
<path d="M80.8948 36.165C81.3271 34.8535 80.6242 33.4368 79.3248 33.0006C78.0253 32.5644 76.6214 33.274 76.1891 34.5854C75.7567 35.8968 76.4597 37.3136 77.7591 37.7497C79.0586 38.1859 80.4625 37.4764 80.8948 36.165Z" fill="#0053F1"/>
<path d="M73.9214 39.2932C74.267 38.2449 73.7051 37.1125 72.6664 36.7638C71.6277 36.4152 70.5055 36.9823 70.1599 38.0306C69.8143 39.0789 70.3762 40.2114 71.4149 40.56C72.4536 40.9087 73.5758 40.3415 73.9214 39.2932Z" fill="#0053F1"/>
<path d="M67.8387 41.9703C68.0975 41.1852 67.6767 40.337 66.8987 40.0759C66.1207 39.8147 65.2802 40.2395 65.0214 41.0247C64.7626 41.8098 65.1834 42.658 65.9614 42.9191C66.7393 43.1803 67.5798 42.7555 67.8387 41.9703Z" fill="#0053F1"/>
<path d="M150.331 50.4697L135.891 65.2874V91.4655H126.102V9.96777H135.891V51.9515L176.519 9.96777H189.368L157.184 43.1843L189.735 91.4655H177.988L150.331 50.4697Z" fill="#0053F1"/>
<path d="M247.74 64.2987H201.606C202.149 70.5551 204.208 75.412 207.781 78.8695C211.355 82.327 215.945 84.0557 221.552 84.0557C226.039 84.0557 229.773 83.2736 232.753 81.7095C235.569 80.3249 237.74 77.8893 238.807 74.9181L247.006 79.2399C244.73 83.429 241.339 86.8932 237.216 89.2419C233.137 91.5469 227.916 92.6994 221.552 92.6994C212.306 92.6994 205.067 89.8593 199.835 84.1792C194.603 78.499 191.973 70.6374 191.946 60.5942C191.946 50.5511 194.454 42.6894 199.468 37.0093C204.483 31.3291 211.599 28.489 220.818 28.489C226.01 28.3528 231.138 29.6783 235.625 32.317C239.7 34.7752 242.975 38.3801 245.048 42.6894C247.218 47.2742 248.307 52.3035 248.23 57.3837C248.228 59.6975 248.065 62.0082 247.74 64.2987ZM207.765 41.9485C204.464 45.159 202.446 49.6867 201.712 55.5315H238.791C238.138 49.769 236.262 45.2633 233.161 42.0144C230.061 38.7654 225.947 37.1382 220.818 37.1327C215.434 37.1327 211.088 38.738 207.781 41.9485H207.765Z" fill="#0053F1"/>
<path d="M310.036 34.5407C314.523 38.5744 316.767 44.3781 316.767 51.9516V91.4656H306.977V55.4091C306.977 48.988 305.617 44.3232 302.898 41.4145C300.178 38.5058 296.518 37.0789 291.917 37.1338C288.732 37.1176 285.587 37.8593 282.739 39.2989C279.746 40.8768 277.295 43.33 275.707 46.3373C273.874 49.5917 272.957 53.6858 272.957 58.6196V91.4656H263.167V29.7249H271.693L272.305 39.3565C274.194 35.7869 277.148 32.9071 280.748 31.1244C284.545 29.3128 288.705 28.4112 292.904 28.4901C299.833 28.4901 305.544 30.507 310.036 34.5407Z" fill="#0053F1"/>
<path d="M387.235 64.2995H341.109C341.653 70.5559 343.712 75.4129 347.285 78.8703C350.858 82.3278 355.448 84.0566 361.056 84.0566C365.543 84.0566 369.274 83.2745 372.249 81.7104C375.068 80.3282 377.242 77.8921 378.31 74.9189L386.469 79.2408C384.193 83.4302 380.802 86.8945 376.679 89.2428C372.6 91.5478 367.378 92.7003 361.015 92.7003C351.769 92.7003 344.53 89.8602 339.298 84.18C334.066 78.4999 331.434 70.6383 331.401 60.5951C331.401 50.552 333.911 42.6903 338.931 37.0102C343.951 31.33 351.078 28.49 360.313 28.49C365.506 28.3541 370.633 29.6796 375.121 32.3179C379.195 34.7765 382.47 38.3813 384.543 42.6903C386.713 47.2751 387.802 52.3044 387.725 57.3846C387.724 59.6983 387.56 62.0091 387.235 64.2995ZM347.26 41.9494C343.954 45.1599 341.933 49.6876 341.199 55.5324H378.278C377.625 49.7699 375.749 45.2642 372.649 42.0153C369.549 38.7663 365.437 37.1391 360.313 37.1336C354.935 37.1336 350.592 38.7389 347.285 41.9494H347.26Z" fill="#0053F1"/>
<path d="M438.266 87.1437C434.187 90.8481 428.925 92.7003 422.48 92.7003C417.503 92.7003 413.446 91.3283 410.308 88.5843C407.17 85.8403 405.562 81.6968 405.486 76.1538V38.245H393.249V29.7248H405.486V14.907L415.276 12.1904V29.7248H437.915V38.245H415.276V74.4662C415.276 77.4298 416.111 79.6717 417.781 81.1919C419.636 82.7836 422.022 83.6021 424.454 83.4804C426.408 83.4698 428.339 83.0552 430.128 82.2623C431.917 81.4695 433.526 80.3151 434.856 78.8704L438.266 87.1437Z" fill="#0053F1"/>
<path d="M448 15.8372C447.32 15.1264 446.79 14.2831 446.444 13.3589C446.097 12.4346 445.941 11.4488 445.985 10.4616C445.985 8.49666 446.759 6.61218 448.136 5.22275C449.513 3.83331 451.38 3.05273 453.328 3.05273C455.275 3.05273 457.142 3.83331 458.519 5.22275C459.896 6.61218 460.67 8.49666 460.67 10.4616C460.636 11.9272 460.183 13.3517 459.366 14.5634C458.548 15.775 457.4 16.722 456.061 17.2903C454.721 17.8585 453.248 18.0237 451.818 17.7658C450.387 17.508 449.062 16.8382 448 15.8372ZM458.214 91.4654H448.425V29.7247H458.214V91.4654Z" fill="#0053F1"/>
<path d="M518.608 32.7453C522.968 35.7783 526.385 39.9974 528.463 44.9124L519.163 49.3577C516.547 41.2079 511.119 37.133 502.879 37.133C496.761 37.133 491.969 39.213 488.505 43.373C485.04 47.5329 483.308 53.2734 483.308 60.5945C483.308 67.9211 485.043 73.6616 488.513 77.8161C491.983 81.9705 496.771 84.0505 502.879 84.056C507.611 84.056 511.418 82.9584 514.301 80.7632C517.298 78.4348 519.333 75.0675 520.011 71.3127L529.067 74.5232C527.234 79.891 523.818 84.5647 519.277 87.9169C514.872 91.089 509.487 92.675 503.124 92.675C493.878 92.675 486.639 89.8349 481.407 84.1548C476.175 78.4746 473.542 70.613 473.51 60.5698C473.51 50.5267 476.142 42.665 481.407 36.9849C486.672 31.3047 493.911 28.4729 503.124 28.4893C509.243 28.4893 514.404 29.908 518.608 32.7453Z" fill="#0053F1"/>
</svg>
