<svg width="142" height="44" viewBox="0 0 142 44" fill="none" xmlns="http://www.w3.org/2000/svg">
<g clip-path="url(#clip0)">
<path d="M57.2933 17.8643H54.9253V33.23H57.2933V17.8643Z" fill="#0053F1"/>
<path d="M67.9014 11.355H48.6001V13.7083H67.9014V11.355Z" fill="#0053F1"/>
<path d="M61.5706 17.8643H59.2026V33.23H61.5706V17.8643Z" fill="#0053F1"/>
<path d="M126.989 33.2456H129.379V23.9911L126.989 21.3516V33.2456Z" fill="#0053F1"/>
<path d="M139.571 11.3553V28.5126L122.669 9.84473V33.2458H125.053V16.0832L141.965 34.7564V11.3553H139.571Z" fill="#0053F1"/>
<path d="M107.197 11.3447C101.122 11.3447 96.1836 16.2529 96.1836 22.29C96.1836 28.3271 101.122 33.2352 107.197 33.2352C113.272 33.2352 118.21 28.3271 118.21 22.29C118.21 16.2582 113.272 11.3447 107.197 11.3447ZM107.197 30.8765C102.434 30.8765 98.5569 27.0285 98.5569 22.29C98.5569 17.5514 102.429 13.7034 107.197 13.7034C111.96 13.7034 115.837 17.5514 115.837 22.29C115.837 27.0232 111.96 30.8765 107.197 30.8765Z" fill="#0053F1"/>
<path d="M107.197 20.7153C106.323 20.7153 105.613 21.4203 105.613 22.2895C105.613 23.1588 106.323 23.8637 107.197 23.8637C108.072 23.8637 108.781 23.1588 108.781 22.2895C108.781 21.4203 108.072 20.7153 107.197 20.7153Z" fill="#0053F1"/>
<path d="M92.0401 18.0706C92.0401 14.371 89.0321 11.3604 85.3361 11.3604H72.7388V33.2508H75.0908V13.7349H85.3361C87.7094 13.7349 89.6401 15.6801 89.6401 18.0706C89.6401 20.4505 87.7361 22.3851 85.3841 22.4116L77.0268 22.4063V33.2508H79.3788V24.7808H84.8881L89.3894 33.2455H92.1254L87.4268 24.4469C90.1414 23.5512 92.0401 20.9434 92.0401 18.0706Z" fill="#0053F1"/>
<path d="M32.3172 7.01934L0.221191 1.15186L17.1119 43.3851L40.6425 14.8904L32.3172 7.01934ZM31.8052 9.60592L36.7172 14.2437L23.2879 16.6607L31.8052 9.60592ZM20.3705 16.1784L6.21586 4.51228L29.3465 8.74196L20.3705 16.1784ZM19.3572 18.2455L17.0532 37.2048L4.61053 6.08118L19.3572 18.2455ZM21.4905 19.2473L36.3599 16.5706L19.3092 37.2208L21.4905 19.2473Z" fill="#0053F1"/>
</g>
<defs>
<clipPath id="clip0">
<rect width="142" height="43" fill="white" transform="translate(0 0.5)"/>
</clipPath>
</defs>
</svg>
