<svg width="142" height="43" viewBox="0 0 142 43" fill="none" xmlns="http://www.w3.org/2000/svg">
<path d="M57.2933 17.364H54.9253V32.7297H57.2933V17.364Z" fill="#0053F1"/>
<path d="M67.9014 10.8552H48.6001V13.2086H67.9014V10.8552Z" fill="#0053F1"/>
<path d="M61.5706 17.364H59.2026V32.7297H61.5706V17.364Z" fill="#0053F1"/>
<path d="M126.989 32.7455H129.379V23.4911L126.989 20.8515V32.7455Z" fill="#0053F1"/>
<path d="M139.571 10.8551V28.0123L122.669 9.34448V32.7455H125.053V15.583L141.965 34.2561V10.8551H139.571Z" fill="#0053F1"/>
<path d="M107.197 10.8445C101.123 10.8445 96.1838 15.7527 96.1838 21.7898C96.1838 27.8269 101.123 32.735 107.197 32.735C113.272 32.735 118.211 27.8269 118.211 21.7898C118.211 15.758 113.272 10.8445 107.197 10.8445ZM107.197 30.3763C102.435 30.3763 98.5572 26.5283 98.5572 21.7898C98.5572 17.0513 102.429 13.2032 107.197 13.2032C111.96 13.2032 115.837 17.0513 115.837 21.7898C115.837 26.523 111.96 30.3763 107.197 30.3763Z" fill="#0053F1"/>
<path d="M107.198 20.2155C106.323 20.2155 105.614 20.9205 105.614 21.7897C105.614 22.659 106.323 23.3639 107.198 23.3639C108.072 23.3639 108.782 22.659 108.782 21.7897C108.782 20.9205 108.072 20.2155 107.198 20.2155Z" fill="#0053F1"/>
<path d="M92.0401 17.5706C92.0401 13.871 89.0321 10.8604 85.3361 10.8604H72.7388V32.7508H75.0908V13.2349H85.3361C87.7094 13.2349 89.6401 15.1801 89.6401 17.5706C89.6401 19.9505 87.7361 21.8851 85.3841 21.9116L77.0268 21.9063V32.7508H79.3788V24.2808H84.8881L89.3894 32.7455H92.1254L87.4268 23.9469C90.1414 23.0512 92.0401 20.4434 92.0401 17.5706Z" fill="#0053F1"/>
<path d="M32.3172 6.51953L0.221191 0.652039L17.1119 42.8852L40.6425 14.3906L32.3172 6.51953ZM31.8052 9.1061L36.7172 13.7439L23.2879 16.1609L31.8052 9.1061ZM20.3705 15.6785L6.21586 4.01246L29.3465 8.24214L20.3705 15.6785ZM19.3572 17.7457L17.0532 36.705L4.61053 5.58137L19.3572 17.7457ZM21.4905 18.7474L36.3599 16.0708L19.3092 36.7209L21.4905 18.7474Z" fill="#0053F1"/>
</svg>
