<svg width="112" height="48" viewBox="0 0 112 48" fill="none" xmlns="http://www.w3.org/2000/svg">
<g clip-path="url(#clip0)">
<path d="M46.1901 37.8639C45.2899 37.8639 44.5812 38.1519 44.064 38.728C43.5467 39.3042 43.2882 40.0931 43.2882 41.0948C43.2882 42.1193 43.532 42.9148 44.0198 43.4811C44.5076 44.0474 45.2048 44.3306 46.1116 44.3306C46.7138 44.3306 47.2671 44.2536 47.7712 44.0998V44.5417C47.2965 44.7086 46.704 44.7922 45.9937 44.7922C44.9854 44.7922 44.1917 44.4665 43.6122 43.815C43.0328 43.1636 42.7432 42.2536 42.7432 41.085C42.7432 40.355 42.8806 39.7117 43.1555 39.1552C43.4338 38.5988 43.8316 38.17 44.3487 37.8688C44.8692 37.5644 45.4732 37.4121 46.1607 37.4121C46.8612 37.4121 47.4881 37.5431 48.0412 37.805L47.84 38.2567C47.3162 37.9948 46.7662 37.8639 46.1901 37.8639Z" fill="#0053F1"/>
<path d="M52.8287 42.1603H49.912L48.9104 44.694H48.3555L51.2427 37.4858H51.5619L54.3901 44.694H53.8255L52.8287 42.1603ZM50.0937 41.7086H52.6617L51.6846 39.1209C51.6028 38.918 51.5046 38.6364 51.39 38.2764C51.3017 38.5906 51.2051 38.8754 51.1003 39.1307L50.0937 41.7086Z" fill="#0053F1"/>
<path d="M59.7321 39.5775C59.7321 40.2714 59.4964 40.8033 59.0251 41.1732C58.5537 41.5431 57.886 41.7281 57.0217 41.7281H55.912V44.6939H55.4111V37.5151H57.1691C58.8778 37.5151 59.7321 38.2026 59.7321 39.5775ZM55.912 41.296H56.899C57.7075 41.296 58.2919 41.1634 58.6519 40.8983C59.012 40.6299 59.192 40.1961 59.192 39.5971C59.192 39.0438 59.0218 38.6347 58.6814 38.3695C58.341 38.1011 57.8139 37.9669 57.1002 37.9669H55.912V41.296Z" fill="#0053F1"/>
<path d="M61.2939 44.6939V37.5151H61.7948V44.6939H61.2939Z" fill="#0053F1"/>
<path d="M65.6984 44.6939H65.1927V37.9865H62.8604V37.5151H68.0308V37.9865H65.6984V44.6939Z" fill="#0053F1"/>
<path d="M72.5581 42.1603H69.6415L68.6398 44.694H68.085L70.9721 37.4858H71.2913L74.1196 44.694H73.5549L72.5581 42.1603ZM69.8232 41.7086H72.3912L71.4141 39.1209C71.3322 38.918 71.234 38.6364 71.1195 38.2764C71.031 38.5906 70.9345 38.8754 70.8298 39.1307L69.8232 41.7086Z" fill="#0053F1"/>
<path d="M75.1406 44.6939V37.5151H75.6414V44.2225H79.0638V44.6939H75.1406Z" fill="#0053F1"/>
<path d="M41.2676 33.3082V22.124H49.3545V23.4439H42.7477V26.8692H48.9348V28.1814H42.7477V31.9884H49.6138V33.3082H41.2676Z" fill="#0053F1"/>
<path d="M51.6436 33.3082V22.124H53.1617L59.0361 30.9051V22.124H60.4551V33.3082H58.9369L53.0625 24.5195V33.3082H51.6436Z" fill="#0053F1"/>
<path d="M62.9502 33.3082V22.124H66.8028C67.6726 22.124 68.3363 22.1774 68.794 22.2843C69.4349 22.4317 69.9816 22.6987 70.4343 23.0853C71.0243 23.5837 71.4642 24.222 71.7541 25.0001C72.0491 25.7732 72.1966 26.6582 72.1966 27.6551C72.1966 28.5045 72.0974 29.2572 71.8991 29.9132C71.7007 30.5694 71.4464 31.1136 71.1362 31.5459C70.8259 31.9732 70.4852 32.3113 70.1139 32.5606C69.7477 32.8047 69.3026 32.9903 68.7788 33.1175C68.26 33.2446 67.6624 33.3082 66.9859 33.3082H62.9502ZM64.4302 31.9884H66.8181C67.5556 31.9884 68.1328 31.9197 68.5499 31.7824C68.972 31.6451 69.3077 31.4518 69.5569 31.2026C69.9079 30.8516 70.18 30.3812 70.3732 29.7912C70.5716 29.1961 70.6708 28.4765 70.6708 27.6322C70.6708 26.4624 70.4775 25.5647 70.091 24.9391C69.7095 24.3084 69.2441 23.8863 68.6949 23.6727C68.2981 23.5202 67.6598 23.4439 66.78 23.4439H64.4302V31.9884Z" fill="#0053F1"/>
<path d="M74.2705 33.3082V22.124H82.3573V23.4439H75.7506V26.8692H81.9377V28.1814H75.7506V31.9884H82.6167V33.3082H74.2705Z" fill="#0053F1"/>
<path d="M87.5073 33.3082V23.4439H83.8223V22.124H92.6873V23.4439H88.9874V33.3082H87.5073Z" fill="#0053F1"/>
<path d="M97.059 33.3082V23.4439H93.374V22.124H102.239V23.4439H98.5392V33.3082H97.059Z" fill="#0053F1"/>
<path d="M101.378 33.3082L105.673 22.124H107.268L111.845 33.3082H110.159L108.854 29.9209H104.178L102.95 33.3082H101.378ZM104.605 28.7155H108.396L107.23 25.6181C106.873 24.6772 106.609 23.9041 106.436 23.2988C106.294 24.016 106.093 24.728 105.833 25.4351L104.605 28.7155Z" fill="#0053F1"/>
<path d="M4.42639 0.776855L0.686523 2.97922L26.4916 45.0735L45.4402 11.4147L26.4916 40.6687L4.42639 0.776855Z" fill="#0053F1"/>
</g>
<defs>
<clipPath id="clip0">
<rect width="111.282" height="46.5405" fill="white" transform="translate(0.638672 0.729492)"/>
</clipPath>
</defs>
</svg>
