<svg width="200" height="84" viewBox="0 0 200 84" fill="none" xmlns="http://www.w3.org/2000/svg">
<path fill-rule="evenodd" clip-rule="evenodd" d="M141.03 48.6501C141.03 48.7698 140.92 48.8297 140.698 48.8297C140.6 48.8297 140.538 48.7855 140.514 48.6973C140.249 47.8089 139.871 47.1787 139.375 46.8101C138.883 46.4415 138.154 46.2587 137.185 46.2587H136.315C136.013 46.2587 135.807 46.3091 135.696 46.4099C135.586 46.5108 135.53 46.6998 135.53 46.977V56.5709C135.53 57.0057 135.586 57.3112 135.693 57.4908C135.801 57.6704 135.992 57.8122 136.265 57.9162C136.539 58.0202 136.93 58.1053 137.441 58.1682C137.539 58.1809 137.588 58.269 137.588 58.4266C137.588 58.6062 137.539 58.6976 137.441 58.6976C137.028 58.6976 136.536 58.6787 135.964 58.6409C135.419 58.603 134.964 58.5841 134.598 58.5841C134.22 58.5841 133.755 58.603 133.205 58.6409C132.632 58.6787 132.14 58.6976 131.728 58.6976C131.63 58.6976 131.58 58.6062 131.58 58.4266C131.58 58.269 131.63 58.1809 131.728 58.1682C132.472 58.0801 132.98 57.9383 133.248 57.7429C133.515 57.5476 133.648 57.1569 133.648 56.5709V46.977C133.648 46.6998 133.592 46.5108 133.481 46.4099C133.371 46.3091 133.161 46.2587 132.854 46.2587H132.134C131.267 46.2587 130.479 46.4824 129.771 46.933C129.064 47.3835 128.602 47.9695 128.387 48.6879C128.356 48.7825 128.289 48.8297 128.184 48.8297C127.975 48.8297 127.87 48.7604 127.87 48.6218C128.215 47.6702 128.541 46.5926 128.849 45.3892C129.688 45.5655 131.605 45.6538 134.604 45.6538C137.68 45.6538 139.637 45.5655 140.477 45.3892C140.563 46.2083 140.747 47.2953 141.03 48.6501V48.6501ZM94.6419 24.472C94.6419 24.5476 94.6205 24.6168 94.5746 24.6799C94.5285 24.7428 94.4765 24.7745 94.4213 24.7745C93.9679 24.8185 93.5972 24.9698 93.3093 25.225C93.0213 25.4801 92.7242 25.9654 92.4179 26.6869L87.7306 37.5535C87.7 37.6543 87.6143 37.7048 87.4733 37.7048C87.363 37.7048 87.2773 37.6543 87.216 37.5535L84.5875 31.8918L81.5731 37.5535C81.5117 37.6543 81.4228 37.7048 81.3126 37.7048C81.1747 37.7048 81.0828 37.6543 81.0399 37.5535L76.4416 26.6869C76.1537 26.0095 75.8504 25.54 75.5319 25.2723C75.2131 25.0045 74.772 24.8374 74.2022 24.7745C74.1531 24.7745 74.1073 24.7461 74.0643 24.6925C74.0214 24.6389 74 24.5791 74 24.5098C74 24.3333 74.0491 24.2452 74.1471 24.2452C74.5575 24.2452 74.9865 24.2641 75.4337 24.3018C75.8504 24.3396 76.2425 24.3585 76.6102 24.3585C76.9839 24.3585 77.425 24.3396 77.9335 24.3018C78.4666 24.2641 78.9385 24.2452 79.3489 24.2452C79.4469 24.2452 79.4959 24.3333 79.4959 24.5098C79.4959 24.6862 79.4654 24.7745 79.4041 24.7745C78.9935 24.806 78.6688 24.9131 78.4329 25.0958C78.1971 25.2785 78.0806 25.5179 78.0806 25.8142C78.0806 25.9654 78.1297 26.1544 78.2276 26.3812L81.9775 35.2473L84.1831 31.019L82.1704 26.6869C81.8089 25.9087 81.5117 25.4109 81.279 25.1872C81.0461 24.9635 80.6938 24.8248 80.2221 24.7745C80.1791 24.7745 80.1392 24.7461 80.0994 24.6925C80.0596 24.6389 80.0382 24.5791 80.0382 24.5098C80.0382 24.3333 80.081 24.2452 80.1669 24.2452C80.5773 24.2452 80.9542 24.2641 81.2972 24.3018C81.6282 24.3396 81.9805 24.3585 82.3541 24.3585C82.7218 24.3585 83.1109 24.3396 83.5214 24.3018C83.9442 24.2641 84.3608 24.2452 84.7713 24.2452C84.8694 24.2452 84.9183 24.3333 84.9183 24.5098C84.9183 24.6862 84.8877 24.7745 84.8264 24.7745C84.0054 24.8312 83.5949 25.0706 83.5949 25.4927C83.5949 25.6818 83.6899 25.9749 83.8799 26.375L85.2124 29.157L86.5359 26.6082C86.7197 26.249 86.8116 25.9465 86.8116 25.7007C86.8116 25.121 86.4011 24.8122 85.58 24.7745C85.5065 24.7745 85.4697 24.6862 85.4697 24.5098C85.4697 24.4468 85.4881 24.3869 85.5249 24.3302C85.5616 24.2735 85.5984 24.2452 85.6352 24.2452C85.9294 24.2452 86.2907 24.2641 86.7197 24.3018C87.1302 24.3396 87.4672 24.3585 87.7306 24.3585C87.9206 24.3585 88.1993 24.3428 88.5669 24.3113C89.0327 24.2672 89.4217 24.2452 89.7341 24.2452C89.8077 24.2452 89.8444 24.3207 89.8444 24.472C89.8444 24.6736 89.7771 24.7745 89.6422 24.7745C89.1644 24.8248 88.7814 24.9603 88.4904 25.1808C88.1993 25.4013 87.8349 25.9023 87.3998 26.6869L85.6321 30.0392L88.0217 35.0582L91.5539 26.6112C91.6764 26.3024 91.7377 26.0158 91.7377 25.7574C91.7377 25.1399 91.3272 24.8122 90.5062 24.7745C90.4326 24.7745 90.3958 24.6862 90.3958 24.5098C90.3958 24.3333 90.451 24.2452 90.5613 24.2452C90.8616 24.2452 91.2169 24.2641 91.6274 24.3018C92.0073 24.3396 92.3259 24.3585 92.5832 24.3585C92.8528 24.3585 93.1653 24.3396 93.5207 24.3018C93.8882 24.2641 94.2191 24.2452 94.5132 24.2452C94.5991 24.2452 94.6419 24.3207 94.6419 24.472V24.472ZM115.52 37.1698C115.52 37.3494 115.477 37.4408 115.39 37.4408C115.029 37.4408 114.601 37.422 114.105 37.3841C113.63 37.3463 113.229 37.3274 112.9 37.3274C112.571 37.3274 112.169 37.3463 111.695 37.3841C111.193 37.422 110.759 37.4408 110.393 37.4408C110.307 37.4408 110.264 37.3494 110.264 37.1698C110.264 37.0123 110.307 36.9241 110.393 36.9115C111.045 36.8232 111.49 36.6815 111.724 36.4862C111.959 36.2908 112.075 35.9002 112.075 35.314V26.4197C112.075 25.9786 112.029 25.6668 111.935 25.4872C111.84 25.3076 111.673 25.1658 111.436 25.0619C111.199 24.9578 110.851 24.8759 110.393 24.813C110.307 24.813 110.264 24.7247 110.264 24.5482C110.264 24.3719 110.307 24.2836 110.393 24.2836C110.759 24.2836 111.193 24.3026 111.695 24.3402C112.169 24.3781 112.571 24.3971 112.9 24.3971C113.229 24.3971 113.63 24.3781 114.105 24.3402C114.601 24.3026 115.029 24.2836 115.39 24.2836C115.477 24.2836 115.52 24.3719 115.52 24.5482C115.52 24.7247 115.477 24.813 115.39 24.813C114.937 24.8759 114.592 24.9578 114.355 25.0619C114.118 25.1658 113.954 25.3076 113.862 25.484C113.77 25.6604 113.725 25.9724 113.725 26.4197V35.314C113.725 35.7489 113.77 36.0545 113.862 36.2341C113.954 36.4137 114.118 36.5555 114.353 36.6595C114.587 36.7635 114.929 36.8484 115.382 36.9115C115.474 36.9241 115.52 37.0123 115.52 37.1698V37.1698ZM108.873 37.1698C108.873 37.3494 108.829 37.4408 108.743 37.4408C108.377 37.4408 107.943 37.422 107.441 37.3841C106.967 37.3463 106.565 37.3274 106.236 37.3274C105.907 37.3274 105.527 37.3463 105.096 37.3841C104.641 37.422 104.234 37.4408 103.872 37.4408C103.786 37.4408 103.743 37.3494 103.743 37.1698C103.743 37.0123 103.789 36.9241 103.88 36.9115C104.333 36.8484 104.673 36.7603 104.894 36.65C105.115 36.5397 105.255 36.3948 105.317 36.2151C105.379 36.0356 105.411 35.7364 105.411 35.314V31.1079H99.2333V35.314C99.2333 35.7364 99.2657 36.0356 99.3277 36.2151C99.3898 36.3948 99.5299 36.5397 99.7509 36.65C99.972 36.7603 100.314 36.8484 100.773 36.9115C100.859 36.9241 100.902 37.0123 100.902 37.1698C100.902 37.3494 100.859 37.4408 100.773 37.4408C100.411 37.4408 100.004 37.422 99.5488 37.3841C99.1175 37.3463 98.7373 37.3274 98.4085 37.3274C98.0797 37.3274 97.6754 37.3463 97.1956 37.3841C96.6941 37.422 96.2629 37.4408 95.9017 37.4408C95.8154 37.4408 95.7723 37.3494 95.7723 37.1698C95.7723 37.0123 95.8154 36.9241 95.9017 36.9115C96.554 36.8232 96.9988 36.6815 97.2334 36.4862C97.4678 36.2908 97.5837 35.9002 97.5837 35.314V26.4197C97.5837 25.9786 97.5378 25.6668 97.4436 25.4872C97.3491 25.3076 97.1821 25.1658 96.9449 25.0619C96.7076 24.9578 96.36 24.8759 95.9017 24.813C95.8154 24.813 95.7723 24.7247 95.7723 24.5482C95.7723 24.3719 95.8154 24.2836 95.9017 24.2836C96.2629 24.2836 96.6941 24.3026 97.1956 24.3402C97.6754 24.3781 98.0797 24.3971 98.4085 24.3971C98.7373 24.3971 99.1175 24.3781 99.5488 24.3402C100.004 24.3026 100.411 24.2836 100.773 24.2836C100.859 24.2836 100.902 24.3719 100.902 24.5482C100.902 24.7247 100.859 24.813 100.773 24.813C100.352 24.8697 100.031 24.9453 99.8156 25.0398C99.6 25.1343 99.449 25.2603 99.3627 25.421C99.2765 25.5817 99.2333 25.9157 99.2333 26.4197V30.503H105.411V26.4197C105.411 25.9976 105.379 25.6951 105.317 25.5124C105.255 25.3297 105.115 25.1816 104.897 25.0713C104.678 24.961 104.336 24.8759 103.872 24.813C103.786 24.813 103.743 24.7247 103.743 24.5482C103.743 24.3719 103.786 24.2836 103.872 24.2836C104.234 24.2836 104.641 24.3026 105.096 24.3402C105.527 24.3781 105.907 24.3971 106.236 24.3971C106.565 24.3971 106.967 24.3781 107.441 24.3402C107.943 24.3026 108.377 24.2836 108.743 24.2836C108.829 24.2836 108.873 24.3719 108.873 24.5482C108.873 24.7247 108.829 24.813 108.743 24.813C108.285 24.8759 107.937 24.9578 107.7 25.0619C107.463 25.1658 107.298 25.3076 107.204 25.4872C107.11 25.6668 107.061 25.9786 107.061 26.4197V35.314C107.061 35.9002 107.18 36.2908 107.414 36.4862C107.649 36.6815 108.091 36.8232 108.743 36.9115C108.829 36.9241 108.873 37.0123 108.873 37.1698ZM140.661 34.3216C140.18 35.4118 139.787 36.4515 139.484 37.4408C137.238 37.3652 135.638 37.3274 134.687 37.3274C133.747 37.3274 132.15 37.3652 129.902 37.4408C129.807 37.4408 129.759 37.3494 129.759 37.1698C129.759 37.0123 129.807 36.9241 129.902 36.9115C130.396 36.8484 130.773 36.7635 131.035 36.6595C131.297 36.5555 131.481 36.4169 131.585 36.2404C131.689 36.0639 131.74 35.7552 131.74 35.314V26.4197C131.74 25.985 131.692 25.6762 131.594 25.4966C131.496 25.317 131.314 25.1752 131.053 25.0681C130.791 24.961 130.407 24.8759 129.902 24.813C129.807 24.813 129.759 24.7247 129.759 24.5482C129.759 24.3719 129.807 24.2836 129.902 24.2836C131.401 24.3592 132.935 24.3971 134.505 24.3971C136.087 24.3971 137.625 24.3592 139.118 24.2836C139.255 25.2603 139.454 26.2244 139.716 27.176C139.716 27.302 139.612 27.365 139.403 27.365C139.302 27.365 139.24 27.3208 139.216 27.2327C138.776 25.7456 137.836 25.002 136.397 25.002H134.595C133.905 25.002 133.56 25.38 133.56 26.1394V30.3518H135.814C136.409 30.3518 136.813 30.2068 137.024 29.9138C137.235 29.624 137.384 29.1073 137.467 28.367C137.467 28.2661 137.551 28.2157 137.717 28.2157C137.884 28.2157 137.967 28.2661 137.967 28.367C137.967 28.6819 137.949 29.0821 137.914 29.561C137.878 30.021 137.86 30.396 137.86 30.6857C137.86 30.9851 137.878 31.3632 137.914 31.8232C137.949 32.3147 137.967 32.7211 137.967 33.0362C137.967 33.137 137.884 33.1874 137.717 33.1874C137.551 33.1874 137.467 33.137 137.467 33.0362C137.378 32.2673 137.221 31.7286 136.998 31.4199C136.775 31.1112 136.379 30.9567 135.814 30.9567H133.56V35.6071C133.56 36.3506 133.905 36.7224 134.595 36.7224H136.543C137.253 36.7224 137.955 36.4768 138.651 35.9884C139.35 35.5 139.861 34.8919 140.188 34.1609C140.212 34.1042 140.263 34.076 140.34 34.076C140.423 34.076 140.498 34.098 140.563 34.1452C140.629 34.1925 140.661 34.2523 140.661 34.3216V34.3216ZM129.259 27.3933C129.259 27.5131 129.152 27.5729 128.938 27.5729C128.843 27.5729 128.784 27.5288 128.76 27.4406C128.504 26.5521 128.138 25.9219 127.66 25.5533C127.184 25.1847 126.479 25.002 125.542 25.002H124.701C124.409 25.002 124.21 25.0524 124.103 25.1532C123.996 25.254 123.942 25.4431 123.942 25.7203V35.314C123.942 35.7489 123.996 36.0545 124.1 36.2341C124.204 36.4137 124.388 36.5555 124.653 36.6595C124.918 36.7635 125.295 36.8484 125.789 36.9115C125.884 36.9241 125.932 37.0123 125.932 37.1698C125.932 37.3494 125.884 37.4408 125.789 37.4408C125.391 37.4408 124.915 37.422 124.362 37.3841C123.835 37.3463 123.395 37.3274 123.041 37.3274C122.676 37.3274 122.226 37.3463 121.694 37.3841C121.141 37.422 120.665 37.4408 120.267 37.4408C120.171 37.4408 120.124 37.3494 120.124 37.1698C120.124 37.0123 120.171 36.9241 120.267 36.9115C120.986 36.8232 121.477 36.6815 121.736 36.4862C121.994 36.2908 122.122 35.9002 122.122 35.314V25.7203C122.122 25.4431 122.069 25.254 121.962 25.1532C121.855 25.0524 121.652 25.002 121.355 25.002H120.659C119.821 25.002 119.059 25.2257 118.375 25.6762C117.691 26.1268 117.245 26.7128 117.037 27.4312C117.007 27.5256 116.942 27.5729 116.841 27.5729C116.638 27.5729 116.537 27.5035 116.537 27.365C116.871 26.4135 117.186 25.3359 117.483 24.1324C118.295 24.3088 120.148 24.3971 123.047 24.3971C126.021 24.3971 127.912 24.3088 128.724 24.1324C128.808 24.9516 128.986 26.0385 129.259 27.3933V27.3933ZM156.461 28.1432C156.461 29.2553 156.041 30.188 155.198 30.9409C154.356 31.694 153.314 32.0774 152.074 32.0721C150.615 32.0658 150.307 31.6329 150.312 31.2158C150.319 30.5837 154.278 32.3108 154.303 28.0672C154.309 27.0527 154.163 26.3347 153.675 25.7645C153.187 25.1943 152.537 24.9074 151.725 24.9074C151.241 24.9074 150.864 24.9453 150.6 25.0209C150.336 25.0965 150.149 25.2225 150.04 25.3926C149.931 25.5629 149.876 25.9031 149.876 26.4103C149.876 29.3793 149.876 32.3483 149.876 35.3173C149.876 35.7584 149.931 36.0671 150.04 36.2404C150.149 36.4169 150.339 36.5586 150.609 36.6626C150.88 36.7665 151.275 36.8484 151.797 36.9115C151.897 36.9241 151.946 37.0123 151.946 37.1698C151.946 37.3494 151.897 37.4408 151.797 37.4408C151.38 37.4408 150.886 37.422 150.314 37.3841C149.767 37.3463 149.303 37.3274 148.924 37.3274C148.545 37.3274 148.079 37.3463 147.525 37.3841C146.947 37.422 146.449 37.4408 146.033 37.4408C145.933 37.4408 145.883 37.3494 145.883 37.1698C145.883 37.0123 145.933 36.9241 146.033 36.9115C146.785 36.8232 147.298 36.6815 147.569 36.4862C147.839 36.2908 147.973 35.9002 147.973 35.314V26.4197C147.973 25.9786 147.92 25.6668 147.811 25.4872C147.702 25.3076 147.51 25.1658 147.236 25.0619C146.962 24.9578 146.561 24.8759 146.033 24.813C145.933 24.813 145.883 24.7247 145.883 24.5482C145.883 24.3719 145.933 24.2836 146.033 24.2836C146.449 24.2836 146.947 24.3026 147.525 24.3402C148.079 24.3781 148.545 24.3971 148.924 24.3971C149.303 24.3971 149.764 24.3781 150.311 24.3402C151.944 24.2325 153.942 24.1662 155.273 25.2666C156.066 25.9251 156.461 26.8829 156.461 28.1432V28.1432ZM170.713 37.1698C170.713 37.3494 170.663 37.4408 170.563 37.4408C170.134 37.4408 169.646 37.422 169.105 37.3841C168.639 37.3463 168.241 37.3274 167.908 37.3274C167.529 37.3274 167.059 37.3463 166.5 37.3841C165.909 37.422 165.405 37.4408 164.989 37.4408C164.889 37.4408 164.84 37.3526 164.84 37.1761C164.84 36.9997 164.877 36.9115 164.952 36.9115C165.505 36.8863 165.903 36.8107 166.145 36.6878C166.388 36.5649 166.509 36.3758 166.509 36.1176C166.509 35.9537 166.447 35.6922 166.323 35.333L165.259 32.1666H161.42L160.35 35.0967C160.213 35.4874 160.145 35.7898 160.145 36.0042C160.145 36.5586 160.649 36.8611 161.656 36.9115C161.73 36.9115 161.768 36.9997 161.768 37.1761C161.768 37.3526 161.718 37.4408 161.619 37.4408C161.245 37.4408 160.832 37.422 160.378 37.3841C159.949 37.3463 159.567 37.3274 159.231 37.3274C158.963 37.3274 158.628 37.3463 158.223 37.3841C157.801 37.422 157.44 37.4408 157.141 37.4408C157.048 37.4408 157.002 37.3621 157.002 37.2014C157.002 37.0218 157.073 36.9241 157.216 36.9115C157.732 36.8611 158.143 36.7161 158.444 36.4799C158.746 36.2404 159.06 35.752 159.383 35.018L163.754 24.1513C163.792 24.0505 163.879 24 164.016 24C164.165 24 164.258 24.0473 164.295 24.1419L168.154 35.018C168.584 36.2258 169.279 36.7598 170.526 36.9115C170.65 36.9241 170.713 37.0123 170.713 37.1698V37.1698ZM165.063 31.5617L163.416 26.7222L161.64 31.5617H165.063V31.5617ZM182.204 33.9594C181.911 35.0684 181.681 36.231 181.514 37.4408C179.129 37.3652 177.434 37.3274 176.424 37.3274C175.429 37.3274 173.753 37.3652 171.403 37.4408C171.303 37.4408 171.254 37.3494 171.254 37.1698C171.254 37.0123 171.303 36.9241 171.403 36.9115C172.155 36.8232 172.668 36.6815 172.939 36.4862C173.209 36.2908 173.343 35.9002 173.343 35.314V26.4197C173.343 25.9786 173.29 25.6668 173.181 25.4872C173.072 25.3076 172.88 25.1658 172.606 25.0619C172.332 24.9578 171.931 24.8759 171.403 24.813C171.303 24.813 171.254 24.7247 171.254 24.5482C171.254 24.3719 171.303 24.2836 171.403 24.2836C171.819 24.2836 172.317 24.3026 172.895 24.3402C173.449 24.3781 173.915 24.3971 174.294 24.3971C174.673 24.3971 175.137 24.3781 175.684 24.3402C176.256 24.3026 176.75 24.2836 177.167 24.2836C177.267 24.2836 177.316 24.3719 177.316 24.5482C177.316 24.7247 177.267 24.813 177.167 24.813C176.645 24.8759 176.247 24.961 175.973 25.065C175.699 25.169 175.51 25.3076 175.404 25.484C175.299 25.6604 175.246 25.9724 175.246 26.4197V35.6071C175.246 36.3506 175.606 36.7224 176.328 36.7224H178.174C178.939 36.7224 179.586 36.5145 180.114 36.1018C180.643 35.689 181.165 34.9172 181.681 33.7891C181.762 33.6254 182.204 33.7429 182.204 33.9594V33.9594ZM200 37.1698C200 37.3494 199.95 37.4408 199.851 37.4408C199.434 37.4408 198.927 37.422 198.33 37.3841C197.761 37.3463 197.289 37.3274 196.913 37.3274C196.536 37.3274 196.076 37.3463 195.532 37.3841C194.96 37.422 194.466 37.4408 194.049 37.4408C193.937 37.4408 193.881 37.3494 193.881 37.1698C193.881 37.0123 193.931 36.9241 194.031 36.9115C194.758 36.8232 195.256 36.6878 195.52 36.5051C195.784 36.3223 195.915 35.9758 195.915 35.4653V35.314L196.151 25.8828L191.027 37.592C190.984 37.6904 190.9 37.7433 190.763 37.7433C190.617 37.7433 190.541 37.6891 190.505 37.592L185.963 25.4551C185.934 26.6279 185.554 36.023 185.789 36.3169C185.865 36.4122 185.969 36.4914 186.009 36.5145C186.303 36.6839 186.805 36.8296 187.539 36.9115C187.626 36.9241 187.669 37.0123 187.669 37.1761C187.669 37.3526 187.613 37.4408 187.501 37.4408C187.178 37.4408 186.737 37.422 186.177 37.3841C185.658 37.3463 185.257 37.3274 184.977 37.3274C184.156 37.3274 183.339 37.4408 182.521 37.4408C182.434 37.4408 182.39 37.3494 182.39 37.1698C182.39 37.0123 182.446 36.9241 182.558 36.9115C183.342 36.817 183.886 36.6689 184.187 36.4672C184.489 36.2656 184.66 35.8812 184.703 35.314C184.9 33.5133 184.977 29.1169 184.966 25.0885C184.965 24.7618 184.243 24.8722 183.696 24.813C183.609 24.8035 183.565 24.7247 183.565 24.5482C183.565 24.463 183.633 24.2836 183.733 24.2836C183.963 24.2836 184.29 24.3026 184.713 24.3402C185.073 24.3781 185.338 24.3971 185.505 24.3971C186.139 24.3971 186.772 24.2836 187.408 24.2836L191.41 34.7879L195.542 24.2836C195.787 24.2836 196.111 24.3026 196.512 24.3402C196.875 24.3781 197.161 24.3971 197.37 24.3971C197.631 24.3971 197.945 24.3781 198.312 24.3402C198.691 24.3026 199.018 24.2836 199.291 24.2836C199.403 24.2836 199.459 24.3719 199.459 24.5482C199.459 24.7247 199.406 24.7868 199.31 24.813L198.257 25.1008L197.942 35.3204C197.928 35.7614 198.029 36.1368 198.144 36.3132C198.259 36.4896 198.368 36.5555 198.648 36.6595C198.927 36.7635 199.328 36.8484 199.851 36.9115C199.95 36.9241 200 37.0123 200 37.1698V37.1698ZM112.825 55.5785C112.335 56.6685 111.937 57.7082 111.628 58.6976C109.347 58.622 107.721 58.5841 106.754 58.5841C105.799 58.5841 104.176 58.622 101.891 58.6976C101.795 58.6976 101.746 58.6062 101.746 58.4266C101.746 58.269 101.795 58.1809 101.891 58.1682C102.393 58.1053 102.777 58.0202 103.043 57.9162C103.309 57.8122 103.496 57.6736 103.602 57.4972C103.708 57.3208 103.759 57.0119 103.759 56.5709V47.6765C103.759 47.2417 103.711 46.933 103.611 46.7534C103.511 46.5738 103.327 46.432 103.061 46.3249C102.795 46.2177 102.405 46.1327 101.891 46.0697C101.795 46.0697 101.746 45.9814 101.746 45.8051C101.746 45.6286 101.795 45.5404 101.891 45.5404C103.414 45.6159 104.974 45.6538 106.569 45.6538C108.177 45.6538 109.74 45.6159 111.257 45.5404C111.396 46.517 111.598 47.4812 111.864 48.4327C111.864 48.5587 111.758 48.6218 111.547 48.6218C111.444 48.6218 111.381 48.5776 111.356 48.4894C110.909 47.0023 109.954 46.2587 108.491 46.2587H106.66C105.959 46.2587 105.609 46.6368 105.609 47.3961V51.6086H107.899C108.504 51.6086 108.915 51.4636 109.129 51.1707C109.344 50.8808 109.495 50.3641 109.579 49.6237C109.579 49.5228 109.664 49.4724 109.833 49.4724C110.002 49.4724 110.087 49.5228 110.087 49.6237C110.087 49.9386 110.069 50.3388 110.033 50.8177C109.996 51.2777 109.978 51.6527 109.978 51.9425C109.978 52.2418 109.996 52.6199 110.033 53.0799C110.069 53.5715 110.087 53.9778 110.087 54.293C110.087 54.3937 110.002 54.4442 109.833 54.4442C109.664 54.4442 109.579 54.3937 109.579 54.293C109.489 53.5242 109.329 52.9853 109.102 52.6766C108.875 52.3679 108.473 52.2135 107.899 52.2135H105.609V56.8639C105.609 57.6074 105.959 57.9792 106.66 57.9792H108.64C109.362 57.9792 110.075 57.7335 110.782 57.2451C111.492 56.7567 112.012 56.1486 112.345 55.4178C112.369 55.361 112.42 55.3327 112.499 55.3327C112.583 55.3327 112.659 55.3547 112.725 55.402C112.792 55.4492 112.825 55.5091 112.825 55.5785V55.5785ZM101.221 45.7672C101.221 45.9689 101.154 46.0697 101.021 46.0697C100.489 46.1201 100.084 46.2556 99.8091 46.4761C99.5341 46.6966 99.232 47.1976 98.9056 47.9822L94.3484 58.8488C94.3062 58.9496 94.2215 59 94.0946 59C93.9737 59 93.8953 58.9465 93.859 58.8394L89.7974 47.9822C89.5736 47.3677 89.3893 46.9645 89.2412 46.766C89.0932 46.5675 88.8937 46.4195 88.6459 46.3218C88.398 46.224 87.9961 46.1391 87.4401 46.0697C87.3978 46.0697 87.3586 46.0413 87.3192 45.9878C87.28 45.9341 87.2588 45.8743 87.2588 45.8051C87.2588 45.6286 87.3011 45.5404 87.3858 45.5404C87.7907 45.5404 88.241 45.5593 88.7305 45.5971C89.199 45.6348 89.616 45.6538 89.9847 45.6538C90.3564 45.6538 90.8127 45.6348 91.3597 45.5971C91.9279 45.5593 92.4144 45.5404 92.8193 45.5404C92.9161 45.5404 92.9644 45.6286 92.9644 45.8051C92.9644 45.9814 92.9341 46.0697 92.8737 46.0697C92.3419 46.0949 91.9581 46.1673 91.7223 46.2871C91.4866 46.4069 91.3688 46.5926 91.3688 46.8448C91.3688 46.9991 91.4413 47.2732 91.5863 47.664L94.7262 56.2684L97.9718 47.9223C98.0806 47.5536 98.135 47.2795 98.135 47.0999C98.135 46.4761 97.6092 46.1327 96.5576 46.0697C96.485 46.0697 96.4487 45.9814 96.4487 45.8051C96.4487 45.6286 96.5031 45.5404 96.6119 45.5404C96.896 45.5404 97.2677 45.5593 97.7271 45.5971C98.2348 45.6348 98.6547 45.6538 98.9873 45.6538C99.2592 45.6538 99.6067 45.6348 100.033 45.5971C100.468 45.5593 100.828 45.5404 101.112 45.5404C101.184 45.5404 101.221 45.6159 101.221 45.7672V45.7672ZM127.249 45.8081C127.249 45.9689 127.205 46.0571 127.117 46.0697C126.43 46.1579 125.96 46.3029 125.705 46.5045C125.449 46.7062 125.315 47.0936 125.304 47.6702L125.122 58.8109C125.122 58.937 125.057 59 124.925 59C124.859 59 124.771 58.9496 124.661 58.8488L116.156 47.8277L116.041 56.5709C116.036 56.6213 116.033 56.6685 116.033 56.7127C116.033 57.1915 116.165 57.5287 116.428 57.7271C116.692 57.9256 117.167 58.0737 117.854 58.1682C117.942 58.1809 117.986 58.269 117.986 58.4266C117.986 58.6062 117.942 58.6976 117.854 58.6976C117.568 58.6976 117.176 58.6787 116.676 58.6409C116.209 58.603 115.846 58.5841 115.591 58.5841C115.313 58.5841 114.942 58.603 114.475 58.6409C114.025 58.6787 113.676 58.6976 113.429 58.6976C113.341 58.6976 113.297 58.6062 113.297 58.4266C113.297 58.269 113.346 58.1809 113.445 58.1682C114.126 58.0737 114.593 57.9256 114.846 57.7271C115.099 57.5287 115.233 57.1443 115.25 56.5709L115.547 47.6765V47.5915C115.547 47.0811 115.417 46.725 115.159 46.5234C114.901 46.3218 114.42 46.1705 113.717 46.0697C113.64 46.0697 113.602 45.9814 113.602 45.8051C113.602 45.6286 113.646 45.5404 113.734 45.5404C113.926 45.5404 114.195 45.5593 114.541 45.5971C114.849 45.6348 115.08 45.6538 115.233 45.6538C115.426 45.6538 115.656 45.6348 115.926 45.5971C116.2 45.5593 116.437 45.5404 116.634 45.5404L124.579 55.7265V47.6702C124.579 47.1345 124.447 46.7565 124.18 46.5392C123.914 46.3218 123.419 46.1643 122.7 46.0697C122.612 46.0571 122.568 45.9689 122.568 45.8081C122.568 45.6286 122.612 45.5404 122.7 45.5404C122.996 45.5404 123.392 45.5593 123.886 45.5971C124.348 45.6348 124.705 45.6538 124.958 45.6538C125.232 45.6538 125.603 45.6348 126.07 45.5971C126.521 45.5593 126.87 45.5404 127.117 45.5404C127.205 45.5404 127.249 45.6286 127.249 45.8081V45.8081ZM189.647 54.8947C189.647 56.1486 189.284 57.1475 188.558 57.8878C187.829 58.6282 186.848 59 185.611 59C185.06 59 184.405 58.8993 183.642 58.6976C182.947 58.5085 182.375 58.4141 181.932 58.4141C181.895 57.3428 181.821 56.2715 181.71 55.2003C181.71 55.0995 181.803 55.049 181.987 55.049C182.116 55.049 182.197 55.0995 182.227 55.2003C182.559 56.3724 182.984 57.1978 183.504 57.6768C184.021 58.1557 184.747 58.3951 185.682 58.3951C186.423 58.3951 187.002 58.1746 187.411 57.7335C187.82 57.2923 188.023 56.6749 188.023 55.8778C188.023 55.3673 187.844 54.8947 187.488 54.4568C187.131 54.0157 186.371 53.4517 185.208 52.7585C183.873 51.9678 182.999 51.2997 182.587 50.7516C182.175 50.2033 181.969 49.5953 181.969 48.9274C181.969 47.9002 182.341 47.0307 183.082 46.3218C183.824 45.6128 184.762 45.2568 185.9 45.2568C186.331 45.2568 186.826 45.3166 187.386 45.4364C187.909 45.5435 188.361 45.5971 188.743 45.5971C188.817 46.7062 188.915 47.6829 189.038 48.5272C189.038 48.628 188.958 48.6784 188.795 48.6784C188.62 48.6784 188.521 48.628 188.503 48.5272C188.3 47.5821 187.995 46.9015 187.586 46.4856C187.177 46.0697 186.605 45.8618 185.876 45.8618C185.183 45.8618 184.633 46.0697 184.224 46.4856C183.815 46.9015 183.612 47.4623 183.612 48.1712C183.612 48.6186 183.784 49.0439 184.125 49.4504C184.47 49.8567 185.211 50.4018 186.355 51.0823C187.709 51.889 188.595 52.5664 189.016 53.1083C189.438 53.6503 189.647 54.2456 189.647 54.8947V54.8947ZM180.751 55.5785C180.252 56.6685 179.846 57.7082 179.532 58.6976C177.21 58.622 175.555 58.5841 174.571 58.5841C173.598 58.5841 171.946 58.622 169.621 58.6976C169.522 58.6976 169.473 58.6062 169.473 58.4266C169.473 58.269 169.522 58.1809 169.621 58.1682C170.131 58.1053 170.522 58.0202 170.793 57.9162C171.064 57.8122 171.254 57.6736 171.362 57.4972C171.47 57.3208 171.522 57.0119 171.522 56.5709V47.6765C171.522 47.2417 171.473 46.933 171.371 46.7534C171.27 46.5738 171.082 46.432 170.811 46.3249C170.541 46.2177 170.144 46.1327 169.621 46.0697C169.522 46.0697 169.473 45.9814 169.473 45.8051C169.473 45.6286 169.522 45.5404 169.621 45.5404C171.171 45.6159 172.759 45.6538 174.383 45.6538C176.019 45.6538 177.61 45.6159 179.154 45.5404C179.296 46.517 179.502 47.4812 179.772 48.4327C179.772 48.5587 179.665 48.6218 179.449 48.6218C179.345 48.6218 179.28 48.5776 179.256 48.4894C178.8 47.0023 177.828 46.2587 176.339 46.2587H174.475C173.761 46.2587 173.405 46.6368 173.405 47.3961V51.6086H175.736C176.352 51.6086 176.77 51.4636 176.988 51.1707C177.207 50.8808 177.361 50.3641 177.447 49.6237C177.447 49.5228 177.533 49.4724 177.705 49.4724C177.877 49.4724 177.964 49.5228 177.964 49.6237C177.964 49.9386 177.945 50.3388 177.908 50.8177C177.871 51.2777 177.853 51.6527 177.853 51.9425C177.853 52.2418 177.871 52.6199 177.908 53.0799C177.945 53.5715 177.964 53.9778 177.964 54.293C177.964 54.3937 177.877 54.4442 177.705 54.4442C177.533 54.4442 177.447 54.3937 177.447 54.293C177.354 53.5242 177.191 52.9853 176.961 52.6766C176.73 52.3679 176.321 52.2135 175.736 52.2135H173.405V56.8639C173.405 57.6074 173.761 57.9792 174.475 57.9792H176.49C177.225 57.9792 177.951 57.7335 178.671 57.2451C179.394 56.7567 179.923 56.1486 180.262 55.4178C180.286 55.361 180.338 55.3327 180.418 55.3327C180.505 55.3327 180.581 55.3547 180.649 55.402C180.717 55.4492 180.751 55.5091 180.751 55.5785V55.5785ZM168.809 58.4266C168.809 58.6062 168.759 58.6976 168.661 58.6976C168.433 58.6976 168.061 58.6755 167.544 58.6314C167.169 58.5999 166.92 58.5841 166.797 58.5841C166.618 58.5841 166.339 58.603 165.957 58.6409C165.576 58.6787 165.296 58.6976 165.117 58.6976L162.315 54.0409C161.921 53.3919 161.601 52.9759 161.358 52.7932C161.115 52.6073 160.626 52.516 159.894 52.516V56.574C159.894 57.0088 159.949 57.3144 160.057 57.4941C160.164 57.6736 160.355 57.8154 160.629 57.9194C160.903 58.0234 161.293 58.1053 161.804 58.1682C161.909 58.1809 161.961 58.269 161.961 58.4266C161.961 58.6062 161.912 58.6976 161.813 58.6976C161.401 58.6976 160.909 58.6787 160.337 58.6409C159.789 58.603 159.328 58.5841 158.952 58.5841C158.577 58.5841 158.119 58.603 157.577 58.6409C157.011 58.6787 156.522 58.6976 156.11 58.6976C156.012 58.6976 155.962 58.6062 155.962 58.4266C155.962 58.269 156.012 58.1809 156.11 58.1682C156.621 58.1053 157.011 58.0202 157.282 57.9162C157.553 57.8122 157.744 57.6736 157.851 57.4972C157.959 57.3208 158.011 57.0119 158.011 56.5709V47.6765C158.011 47.2417 157.962 46.933 157.86 46.7534C157.759 46.5738 157.571 46.432 157.301 46.3249C157.03 46.2177 156.633 46.1327 156.11 46.0697C156.012 46.0697 155.962 45.9814 155.962 45.8051C155.962 45.6286 156.012 45.5404 156.11 45.5404C156.522 45.5404 157.011 45.5593 157.577 45.5971C158.119 45.6348 158.577 45.6538 158.952 45.6538C159.331 45.6538 159.792 45.6348 160.34 45.5971C160.912 45.5593 161.404 45.5404 161.816 45.5404C163.191 45.5404 164.253 45.8333 165.006 46.4226C165.757 47.0117 166.132 47.8403 166.132 48.9053C166.132 49.5796 165.883 50.2033 165.385 50.78C164.89 51.3565 164.216 51.8007 163.367 52.1127L166.215 56.8512C166.462 57.2609 166.781 57.5664 167.169 57.7618C167.56 57.9571 168.061 58.0926 168.68 58.1682C168.766 58.1809 168.809 58.269 168.809 58.4266V58.4266ZM164.102 48.9462C164.102 47.0905 163.314 46.1643 161.743 46.1643C161.226 46.1643 160.832 46.2083 160.564 46.2933C160.297 46.3784 160.118 46.5139 160.029 46.6966C159.94 46.8826 159.894 47.2071 159.894 47.6702V51.911C160.251 51.9614 160.703 51.9867 161.244 51.9867C162.238 51.9867 162.961 51.744 163.419 51.262C163.874 50.7799 164.102 50.008 164.102 48.9462V48.9462ZM155.206 45.8051C155.206 45.9814 155.156 46.0697 155.058 46.0697C154.283 46.1705 153.763 46.3186 153.498 46.5108C153.234 46.703 153.101 47.0905 153.101 47.6765V53.6092C153.101 55.2917 152.705 56.6119 151.911 57.5664C151.12 58.5211 150.001 59 148.555 59C146.909 59 145.623 58.5432 144.703 57.6327C143.781 56.7221 143.319 55.4807 143.319 53.9117V47.6765C143.319 47.2417 143.27 46.9361 143.168 46.7565C143.067 46.5769 142.879 46.432 142.608 46.3249C142.338 46.2177 141.941 46.1327 141.418 46.0697C141.32 46.0697 141.27 45.9814 141.27 45.8051C141.27 45.6286 141.32 45.5404 141.418 45.5404C141.83 45.5404 142.319 45.5593 142.885 45.5971C143.427 45.6348 143.885 45.6538 144.26 45.6538C144.636 45.6538 145.097 45.6348 145.645 45.5971C146.22 45.5593 146.712 45.5404 147.124 45.5404C147.223 45.5404 147.272 45.6286 147.272 45.8051C147.272 45.9814 147.223 46.0697 147.124 46.0697C146.601 46.1327 146.202 46.2177 145.931 46.3218C145.66 46.4257 145.472 46.5675 145.365 46.7471C145.257 46.9266 145.202 47.2354 145.202 47.6765V53.647C145.202 55.1972 145.488 56.3378 146.06 57.0624C146.635 57.787 147.567 58.1494 148.863 58.1494C151.296 58.1494 152.511 56.574 152.511 53.4202V47.6765C152.511 47.0905 152.373 46.6998 152.099 46.5013C151.825 46.3029 151.311 46.1579 150.551 46.0697C150.453 46.0697 150.404 45.9814 150.404 45.8051C150.404 45.6286 150.453 45.5404 150.551 45.5404C150.831 45.5404 151.203 45.5593 151.662 45.5971C152.132 45.6348 152.514 45.6538 152.809 45.6538C153.101 45.6538 153.471 45.6348 153.914 45.5971C154.369 45.5593 154.75 45.5404 155.058 45.5404C155.156 45.5404 155.206 45.6286 155.206 45.8051V45.8051Z" fill="#0053F1"/>
<path d="M0.482042 0H40.0153V0.987147H0.964182V75.0129H18.5856C18.7963 61.6225 22.1766 49.9433 27.4791 42.771C26 42.5 23.3159 42.0703 20.1135 47.0606C19.3534 45.6109 22 40.5 25.5 41C19.0772 34.0337 11.5 38 6.54138 39.5153C10.9644 32.2953 23.0725 29.3569 27.8618 40.9582C27.8276 39.684 27.4855 37.7079 27.3118 37.1399C24.6459 28.4227 16 26.5 13.8929 25.5717C21.9206 23.8569 31.1886 28.1707 30.0228 37.8854C34.8555 28.9087 46.8346 32.0334 50.7026 38.7761C49 38 40.8573 33.4716 33.1685 38.1068C32.5789 38.4623 30.5 40 29.5 41.5C39 35 48.0164 42.6221 48.3577 51.7462C43.5 46.5 41 41.5 31 42.5C36 44 34.0522 50.8051 32.4996 51.5968C33.5 45 30.5 43 28.5 43C28.0974 43.3868 27.4599 45.0468 27.2765 45.6342C24.6107 54.1743 23.6899 64.4082 25.0212 75.0129H56.0357V0.987147H51.3003V0H57V76H0V0H0.482042Z" fill="#0053F1"/>
<path d="M7.22685 10H13.6217V10.4569H7.45361V83.5431H22.925V84H7V10H7.22685V10ZM37.5274 83.5431H49.5464V10.4569H27.3366V10H50V84H37.5274V83.5431V83.5431Z" fill="#0053F1"/>
</svg>
