<svg width="76" height="50" viewBox="0 0 76 50" fill="none" xmlns="http://www.w3.org/2000/svg">
<path d="M34.1686 17.8123L30.5447 13.6456C31.4766 12.9164 33.506 11.0623 37.8962 9.47895C43.3839 7.49978 48.6646 9.27061 50.2177 9.99978C51.7708 10.7289 55.4983 12.3956 55.4983 18.6456C55.4983 24.8956 52.4956 26.4581 50.2177 28.1248C47.9398 29.7914 44.0052 31.8748 40.6918 34.4789C38.0411 36.5623 37.0332 39.3054 36.8607 40.4165H55.9125V45.729H29.6128C29.7163 39.6873 31.2695 36.6664 34.5828 32.9164C36.8392 30.3627 45.5583 24.6873 47.7327 23.1248C49.9071 21.5623 51.9779 15.4164 45.2477 14.3748C39.8635 13.5414 35.6182 16.3192 34.1686 17.8123Z" fill="#0053F1"/>
<path d="M72.3756 9.1665H67.7162C67.7162 12.4998 63.9886 13.6457 60.6753 13.9582V17.9165H66.9914C66.8257 17.9165 66.9224 36.4582 66.9914 45.729H72.3756V9.1665Z" fill="#0053F1"/>
<path d="M5.28057 22.9165C4.55577 22.9165 4.34869 23.3332 4.34869 23.9582V24.8957C4.34869 25.3123 4.76285 25.6248 5.17702 25.6248C6.17103 25.6248 6.52307 25.9373 6.8337 26.354L12.3214 34.479L6.1089 43.5415H4.8664C4.34869 43.5415 4.1416 43.7498 4.1416 44.6873C4.1416 45.4373 4.34869 45.729 4.65931 45.729H11.1825C12.2179 45.729 12.1144 45.2082 12.1144 44.3748C12.1144 43.7082 11.7002 43.5415 11.4931 43.5415H10.147L14.1852 36.6665C15.6003 38.9582 18.5754 43.7707 19.1552 44.6873C19.7351 45.604 20.6393 45.7638 21.019 45.729H25.2642C26.2582 45.729 26.1961 44.9998 26.1961 44.5832C26.1961 44.1665 26.2996 43.428 25.2642 43.3332C24.353 43.2498 23.573 42.2567 23.2969 41.7707L18.4304 34.479L24.5394 25.8332C25.7819 25.8332 25.989 25.6248 25.989 25.2082V23.9582C25.989 23.4373 25.6784 23.229 25.2642 23.229H19.4658C18.8032 23.229 18.7065 23.715 18.7411 23.9582V25.2082C18.7411 25.8332 19.4658 25.8332 19.9836 25.8332L16.256 32.0832C15.0135 29.8957 12.425 25.2707 12.0108 24.2707C11.5966 23.2707 10.7057 22.9165 10.147 22.9165H5.28057Z" fill="#0053F1"/>
<path d="M21.1225 4.7915C22.6135 11.4582 18.0163 15.1387 15.5312 16.1457C18.0991 12.5623 17.9127 8.40261 17.4986 6.77067C19.0724 5.354 20.5703 4.86094 21.1225 4.7915Z" fill="#0053F1"/>
<path d="M21.9508 9.7915C21.7023 13.0415 17.7746 15.729 15.8418 16.6665C22.6342 17.9998 25.5058 12.6387 26.0925 9.7915C26.0925 9.7915 24.7268 9.479 23.9181 9.479C23.1094 9.479 21.9508 9.7915 21.9508 9.7915Z" fill="#0053F1"/>
<path d="M14.1851 16.1457C10.6647 11.2498 10.0435 7.9165 14.1851 2.604C17.9127 7.604 17.8091 11.7707 14.1851 16.1457Z" fill="#0053F1"/>
<path d="M12.839 16.1457C10.354 15.1387 5.75669 11.4582 7.2477 4.7915C7.79994 4.86094 9.29784 5.354 10.8717 6.77067C10.4575 8.40261 10.2711 12.5623 12.839 16.1457Z" fill="#0053F1"/>
<path d="M12.5285 16.6665C10.5957 15.729 6.66802 13.0415 6.41952 9.7915C6.41952 9.7915 5.16643 9.479 4.34868 9.479C3.53092 9.479 2.27783 9.7915 2.27783 9.7915C2.86456 12.6387 5.73614 17.9998 12.5285 16.6665Z" fill="#0053F1"/>
</svg>
