<svg width="360" height="601" viewBox="0 0 360 601" fill="none" xmlns="http://www.w3.org/2000/svg">
<path fill-rule="evenodd" clip-rule="evenodd" d="M315.521 146.691C317.643 154.311 322.962 160.606 329.491 165.072C347.866 177.64 360 199.522 360 224.412C360 263.317 330.156 295 293.341 295H66.6592C29.7666 295 0 263.397 0 224.412C0 197.618 14.1551 174.25 34.9936 162.297C38.0367 160.551 40 157.332 40 153.824V153.824C40 99.2448 81.7868 55 133.333 55C143.221 55 176.227 56.014 198.355 69.9256C209.456 76.9045 224.696 85.9726 237.789 86.6705C242.622 86.9281 248.944 87.006 257.4 86.68C288.61 86.68 306.883 115.658 315.521 146.691Z" fill="#F4F6FD"/>
<g clip-path="url(#clip0)">
<path d="M155.059 112.793C154.744 112.48 154.468 112.304 154.31 112.304C153.759 112.774 153.01 113.008 151.986 113.008C150.055 113.008 148.952 111.737 148.952 109.917C148.952 108.039 150.075 106.767 151.907 106.767C152.636 106.767 153.187 106.943 153.562 107.256V108.274C153.562 108.43 153.66 108.587 153.916 108.841C154.153 109.056 154.33 109.154 154.448 109.154C154.606 109.154 154.763 109.056 154.98 108.841C155.217 108.606 155.335 108.43 155.335 108.274V106.395C155.335 106.082 154.98 105.73 154.31 105.378C153.641 105.006 152.833 104.85 151.887 104.85C150.351 104.85 149.07 105.319 148.105 106.278C147.139 107.217 146.627 108.43 146.627 109.898C146.627 110.132 146.647 110.348 146.667 110.563L138.077 105.711L141.564 103.735C142.037 103.461 142.214 102.854 141.938 102.365C141.663 101.896 141.052 101.719 140.559 101.993L137.033 103.989V99.9978C137.033 99.45 136.58 99 136.028 99C135.477 99 135.023 99.45 135.023 99.9978V103.989L131.497 101.993C131.005 101.719 130.394 101.896 130.118 102.365C129.842 102.835 130.02 103.461 130.492 103.735L133.999 105.711L130.512 107.687C130.039 107.961 129.862 108.567 130.138 109.056C130.315 109.369 130.67 109.565 131.005 109.565C131.182 109.565 131.339 109.526 131.497 109.428L135.023 107.432V111.443C135.023 111.991 135.477 112.441 136.028 112.441C136.58 112.441 137.033 111.991 137.033 111.443V107.413L148.637 113.967L149.543 114.476L149.563 114.495C149.622 114.534 149.7 114.554 149.76 114.573C150.39 114.808 151.099 114.926 151.887 114.926C153.404 114.926 154.645 114.456 155.571 113.537C155.591 113.38 155.414 113.106 155.059 112.793Z" fill="#0053F1"/>
<path d="M161.659 104.85C160.161 104.85 158.92 105.319 157.955 106.298C156.99 107.237 156.497 108.45 156.497 109.917C156.497 111.365 156.97 112.558 157.955 113.537C158.92 114.476 160.161 114.965 161.659 114.965C163.156 114.965 164.397 114.495 165.362 113.537C166.328 112.578 166.84 111.365 166.84 109.917C166.84 108.45 166.347 107.256 165.362 106.298C164.377 105.319 163.156 104.85 161.659 104.85ZM163.668 112.167C163.176 112.754 162.506 113.028 161.659 113.028C160.811 113.028 160.142 112.754 159.649 112.167C159.157 111.58 158.901 110.837 158.901 109.917C158.901 108.998 159.157 108.235 159.649 107.667C160.142 107.08 160.811 106.806 161.659 106.806C162.506 106.806 163.176 107.08 163.668 107.667C164.18 108.254 164.456 108.998 164.456 109.917C164.456 110.837 164.2 111.58 163.668 112.167Z" fill="#0053F1"/>
<path d="M170.78 99.3912C170.563 99.1565 170.386 99.0391 170.248 99.0391H167.49C167.332 99.0391 167.175 99.1369 166.919 99.3912C166.702 99.6064 166.604 99.7825 166.604 99.9195C166.604 100.056 166.702 100.233 166.919 100.487C167.155 100.702 167.332 100.8 167.49 100.8H168.889V114.75H171.115V99.9195C171.135 99.763 171.016 99.6064 170.78 99.3912Z" fill="#0053F1"/>
<path d="M182.58 112.304V99.9195C182.58 99.763 182.462 99.6064 182.226 99.3912C182.009 99.1565 181.832 99.0391 181.694 99.0391H179.566C179.409 99.0391 179.251 99.1369 178.995 99.3912C178.778 99.6064 178.68 99.7825 178.68 99.9195C178.68 100.056 178.778 100.233 178.995 100.487C179.231 100.702 179.409 100.8 179.566 100.8H180.354V105.163C179.704 104.948 179.074 104.85 178.443 104.85C176.907 104.85 175.646 105.319 174.661 106.298C173.656 107.237 173.164 108.469 173.164 109.976C173.164 111.404 173.597 112.578 174.484 113.517C175.37 114.456 176.493 114.945 177.833 114.945C178.857 114.945 179.744 114.632 180.492 114.006C180.748 114.358 181.221 114.75 181.457 114.75H182.797V114.495L182.738 114.319C182.659 114.123 182.58 113.321 182.58 112.304ZM180.335 112.421C179.803 112.832 179.153 113.028 178.384 113.028C176.631 113.028 175.528 111.756 175.528 109.937C175.528 108.039 176.651 106.767 178.542 106.767C179.212 106.767 179.822 106.904 180.335 107.178V112.421Z" fill="#0053F1"/>
<path d="M188.687 108.978C188.097 108.743 187.742 108.567 187.585 108.489C187.072 108.235 186.796 107.921 186.796 107.608C186.796 107.021 187.348 106.669 188.274 106.669C189.082 106.669 189.712 106.885 190.165 107.335C190.323 107.335 190.579 107.158 190.894 106.845C191.209 106.532 191.386 106.258 191.386 106.122C190.579 105.28 189.515 104.869 188.215 104.869C185.89 104.869 184.708 105.926 184.708 107.726C184.708 109.174 185.457 109.878 187.545 110.739L188.687 111.228C189.318 111.502 189.614 111.834 189.614 112.147C189.614 112.773 188.944 113.165 187.959 113.165C187.052 113.165 186.284 112.871 185.713 112.284C185.555 112.284 185.299 112.46 184.964 112.793C184.629 113.145 184.472 113.4 184.472 113.537C185.398 114.456 186.599 114.926 188.037 114.926C190.382 114.926 191.721 113.83 191.721 112.05C191.721 111.326 191.485 110.739 191.032 110.328C190.599 109.917 189.791 109.448 188.687 108.978Z" fill="#0053F1"/>
<path d="M199.602 112.969C199.326 112.676 199.09 112.519 198.932 112.519C198.558 112.891 198.085 113.048 197.454 113.048C196.745 113.048 196.371 112.656 196.371 111.913V106.826H199.503V105.065H196.371V101.524H195.74L194.263 102.326V105.065H193.199C193.041 105.065 192.845 105.163 192.628 105.378C192.411 105.593 192.312 105.789 192.312 105.946C192.312 106.102 192.411 106.259 192.628 106.513C192.864 106.728 193.041 106.826 193.199 106.826H194.125V112.304C194.125 114.065 195.071 114.945 196.962 114.945C198.124 114.945 199.149 114.515 200.035 113.634C200.055 113.478 199.898 113.243 199.602 112.969Z" fill="#0053F1"/>
<path d="M208.92 112.304V108.235C208.92 106.024 207.6 104.85 205.019 104.85C203.463 104.85 202.183 105.319 201.198 106.298C201.198 106.493 201.375 106.748 201.71 107.1C202.064 107.413 202.32 107.589 202.498 107.589C203.128 106.982 203.896 106.689 204.823 106.689C205.965 106.689 206.694 107.256 206.694 108.293V109.037C206.201 108.978 205.748 108.958 205.315 108.958C202.478 108.958 200.961 110.093 200.961 112.108C200.961 113.928 202.281 114.945 204.192 114.945C205.236 114.945 206.123 114.632 206.832 113.987C207.108 114.358 207.58 114.769 207.836 114.769H209.176V114.515L209.117 114.339C208.999 114.124 208.92 113.321 208.92 112.304ZM206.694 112.382C206.182 112.891 205.531 113.165 204.744 113.165C203.7 113.165 203.188 112.754 203.188 111.932C203.188 111.013 203.896 110.563 205.335 110.563C205.788 110.563 206.241 110.602 206.694 110.661V112.382Z" fill="#0053F1"/>
<path d="M219.283 112.793C218.948 112.48 218.692 112.304 218.535 112.304C217.983 112.774 217.234 113.008 216.21 113.008C214.279 113.008 213.176 111.737 213.176 109.917C213.176 108.039 214.299 106.767 216.131 106.767C216.86 106.767 217.411 106.943 217.786 107.256V108.274C217.786 108.43 217.884 108.587 218.14 108.841C218.377 109.056 218.554 109.154 218.692 109.154C218.85 109.154 219.007 109.056 219.224 108.841C219.46 108.606 219.578 108.43 219.578 108.274V106.395C219.578 106.082 219.224 105.73 218.554 105.378C217.884 105.006 217.077 104.85 216.131 104.85C214.594 104.85 213.314 105.319 212.348 106.278C211.363 107.217 210.871 108.43 210.871 109.898C210.871 111.384 211.363 112.578 212.348 113.537C213.314 114.476 214.594 114.965 216.17 114.965C217.687 114.965 218.928 114.495 219.855 113.576C219.795 113.38 219.618 113.106 219.283 112.793Z" fill="#0053F1"/>
<path d="M226.671 109.76L229.783 106.18C229.783 106.004 229.567 105.75 229.133 105.378C228.72 105.006 228.424 104.85 228.247 104.85L224.819 108.763L223.952 108.88V99.9195C223.952 99.763 223.853 99.6064 223.597 99.3912C223.381 99.1565 223.203 99.0391 223.046 99.0391H220.918C220.761 99.0391 220.603 99.1369 220.347 99.3912C220.13 99.6064 220.032 99.7825 220.032 99.9195C220.032 100.056 220.13 100.233 220.347 100.487C220.583 100.702 220.761 100.8 220.918 100.8H221.706V114.75H223.932V110.817L224.74 110.719L228.463 114.965C228.641 114.965 228.936 114.769 229.35 114.397C229.763 114.006 229.981 113.732 229.981 113.556L226.671 109.76Z" fill="#0053F1"/>
</g>
<path d="M61 107L61 21C61 17.6863 63.6863 15 67 15L157 15" stroke="#F88419" stroke-dasharray="3 3"/>
<path d="M168 281L168 435" stroke="#F88419" stroke-dasharray="3 3"/>
<path d="M192 290V429" stroke="#9B9CA8"/>
<path d="M299 107L299 21C299 17.6863 296.314 15 293 15L204 15" stroke="#9B9CA8"/>
<rect x="23" width="30" height="30" fill="white"/>
<path d="M45.1476 7.35423C46.3421 9.40732 47 12.1226 47 15C47 17.8774 46.3421 20.5927 45.1476 22.6457C43.8892 24.8088 42.1794 26 40.3333 26H35.6667C33.8206 26 32.1108 24.8088 30.8524 22.6457C29.6579 20.5927 29 17.8774 29 15C29 12.1226 29.6579 9.40732 30.8524 7.35423C32.1108 5.19122 33.8206 4 35.6667 4H40.3333C42.1794 4 43.8892 5.19122 45.1476 7.35423ZM44.0043 21.9383C45.0763 20.0958 45.6667 17.6318 45.6667 15C45.6667 12.3682 45.0763 9.90412 44.0043 8.06166C42.9963 6.32912 41.6926 5.375 40.3333 5.375C38.9741 5.375 37.6704 6.32912 36.6623 8.06166C35.5904 9.90412 35 12.3682 35 15C35 17.6318 35.5904 20.0958 36.6623 21.9383C37.6704 23.6708 38.9741 24.625 40.3333 24.625C41.6926 24.625 42.9963 23.6708 44.0043 21.9383ZM34.5457 9.5H31.3048C30.9723 10.3447 30.7209 11.271 30.5572 12.25H33.8734C34.0215 11.2848 34.2472 10.3607 34.5457 9.5ZM33.8735 17.75H30.5572C30.721 18.729 30.9724 19.6552 31.3048 20.5H34.5457C34.2472 19.6393 34.0215 18.7152 33.8735 17.75ZM35.6667 24.625H37.0736C36.505 24.1035 35.9815 23.4405 35.519 22.6457C35.375 22.3982 35.239 22.1408 35.1108 21.875H31.9597C31.9718 21.896 31.9835 21.9174 31.9957 21.9383C33.0037 23.6708 34.3074 24.625 35.6667 24.625ZM30.3883 16.375H33.7176C33.684 15.9222 33.6667 15.4632 33.6667 15C33.6667 14.5368 33.684 14.0778 33.7176 13.625H30.3883C30.3521 14.0765 30.3333 14.5356 30.3333 15C30.3333 15.4644 30.3521 15.9235 30.3883 16.375ZM35.6667 5.375C34.3074 5.375 33.0037 6.32912 31.9957 8.06166C31.9835 8.08255 31.9717 8.10394 31.9597 8.125H35.1108C35.239 7.85911 35.375 7.60177 35.519 7.35423C35.9815 6.55948 36.505 5.89647 37.0736 5.37496H35.6667V5.375Z" fill="#F88419" stroke="#F88419" stroke-width="0.5"/>
<path d="M61 139H263" stroke="#F88419" stroke-dasharray="3 3"/>
<path d="M61 139L147 184" stroke="#F88419" stroke-dasharray="3 3"/>
<path d="M212 184L268 155" stroke="#9B9CA8"/>
<rect width="60" height="40" transform="translate(31 179)" fill="#F6F6FC"/>
<path d="M49.3942 191.438C49.3942 191.821 49.3149 192.171 49.1562 192.488C49.0069 192.805 48.7969 193.076 48.5262 193.3C48.2649 193.524 47.9569 193.697 47.6022 193.818C47.2569 193.939 46.8836 194 46.4822 194H41.7642V184.06H46.7062C47.0516 184.06 47.3642 184.135 47.6442 184.284C47.9242 184.433 48.1622 184.629 48.3582 184.872C48.5542 185.105 48.7036 185.376 48.8062 185.684C48.9182 185.983 48.9742 186.286 48.9742 186.594C48.9742 187.089 48.8482 187.546 48.5962 187.966C48.3536 188.386 48.0036 188.699 47.5462 188.904C48.1156 189.072 48.5636 189.385 48.8902 189.842C49.2262 190.29 49.3942 190.822 49.3942 191.438ZM48.1202 191.214C48.1202 190.99 48.0782 190.775 47.9942 190.57C47.9196 190.355 47.8122 190.169 47.6722 190.01C47.5416 189.851 47.3829 189.725 47.1962 189.632C47.0096 189.539 46.8042 189.492 46.5802 189.492H43.0242V192.908H46.4822C46.7156 192.908 46.9302 192.861 47.1262 192.768C47.3222 192.675 47.4949 192.553 47.6442 192.404C47.7936 192.245 47.9102 192.063 47.9942 191.858C48.0782 191.653 48.1202 191.438 48.1202 191.214ZM43.0242 185.152V188.47H46.1882C46.4122 188.47 46.6176 188.428 46.8042 188.344C46.9909 188.251 47.1496 188.129 47.2802 187.98C47.4202 187.831 47.5276 187.658 47.6022 187.462C47.6862 187.257 47.7282 187.042 47.7282 186.818C47.7282 186.585 47.6909 186.365 47.6162 186.16C47.5416 185.955 47.4389 185.777 47.3082 185.628C47.1869 185.479 47.0329 185.362 46.8462 185.278C46.6689 185.194 46.4776 185.152 46.2722 185.152H43.0242ZM50.9608 194V186.692H52.1928V194H50.9608ZM50.9608 185.32V183.78H52.1928V185.32H50.9608ZM54.2154 183.78H55.4474V192.11C55.4474 192.381 55.5174 192.595 55.6574 192.754C55.8067 192.903 56.012 192.978 56.2734 192.978C56.376 192.978 56.4974 192.964 56.6374 192.936C56.7774 192.899 56.908 192.857 57.0294 192.81L57.2254 193.804C57.02 193.888 56.7774 193.958 56.4974 194.014C56.2174 194.07 55.97 194.098 55.7554 194.098C55.2794 194.098 54.9014 193.963 54.6214 193.692C54.3507 193.421 54.2154 193.043 54.2154 192.558V183.78ZM58.2212 183.78H59.4532V192.11C59.4532 192.381 59.5232 192.595 59.6632 192.754C59.8126 192.903 60.0179 192.978 60.2792 192.978C60.3819 192.978 60.5032 192.964 60.6432 192.936C60.7832 192.899 60.9139 192.857 61.0352 192.81L61.2312 193.804C61.0259 193.888 60.7832 193.958 60.5032 194.014C60.2232 194.07 59.9759 194.098 59.7612 194.098C59.2852 194.098 58.9072 193.963 58.6272 193.692C58.3566 193.421 58.2212 193.043 58.2212 192.558V183.78ZM62.1991 194V186.692H63.4311V194H62.1991ZM62.1991 185.32V183.78H63.4311V185.32H62.1991ZM71.7676 194H70.5356V189.912C70.5356 189.128 70.4143 188.559 70.1716 188.204C69.9383 187.849 69.579 187.672 69.0936 187.672C68.8416 187.672 68.5896 187.723 68.3376 187.826C68.0856 187.919 67.8476 188.05 67.6236 188.218C67.3996 188.386 67.2036 188.587 67.0356 188.82C66.8676 189.053 66.7416 189.31 66.6576 189.59V194H65.4256V186.692H66.5456V188.26C66.835 187.747 67.2503 187.336 67.7916 187.028C68.3423 186.72 68.9396 186.566 69.5836 186.566C70.0036 186.566 70.3536 186.645 70.6336 186.804C70.9136 186.953 71.1376 187.168 71.3056 187.448C71.4736 187.719 71.5903 188.041 71.6556 188.414C71.7303 188.787 71.7676 189.193 71.7676 189.632V194ZM76.5955 194.084C76.1008 194.084 75.6435 193.981 75.2235 193.776C74.8128 193.571 74.4581 193.295 74.1595 192.95C73.8608 192.605 73.6275 192.208 73.4595 191.76C73.3008 191.312 73.2215 190.845 73.2215 190.36C73.2215 189.847 73.3008 189.361 73.4595 188.904C73.6275 188.437 73.8608 188.031 74.1595 187.686C74.4581 187.341 74.8128 187.07 75.2235 186.874C75.6435 186.669 76.1055 186.566 76.6095 186.566C77.2255 186.566 77.7575 186.715 78.2055 187.014C78.6535 187.313 79.0315 187.691 79.3395 188.148V186.692H80.4315V193.916C80.4315 194.439 80.3335 194.896 80.1375 195.288C79.9415 195.689 79.6755 196.025 79.3395 196.296C79.0035 196.567 78.6068 196.772 78.1495 196.912C77.7015 197.052 77.2208 197.122 76.7075 197.122C75.8768 197.122 75.2001 196.977 74.6775 196.688C74.1641 196.408 73.7348 196.016 73.3895 195.512L74.1035 194.882C74.3928 195.311 74.7661 195.633 75.2235 195.848C75.6808 196.063 76.1755 196.17 76.7075 196.17C77.0435 196.17 77.3608 196.123 77.6595 196.03C77.9675 195.937 78.2335 195.797 78.4575 195.61C78.6815 195.423 78.8588 195.19 78.9895 194.91C79.1295 194.63 79.1995 194.299 79.1995 193.916V192.628C79.0595 192.852 78.8915 193.057 78.6955 193.244C78.5088 193.421 78.3035 193.575 78.0795 193.706C77.8555 193.827 77.6175 193.921 77.3655 193.986C77.1135 194.051 76.8568 194.084 76.5955 194.084ZM76.9735 193.076C77.2348 193.076 77.4868 193.029 77.7295 192.936C77.9721 192.843 78.1961 192.721 78.4015 192.572C78.6068 192.413 78.7795 192.236 78.9195 192.04C79.0595 191.844 79.1528 191.643 79.1995 191.438V189.338C79.0968 189.086 78.9615 188.857 78.7935 188.652C78.6348 188.447 78.4528 188.269 78.2475 188.12C78.0421 187.961 77.8181 187.84 77.5755 187.756C77.3421 187.672 77.1041 187.63 76.8615 187.63C76.4881 187.63 76.1521 187.709 75.8535 187.868C75.5641 188.027 75.3168 188.237 75.1115 188.498C74.9061 188.759 74.7475 189.058 74.6355 189.394C74.5235 189.721 74.4675 190.052 74.4675 190.388C74.4675 190.752 74.5328 191.097 74.6635 191.424C74.7941 191.751 74.9715 192.035 75.1955 192.278C75.4195 192.521 75.6808 192.717 75.9795 192.866C76.2875 193.006 76.6188 193.076 76.9735 193.076ZM45.3963 206.412V214H44.1363V204.06H45.1163L51.2763 211.802V204.074H52.5363V214H51.4723L45.3963 206.412ZM57.7827 214.14C57.232 214.14 56.728 214.037 56.2707 213.832C55.8227 213.627 55.4353 213.351 55.1087 213.006C54.7913 212.661 54.544 212.259 54.3667 211.802C54.1893 211.345 54.1007 210.864 54.1007 210.36C54.1007 209.847 54.1893 209.361 54.3667 208.904C54.5533 208.447 54.8053 208.045 55.1227 207.7C55.4493 207.355 55.8367 207.079 56.2847 206.874C56.742 206.669 57.2413 206.566 57.7827 206.566C58.324 206.566 58.8233 206.669 59.2807 206.874C59.738 207.079 60.1253 207.355 60.4427 207.7C60.7693 208.045 61.0213 208.447 61.1987 208.904C61.3853 209.361 61.4787 209.847 61.4787 210.36C61.4787 210.864 61.39 211.345 61.2127 211.802C61.0353 212.259 60.7833 212.661 60.4567 213.006C60.13 213.351 59.738 213.627 59.2807 213.832C58.8327 214.037 58.3333 214.14 57.7827 214.14ZM55.3607 210.374C55.3607 210.757 55.4213 211.111 55.5427 211.438C55.6733 211.765 55.846 212.049 56.0607 212.292C56.2847 212.535 56.5413 212.726 56.8307 212.866C57.1293 213.006 57.4467 213.076 57.7827 213.076C58.1187 213.076 58.4313 213.006 58.7207 212.866C59.0193 212.726 59.2807 212.535 59.5047 212.292C59.7287 212.04 59.9013 211.751 60.0227 211.424C60.1533 211.088 60.2187 210.729 60.2187 210.346C60.2187 209.973 60.1533 209.623 60.0227 209.296C59.9013 208.96 59.7287 208.671 59.5047 208.428C59.2807 208.176 59.0193 207.98 58.7207 207.84C58.4313 207.7 58.1187 207.63 57.7827 207.63C57.4467 207.63 57.1293 207.705 56.8307 207.854C56.5413 207.994 56.2847 208.19 56.0607 208.442C55.846 208.685 55.6733 208.974 55.5427 209.31C55.4213 209.637 55.3607 209.991 55.3607 210.374ZM65.9815 214.14C65.4775 214.14 65.0109 214.037 64.5815 213.832C64.1522 213.627 63.7835 213.351 63.4755 213.006C63.1675 212.661 62.9249 212.259 62.7475 211.802C62.5795 211.345 62.4955 210.864 62.4955 210.36C62.4955 209.847 62.5749 209.361 62.7335 208.904C62.9015 208.437 63.1302 208.031 63.4195 207.686C63.7182 207.341 64.0682 207.07 64.4695 206.874C64.8802 206.669 65.3282 206.566 65.8135 206.566C66.4015 206.566 66.9242 206.72 67.3815 207.028C67.8482 207.336 68.2169 207.709 68.4875 208.148V203.78H69.7195V212.488C69.7195 212.777 69.8502 212.927 70.1115 212.936V214C69.9809 214.019 69.8735 214.033 69.7895 214.042C69.7149 214.051 69.6402 214.056 69.5655 214.056C69.3229 214.056 69.1082 213.977 68.9215 213.818C68.7442 213.65 68.6555 213.459 68.6555 213.244V212.628C68.3662 213.104 67.9789 213.477 67.4935 213.748C67.0175 214.009 66.5135 214.14 65.9815 214.14ZM66.2755 213.076C66.4995 213.076 66.7282 213.034 66.9615 212.95C67.2042 212.866 67.4282 212.749 67.6335 212.6C67.8482 212.451 68.0302 212.278 68.1795 212.082C68.3382 211.877 68.4409 211.662 68.4875 211.438V209.338C68.4035 209.105 68.2775 208.885 68.1095 208.68C67.9415 208.465 67.7502 208.283 67.5355 208.134C67.3302 207.975 67.1062 207.854 66.8635 207.77C66.6302 207.677 66.3969 207.63 66.1635 207.63C65.7995 207.63 65.4682 207.709 65.1695 207.868C64.8802 208.017 64.6282 208.223 64.4135 208.484C64.2082 208.736 64.0495 209.03 63.9375 209.366C63.8255 209.693 63.7695 210.029 63.7695 210.374C63.7695 210.738 63.8349 211.088 63.9655 211.424C64.0962 211.751 64.2735 212.035 64.4975 212.278C64.7215 212.521 64.9829 212.717 65.2815 212.866C65.5895 213.006 65.9209 213.076 66.2755 213.076ZM75.0102 214.14C74.4596 214.14 73.9556 214.042 73.4982 213.846C73.0409 213.641 72.6489 213.365 72.3222 213.02C71.9956 212.675 71.7389 212.273 71.5522 211.816C71.3749 211.349 71.2862 210.859 71.2862 210.346C71.2862 209.833 71.3749 209.347 71.5522 208.89C71.7389 208.433 71.9956 208.031 72.3222 207.686C72.6582 207.341 73.0549 207.07 73.5122 206.874C73.9696 206.669 74.4736 206.566 75.0242 206.566C75.5749 206.566 76.0742 206.669 76.5222 206.874C76.9796 207.079 77.3669 207.355 77.6842 207.7C78.0016 208.036 78.2442 208.433 78.4122 208.89C78.5896 209.338 78.6782 209.805 78.6782 210.29C78.6782 210.393 78.6736 210.486 78.6642 210.57C78.6642 210.654 78.6596 210.719 78.6502 210.766H72.5882C72.6162 211.13 72.7002 211.461 72.8402 211.76C72.9802 212.059 73.1622 212.315 73.3862 212.53C73.6102 212.745 73.8622 212.913 74.1422 213.034C74.4316 213.155 74.7349 213.216 75.0522 213.216C75.2762 213.216 75.4956 213.188 75.7102 213.132C75.9249 213.067 76.1256 212.983 76.3122 212.88C76.4989 212.777 76.6622 212.651 76.8022 212.502C76.9516 212.353 77.0636 212.185 77.1382 211.998L78.2022 212.292C78.0809 212.563 77.9129 212.81 77.6982 213.034C77.4929 213.258 77.2502 213.454 76.9702 213.622C76.6996 213.781 76.3962 213.907 76.0602 214C75.7242 214.093 75.3742 214.14 75.0102 214.14ZM77.5162 209.856C77.4882 209.511 77.3996 209.193 77.2502 208.904C77.1102 208.605 76.9282 208.353 76.7042 208.148C76.4896 207.943 76.2376 207.784 75.9482 207.672C75.6589 207.551 75.3509 207.49 75.0242 207.49C74.6976 207.49 74.3896 207.551 74.1002 207.672C73.8109 207.784 73.5542 207.947 73.3302 208.162C73.1156 208.367 72.9382 208.615 72.7982 208.904C72.6676 209.193 72.5882 209.511 72.5602 209.856H77.5162Z" fill="black"/>
<circle cx="61" cy="139" r="30" fill="#0053F1"/>
<path d="M69.4615 127H52.5385C51.8652 127 51.2196 127.271 50.7435 127.753C50.2674 128.235 50 128.889 50 129.571V150.142C49.9997 150.305 50.0454 150.464 50.1315 150.602C50.2177 150.74 50.3409 150.849 50.4865 150.919C50.6322 150.988 50.7944 151.014 50.954 150.993C51.1136 150.972 51.264 150.906 51.3877 150.801L55.9231 146.97L59.9592 150.347C60.2633 150.604 60.6466 150.744 61.0423 150.744C61.4381 150.744 61.8213 150.604 62.1254 150.347L66.0769 146.97L70.6123 150.801C70.7645 150.929 70.9561 150.999 71.1538 150.999C71.2764 150.999 71.3977 150.973 71.5092 150.921C71.6561 150.853 71.7804 150.743 71.8674 150.604C71.9544 150.466 72.0004 150.305 72 150.142V129.571C72 128.889 71.7326 128.235 71.2565 127.753C70.7804 127.271 70.1348 127 69.4615 127ZM70.3077 148.316L67.16 145.659C66.8559 145.402 66.4727 145.262 66.0769 145.262C65.6812 145.262 65.2979 145.402 64.9938 145.659L61 149.027L56.9723 145.65C56.6682 145.394 56.285 145.253 55.8892 145.253C55.4935 145.253 55.1102 145.394 54.8062 145.65L51.6923 148.307V129.571C51.6923 129.344 51.7815 129.126 51.9401 128.965C52.0988 128.804 52.314 128.714 52.5385 128.714H69.4615C69.686 128.714 69.9012 128.804 70.0599 128.965C70.2185 129.126 70.3077 129.344 70.3077 129.571V148.316ZM67.7692 132.143C67.7692 132.37 67.6801 132.588 67.5214 132.749C67.3627 132.909 67.1475 133 66.9231 133H55.0769C54.8525 133 54.6373 132.909 54.4786 132.749C54.3199 132.588 54.2308 132.37 54.2308 132.143C54.2308 131.915 54.3199 131.697 54.4786 131.537C54.6373 131.376 54.8525 131.285 55.0769 131.285H66.9231C67.1475 131.285 67.3627 131.376 67.5214 131.537C67.6801 131.697 67.7692 131.915 67.7692 132.143ZM67.7692 136.428C67.7692 136.655 67.6801 136.873 67.5214 137.034C67.3627 137.195 67.1475 137.285 66.9231 137.285H55.0769C54.8525 137.285 54.6373 137.195 54.4786 137.034C54.3199 136.873 54.2308 136.655 54.2308 136.428C54.2308 136.201 54.3199 135.983 54.4786 135.822C54.6373 135.661 54.8525 135.571 55.0769 135.571H66.9231C67.1475 135.571 67.3627 135.661 67.5214 135.822C67.6801 135.983 67.7692 136.201 67.7692 136.428ZM67.7692 140.713C67.7692 140.941 67.6801 141.159 67.5214 141.32C67.3627 141.48 67.1475 141.571 66.9231 141.571H55.0769C54.8525 141.571 54.6373 141.48 54.4786 141.32C54.3199 141.159 54.2308 140.941 54.2308 140.713C54.2308 140.486 54.3199 140.268 54.4786 140.107C54.6373 139.947 54.8525 139.856 55.0769 139.856H66.9231C67.1475 139.856 67.3627 139.947 67.5214 140.107C67.6801 140.268 67.7692 140.486 67.7692 140.713Z" fill="white"/>
<rect width="60" height="40" transform="translate(269 179)" fill="#F6F6FC"/>
<path d="M286.586 194V184.06H293.152V185.18H287.846V188.498H292.312V189.548H287.846V194H286.586ZM294.553 185.32V183.78H295.785V185.32H294.553ZM294.553 194V186.692H295.785V194H294.553ZM297.807 183.78H299.039V192.11C299.039 192.511 299.095 192.759 299.207 192.852C299.319 192.945 299.454 192.992 299.613 192.992C299.809 192.992 299.996 192.973 300.173 192.936C300.35 192.889 300.5 192.843 300.621 192.796L300.817 193.804C300.612 193.888 300.369 193.958 300.089 194.014C299.809 194.07 299.562 194.098 299.347 194.098C298.871 194.098 298.493 193.963 298.213 193.692C297.942 193.421 297.807 193.043 297.807 192.558V183.78ZM305.019 194.14C304.291 194.14 303.647 193.967 303.087 193.622C302.527 193.277 302.088 192.815 301.771 192.236C301.454 191.657 301.295 191.027 301.295 190.346C301.295 189.655 301.454 189.025 301.771 188.456C302.088 187.887 302.527 187.429 303.087 187.084C303.656 186.739 304.305 186.566 305.033 186.566C305.77 186.566 306.41 186.743 306.951 187.098C307.502 187.443 307.926 187.901 308.225 188.47C308.533 189.03 308.687 189.637 308.687 190.29C308.687 190.495 308.678 190.654 308.659 190.766H302.597C302.634 191.242 302.765 191.667 302.989 192.04C303.222 192.404 303.521 192.693 303.885 192.908C304.249 193.113 304.641 193.216 305.061 193.216C305.509 193.216 305.929 193.104 306.321 192.88C306.722 192.656 306.998 192.362 307.147 191.998L308.211 192.292C307.978 192.833 307.572 193.277 306.993 193.622C306.414 193.967 305.756 194.14 305.019 194.14ZM302.555 189.912H307.539C307.502 189.436 307.366 189.016 307.133 188.652C306.9 188.288 306.601 188.003 306.237 187.798C305.873 187.593 305.472 187.49 305.033 187.49C304.604 187.49 304.207 187.593 303.843 187.798C303.479 188.003 303.18 188.288 302.947 188.652C302.723 189.016 302.592 189.436 302.555 189.912ZM283.396 206.384V214H282.136V204.06H283.2L289.276 211.83V204.074H290.536V214H289.388L283.396 206.384ZM295.783 214.14C295.055 214.14 294.411 213.967 293.851 213.622C293.3 213.267 292.871 212.805 292.563 212.236C292.255 211.657 292.101 211.032 292.101 210.36C292.101 209.679 292.255 209.053 292.563 208.484C292.88 207.905 293.314 207.443 293.865 207.098C294.425 206.743 295.064 206.566 295.783 206.566C296.511 206.566 297.15 206.743 297.701 207.098C298.261 207.443 298.695 207.905 299.003 208.484C299.32 209.053 299.479 209.679 299.479 210.36C299.479 211.032 299.32 211.657 299.003 212.236C298.695 212.805 298.265 213.267 297.715 213.622C297.164 213.967 296.52 214.14 295.783 214.14ZM293.361 210.374C293.361 210.878 293.468 211.335 293.683 211.746C293.907 212.157 294.201 212.483 294.565 212.726C294.929 212.959 295.335 213.076 295.783 213.076C296.231 213.076 296.637 212.955 297.001 212.712C297.374 212.469 297.668 212.143 297.883 211.732C298.107 211.312 298.219 210.85 298.219 210.346C298.219 209.842 298.107 209.385 297.883 208.974C297.668 208.563 297.374 208.237 297.001 207.994C296.637 207.751 296.231 207.63 295.783 207.63C295.335 207.63 294.929 207.756 294.565 208.008C294.201 208.251 293.907 208.577 293.683 208.988C293.468 209.399 293.361 209.861 293.361 210.374ZM300.496 210.36C300.496 209.669 300.636 209.039 300.916 208.47C301.205 207.891 301.597 207.429 302.092 207.084C302.596 206.739 303.17 206.566 303.814 206.566C304.402 206.566 304.929 206.72 305.396 207.028C305.862 207.336 306.226 207.709 306.488 208.148V203.78H307.72V212.6C307.72 212.889 307.85 213.039 308.112 213.048V214C307.878 214.037 307.696 214.056 307.566 214.056C307.323 214.056 307.108 213.972 306.922 213.804C306.744 213.636 306.656 213.449 306.656 213.244V212.628C306.366 213.095 305.979 213.463 305.494 213.734C305.008 214.005 304.504 214.14 303.982 214.14C303.31 214.14 302.708 213.967 302.176 213.622C301.653 213.267 301.242 212.805 300.944 212.236C300.645 211.657 300.496 211.032 300.496 210.36ZM306.488 211.438V209.338C306.376 209.021 306.194 208.736 305.942 208.484C305.69 208.223 305.405 208.017 305.088 207.868C304.78 207.709 304.472 207.63 304.164 207.63C303.688 207.63 303.268 207.761 302.904 208.022C302.549 208.283 302.269 208.624 302.064 209.044C301.868 209.464 301.77 209.907 301.77 210.374C301.77 210.859 301.877 211.307 302.092 211.718C302.316 212.129 302.619 212.46 303.002 212.712C303.384 212.955 303.809 213.076 304.276 213.076C304.574 213.076 304.882 213.006 305.2 212.866C305.517 212.717 305.797 212.516 306.04 212.264C306.282 212.012 306.432 211.737 306.488 211.438ZM313.01 214.14C312.282 214.14 311.638 213.967 311.078 213.622C310.518 213.277 310.08 212.815 309.762 212.236C309.445 211.657 309.286 211.027 309.286 210.346C309.286 209.655 309.445 209.025 309.762 208.456C310.08 207.887 310.518 207.429 311.078 207.084C311.648 206.739 312.296 206.566 313.024 206.566C313.762 206.566 314.401 206.743 314.942 207.098C315.493 207.443 315.918 207.901 316.216 208.47C316.524 209.03 316.678 209.637 316.678 210.29C316.678 210.495 316.669 210.654 316.65 210.766H310.588C310.626 211.242 310.756 211.667 310.98 212.04C311.214 212.404 311.512 212.693 311.876 212.908C312.24 213.113 312.632 213.216 313.052 213.216C313.5 213.216 313.92 213.104 314.312 212.88C314.714 212.656 314.989 212.362 315.138 211.998L316.202 212.292C315.969 212.833 315.563 213.277 314.984 213.622C314.406 213.967 313.748 214.14 313.01 214.14ZM310.546 209.912H315.53C315.493 209.436 315.358 209.016 315.124 208.652C314.891 208.288 314.592 208.003 314.228 207.798C313.864 207.593 313.463 207.49 313.024 207.49C312.595 207.49 312.198 207.593 311.834 207.798C311.47 208.003 311.172 208.288 310.938 208.652C310.714 209.016 310.584 209.436 310.546 209.912Z" fill="black"/>
<circle cx="299" cy="139" r="30" fill="#0053F1"/>
<path d="M300 137H305L299 143L293 137H298V130H300V137ZM291 146H307V139H309V147C309 147.265 308.895 147.52 308.707 147.707C308.52 147.895 308.265 148 308 148H290C289.735 148 289.48 147.895 289.293 147.707C289.105 147.52 289 147.265 289 147V139H291V146Z" fill="white"/>
<path d="M180 6C181.656 6 183 4.656 183 3C183 1.3425 181.656 0 180 0C178.344 0 177 1.3425 177 3C177 4.656 178.344 6 180 6ZM188.967 17.3745C188.39 14.712 187.38 10.3425 185.904 8.5335C184.469 6.774 181.577 6.7005 180 6.7005C178.424 6.7005 175.532 6.774 174.096 8.5335C172.62 10.3425 171.611 14.712 171.033 17.3745C170.714 18.849 172.764 19.3905 173.3 17.907C174.096 15.6975 174.711 13.842 176.058 12.303C176.766 16.6635 174.153 24.252 174 28.5C174 29.328 174.672 30 175.5 30C176.139 30 176.685 29.601 176.901 29.037C177.587 26.6565 180 20.0325 180 20.0325C180 20.0325 182.414 26.6565 183.099 29.037C183.315 29.601 183.861 30 184.5 30C185.328 30 186 29.328 186 28.5C185.847 24.252 183.234 16.6635 183.942 12.3045C185.289 13.8435 185.904 15.699 186.701 17.9085C187.235 19.3905 189.287 18.849 188.967 17.3745Z" fill="#0053F1"/>
<path d="M324.411 6.35607L324.455 6.4H324.518H335.25C335.542 6.4 335.822 6.51589 336.028 6.72218C336.234 6.92847 336.35 7.20826 336.35 7.5V25C336.35 25.2917 336.234 25.5715 336.028 25.7778C335.822 25.9841 335.542 26.1 335.25 26.1H312.75C312.458 26.1 312.178 25.9841 311.972 25.7778C311.766 25.5715 311.65 25.2917 311.65 25V5C311.65 4.70826 311.766 4.42847 311.972 4.22218C312.178 4.01589 312.458 3.9 312.75 3.9H321.955L324.411 6.35607ZM334.15 13.75V13.6H334H314H313.85V13.75V23.75V23.9H314H334H334.15V23.75V13.75ZM334 11.4H334.15V11.25V8.75V8.6H334H323.545L321.089 6.14393L321.045 6.1H320.983H314H313.85V6.25V11.25V11.4H314H334Z" fill="#9B9CA8" stroke="white" stroke-width="0.3"/>
<rect width="78" height="40" transform="translate(141 233)" fill="#F4F6FD"/>
<path d="M156.647 248.07C155.993 248.07 155.382 247.93 154.813 247.65C154.253 247.361 153.763 246.978 153.343 246.502C152.923 246.017 152.596 245.475 152.363 244.878C152.129 244.271 152.013 243.646 152.013 243.002C152.013 242.33 152.129 241.695 152.363 241.098C152.596 240.491 152.918 239.955 153.329 239.488C153.749 239.021 154.239 238.657 154.799 238.396C155.368 238.125 155.984 237.99 156.647 237.99C157.608 237.99 158.401 238.191 159.027 238.592C159.652 238.993 160.123 239.516 160.441 240.16L159.475 240.832C159.185 240.253 158.789 239.824 158.285 239.544C157.781 239.264 157.225 239.124 156.619 239.124C156.115 239.124 155.657 239.231 155.247 239.446C154.836 239.661 154.481 239.955 154.183 240.328C153.893 240.692 153.669 241.107 153.511 241.574C153.361 242.041 153.287 242.526 153.287 243.03C153.287 243.739 153.436 244.393 153.735 244.99C154.043 245.578 154.458 246.049 154.981 246.404C155.503 246.759 156.091 246.936 156.745 246.936C157.277 246.936 157.785 246.81 158.271 246.558C158.765 246.297 159.232 245.9 159.671 245.368V243.996H157.529V243.044H160.735V248H159.671V246.656C158.812 247.599 157.804 248.07 156.647 248.07ZM161.881 245.886C161.881 245.419 162.012 245.018 162.273 244.682C162.544 244.337 162.912 244.071 163.379 243.884C163.846 243.697 164.387 243.604 165.003 243.604C165.33 243.604 165.675 243.632 166.039 243.688C166.403 243.735 166.725 243.809 167.005 243.912V243.38C167.005 242.82 166.837 242.381 166.501 242.064C166.165 241.737 165.689 241.574 165.073 241.574C164.672 241.574 164.284 241.649 163.911 241.798C163.547 241.938 163.16 242.143 162.749 242.414L162.301 241.546C162.777 241.219 163.253 240.977 163.729 240.818C164.205 240.65 164.7 240.566 165.213 240.566C166.146 240.566 166.884 240.827 167.425 241.35C167.966 241.863 168.237 242.582 168.237 243.506V246.6C168.237 246.889 168.368 247.039 168.629 247.048V248C168.508 248.019 168.4 248.033 168.307 248.042C168.223 248.051 168.153 248.056 168.097 248.056C167.808 248.056 167.588 247.977 167.439 247.818C167.299 247.659 167.22 247.491 167.201 247.314L167.173 246.852C166.856 247.263 166.44 247.58 165.927 247.804C165.414 248.028 164.905 248.14 164.401 248.14C163.916 248.14 163.482 248.042 163.099 247.846C162.716 247.641 162.418 247.37 162.203 247.034C161.988 246.689 161.881 246.306 161.881 245.886ZM166.641 246.404C166.753 246.273 166.842 246.143 166.907 246.012C166.972 245.872 167.005 245.755 167.005 245.662V244.752C166.408 244.519 165.792 244.402 165.157 244.402C164.532 244.402 164.023 244.528 163.631 244.78C163.248 245.023 163.057 245.359 163.057 245.788C163.057 246.021 163.118 246.25 163.239 246.474C163.37 246.689 163.556 246.866 163.799 247.006C164.051 247.146 164.359 247.216 164.723 247.216C165.106 247.216 165.47 247.141 165.815 246.992C166.16 246.833 166.436 246.637 166.641 246.404ZM173.932 247.636C173.783 247.701 173.545 247.795 173.218 247.916C172.901 248.037 172.546 248.098 172.154 248.098C171.706 248.098 171.319 247.977 170.992 247.734C170.666 247.482 170.502 247.095 170.502 246.572V241.658H169.508V240.692H170.502V238.256H171.734V240.692H173.372V241.658H171.734V246.194C171.753 246.455 171.842 246.651 172 246.782C172.159 246.903 172.346 246.964 172.56 246.964C172.803 246.964 173.027 246.922 173.232 246.838C173.438 246.754 173.573 246.693 173.638 246.656L173.932 247.636ZM178.212 248.14C177.484 248.14 176.84 247.967 176.28 247.622C175.72 247.277 175.282 246.815 174.964 246.236C174.647 245.657 174.488 245.027 174.488 244.346C174.488 243.655 174.647 243.025 174.964 242.456C175.282 241.887 175.72 241.429 176.28 241.084C176.85 240.739 177.498 240.566 178.226 240.566C178.964 240.566 179.603 240.743 180.144 241.098C180.695 241.443 181.12 241.901 181.418 242.47C181.726 243.03 181.88 243.637 181.88 244.29C181.88 244.495 181.871 244.654 181.852 244.766H175.79C175.828 245.242 175.958 245.667 176.182 246.04C176.416 246.404 176.714 246.693 177.078 246.908C177.442 247.113 177.834 247.216 178.254 247.216C178.702 247.216 179.122 247.104 179.514 246.88C179.916 246.656 180.191 246.362 180.34 245.998L181.404 246.292C181.171 246.833 180.765 247.277 180.186 247.622C179.608 247.967 178.95 248.14 178.212 248.14ZM175.748 243.912H180.732C180.695 243.436 180.56 243.016 180.326 242.652C180.093 242.288 179.794 242.003 179.43 241.798C179.066 241.593 178.665 241.49 178.226 241.49C177.797 241.49 177.4 241.593 177.036 241.798C176.672 242.003 176.374 242.288 176.14 242.652C175.916 243.016 175.786 243.436 175.748 243.912ZM192.214 240.692H193.404L190.296 248H189.218L187.804 244.556L186.404 248H185.326L182.218 240.692H183.394L185.914 246.782L187.09 243.786L185.858 240.706H186.936L187.804 243.03L188.672 240.706H189.75L188.532 243.786L189.708 246.782L192.214 240.692ZM193.805 245.886C193.805 245.419 193.935 245.018 194.197 244.682C194.467 244.337 194.836 244.071 195.303 243.884C195.769 243.697 196.311 243.604 196.927 243.604C197.253 243.604 197.599 243.632 197.963 243.688C198.327 243.735 198.649 243.809 198.929 243.912V243.38C198.929 242.82 198.761 242.381 198.425 242.064C198.089 241.737 197.613 241.574 196.997 241.574C196.595 241.574 196.208 241.649 195.835 241.798C195.471 241.938 195.083 242.143 194.673 242.414L194.225 241.546C194.701 241.219 195.177 240.977 195.653 240.818C196.129 240.65 196.623 240.566 197.137 240.566C198.07 240.566 198.807 240.827 199.349 241.35C199.89 241.863 200.161 242.582 200.161 243.506V246.6C200.161 246.889 200.291 247.039 200.553 247.048V248C200.431 248.019 200.324 248.033 200.231 248.042C200.147 248.051 200.077 248.056 200.021 248.056C199.731 248.056 199.512 247.977 199.363 247.818C199.223 247.659 199.143 247.491 199.125 247.314L199.097 246.852C198.779 247.263 198.364 247.58 197.851 247.804C197.337 248.028 196.829 248.14 196.325 248.14C195.839 248.14 195.405 248.042 195.023 247.846C194.64 247.641 194.341 247.37 194.127 247.034C193.912 246.689 193.805 246.306 193.805 245.886ZM198.565 246.404C198.677 246.273 198.765 246.143 198.831 246.012C198.896 245.872 198.929 245.755 198.929 245.662V244.752C198.331 244.519 197.715 244.402 197.081 244.402C196.455 244.402 195.947 244.528 195.555 244.78C195.172 245.023 194.981 245.359 194.981 245.788C194.981 246.021 195.041 246.25 195.163 246.474C195.293 246.689 195.48 246.866 195.723 247.006C195.975 247.146 196.283 247.216 196.647 247.216C197.029 247.216 197.393 247.141 197.739 246.992C198.084 246.833 198.359 246.637 198.565 246.404ZM202.234 249.988C202.356 249.997 202.477 250.007 202.598 250.016C202.72 250.035 202.813 250.044 202.878 250.044C203.028 250.044 203.158 249.993 203.27 249.89C203.382 249.787 203.504 249.587 203.634 249.288C203.774 248.999 203.952 248.569 204.166 248L201.072 240.692H202.374L204.838 246.754L207.064 240.692H208.282L204.726 249.918C204.605 250.245 204.386 250.529 204.068 250.772C203.76 251.024 203.345 251.15 202.822 251.15C202.738 251.15 202.65 251.145 202.556 251.136C202.472 251.127 202.365 251.108 202.234 251.08V249.988ZM164.396 260.384V268H163.136V258.06H164.2L170.276 265.83V258.074H171.536V268H170.388L164.396 260.384ZM176.783 268.14C176.055 268.14 175.411 267.967 174.851 267.622C174.3 267.267 173.871 266.805 173.563 266.236C173.255 265.657 173.101 265.032 173.101 264.36C173.101 263.679 173.255 263.053 173.563 262.484C173.88 261.905 174.314 261.443 174.865 261.098C175.425 260.743 176.064 260.566 176.783 260.566C177.511 260.566 178.15 260.743 178.701 261.098C179.261 261.443 179.695 261.905 180.003 262.484C180.32 263.053 180.479 263.679 180.479 264.36C180.479 265.032 180.32 265.657 180.003 266.236C179.695 266.805 179.265 267.267 178.715 267.622C178.164 267.967 177.52 268.14 176.783 268.14ZM174.361 264.374C174.361 264.878 174.468 265.335 174.683 265.746C174.907 266.157 175.201 266.483 175.565 266.726C175.929 266.959 176.335 267.076 176.783 267.076C177.231 267.076 177.637 266.955 178.001 266.712C178.374 266.469 178.668 266.143 178.883 265.732C179.107 265.312 179.219 264.85 179.219 264.346C179.219 263.842 179.107 263.385 178.883 262.974C178.668 262.563 178.374 262.237 178.001 261.994C177.637 261.751 177.231 261.63 176.783 261.63C176.335 261.63 175.929 261.756 175.565 262.008C175.201 262.251 174.907 262.577 174.683 262.988C174.468 263.399 174.361 263.861 174.361 264.374ZM181.496 264.36C181.496 263.669 181.636 263.039 181.916 262.47C182.205 261.891 182.597 261.429 183.092 261.084C183.596 260.739 184.17 260.566 184.814 260.566C185.402 260.566 185.929 260.72 186.396 261.028C186.862 261.336 187.226 261.709 187.488 262.148V257.78H188.72V266.6C188.72 266.889 188.85 267.039 189.112 267.048V268C188.878 268.037 188.696 268.056 188.566 268.056C188.323 268.056 188.108 267.972 187.922 267.804C187.744 267.636 187.656 267.449 187.656 267.244V266.628C187.366 267.095 186.979 267.463 186.494 267.734C186.008 268.005 185.504 268.14 184.982 268.14C184.31 268.14 183.708 267.967 183.176 267.622C182.653 267.267 182.242 266.805 181.944 266.236C181.645 265.657 181.496 265.032 181.496 264.36ZM187.488 265.438V263.338C187.376 263.021 187.194 262.736 186.942 262.484C186.69 262.223 186.405 262.017 186.088 261.868C185.78 261.709 185.472 261.63 185.164 261.63C184.688 261.63 184.268 261.761 183.904 262.022C183.549 262.283 183.269 262.624 183.064 263.044C182.868 263.464 182.77 263.907 182.77 264.374C182.77 264.859 182.877 265.307 183.092 265.718C183.316 266.129 183.619 266.46 184.002 266.712C184.384 266.955 184.809 267.076 185.276 267.076C185.574 267.076 185.882 267.006 186.2 266.866C186.517 266.717 186.797 266.516 187.04 266.264C187.282 266.012 187.432 265.737 187.488 265.438ZM194.01 268.14C193.282 268.14 192.638 267.967 192.078 267.622C191.518 267.277 191.08 266.815 190.762 266.236C190.445 265.657 190.286 265.027 190.286 264.346C190.286 263.655 190.445 263.025 190.762 262.456C191.08 261.887 191.518 261.429 192.078 261.084C192.648 260.739 193.296 260.566 194.024 260.566C194.762 260.566 195.401 260.743 195.942 261.098C196.493 261.443 196.918 261.901 197.216 262.47C197.524 263.03 197.678 263.637 197.678 264.29C197.678 264.495 197.669 264.654 197.65 264.766H191.588C191.626 265.242 191.756 265.667 191.98 266.04C192.214 266.404 192.512 266.693 192.876 266.908C193.24 267.113 193.632 267.216 194.052 267.216C194.5 267.216 194.92 267.104 195.312 266.88C195.714 266.656 195.989 266.362 196.138 265.998L197.202 266.292C196.969 266.833 196.563 267.277 195.984 267.622C195.406 267.967 194.748 268.14 194.01 268.14ZM191.546 263.912H196.53C196.493 263.436 196.358 263.016 196.124 262.652C195.891 262.288 195.592 262.003 195.228 261.798C194.864 261.593 194.463 261.49 194.024 261.49C193.595 261.49 193.198 261.593 192.834 261.798C192.47 262.003 192.172 262.288 191.938 262.652C191.714 263.016 191.584 263.436 191.546 263.912Z" fill="black"/>
<circle cx="180" cy="193" r="30" fill="#0053F1"/>
<path fill-rule="evenodd" clip-rule="evenodd" d="M179 185H172V201H179V203H171C170.448 203 170 202.552 170 202V184C170 183.448 170.448 183 171 183H179V185ZM185.385 193V195H178V197H185.385V199L190 196L185.385 193ZM182.615 191L182.615 193L178 190L182.615 187L182.615 189H190V191H182.615Z" fill="white"/>
<path d="M168 419L161.938 410H174.062L168 419Z" fill="#F88419"/>
<path d="M192 281L198.062 290H185.938L192 281Z" fill="#9B9CA8"/>
<path d="M192 431L185.938 422H198.062L192 431Z" fill="#9B9CA8"/>
<path d="M61 109L54.9378 100L67.0622 100L61 109Z" fill="#F88419"/>
<path d="M203 15L212 8.93782L212 21.0622L203 15Z" fill="#9B9CA8"/>
<path d="M299 109L292.938 100H305.062L299 109Z" fill="#9B9CA8"/>
<path d="M271.888 153.133L266.925 162.783L261.081 152.16L271.888 153.133Z" fill="#9B9CA8"/>
<path d="M209.319 184.853L214.369 175.248L220.118 185.923L209.319 184.853Z" fill="#9B9CA8"/>
<path d="M150.839 185.448L140.114 187.095L145.282 176.127L150.839 185.448Z" fill="#F88419"/>
<path d="M269 139L260 145.062V132.938L269 139Z" fill="#F88419"/>
<path fill-rule="evenodd" clip-rule="evenodd" d="M290.657 474.386C294.576 481.502 300.2 487.812 307.061 492.162C320.973 500.981 330 515.302 330 531.471C330 558.218 305.13 580 274.451 580H85.5493C54.8055 580 30 558.273 30 531.471C30 512.832 42.076 496.605 59.7786 488.479C61.9371 487.488 63.3333 485.316 63.3333 482.941V482.941C63.3333 445.418 98.1556 415 141.111 415C162.299 415 181.509 422.401 195.536 434.405C204.394 441.985 216.683 445.694 228.28 444.492C230.666 444.245 233.094 444.118 235.556 444.118C259.827 444.118 280.794 456.478 290.657 474.386Z" fill="#F4F6FD"/>
<path d="M136.355 493C136.355 492.463 136.355 491.943 136.355 491.439C136.355 490.935 136.355 490.37 136.355 489.745V486.357C136.355 485.713 136.355 485.132 136.355 484.614C136.355 484.096 136.355 483.564 136.355 483.018C136.747 483.018 137.158 483.018 137.587 483.018C138.021 483.018 138.467 483.018 138.924 483.018C139.386 483.018 139.853 483.018 140.324 483.018C141.085 483.018 141.761 483.128 142.354 483.347C142.947 483.566 143.446 483.888 143.852 484.313C144.263 484.738 144.575 485.258 144.79 485.874C145.005 486.485 145.112 487.185 145.112 487.974C145.112 488.679 145.016 489.337 144.825 489.948C144.638 490.555 144.337 491.087 143.922 491.544C143.511 492.001 142.968 492.358 142.291 492.615C141.614 492.872 140.788 493 139.813 493C139.365 493 138.945 493 138.553 493C138.161 493 137.785 493 137.426 493C137.067 493 136.71 493 136.355 493ZM138.658 491.159H139.806C140.525 491.159 141.094 491.019 141.514 490.739C141.939 490.459 142.244 490.076 142.431 489.591C142.618 489.106 142.711 488.557 142.711 487.946C142.711 487.484 142.655 487.064 142.543 486.686C142.436 486.308 142.268 485.984 142.039 485.713C141.815 485.438 141.528 485.228 141.178 485.083C140.828 484.934 140.41 484.859 139.925 484.859H138.658C138.658 485.172 138.658 485.489 138.658 485.811C138.658 486.128 138.658 486.49 138.658 486.896V489.192C138.658 489.579 138.658 489.929 138.658 490.242C138.658 490.555 138.658 490.86 138.658 491.159ZM149.997 493.182C149.096 493.182 148.359 493.023 147.785 492.706C147.215 492.389 146.795 491.952 146.525 491.397C146.259 490.842 146.126 490.205 146.126 489.486C146.126 488.767 146.252 488.133 146.504 487.582C146.756 487.031 147.131 486.602 147.631 486.294C148.135 485.981 148.76 485.825 149.507 485.825C150.141 485.825 150.685 485.939 151.138 486.168C151.59 486.392 151.938 486.733 152.181 487.19C152.423 487.647 152.545 488.224 152.545 488.919C152.545 489.106 152.54 489.271 152.531 489.416C152.521 489.561 152.505 489.705 152.482 489.85L150.69 489.171C150.699 489.11 150.706 489.047 150.711 488.982C150.715 488.917 150.718 488.856 150.718 488.8C150.718 488.329 150.606 487.96 150.382 487.694C150.162 487.423 149.878 487.288 149.528 487.288C149.262 487.288 149.026 487.367 148.821 487.526C148.615 487.68 148.454 487.897 148.338 488.177C148.221 488.457 148.163 488.791 148.163 489.178V489.521C148.163 489.927 148.235 490.275 148.38 490.564C148.529 490.853 148.758 491.075 149.066 491.229C149.374 491.383 149.768 491.46 150.249 491.46C150.435 491.46 150.65 491.444 150.893 491.411C151.14 491.374 151.39 491.32 151.642 491.25C151.898 491.175 152.136 491.082 152.356 490.97L152.426 492.734C152.244 492.818 152.031 492.895 151.789 492.965C151.551 493.03 151.28 493.082 150.977 493.119C150.673 493.161 150.347 493.182 149.997 493.182ZM146.931 489.85V488.73L151.264 488.639L152.482 488.982V489.85H146.931ZM157.198 493.154C156.405 493.154 155.733 492.998 155.182 492.685C154.631 492.368 154.211 491.936 153.922 491.39C153.633 490.844 153.488 490.221 153.488 489.521C153.488 488.816 153.621 488.186 153.887 487.631C154.158 487.071 154.557 486.632 155.084 486.315C155.616 485.993 156.276 485.832 157.065 485.832C157.345 485.832 157.62 485.853 157.891 485.895C158.166 485.937 158.425 485.995 158.668 486.07C158.911 486.145 159.128 486.233 159.319 486.336L159.165 488.142C158.899 487.988 158.654 487.874 158.43 487.799C158.211 487.72 158.012 487.668 157.835 487.645C157.658 487.617 157.499 487.603 157.359 487.603C156.832 487.603 156.409 487.771 156.092 488.107C155.779 488.438 155.623 488.889 155.623 489.458C155.623 489.845 155.7 490.188 155.854 490.487C156.013 490.781 156.244 491.012 156.547 491.18C156.855 491.348 157.233 491.432 157.681 491.432C157.854 491.432 158.026 491.416 158.199 491.383C158.372 491.35 158.542 491.301 158.71 491.236C158.883 491.171 159.046 491.087 159.2 490.984L159.305 492.79C159.146 492.86 158.962 492.923 158.752 492.979C158.547 493.03 158.316 493.072 158.059 493.105C157.802 493.138 157.515 493.154 157.198 493.154ZM164.147 493.182C163.246 493.182 162.509 493.023 161.935 492.706C161.366 492.389 160.946 491.952 160.675 491.397C160.409 490.842 160.276 490.205 160.276 489.486C160.276 488.767 160.402 488.133 160.654 487.582C160.906 487.031 161.282 486.602 161.781 486.294C162.285 485.981 162.91 485.825 163.657 485.825C164.292 485.825 164.835 485.939 165.288 486.168C165.741 486.392 166.088 486.733 166.331 487.19C166.574 487.647 166.695 488.224 166.695 488.919C166.695 489.106 166.69 489.271 166.681 489.416C166.672 489.561 166.655 489.705 166.632 489.85L164.84 489.171C164.849 489.11 164.856 489.047 164.861 488.982C164.866 488.917 164.868 488.856 164.868 488.8C164.868 488.329 164.756 487.96 164.532 487.694C164.313 487.423 164.028 487.288 163.678 487.288C163.412 487.288 163.176 487.367 162.971 487.526C162.766 487.68 162.605 487.897 162.488 488.177C162.371 488.457 162.313 488.791 162.313 489.178V489.521C162.313 489.927 162.385 490.275 162.53 490.564C162.679 490.853 162.908 491.075 163.216 491.229C163.524 491.383 163.918 491.46 164.399 491.46C164.586 491.46 164.8 491.444 165.043 491.411C165.29 491.374 165.54 491.32 165.792 491.25C166.049 491.175 166.287 491.082 166.506 490.97L166.576 492.734C166.394 492.818 166.182 492.895 165.939 492.965C165.701 493.03 165.43 493.082 165.127 493.119C164.824 493.161 164.497 493.182 164.147 493.182ZM161.081 489.85V488.73L165.414 488.639L166.632 488.982V489.85H161.081ZM168.016 493C168.016 492.501 168.016 492.018 168.016 491.551C168.016 491.08 168.016 490.555 168.016 489.976V489.276C168.016 488.739 168.016 488.2 168.016 487.659C168.016 487.118 168.016 486.569 168.016 486.014L169.773 485.909L169.864 487.127H170.039C170.198 486.898 170.389 486.686 170.613 486.49C170.837 486.289 171.094 486.128 171.383 486.007C171.677 485.886 172.011 485.825 172.384 485.825C173.084 485.825 173.614 486.033 173.973 486.448C174.333 486.859 174.512 487.475 174.512 488.296C174.512 488.604 174.512 488.891 174.512 489.157C174.512 489.418 174.512 489.691 174.512 489.976C174.512 490.545 174.512 491.068 174.512 491.544C174.512 492.015 174.512 492.501 174.512 493H172.426C172.426 492.501 172.426 492.018 172.426 491.551C172.426 491.084 172.426 490.597 172.426 490.088V488.968C172.426 488.557 172.359 488.249 172.223 488.044C172.088 487.834 171.845 487.729 171.495 487.729C171.295 487.729 171.11 487.771 170.942 487.855C170.774 487.934 170.62 488.044 170.48 488.184C170.34 488.319 170.217 488.471 170.109 488.639V490.088C170.109 490.611 170.109 491.103 170.109 491.565C170.109 492.022 170.109 492.501 170.109 493H168.016ZM179.099 493.189C178.581 493.189 178.138 493.112 177.769 492.958C177.405 492.799 177.125 492.547 176.929 492.202C176.738 491.857 176.642 491.402 176.642 490.837C176.642 490.534 176.642 490.223 176.642 489.906C176.642 489.584 176.642 489.248 176.642 488.898C176.642 488.548 176.642 488.179 176.642 487.792C176.642 487.405 176.642 486.987 176.642 486.539C176.642 486.012 176.642 485.529 176.642 485.09C176.642 484.651 176.642 484.203 176.642 483.746L178.7 483.375C178.7 483.739 178.7 484.084 178.7 484.411C178.7 484.733 178.7 485.067 178.7 485.412C178.7 485.753 178.7 486.128 178.7 486.539V490.179C178.7 490.604 178.777 490.928 178.931 491.152C179.09 491.371 179.346 491.481 179.701 491.481C179.85 491.481 180.014 491.455 180.191 491.404C180.368 491.348 180.539 491.262 180.702 491.145L180.821 492.839C180.7 492.914 180.546 492.977 180.359 493.028C180.172 493.079 179.969 493.119 179.75 493.147C179.531 493.175 179.314 493.189 179.099 493.189ZM175.508 487.589V486.014H180.786V487.589C180.347 487.589 179.906 487.589 179.463 487.589C179.024 487.589 178.6 487.589 178.189 487.589H177.258H175.508ZM182.03 493C182.03 492.501 182.03 492.018 182.03 491.551C182.03 491.08 182.03 490.555 182.03 489.976V489.276C182.03 488.739 182.03 488.2 182.03 487.659C182.03 487.118 182.03 486.569 182.03 486.014L183.787 485.909L183.878 487.197H184.053C184.235 486.819 184.436 486.532 184.655 486.336C184.874 486.135 185.098 486 185.327 485.93C185.556 485.86 185.775 485.825 185.985 485.825C186.092 485.825 186.211 485.834 186.342 485.853C186.477 485.872 186.603 485.904 186.72 485.951L186.538 487.981C186.356 487.967 186.193 487.955 186.048 487.946C185.903 487.937 185.749 487.932 185.586 487.932C185.455 487.932 185.32 487.946 185.18 487.974C185.045 488.002 184.912 488.058 184.781 488.142C184.65 488.226 184.529 488.343 184.417 488.492C184.305 488.641 184.207 488.835 184.123 489.073V490.088C184.123 490.611 184.123 491.103 184.123 491.565C184.123 492.022 184.123 492.501 184.123 493H182.03ZM189.308 493.168C188.906 493.168 188.556 493.084 188.258 492.916C187.959 492.748 187.726 492.512 187.558 492.209C187.39 491.901 187.306 491.537 187.306 491.117C187.306 490.72 187.376 490.389 187.516 490.123C187.656 489.852 187.835 489.633 188.055 489.465C188.279 489.297 188.521 489.169 188.783 489.08C189.049 488.991 189.308 488.926 189.56 488.884L191.506 488.583C191.515 488.312 191.464 488.102 191.352 487.953C191.24 487.799 191.076 487.692 190.862 487.631C190.652 487.57 190.4 487.54 190.106 487.54C189.947 487.54 189.774 487.554 189.588 487.582C189.401 487.605 189.205 487.643 189 487.694C188.799 487.745 188.589 487.808 188.37 487.883C188.155 487.958 187.938 488.049 187.719 488.156L187.621 486.371C187.793 486.31 187.992 486.247 188.216 486.182C188.44 486.117 188.682 486.058 188.944 486.007C189.205 485.951 189.48 485.907 189.77 485.874C190.064 485.841 190.365 485.825 190.673 485.825C191.256 485.825 191.753 485.911 192.164 486.084C192.579 486.252 192.896 486.518 193.116 486.882C193.335 487.246 193.445 487.722 193.445 488.31C193.445 488.539 193.445 488.819 193.445 489.15C193.445 489.481 193.445 489.778 193.445 490.039V490.704C193.445 491.059 193.445 491.425 193.445 491.803C193.445 492.176 193.445 492.575 193.445 493H191.66L191.527 492.069H191.366C191.24 492.246 191.081 492.421 190.89 492.594C190.698 492.762 190.47 492.9 190.204 493.007C189.942 493.114 189.644 493.168 189.308 493.168ZM190.141 491.551C190.304 491.551 190.467 491.514 190.631 491.439C190.794 491.36 190.946 491.25 191.086 491.11C191.226 490.965 191.347 490.795 191.45 490.599V489.528C191.394 489.57 191.321 489.61 191.233 489.647C191.149 489.68 191.023 489.717 190.855 489.759C190.691 489.796 190.463 489.845 190.169 489.906C190.001 489.939 189.856 489.995 189.735 490.074C189.613 490.153 189.518 490.256 189.448 490.382C189.382 490.503 189.35 490.648 189.35 490.816C189.35 491.082 189.429 491.271 189.588 491.383C189.751 491.495 189.935 491.551 190.141 491.551ZM195.046 493C195.046 492.501 195.046 492.018 195.046 491.551C195.046 491.08 195.046 490.555 195.046 489.976V486.091C195.046 485.522 195.046 484.959 195.046 484.404C195.046 483.844 195.046 483.289 195.046 482.738L197.139 482.556C197.139 483.107 197.139 483.674 197.139 484.257C197.139 484.836 197.139 485.447 197.139 486.091V489.976C197.139 490.555 197.139 491.08 197.139 491.551C197.139 492.018 197.139 492.501 197.139 493H195.046ZM198.902 493C198.902 492.501 198.902 492.018 198.902 491.551C198.902 491.08 198.902 490.555 198.902 489.976V489.276C198.902 488.814 198.902 488.401 198.902 488.037C198.902 487.668 198.902 487.323 198.902 487.001C198.902 486.674 198.902 486.345 198.902 486.014L200.995 485.951C200.995 486.287 200.995 486.621 200.995 486.952C200.995 487.283 200.995 487.636 200.995 488.009C200.995 488.382 200.995 488.805 200.995 489.276V489.976C200.995 490.555 200.995 491.08 200.995 491.551C200.995 492.018 200.995 492.501 200.995 493H198.902ZM199.931 484.936C199.544 484.936 199.233 484.845 199 484.663C198.771 484.476 198.657 484.175 198.657 483.76C198.657 483.387 198.771 483.102 199 482.906C199.233 482.705 199.548 482.605 199.945 482.605C200.342 482.605 200.652 482.71 200.876 482.92C201.105 483.125 201.219 483.405 201.219 483.76C201.219 484.175 201.105 484.476 200.876 484.663C200.647 484.845 200.332 484.936 199.931 484.936ZM202.337 493V492.02C202.682 491.567 203.02 491.126 203.352 490.697C203.683 490.263 204 489.848 204.304 489.451L206.187 486.987L206.439 487.603H205.095C204.871 487.603 204.605 487.603 204.297 487.603C203.993 487.603 203.676 487.603 203.345 487.603C203.013 487.603 202.698 487.603 202.4 487.603V486.014H208.49V487.183C208.326 487.393 208.14 487.633 207.93 487.904C207.724 488.17 207.51 488.448 207.286 488.737C207.066 489.022 206.854 489.297 206.649 489.563L204.829 491.915L204.633 491.411H206.103C206.327 491.411 206.588 491.411 206.887 491.411C207.185 491.411 207.493 491.411 207.811 491.411C208.128 491.411 208.422 491.411 208.693 491.411V493H202.337ZM213.434 493.182C212.534 493.182 211.796 493.023 211.222 492.706C210.653 492.389 210.233 491.952 209.962 491.397C209.696 490.842 209.563 490.205 209.563 489.486C209.563 488.767 209.689 488.133 209.941 487.582C210.193 487.031 210.569 486.602 211.068 486.294C211.572 485.981 212.198 485.825 212.944 485.825C213.579 485.825 214.123 485.939 214.575 486.168C215.028 486.392 215.376 486.733 215.618 487.19C215.861 487.647 215.982 488.224 215.982 488.919C215.982 489.106 215.978 489.271 215.968 489.416C215.959 489.561 215.943 489.705 215.919 489.85L214.127 489.171C214.137 489.11 214.144 489.047 214.148 488.982C214.153 488.917 214.155 488.856 214.155 488.8C214.155 488.329 214.043 487.96 213.819 487.694C213.6 487.423 213.315 487.288 212.965 487.288C212.699 487.288 212.464 487.367 212.258 487.526C212.053 487.68 211.892 487.897 211.775 488.177C211.659 488.457 211.6 488.791 211.6 489.178V489.521C211.6 489.927 211.673 490.275 211.817 490.564C211.967 490.853 212.195 491.075 212.503 491.229C212.811 491.383 213.206 491.46 213.686 491.46C213.873 491.46 214.088 491.444 214.33 491.411C214.578 491.374 214.827 491.32 215.079 491.25C215.336 491.175 215.574 491.082 215.793 490.97L215.863 492.734C215.681 492.818 215.469 492.895 215.226 492.965C214.988 493.03 214.718 493.082 214.414 493.119C214.111 493.161 213.784 493.182 213.434 493.182ZM210.368 489.85V488.73L214.701 488.639L215.919 488.982V489.85H210.368ZM219.753 493.189C219.114 493.189 218.587 493.016 218.171 492.671C217.756 492.326 217.448 491.873 217.247 491.313C217.047 490.753 216.946 490.149 216.946 489.5C216.946 488.805 217.051 488.179 217.261 487.624C217.476 487.069 217.793 486.63 218.213 486.308C218.633 485.986 219.154 485.825 219.774 485.825C220.05 485.825 220.304 485.862 220.537 485.937C220.771 486.007 220.976 486.11 221.153 486.245C221.335 486.38 221.489 486.541 221.615 486.728H221.783V486.091C221.783 485.522 221.783 484.962 221.783 484.411C221.783 483.856 221.783 483.298 221.783 482.738L223.869 482.556C223.869 483.107 223.869 483.674 223.869 484.257C223.869 484.836 223.869 485.447 223.869 486.091V489.976C223.869 490.555 223.869 491.08 223.869 491.551C223.869 492.018 223.869 492.501 223.869 493H222.098L221.972 492.083H221.825C221.657 492.321 221.468 492.522 221.258 492.685C221.053 492.848 220.824 492.972 220.572 493.056C220.325 493.145 220.052 493.189 219.753 493.189ZM220.544 491.411C220.736 491.411 220.908 491.378 221.062 491.313C221.221 491.248 221.359 491.157 221.475 491.04C221.597 490.923 221.699 490.786 221.783 490.627V488.247C221.69 488.116 221.578 488.004 221.447 487.911C221.321 487.818 221.181 487.748 221.027 487.701C220.873 487.65 220.715 487.624 220.551 487.624C220.225 487.624 219.952 487.71 219.732 487.883C219.518 488.056 219.354 488.287 219.242 488.576C219.135 488.861 219.081 489.173 219.081 489.514C219.081 489.841 219.133 490.149 219.235 490.438C219.343 490.723 219.504 490.956 219.718 491.138C219.938 491.32 220.213 491.411 220.544 491.411ZM137.008 517.189C136.196 517.189 135.466 517.065 134.817 516.818C134.168 516.571 133.613 516.218 133.151 515.761C132.694 515.299 132.344 514.753 132.101 514.123C131.858 513.488 131.737 512.786 131.737 512.016C131.737 511.017 131.94 510.126 132.346 509.342C132.752 508.553 133.335 507.935 134.096 507.487C134.857 507.039 135.767 506.815 136.826 506.815C137.148 506.815 137.465 506.836 137.778 506.878C138.095 506.92 138.399 506.976 138.688 507.046C138.977 507.116 139.246 507.198 139.493 507.291C139.745 507.38 139.969 507.475 140.165 507.578L139.99 509.72C139.626 509.491 139.276 509.309 138.94 509.174C138.604 509.034 138.28 508.934 137.967 508.873C137.659 508.808 137.365 508.775 137.085 508.775C136.516 508.775 136.009 508.901 135.566 509.153C135.123 509.4 134.773 509.767 134.516 510.252C134.264 510.733 134.138 511.321 134.138 512.016C134.138 512.459 134.203 512.879 134.334 513.276C134.465 513.668 134.661 514.016 134.922 514.319C135.188 514.622 135.519 514.86 135.916 515.033C136.313 515.206 136.777 515.292 137.309 515.292C137.528 515.292 137.748 515.278 137.967 515.25C138.191 515.217 138.415 515.168 138.639 515.103C138.863 515.038 139.087 514.949 139.311 514.837C139.535 514.72 139.759 514.58 139.983 514.417L140.109 516.531C139.908 516.643 139.687 516.741 139.444 516.825C139.201 516.909 138.945 516.977 138.674 517.028C138.408 517.084 138.133 517.124 137.848 517.147C137.568 517.175 137.288 517.189 137.008 517.189ZM141.643 517C141.643 516.501 141.643 516.018 141.643 515.551C141.643 515.08 141.643 514.555 141.643 513.976V510.091C141.643 509.522 141.643 508.959 141.643 508.404C141.643 507.844 141.643 507.289 141.643 506.738L143.736 506.556C143.736 507.107 143.736 507.674 143.736 508.257C143.736 508.836 143.736 509.447 143.736 510.091V513.976C143.736 514.555 143.736 515.08 143.736 515.551C143.736 516.018 143.736 516.501 143.736 517H141.643ZM148.811 517.189C148.176 517.189 147.623 517.089 147.152 516.888C146.685 516.687 146.298 516.414 145.99 516.069C145.686 515.724 145.458 515.329 145.304 514.886C145.154 514.438 145.08 513.971 145.08 513.486C145.08 512.791 145.22 512.168 145.5 511.617C145.784 511.062 146.2 510.625 146.746 510.308C147.296 509.986 147.971 509.825 148.769 509.825C149.385 509.825 149.924 509.918 150.386 510.105C150.852 510.287 151.24 510.546 151.548 510.882C151.86 511.213 152.094 511.603 152.248 512.051C152.402 512.494 152.479 512.973 152.479 513.486C152.479 514.191 152.336 514.823 152.052 515.383C151.767 515.938 151.352 516.379 150.806 516.706C150.26 517.028 149.595 517.189 148.811 517.189ZM148.804 515.481C149.154 515.481 149.441 515.388 149.665 515.201C149.893 515.01 150.064 514.762 150.176 514.459C150.292 514.156 150.351 513.831 150.351 513.486C150.351 513.075 150.285 512.725 150.155 512.436C150.024 512.142 149.842 511.918 149.609 511.764C149.375 511.61 149.105 511.533 148.797 511.533C148.451 511.533 148.16 511.619 147.922 511.792C147.688 511.965 147.511 512.198 147.39 512.492C147.273 512.786 147.215 513.117 147.215 513.486C147.215 513.831 147.273 514.156 147.39 514.459C147.511 514.762 147.688 515.01 147.922 515.201C148.16 515.388 148.454 515.481 148.804 515.481ZM155.827 517.189C155.127 517.189 154.597 516.981 154.238 516.566C153.879 516.151 153.699 515.532 153.699 514.711C153.699 514.398 153.699 514.128 153.699 513.899C153.699 513.67 153.699 513.435 153.699 513.192C153.699 512.73 153.699 512.324 153.699 511.974C153.699 511.619 153.699 511.288 153.699 510.98C153.699 510.667 153.699 510.345 153.699 510.014L155.792 509.951C155.792 510.45 155.792 510.943 155.792 511.428C155.792 511.909 155.792 512.408 155.792 512.926V514.088C155.792 514.494 155.86 514.802 155.995 515.012C156.13 515.217 156.373 515.32 156.723 515.32C156.914 515.32 157.092 515.28 157.255 515.201C157.423 515.117 157.575 515.007 157.71 514.872C157.845 514.732 157.969 514.578 158.081 514.41V512.926C158.081 512.408 158.081 511.918 158.081 511.456C158.081 510.989 158.081 510.509 158.081 510.014H160.174C160.174 510.509 160.174 510.999 160.174 511.484C160.174 511.969 160.174 512.539 160.174 513.192V513.976C160.174 514.555 160.174 515.08 160.174 515.551C160.174 516.018 160.174 516.501 160.174 517H158.417L158.326 515.887H158.144C157.99 516.111 157.801 516.323 157.577 516.524C157.358 516.72 157.101 516.879 156.807 517C156.518 517.126 156.191 517.189 155.827 517.189ZM164.259 517.189C163.62 517.189 163.093 517.016 162.677 516.671C162.262 516.326 161.954 515.873 161.753 515.313C161.553 514.753 161.452 514.149 161.452 513.5C161.452 512.805 161.557 512.179 161.767 511.624C161.982 511.069 162.299 510.63 162.719 510.308C163.139 509.986 163.66 509.825 164.28 509.825C164.556 509.825 164.81 509.862 165.043 509.937C165.277 510.007 165.482 510.11 165.659 510.245C165.841 510.38 165.995 510.541 166.121 510.728H166.289V510.091C166.289 509.522 166.289 508.962 166.289 508.411C166.289 507.856 166.289 507.298 166.289 506.738L168.375 506.556C168.375 507.107 168.375 507.674 168.375 508.257C168.375 508.836 168.375 509.447 168.375 510.091V513.976C168.375 514.555 168.375 515.08 168.375 515.551C168.375 516.018 168.375 516.501 168.375 517H166.604L166.478 516.083H166.331C166.163 516.321 165.974 516.522 165.764 516.685C165.559 516.848 165.33 516.972 165.078 517.056C164.831 517.145 164.558 517.189 164.259 517.189ZM165.05 515.411C165.242 515.411 165.414 515.378 165.568 515.313C165.727 515.248 165.865 515.157 165.981 515.04C166.103 514.923 166.205 514.786 166.289 514.627V512.247C166.196 512.116 166.084 512.004 165.953 511.911C165.827 511.818 165.687 511.748 165.533 511.701C165.379 511.65 165.221 511.624 165.057 511.624C164.731 511.624 164.458 511.71 164.238 511.883C164.024 512.056 163.86 512.287 163.748 512.576C163.641 512.861 163.587 513.173 163.587 513.514C163.587 513.841 163.639 514.149 163.741 514.438C163.849 514.723 164.01 514.956 164.224 515.138C164.444 515.32 164.719 515.411 165.05 515.411ZM175.975 517.182C175.56 517.182 175.133 517.147 174.694 517.077C174.26 517.012 173.852 516.925 173.469 516.818C173.091 516.711 172.783 516.599 172.545 516.482L172.713 514.459C173.035 514.641 173.371 514.797 173.721 514.928C174.076 515.054 174.428 515.152 174.778 515.222C175.133 515.292 175.471 515.327 175.793 515.327C176.115 515.327 176.395 515.287 176.633 515.208C176.871 515.129 177.056 515.01 177.186 514.851C177.317 514.688 177.382 514.478 177.382 514.221C177.382 513.96 177.296 513.745 177.123 513.577C176.955 513.404 176.713 513.255 176.395 513.129C176.078 512.998 175.7 512.87 175.261 512.744C174.655 512.567 174.137 512.361 173.707 512.128C173.278 511.89 172.949 511.587 172.72 511.218C172.496 510.845 172.384 510.366 172.384 509.783C172.384 509.2 172.513 508.686 172.769 508.243C173.026 507.795 173.413 507.445 173.931 507.193C174.449 506.941 175.105 506.815 175.898 506.815C176.211 506.815 176.524 506.836 176.836 506.878C177.149 506.915 177.452 506.967 177.746 507.032C178.045 507.097 178.32 507.172 178.572 507.256C178.824 507.34 179.044 507.429 179.23 507.522L179.055 509.552C178.757 509.365 178.446 509.209 178.124 509.083C177.802 508.957 177.487 508.861 177.179 508.796C176.871 508.731 176.591 508.698 176.339 508.698C176.055 508.698 175.796 508.735 175.562 508.81C175.334 508.885 175.152 508.999 175.016 509.153C174.881 509.307 174.813 509.501 174.813 509.734C174.813 509.963 174.876 510.156 175.002 510.315C175.133 510.469 175.331 510.607 175.597 510.728C175.868 510.845 176.216 510.966 176.64 511.092C177.438 511.33 178.068 511.58 178.53 511.841C178.992 512.098 179.319 512.408 179.51 512.772C179.706 513.136 179.804 513.593 179.804 514.144C179.804 514.755 179.671 515.29 179.405 515.747C179.139 516.2 178.724 516.552 178.159 516.804C177.595 517.056 176.867 517.182 175.975 517.182ZM183.939 517.189C183.421 517.189 182.978 517.112 182.609 516.958C182.245 516.799 181.965 516.547 181.769 516.202C181.578 515.857 181.482 515.402 181.482 514.837C181.482 514.534 181.482 514.223 181.482 513.906C181.482 513.584 181.482 513.248 181.482 512.898C181.482 512.548 181.482 512.179 181.482 511.792C181.482 511.405 181.482 510.987 181.482 510.539C181.482 510.012 181.482 509.529 181.482 509.09C181.482 508.651 181.482 508.203 181.482 507.746L183.54 507.375C183.54 507.739 183.54 508.084 183.54 508.411C183.54 508.733 183.54 509.067 183.54 509.412C183.54 509.753 183.54 510.128 183.54 510.539V514.179C183.54 514.604 183.617 514.928 183.771 515.152C183.93 515.371 184.186 515.481 184.541 515.481C184.69 515.481 184.854 515.455 185.031 515.404C185.208 515.348 185.379 515.262 185.542 515.145L185.661 516.839C185.54 516.914 185.386 516.977 185.199 517.028C185.012 517.079 184.809 517.119 184.59 517.147C184.371 517.175 184.154 517.189 183.939 517.189ZM180.348 511.589V510.014H185.626V511.589C185.187 511.589 184.746 511.589 184.303 511.589C183.864 511.589 183.44 511.589 183.029 511.589H182.098H180.348ZM190.168 517.189C189.533 517.189 188.98 517.089 188.509 516.888C188.042 516.687 187.655 516.414 187.347 516.069C187.044 515.724 186.815 515.329 186.661 514.886C186.512 514.438 186.437 513.971 186.437 513.486C186.437 512.791 186.577 512.168 186.857 511.617C187.142 511.062 187.557 510.625 188.103 510.308C188.654 509.986 189.328 509.825 190.126 509.825C190.742 509.825 191.281 509.918 191.743 510.105C192.21 510.287 192.597 510.546 192.905 510.882C193.218 511.213 193.451 511.603 193.605 512.051C193.759 512.494 193.836 512.973 193.836 513.486C193.836 514.191 193.694 514.823 193.409 515.383C193.124 515.938 192.709 516.379 192.163 516.706C191.617 517.028 190.952 517.189 190.168 517.189ZM190.161 515.481C190.511 515.481 190.798 515.388 191.022 515.201C191.251 515.01 191.421 514.762 191.533 514.459C191.65 514.156 191.708 513.831 191.708 513.486C191.708 513.075 191.643 512.725 191.512 512.436C191.381 512.142 191.199 511.918 190.966 511.764C190.733 511.61 190.462 511.533 190.154 511.533C189.809 511.533 189.517 511.619 189.279 511.792C189.046 511.965 188.868 512.198 188.747 512.492C188.63 512.786 188.572 513.117 188.572 513.486C188.572 513.831 188.63 514.156 188.747 514.459C188.868 514.762 189.046 515.01 189.279 515.201C189.517 515.388 189.811 515.481 190.161 515.481ZM195.182 517C195.182 516.501 195.182 516.018 195.182 515.551C195.182 515.08 195.182 514.555 195.182 513.976V513.276C195.182 512.739 195.182 512.2 195.182 511.659C195.182 511.118 195.182 510.569 195.182 510.014L196.939 509.909L197.03 511.197H197.205C197.387 510.819 197.588 510.532 197.807 510.336C198.027 510.135 198.251 510 198.479 509.93C198.708 509.86 198.927 509.825 199.137 509.825C199.245 509.825 199.364 509.834 199.494 509.853C199.63 509.872 199.756 509.904 199.872 509.951L199.69 511.981C199.508 511.967 199.345 511.955 199.2 511.946C199.056 511.937 198.902 511.932 198.738 511.932C198.608 511.932 198.472 511.946 198.332 511.974C198.197 512.002 198.064 512.058 197.933 512.142C197.803 512.226 197.681 512.343 197.569 512.492C197.457 512.641 197.359 512.835 197.275 513.073V514.088C197.275 514.611 197.275 515.103 197.275 515.565C197.275 516.022 197.275 516.501 197.275 517H195.182ZM202.46 517.168C202.059 517.168 201.709 517.084 201.41 516.916C201.111 516.748 200.878 516.512 200.71 516.209C200.542 515.901 200.458 515.537 200.458 515.117C200.458 514.72 200.528 514.389 200.668 514.123C200.808 513.852 200.988 513.633 201.207 513.465C201.431 513.297 201.674 513.169 201.935 513.08C202.201 512.991 202.46 512.926 202.712 512.884L204.658 512.583C204.667 512.312 204.616 512.102 204.504 511.953C204.392 511.799 204.229 511.692 204.014 511.631C203.804 511.57 203.552 511.54 203.258 511.54C203.099 511.54 202.927 511.554 202.74 511.582C202.553 511.605 202.357 511.643 202.152 511.694C201.951 511.745 201.741 511.808 201.522 511.883C201.307 511.958 201.09 512.049 200.871 512.156L200.773 510.371C200.946 510.31 201.144 510.247 201.368 510.182C201.592 510.117 201.835 510.058 202.096 510.007C202.357 509.951 202.633 509.907 202.922 509.874C203.216 509.841 203.517 509.825 203.825 509.825C204.408 509.825 204.905 509.911 205.316 510.084C205.731 510.252 206.049 510.518 206.268 510.882C206.487 511.246 206.597 511.722 206.597 512.31C206.597 512.539 206.597 512.819 206.597 513.15C206.597 513.481 206.597 513.778 206.597 514.039V514.704C206.597 515.059 206.597 515.425 206.597 515.803C206.597 516.176 206.597 516.575 206.597 517H204.812L204.679 516.069H204.518C204.392 516.246 204.233 516.421 204.042 516.594C203.851 516.762 203.622 516.9 203.356 517.007C203.095 517.114 202.796 517.168 202.46 517.168ZM203.293 515.551C203.456 515.551 203.62 515.514 203.783 515.439C203.946 515.36 204.098 515.25 204.238 515.11C204.378 514.965 204.499 514.795 204.602 514.599V513.528C204.546 513.57 204.474 513.61 204.385 513.647C204.301 513.68 204.175 513.717 204.007 513.759C203.844 513.796 203.615 513.845 203.321 513.906C203.153 513.939 203.008 513.995 202.887 514.074C202.766 514.153 202.67 514.256 202.6 514.382C202.535 514.503 202.502 514.648 202.502 514.816C202.502 515.082 202.581 515.271 202.74 515.383C202.903 515.495 203.088 515.551 203.293 515.551ZM210.683 519.863C210.156 519.863 209.712 519.819 209.353 519.73C208.998 519.641 208.716 519.52 208.506 519.366C208.296 519.217 208.144 519.044 208.051 518.848C207.962 518.657 207.918 518.458 207.918 518.253C207.918 517.945 207.993 517.691 208.142 517.49C208.291 517.294 208.466 517.14 208.667 517.028C208.872 516.916 209.052 516.837 209.206 516.79V516.65C209.108 516.627 208.998 516.573 208.877 516.489C208.76 516.405 208.658 516.291 208.569 516.146C208.48 516.001 208.436 515.824 208.436 515.614C208.436 515.46 208.464 515.311 208.52 515.166C208.581 515.021 208.674 514.888 208.8 514.767C208.926 514.646 209.092 514.543 209.297 514.459V514.319C209.148 514.258 208.987 514.172 208.814 514.06C208.641 513.948 208.478 513.806 208.324 513.633C208.17 513.456 208.044 513.246 207.946 513.003C207.848 512.76 207.799 512.476 207.799 512.149C207.799 511.715 207.906 511.323 208.121 510.973C208.34 510.618 208.669 510.338 209.108 510.133C209.551 509.928 210.109 509.825 210.781 509.825C211.042 509.825 211.271 509.839 211.467 509.867C211.663 509.89 211.866 509.916 212.076 509.944C212.286 509.972 212.55 509.986 212.867 509.986H214.785V511.365C214.351 511.365 213.936 511.365 213.539 511.365C213.142 511.365 212.739 511.365 212.328 511.365L212.874 510.497C213.173 510.693 213.392 510.94 213.532 511.239C213.677 511.533 213.749 511.869 213.749 512.247C213.749 512.7 213.649 513.08 213.448 513.388C213.247 513.696 212.974 513.943 212.629 514.13C212.288 514.317 211.908 514.454 211.488 514.543C211.101 514.627 210.814 514.704 210.627 514.774C210.44 514.844 210.347 514.949 210.347 515.089C210.347 515.178 210.387 515.248 210.466 515.299C210.545 515.35 210.669 515.388 210.837 515.411C211.005 515.43 211.222 515.439 211.488 515.439H211.768C212.361 515.439 212.869 515.49 213.294 515.593C213.719 515.696 214.043 515.878 214.267 516.139C214.496 516.4 214.61 516.762 214.61 517.224C214.61 517.705 214.493 518.113 214.26 518.449C214.027 518.785 213.716 519.056 213.329 519.261C212.942 519.471 212.517 519.623 212.055 519.716C211.598 519.814 211.14 519.863 210.683 519.863ZM210.942 518.421C211.329 518.421 211.649 518.372 211.901 518.274C212.158 518.176 212.347 518.062 212.468 517.931C212.594 517.805 212.657 517.695 212.657 517.602C212.657 517.485 212.617 517.385 212.538 517.301C212.463 517.217 212.319 517.152 212.104 517.105C211.889 517.063 211.579 517.042 211.173 517.042H210.956C210.765 517.051 210.571 517.086 210.375 517.147C210.184 517.212 210.023 517.299 209.892 517.406C209.766 517.513 209.703 517.637 209.703 517.777C209.703 517.861 209.726 517.94 209.773 518.015C209.824 518.094 209.899 518.164 209.997 518.225C210.095 518.286 210.223 518.332 210.382 518.365C210.541 518.402 210.727 518.421 210.942 518.421ZM210.746 513.381C210.867 513.372 210.996 513.346 211.131 513.304C211.271 513.262 211.402 513.206 211.523 513.136C211.644 513.061 211.742 512.968 211.817 512.856C211.892 512.739 211.929 512.602 211.929 512.443C211.929 512.228 211.873 512.051 211.761 511.911C211.649 511.771 211.507 511.666 211.334 511.596C211.161 511.526 210.979 511.491 210.788 511.491C210.601 511.491 210.426 511.526 210.263 511.596C210.1 511.666 209.967 511.769 209.864 511.904C209.761 512.035 209.71 512.193 209.71 512.38C209.71 512.562 209.759 512.723 209.857 512.863C209.955 512.998 210.081 513.11 210.235 513.199C210.394 513.288 210.564 513.348 210.746 513.381ZM219.258 517.182C218.358 517.182 217.62 517.023 217.046 516.706C216.477 516.389 216.057 515.952 215.786 515.397C215.52 514.842 215.387 514.205 215.387 513.486C215.387 512.767 215.513 512.133 215.765 511.582C216.017 511.031 216.393 510.602 216.892 510.294C217.396 509.981 218.022 509.825 218.768 509.825C219.403 509.825 219.947 509.939 220.399 510.168C220.852 510.392 221.2 510.733 221.442 511.19C221.685 511.647 221.806 512.224 221.806 512.919C221.806 513.106 221.802 513.271 221.792 513.416C221.783 513.561 221.767 513.705 221.743 513.85L219.951 513.171C219.961 513.11 219.968 513.047 219.972 512.982C219.977 512.917 219.979 512.856 219.979 512.8C219.979 512.329 219.867 511.96 219.643 511.694C219.424 511.423 219.139 511.288 218.789 511.288C218.523 511.288 218.288 511.367 218.082 511.526C217.877 511.68 217.716 511.897 217.599 512.177C217.483 512.457 217.424 512.791 217.424 513.178V513.521C217.424 513.927 217.497 514.275 217.641 514.564C217.791 514.853 218.019 515.075 218.327 515.229C218.635 515.383 219.03 515.46 219.51 515.46C219.697 515.46 219.912 515.444 220.154 515.411C220.402 515.374 220.651 515.32 220.903 515.25C221.16 515.175 221.398 515.082 221.617 514.97L221.687 516.734C221.505 516.818 221.293 516.895 221.05 516.965C220.812 517.03 220.542 517.082 220.238 517.119C219.935 517.161 219.608 517.182 219.258 517.182ZM216.192 513.85V512.73L220.525 512.639L221.743 512.982V513.85H216.192ZM225.41 517.182C225.064 517.182 224.735 517.161 224.423 517.119C224.11 517.082 223.823 517.028 223.562 516.958C223.3 516.883 223.072 516.799 222.876 516.706L223.009 514.935C223.214 515.061 223.443 515.173 223.695 515.271C223.951 515.364 224.213 515.437 224.479 515.488C224.749 515.539 225.013 515.565 225.27 515.565C225.456 515.565 225.624 515.549 225.774 515.516C225.923 515.479 226.04 515.416 226.124 515.327C226.208 515.234 226.25 515.096 226.25 514.914C226.25 514.783 226.203 514.676 226.11 514.592C226.021 514.508 225.869 514.431 225.655 514.361C225.445 514.286 225.155 514.202 224.787 514.109C224.371 514.002 224.021 513.866 223.737 513.703C223.452 513.535 223.237 513.32 223.093 513.059C222.948 512.798 222.876 512.464 222.876 512.058C222.876 511.353 223.104 510.807 223.562 510.42C224.024 510.028 224.651 509.832 225.445 509.832C225.79 509.832 226.121 509.855 226.439 509.902C226.756 509.949 227.043 510.012 227.3 510.091C227.561 510.166 227.78 510.243 227.958 510.322L227.818 512.107C227.603 511.972 227.37 511.86 227.118 511.771C226.866 511.678 226.623 511.608 226.39 511.561C226.161 511.514 225.972 511.491 225.823 511.491C225.673 511.491 225.536 511.512 225.41 511.554C225.288 511.591 225.193 511.654 225.123 511.743C225.053 511.832 225.018 511.948 225.018 512.093C225.018 512.214 225.048 512.322 225.109 512.415C225.169 512.504 225.284 512.588 225.452 512.667C225.62 512.742 225.865 512.823 226.187 512.912C226.691 513.047 227.104 513.194 227.426 513.353C227.748 513.507 227.986 513.705 228.14 513.948C228.298 514.191 228.378 514.513 228.378 514.914C228.378 515.362 228.275 515.759 228.07 516.104C227.869 516.445 227.549 516.711 227.111 516.902C226.677 517.089 226.11 517.182 225.41 517.182Z" fill="#0053F1"/>
<path fill-rule="evenodd" clip-rule="evenodd" d="M127.143 457.15C114.571 457.15 104.286 446.833 104.286 434.107C104.4 421.497 114.571 411.179 127.257 411.293C139.828 411.408 150 421.611 150 434.451C149.886 446.947 139.714 457.15 127.143 457.15Z" fill="#DFDEF8"/>
<path fill-rule="evenodd" clip-rule="evenodd" d="M124.857 454.858C112.286 454.858 102 444.54 102 431.815C102.114 419.204 112.286 408.886 124.971 409.001C137.543 409.116 147.714 419.319 147.714 432.159C147.6 444.655 137.429 454.858 124.857 454.858Z" fill="white" stroke="#DFDEF8" stroke-width="1.3" stroke-miterlimit="10"/>
<path fill-rule="evenodd" clip-rule="evenodd" d="M126.445 430.453L126.064 432.469L129.683 432.973L129.429 433.918L125.873 433.414C125.619 434.233 125.492 435.114 125.175 435.87C124.857 436.752 124.54 437.634 124.159 438.453C123.651 439.524 122.762 440.28 121.556 440.469C120.857 440.595 120.095 440.532 119.524 440.091C119.334 439.965 119.143 439.713 119.143 439.524C119.143 439.272 119.27 438.957 119.461 438.831C119.588 438.768 119.905 438.831 120.095 438.894C120.286 439.083 120.476 439.335 120.603 439.587C120.984 440.091 121.492 440.154 122 439.776C122.572 439.272 122.889 438.579 123.08 437.886C123.461 436.374 123.842 434.925 124.159 433.414V433.162L120.794 432.658L120.921 431.713L124.413 432.217L124.857 430.264L121.238 429.697L121.365 428.689L125.111 429.193C125.238 428.815 125.302 428.5 125.429 428.185C125.746 427.051 126.064 425.917 126.826 424.909C127.588 423.901 128.477 423.271 129.81 423.334C130.381 423.334 130.953 423.523 131.334 423.964C131.397 424.027 131.524 424.153 131.524 424.279C131.524 424.531 131.524 424.846 131.334 425.035C131.08 425.224 130.762 425.161 130.508 424.909C130.318 424.72 130.191 424.531 130 424.342C129.619 423.838 129.048 423.775 128.604 424.216C128.286 424.531 127.969 424.972 127.778 425.413C127.334 426.736 127.016 428.122 126.572 429.508L130.064 430.012L129.81 430.957L126.445 430.453" fill="#0053F1"/>
<path fill-rule="evenodd" clip-rule="evenodd" d="M251.429 469.929C241.215 469.929 232.857 461.546 232.857 451.207C232.95 440.96 241.215 432.577 251.522 432.67C261.736 432.763 270 441.053 270 451.486C269.907 461.639 261.643 469.929 251.429 469.929Z" fill="#DFDEF8"/>
<path fill-rule="evenodd" clip-rule="evenodd" d="M249.571 468.066C239.357 468.066 231 459.683 231 449.344C231.093 439.098 239.357 430.714 249.664 430.807C259.879 430.901 268.143 439.191 268.143 449.623C268.05 459.776 259.786 468.066 249.571 468.066Z" fill="white" stroke="#DFDEF8" stroke-width="1.3" stroke-miterlimit="10"/>
<path fill-rule="evenodd" clip-rule="evenodd" d="M247.557 446.783L247.544 446.745C247.469 446.526 247.48 446.287 247.575 446.076L249.236 442.377C249.296 442.243 249.388 442.125 249.504 442.035C249.619 441.944 249.755 441.883 249.9 441.856C250.044 441.83 250.193 441.839 250.333 441.882C250.473 441.926 250.6 442.003 250.704 442.107C250.834 442.237 250.921 442.403 250.955 442.584C250.989 442.764 250.967 442.951 250.893 443.119L249.244 446.854C249.17 447.021 249.048 447.162 248.893 447.259C248.739 447.356 248.558 447.403 248.376 447.396C248.194 447.388 248.018 447.325 247.872 447.216C247.726 447.107 247.616 446.956 247.557 446.783ZM250.514 445.655C250.429 445.734 250.361 445.829 250.314 445.936C250.248 446.085 250.227 446.25 250.252 446.411C250.278 446.572 250.35 446.722 250.458 446.843C250.567 446.965 250.709 447.051 250.866 447.093C251.023 447.136 251.189 447.131 251.344 447.081L253.428 446.399C253.565 446.355 253.688 446.276 253.786 446.17C253.884 446.064 253.953 445.934 253.987 445.794C254.02 445.653 254.017 445.507 253.978 445.368C253.939 445.229 253.865 445.102 253.763 445L253.736 444.973C253.625 444.861 253.484 444.783 253.331 444.747C253.177 444.712 253.017 444.72 252.868 444.771L250.81 445.479C250.7 445.517 250.6 445.577 250.514 445.655ZM252.109 447.379L252.071 447.391C251.899 447.451 251.749 447.561 251.641 447.708C251.532 447.855 251.47 448.031 251.462 448.213C251.455 448.395 251.502 448.576 251.598 448.731C251.694 448.886 251.834 449.009 252.001 449.083L255.724 450.738C255.892 450.813 256.077 450.835 256.257 450.801C256.437 450.768 256.603 450.68 256.732 450.55C256.836 450.446 256.914 450.318 256.958 450.178C257.001 450.037 257.011 449.888 256.984 449.743C256.958 449.598 256.897 449.462 256.806 449.346C256.716 449.23 256.599 449.138 256.465 449.077L252.777 447.41C252.567 447.314 252.328 447.303 252.109 447.379ZM253.219 450.385C253.14 450.3 253.045 450.231 252.939 450.184C252.791 450.119 252.626 450.098 252.466 450.124C252.306 450.15 252.157 450.222 252.037 450.331C251.917 450.44 251.83 450.582 251.788 450.739C251.747 450.896 251.751 451.062 251.801 451.217L252.48 453.308C252.525 453.445 252.604 453.568 252.71 453.665C252.816 453.762 252.944 453.831 253.084 453.864C253.223 453.898 253.369 453.895 253.507 453.856C253.645 453.817 253.771 453.743 253.873 453.641L253.9 453.614C254.011 453.502 254.089 453.361 254.124 453.208C254.16 453.054 254.152 452.893 254.101 452.744L253.395 450.682C253.357 450.572 253.297 450.471 253.219 450.385ZM251.46 451.983L251.448 451.946C251.388 451.774 251.278 451.623 251.132 451.515C250.986 451.406 250.811 451.344 250.63 451.336C250.448 451.329 250.269 451.376 250.114 451.471C249.96 451.567 249.837 451.707 249.763 451.873L248.113 455.609C248.039 455.777 248.017 455.963 248.05 456.144C248.084 456.325 248.171 456.491 248.301 456.621C248.404 456.725 248.532 456.802 248.672 456.846C248.812 456.89 248.961 456.899 249.105 456.872C249.249 456.846 249.385 456.785 249.501 456.694C249.616 456.603 249.708 456.486 249.769 456.351L251.431 452.652C251.526 452.441 251.536 452.201 251.46 451.983ZM248.463 453.094C248.548 453.016 248.616 452.92 248.663 452.814C248.728 452.665 248.748 452.5 248.722 452.34C248.696 452.18 248.624 452.03 248.515 451.91C248.406 451.79 248.265 451.703 248.109 451.661C247.952 451.619 247.787 451.623 247.633 451.673L245.548 452.354C245.412 452.399 245.289 452.477 245.191 452.583C245.094 452.688 245.024 452.817 244.99 452.957C244.957 453.097 244.959 453.243 244.997 453.382C245.036 453.52 245.109 453.647 245.21 453.749L245.236 453.776C245.348 453.889 245.489 453.968 245.644 454.003C245.798 454.039 245.959 454.03 246.109 453.978L248.167 453.27C248.276 453.233 248.377 453.173 248.463 453.094ZM246.889 451.356L246.926 451.343C247.099 451.284 247.249 451.174 247.358 451.027C247.467 450.881 247.53 450.704 247.537 450.522C247.545 450.339 247.498 450.158 247.401 450.003C247.305 449.848 247.164 449.725 246.997 449.652L243.274 447.997C243.106 447.922 242.92 447.901 242.74 447.935C242.56 447.968 242.394 448.056 242.265 448.187C242.162 448.291 242.085 448.419 242.041 448.559C241.997 448.7 241.988 448.849 242.015 448.994C242.041 449.139 242.102 449.275 242.193 449.391C242.283 449.507 242.4 449.599 242.534 449.659L246.222 451.326C246.432 451.421 246.671 451.432 246.889 451.356ZM245.765 448.378C245.843 448.464 245.937 448.532 246.042 448.58C246.192 448.647 246.357 448.669 246.518 448.643C246.68 448.618 246.83 448.545 246.951 448.435C247.073 448.325 247.159 448.182 247.201 448.024C247.242 447.865 247.236 447.698 247.185 447.542L246.505 445.451C246.461 445.314 246.382 445.191 246.276 445.093C246.17 444.995 246.041 444.926 245.901 444.892C245.761 444.858 245.615 444.861 245.476 444.9C245.338 444.939 245.212 445.013 245.11 445.115L245.083 445.143C244.97 445.255 244.892 445.397 244.857 445.552C244.821 445.707 244.83 445.868 244.882 446.019L245.59 448.082C245.628 448.192 245.687 448.293 245.765 448.378Z" fill="#0053F1"/>
<path fill-rule="evenodd" clip-rule="evenodd" d="M181.476 600.128C170.738 600.128 161.952 591.315 161.952 580.446C162.05 569.675 170.738 560.862 181.573 560.96C192.311 561.058 200.999 569.773 200.999 580.74C200.901 591.413 192.213 600.128 181.476 600.128Z" fill="#DFDEF8"/>
<path fill-rule="evenodd" clip-rule="evenodd" d="M179.523 598.17C168.786 598.17 160 589.357 160 578.487C160.098 567.716 168.786 558.903 179.621 559.001C190.359 559.099 199.047 567.814 199.047 578.781C198.949 589.455 190.261 598.17 179.523 598.17Z" fill="white" stroke="#DFDEF8" stroke-width="1.3" stroke-miterlimit="10"/>
<path fill-rule="evenodd" clip-rule="evenodd" d="M173.5 578.407C173.5 575.162 176.121 572.539 179.347 572.539C182.572 572.539 185.193 575.162 185.193 578.407C185.193 581.652 182.572 584.276 179.347 584.276C176.121 584.276 173.5 581.652 173.5 578.407ZM179.347 570.039C174.733 570.039 171 573.789 171 578.407C171 583.025 174.733 586.776 179.347 586.776C183.96 586.776 187.693 583.025 187.693 578.407C187.693 573.789 183.96 570.039 179.347 570.039ZM180.584 580.741C180.608 580.831 180.637 580.91 180.672 580.979H182.129V580.891C182.057 580.749 182.002 580.58 181.964 580.383C181.926 580.186 181.907 579.937 181.907 579.636V577.23C181.907 576.905 181.847 576.62 181.726 576.375C181.605 576.126 181.438 575.92 181.225 575.758C181.011 575.595 180.758 575.473 180.465 575.39C180.175 575.307 179.862 575.265 179.524 575.265C179.148 575.265 178.814 575.314 178.521 575.41C178.232 575.504 177.985 575.632 177.782 575.794C177.582 575.957 177.429 576.145 177.322 576.359C177.218 576.574 177.167 576.8 177.167 577.038H178.604C178.604 576.828 178.671 576.66 178.805 576.536C178.94 576.408 179.153 576.344 179.446 576.344C179.777 576.344 180.031 576.423 180.206 576.582C180.382 576.738 180.47 576.95 180.47 577.22V577.552H179.669C178.797 577.552 178.14 577.714 177.699 578.039C177.261 578.361 177.043 578.817 177.043 579.408C177.043 579.65 177.091 579.875 177.187 580.082C177.284 580.286 177.418 580.463 177.591 580.611C177.763 580.76 177.968 580.876 178.206 580.959C178.447 581.042 178.711 581.083 178.997 581.083C179.172 581.083 179.336 581.066 179.488 581.031C179.639 581 179.777 580.957 179.901 580.901C180.029 580.843 180.144 580.775 180.248 580.699C180.351 580.623 180.442 580.542 180.522 580.456C180.539 580.556 180.56 580.651 180.584 580.741ZM179.705 579.916C179.581 579.951 179.446 579.968 179.302 579.968C179.026 579.968 178.819 579.904 178.681 579.776C178.547 579.648 178.48 579.488 178.48 579.294C178.48 579.166 178.504 579.049 178.552 578.941C178.6 578.831 178.674 578.738 178.774 578.661C178.874 578.582 179.004 578.521 179.162 578.48C179.321 578.435 179.512 578.413 179.736 578.413H180.47V579.377C180.429 579.45 180.372 579.522 180.299 579.595C180.227 579.664 180.141 579.726 180.041 579.781C179.941 579.837 179.829 579.882 179.705 579.916Z" fill="#0053F1"/>
<path fill-rule="evenodd" clip-rule="evenodd" d="M282.095 555.195C270.048 555.195 260.19 545.307 260.19 533.112C260.3 521.027 270.048 511.139 282.205 511.248C294.252 511.358 304 521.136 304 533.441C303.89 545.417 294.143 555.195 282.095 555.195Z" fill="#DFDEF8"/>
<path fill-rule="evenodd" clip-rule="evenodd" d="M279.905 552.998C267.857 552.998 258 543.11 258 530.915C258.11 518.829 267.857 508.941 280.014 509.051C292.062 509.161 301.81 518.939 301.81 531.244C301.7 543.219 291.952 552.998 279.905 552.998Z" fill="white" stroke="#DFDEF8" stroke-width="1.3" stroke-miterlimit="10"/>
<path d="M278.144 533.935C278.149 533.935 278.155 533.935 278.16 533.935C278.161 533.935 278.163 533.935 278.164 533.935H279.504C279.504 534.029 279.504 534.085 279.504 534.103C279.501 535.454 279.501 536.805 279.504 538.157C279.504 538.252 279.474 538.307 279.386 538.348C278.926 538.568 278.579 539.134 278.673 539.74C278.783 540.444 279.514 540.975 280.218 540.839C280.839 540.719 281.247 540.299 281.335 539.653C281.394 539.216 281.181 538.638 280.612 538.348C280.535 538.309 280.492 538.266 280.493 538.172C280.495 536.86 280.496 535.547 280.493 534.235C280.493 534.192 280.5 534.162 280.514 534.14V533.935H282.15C282.201 533.935 282.252 533.931 282.302 533.923C282.68 533.884 283.03 533.757 283.33 533.562L285.683 534.912L285.673 534.919C285.736 534.954 285.799 534.989 285.862 535.025C285.979 535.09 286.024 535.163 286.02 535.298C286 536.084 286.691 536.725 287.498 536.64C288.29 536.557 288.851 535.802 288.667 535.039C288.447 534.125 287.447 533.712 286.638 534.207C286.553 534.259 286.492 534.273 286.401 534.22C285.717 533.825 285.031 533.432 284.343 533.044C284.307 533.024 284.282 533.004 284.266 532.982L284.027 532.845C284.226 532.518 284.34 532.136 284.34 531.728C284.34 530.919 283.893 530.217 283.229 529.833L283.238 529.828C283.249 529.82 283.262 529.811 283.277 529.803C283.568 529.638 283.859 529.472 284.15 529.307L286.083 528.203C286.19 528.142 286.297 528.08 286.403 528.019C286.487 527.971 286.544 527.97 286.626 528.025C286.92 528.22 287.248 528.281 287.593 528.221C288.264 528.105 288.751 527.504 288.691 526.794C288.626 526.024 287.863 525.448 287.101 525.615C286.432 525.762 286.012 526.279 286.02 526.959C286.021 527.075 285.988 527.141 285.884 527.2C285.614 527.353 285.345 527.506 285.076 527.659L285.076 527.659L282.613 529.072C282.178 528.319 281.404 527.777 280.495 527.636C280.495 526.491 280.497 525.347 280.491 524.203C280.49 524.031 280.531 523.931 280.693 523.839C281.276 523.508 281.497 522.794 281.231 522.186C280.962 521.572 280.275 521.244 279.631 521.438C279.044 521.615 278.718 522.025 278.66 522.622C278.616 523.082 278.836 523.594 279.367 523.881C279.448 523.925 279.505 523.964 279.505 524.075C279.504 524.412 279.503 524.748 279.502 525.085H279.522V527.64C278.716 527.772 278.006 528.221 277.555 528.871C277.44 528.896 277.327 528.928 277.218 528.968C276.203 528.393 275.193 527.811 274.176 527.24C274.024 527.154 273.95 527.063 273.976 526.889C273.986 526.819 273.964 526.745 273.953 526.674C273.849 526.024 273.207 525.48 272.432 525.606C271.672 525.73 271.189 526.411 271.314 527.14C271.474 528.071 272.547 528.542 273.357 528.033C273.448 527.976 273.512 527.971 273.605 528.025C273.894 528.192 274.182 528.358 274.472 528.523L274.482 528.504L276.285 529.536C275.791 530 275.482 530.649 275.482 531.371C275.482 531.929 275.666 532.444 275.978 532.863L273.878 534.063L273.877 534.054C273.775 534.111 273.673 534.169 273.571 534.226C273.525 534.252 273.437 534.247 273.39 534.219C273.172 534.089 272.94 534.002 272.687 533.996C271.842 533.974 271.328 534.657 271.299 535.251C271.266 535.946 271.797 536.658 272.656 536.651C273.41 536.646 273.983 536.048 273.975 535.301C273.974 535.168 274.014 535.093 274.132 535.026C274.712 534.699 275.579 534.205 276.731 533.544C277.141 533.792 277.626 533.935 278.144 533.935ZM288.172 528.322C288.073 528.38 288.039 528.439 288.04 528.55C288.043 530.264 288.043 531.979 288.04 533.693C288.04 533.796 288.066 533.858 288.162 533.913C288.777 534.265 289.089 534.914 288.978 535.597C288.872 536.251 288.344 536.788 287.66 536.917C287.263 536.991 286.879 536.932 286.531 536.721C286.425 536.657 286.351 536.668 286.251 536.724C284.762 537.578 283.272 538.43 281.78 539.278C281.678 539.336 281.639 539.4 281.64 539.518C281.641 540.343 280.998 541.061 280.194 541.141C279.339 541.226 278.582 540.694 278.397 539.872C278.369 539.746 278.359 539.613 278.356 539.484C278.354 539.396 278.33 539.343 278.251 539.298C276.738 538.436 275.226 537.573 273.715 536.708C273.634 536.66 273.569 536.66 273.487 536.71C272.499 537.298 271.241 536.734 271.032 535.635C270.9 534.94 271.185 534.291 271.813 533.926C271.912 533.868 271.957 533.809 271.957 533.689C271.952 531.974 271.953 530.26 271.956 528.545C271.956 528.442 271.929 528.381 271.833 528.327C271.203 527.964 270.907 527.335 271.028 526.628C271.148 525.926 271.696 525.41 272.41 525.31C272.793 525.256 273.162 525.325 273.493 525.534C273.57 525.583 273.627 525.581 273.705 525.537C275.212 524.674 276.72 523.813 278.229 522.954C278.32 522.902 278.356 522.843 278.356 522.736C278.358 521.792 279.112 521.069 280.067 521.088C280.812 521.103 281.508 521.711 281.614 522.439C281.623 522.505 281.639 522.547 281.639 522.639C281.639 522.84 281.714 522.926 281.872 523.015C283.336 523.845 284.796 524.681 286.255 525.518C286.356 525.576 286.428 525.578 286.533 525.519C287.524 524.96 288.726 525.496 288.967 526.603C288.99 526.706 288.987 526.815 288.995 526.909C288.979 527.537 288.703 528.006 288.172 528.322ZM286.982 535.326C286.982 535.108 287.141 534.949 287.358 534.95C287.567 534.951 287.745 535.122 287.747 535.324C287.749 535.518 287.559 535.706 287.361 535.707C287.149 535.707 286.983 535.54 286.982 535.326ZM279.616 522.713C279.617 522.501 279.783 522.338 279.999 522.338C280.214 522.338 280.379 522.5 280.38 522.713C280.381 522.916 280.201 523.096 279.999 523.094C279.794 523.092 279.615 522.914 279.616 522.713ZM273.013 535.328C273.013 535.541 272.845 535.708 272.634 535.707C272.435 535.705 272.25 535.521 272.249 535.322C272.248 535.124 272.431 534.95 272.64 534.95C272.857 534.95 273.014 535.109 273.013 535.328ZM280.003 539.157C280.218 539.158 280.381 539.32 280.38 539.531C280.379 539.741 280.213 539.899 279.995 539.898C279.779 539.897 279.614 539.734 279.616 539.523C279.618 539.315 279.787 539.155 280.003 539.157ZM272.644 527.286C272.426 527.288 272.256 527.131 272.249 526.923C272.243 526.72 272.415 526.549 272.63 526.546C272.854 526.543 273.01 526.691 273.013 526.91C273.017 527.129 272.865 527.285 272.644 527.286ZM287.353 527.287C287.133 527.285 286.98 527.13 286.982 526.91C286.985 526.692 287.141 526.543 287.365 526.546C287.58 526.549 287.751 526.718 287.746 526.922C287.741 527.129 287.57 527.289 287.353 527.287ZM278.144 533.02C277.185 533.02 276.407 532.282 276.407 531.371C276.407 530.465 277.179 529.729 278.133 529.723C278.438 529.014 279.168 528.514 280.02 528.514C281.138 528.514 282.045 529.373 282.06 530.437C282.062 530.437 282.063 530.437 282.064 530.437C282.81 530.437 283.415 531.015 283.415 531.728C283.415 532.409 282.864 532.966 282.166 533.016C282.161 533.018 282.156 533.02 282.15 533.02H278.164C278.163 533.02 278.162 533.02 278.162 533.019C278.156 533.02 278.15 533.02 278.144 533.02Z" fill="#0053F1"/>
<path fill-rule="evenodd" clip-rule="evenodd" d="M80.0952 553.188C68.0476 553.188 58.1904 543.301 58.1904 531.105C58.3 519.02 68.0476 509.132 80.2047 509.242C92.2523 509.352 102 519.13 102 531.435C101.89 543.41 92.1428 553.188 80.0952 553.188Z" fill="#DFDEF8"/>
<path fill-rule="evenodd" clip-rule="evenodd" d="M77.9047 550.991C65.8571 550.991 56 541.103 56 528.908C56.1095 516.823 65.8571 506.935 78.0143 507.045C90.0619 507.155 99.8095 516.933 99.8095 529.238C99.7 541.213 89.9523 550.991 77.9047 550.991Z" fill="white" stroke="#DFDEF8" stroke-width="1.3" stroke-miterlimit="10"/>
<path fill-rule="evenodd" clip-rule="evenodd" d="M77.8854 519.082C75.8878 519.104 74.0292 519.718 72.4749 520.755L72.8408 521.22C74.3511 520.223 76.1629 519.65 78.1069 519.672C83.1251 519.728 87.2449 523.77 87.4068 528.802C87.5821 534.253 83.1241 538.725 77.6901 538.548C72.6743 538.386 68.6449 534.253 68.5888 529.219C68.5672 527.269 69.1386 525.452 70.1323 523.937L69.669 523.57C68.6348 525.129 68.0232 526.993 68.0006 528.997C67.939 534.48 72.2946 539.017 77.7696 539.141C83.4708 539.27 88.1261 534.6 87.9975 528.881C87.8739 523.389 83.3507 519.02 77.8854 519.082Z" fill="#0053F1"/>
<path fill-rule="evenodd" clip-rule="evenodd" d="M72.1175 522.229C72.1175 522.772 71.6786 523.212 71.1371 523.212C70.5957 523.212 70.1567 522.772 70.1567 522.229C70.1567 521.686 70.5957 521.245 71.1371 521.245C71.6786 521.245 72.1175 521.686 72.1175 522.229Z" fill="#0053F1"/>
<path fill-rule="evenodd" clip-rule="evenodd" d="M80.9413 529.113V532.063H78.0001C76.3757 532.063 75.0589 530.742 75.0589 529.113C75.0589 527.483 76.3757 526.162 78.0001 526.162C79.6245 526.162 80.9413 527.483 80.9413 529.113ZM78.0372 524.195C75.3129 524.175 73.0981 526.384 73.0981 529.113C73.0981 531.828 75.2928 534.03 78.0001 534.03H82.9021V529.174C82.9021 526.463 80.7401 524.216 78.0372 524.195Z" fill="#0053F1"/>
<defs>
<clipPath id="clip0">
<rect width="100" height="16" fill="white" transform="translate(130 99)"/>
</clipPath>
</defs>
</svg>
