<svg width="420" height="600" viewBox="0 0 420 600" fill="none" xmlns="http://www.w3.org/2000/svg">
<path d="M263.083 93.6529C211.75 44.9713 68.25 85.5949 89.25 152.119C60.0144 153.246 0 152.118 0 220.43C0 254.139 24.4139 281.471 54.5356 281.471H71.1172C77.9297 347.435 189 364.814 224 335.392C231.583 341.277 258.836 349.515 280.964 349.515C318.952 349.515 350.882 320.567 360.045 281.345H364.786C395.278 281.345 420 253.735 420 219.679C420 185.873 395.643 158.438 365.462 158.031C372.167 124.139 314.417 77.683 263.083 93.6529Z" fill="#F4F6FD"/>
<path d="M180.908 125.619C180.541 125.254 180.219 125.048 180.034 125.048C179.39 125.597 178.518 125.871 177.322 125.871C175.069 125.871 173.782 124.386 173.782 122.261C173.782 120.069 175.092 118.583 177.23 118.583C178.08 118.583 178.724 118.79 179.16 119.154V120.343C179.16 120.525 179.276 120.708 179.575 121.005C179.851 121.256 180.058 121.37 180.195 121.37C180.38 121.37 180.563 121.256 180.816 121.005C181.092 120.73 181.23 120.525 181.23 120.343V118.15C181.23 117.784 180.816 117.373 180.034 116.962C179.253 116.528 178.31 116.345 177.207 116.345C175.414 116.345 173.92 116.893 172.793 118.012C171.667 119.109 171.068 120.525 171.068 122.238C171.068 122.513 171.092 122.763 171.115 123.015L161.092 117.35L165.16 115.043C165.712 114.723 165.92 114.015 165.598 113.444C165.276 112.895 164.563 112.69 163.988 113.01L159.873 115.34V110.68C159.873 110.04 159.345 109.515 158.701 109.515C158.058 109.515 157.528 110.04 157.528 110.68V115.34L153.413 113.01C152.839 112.69 152.126 112.895 151.804 113.444C151.482 113.992 151.69 114.723 152.241 115.043L156.333 117.35L152.264 119.657C151.712 119.977 151.506 120.685 151.828 121.256C152.034 121.622 152.448 121.85 152.839 121.85C153.046 121.85 153.23 121.805 153.413 121.69L157.528 119.36V124.043C157.528 124.683 158.058 125.208 158.701 125.208C159.345 125.208 159.873 124.683 159.873 124.043V119.337L173.413 126.99L174.472 127.584L174.494 127.607C174.563 127.652 174.655 127.675 174.724 127.699C175.46 127.972 176.287 128.11 177.207 128.11C178.977 128.11 180.425 127.561 181.505 126.487C181.529 126.305 181.322 125.985 180.908 125.619Z" fill="#0053F1"/>
<path d="M188.608 116.345C186.861 116.345 185.413 116.893 184.286 118.036C183.161 119.132 182.585 120.549 182.585 122.261C182.585 123.952 183.137 125.345 184.286 126.488C185.413 127.584 186.861 128.155 188.608 128.155C190.355 128.155 191.803 127.607 192.93 126.488C194.056 125.369 194.655 123.952 194.655 122.261C194.655 120.549 194.079 119.155 192.93 118.036C191.781 116.893 190.355 116.345 188.608 116.345ZM190.953 124.889C190.379 125.574 189.597 125.894 188.608 125.894C187.62 125.894 186.838 125.574 186.264 124.889C185.689 124.203 185.39 123.336 185.39 122.261C185.39 121.188 185.689 120.297 186.264 119.634C186.838 118.949 187.62 118.63 188.608 118.63C189.597 118.63 190.379 118.949 190.953 119.634C191.551 120.32 191.873 121.188 191.873 122.261C191.873 123.336 191.573 124.203 190.953 124.889Z" fill="#0053F1"/>
<path d="M199.253 109.971C199 109.697 198.793 109.56 198.632 109.56H195.413C195.229 109.56 195.046 109.674 194.747 109.971C194.494 110.223 194.378 110.428 194.378 110.588C194.378 110.748 194.494 110.954 194.747 111.25C195.022 111.502 195.229 111.616 195.413 111.616H197.045V127.904H199.644V110.588C199.666 110.405 199.528 110.223 199.253 109.971Z" fill="#0053F1"/>
<path d="M213.024 125.048V110.588C213.024 110.405 212.885 110.223 212.61 109.971C212.357 109.697 212.15 109.56 211.989 109.56H209.506C209.322 109.56 209.139 109.674 208.839 109.971C208.587 110.223 208.472 110.428 208.472 110.588C208.472 110.748 208.587 110.954 208.839 111.25C209.116 111.502 209.322 111.616 209.506 111.616H210.426V116.71C209.668 116.459 208.931 116.345 208.196 116.345C206.403 116.345 204.932 116.893 203.782 118.035C202.609 119.132 202.035 120.571 202.035 122.33C202.035 123.997 202.54 125.369 203.575 126.465C204.61 127.561 205.92 128.132 207.483 128.132C208.678 128.132 209.713 127.766 210.587 127.036C210.886 127.447 211.437 127.904 211.713 127.904H213.276V127.607L213.207 127.402C213.115 127.173 213.024 126.237 213.024 125.048ZM210.402 125.186C209.782 125.664 209.024 125.894 208.127 125.894C206.081 125.894 204.793 124.409 204.793 122.285C204.793 120.069 206.104 118.583 208.311 118.583C209.092 118.583 209.805 118.743 210.402 119.063V125.186Z" fill="#0053F1"/>
<path d="M220.149 121.165C219.459 120.891 219.045 120.685 218.862 120.594C218.265 120.297 217.942 119.931 217.942 119.565C217.942 118.88 218.586 118.469 219.667 118.469C220.61 118.469 221.345 118.721 221.873 119.246C222.058 119.246 222.356 119.04 222.724 118.675C223.091 118.31 223.298 117.989 223.298 117.83C222.356 116.847 221.115 116.368 219.597 116.368C216.885 116.368 215.506 117.601 215.506 119.703C215.506 121.393 216.379 122.216 218.817 123.221L220.149 123.792C220.885 124.111 221.229 124.501 221.229 124.865C221.229 125.597 220.448 126.054 219.298 126.054C218.241 126.054 217.344 125.711 216.678 125.026C216.494 125.026 216.195 125.231 215.804 125.619C215.413 126.03 215.229 126.327 215.229 126.488C216.309 127.561 217.712 128.11 219.391 128.11C222.126 128.11 223.689 126.831 223.689 124.751C223.689 123.906 223.413 123.221 222.885 122.741C222.378 122.261 221.437 121.714 220.149 121.165Z" fill="#0053F1"/>
<path d="M232.886 125.825C232.564 125.483 232.288 125.3 232.104 125.3C231.666 125.734 231.116 125.916 230.38 125.916C229.552 125.916 229.115 125.459 229.115 124.591V118.652H232.77V116.597H229.115V112.462H228.38L226.656 113.398V116.597H225.414C225.23 116.597 225.001 116.711 224.747 116.962C224.495 117.213 224.379 117.442 224.379 117.624C224.379 117.807 224.495 117.99 224.747 118.287C225.023 118.538 225.23 118.652 225.414 118.652H226.495V125.048C226.495 127.104 227.598 128.132 229.806 128.132C231.161 128.132 232.357 127.63 233.392 126.602C233.414 126.419 233.231 126.146 232.886 125.825Z" fill="#0053F1"/>
<path d="M243.759 125.048V120.297C243.759 117.715 242.217 116.345 239.206 116.345C237.39 116.345 235.896 116.893 234.746 118.036C234.746 118.264 234.954 118.561 235.345 118.972C235.758 119.337 236.056 119.543 236.264 119.543C236.999 118.835 237.896 118.492 238.976 118.492C240.31 118.492 241.16 119.155 241.16 120.366V121.234C240.585 121.165 240.057 121.142 239.55 121.142C236.241 121.142 234.471 122.468 234.471 124.82C234.471 126.945 236.011 128.132 238.24 128.132C239.459 128.132 240.493 127.767 241.321 127.014C241.642 127.447 242.194 127.927 242.494 127.927H244.057V127.63L243.987 127.425C243.851 127.173 243.759 126.237 243.759 125.048ZM241.16 125.14C240.563 125.734 239.804 126.054 238.884 126.054C237.666 126.054 237.069 125.574 237.069 124.615C237.069 123.541 237.896 123.015 239.574 123.015C240.102 123.015 240.632 123.061 241.16 123.129V125.14Z" fill="#0053F1"/>
<path d="M255.85 125.62C255.459 125.254 255.159 125.048 254.976 125.048C254.332 125.597 253.458 125.871 252.264 125.871C250.011 125.871 248.723 124.386 248.723 122.261C248.723 120.069 250.034 118.583 252.172 118.583C253.022 118.583 253.666 118.79 254.102 119.155V120.343C254.102 120.525 254.217 120.708 254.516 121.005C254.792 121.256 254.999 121.37 255.159 121.37C255.344 121.37 255.528 121.256 255.781 121.005C256.056 120.73 256.194 120.525 256.194 120.343V118.15C256.194 117.784 255.781 117.373 254.999 116.962C254.217 116.528 253.275 116.345 252.172 116.345C250.378 116.345 248.885 116.893 247.758 118.012C246.609 119.109 246.034 120.525 246.034 122.239C246.034 123.975 246.609 125.369 247.758 126.488C248.885 127.584 250.378 128.155 252.217 128.155C253.988 128.155 255.436 127.607 256.516 126.534C256.447 126.305 256.241 125.985 255.85 125.62Z" fill="#0053F1"/>
<path d="M264.47 122.078L268.102 117.898C268.102 117.692 267.85 117.395 267.344 116.962C266.861 116.527 266.517 116.345 266.309 116.345L262.31 120.913L261.298 121.051V110.588C261.298 110.405 261.183 110.223 260.884 109.971C260.631 109.697 260.424 109.56 260.24 109.56H257.758C257.574 109.56 257.39 109.674 257.091 109.971C256.838 110.223 256.724 110.428 256.724 110.588C256.724 110.748 256.838 110.954 257.091 111.25C257.368 111.502 257.574 111.616 257.758 111.616H258.678V127.904H261.275V123.312L262.217 123.198L266.562 128.155C266.769 128.155 267.114 127.927 267.597 127.492C268.079 127.036 268.333 126.715 268.333 126.51L264.47 122.078Z" fill="#0053F1"/>
<path d="M72.3335 122.33V24.466C72.3335 20.6054 75.4675 17.4757 79.3335 17.4757H183.167" stroke="#F88419" stroke-dasharray="3 3"/>
<path d="M347.667 122.33V24.466C347.667 20.6054 344.533 17.4757 340.667 17.4757H238" stroke="#9B9CA8"/>
<path d="M63 0H28V34.9515H63V0Z" fill="white"/>
<path d="M53.8389 8.56806C55.2324 10.96 56 14.1234 56 17.4758C56 20.8281 55.2324 23.9915 53.8389 26.3834C52.3707 28.9035 50.376 30.2913 48.2222 30.2913H42.7778C40.624 30.2913 38.6293 28.9035 37.1611 26.3834C35.7675 23.9915 35 20.8281 35 17.4758C35 14.1234 35.7675 10.96 37.1611 8.56806C38.6293 6.04805 40.624 4.66022 42.7778 4.66022H48.2222C50.376 4.66022 52.3707 6.04805 53.8389 8.56806ZM52.505 25.5592C53.7557 23.4126 54.4445 20.5419 54.4445 17.4758C54.4445 14.4096 53.7557 11.5388 52.505 9.39225C51.329 7.37375 49.808 6.26216 48.2222 6.26216C46.6364 6.26216 45.1155 7.37375 43.9393 9.39225C42.6888 11.5388 42 14.4096 42 17.4758C42 20.5419 42.6888 23.4126 43.9393 25.5592C45.1155 27.5777 46.6364 28.6893 48.2222 28.6893C49.808 28.6893 51.329 27.5777 52.505 25.5592ZM41.47 11.068H37.6889C37.301 12.0521 37.0077 13.1313 36.8167 14.2719H40.6856C40.8584 13.1474 41.1217 12.0707 41.47 11.068ZM40.6857 20.6796H36.8167C37.0078 21.8202 37.3011 22.8993 37.6889 23.8835H41.47C41.1217 22.8808 40.8584 21.8041 40.6857 20.6796ZM42.7778 28.6893H44.4192C43.7558 28.0818 43.1451 27.3093 42.6055 26.3834C42.4375 26.095 42.2788 25.7951 42.1293 25.4855H38.453C38.4671 25.5099 38.4807 25.5349 38.495 25.5592C39.671 27.5777 41.192 28.6893 42.7778 28.6893ZM36.6197 19.0777H40.5039C40.4647 18.5502 40.4445 18.0154 40.4445 17.4758C40.4445 16.9361 40.4647 16.4013 40.5039 15.8738H36.6197C36.5774 16.3998 36.5555 16.9347 36.5555 17.4758C36.5555 18.0168 36.5774 18.5517 36.6197 19.0777ZM42.7778 6.26216C41.192 6.26216 39.671 7.37375 38.495 9.39225C38.4807 9.41659 38.467 9.44152 38.453 9.46604H42.1293C42.2788 9.15627 42.4375 8.85645 42.6055 8.56806C43.1451 7.64214 43.7558 6.8697 44.4192 6.26211H42.7778V6.26216Z" fill="#F88419" stroke="#F88419" stroke-width="0.5"/>
<path d="M72.3335 158.447H308" stroke="#F88419" stroke-dasharray="3 3"/>
<path d="M75.8335 160.194L340.013 294.366C344.709 296.751 347.667 301.566 347.667 306.827V456.117" stroke="#F88419" stroke-dasharray="3 3"/>
<path d="M72.3335 463.107V306.828C72.3335 301.567 75.292 296.751 79.989 294.366L176.75 245.243" stroke="#9B9CA8"/>
<path d="M315.584 174.848L243.833 210.874" stroke="#9B9CA8"/>
<path d="M107.333 205.049H37.3335V251.65H107.333V205.049Z" fill="#F6F6FC"/>
<path d="M58.7933 219.539C58.7933 219.986 58.7008 220.393 58.5156 220.763C58.3414 221.132 58.0964 221.448 57.7806 221.709C57.4758 221.97 57.1164 222.171 56.7026 222.312C56.2998 222.453 55.8642 222.524 55.3959 222.524H49.8916V210.944H55.6573C56.0602 210.944 56.4249 211.031 56.7516 211.205C57.0783 211.378 57.3559 211.607 57.5846 211.89C57.8133 212.161 57.9876 212.477 58.1073 212.836C58.2379 213.184 58.3033 213.537 58.3033 213.896C58.3033 214.473 58.1563 215.005 57.8623 215.494C57.5792 215.984 57.1709 216.348 56.6373 216.587C57.3016 216.783 57.8242 217.148 58.2053 217.68C58.5973 218.202 58.7933 218.822 58.7933 219.539ZM57.3069 219.278C57.3069 219.018 57.2579 218.767 57.1599 218.528C57.0729 218.278 56.9476 218.061 56.7843 217.876C56.6319 217.69 56.4468 217.544 56.2289 217.435C56.0112 217.327 55.7716 217.272 55.5103 217.272H51.3616V221.252H55.3959C55.6682 221.252 55.9186 221.197 56.1473 221.089C56.3759 220.981 56.5774 220.838 56.7516 220.665C56.9259 220.48 57.0619 220.268 57.1599 220.029C57.2579 219.79 57.3069 219.539 57.3069 219.278ZM51.3616 212.216V216.082H55.0529C55.3143 216.082 55.5539 216.033 55.7716 215.935C55.9894 215.826 56.1746 215.684 56.3269 215.511C56.4903 215.337 56.6156 215.136 56.7026 214.907C56.8006 214.668 56.8496 214.418 56.8496 214.157C56.8496 213.885 56.8061 213.629 56.7189 213.39C56.6319 213.151 56.5121 212.944 56.3596 212.771C56.2181 212.597 56.0384 212.461 55.8206 212.363C55.6138 212.265 55.3906 212.216 55.1509 212.216H51.3616ZM60.621 222.524V214.01H62.0583V222.524H60.621ZM60.621 212.412V210.617H62.0583V212.412H60.621ZM64.418 210.617H65.8553V220.322C65.8553 220.638 65.937 220.887 66.1003 221.073C66.2745 221.246 66.514 221.334 66.819 221.334C66.9387 221.334 67.0803 221.317 67.2437 221.285C67.407 221.242 67.5594 221.193 67.701 221.138L67.9297 222.296C67.69 222.394 67.407 222.475 67.0803 222.541C66.7537 222.606 66.465 222.638 66.2147 222.638C65.6593 222.638 65.2183 222.481 64.8917 222.165C64.5759 221.85 64.418 221.409 64.418 220.844V210.617ZM69.0914 210.617H70.5288V220.322C70.5288 220.638 70.6104 220.887 70.7738 221.073C70.9481 221.246 71.1876 221.334 71.4924 221.334C71.6123 221.334 71.7538 221.317 71.9171 221.285C72.0804 221.242 72.2329 221.193 72.3744 221.138L72.6031 222.296C72.3636 222.394 72.0804 222.475 71.7538 222.541C71.4271 222.606 71.1386 222.638 70.8881 222.638C70.3328 222.638 69.8918 222.481 69.5651 222.165C69.2494 221.85 69.0914 221.409 69.0914 220.844V210.617ZM73.7323 222.524V214.01H75.1697V222.524H73.7323ZM73.7323 212.412V210.617H75.1697V212.412H73.7323ZM84.8956 222.524H83.4582V217.762C83.4582 216.848 83.3167 216.185 83.0336 215.772C82.7614 215.358 82.3422 215.152 81.7759 215.152C81.4819 215.152 81.1879 215.211 80.8939 215.331C80.5999 215.44 80.3222 215.592 80.0609 215.788C79.7996 215.984 79.5709 216.218 79.3749 216.489C79.1789 216.761 79.0319 217.06 78.9339 217.386V222.524H77.4966V214.01H78.8032V215.837C79.1409 215.239 79.6254 214.76 80.2569 214.402C80.8994 214.043 81.5962 213.863 82.3476 213.863C82.8376 213.863 83.2459 213.955 83.5726 214.141C83.8992 214.314 84.1606 214.565 84.3566 214.891C84.5526 215.207 84.6887 215.582 84.7649 216.016C84.8521 216.451 84.8956 216.924 84.8956 217.435V222.524ZM90.5281 222.622C89.951 222.622 89.4175 222.502 88.9275 222.263C88.4483 222.024 88.0345 221.703 87.6861 221.301C87.3376 220.899 87.0655 220.437 86.8695 219.915C86.6843 219.393 86.5918 218.849 86.5918 218.284C86.5918 217.686 86.6843 217.12 86.8695 216.587C87.0655 216.043 87.3376 215.57 87.6861 215.168C88.0345 214.766 88.4483 214.45 88.9275 214.222C89.4175 213.983 89.9565 213.863 90.5445 213.863C91.2631 213.863 91.8838 214.037 92.4065 214.385C92.9291 214.734 93.3701 215.174 93.7295 215.706V214.01H95.0035V222.426C95.0035 223.036 94.8891 223.568 94.6605 224.025C94.4318 224.492 94.1215 224.884 93.7295 225.199C93.3375 225.515 92.8746 225.754 92.3411 225.917C91.8185 226.08 91.2576 226.162 90.6588 226.162C89.6896 226.162 88.9002 225.993 88.2905 225.656C87.6915 225.33 87.1906 224.873 86.7878 224.286L87.6208 223.552C87.9583 224.052 88.3938 224.427 88.9275 224.677C89.461 224.928 90.0381 225.052 90.6588 225.052C91.0508 225.052 91.421 224.998 91.7695 224.889C92.1288 224.781 92.4391 224.618 92.7005 224.4C92.9618 224.182 93.1686 223.911 93.3211 223.584C93.4845 223.258 93.5661 222.873 93.5661 222.426V220.926C93.4028 221.187 93.2068 221.426 92.9781 221.644C92.7603 221.85 92.5208 222.029 92.2595 222.182C91.9981 222.323 91.7205 222.432 91.4265 222.508C91.1325 222.584 90.833 222.622 90.5281 222.622ZM90.9691 221.448C91.274 221.448 91.568 221.393 91.8511 221.285C92.1342 221.176 92.3955 221.034 92.6351 220.861C92.8746 220.675 93.0761 220.469 93.2395 220.241C93.4028 220.012 93.5116 219.778 93.5661 219.539V217.093C93.4463 216.799 93.2885 216.532 93.0925 216.294C92.9073 216.055 92.695 215.847 92.4555 215.674C92.2158 215.489 91.9545 215.348 91.6715 215.25C91.3992 215.152 91.1215 215.103 90.8385 215.103C90.4028 215.103 90.0108 215.195 89.6625 215.38C89.3248 215.565 89.0363 215.81 88.7968 216.114C88.5572 216.418 88.3721 216.767 88.2415 217.158C88.1108 217.539 88.0455 217.925 88.0455 218.316C88.0455 218.74 88.1216 219.142 88.2741 219.523C88.4265 219.904 88.6335 220.235 88.8948 220.518C89.1561 220.801 89.461 221.03 89.8095 221.203C90.1688 221.366 90.5553 221.448 90.9691 221.448ZM54.1291 236.985V245.825H52.6591V234.245H53.8024L60.9891 243.264V234.261H62.4591V245.825H61.2177L54.1291 236.985ZM68.5799 245.988C67.9374 245.988 67.3494 245.868 66.8159 245.63C66.2932 245.391 65.8412 245.069 65.4602 244.667C65.0899 244.265 64.8014 243.797 64.5945 243.264C64.3876 242.732 64.2842 242.172 64.2842 241.584C64.2842 240.987 64.3876 240.421 64.5945 239.888C64.8122 239.356 65.1062 238.887 65.4765 238.485C65.8576 238.084 66.3095 237.762 66.8322 237.523C67.3657 237.284 67.9482 237.164 68.5799 237.164C69.2114 237.164 69.7939 237.284 70.3275 237.523C70.861 237.762 71.3129 238.084 71.6832 238.485C72.0642 238.887 72.3582 239.356 72.5652 239.888C72.7829 240.421 72.8919 240.987 72.8919 241.584C72.8919 242.172 72.7884 242.732 72.5815 243.264C72.3746 243.797 72.0806 244.265 71.6995 244.667C71.3184 245.069 70.861 245.391 70.3275 245.63C69.8049 245.868 69.2222 245.988 68.5799 245.988ZM65.7542 241.601C65.7542 242.047 65.8249 242.459 65.9665 242.84C66.1189 243.221 66.3204 243.552 66.5709 243.835C66.8322 244.118 67.1316 244.341 67.4692 244.504C67.8176 244.667 68.1879 244.749 68.5799 244.749C68.9719 244.749 69.3366 244.667 69.6742 244.504C70.0226 244.341 70.3275 244.118 70.5889 243.835C70.8502 243.542 71.0516 243.205 71.1932 242.824C71.3456 242.433 71.4219 242.014 71.4219 241.568C71.4219 241.134 71.3456 240.726 71.1932 240.345C71.0516 239.953 70.8502 239.617 70.5889 239.334C70.3275 239.04 70.0226 238.812 69.6742 238.649C69.3366 238.485 68.9719 238.404 68.5799 238.404C68.1879 238.404 67.8176 238.491 67.4692 238.665C67.1316 238.828 66.8322 239.056 66.5709 239.35C66.3204 239.633 66.1189 239.97 65.9665 240.361C65.8249 240.742 65.7542 241.155 65.7542 241.601ZM78.1451 245.988C77.5571 245.988 77.0128 245.868 76.5118 245.63C76.0109 245.391 75.5808 245.069 75.2215 244.667C74.8621 244.265 74.5791 243.797 74.3721 243.264C74.1761 242.732 74.0781 242.172 74.0781 241.584C74.0781 240.987 74.1708 240.421 74.3558 239.888C74.5518 239.344 74.8186 238.871 75.1561 238.469C75.5046 238.067 75.9129 237.751 76.3811 237.523C76.8603 237.284 77.3829 237.164 77.9491 237.164C78.6351 237.164 79.2449 237.344 79.7785 237.703C80.3229 238.061 80.7531 238.496 81.0688 239.007V233.918H82.5061V244.064C82.5061 244.4 82.6586 244.575 82.9635 244.586V245.825C82.8111 245.847 82.6858 245.864 82.5878 245.874C82.5008 245.885 82.4136 245.891 82.3265 245.891C82.0434 245.891 81.7929 245.798 81.5751 245.613C81.3683 245.417 81.2648 245.195 81.2648 244.944V244.227C80.9273 244.781 80.4754 245.216 79.9091 245.532C79.3538 245.836 78.7658 245.988 78.1451 245.988ZM78.4881 244.749C78.7495 244.749 79.0163 244.7 79.2885 244.602C79.5716 244.504 79.8329 244.368 80.0725 244.194C80.3229 244.021 80.5353 243.819 80.7095 243.591C80.8946 243.352 81.0144 243.101 81.0688 242.84V240.394C80.9708 240.122 80.8238 239.866 80.6278 239.627C80.4318 239.377 80.2086 239.165 79.9581 238.991C79.7186 238.806 79.4573 238.665 79.1741 238.567C78.9019 238.459 78.6298 238.404 78.3575 238.404C77.9328 238.404 77.5463 238.496 77.1978 238.681C76.8603 238.855 76.5663 239.095 76.3158 239.399C76.0763 239.692 75.8911 240.035 75.7605 240.426C75.6298 240.807 75.5645 241.199 75.5645 241.601C75.5645 242.025 75.6408 242.433 75.7931 242.824C75.9456 243.205 76.1525 243.536 76.4138 243.819C76.6751 244.102 76.9801 244.331 77.3285 244.504C77.6878 244.667 78.0744 244.749 78.4881 244.749ZM88.6786 245.988C88.0362 245.988 87.4482 245.874 86.9146 245.646C86.3811 245.407 85.9238 245.085 85.5426 244.684C85.1616 244.282 84.8621 243.813 84.6443 243.281C84.4374 242.737 84.3339 242.166 84.3339 241.568C84.3339 240.971 84.4374 240.404 84.6443 239.872C84.8621 239.339 85.1616 238.871 85.5426 238.469C85.9346 238.067 86.3974 237.751 86.9309 237.523C87.4646 237.284 88.0526 237.164 88.6949 237.164C89.3374 237.164 89.9199 237.284 90.4426 237.523C90.9762 237.762 91.4281 238.084 91.7983 238.485C92.1686 238.877 92.4516 239.339 92.6476 239.872C92.8546 240.394 92.9579 240.938 92.9579 241.503C92.9579 241.623 92.9526 241.731 92.9416 241.829C92.9416 241.927 92.9362 242.003 92.9253 242.058H85.8529C85.8856 242.482 85.9836 242.867 86.1469 243.216C86.3103 243.564 86.5226 243.862 86.7839 244.113C87.0453 244.363 87.3393 244.559 87.6659 244.7C88.0036 244.841 88.3574 244.912 88.7276 244.912C88.9889 244.912 89.2449 244.879 89.4953 244.814C89.7458 244.738 89.9799 244.64 90.1976 244.52C90.4154 244.4 90.6059 244.254 90.7693 244.08C90.9436 243.906 91.0742 243.711 91.1613 243.493L92.4026 243.835C92.2611 244.151 92.0651 244.439 91.8146 244.7C91.5751 244.961 91.2919 245.189 90.9653 245.385C90.6496 245.57 90.2956 245.717 89.9036 245.825C89.5116 245.934 89.1033 245.988 88.6786 245.988ZM91.6023 240.997C91.5696 240.595 91.4662 240.225 91.2919 239.888C91.1286 239.54 90.9163 239.246 90.6549 239.007C90.4046 238.769 90.1106 238.583 89.7729 238.453C89.4354 238.312 89.0761 238.241 88.6949 238.241C88.3139 238.241 87.9546 238.312 87.6169 238.453C87.2794 238.583 86.9799 238.773 86.7186 239.024C86.4682 239.263 86.2613 239.551 86.0979 239.888C85.9456 240.225 85.8529 240.595 85.8203 240.997H91.6023Z" fill="black"/>
<path d="M72.3335 193.398C91.6635 193.398 107.333 177.75 107.333 158.447C107.333 139.143 91.6635 123.495 72.3335 123.495C53.0035 123.495 37.3335 139.143 37.3335 158.447C37.3335 177.75 53.0035 193.398 72.3335 193.398Z" fill="#0053F1"/>
<path d="M82.2051 144.466H62.4616C61.6761 144.466 60.9229 144.782 60.3674 145.343C59.812 145.905 59.5 146.667 59.5 147.461V171.428C59.4997 171.617 59.553 171.803 59.6534 171.963C59.754 172.124 59.8977 172.251 60.0676 172.333C60.2376 172.413 60.4268 172.443 60.613 172.419C60.7992 172.395 60.9747 172.318 61.119 172.195L66.4103 167.732L71.1191 171.666C71.4739 171.966 71.921 172.129 72.3827 172.129C72.8445 172.129 73.2915 171.966 73.6463 171.666L78.2564 167.732L83.5477 172.195C83.7253 172.344 83.9488 172.426 84.1794 172.426C84.3225 172.426 84.464 172.396 84.5941 172.335C84.7655 172.256 84.9105 172.128 85.012 171.966C85.1135 171.805 85.1671 171.617 85.1667 171.428V147.461C85.1667 146.667 84.8547 145.905 84.2993 145.343C83.7438 144.782 82.9906 144.466 82.2051 144.466ZM83.1923 169.3L79.52 166.205C79.1652 165.905 78.7182 165.742 78.2564 165.742C77.7947 165.742 77.3476 165.905 76.9928 166.205L72.3333 170.129L67.6344 166.194C67.2796 165.896 66.8325 165.732 66.3707 165.732C65.9091 165.732 65.4619 165.896 65.1072 166.194L61.4744 169.29V147.461C61.4744 147.197 61.5784 146.943 61.7635 146.755C61.9486 146.568 62.1997 146.463 62.4616 146.463H82.2051C82.467 146.463 82.7181 146.568 82.9032 146.755C83.0883 146.943 83.1923 147.197 83.1923 147.461V169.3ZM80.2307 150.458C80.2307 150.722 80.1268 150.976 79.9416 151.164C79.7565 151.35 79.5054 151.456 79.2436 151.456H65.4231C65.1613 151.456 64.9102 151.35 64.725 151.164C64.5399 150.976 64.4359 150.722 64.4359 150.458C64.4359 150.192 64.5399 149.938 64.725 149.752C64.9102 149.564 65.1613 149.458 65.4231 149.458H79.2436C79.5054 149.458 79.7565 149.564 79.9416 149.752C80.1268 149.938 80.2307 150.192 80.2307 150.458ZM80.2307 155.45C80.2307 155.715 80.1268 155.969 79.9416 156.156C79.7565 156.344 79.5054 156.449 79.2436 156.449H65.4231C65.1613 156.449 64.9102 156.344 64.725 156.156C64.5399 155.969 64.4359 155.715 64.4359 155.45C64.4359 155.186 64.5399 154.932 64.725 154.744C64.9102 154.556 65.1613 154.452 65.4231 154.452H79.2436C79.5054 154.452 79.7565 154.556 79.9416 154.744C80.1268 154.932 80.2307 155.186 80.2307 155.45ZM80.2307 160.442C80.2307 160.708 80.1268 160.962 79.9416 161.15C79.7565 161.336 79.5054 161.442 79.2436 161.442H65.4231C65.1613 161.442 64.9102 161.336 64.725 161.15C64.5399 160.962 64.4359 160.708 64.4359 160.442C64.4359 160.178 64.5399 159.924 64.725 159.736C64.9102 159.55 65.1613 159.444 65.4231 159.444H79.2436C79.5054 159.444 79.7565 159.55 79.9416 159.736C80.1268 159.924 80.2307 160.178 80.2307 160.442Z" fill="white"/>
<path d="M382.667 205.049H312.667V251.65H382.667V205.049Z" fill="#F6F6FC"/>
<path d="M333.184 222.524V210.944H340.844V212.249H334.654V216.114H339.864V217.338H334.654V222.524H333.184ZM342.479 212.412V210.617H343.916V212.412H342.479ZM342.479 222.524V214.01H343.916V222.524H342.479ZM346.275 210.617H347.712V220.322C347.712 220.79 347.778 221.078 347.908 221.187C348.039 221.295 348.197 221.35 348.382 221.35C348.611 221.35 348.829 221.328 349.035 221.285C349.242 221.23 349.417 221.176 349.558 221.122L349.787 222.296C349.548 222.394 349.264 222.475 348.937 222.541C348.611 222.606 348.323 222.638 348.072 222.638C347.516 222.638 347.075 222.481 346.749 222.165C346.433 221.85 346.275 221.409 346.275 220.844V210.617ZM354.689 222.687C353.84 222.687 353.088 222.486 352.435 222.084C351.782 221.682 351.27 221.144 350.9 220.469C350.53 219.795 350.344 219.061 350.344 218.267C350.344 217.462 350.53 216.728 350.9 216.065C351.27 215.402 351.782 214.869 352.435 214.467C353.099 214.065 353.856 213.863 354.705 213.863C355.565 213.863 356.312 214.07 356.943 214.483C357.586 214.885 358.081 215.419 358.429 216.082C358.789 216.734 358.968 217.441 358.968 218.202C358.968 218.441 358.958 218.626 358.936 218.757H351.863C351.907 219.311 352.059 219.806 352.321 220.241C352.593 220.665 352.941 221.002 353.366 221.252C353.791 221.491 354.248 221.611 354.738 221.611C355.261 221.611 355.751 221.48 356.208 221.219C356.676 220.958 356.998 220.616 357.172 220.192L358.413 220.534C358.141 221.165 357.668 221.682 356.992 222.084C356.317 222.486 355.549 222.687 354.689 222.687ZM351.814 217.762H357.629C357.586 217.207 357.427 216.718 357.155 216.294C356.884 215.87 356.535 215.537 356.11 215.299C355.685 215.06 355.218 214.94 354.705 214.94C354.205 214.94 353.742 215.06 353.317 215.299C352.892 215.537 352.544 215.87 352.272 216.294C352.01 216.718 351.858 217.207 351.814 217.762ZM329.462 236.952V245.825H327.992V234.245H329.234L336.322 243.297V234.261H337.792V245.825H336.453L329.462 236.952ZM343.914 245.988C343.064 245.988 342.313 245.787 341.66 245.385C341.017 244.971 340.516 244.433 340.157 243.77C339.798 243.096 339.618 242.367 339.618 241.584C339.618 240.791 339.798 240.062 340.157 239.399C340.527 238.724 341.033 238.186 341.676 237.784C342.329 237.371 343.075 237.164 343.914 237.164C344.763 237.164 345.509 237.371 346.151 237.784C346.805 238.186 347.311 238.724 347.67 239.399C348.04 240.062 348.226 240.791 348.226 241.584C348.226 242.367 348.04 243.096 347.67 243.77C347.311 244.433 346.809 244.971 346.168 245.385C345.525 245.787 344.774 245.988 343.914 245.988ZM341.088 241.601C341.088 242.188 341.213 242.72 341.464 243.199C341.725 243.678 342.068 244.058 342.493 244.341C342.917 244.612 343.391 244.749 343.914 244.749C344.436 244.749 344.91 244.608 345.335 244.325C345.77 244.042 346.113 243.662 346.364 243.183C346.625 242.694 346.756 242.155 346.756 241.568C346.756 240.981 346.625 240.449 346.364 239.97C346.113 239.491 345.77 239.111 345.335 238.828C344.91 238.545 344.436 238.404 343.914 238.404C343.391 238.404 342.917 238.551 342.493 238.844C342.068 239.127 341.725 239.507 341.464 239.986C341.213 240.465 341.088 241.003 341.088 241.601ZM349.412 241.584C349.412 240.779 349.576 240.045 349.902 239.383C350.239 238.708 350.697 238.17 351.274 237.768C351.862 237.366 352.532 237.164 353.283 237.164C353.969 237.164 354.584 237.344 355.129 237.703C355.673 238.061 356.097 238.496 356.403 239.007V233.918H357.84V244.194C357.84 244.531 357.992 244.706 358.298 244.716V245.825C358.025 245.868 357.812 245.891 357.661 245.891C357.377 245.891 357.126 245.793 356.909 245.597C356.702 245.401 356.599 245.183 356.599 244.944V244.227C356.261 244.771 355.809 245.2 355.243 245.515C354.676 245.831 354.088 245.988 353.479 245.988C352.695 245.988 351.993 245.787 351.372 245.385C350.762 244.971 350.283 244.433 349.935 243.77C349.586 243.096 349.412 242.367 349.412 241.584ZM356.403 242.84V240.394C356.272 240.024 356.06 239.692 355.766 239.399C355.472 239.095 355.139 238.855 354.77 238.681C354.41 238.496 354.051 238.404 353.692 238.404C353.136 238.404 352.646 238.557 352.222 238.861C351.807 239.165 351.481 239.562 351.242 240.051C351.013 240.541 350.899 241.057 350.899 241.601C350.899 242.166 351.023 242.688 351.274 243.167C351.536 243.645 351.889 244.031 352.336 244.325C352.782 244.608 353.277 244.749 353.822 244.749C354.17 244.749 354.529 244.667 354.9 244.504C355.27 244.331 355.597 244.096 355.88 243.803C356.163 243.509 356.338 243.189 356.403 242.84ZM364.012 245.988C363.163 245.988 362.411 245.787 361.758 245.385C361.105 244.983 360.594 244.445 360.223 243.77C359.853 243.096 359.667 242.362 359.667 241.568C359.667 240.763 359.853 240.029 360.223 239.366C360.594 238.703 361.105 238.17 361.758 237.768C362.423 237.366 363.179 237.164 364.028 237.164C364.889 237.164 365.635 237.371 366.266 237.784C366.909 238.186 367.405 238.72 367.752 239.383C368.112 240.035 368.291 240.742 368.291 241.503C368.291 241.742 368.281 241.927 368.259 242.058H361.186C361.231 242.612 361.382 243.107 361.644 243.542C361.917 243.966 362.264 244.303 362.689 244.553C363.114 244.792 363.571 244.912 364.061 244.912C364.584 244.912 365.074 244.781 365.531 244.52C366 244.259 366.321 243.917 366.495 243.493L367.736 243.835C367.464 244.466 366.99 244.983 366.315 245.385C365.641 245.787 364.873 245.988 364.012 245.988ZM361.137 241.063H366.952C366.909 240.508 366.751 240.019 366.478 239.595C366.206 239.17 365.858 238.838 365.433 238.6C365.008 238.361 364.54 238.241 364.028 238.241C363.528 238.241 363.065 238.361 362.64 238.6C362.215 238.838 361.868 239.17 361.595 239.595C361.333 240.019 361.182 240.508 361.137 241.063Z" fill="black"/>
<path d="M347.667 193.398C366.996 193.398 382.667 177.75 382.667 158.447C382.667 139.143 366.996 123.495 347.667 123.495C328.337 123.495 312.667 139.143 312.667 158.447C312.667 177.75 328.337 193.398 347.667 193.398Z" fill="#0053F1"/>
<path d="M348.833 156.117H354.667L347.667 163.107L340.667 156.117H346.5V147.961H348.833V156.117ZM338.333 166.602H357V158.447H359.333V167.767C359.333 168.076 359.211 168.373 358.991 168.591C358.773 168.81 358.476 168.932 358.167 168.932H337.167C336.857 168.932 336.56 168.81 336.342 168.591C336.122 168.373 336 168.076 336 167.767V158.447H338.333V166.602Z" fill="white"/>
<path d="M210 6.99029C211.932 6.99029 213.5 5.42447 213.5 3.49515C213.5 1.56408 211.932 0 210 0C208.068 0 206.5 1.56408 206.5 3.49515C206.5 5.42447 208.068 6.99029 210 6.99029ZM220.461 20.2421C219.787 17.1402 218.61 12.0495 216.888 9.94194C215.213 7.89204 211.839 7.80641 210 7.80641C208.16 7.80641 204.786 7.89204 203.112 9.94194C201.39 12.0495 200.212 17.1402 199.538 20.2421C199.165 21.96 201.558 22.5909 202.182 20.8625C203.112 18.2883 203.829 16.1266 205.401 14.3336C206.227 19.4138 203.178 28.2548 203 33.2039C203 34.1685 203.784 34.9515 204.75 34.9515C205.495 34.9515 206.132 34.4866 206.384 33.8295C207.184 31.0561 210 23.3388 210 23.3388C210 23.3388 212.815 31.0561 213.615 33.8295C213.867 34.4866 214.504 34.9515 215.25 34.9515C216.216 34.9515 217 34.1685 217 33.2039C216.821 28.2548 213.773 19.4138 214.599 14.3353C216.17 16.1283 216.888 18.2901 217.817 20.8643C218.44 22.5909 220.834 21.96 220.461 20.2421Z" fill="#0053F1"/>
<path d="M374.98 7.40514L375.031 7.45632H375.104H387.625C387.966 7.45632 388.293 7.59134 388.533 7.83168C388.773 8.07202 388.909 8.39798 388.909 8.73788V29.1262C388.909 29.4661 388.773 29.7921 388.533 30.0324C388.293 30.2728 387.966 30.4078 387.625 30.4078H361.375C361.034 30.4078 360.708 30.2728 360.467 30.0324C360.227 29.7921 360.092 29.4661 360.092 29.1262V5.82525C360.092 5.48536 360.227 5.15939 360.467 4.91906C360.708 4.67872 361.034 4.5437 361.375 4.5437H372.114L374.98 7.40514ZM386.342 16.0194V15.8447H386.167H362.833H362.658V16.0194V27.6699V27.8447H362.833H386.167H386.342V27.6699V16.0194ZM386.167 13.2816H386.342V13.1068V10.1942V10.0194H386.167H373.969L371.104 7.15799L371.053 7.10681H370.98H362.833H362.658V7.28157V13.1068V13.2816H362.833H386.167Z" fill="#9B9CA8" stroke="white" stroke-width="0.3"/>
<path d="M255.5 274.951H164.5V321.553H255.5V274.951Z" fill="#F4F6FD"/>
<path d="M182.755 292.509C181.992 292.509 181.279 292.346 180.615 292.019C179.962 291.683 179.39 291.237 178.9 290.682C178.41 290.117 178.029 289.485 177.757 288.79C177.484 288.083 177.349 287.355 177.349 286.604C177.349 285.821 177.484 285.082 177.757 284.386C178.029 283.679 178.404 283.054 178.884 282.51C179.374 281.966 179.946 281.542 180.599 281.238C181.263 280.922 181.981 280.765 182.755 280.765C183.876 280.765 184.801 280.999 185.532 281.466C186.261 281.934 186.81 282.543 187.181 283.293L186.054 284.076C185.716 283.402 185.254 282.902 184.666 282.576C184.078 282.249 183.429 282.086 182.722 282.086C182.134 282.086 181.6 282.211 181.122 282.461C180.642 282.712 180.228 283.054 179.88 283.489C179.542 283.913 179.281 284.397 179.096 284.941C178.921 285.485 178.835 286.05 178.835 286.637C178.835 287.463 179.009 288.225 179.358 288.92C179.717 289.605 180.201 290.154 180.811 290.568C181.42 290.981 182.106 291.188 182.869 291.188C183.49 291.188 184.083 291.041 184.65 290.747C185.226 290.443 185.771 289.981 186.283 289.361V287.762H183.784V286.653H187.524V292.427H186.283V290.861C185.281 291.96 184.105 292.509 182.755 292.509ZM188.861 289.964C188.861 289.42 189.014 288.953 189.319 288.562C189.635 288.16 190.064 287.85 190.609 287.632C191.154 287.414 191.785 287.306 192.504 287.306C192.885 287.306 193.288 287.338 193.712 287.404C194.137 287.458 194.513 287.544 194.839 287.664V287.045C194.839 286.392 194.643 285.881 194.251 285.511C193.859 285.13 193.304 284.941 192.585 284.941C192.117 284.941 191.665 285.028 191.23 285.202C190.805 285.365 190.353 285.604 189.874 285.919L189.351 284.908C189.907 284.527 190.462 284.245 191.017 284.06C191.573 283.864 192.15 283.766 192.749 283.766C193.837 283.766 194.698 284.07 195.329 284.68C195.96 285.277 196.277 286.115 196.277 287.191V290.796C196.277 291.133 196.429 291.308 196.734 291.318V292.427C196.593 292.449 196.467 292.466 196.358 292.476C196.26 292.487 196.179 292.492 196.113 292.492C195.776 292.492 195.519 292.4 195.346 292.215C195.182 292.03 195.09 291.834 195.068 291.628L195.035 291.09C194.665 291.569 194.18 291.938 193.582 292.199C192.983 292.46 192.389 292.59 191.801 292.59C191.235 292.59 190.729 292.476 190.282 292.248C189.835 292.009 189.488 291.693 189.237 291.302C188.986 290.9 188.861 290.454 188.861 289.964ZM194.415 290.568C194.545 290.415 194.649 290.264 194.725 290.111C194.801 289.948 194.839 289.812 194.839 289.703V288.643C194.143 288.372 193.424 288.235 192.683 288.235C191.954 288.235 191.36 288.382 190.903 288.676C190.456 288.959 190.233 289.35 190.233 289.85C190.233 290.122 190.304 290.388 190.446 290.649C190.598 290.9 190.815 291.106 191.099 291.269C191.393 291.432 191.752 291.514 192.177 291.514C192.624 291.514 193.048 291.426 193.451 291.253C193.853 291.068 194.175 290.839 194.415 290.568ZM202.921 292.003C202.747 292.079 202.469 292.188 202.088 292.329C201.718 292.47 201.304 292.541 200.846 292.541C200.324 292.541 199.872 292.4 199.491 292.117C199.11 291.824 198.919 291.373 198.919 290.764V285.038H197.759V283.913H198.919V281.075H200.356V283.913H202.267V285.038H200.356V290.323C200.379 290.627 200.482 290.856 200.667 291.008C200.852 291.149 201.07 291.22 201.32 291.22C201.604 291.22 201.865 291.171 202.104 291.073C202.344 290.976 202.502 290.904 202.578 290.861L202.921 292.003ZM207.914 292.59C207.065 292.59 206.313 292.389 205.66 291.987C205.007 291.585 204.496 291.047 204.125 290.372C203.755 289.697 203.569 288.964 203.569 288.17C203.569 287.365 203.755 286.631 204.125 285.968C204.496 285.305 205.007 284.772 205.66 284.37C206.325 283.968 207.081 283.766 207.93 283.766C208.791 283.766 209.537 283.972 210.168 284.386C210.811 284.788 211.307 285.322 211.654 285.984C212.014 286.637 212.193 287.344 212.193 288.105C212.193 288.344 212.183 288.529 212.161 288.659H205.088C205.133 289.214 205.284 289.709 205.546 290.144C205.819 290.568 206.166 290.904 206.591 291.155C207.016 291.394 207.473 291.514 207.963 291.514C208.486 291.514 208.976 291.383 209.433 291.122C209.902 290.861 210.223 290.519 210.397 290.095L211.638 290.437C211.366 291.068 210.893 291.585 210.217 291.987C209.543 292.389 208.775 292.59 207.914 292.59ZM205.039 287.664H210.854C210.811 287.11 210.653 286.621 210.38 286.197C210.109 285.772 209.76 285.44 209.335 285.202C208.91 284.963 208.443 284.843 207.93 284.843C207.43 284.843 206.967 284.963 206.542 285.202C206.117 285.44 205.77 285.772 205.497 286.197C205.235 286.621 205.084 287.11 205.039 287.664ZM224.25 283.913H225.638L222.012 292.427H220.754L219.105 288.415L217.471 292.427H216.214L212.588 283.913H213.96L216.9 291.008L218.272 287.518L216.834 283.929H218.092L219.105 286.637L220.117 283.929H221.375L219.954 287.518L221.326 291.008L224.25 283.913ZM226.106 289.964C226.106 289.42 226.258 288.953 226.563 288.562C226.878 288.16 227.309 287.85 227.854 287.632C228.397 287.414 229.03 287.306 229.748 287.306C230.129 287.306 230.532 287.338 230.957 287.404C231.382 287.458 231.757 287.544 232.084 287.664V287.045C232.084 286.392 231.888 285.881 231.496 285.511C231.104 285.13 230.549 284.941 229.83 284.941C229.361 284.941 228.909 285.028 228.474 285.202C228.05 285.365 227.597 285.604 227.119 285.919L226.596 284.908C227.151 284.527 227.707 284.245 228.262 284.06C228.817 283.864 229.394 283.766 229.993 283.766C231.082 283.766 231.942 284.07 232.574 284.68C233.205 285.277 233.521 286.115 233.521 287.191V290.796C233.521 291.133 233.673 291.308 233.979 291.318V292.427C233.836 292.449 233.711 292.466 233.603 292.476C233.505 292.487 233.423 292.492 233.358 292.492C233.02 292.492 232.764 292.4 232.59 292.215C232.427 292.03 232.334 291.834 232.313 291.628L232.28 291.09C231.909 291.569 231.425 291.938 230.826 292.199C230.227 292.46 229.634 292.59 229.046 292.59C228.479 292.59 227.973 292.476 227.527 292.248C227.08 292.009 226.731 291.693 226.482 291.302C226.231 290.9 226.106 290.454 226.106 289.964ZM231.659 290.568C231.79 290.415 231.893 290.264 231.97 290.111C232.045 289.948 232.084 289.812 232.084 289.703V288.643C231.386 288.372 230.668 288.235 229.928 288.235C229.198 288.235 228.605 288.382 228.148 288.676C227.701 288.959 227.478 289.35 227.478 289.85C227.478 290.122 227.548 290.388 227.69 290.649C227.842 290.9 228.06 291.106 228.344 291.269C228.638 291.432 228.997 291.514 229.422 291.514C229.867 291.514 230.292 291.426 230.696 291.253C231.098 291.068 231.419 290.839 231.659 290.568ZM235.94 294.743C236.082 294.754 236.223 294.765 236.364 294.776C236.507 294.798 236.615 294.809 236.691 294.809C236.866 294.809 237.018 294.749 237.148 294.629C237.279 294.509 237.421 294.276 237.573 293.928C237.736 293.591 237.944 293.09 238.194 292.427L234.584 283.913H236.103L238.978 290.976L241.575 283.913H242.996L238.847 294.662C238.706 295.043 238.45 295.374 238.079 295.657C237.72 295.95 237.236 296.097 236.626 296.097C236.528 296.097 236.425 296.091 236.315 296.081C236.217 296.07 236.093 296.048 235.94 296.016V294.743ZM191.795 306.855V315.728H190.325V304.148H191.567L198.655 313.2V304.164H200.125V315.728H198.786L191.795 306.855ZM206.247 315.891C205.398 315.891 204.646 315.69 203.993 315.288C203.35 314.874 202.85 314.336 202.49 313.673C202.131 312.998 201.951 312.27 201.951 311.487C201.951 310.694 202.131 309.965 202.49 309.302C202.86 308.627 203.366 308.089 204.009 307.687C204.663 307.273 205.408 307.067 206.247 307.067C207.096 307.067 207.842 307.273 208.485 307.687C209.138 308.089 209.644 308.627 210.004 309.302C210.373 309.965 210.559 310.694 210.559 311.487C210.559 312.27 210.373 312.998 210.004 313.673C209.644 314.336 209.143 314.874 208.501 315.288C207.858 315.69 207.107 315.891 206.247 315.891ZM203.421 311.504C203.421 312.091 203.546 312.623 203.797 313.102C204.058 313.581 204.401 313.961 204.826 314.244C205.251 314.515 205.724 314.652 206.247 314.652C206.77 314.652 207.243 314.511 207.668 314.228C208.103 313.944 208.446 313.565 208.697 313.086C208.958 312.596 209.089 312.058 209.089 311.471C209.089 310.884 208.958 310.351 208.697 309.873C208.446 309.394 208.103 309.014 207.668 308.731C207.243 308.448 206.77 308.307 206.247 308.307C205.724 308.307 205.251 308.454 204.826 308.747C204.401 309.03 204.058 309.41 203.797 309.889C203.546 310.368 203.421 310.906 203.421 311.504ZM211.745 311.487C211.745 310.682 211.909 309.948 212.235 309.285C212.573 308.611 213.03 308.073 213.607 307.671C214.195 307.269 214.865 307.067 215.616 307.067C216.302 307.067 216.917 307.247 217.462 307.605C218.006 307.964 218.43 308.399 218.736 308.91V303.821H220.173V314.097C220.173 314.434 220.325 314.609 220.631 314.619V315.728C220.358 315.771 220.145 315.793 219.994 315.793C219.71 315.793 219.459 315.696 219.242 315.5C219.035 315.304 218.932 315.086 218.932 314.847V314.13C218.594 314.674 218.142 315.103 217.576 315.418C217.009 315.734 216.421 315.891 215.812 315.891C215.028 315.891 214.326 315.69 213.705 315.288C213.095 314.874 212.616 314.336 212.268 313.673C211.919 312.998 211.745 312.27 211.745 311.487ZM218.736 312.743V310.297C218.605 309.927 218.393 309.595 218.099 309.302C217.805 308.998 217.473 308.758 217.103 308.584C216.743 308.399 216.384 308.307 216.025 308.307C215.469 308.307 214.979 308.459 214.555 308.763C214.141 309.068 213.814 309.465 213.575 309.954C213.346 310.443 213.232 310.96 213.232 311.504C213.232 312.069 213.357 312.591 213.607 313.069C213.869 313.548 214.222 313.934 214.669 314.228C215.115 314.511 215.611 314.652 216.155 314.652C216.503 314.652 216.862 314.57 217.233 314.407C217.603 314.233 217.93 313.999 218.213 313.706C218.496 313.412 218.671 313.092 218.736 312.743ZM226.345 315.891C225.496 315.891 224.744 315.69 224.091 315.288C223.438 314.886 222.927 314.348 222.556 313.673C222.186 312.998 222 312.264 222 311.471C222 310.666 222.186 309.932 222.556 309.269C222.927 308.606 223.438 308.073 224.091 307.671C224.756 307.269 225.512 307.067 226.361 307.067C227.222 307.067 227.968 307.273 228.599 307.687C229.242 308.089 229.738 308.623 230.085 309.285C230.445 309.938 230.624 310.645 230.624 311.406C230.624 311.645 230.614 311.83 230.592 311.96H223.519C223.564 312.515 223.715 313.01 223.977 313.445C224.25 313.869 224.597 314.205 225.022 314.456C225.447 314.695 225.904 314.815 226.394 314.815C226.917 314.815 227.407 314.684 227.864 314.423C228.333 314.162 228.654 313.82 228.828 313.396L230.069 313.738C229.797 314.369 229.324 314.886 228.648 315.288C227.974 315.69 227.206 315.891 226.345 315.891ZM223.47 310.965H229.285C229.242 310.411 229.084 309.922 228.811 309.497C228.54 309.073 228.191 308.741 227.766 308.503C227.341 308.264 226.874 308.144 226.361 308.144C225.861 308.144 225.398 308.264 224.973 308.503C224.548 308.741 224.201 309.073 223.928 309.497C223.666 309.922 223.515 310.411 223.47 310.965Z" fill="black"/>
<path d="M210 263.301C229.33 263.301 245 247.653 245 228.35C245 209.046 229.33 193.398 210 193.398C190.67 193.398 175 209.046 175 228.35C175 247.653 190.67 263.301 210 263.301Z" fill="#0053F1"/>
<path fill-rule="evenodd" clip-rule="evenodd" d="M208.834 219.029H200.667V237.67H208.834V240H199.5C198.856 240 198.333 239.478 198.333 238.835V217.864C198.333 217.221 198.856 216.699 199.5 216.699H208.834V219.029ZM216.283 228.35V230.68H207.667V233.01H216.283V235.34L221.667 231.845L216.283 228.35ZM213.051 226.019V228.35L207.667 224.854L213.051 221.359V223.689H221.667V226.019H213.051Z" fill="white"/>
<path d="M72.3333 123.495L65.2607 113.01H79.4059L72.3333 123.495Z" fill="#F88419"/>
<path d="M347.667 466.019L340.594 455.534H354.739L347.667 466.019Z" fill="#F88419"/>
<path d="M236.833 17.4757L247.333 10.413V24.5385L236.833 17.4757Z" fill="#9B9CA8"/>
<path d="M347.667 123.495L340.594 113.01H354.739L347.667 123.495Z" fill="#9B9CA8"/>
<path d="M72.3333 466.019L65.2607 455.534H79.4059L72.3333 466.019Z" fill="#9B9CA8"/>
<path d="M316.454 174.343L310.502 185.501L303.862 173.03L316.454 174.343Z" fill="#9B9CA8"/>
<path d="M178.755 244.178L172.808 255.336L166.167 242.863L178.755 244.178Z" fill="#9B9CA8"/>
<path d="M241.173 212.413L247.025 201.213L253.765 213.631L241.173 212.413Z" fill="#9B9CA8"/>
<path d="M178.78 212.447L166.219 214.008L172.614 201.408L178.78 212.447Z" fill="#F88419"/>
<path d="M312.666 158.447L302.167 165.509V151.384L312.666 158.447Z" fill="#F88419"/>
<path d="M324.776 458.447C316.834 423.981 283.57 395.983 239.478 388.645C229.548 386.993 221.199 386.796 210 386.796C198.101 386.796 190.453 386.993 180.522 388.645C136.43 395.983 103.166 423.981 95.2248 458.447C60.431 465.591 35.0457 490.834 35.0144 520.588C35.0122 522.671 35.0137 524.818 35.0137 526.674C35.0153 530.388 34.8871 534.087 35.3842 537.847C38.9202 564.592 67.1113 584.881 100.702 584.854H319.298C352.889 584.881 381.08 564.592 384.615 537.847C385.113 534.087 384.985 530.388 384.985 526.674C384.986 524.818 384.987 522.671 384.985 520.588C384.955 490.834 359.569 465.591 324.776 458.447Z" fill="#F4F6FD"/>
<path d="M156.371 485.825V474.245H160.585C161.848 474.245 162.904 474.506 163.753 475.028C164.603 475.539 165.24 476.235 165.664 477.115C166.089 477.986 166.301 478.953 166.301 480.019C166.301 481.193 166.067 482.215 165.599 483.085C165.131 483.955 164.466 484.629 163.606 485.108C162.747 485.586 161.739 485.825 160.585 485.825H156.371ZM164.031 480.019C164.031 479.268 163.895 478.61 163.623 478.045C163.351 477.468 162.959 477.023 162.447 476.708C161.935 476.381 161.314 476.218 160.585 476.218H158.625V483.852H160.585C161.326 483.852 161.951 483.689 162.463 483.362C162.975 483.026 163.361 482.569 163.623 481.992C163.895 481.405 164.031 480.747 164.031 480.019ZM171.82 485.988C170.893 485.988 170.093 485.787 169.419 485.385C168.754 484.983 168.237 484.449 167.867 483.786C167.496 483.112 167.312 482.384 167.312 481.601C167.312 480.796 167.491 480.057 167.851 479.383C168.221 478.697 168.743 478.153 169.419 477.751C170.093 477.338 170.899 477.132 171.836 477.132C172.772 477.132 173.572 477.338 174.237 477.751C174.901 478.153 175.407 478.692 175.756 479.366C176.115 480.029 176.295 480.747 176.295 481.519C176.295 481.802 176.279 482.047 176.246 482.253H169.631C169.685 482.916 169.93 483.438 170.366 483.819C170.812 484.2 171.324 484.39 171.901 484.39C172.337 484.39 172.745 484.286 173.126 484.08C173.518 483.862 173.784 483.58 173.927 483.232L175.805 483.754C175.489 484.406 174.983 484.944 174.286 485.369C173.588 485.782 172.767 485.988 171.82 485.988ZM169.582 480.867H174.057C173.992 480.225 173.747 479.709 173.322 479.317C172.908 478.915 172.402 478.714 171.803 478.714C171.215 478.714 170.709 478.915 170.284 479.317C169.87 479.709 169.636 480.225 169.582 480.867ZM181.613 485.988C180.688 485.988 179.887 485.782 179.212 485.369C178.537 484.955 178.015 484.412 177.644 483.737C177.274 483.063 177.088 482.335 177.088 481.552C177.088 480.758 177.268 480.024 177.627 479.35C177.998 478.675 178.521 478.137 179.195 477.735C179.871 477.333 180.671 477.132 181.596 477.132C182.533 477.132 183.328 477.333 183.981 477.735C184.646 478.137 185.141 478.665 185.467 479.317L183.328 479.97C182.947 479.317 182.364 478.991 181.58 478.991C181.155 478.991 180.775 479.099 180.437 479.317C180.1 479.523 179.832 479.823 179.636 480.214C179.44 480.595 179.342 481.04 179.342 481.552C179.342 482.052 179.44 482.498 179.636 482.889C179.844 483.27 180.116 483.574 180.453 483.803C180.791 484.021 181.167 484.129 181.58 484.129C181.972 484.129 182.331 484.037 182.658 483.852C182.996 483.656 183.23 483.411 183.36 483.118L185.5 483.77C185.206 484.412 184.716 484.944 184.03 485.369C183.356 485.782 182.55 485.988 181.613 485.988ZM190.736 485.988C189.811 485.988 189.011 485.787 188.335 485.385C187.671 484.983 187.154 484.449 186.783 483.786C186.414 483.112 186.228 482.384 186.228 481.601C186.228 480.796 186.408 480.057 186.767 479.383C187.138 478.697 187.661 478.153 188.335 477.751C189.011 477.338 189.817 477.132 190.752 477.132C191.689 477.132 192.49 477.338 193.153 477.751C193.818 478.153 194.325 478.692 194.672 479.366C195.032 480.029 195.211 480.747 195.211 481.519C195.211 481.802 195.195 482.047 195.162 482.253H188.547C188.602 482.916 188.847 483.438 189.282 483.819C189.729 484.2 190.241 484.39 190.818 484.39C191.254 484.39 191.662 484.286 192.043 484.08C192.435 483.862 192.702 483.58 192.843 483.232L194.721 483.754C194.406 484.406 193.9 484.944 193.202 485.369C192.506 485.782 191.683 485.988 190.736 485.988ZM188.498 480.867H192.974C192.908 480.225 192.663 479.709 192.239 479.317C191.826 478.915 191.319 478.714 190.72 478.714C190.132 478.714 189.625 478.915 189.201 479.317C188.788 479.709 188.553 480.225 188.498 480.867ZM204.499 485.825H202.311V481.03C202.311 480.345 202.192 479.845 201.951 479.529C201.712 479.214 201.38 479.056 200.955 479.056C200.661 479.056 200.362 479.132 200.057 479.285C199.763 479.437 199.497 479.649 199.256 479.921C199.017 480.182 198.843 480.486 198.734 480.834V485.825H196.545V477.278H198.521V478.861C198.837 478.328 199.295 477.909 199.893 477.605C200.493 477.289 201.167 477.132 201.919 477.132C202.453 477.132 202.888 477.23 203.225 477.425C203.564 477.61 203.825 477.866 204.009 478.192C204.195 478.508 204.32 478.866 204.385 479.268C204.462 479.67 204.499 480.078 204.499 480.492V485.825ZM211.483 485.385C211.189 485.515 210.825 485.646 210.389 485.776C209.964 485.907 209.523 485.972 209.066 485.972C208.663 485.972 208.293 485.901 207.955 485.76C207.618 485.619 207.346 485.395 207.138 485.091C206.942 484.776 206.844 484.368 206.844 483.868V478.958H205.717V477.278H206.844V474.506H209.033V477.278H210.83V478.958H209.033V483.134C209.033 483.428 209.11 483.64 209.262 483.77C209.425 483.901 209.621 483.966 209.85 483.966C210.078 483.966 210.302 483.927 210.519 483.852C210.737 483.776 210.911 483.711 211.042 483.656L211.483 485.385ZM217.72 479.17C217.055 479.17 216.462 479.301 215.94 479.562C215.417 479.812 215.041 480.176 214.813 480.655V485.825H212.624V477.278H214.633V479.105C214.927 478.518 215.307 478.056 215.776 477.719C216.255 477.382 216.756 477.197 217.279 477.164C217.508 477.164 217.655 477.17 217.72 477.181V479.17ZM218.304 483.297C218.304 482.742 218.456 482.259 218.762 481.845C219.077 481.421 219.513 481.095 220.068 480.867C220.624 480.638 221.261 480.524 221.979 480.524C222.339 480.524 222.703 480.557 223.074 480.622C223.444 480.677 223.764 480.758 224.037 480.867V480.41C224.037 479.866 223.874 479.448 223.547 479.154C223.231 478.861 222.758 478.714 222.126 478.714C221.657 478.714 221.212 478.795 220.787 478.958C220.362 479.122 219.916 479.36 219.448 479.676L218.745 478.241C219.311 477.871 219.889 477.594 220.477 477.409C221.075 477.224 221.702 477.132 222.355 477.132C223.574 477.132 224.522 477.436 225.197 478.045C225.883 478.654 226.226 479.523 226.226 480.655V483.379C226.226 483.617 226.263 483.786 226.34 483.884C226.416 483.972 226.553 484.025 226.749 484.047V485.825C226.553 485.868 226.373 485.896 226.21 485.907C226.057 485.929 225.926 485.939 225.818 485.939C225.381 485.939 225.05 485.842 224.821 485.646C224.593 485.45 224.456 485.211 224.413 484.928L224.364 484.488C223.983 484.977 223.515 485.352 222.959 485.613C222.415 485.864 221.853 485.988 221.277 485.988C220.7 485.988 220.187 485.874 219.742 485.646C219.295 485.407 218.941 485.085 218.68 484.683C218.429 484.27 218.304 483.809 218.304 483.297ZM223.629 483.737C223.901 483.477 224.037 483.226 224.037 482.987V482.123C223.47 481.894 222.899 481.78 222.322 481.78C221.745 481.78 221.277 481.905 220.918 482.155C220.558 482.394 220.379 482.716 220.379 483.118C220.379 483.444 220.509 483.737 220.771 483.998C221.032 484.259 221.408 484.39 221.898 484.39C222.224 484.39 222.539 484.33 222.845 484.21C223.16 484.09 223.421 483.933 223.629 483.737ZM228.255 473.918H230.444V483.085C230.444 483.487 230.509 483.754 230.64 483.884C230.77 484.015 230.95 484.08 231.179 484.08C231.352 484.08 231.532 484.058 231.718 484.015C231.902 483.972 232.065 483.917 232.208 483.852L232.502 485.515C232.208 485.656 231.865 485.766 231.473 485.842C231.081 485.917 230.726 485.956 230.411 485.956C229.725 485.956 229.191 485.776 228.81 485.417C228.439 485.048 228.255 484.526 228.255 483.852V473.918ZM233.455 476.088V473.918H235.643V476.088H233.455ZM233.455 485.825V477.278H235.643V485.825H233.455ZM237.046 484.488L241.766 478.812H237.242V477.278H244.118V478.616L239.43 484.292H244.2V485.825H237.046V484.488ZM249.499 485.988C248.572 485.988 247.772 485.787 247.098 485.385C246.433 484.983 245.916 484.449 245.546 483.786C245.175 483.112 244.991 482.384 244.991 481.601C244.991 480.796 245.17 480.057 245.53 479.383C245.9 478.697 246.422 478.153 247.098 477.751C247.772 477.338 248.578 477.132 249.515 477.132C250.451 477.132 251.251 477.338 251.916 477.751C252.58 478.153 253.086 478.692 253.435 479.366C253.794 480.029 253.974 480.747 253.974 481.519C253.974 481.802 253.958 482.047 253.925 482.253H247.31C247.364 482.916 247.609 483.438 248.045 483.819C248.491 484.2 249.003 484.39 249.58 484.39C250.016 484.39 250.424 484.286 250.805 484.08C251.197 483.862 251.463 483.58 251.606 483.232L253.484 483.754C253.168 484.406 252.662 484.944 251.965 485.369C251.267 485.782 250.446 485.988 249.499 485.988ZM247.261 480.867H251.736C251.671 480.225 251.426 479.709 251.001 479.317C250.587 478.915 250.081 478.714 249.482 478.714C248.894 478.714 248.388 478.915 247.963 479.317C247.549 479.709 247.315 480.225 247.261 480.867ZM254.784 481.552C254.784 480.736 254.947 479.992 255.274 479.317C255.6 478.643 256.053 478.11 256.629 477.719C257.207 477.327 257.866 477.132 258.606 477.132C259.238 477.132 259.804 477.289 260.304 477.605C260.817 477.909 261.214 478.3 261.497 478.779V473.918H263.685V483.379C263.685 483.617 263.724 483.786 263.8 483.884C263.877 483.972 264.007 484.025 264.192 484.047V485.825C263.8 485.901 263.489 485.939 263.261 485.939C262.869 485.939 262.542 485.842 262.281 485.646C262.031 485.45 261.889 485.195 261.856 484.879L261.823 484.341C261.508 484.873 261.078 485.281 260.533 485.564C260 485.847 259.439 485.988 258.851 485.988C258.056 485.988 257.354 485.793 256.744 485.401C256.135 484.999 255.655 484.466 255.306 483.803C254.959 483.128 254.784 482.378 254.784 481.552ZM261.497 482.694V480.655C261.323 480.176 261.023 479.78 260.598 479.464C260.174 479.148 259.739 478.991 259.292 478.991C258.846 478.991 258.454 479.116 258.116 479.366C257.779 479.605 257.517 479.927 257.332 480.329C257.147 480.72 257.054 481.144 257.054 481.601C257.054 482.068 257.158 482.498 257.364 482.889C257.572 483.27 257.85 483.574 258.197 483.803C258.557 484.021 258.965 484.129 259.422 484.129C259.837 484.129 260.245 483.993 260.647 483.721C261.062 483.45 261.345 483.107 261.497 482.694ZM150.221 507.915C150.221 507.207 150.346 506.512 150.597 505.827C150.858 505.142 151.234 504.522 151.724 503.967C152.214 503.413 152.812 502.972 153.521 502.646C154.229 502.309 155.034 502.141 155.938 502.141C156.994 502.141 157.914 502.375 158.698 502.842C159.482 503.309 160.064 503.918 160.446 504.669L158.715 505.859C158.519 505.425 158.263 505.082 157.947 504.832C157.631 504.581 157.288 504.402 156.918 504.294C156.559 504.185 156.21 504.13 155.873 504.13C155.307 504.13 154.811 504.245 154.386 504.473C153.972 504.701 153.624 505.001 153.341 505.37C153.057 505.739 152.845 506.153 152.704 506.61C152.573 507.066 152.508 507.523 152.508 507.98C152.508 508.665 152.649 509.307 152.933 509.904C153.216 510.492 153.613 510.97 154.125 511.34C154.637 511.709 155.23 511.894 155.905 511.894C156.254 511.894 156.613 511.835 156.983 511.715C157.365 511.595 157.712 511.405 158.029 511.144C158.345 510.883 158.59 510.546 158.764 510.133L160.609 511.193C160.37 511.77 159.994 512.259 159.482 512.661C158.97 513.052 158.394 513.356 157.751 513.574C157.108 513.781 156.471 513.884 155.84 513.884C155.013 513.884 154.256 513.715 153.57 513.379C152.894 513.03 152.306 512.574 151.806 512.009C151.305 511.432 150.913 510.791 150.63 510.084C150.358 509.366 150.221 508.643 150.221 507.915ZM161.893 501.88H164.081V511.046C164.081 511.448 164.147 511.715 164.277 511.845C164.408 511.976 164.588 512.041 164.816 512.041C164.99 512.041 165.17 512.019 165.355 511.976C165.54 511.933 165.703 511.878 165.845 511.813L166.139 513.477C165.845 513.617 165.502 513.727 165.11 513.803C164.718 513.878 164.364 513.917 164.049 513.917C163.363 513.917 162.828 513.737 162.448 513.379C162.077 513.009 161.893 512.487 161.893 511.813V501.88ZM171.045 513.95C170.108 513.95 169.303 513.748 168.628 513.346C167.964 512.932 167.452 512.389 167.092 511.715C166.733 511.04 166.553 510.312 166.553 509.529C166.553 508.736 166.733 508.002 167.092 507.327C167.462 506.653 167.98 506.115 168.644 505.713C169.32 505.299 170.12 505.093 171.045 505.093C171.97 505.093 172.766 505.299 173.43 505.713C174.105 506.115 174.622 506.653 174.981 507.327C175.341 508.002 175.52 508.736 175.52 509.529C175.52 510.312 175.341 511.04 174.981 511.715C174.622 512.389 174.105 512.932 173.43 513.346C172.766 513.748 171.97 513.95 171.045 513.95ZM168.807 509.529C168.807 510.029 168.905 510.475 169.101 510.867C169.297 511.248 169.565 511.546 169.902 511.764C170.239 511.982 170.62 512.09 171.045 512.09C171.459 512.09 171.835 511.982 172.172 511.764C172.509 511.536 172.776 511.231 172.972 510.851C173.179 510.459 173.283 510.013 173.283 509.513C173.283 509.024 173.179 508.589 172.972 508.208C172.776 507.817 172.509 507.513 172.172 507.295C171.835 507.066 171.459 506.952 171.045 506.952C170.62 506.952 170.239 507.066 169.902 507.295C169.565 507.513 169.297 507.817 169.101 508.208C168.905 508.589 168.807 509.03 168.807 509.529ZM176.916 510.59V505.24H179.104V510.117C179.104 511.432 179.578 512.09 180.525 512.09C180.95 512.09 181.358 511.965 181.75 511.715C182.154 511.454 182.481 511.063 182.73 510.541V505.24H184.919V511.34C184.919 511.579 184.958 511.748 185.033 511.845C185.11 511.933 185.246 511.986 185.442 512.009V513.786C185.225 513.83 185.039 513.857 184.886 513.868C184.745 513.878 184.615 513.884 184.494 513.884C184.102 513.884 183.782 513.797 183.531 513.623C183.292 513.438 183.15 513.189 183.106 512.873L183.057 512.188C182.677 512.775 182.187 513.216 181.587 513.509C180.989 513.803 180.329 513.95 179.611 513.95C178.729 513.95 178.059 513.666 177.602 513.101C177.144 512.525 176.916 511.688 176.916 510.59ZM186.572 509.513C186.572 508.697 186.736 507.953 187.062 507.278C187.389 506.604 187.84 506.071 188.418 505.68C188.994 505.289 189.653 505.093 190.394 505.093C191.025 505.093 191.591 505.25 192.093 505.566C192.604 505.87 193.002 506.261 193.285 506.74V501.88H195.474V511.34C195.474 511.579 195.511 511.748 195.588 511.845C195.664 511.933 195.795 511.986 195.98 512.009V513.786C195.588 513.862 195.278 513.901 195.049 513.901C194.657 513.901 194.331 513.803 194.069 513.607C193.818 513.411 193.677 513.156 193.645 512.84L193.612 512.302C193.296 512.835 192.865 513.242 192.322 513.525C191.787 513.809 191.227 513.95 190.639 513.95C189.844 513.95 189.141 513.754 188.532 513.362C187.922 512.96 187.443 512.427 187.095 511.764C186.746 511.089 186.572 510.339 186.572 509.513ZM193.285 510.655V508.616C193.11 508.137 192.812 507.741 192.387 507.425C191.962 507.11 191.526 506.952 191.08 506.952C190.633 506.952 190.241 507.077 189.904 507.327C189.566 507.566 189.305 507.888 189.12 508.29C188.935 508.681 188.843 509.105 188.843 509.562C188.843 510.029 188.945 510.459 189.153 510.851C189.359 511.231 189.637 511.536 189.986 511.764C190.345 511.982 190.754 512.09 191.211 512.09C191.624 512.09 192.032 511.954 192.436 511.682C192.849 511.411 193.132 511.068 193.285 510.655ZM208.667 505.24C208.569 505.131 208.362 504.989 208.046 504.816C207.731 504.63 207.349 504.467 206.903 504.326C206.467 504.174 206.016 504.098 205.547 504.098C204.317 504.098 203.701 504.532 203.701 505.403C203.701 505.718 203.799 505.968 203.995 506.153C204.191 506.338 204.485 506.496 204.877 506.626C205.269 506.757 205.759 506.897 206.347 507.05C207.11 507.246 207.768 507.474 208.324 507.735C208.891 507.996 209.32 508.344 209.614 508.779C209.92 509.203 210.071 509.768 210.071 510.475C210.071 511.301 209.871 511.97 209.467 512.482C209.075 512.981 208.552 513.346 207.899 513.574C207.246 513.803 206.539 513.917 205.776 513.917C204.905 513.917 204.04 513.786 203.179 513.525C202.329 513.254 201.573 512.884 200.908 512.416L201.905 510.475C202.003 510.573 202.178 510.704 202.427 510.867C202.678 511.019 202.983 511.177 203.342 511.34C203.701 511.492 204.093 511.623 204.518 511.731C204.943 511.84 205.373 511.894 205.808 511.894C207.05 511.894 207.67 511.497 207.67 510.704C207.67 510.367 207.545 510.094 207.295 509.888C207.045 509.682 206.69 509.507 206.233 509.366C205.787 509.225 205.265 509.067 204.665 508.893C203.925 508.687 203.309 508.459 202.819 508.208C202.341 507.947 201.982 507.627 201.741 507.246C201.502 506.854 201.382 506.359 201.382 505.762C201.382 504.968 201.567 504.304 201.937 503.772C202.319 503.228 202.831 502.82 203.473 502.548C204.115 502.265 204.828 502.124 205.612 502.124C206.418 502.124 207.17 502.255 207.866 502.516C208.564 502.777 209.162 503.076 209.663 503.413L208.667 505.24ZM216.5 513.346C216.206 513.477 215.842 513.607 215.405 513.737C214.981 513.868 214.54 513.933 214.082 513.933C213.68 513.933 213.31 513.862 212.972 513.721C212.634 513.58 212.363 513.357 212.155 513.052C211.959 512.737 211.861 512.329 211.861 511.829V506.92H210.734V505.24H211.861V502.467H214.05V505.24H215.846V506.92H214.05V511.095C214.05 511.389 214.127 511.601 214.278 511.731C214.442 511.862 214.638 511.927 214.866 511.927C215.095 511.927 215.319 511.889 215.536 511.813C215.754 511.737 215.928 511.672 216.059 511.617L216.5 513.346ZM221.481 513.95C220.544 513.95 219.738 513.748 219.064 513.346C218.399 512.932 217.888 512.389 217.529 511.715C217.169 511.04 216.99 510.312 216.99 509.529C216.99 508.736 217.169 508.002 217.529 507.327C217.898 506.653 218.415 506.115 219.08 505.713C219.755 505.299 220.555 505.093 221.481 505.093C222.406 505.093 223.201 505.299 223.866 505.713C224.54 506.115 225.058 506.653 225.418 507.327C225.777 508.002 225.957 508.736 225.957 509.529C225.957 510.312 225.777 511.04 225.418 511.715C225.058 512.389 224.54 512.932 223.866 513.346C223.201 513.748 222.406 513.95 221.481 513.95ZM219.244 509.529C219.244 510.029 219.342 510.475 219.538 510.867C219.734 511.248 220 511.546 220.338 511.764C220.675 511.982 221.057 512.09 221.481 512.09C221.894 512.09 222.27 511.982 222.608 511.764C222.945 511.536 223.213 511.231 223.409 510.851C223.615 510.459 223.719 510.013 223.719 509.513C223.719 509.024 223.615 508.589 223.409 508.208C223.213 507.817 222.945 507.513 222.608 507.295C222.27 507.066 221.894 506.952 221.481 506.952C221.057 506.952 220.675 507.066 220.338 507.295C220 507.513 219.734 507.817 219.538 508.208C219.342 508.589 219.244 509.03 219.244 509.529ZM232.53 507.132C231.866 507.132 231.272 507.262 230.749 507.523C230.227 507.774 229.851 508.137 229.622 508.616V513.786H227.434V505.24H229.443V507.066C229.737 506.479 230.118 506.017 230.586 505.68C231.065 505.343 231.566 505.158 232.089 505.125C232.317 505.125 232.464 505.131 232.53 505.142V507.132ZM233.114 511.258C233.114 510.704 233.267 510.22 233.571 509.807C233.888 509.383 234.323 509.056 234.878 508.828C235.433 508.6 236.07 508.485 236.789 508.485C237.148 508.485 237.514 508.518 237.883 508.583C238.253 508.638 238.575 508.72 238.847 508.828V508.371C238.847 507.827 238.684 507.409 238.357 507.115C238.041 506.822 237.567 506.675 236.936 506.675C236.468 506.675 236.021 506.756 235.597 506.92C235.172 507.083 234.725 507.322 234.257 507.637L233.555 506.202C234.121 505.833 234.698 505.555 235.286 505.37C235.885 505.185 236.511 505.093 237.165 505.093C238.384 505.093 239.331 505.397 240.007 506.006C240.693 506.616 241.036 507.485 241.036 508.616V511.34C241.036 511.579 241.074 511.748 241.15 511.845C241.226 511.933 241.362 511.986 241.558 512.009V513.786C241.362 513.83 241.183 513.857 241.019 513.868C240.867 513.89 240.736 513.901 240.627 513.901C240.192 513.901 239.86 513.803 239.631 513.607C239.402 513.411 239.266 513.172 239.223 512.889L239.174 512.449C238.792 512.938 238.324 513.313 237.769 513.574C237.224 513.825 236.664 513.95 236.087 513.95C235.509 513.95 234.998 513.835 234.551 513.607C234.105 513.368 233.751 513.047 233.49 512.645C233.239 512.231 233.114 511.77 233.114 511.258ZM238.439 511.699C238.711 511.438 238.847 511.187 238.847 510.948V510.084C238.281 509.856 237.71 509.741 237.132 509.741C236.555 509.741 236.087 509.866 235.727 510.117C235.368 510.355 235.188 510.677 235.188 511.079C235.188 511.405 235.319 511.699 235.58 511.96C235.842 512.221 236.217 512.351 236.707 512.351C237.034 512.351 237.35 512.292 237.655 512.172C237.971 512.052 238.232 511.894 238.439 511.699ZM246.429 513.835C245.667 513.835 244.998 513.64 244.42 513.248C243.843 512.857 243.391 512.335 243.065 511.682C242.738 511.019 242.575 510.296 242.575 509.513C242.575 508.687 242.744 507.941 243.081 507.278C243.418 506.604 243.887 506.071 244.486 505.68C245.084 505.289 245.776 505.093 246.56 505.093C247.224 505.093 247.807 505.245 248.308 505.55C248.808 505.843 249.222 506.24 249.549 506.74V505.24H251.46V513.379C251.46 514.227 251.253 514.95 250.839 515.548C250.437 516.157 249.876 516.619 249.157 516.934C248.438 517.261 247.622 517.424 246.707 517.424C245.77 517.424 244.981 517.266 244.339 516.951C243.707 516.647 243.163 516.211 242.705 515.646L243.898 514.488C244.224 514.89 244.633 515.205 245.123 515.434C245.623 515.662 246.152 515.776 246.707 515.776C247.164 515.776 247.583 515.689 247.965 515.515C248.357 515.352 248.673 515.091 248.912 514.732C249.151 514.384 249.271 513.933 249.271 513.379V512.302C248.988 512.791 248.585 513.172 248.063 513.444C247.55 513.705 247.007 513.835 246.429 513.835ZM247.164 512.09C247.644 512.09 248.073 511.949 248.455 511.666C248.847 511.383 249.118 511.046 249.271 510.655V508.616C249.075 508.116 248.765 507.713 248.34 507.409C247.926 507.105 247.491 506.952 247.034 506.952C246.587 506.952 246.195 507.077 245.858 507.327C245.531 507.578 245.275 507.904 245.09 508.306C244.904 508.697 244.812 509.122 244.812 509.578C244.812 510.045 244.916 510.47 245.123 510.851C245.329 511.231 245.607 511.536 245.956 511.764C246.315 511.982 246.717 512.09 247.164 512.09ZM257.402 513.95C256.477 513.95 255.676 513.748 255.001 513.346C254.337 512.944 253.819 512.41 253.449 511.748C253.079 511.073 252.894 510.345 252.894 509.562C252.894 508.757 253.073 508.018 253.433 507.344C253.803 506.659 254.325 506.115 255.001 505.713C255.676 505.299 256.481 505.093 257.418 505.093C258.355 505.093 259.155 505.299 259.819 505.713C260.483 506.115 260.989 506.653 261.338 507.327C261.697 507.99 261.877 508.708 261.877 509.48C261.877 509.763 261.861 510.008 261.828 510.214H255.213C255.268 510.877 255.513 511.399 255.948 511.78C256.395 512.161 256.906 512.351 257.483 512.351C257.919 512.351 258.327 512.247 258.708 512.041C259.1 511.823 259.368 511.541 259.509 511.193L261.387 511.715C261.071 512.367 260.565 512.906 259.868 513.33C259.172 513.743 258.349 513.95 257.402 513.95ZM255.164 508.828H259.639C259.574 508.186 259.329 507.67 258.904 507.278C258.49 506.877 257.984 506.675 257.385 506.675C256.797 506.675 256.291 506.877 255.866 507.278C255.452 507.67 255.219 508.186 255.164 508.828ZM266.363 513.95C265.634 513.95 264.936 513.83 264.272 513.591C263.608 513.352 263.037 512.998 262.557 512.53L263.341 511.111C263.853 511.525 264.354 511.829 264.844 512.025C265.334 512.221 265.813 512.318 266.281 512.318C266.706 512.318 267.043 512.243 267.294 512.09C267.555 511.937 267.686 511.709 267.686 511.405C267.686 511.089 267.528 510.877 267.212 510.769C266.896 510.649 266.455 510.502 265.889 510.329C265.258 510.133 264.73 509.931 264.305 509.725C263.88 509.519 263.559 509.268 263.341 508.975C263.135 508.681 263.031 508.3 263.031 507.833C263.031 506.995 263.347 506.327 263.978 505.827C264.609 505.327 265.448 505.076 266.494 505.076C267.104 505.076 267.68 505.174 268.225 505.37C268.77 505.555 269.264 505.859 269.711 506.283L268.829 507.67C267.99 507.017 267.18 506.691 266.396 506.691C266.047 506.691 265.736 506.757 265.465 506.887C265.203 507.017 265.073 507.246 265.073 507.572C265.073 507.876 265.197 508.094 265.448 508.224C265.71 508.355 266.102 508.496 266.624 508.649C267.3 508.855 267.871 509.056 268.339 509.252C268.819 509.448 269.178 509.698 269.417 510.002C269.668 510.306 269.793 510.72 269.793 511.242C269.793 512.09 269.483 512.753 268.862 513.232C268.241 513.711 267.408 513.95 266.363 513.95Z" fill="#0053F1"/>
<path fill-rule="evenodd" clip-rule="evenodd" d="M161.167 433.573C146.501 433.573 134.5 421.552 134.5 406.727C134.633 392.034 146.501 380.014 161.3 380.147C175.967 380.281 187.833 392.168 187.833 407.127C187.7 421.686 175.833 433.573 161.167 433.573Z" fill="#DFDEF8"/>
<path fill-rule="evenodd" clip-rule="evenodd" d="M158.5 430.901C143.834 430.901 131.833 418.882 131.833 404.056C131.966 389.364 143.834 377.343 158.633 377.477C173.299 377.611 185.167 389.498 185.167 404.456C185.032 419.014 173.166 430.901 158.5 430.901Z" fill="white" stroke="#DFDEF8" stroke-width="1.3" stroke-miterlimit="10"/>
<path fill-rule="evenodd" clip-rule="evenodd" d="M160.352 402.47L159.908 404.818L164.13 405.405L163.834 406.505L159.686 405.918C159.39 406.872 159.242 407.9 158.871 408.781C158.501 409.808 158.13 410.836 157.685 411.79C157.094 413.038 156.057 413.918 154.648 414.139C153.834 414.285 152.945 414.212 152.279 413.698C152.056 413.551 151.834 413.258 151.834 413.038C151.834 412.744 151.983 412.377 152.204 412.23C152.352 412.157 152.722 412.23 152.945 412.304C153.167 412.524 153.39 412.817 153.538 413.111C153.982 413.698 154.575 413.772 155.168 413.331C155.834 412.744 156.205 411.937 156.426 411.129C156.871 409.368 157.315 407.68 157.685 405.918V405.626L153.759 405.038L153.908 403.937L157.982 404.525L158.501 402.249L154.279 401.589L154.427 400.414L158.797 401.002C158.945 400.561 159.019 400.194 159.167 399.827C159.538 398.506 159.908 397.185 160.797 396.01C161.686 394.836 162.723 394.102 164.278 394.176C164.945 394.176 165.612 394.396 166.056 394.909C166.131 394.983 166.279 395.13 166.279 395.276C166.279 395.57 166.279 395.937 166.056 396.157C165.76 396.377 165.39 396.304 165.094 396.01C164.871 395.79 164.723 395.57 164.501 395.35C164.056 394.763 163.389 394.689 162.871 395.203C162.5 395.57 162.13 396.084 161.909 396.598C161.389 398.139 161.02 399.754 160.5 401.369L164.574 401.956L164.278 403.057L160.352 402.47Z" fill="#0053F1"/>
<path fill-rule="evenodd" clip-rule="evenodd" d="M138.25 567.379C132.796 567.379 128.333 562.922 128.333 557.427C128.384 551.98 132.796 547.524 138.3 547.573C143.755 547.623 148.167 552.029 148.167 557.575C148.118 562.972 143.704 567.379 138.25 567.379Z" fill="#0053F1"/>
<path d="M137.067 561.877C137.067 561.277 137.067 560.697 137.067 560.138C137.067 559.577 137.067 559.051 137.067 558.556V556.396C137.067 555.901 137.067 555.373 137.067 554.814C137.067 554.254 137.067 553.674 137.067 553.074H139.431C139.431 553.674 139.431 554.254 139.431 554.814C139.431 555.373 139.431 555.901 139.431 556.396V558.556C139.431 559.051 139.431 559.577 139.431 560.138C139.431 560.697 139.431 561.277 139.431 561.877H137.067ZM133.842 558.608V556.343C134.452 556.343 135.042 556.343 135.61 556.343C136.179 556.343 136.712 556.343 137.209 556.343H139.28C139.784 556.343 140.32 556.343 140.889 556.343C141.457 556.343 142.046 556.343 142.656 556.343V558.608C142.046 558.608 141.457 558.608 140.889 558.608C140.32 558.608 139.784 558.608 139.28 558.608H137.209C136.712 558.608 136.179 558.608 135.61 558.608C135.042 558.608 134.452 558.608 133.842 558.608Z" fill="white"/>
<path fill-rule="evenodd" clip-rule="evenodd" d="M116.667 485.825C113.458 485.825 110.833 483.204 110.833 479.971C110.863 476.767 113.458 474.146 116.696 474.175C119.904 474.204 122.5 476.796 122.5 480.058C122.471 483.233 119.875 485.825 116.667 485.825Z" fill="#0053F1"/>
<path d="M115.971 482.589C115.971 482.236 115.971 481.894 115.971 481.566C115.971 481.237 115.971 480.926 115.971 480.635V479.365C115.971 479.074 115.971 478.764 115.971 478.434C115.971 478.106 115.971 477.764 115.971 477.411H117.361C117.361 477.764 117.361 478.106 117.361 478.434C117.361 478.764 117.361 479.074 117.361 479.365V480.635C117.361 480.926 117.361 481.237 117.361 481.566C117.361 481.894 117.361 482.236 117.361 482.589H115.971ZM114.074 480.666V479.334C114.433 479.334 114.779 479.334 115.114 479.334C115.449 479.334 115.762 479.334 116.055 479.334H117.272C117.569 479.334 117.884 479.334 118.219 479.334C118.553 479.334 118.9 479.334 119.259 479.334V480.666C118.9 480.666 118.553 480.666 118.219 480.666C117.884 480.666 117.569 480.666 117.272 480.666H116.055C115.762 480.666 115.449 480.666 115.114 480.666C114.779 480.666 114.433 480.666 114.074 480.666Z" fill="white"/>
<path fill-rule="evenodd" clip-rule="evenodd" d="M225.75 440.388C220.938 440.388 217 436.456 217 431.607C217.044 426.802 220.937 422.87 225.794 422.913C230.607 422.957 234.5 426.845 234.5 431.738C234.456 436.501 230.563 440.388 225.75 440.388Z" fill="#0053F1"/>
<path d="M224.708 435.534C224.708 435.005 224.708 434.493 224.708 433.999C224.708 433.505 224.708 433.04 224.708 432.603V430.697C224.708 430.261 224.708 429.796 224.708 429.302C224.708 428.808 224.708 428.296 224.708 427.767H226.793C226.793 428.296 226.793 428.808 226.793 429.302C226.793 429.796 226.793 430.261 226.793 430.697V432.603C226.793 433.04 226.793 433.505 226.793 433.999C226.793 434.493 226.793 435.005 226.793 435.534H224.708ZM221.861 432.649V430.652C222.399 430.652 222.919 430.652 223.421 430.652C223.923 430.652 224.394 430.652 224.833 430.652H226.66C227.104 430.652 227.577 430.652 228.078 430.652C228.58 430.652 229.1 430.652 229.639 430.652V432.649C229.1 432.649 228.58 432.649 228.078 432.649C227.577 432.649 227.104 432.649 226.66 432.649H224.833C224.394 432.649 223.923 432.649 223.421 432.649C222.919 432.649 222.399 432.649 221.861 432.649Z" fill="white"/>
<path fill-rule="evenodd" clip-rule="evenodd" d="M308.583 490.485C305.054 490.485 302.167 487.602 302.167 484.046C302.199 480.522 305.054 477.638 308.616 477.67C312.145 477.703 315 480.553 315 484.142C314.968 487.635 312.112 490.485 308.583 490.485Z" fill="#0053F1"/>
<path d="M307.818 486.925C307.818 486.537 307.818 486.162 307.818 485.8C307.818 485.437 307.818 485.097 307.818 484.776V483.379C307.818 483.058 307.818 482.717 307.818 482.356C307.818 481.993 307.818 481.618 307.818 481.229H309.348C309.348 481.618 309.348 481.993 309.348 482.356C309.348 482.717 309.348 483.058 309.348 483.379V484.776C309.348 485.097 309.348 485.437 309.348 485.8C309.348 486.162 309.348 486.537 309.348 486.925H307.818ZM305.731 484.81V483.345C306.125 483.345 306.507 483.345 306.874 483.345C307.243 483.345 307.588 483.345 307.91 483.345H309.25C309.575 483.345 309.922 483.345 310.29 483.345C310.658 483.345 311.039 483.345 311.435 483.345V484.81C311.039 484.81 310.658 484.81 310.29 484.81C309.922 484.81 309.575 484.81 309.25 484.81H307.91C307.588 484.81 307.243 484.81 306.874 484.81C306.507 484.81 306.125 484.81 305.731 484.81Z" fill="white"/>
<path fill-rule="evenodd" clip-rule="evenodd" d="M265.417 552.233C261.246 552.233 257.833 548.825 257.833 544.623C257.871 540.458 261.246 537.05 265.454 537.087C269.625 537.126 273 540.495 273 544.736C272.962 548.864 269.588 552.233 265.417 552.233Z" fill="#0053F1"/>
<path d="M264.513 548.026C264.513 547.567 264.513 547.123 264.513 546.696C264.513 546.268 264.513 545.865 264.513 545.486V543.834C264.513 543.456 264.513 543.052 264.513 542.625C264.513 542.197 264.513 541.753 264.513 541.294H266.321C266.321 541.753 266.321 542.197 266.321 542.625C266.321 543.052 266.321 543.456 266.321 543.834V545.486C266.321 545.865 266.321 546.268 266.321 546.696C266.321 547.123 266.321 547.567 266.321 548.026H264.513ZM262.046 545.526V543.795C262.513 543.795 262.964 543.795 263.398 543.795C263.833 543.795 264.242 543.795 264.622 543.795H266.205C266.59 543.795 267 543.795 267.435 543.795C267.87 543.795 268.32 543.795 268.787 543.795V545.526C268.32 545.526 267.87 545.526 267.435 545.526C267 545.526 266.59 545.526 266.205 545.526H264.622C264.242 545.526 263.833 545.526 263.398 545.526C262.964 545.526 262.513 545.526 262.046 545.526Z" fill="white"/>
<path fill-rule="evenodd" clip-rule="evenodd" d="M283.95 445.194C272.642 445.194 263.39 435.926 263.39 424.495C263.493 413.167 272.642 403.899 284.053 404.002C295.361 404.104 304.512 413.27 304.512 424.803C304.409 436.029 295.259 445.194 283.95 445.194Z" fill="#DFDEF8"/>
<path fill-rule="evenodd" clip-rule="evenodd" d="M281.894 443.136C270.586 443.136 261.333 433.868 261.333 422.436C261.436 411.108 270.586 401.839 281.997 401.943C293.306 402.045 302.455 411.211 302.455 422.745C302.352 433.97 293.202 443.136 281.894 443.136Z" fill="white" stroke="#DFDEF8" stroke-width="1.3" stroke-miterlimit="10"/>
<path fill-rule="evenodd" clip-rule="evenodd" d="M279.664 419.604L279.649 419.562C279.566 419.32 279.579 419.055 279.684 418.822L281.523 414.734C281.589 414.585 281.692 414.456 281.819 414.355C281.947 414.255 282.098 414.188 282.258 414.158C282.417 414.128 282.582 414.139 282.737 414.186C282.892 414.235 283.033 414.32 283.148 414.436C283.291 414.579 283.388 414.763 283.425 414.962C283.463 415.162 283.439 415.368 283.358 415.554L281.532 419.682C281.45 419.867 281.315 420.023 281.143 420.13C280.972 420.238 280.772 420.29 280.571 420.281C280.37 420.273 280.175 420.204 280.013 420.083C279.852 419.962 279.729 419.795 279.664 419.604ZM282.938 418.357C282.843 418.445 282.767 418.551 282.716 418.667C282.643 418.833 282.619 419.016 282.647 419.193C282.676 419.371 282.756 419.537 282.876 419.671C282.996 419.805 283.154 419.901 283.327 419.948C283.501 419.994 283.684 419.989 283.856 419.934L286.164 419.18C286.315 419.131 286.452 419.043 286.559 418.926C286.668 418.809 286.745 418.666 286.781 418.511C286.818 418.356 286.816 418.193 286.771 418.039C286.728 417.887 286.647 417.747 286.533 417.634L286.504 417.603C286.381 417.48 286.225 417.394 286.055 417.354C285.886 417.315 285.709 417.324 285.543 417.381L283.264 418.163C283.144 418.205 283.032 418.271 282.938 418.357ZM284.704 420.263L284.662 420.277C284.471 420.343 284.305 420.465 284.185 420.627C284.065 420.789 283.996 420.983 283.988 421.185C283.978 421.386 284.031 421.587 284.137 421.758C284.243 421.929 284.4 422.066 284.583 422.147L288.705 423.976C288.89 424.059 289.095 424.083 289.295 424.046C289.494 424.009 289.678 423.912 289.821 423.769C289.937 423.654 290.022 423.513 290.07 423.358C290.119 423.202 290.129 423.037 290.1 422.876C290.071 422.717 290.003 422.565 289.903 422.437C289.802 422.309 289.673 422.208 289.525 422.14L285.443 420.297C285.209 420.192 284.946 420.179 284.704 420.263ZM285.931 423.587C285.845 423.493 285.74 423.417 285.622 423.365C285.458 423.292 285.276 423.269 285.1 423.298C284.922 423.327 284.757 423.407 284.624 423.527C284.491 423.648 284.395 423.804 284.348 423.979C284.303 424.152 284.307 424.335 284.362 424.506L285.115 426.818C285.164 426.969 285.251 427.104 285.369 427.212C285.486 427.32 285.628 427.396 285.782 427.432C285.937 427.469 286.098 427.466 286.251 427.423C286.404 427.379 286.543 427.298 286.656 427.186L286.686 427.156C286.809 427.032 286.895 426.876 286.935 426.706C286.973 426.536 286.965 426.359 286.908 426.193L286.127 423.915C286.085 423.793 286.019 423.682 285.931 423.587ZM283.984 425.352L283.97 425.311C283.904 425.122 283.782 424.955 283.62 424.835C283.459 424.715 283.266 424.646 283.065 424.638C282.864 424.629 282.665 424.681 282.494 424.787C282.323 424.893 282.188 425.048 282.105 425.232L280.279 429.36C280.197 429.546 280.173 429.753 280.21 429.952C280.246 430.152 280.343 430.336 280.487 430.48C280.601 430.595 280.742 430.68 280.897 430.728C281.052 430.777 281.217 430.787 281.377 430.757C281.537 430.728 281.687 430.66 281.815 430.56C281.944 430.46 282.045 430.329 282.112 430.181L283.952 426.092C284.057 425.859 284.068 425.595 283.984 425.352ZM280.667 426.581C280.762 426.494 280.838 426.389 280.889 426.271C280.96 426.107 280.984 425.924 280.954 425.747C280.925 425.57 280.845 425.406 280.725 425.272C280.604 425.139 280.448 425.043 280.275 424.997C280.102 424.95 279.92 424.955 279.748 425.01L277.44 425.763C277.29 425.812 277.153 425.9 277.046 426.016C276.938 426.133 276.861 426.275 276.823 426.43C276.786 426.584 276.788 426.746 276.831 426.899C276.873 427.052 276.954 427.192 277.066 427.305L277.095 427.335C277.219 427.46 277.375 427.547 277.547 427.587C277.717 427.625 277.897 427.616 278.062 427.559L280.34 426.776C280.461 426.734 280.572 426.669 280.667 426.581ZM278.924 424.66L278.966 424.646C279.157 424.58 279.323 424.459 279.444 424.296C279.565 424.134 279.634 423.939 279.642 423.737C279.651 423.536 279.599 423.336 279.491 423.164C279.385 422.993 279.229 422.857 279.045 422.775L274.923 420.946C274.737 420.864 274.531 420.84 274.332 420.877C274.133 420.915 273.95 421.012 273.806 421.156C273.692 421.271 273.607 421.413 273.558 421.568C273.51 421.723 273.499 421.889 273.53 422.048C273.559 422.209 273.627 422.359 273.726 422.487C273.826 422.616 273.956 422.717 274.104 422.784L278.186 424.626C278.419 424.731 278.683 424.743 278.924 424.66ZM277.68 421.368C277.765 421.462 277.87 421.538 277.986 421.59C278.152 421.665 278.334 421.689 278.514 421.66C278.692 421.632 278.859 421.553 278.993 421.431C279.126 421.309 279.223 421.151 279.269 420.975C279.314 420.8 279.308 420.615 279.251 420.444L278.499 418.132C278.45 417.981 278.362 417.843 278.245 417.736C278.128 417.628 277.985 417.551 277.83 417.514C277.675 417.476 277.514 417.48 277.36 417.523C277.207 417.566 277.067 417.648 276.954 417.761L276.924 417.791C276.8 417.916 276.714 418.072 276.674 418.243C276.634 418.414 276.644 418.594 276.702 418.759L277.486 421.04C277.527 421.162 277.593 421.273 277.68 421.368Z" fill="#0053F1"/>
<path fill-rule="evenodd" clip-rule="evenodd" d="M211.22 598.995C197.777 598.995 186.777 587.976 186.777 574.386C186.899 560.92 197.777 549.901 211.343 550.023C224.786 550.145 235.664 561.042 235.664 574.753C235.542 588.098 224.665 598.995 211.22 598.995Z" fill="#DFDEF8"/>
<path fill-rule="evenodd" clip-rule="evenodd" d="M208.776 596.546C195.333 596.546 184.333 585.527 184.333 571.937C184.456 558.47 195.333 547.452 208.899 547.574C222.344 547.696 233.22 558.593 233.22 572.304C233.098 585.649 222.221 596.546 208.776 596.546Z" fill="white" stroke="#DFDEF8" stroke-width="1.3" stroke-miterlimit="10"/>
<path fill-rule="evenodd" clip-rule="evenodd" d="M201.283 571.837C201.283 567.562 204.742 564.103 209.001 564.103C213.261 564.103 216.72 567.562 216.72 571.837C216.72 576.113 213.261 579.572 209.001 579.572C204.742 579.572 201.283 576.113 201.283 571.837ZM209.001 561.772C203.447 561.772 198.949 566.281 198.949 571.837C198.949 577.392 203.447 581.902 209.001 581.902C214.556 581.902 219.053 577.392 219.053 571.837C219.053 566.281 214.556 561.772 209.001 561.772ZM210.104 574.755C210.134 574.868 210.17 574.967 210.213 575.053H212.038V574.942C211.948 574.765 211.879 574.554 211.832 574.307C211.784 574.061 211.76 573.75 211.76 573.374V570.366C211.76 569.959 211.685 569.603 211.534 569.296C211.382 568.985 211.174 568.728 210.906 568.525C210.638 568.321 210.322 568.169 209.954 568.064C209.593 567.96 209.2 567.909 208.777 567.909C208.306 567.909 207.888 567.969 207.521 568.09C207.159 568.207 206.85 568.367 206.596 568.57C206.346 568.773 206.153 569.009 206.019 569.277C205.89 569.544 205.826 569.828 205.826 570.126H207.625C207.625 569.863 207.709 569.653 207.877 569.497C208.046 569.337 208.313 569.257 208.679 569.257C209.093 569.257 209.411 569.357 209.631 569.555C209.851 569.75 209.961 570.015 209.961 570.353V570.768H208.958C207.866 570.768 207.045 570.97 206.492 571.377C205.945 571.779 205.67 572.35 205.67 573.089C205.67 573.391 205.731 573.672 205.851 573.931C205.973 574.186 206.141 574.406 206.356 574.593C206.572 574.779 206.829 574.924 207.126 575.027C207.429 575.131 207.759 575.182 208.117 575.182C208.336 575.182 208.542 575.161 208.732 575.118C208.921 575.078 209.093 575.025 209.249 574.956C209.408 574.883 209.553 574.798 209.683 574.703C209.812 574.608 209.926 574.506 210.026 574.398C210.048 574.524 210.073 574.643 210.104 574.755ZM209.004 573.724C208.848 573.767 208.679 573.789 208.498 573.789C208.153 573.789 207.894 573.708 207.721 573.549C207.553 573.389 207.469 573.188 207.469 572.946C207.469 572.786 207.5 572.639 207.56 572.505C207.62 572.366 207.713 572.25 207.838 572.155C207.963 572.055 208.125 571.979 208.323 571.928C208.522 571.872 208.762 571.844 209.042 571.844H209.961V573.05C209.909 573.14 209.838 573.231 209.748 573.322C209.657 573.409 209.55 573.486 209.424 573.556C209.299 573.624 209.159 573.68 209.004 573.724Z" fill="#0053F1"/>
<path fill-rule="evenodd" clip-rule="evenodd" d="M337.877 560.535C323.523 560.535 311.778 548.769 311.778 534.26C311.908 519.881 323.523 508.116 338.008 508.247C352.362 508.377 363.976 520.011 363.976 534.652C363.845 548.901 352.232 560.535 337.877 560.535Z" fill="#DFDEF8"/>
<path fill-rule="evenodd" clip-rule="evenodd" d="M335.266 557.921C320.911 557.921 309.167 546.156 309.167 531.645C309.297 517.266 320.911 505.502 335.396 505.632C349.75 505.763 361.364 517.397 361.364 532.038C361.234 546.287 349.62 557.921 335.266 557.921Z" fill="white" stroke="#DFDEF8" stroke-width="1.3" stroke-miterlimit="10"/>
<path d="M333.169 535.238C333.176 535.238 333.181 535.238 333.188 535.238C333.19 535.238 333.191 535.238 333.193 535.238H334.789C334.789 535.351 334.789 535.418 334.789 535.439C334.786 537.047 334.787 538.654 334.789 540.262C334.789 540.375 334.753 540.44 334.648 540.489C334.101 540.75 333.687 541.425 333.8 542.146C333.93 542.983 334.801 543.615 335.641 543.453C336.38 543.31 336.866 542.811 336.971 542.042C337.041 541.522 336.788 540.834 336.11 540.489C336.018 540.443 335.967 540.393 335.967 540.281C335.971 538.718 335.971 537.157 335.967 535.595C335.967 535.545 335.976 535.509 335.992 535.483V535.238H337.941C338.003 535.238 338.064 535.234 338.123 535.224C338.574 535.179 338.99 535.026 339.347 534.796L342.151 536.401L342.14 536.409C342.215 536.451 342.29 536.493 342.364 536.535C342.504 536.613 342.558 536.699 342.553 536.86C342.529 537.796 343.352 538.559 344.314 538.457C345.258 538.358 345.926 537.46 345.707 536.553C345.444 535.464 344.253 534.974 343.289 535.562C343.188 535.624 343.114 535.64 343.007 535.577C342.192 535.107 341.375 534.64 340.555 534.178C340.512 534.154 340.482 534.13 340.464 534.105L340.179 533.942C340.416 533.553 340.551 533.098 340.551 532.614C340.551 531.65 340.018 530.815 339.228 530.358L339.238 530.352C339.252 530.342 339.268 530.332 339.285 530.322C339.632 530.125 339.978 529.929 340.325 529.732L342.628 528.418C342.755 528.346 342.882 528.273 343.009 528.199C343.11 528.142 343.177 528.142 343.275 528.206C343.624 528.438 344.016 528.511 344.427 528.44C345.227 528.302 345.807 527.586 345.736 526.742C345.658 525.826 344.749 525.141 343.841 525.339C343.044 525.514 342.543 526.129 342.552 526.939C342.553 527.076 342.515 527.155 342.391 527.225C342.069 527.407 341.748 527.589 341.429 527.772L338.493 529.453C337.976 528.557 337.052 527.913 335.97 527.744C335.97 526.382 335.972 525.021 335.965 523.659C335.964 523.455 336.013 523.336 336.205 523.227C336.901 522.832 337.164 521.984 336.847 521.259C336.526 520.529 335.707 520.139 334.941 520.37C334.242 520.581 333.852 521.068 333.783 521.779C333.731 522.326 333.993 522.934 334.626 523.277C334.723 523.329 334.79 523.375 334.79 523.506C334.789 523.907 334.788 524.308 334.787 524.709H334.81V527.748C333.85 527.906 333.004 528.44 332.467 529.214C332.33 529.243 332.196 529.282 332.066 529.328C330.856 528.645 329.652 527.952 328.441 527.273C328.26 527.17 328.172 527.062 328.202 526.855C328.215 526.772 328.189 526.685 328.175 526.6C328.052 525.826 327.286 525.179 326.363 525.33C325.457 525.476 324.882 526.287 325.031 527.154C325.222 528.262 326.501 528.822 327.466 528.217C327.574 528.148 327.649 528.143 327.761 528.207C328.105 528.405 328.448 528.602 328.794 528.799L328.806 528.777L330.954 530.005C330.365 530.557 329.998 531.33 329.998 532.188C329.998 532.852 330.217 533.464 330.589 533.963L328.085 535.391L328.084 535.379C327.963 535.448 327.842 535.517 327.72 535.586C327.665 535.616 327.56 535.61 327.504 535.576C327.245 535.421 326.969 535.319 326.667 535.311C325.66 535.285 325.047 536.098 325.014 536.804C324.974 537.631 325.606 538.478 326.631 538.47C327.528 538.464 328.211 537.753 328.202 536.865C328.201 536.706 328.248 536.617 328.389 536.537C329.081 536.148 330.112 535.56 331.485 534.774C331.974 535.068 332.553 535.238 333.169 535.238ZM345.116 528.56C345 528.629 344.959 528.699 344.959 528.831C344.964 530.871 344.962 532.912 344.96 534.951C344.96 535.073 344.992 535.148 345.105 535.212C345.839 535.631 346.208 536.403 346.078 537.216C345.951 537.994 345.322 538.633 344.506 538.786C344.034 538.876 343.576 538.805 343.162 538.553C343.036 538.477 342.946 538.49 342.829 538.558C341.054 539.574 339.278 540.587 337.5 541.596C337.379 541.665 337.334 541.742 337.334 541.882C337.336 542.864 336.569 543.718 335.612 543.812C334.592 543.915 333.691 543.281 333.471 542.302C333.437 542.152 333.425 541.995 333.422 541.841C333.419 541.737 333.39 541.673 333.297 541.619C331.493 540.594 329.693 539.567 327.893 538.538C327.795 538.482 327.718 538.481 327.62 538.54C326.444 539.24 324.945 538.569 324.695 537.261C324.538 536.435 324.877 535.663 325.625 535.228C325.744 535.158 325.796 535.089 325.796 534.946C325.792 532.906 325.792 530.866 325.795 528.826C325.795 528.704 325.764 528.631 325.649 528.566C324.899 528.135 324.546 527.386 324.69 526.545C324.833 525.709 325.487 525.096 326.338 524.977C326.793 524.913 327.233 524.994 327.627 525.243C327.719 525.302 327.787 525.299 327.88 525.246C329.676 524.219 331.472 523.195 333.27 522.174C333.379 522.112 333.421 522.041 333.422 521.914C333.424 520.791 334.322 519.931 335.46 519.953C336.348 519.97 337.177 520.695 337.303 521.56C337.315 521.64 337.332 521.689 337.332 521.798C337.332 522.038 337.422 522.14 337.611 522.247C339.355 523.234 341.095 524.228 342.833 525.224C342.952 525.292 343.04 525.296 343.163 525.226C344.345 524.56 345.777 525.198 346.064 526.516C346.091 526.638 346.088 526.767 346.098 526.879C346.079 527.627 345.75 528.184 345.116 528.56ZM343.7 536.894C343.7 536.634 343.888 536.445 344.147 536.447C344.395 536.448 344.608 536.65 344.61 536.89C344.614 537.122 344.387 537.346 344.15 537.347C343.898 537.347 343.7 537.148 343.7 536.894ZM334.923 521.886C334.923 521.634 335.122 521.441 335.378 521.44C335.635 521.44 335.832 521.634 335.833 521.886C335.834 522.128 335.62 522.343 335.379 522.339C335.134 522.337 334.922 522.126 334.923 521.886ZM327.056 536.896C327.055 537.149 326.855 537.348 326.604 537.347C326.366 537.345 326.146 537.126 326.145 536.889C326.144 536.653 326.361 536.447 326.611 536.447C326.869 536.447 327.056 536.636 327.056 536.896ZM335.384 541.452C335.64 541.454 335.834 541.646 335.833 541.897C335.832 542.147 335.634 542.335 335.375 542.334C335.117 542.332 334.92 542.138 334.923 541.889C334.926 541.639 335.126 541.45 335.384 541.452ZM326.615 527.328C326.356 527.33 326.153 527.144 326.145 526.896C326.138 526.653 326.344 526.45 326.599 526.447C326.866 526.443 327.052 526.619 327.056 526.879C327.06 527.141 326.879 527.325 326.615 527.328ZM344.141 527.329C343.879 527.327 343.697 527.143 343.7 526.88C343.702 526.621 343.888 526.443 344.156 526.447C344.412 526.45 344.616 526.652 344.61 526.896C344.604 527.141 344.399 527.33 344.141 527.329ZM333.169 534.149C332.026 534.149 331.099 533.272 331.099 532.188C331.099 531.11 332.018 530.235 333.156 530.228C333.519 529.383 334.389 528.789 335.404 528.789C336.735 528.789 337.817 529.81 337.835 531.077C337.836 531.077 337.838 531.077 337.84 531.077C338.729 531.077 339.449 531.765 339.449 532.614C339.449 533.423 338.793 534.086 337.96 534.146C337.955 534.148 337.948 534.149 337.941 534.149H333.193C333.192 534.149 333.191 534.149 333.19 534.149C333.183 534.149 333.176 534.149 333.169 534.149Z" fill="#0053F1"/>
<path fill-rule="evenodd" clip-rule="evenodd" d="M82.7409 547.749C71.1202 547.749 61.6123 538.224 61.6123 526.477C61.718 514.837 71.1202 505.313 82.8466 505.418C94.4673 505.524 103.869 514.942 103.869 526.795C103.764 538.33 94.3616 547.749 82.7409 547.749Z" fill="#DFDEF8"/>
<path fill-rule="evenodd" clip-rule="evenodd" d="M80.6284 545.632C69.0079 545.632 59.5 536.108 59.5 524.362C59.6057 512.72 69.0079 503.196 80.7341 503.302C92.3548 503.408 101.757 512.826 101.757 524.678C101.651 536.214 92.2491 545.632 80.6284 545.632Z" fill="white" stroke="#DFDEF8" stroke-width="1.3" stroke-miterlimit="10"/>
<path fill-rule="evenodd" clip-rule="evenodd" d="M80.6093 514.896C78.6826 514.918 76.8897 515.508 75.3906 516.508L75.7435 516.955C77.2003 515.995 78.9479 515.443 80.823 515.464C85.6634 515.519 89.6372 519.412 89.7933 524.259C89.9625 529.509 85.6624 533.816 80.421 533.647C75.583 533.491 71.6963 529.51 71.6422 524.661C71.6213 522.783 72.1726 521.032 73.131 519.573L72.6841 519.219C71.6865 520.721 71.0967 522.517 71.0748 524.447C71.0153 529.728 75.2166 534.098 80.4977 534.218C85.9969 534.341 90.4871 529.844 90.3631 524.335C90.2439 519.045 85.8809 514.836 80.6093 514.896Z" fill="#0053F1"/>
<path fill-rule="evenodd" clip-rule="evenodd" d="M75.0461 517.927C75.0461 518.45 74.6227 518.874 74.1005 518.874C73.5782 518.874 73.1548 518.45 73.1548 517.927C73.1548 517.404 73.5782 516.98 74.1005 516.98C74.6227 516.98 75.0461 517.404 75.0461 517.927Z" fill="#0053F1"/>
<path fill-rule="evenodd" clip-rule="evenodd" d="M83.5579 524.557V527.4H80.7209C79.1541 527.4 77.884 526.127 77.884 524.557C77.884 522.988 79.1541 521.716 80.7209 521.716C82.2878 521.716 83.5579 522.988 83.5579 524.557ZM80.7568 519.821C78.129 519.801 75.9927 521.93 75.9927 524.557C75.9927 527.174 78.1096 529.294 80.7209 529.294H85.4492V524.617C85.4492 522.006 83.3638 519.841 80.7568 519.821Z" fill="#0053F1"/>
</svg>
