<svg width="117" height="38" viewBox="0 0 117 38" fill="none" xmlns="http://www.w3.org/2000/svg">
<path d="M8.03212 21.6469C4.11625 21.6469 2.45592 20.3312 2.23663 20.3312C2.11132 20.3312 1.64142 20.9264 1.29682 21.365H1.01488L0.920898 15.5382H1.23417C1.95469 17.6057 3.61502 19.7047 4.9934 20.3938C5.68259 20.7384 6.93567 21.2083 8.00079 21.2083C10.9768 21.2083 13.0131 19.4854 13.0131 16.8226C13.0131 14.6297 11.4781 13.6586 9.53581 12.9694C7.56221 12.2488 6.90435 12.0922 5.08738 11.4343C3.0198 10.6512 1.10886 8.64624 1.10886 6.14008C1.10886 1.94227 4.5235 0 8.34539 0C11.9793 0 13.4204 1.40971 13.5457 1.40971C13.671 1.40971 14.1409 0.814505 14.4541 0.375927H14.7987V5.79549H14.4541C13.4517 3.19535 11.4468 0.501233 8.31406 0.501233C5.77658 0.501233 3.77165 1.9736 3.77165 4.63639C3.77165 6.67264 5.21269 7.89439 7.24894 8.61491C8.87794 9.24145 10.0057 9.5234 11.5721 10.0873C14.2975 11.0584 15.8952 12.938 15.8952 15.6948C15.9578 19.3601 12.6372 21.6469 8.03212 21.6469Z" fill="#0053F1"/>
<path d="M25.8888 21.6153C21.4717 21.6153 17.8691 18.4199 17.8691 13.9715C17.8691 9.17847 21.5031 6.29639 25.9828 6.29639C31.1204 6.29639 33.9399 9.89899 33.9399 13.8775C33.9399 18.2946 30.3059 21.6153 25.8888 21.6153ZM25.8888 6.73496C22.4116 6.73496 20.9705 10.5255 20.9705 14.0341C20.9705 17.7307 22.5682 21.1767 25.9828 21.1767C29.3348 21.1767 30.8698 17.3235 30.8698 13.9088C30.8698 10.6195 29.3348 6.73496 25.8888 6.73496Z" fill="#0053F1"/>
<path d="M48.9756 21.3963H35.4424V21.0831C36.1629 20.9891 37.1027 20.7385 37.4786 20.2686C37.7606 19.9553 37.8859 18.9842 37.8859 18.107C37.8859 17.3552 37.9172 15.4129 37.9172 13.9092C37.9172 12.2489 37.9172 11.6223 37.9172 9.99333C37.9172 9.02219 37.9172 8.01973 37.5726 7.67513C37.1654 7.20523 36.3509 6.98594 35.5677 6.86063V6.54736H43.1175V6.86063C42.3656 6.98594 40.7366 7.1739 40.7053 8.64627C40.6113 10.5572 40.6113 11.6223 40.6113 13.6273C40.6113 15.5069 40.6113 16.384 40.6427 18.2636C40.674 19.1408 40.7053 19.9553 40.9873 20.3312C41.2065 20.6445 42.2717 20.9578 43.2741 20.9578C43.7127 20.9578 44.7152 20.8951 45.7176 20.6132C47.4719 20.1119 48.819 18.0444 49.4455 16.5407L49.7275 16.6033L48.9756 21.3963Z" fill="#0053F1"/>
<path d="M50.0742 21.3963V21.0831C50.7947 20.9891 51.6092 20.7698 52.0791 20.2686C52.3611 19.9553 52.3611 18.9842 52.3924 18.107C52.4237 17.3552 52.4237 15.4129 52.4237 13.9092C52.4237 12.2489 52.4237 11.591 52.4237 9.93067C52.4237 8.99087 52.4237 7.92575 52.1105 7.58115C51.7032 7.11125 50.8887 6.92329 50.1369 6.86063V6.54736H57.3734V6.86063C56.7469 6.95461 55.7757 7.07992 55.3998 7.73779C55.1179 8.20769 55.1492 8.99087 55.1492 9.6174C55.1179 10.9958 55.1179 12.1236 55.1179 13.8152C55.1179 15.6322 55.1179 17.5118 55.1179 18.389C55.1179 19.2035 55.1179 20.0179 55.3371 20.2999C55.7131 20.7698 56.7469 21.0204 57.3734 21.0517V21.365L50.0742 21.3963Z" fill="#0053F1"/>
<path d="M67.0516 21.3975C64.6081 21.3975 60.6922 21.3975 59.1572 21.3975V21.0843C59.9091 20.9903 60.8176 20.7397 61.1621 20.3637C61.4441 20.0505 61.5694 19.048 61.5694 18.1709C61.6007 17.419 61.6007 15.4454 61.6007 13.9417C61.6007 12.2814 61.6007 11.5922 61.6007 9.9632C61.6007 9.02339 61.6007 7.95828 61.2561 7.61368C60.8176 7.11245 60.0344 6.98714 59.2512 6.92449V6.61122C59.9091 6.61122 62.8538 6.57989 65.9865 6.57989C67.7721 6.57989 69.6518 6.51724 71.4687 7.26909C73.8496 8.27155 75.8545 10.2451 75.8545 13.7851C75.8545 19.9878 70.7482 21.3975 67.0516 21.3975ZM68.0228 7.20643C67.4589 7.08112 66.989 7.01847 66.0178 7.01847C65.3913 7.01847 64.8274 7.08113 64.4202 7.17511C64.2948 8.49084 64.2635 9.39932 64.2635 14.067C64.2635 15.79 64.2635 17.2937 64.2948 18.1709C64.3262 18.9227 64.3888 19.8938 64.7647 20.3011C65.4226 20.9903 66.2058 20.959 66.613 20.959C67.2083 20.959 67.9601 20.865 68.4927 20.677C71.3434 19.8312 72.7531 17.325 72.7531 13.7851C72.7844 10.7464 70.8109 7.67633 68.0228 7.20643Z" fill="#0053F1"/>
<path d="M77.6406 21.3963V21.0831C78.3611 20.9891 79.1756 20.7698 79.6455 20.2686C79.9275 19.9553 79.9275 18.9842 79.9588 18.107C79.9901 17.3552 79.9901 15.4129 79.9901 13.9092C79.9901 12.2489 79.9901 11.591 79.9901 9.93067C79.9901 8.99087 79.9901 7.92575 79.6769 7.58115C79.2696 7.11125 78.4551 6.92329 77.7033 6.86063V6.54736H84.9398V6.86063C84.3133 6.95461 83.3421 7.07992 82.9662 7.73779C82.6843 8.20769 82.7156 8.99087 82.7156 9.6174C82.6843 10.9958 82.6843 12.1236 82.6843 13.8152C82.6843 15.6322 82.6843 17.5118 82.6843 18.389C82.6843 19.2035 82.6843 20.0179 82.9035 20.2999C83.2795 20.7698 84.3133 21.0204 84.9398 21.0517V21.365L77.6406 21.3963Z" fill="#0053F1"/>
<path d="M101.731 10.996C101.261 9.99353 100.134 8.42719 99.6951 8.01994C99.0999 7.48738 98.442 7.36207 97.3142 7.33074C96.1864 7.29942 96.531 7.29942 95.278 7.29942C95.2466 8.70913 95.2153 11.6539 95.2153 13.3142C95.2153 15.1312 95.2153 17.4493 95.2153 18.3578C95.2153 19.1097 95.2466 19.9555 95.4659 20.2374C95.8732 20.8327 97.001 20.9893 97.6588 21.0833V21.3965H90.0777V21.0833C90.8295 20.9893 91.5187 20.8953 92.2079 20.2061C92.4899 19.8928 92.4899 18.9217 92.5212 18.0446C92.5525 17.2927 92.5525 14.9119 92.5525 13.4082C92.5525 11.7478 92.5212 8.92842 92.5212 7.26809C91.2994 7.26809 91.5814 7.26809 90.4849 7.29942C89.3885 7.33074 88.762 7.51871 88.1668 8.05127C87.7282 8.45852 86.5691 9.99353 86.1305 10.996L85.8799 10.9333L86.6631 6.26562C87.2583 6.45359 87.8222 6.82951 88.8559 6.82951C90.8609 6.82951 95.4973 6.82951 99.1625 6.82951C100.259 6.82951 100.666 6.51624 101.324 6.26562L102.107 10.9333L101.731 10.996Z" fill="#0053F1"/>
<path d="M113.635 9.4607C113.197 10.1186 111.599 12.4994 110.346 14.5043C110.346 16.3213 110.346 17.4804 110.346 18.3575C110.346 19.1094 110.378 19.9552 110.597 20.2372C111.035 20.8324 112.007 20.989 112.633 21.083V21.3963H105.209V21.083C105.96 20.989 106.587 20.9264 107.245 20.2372C107.558 19.9552 107.558 18.9214 107.589 18.0443C107.589 17.2924 107.621 16.4466 107.621 14.9742C107.119 14.1284 105.052 10.7764 104.206 9.61733C102.953 7.8317 102.264 6.95454 101.011 6.92321V6.60994H108.247V6.92321C107.401 7.01719 106.368 7.11118 106.368 7.73771C106.368 8.08231 106.869 8.86548 107.339 9.61733C107.934 10.5885 109.124 12.4681 110.127 13.9404C110.471 13.4392 111.568 11.6223 112.727 9.64865C112.978 9.2414 113.448 8.39558 113.448 7.92567C113.448 7.04852 112.414 7.01719 111.631 6.89188V6.57861H116.956V6.89188C115.327 7.1425 114.701 7.957 113.635 9.4607Z" fill="#0053F1"/>
<path d="M30.0223 30.6695C29.9283 30.7635 29.7403 31.0141 29.3957 31.8286C28.8005 33.207 27.986 35.3059 27.3908 36.9036L26.8896 38H26.7329C25.7931 35.6192 25.1039 33.8649 24.4147 32.0792C24.1955 31.5467 24.1015 31.3274 23.9135 30.9515C23.8195 30.7948 23.6002 30.3563 22.9424 30.3563V30.231H26.1691V30.3249C26.0437 30.3563 25.3232 30.4189 25.3232 30.8888C25.3232 31.2647 26.8896 35.1493 27.3595 36.4024C27.4848 36.0891 28.2053 34.3348 28.9572 32.2672C29.2391 31.484 29.3018 31.1081 29.3018 30.9515C29.3018 30.5442 28.6439 30.3876 28.2993 30.3563V30.2623H30.8054V30.3876C30.3669 30.3563 30.0536 30.6069 30.0223 30.6695Z" fill="#0053F1"/>
<path d="M38.2627 37.8739H33.501V37.7799C33.7516 37.7486 34.0649 37.6546 34.1902 37.498C34.2842 37.3727 34.3155 37.0281 34.3155 36.7148C34.3468 36.4329 34.3468 35.7437 34.3468 35.2111C34.3468 34.6159 34.3468 34.3653 34.3468 33.7701C34.3468 33.4255 34.3468 32.9869 34.2215 32.8616C34.0649 32.705 33.8456 32.705 33.595 32.6423V32.5483H37.8868L38.3567 33.9267L38.2627 33.9894C37.8554 33.4881 37.3855 33.0182 37.0722 32.8616C36.9156 32.799 36.5084 32.705 35.8818 32.705C35.6939 32.705 35.4746 32.7363 35.4119 32.7363C35.3806 32.8616 35.3493 32.8929 35.3493 33.2689C35.3179 33.9581 35.3179 34.8665 35.3179 35.1171C35.4119 35.1171 35.8818 35.0858 36.1011 35.0545C36.7277 34.9292 36.9156 34.5533 37.0096 34.0207H37.1036V36.4329H37.0096C36.9469 36.1196 36.6963 35.7124 36.5397 35.5244C36.3831 35.3991 36.1638 35.3051 35.8505 35.2738C35.6939 35.2425 35.5686 35.2425 35.3179 35.2425C35.3179 36.057 35.3493 36.5269 35.3493 36.8401C35.3806 37.1534 35.3806 37.4667 35.4746 37.592C35.5686 37.7173 35.8818 37.7799 36.2891 37.7799C36.4457 37.7799 36.665 37.7799 36.9156 37.7173C37.5422 37.6233 38.0434 37.1221 38.5446 36.2762L38.6386 36.3076L38.2627 37.8739Z" fill="#0053F1"/>
<path d="M47.8171 33.0806C47.7544 33.2373 47.7544 33.6759 47.7231 34.1144C47.6918 34.553 47.6918 35.1169 47.6918 35.7748C47.6918 36.3386 47.6918 37.2471 47.6918 37.811C47.6918 37.8423 47.6291 37.905 47.5665 37.905C47.5038 37.905 47.4412 37.8737 47.3785 37.811C45.6869 35.8374 44.8097 34.8349 43.494 33.2999C43.494 34.4904 43.494 34.7723 43.494 36.2133C43.494 36.7146 43.5253 37.1531 43.6193 37.3411C43.7133 37.5604 44.0265 37.6857 44.4338 37.717V37.811H42.3975V37.717C42.6168 37.6857 42.9614 37.6231 43.1181 37.3724C43.2434 37.1531 43.2747 36.7459 43.306 36.182C43.3373 35.7434 43.3373 35.2109 43.3373 34.553C43.3373 33.9891 43.3373 33.6759 43.306 33.3939C43.2434 32.7987 42.6795 32.5794 42.3662 32.5481V32.4541H44.0892L47.5352 36.4013C47.5352 35.2109 47.5352 35.5241 47.5352 34.0831C47.5352 33.6759 47.5352 33.2999 47.4725 33.112C47.3785 32.83 47.0653 32.6421 46.5953 32.6107V32.5168H48.6316V32.6107C48.2557 32.6734 47.9424 32.7987 47.8171 33.0806Z" fill="#0053F1"/>
<path d="M57.8411 34.1152C57.6844 33.7392 57.2772 33.1753 57.1206 33.0187C56.9013 32.8307 56.682 32.7681 56.2747 32.7681C55.8675 32.7368 55.9928 32.7368 55.5542 32.7368C55.5229 33.238 55.5229 34.3344 55.5229 34.9296C55.5229 35.5875 55.5229 36.4333 55.5229 36.7466C55.5229 37.0286 55.5542 37.3418 55.6169 37.4358C55.7735 37.6551 56.1808 37.7177 56.3687 37.7491V37.8431H53.6746V37.7177C53.9565 37.6864 54.1758 37.6551 54.4264 37.4045C54.5204 37.3105 54.5204 36.9346 54.5204 36.6213C54.5517 36.3394 54.5517 35.4935 54.5517 34.9296C54.5517 34.3344 54.5204 33.3007 54.5204 32.7054C54.0818 32.7054 54.1758 32.7054 53.7999 32.7368C53.424 32.7681 53.2047 32.8307 52.9854 33.0187C52.8288 33.1753 52.4215 33.7079 52.2649 34.0838L52.1709 34.0525L52.4528 32.3608C52.6721 32.4235 52.8601 32.5488 53.2047 32.5488C53.8939 32.5488 55.5542 32.5488 56.8386 32.5488C57.2145 32.5488 57.3712 32.4235 57.5905 32.3608L57.8724 34.0525H57.8411V34.1152Z" fill="#0053F1"/>
<path d="M66.8322 33.08C66.7695 33.2366 66.7382 33.7379 66.7382 34.2078C66.7069 34.6463 66.7069 35.2416 66.6756 35.7115C66.6442 36.244 66.7069 37.967 64.514 37.967C62.4464 37.967 62.3524 36.3693 62.3524 35.9934C62.3524 35.7115 62.3524 35.2416 62.3524 34.709C62.3524 34.1138 62.3524 34.3331 62.3524 33.7379C62.3524 33.3933 62.3524 33.0173 62.2584 32.892C62.1331 32.7354 61.8512 32.6727 61.6006 32.6101V32.5161H64.1067V32.6101C63.7935 32.6727 63.3862 32.7354 63.3549 33.2053C63.3236 33.6126 63.3236 34.0511 63.3236 34.3957C63.3236 35.0849 63.3236 35.3669 63.3549 35.8368C63.3862 36.8706 63.9501 37.5911 64.8273 37.5911C66.3936 37.5911 66.4876 36.3693 66.4876 35.3982C66.4876 34.8656 66.4876 34.615 66.4876 34.2078C66.4876 33.8005 66.4563 33.3619 66.4249 33.174C66.331 32.892 66.0177 32.7041 65.5478 32.6727V32.5788H67.584V32.6727C67.2394 32.6727 66.9575 32.7981 66.8322 33.08Z" fill="#0053F1"/>
<path d="M75.7291 37.8736C75.5724 37.6856 75.6351 37.7796 75.3218 37.3097C74.9459 36.7458 74.7893 36.4639 74.3507 35.9C74.1627 35.6807 73.9121 35.4614 73.6928 35.4301C73.5362 35.3674 73.4735 35.3674 73.3795 35.3674C73.3795 35.9626 73.3795 36.6205 73.3795 36.7771C73.3795 37.0904 73.4109 37.2784 73.4735 37.4663C73.5362 37.5916 73.8181 37.7796 74.194 37.7796V37.8736H71.5312V37.7483C71.7819 37.7169 72.0951 37.6543 72.2204 37.4663C72.3457 37.341 72.3458 36.9964 72.3458 36.6518C72.3458 36.3699 72.3771 35.6807 72.3771 35.1481C72.3771 34.5529 72.3771 34.3023 72.3771 33.7071C72.3771 33.3625 72.3458 32.9553 72.2518 32.8299C72.0951 32.6733 71.8758 32.642 71.5939 32.6107V32.5167C71.7192 32.5167 73.2229 32.4854 73.7868 32.4854C74.476 32.4854 74.9772 32.5167 75.4471 32.7046C75.917 32.9239 76.199 33.2999 76.199 33.8951C76.199 34.6156 75.6038 35.0542 74.9146 35.2734V35.3048C75.0712 35.3988 75.2592 35.5867 75.4158 35.7747C75.6977 36.1506 76.011 36.6518 76.2616 36.9651C76.6375 37.4663 76.9508 37.6543 77.4207 37.7169V37.8109L75.7291 37.8736ZM74.5073 32.7986C74.288 32.6733 74.0374 32.642 73.7868 32.642C73.5988 32.642 73.5048 32.6733 73.4422 32.6733C73.4109 32.7986 73.4109 32.9239 73.3795 33.2372C73.3482 33.9264 73.3482 34.8975 73.3482 35.2421C73.7241 35.2421 74.0374 35.2421 74.3507 35.1481C74.9459 34.9289 75.1652 34.4589 75.1652 33.9264C75.1652 33.4252 74.9459 33.0179 74.5073 32.7986Z" fill="#0053F1"/>
<path d="M85.6914 37.8739H80.9297V37.7799C81.1803 37.7486 81.4936 37.6546 81.6189 37.498C81.7129 37.3727 81.7442 37.0281 81.7442 36.7148C81.7755 36.4329 81.7755 35.7437 81.7755 35.2111C81.7755 34.6159 81.7755 34.3653 81.7755 33.7701C81.7755 33.4255 81.7755 32.9869 81.6502 32.8616C81.4936 32.705 81.2743 32.705 81.0237 32.6423V32.5483H85.3155L85.7854 33.9267L85.6914 33.9894C85.2841 33.4881 84.8142 33.0182 84.501 32.8616C84.3443 32.799 83.9371 32.705 83.3105 32.705C83.1226 32.705 82.9033 32.7363 82.8406 32.7363C82.8093 32.8616 82.778 32.8929 82.778 33.2689C82.7466 33.9581 82.7466 34.8665 82.7466 35.1171C82.8406 35.1171 83.3105 35.0858 83.5298 35.0545C84.1564 34.9292 84.3443 34.5533 84.4383 34.0207H84.5323V36.4329H84.4383C84.3757 36.1196 84.125 35.7124 83.9684 35.5244C83.8118 35.3991 83.5925 35.3051 83.2792 35.2738C83.1226 35.2425 82.9973 35.2425 82.7466 35.2425C82.7466 36.057 82.778 36.5269 82.778 36.8401C82.8093 37.1534 82.8093 37.4667 82.9033 37.592C82.9973 37.7173 83.3105 37.7799 83.7178 37.7799C83.8744 37.7799 84.0937 37.7799 84.3443 37.7173C84.9709 37.6233 85.4721 37.1221 85.9733 36.2762L86.0673 36.3076L85.6914 37.8739Z" fill="#0053F1"/>
<path d="M92.0508 37.9677C90.9231 37.9677 90.4532 37.5918 90.3905 37.5918C90.3592 37.5918 90.2652 37.7484 90.1712 37.8737H90.1085L90.0459 36.1508H90.1399C90.3278 36.7146 90.7977 37.3412 91.1423 37.5605C91.393 37.6858 91.6436 37.8424 91.9882 37.8424C92.74 37.8424 93.1786 37.3725 93.1786 36.746C93.1786 36.0881 92.5834 35.8688 92.0508 35.7435C91.6749 35.6495 91.4556 35.5869 91.1423 35.4929C90.5471 35.3049 90.0459 34.7097 90.0459 34.0519C90.0459 33.0494 90.923 32.4229 91.9882 32.4229C92.928 32.4229 93.3039 32.8301 93.3666 32.8301C93.3979 32.8301 93.5232 32.6421 93.6172 32.5168H93.6798V34.1772H93.5858C93.3039 33.4566 92.7713 32.5795 91.9568 32.5795C91.2677 32.5795 90.8291 33.0181 90.8291 33.6133C90.8291 34.1145 91.1737 34.4591 91.6122 34.6157C91.8942 34.7097 92.2075 34.7724 92.8027 34.9603C93.5232 35.1796 93.9931 35.7122 93.9931 36.4327C94.0871 37.3412 93.2412 37.9677 92.0508 37.9677Z" fill="#0053F1"/>
<path d="M19.4044 34.522H1.07812V34.8039H19.4044V34.522Z" fill="#0053F1"/>
<path d="M116.957 34.522H98.6309V34.8039H116.957V34.522Z" fill="#0053F1"/>
</svg>
