<svg width="75" height="48" viewBox="0 0 75 48" fill="none" xmlns="http://www.w3.org/2000/svg">
<path d="M33.8775 17.0999L30.3775 13.0999C31.2775 12.3999 33.2375 10.6199 37.4775 9.09991C42.7775 7.19991 47.8775 8.89991 49.3775 9.59991C50.8775 10.2999 54.4775 11.8999 54.4775 17.8999C54.4775 23.8999 51.5775 25.3999 49.3775 26.9999C47.1775 28.5999 43.3775 30.5999 40.1775 33.0999C37.6175 35.0999 36.6441 37.7333 36.4775 38.7999H54.8775V43.8999H29.4775C29.5775 38.0999 31.0775 35.1999 34.2775 31.5999C36.4567 29.1483 44.8775 23.6999 46.9775 22.1999C49.0775 20.6999 51.0775 14.7999 44.5775 13.7999C39.3775 12.9999 35.2775 15.6666 33.8775 17.0999Z" fill="#0053F1"/>
<path d="M70.7775 8.7998H66.2775C66.2775 11.9998 62.6775 13.0998 59.4775 13.3998V17.1998H65.5775C65.4175 17.1998 65.5109 34.9998 65.5775 43.8998H70.7775V8.7998Z" fill="#0053F1"/>
<path d="M5.97793 21.9995C5.27793 21.9995 5.07793 22.3995 5.07793 22.9995V23.8995C5.07793 24.2995 5.47793 24.5995 5.87793 24.5995C6.83793 24.5995 7.17793 24.8995 7.47793 25.2995L12.7779 33.0995L6.77793 41.7995H5.57793C5.07793 41.7995 4.87793 41.9995 4.87793 42.8995C4.87793 43.6195 5.07793 43.8995 5.37793 43.8995H11.6779C12.6779 43.8995 12.5779 43.3995 12.5779 42.5995C12.5779 41.9595 12.1779 41.7995 11.9779 41.7995H10.6779L14.5779 35.1995C15.9446 37.3995 18.8179 42.0195 19.3779 42.8995C19.9379 43.7795 20.8113 43.9329 21.1779 43.8995H25.2779C26.2379 43.8995 26.1779 43.1995 26.1779 42.7995C26.1779 42.3995 26.2779 41.6905 25.2779 41.5995C24.3979 41.5195 23.6445 40.5661 23.3779 40.0995L18.6779 33.0995L24.5779 24.7995C25.7779 24.7995 25.9779 24.5995 25.9779 24.1995V22.9995C25.9779 22.4995 25.6779 22.2995 25.2779 22.2995H19.6779C19.0379 22.2995 18.9446 22.7661 18.9779 22.9995V24.1995C18.9779 24.7995 19.6779 24.7995 20.1779 24.7995L16.5779 30.7995C15.3779 28.6995 12.8779 24.2595 12.4779 23.2995C12.0779 22.3395 11.2174 21.9995 10.6779 21.9995H5.97793Z" fill="#0053F1"/>
<path d="M21.2779 4.59961C22.7179 10.9996 18.2779 14.5329 15.8779 15.4996C18.3579 12.0596 18.1779 8.06627 17.7779 6.49961C19.2979 5.13961 20.7446 4.66627 21.2779 4.59961Z" fill="#0053F1"/>
<path d="M22.0777 9.39961C21.8377 12.5196 18.0444 15.0996 16.1777 15.9996C22.7377 17.2796 25.5111 12.1329 26.0777 9.39961C26.0777 9.39961 24.7587 9.09961 23.9777 9.09961C23.1967 9.09961 22.0777 9.39961 22.0777 9.39961Z" fill="#0053F1"/>
<path d="M14.5774 15.4995C11.1774 10.7995 10.5774 7.59951 14.5774 2.49951C18.1774 7.29951 18.0774 11.2995 14.5774 15.4995Z" fill="#0053F1"/>
<path d="M13.2779 15.4996C10.8779 14.5329 6.43788 10.9996 7.87788 4.59961C8.41122 4.66627 9.85788 5.13961 11.3779 6.49961C10.9779 8.06627 10.7979 12.0596 13.2779 15.4996Z" fill="#0053F1"/>
<path d="M12.9781 15.9996C11.1115 15.0996 7.31813 12.5196 7.07813 9.39961C7.07813 9.39961 5.86791 9.09961 5.07813 9.09961C4.28835 9.09961 3.07812 9.39961 3.07812 9.39961C3.64479 12.1329 6.41813 17.2796 12.9781 15.9996Z" fill="#0053F1"/>
</svg>
