<svg width="492" height="382" viewBox="0 0 492 382" fill="none" xmlns="http://www.w3.org/2000/svg">
<mask id="mask0" mask-type="alpha" maskUnits="userSpaceOnUse" x="0" y="0" width="492" height="382">
<rect width="492" height="382" fill="#C4C4C4"/>
</mask>
<g mask="url(#mask0)">
<path d="M137.011 528.263C5.73629 475.379 40.4393 401.207 16.302 303.116C-7.83529 205.026 -5.16844 167.486 53.5927 98.9629C112.354 30.4401 213.83 5.02408 286.219 86.0721C358.608 167.12 425.63 159.407 467.023 219.615C508.415 279.823 500.765 351.153 425.935 401.466C351.105 451.779 298.887 593.483 137.011 528.263Z" fill="#F4F6FD"/>
<path opacity="0.1" d="M401.363 120.803C401.363 120.803 414.003 78.4736 412.462 62.5398C412.462 62.5398 468.334 73.6262 488.45 87.9561C488.45 87.9561 468.674 135.816 468.78 153.118C468.78 153.118 410.558 132.526 401.363 120.803Z" fill="#0053F1"/>
<path opacity="0.1" d="M383.222 219.661C383.222 219.661 412.274 242.753 421.186 259.124L430.146 275.482C430.146 275.482 476.152 243.048 488.662 217.774C488.662 217.774 426.936 192.829 420.022 182.851C413.109 172.874 383.222 219.661 383.222 219.661Z" fill="#0053F1"/>
<path opacity="0.1" d="M49.335 302.225C49.335 302.225 78.3875 325.318 87.2997 341.688L96.2588 358.046C96.2588 358.046 142.266 325.612 154.775 300.338C154.775 300.338 93.049 275.393 86.1357 265.415C79.2223 255.438 49.335 302.225 49.335 302.225Z" fill="#0053F1"/>
<path opacity="0.1" d="M15.9434 186.484C15.9434 186.484 63.9371 168.062 99.9031 168.923C99.9031 168.923 100.362 208.621 94.236 231.514C94.236 231.514 49.9928 251.092 22.845 249.948C22.845 249.948 30.6049 216.264 15.9434 186.484Z" fill="#0053F1"/>
<path d="M488.415 70.1825C480.18 91.0892 476.248 113.452 476.857 135.923C476.856 136.001 476.839 136.079 476.807 136.15C476.775 136.222 476.73 136.287 476.673 136.341C476.616 136.394 476.549 136.436 476.475 136.464C476.402 136.491 476.324 136.504 476.246 136.501C457.91 136.127 439.687 133.529 421.974 128.764C414.637 126.782 407.391 124.423 400.234 121.687C400.161 121.66 400.094 121.616 400.038 121.561C399.983 121.505 399.94 121.438 399.912 121.365C399.884 121.291 399.872 121.212 399.877 121.134C399.882 121.055 399.904 120.978 399.94 120.909C403.806 113.076 407.11 104.976 409.828 96.672C414.492 82.3449 417.305 67.4772 418.2 52.4325C418.199 52.355 418.215 52.2784 418.246 52.2073C418.276 52.1362 418.321 52.0722 418.377 52.0191C418.433 51.966 418.5 51.9251 418.572 51.8988C418.645 51.8726 418.722 51.8615 418.799 51.8663C442.73 53.6655 466.173 59.5904 488.097 69.3805C488.245 69.4453 488.361 69.5659 488.42 69.7161C488.48 69.8662 488.478 70.0339 488.415 70.1825Z" fill="white"/>
<path opacity="0.1" d="M476.246 136.501C450.25 135.982 424.538 130.979 400.234 121.711C400.161 121.683 400.094 121.64 400.038 121.584C399.983 121.529 399.94 121.462 399.912 121.388C399.884 121.315 399.872 121.236 399.877 121.157C399.882 121.079 399.904 121.002 399.94 120.932C410.561 99.573 416.771 76.2818 418.2 52.4559C418.199 52.3785 418.215 52.3019 418.246 52.2308C418.276 52.1597 418.321 52.0956 418.377 52.0425C418.433 51.9895 418.5 51.9486 418.572 51.9223C418.645 51.896 418.722 51.8849 418.799 51.8898C442.73 53.689 466.173 59.6138 488.097 69.404C488.239 69.4687 488.351 69.5854 488.41 69.73C488.469 69.8747 488.471 70.0365 488.415 70.1824C480.18 91.0891 476.248 113.451 476.857 135.923C476.856 136.001 476.839 136.079 476.807 136.15C476.775 136.222 476.73 136.287 476.673 136.341C476.616 136.394 476.549 136.436 476.475 136.464C476.402 136.491 476.324 136.504 476.246 136.501ZM401.363 120.803C425.148 129.7 450.235 134.598 475.611 135.298C475.287 113.08 479.206 91.0048 487.157 70.265C465.626 60.8636 442.697 55.0857 419.293 53.1635C417.672 76.6507 411.586 99.6098 401.363 120.803Z" fill="#2B21ED"/>
<path d="M482.23 196.438C459.52 188.659 437.473 179.051 416.306 167.708C416.172 167.636 416.018 167.612 415.868 167.639C415.719 167.667 415.583 167.745 415.483 167.861C403.035 183.788 392.133 200.873 382.927 218.882C382.872 219.025 382.872 219.184 382.926 219.328C382.98 219.471 383.085 219.59 383.221 219.661C405.388 233.271 426.423 248.653 446.123 265.657C446.185 265.71 446.257 265.748 446.335 265.77C446.412 265.791 446.494 265.795 446.574 265.782C446.653 265.768 446.729 265.738 446.795 265.692C446.862 265.646 446.917 265.586 446.958 265.516C460.963 243.938 472.873 221.063 482.524 197.205C482.584 197.064 482.587 196.905 482.532 196.762C482.477 196.618 482.369 196.502 482.23 196.438Z" fill="white"/>
<path d="M148.344 279.002C125.634 271.223 103.588 261.615 82.4207 250.272C82.2865 250.2 82.1319 250.176 81.9824 250.203C81.8328 250.231 81.6971 250.309 81.5977 250.425C69.1493 266.352 58.2475 283.437 49.0414 301.446C48.9865 301.589 48.9862 301.748 49.0404 301.891C49.0946 302.035 49.1996 302.154 49.3353 302.224C71.502 315.834 92.5377 331.217 112.237 348.221C112.299 348.274 112.371 348.312 112.449 348.334C112.527 348.355 112.608 348.359 112.688 348.346C112.767 348.332 112.843 348.301 112.909 348.256C112.976 348.21 113.031 348.15 113.072 348.08C127.077 326.502 138.987 303.627 148.638 279.769C148.698 279.627 148.701 279.469 148.646 279.325C148.591 279.182 148.483 279.066 148.344 279.002Z" fill="white"/>
<path opacity="0.1" d="M112.123 347.949C92.4234 330.944 71.3878 315.562 49.2211 301.952C49.0853 301.881 48.9804 301.762 48.9262 301.619C48.8719 301.475 48.8723 301.317 48.9271 301.174C58.1339 283.168 69.0356 266.088 81.4834 250.164C81.5829 250.049 81.7185 249.97 81.8681 249.943C82.0177 249.915 82.1723 249.939 82.3064 250.011C103.473 261.354 125.52 270.962 148.23 278.741C148.303 278.773 148.369 278.819 148.424 278.877C148.479 278.935 148.521 279.004 148.549 279.079C148.576 279.154 148.588 279.234 148.584 279.314C148.58 279.393 148.559 279.471 148.524 279.543C138.873 303.402 126.963 326.277 112.958 347.855C112.913 347.921 112.855 347.977 112.786 348.018C112.718 348.06 112.642 348.086 112.562 348.095C112.483 348.104 112.403 348.095 112.327 348.07C112.251 348.045 112.182 348.004 112.123 347.949ZM50.2087 301.315C72.0456 314.739 92.8232 329.825 112.358 346.439C125.98 325.321 137.638 302.991 147.184 279.732C124.811 271.854 103.071 262.273 82.1536 251.072C70.0102 266.815 59.318 283.631 50.2087 301.315Z" fill="#2B21ED"/>
<path opacity="0.1" d="M446.123 265.693C426.423 248.688 405.388 233.306 383.221 219.696C383.085 219.625 382.98 219.507 382.926 219.363C382.872 219.22 382.872 219.061 382.927 218.918C392.134 200.913 403.036 183.832 415.483 167.908C415.583 167.793 415.719 167.715 415.868 167.687C416.018 167.659 416.172 167.683 416.306 167.755C437.473 179.098 459.52 188.706 482.23 196.485C482.303 196.517 482.369 196.563 482.424 196.621C482.479 196.679 482.521 196.748 482.549 196.823C482.576 196.898 482.588 196.978 482.584 197.058C482.58 197.138 482.559 197.216 482.524 197.287C472.873 221.146 460.963 244.021 446.958 265.599C446.913 265.665 446.855 265.721 446.786 265.762C446.718 265.804 446.642 265.83 446.562 265.839C446.483 265.848 446.403 265.839 446.327 265.814C446.251 265.789 446.182 265.748 446.123 265.693ZM384.209 219.059C406.046 232.484 426.823 247.569 446.358 264.183C459.98 243.065 471.638 220.735 481.184 197.476C458.811 189.598 437.071 180.017 416.154 168.816C404.01 184.559 393.318 201.376 384.209 219.059Z" fill="#2B21ED"/>
<path d="M101.279 168.616C101.289 168.539 101.283 168.46 101.262 168.384C101.242 168.309 101.206 168.239 101.158 168.177C101.11 168.116 101.05 168.065 100.982 168.026C100.914 167.988 100.839 167.964 100.761 167.956C74.2648 163.087 47.3205 161.109 20.3996 162.059C20.3197 162.06 20.2411 162.079 20.1698 162.115C20.0984 162.151 20.036 162.202 19.9874 162.266C19.9387 162.33 19.9051 162.403 19.8889 162.482C19.8727 162.56 19.8745 162.641 19.894 162.719C24.9987 187.135 26.9977 212.101 25.8432 237.022C25.8334 237.098 25.8387 237.175 25.8589 237.249C25.879 237.323 25.9136 237.392 25.9607 237.452C26.0077 237.513 26.0663 237.563 26.1329 237.6C26.1995 237.638 26.2729 237.662 26.3488 237.67C49.2856 238.466 72.2407 236.765 94.8122 232.599C94.9595 232.571 95.0923 232.492 95.1869 232.375C95.2816 232.259 95.3322 232.112 95.3296 231.962C94.62 210.679 96.6192 189.392 101.279 168.616Z" fill="white"/>
<path opacity="0.1" d="M94.8122 232.504C72.2407 236.671 49.2856 238.371 26.3488 237.576C26.2729 237.567 26.1995 237.543 26.1329 237.506C26.0663 237.468 26.0077 237.418 25.9607 237.358C25.9136 237.297 25.879 237.228 25.8589 237.154C25.8387 237.08 25.8334 237.003 25.8432 236.927C26.9977 212.007 24.9987 187.04 19.894 162.625C19.8745 162.547 19.8727 162.466 19.8889 162.387C19.9051 162.309 19.9387 162.235 19.9874 162.171C20.036 162.108 20.0984 162.056 20.1698 162.02C20.2411 161.984 20.3197 161.965 20.3996 161.964C47.3205 161.015 74.2648 162.992 100.761 167.861C100.839 167.87 100.914 167.894 100.982 167.932C101.05 167.97 101.11 168.021 101.158 168.083C101.206 168.144 101.242 168.215 101.262 168.29C101.283 168.365 101.289 168.444 101.279 168.522C96.6272 189.267 94.628 210.521 95.3296 231.773C95.3568 231.939 95.3178 232.109 95.2209 232.246C95.124 232.383 94.9771 232.476 94.8122 232.504ZM26.9484 236.314C49.483 237.037 72.0318 235.425 94.2361 231.502C93.6112 210.486 95.5139 189.47 99.9032 168.911C73.9612 164.305 47.6129 162.412 21.2814 163.261C26.0919 187.295 27.9947 211.823 26.9484 236.314Z" fill="#2B21ED"/>
<path d="M206.319 289.965C209.423 298.823 248.646 287.217 265.706 289.965C282.766 292.713 300.673 278.926 295.664 265.988C290.655 253.05 244.625 238.578 244.625 238.578L213.926 248.379L206.319 289.965Z" fill="#131313" stroke="#131313" stroke-linecap="round" stroke-linejoin="round"/>
<path d="M285.246 279.174C285.246 279.174 282.601 262.379 285.246 252.578C287.892 242.777 231.162 233.554 231.162 233.554L213.926 257.708C213.926 257.708 216.277 268.04 213.926 288.998L285.246 279.174Z" fill="white"/>
<path opacity="0.3" d="M285.246 252.578C283.753 258.109 283.941 265.858 284.388 271.566C260.217 267.802 235.491 272.482 214.349 284.823C215.936 266.672 213.926 257.697 213.926 257.697L231.127 233.542C231.127 233.542 287.88 242.777 285.246 252.578Z" fill="black" fill-opacity="0.7"/>
<path d="M285.246 279.174C285.246 279.174 282.601 262.379 285.246 252.578C287.892 242.777 231.162 233.554 231.162 233.554L213.926 257.708C213.926 257.708 216.277 268.04 213.926 288.998L285.246 279.174Z" stroke="#131313" stroke-linecap="round" stroke-linejoin="round"/>
<path d="M213.15 279.657C213.15 279.657 255.323 273.949 286.951 277.18L290.666 298.823C290.666 298.823 329.113 381.381 335.944 396.548C342.775 411.715 371.804 460.165 371.804 460.165C371.804 460.165 356.719 457.724 351.44 483.447C351.44 483.447 292.524 405.606 287.562 396.548C282.601 387.49 252.608 342.461 252.608 342.461H244.154C244.154 342.461 213.208 397.669 210.728 402.209C208.247 406.75 180.887 466.298 171.599 483.447C171.599 483.447 160.065 449.74 144.486 464.577C144.486 464.577 157.325 430.621 158.595 430.138C159.865 429.654 165.297 403.542 168.765 399.178C172.234 394.815 209.423 298.823 209.423 298.823L213.15 279.657Z" fill="#0053F1"/>
<path opacity="0.3" d="M352.193 480.227C351.923 481.242 351.676 482.315 351.441 483.447C351.441 483.447 292.524 405.606 287.563 396.548C282.601 387.491 252.608 342.461 252.608 342.461H244.154C244.154 342.461 213.209 397.669 210.728 402.21C208.247 406.75 180.888 466.299 171.599 483.447C170.834 481.306 169.954 479.208 168.966 477.161C168.966 477.161 182.369 453.762 183.38 445.376C184.392 436.99 171.623 444.657 169.624 439.42C167.625 434.183 196.749 423.392 204.062 404.757C204.062 404.757 196.631 405.441 195.161 393.223C193.692 381.004 238.523 335.019 249.598 329.063C248.975 329.251 235.278 333.533 237.018 330.242C238.758 326.952 248.987 319.238 248.987 319.238C248.987 319.238 257.875 328.367 269.503 328.32C281.132 328.273 259.251 334.806 259.251 334.806C259.251 334.806 287.187 367.452 300.214 370.259C313.241 373.066 282.578 371.734 282.578 371.734C282.578 371.734 318.685 430.975 338.543 442.616C358.401 454.257 349.207 460.59 348.454 466.523C348.043 469.353 350.03 475.05 352.193 480.227Z" fill="black" fill-opacity="0.7"/>
<path d="M213.15 279.657C213.15 279.657 255.323 273.949 286.951 277.18L290.666 298.823C290.666 298.823 329.113 381.381 335.944 396.548C342.775 411.715 371.804 460.165 371.804 460.165C371.804 460.165 356.719 457.724 351.44 483.447C351.44 483.447 292.524 405.606 287.562 396.548C282.601 387.49 252.608 342.461 252.608 342.461H244.154C244.154 342.461 213.208 397.669 210.728 402.209C208.247 406.75 180.887 466.298 171.599 483.447C171.599 483.447 160.065 449.74 144.486 464.577C144.486 464.577 157.325 430.621 158.595 430.138C159.865 429.654 165.297 403.542 168.765 399.178C172.234 394.815 209.423 298.823 209.423 298.823L213.15 279.657Z" stroke="#131313" stroke-linecap="round" stroke-linejoin="round"/>
<path d="M108.498 119.552C108.498 119.552 131.095 133.564 144.487 138.848L133.6 153.979C133.6 153.979 106.91 133.422 98.8213 129.212" fill="white"/>
<path d="M108.498 119.552C108.498 119.552 131.095 133.564 144.487 138.848L133.6 153.979C133.6 153.979 106.91 133.422 98.8213 129.212" stroke="#263238" stroke-linecap="round" stroke-linejoin="round"/>
<path d="M107.757 121.911C109.132 119.895 108.509 116.934 108.156 115.519C107.819 114.186 107.296 112.908 106.604 111.721C105.983 110.659 105.459 109.542 105.041 108.383C104.747 107.605 104.5 106.815 104.265 106.025C103.813 104.473 103.444 102.898 103.159 101.307C103.159 101.307 100.714 100.446 100.373 102.887C100.298 103.56 100.321 104.239 100.444 104.904C100.632 106.084 100.984 107.263 101.208 108.159C101.394 108.698 101.423 109.279 101.29 109.834C101.201 110.043 101.082 110.237 100.937 110.412C100.935 110.436 100.935 110.459 100.937 110.483L100.784 110.683C100.468 111.059 100.064 111.35 99.6088 111.532C99.4144 111.614 99.2077 111.662 98.9974 111.674C98.9432 111.687 98.8869 111.687 98.8328 111.674C98.6748 111.665 98.5177 111.646 98.3625 111.615C97.5386 111.435 96.7461 111.133 96.011 110.719C94.9262 110.112 93.885 109.431 92.8953 108.678C92.5308 108.395 92.1663 108.112 91.8253 107.817C90.9402 107.103 90.0926 106.343 89.2857 105.541C88.7214 104.963 88.11 104.362 87.4633 103.772C86.8167 103.182 86.2171 102.663 85.6057 102.192C83.8185 100.823 82.2078 100.128 81.6317 101.507C81.0556 102.887 81.7257 103.312 83.1601 104.657C83.6539 105.128 84.2536 105.694 84.9355 106.414C86.1259 107.677 87.2186 109.029 88.2041 110.459L88.5921 111.014L88.063 111.745C88.157 111.886 87.8396 111.745 87.24 111.497C85.6791 110.74 84.1672 109.885 82.7133 108.938C82.0432 108.49 81.3612 108.006 80.6793 107.499C79.9974 106.992 79.5036 106.579 78.8922 106.095C75.9881 103.737 75.2944 106.437 75.7765 107.64C76.5351 108.724 77.5075 109.639 78.6335 110.329C79.3037 110.825 79.9974 111.344 80.6558 111.851C80.985 112.099 81.2907 112.346 81.5846 112.594C82.7604 113.608 84.0537 114.634 84.9355 115.354L85.2765 115.625L84.9708 116.804L84.4299 116.675C82.8697 116.268 81.3474 115.728 79.8798 115.059C78.8804 114.587 78.128 114.163 77.5283 113.88C76.3526 113.278 75.7765 113.078 75.0475 113.75C74.3186 114.422 75.0475 115.708 76.2233 116.793C77.215 117.643 78.3338 118.332 79.5389 118.833C79.7528 118.92 79.9729 118.991 80.1973 119.045C81.3308 119.42 82.41 119.944 83.407 120.602L84.0184 120.98L84.2301 121.911L83.2307 121.793C82.1736 121.659 81.1254 121.462 80.0914 121.204C79.2592 120.968 78.4155 120.775 77.5636 120.626C77.3042 120.559 77.0309 120.571 76.7779 120.659C76.525 120.747 76.3034 120.908 76.141 121.121C75.6472 121.852 76.4114 122.678 77.5754 123.338C78.2799 123.736 79.0249 124.056 79.7975 124.294C80.3688 124.481 80.9613 124.596 81.5611 124.636C82.6788 124.789 83.7754 125.07 84.8297 125.473L86.1348 125.945C87.6867 126.523 89.1211 127.124 89.662 127.337L89.8501 127.419C90.8847 128.091 91.7783 128.599 92.5778 129.094C94.4574 130.24 96.5723 130.942 98.7622 131.146C99.938 131.276 101.314 130.379 102.713 129.082" fill="white"/>
<path d="M107.757 121.911C109.132 119.895 108.509 116.934 108.156 115.519C107.819 114.186 107.296 112.908 106.604 111.721C105.983 110.659 105.459 109.542 105.041 108.383C104.747 107.605 104.5 106.815 104.265 106.025C103.813 104.473 103.444 102.898 103.159 101.307C103.159 101.307 100.714 100.446 100.373 102.887C100.298 103.56 100.321 104.239 100.444 104.904C100.632 106.084 100.984 107.263 101.208 108.159C101.394 108.698 101.423 109.279 101.29 109.834C101.201 110.043 101.082 110.237 100.937 110.412C100.935 110.436 100.935 110.459 100.937 110.483L100.784 110.683C100.468 111.059 100.064 111.35 99.6088 111.532C99.4144 111.614 99.2077 111.662 98.9974 111.674C98.9432 111.687 98.8869 111.687 98.8328 111.674C98.6748 111.665 98.5177 111.646 98.3625 111.615C97.5386 111.435 96.7461 111.133 96.011 110.719V110.719C94.9262 110.112 93.885 109.431 92.8953 108.678V108.678C92.5308 108.395 92.1663 108.112 91.8253 107.817C90.9402 107.103 90.0926 106.343 89.2857 105.541C88.7214 104.963 88.11 104.362 87.4633 103.772C86.8167 103.182 86.2171 102.663 85.6057 102.192C83.8185 100.823 82.2078 100.128 81.6317 101.507C81.0556 102.887 81.7257 103.312 83.1601 104.657C83.6539 105.128 84.2536 105.694 84.9355 106.414C86.1259 107.677 87.2186 109.029 88.2041 110.459L88.5921 111.014L88.063 111.745C88.157 111.886 87.8396 111.745 87.2399 111.497C85.6791 110.74 84.1672 109.885 82.7133 108.938C82.0432 108.49 81.3612 108.006 80.6793 107.499C79.9974 106.992 79.5036 106.579 78.8922 106.095C75.9881 103.737 75.2944 106.437 75.7765 107.64C76.5351 108.724 77.5075 109.639 78.6335 110.329C79.3037 110.825 79.9974 111.344 80.6558 111.851C80.985 112.099 81.2907 112.346 81.5846 112.594C82.7604 113.608 84.0537 114.634 84.9355 115.354L85.2765 115.625L84.9708 116.804L84.4299 116.675C82.8697 116.268 81.3474 115.728 79.8798 115.059C78.8804 114.587 78.128 114.163 77.5283 113.88C76.3526 113.278 75.7765 113.078 75.0475 113.75C74.3186 114.422 75.0475 115.708 76.2233 116.793C77.215 117.643 78.3338 118.332 79.5389 118.833V118.833C79.7528 118.92 79.9729 118.991 80.1973 119.045C81.3308 119.42 82.41 119.944 83.407 120.602L84.0184 120.98L84.2301 121.911L83.2307 121.793C82.1736 121.659 81.1254 121.462 80.0914 121.204V121.204C79.2592 120.968 78.4155 120.775 77.5636 120.626C77.3042 120.559 77.0309 120.571 76.7779 120.659C76.525 120.747 76.3034 120.908 76.141 121.121C75.6472 121.852 76.4114 122.678 77.5754 123.338C78.2799 123.736 79.0249 124.056 79.7975 124.294C80.3688 124.481 80.9613 124.596 81.5611 124.636C82.6788 124.789 83.7754 125.07 84.8297 125.473L86.1348 125.945C87.6867 126.523 89.1211 127.124 89.662 127.337L89.8501 127.419C90.8847 128.091 91.7783 128.599 92.5778 129.094C94.4574 130.24 96.5722 130.942 98.7622 131.146C99.938 131.276 101.314 130.379 102.713 129.082" stroke="#263238" stroke-linecap="round" stroke-linejoin="round"/>
<path d="M98.8212 111.804C98.8212 111.804 95.4116 115.932 98.1863 119.942" stroke="#263238" stroke-linecap="round" stroke-linejoin="round"/>
<path d="M384.961 118.68C384.961 118.68 362.363 132.691 349.019 137.975L359.906 153.118C359.906 153.118 386.595 132.549 394.684 128.351" fill="white"/>
<path d="M384.961 118.68C384.961 118.68 362.363 132.691 349.019 137.975L359.906 153.118C359.906 153.118 386.595 132.549 394.684 128.351" stroke="#263238" stroke-linecap="round" stroke-linejoin="round"/>
<path d="M385.702 121.086C384.327 119.069 384.95 116.109 385.302 114.693C385.64 113.364 386.163 112.09 386.854 110.907C387.474 109.84 387.997 108.719 388.418 107.558C388.712 106.779 388.959 105.989 389.194 105.199C389.647 103.648 390.016 102.073 390.299 100.481C390.299 100.481 392.745 99.6322 393.086 102.074C393.161 102.742 393.137 103.417 393.015 104.079C392.827 105.258 392.474 106.437 392.251 107.334C392.064 107.877 392.036 108.462 392.169 109.02C392.261 109.227 392.379 109.422 392.521 109.598L392.674 109.799C392.991 110.174 393.395 110.465 393.85 110.648C394.044 110.729 394.251 110.777 394.461 110.789C394.516 110.802 394.572 110.802 394.626 110.789C394.783 110.8 394.94 110.8 395.096 110.789C395.92 110.609 396.713 110.307 397.448 109.893C398.538 109.295 399.579 108.613 400.564 107.853L401.633 106.992C402.519 106.274 403.367 105.51 404.173 104.704C404.737 104.126 405.349 103.524 405.995 102.935C406.642 102.345 407.242 101.826 407.853 101.354C409.64 99.9978 411.251 99.3019 411.827 100.682C412.403 102.062 411.733 102.486 410.299 103.831C409.805 104.303 409.205 104.857 408.523 105.576C407.336 106.842 406.243 108.194 405.255 109.622L404.867 110.188L405.396 110.907C405.302 111.049 405.619 110.907 406.219 110.66C407.775 109.855 409.279 108.953 410.722 107.959C411.392 107.522 412.074 107.039 412.756 106.532C413.438 106.025 413.932 105.6 414.543 105.116C417.447 102.758 418.141 105.458 417.659 106.661C416.901 107.749 415.929 108.668 414.802 109.362C414.132 109.858 413.438 110.365 412.78 110.872L411.851 111.615C410.675 112.629 409.382 113.667 408.5 114.375L408.159 114.658L408.465 115.837L409.005 115.696C410.567 115.295 412.09 114.754 413.556 114.08C414.555 113.62 415.307 113.184 415.907 112.901C417.083 112.299 417.659 112.087 418.388 112.771C419.117 113.455 418.388 114.729 417.212 115.802C416.221 116.656 415.102 117.348 413.896 117.854C413.661 117.948 413.438 118.019 413.238 118.078C412.103 118.443 411.023 118.963 410.028 119.623L409.417 120.001L409.205 120.932C409.558 120.932 409.887 120.862 410.205 120.826C411.261 120.683 412.309 120.482 413.344 120.225C414.173 119.978 415.018 119.785 415.872 119.647C416.131 119.577 416.405 119.587 416.659 119.675C416.913 119.763 417.134 119.926 417.294 120.142C417.788 120.862 417.024 121.687 415.86 122.359C415.158 122.758 414.412 123.074 413.638 123.303C413.065 123.488 412.474 123.607 411.874 123.657C410.755 123.805 409.658 124.086 408.606 124.494L407.301 124.966C405.749 125.532 404.314 126.145 403.832 126.346L403.644 126.428C402.609 127.112 401.716 127.608 400.916 128.103C399.037 129.252 396.923 129.958 394.732 130.167C393.556 130.297 392.181 129.4 390.781 128.091" fill="white"/>
<path d="M385.702 121.086C384.327 119.069 384.95 116.109 385.302 114.693C385.64 113.364 386.163 112.09 386.854 110.907C387.474 109.84 387.997 108.719 388.418 107.558C388.712 106.779 388.959 105.989 389.194 105.199C389.647 103.648 390.016 102.073 390.299 100.481C390.299 100.481 392.745 99.6322 393.086 102.074C393.161 102.742 393.137 103.417 393.015 104.079C392.827 105.258 392.474 106.437 392.251 107.334C392.064 107.877 392.036 108.462 392.169 109.02C392.261 109.227 392.379 109.422 392.521 109.598L392.674 109.799C392.991 110.174 393.395 110.465 393.85 110.648C394.044 110.729 394.251 110.777 394.461 110.789C394.516 110.802 394.572 110.802 394.626 110.789C394.783 110.8 394.94 110.8 395.096 110.789C395.92 110.609 396.713 110.307 397.448 109.893C398.538 109.295 399.579 108.613 400.564 107.853V107.853L401.633 106.992C402.519 106.274 403.367 105.51 404.173 104.704C404.737 104.126 405.349 103.524 405.995 102.935C406.642 102.345 407.242 101.826 407.853 101.354C409.64 99.9978 411.251 99.3019 411.827 100.682C412.403 102.062 411.733 102.486 410.299 103.831C409.805 104.303 409.205 104.857 408.523 105.576C407.336 106.842 406.243 108.194 405.255 109.622V109.622L404.867 110.188L405.396 110.907C405.302 111.049 405.619 110.907 406.219 110.66C407.775 109.855 409.279 108.953 410.722 107.959C411.392 107.522 412.074 107.039 412.756 106.532C413.438 106.025 413.932 105.6 414.543 105.116C417.447 102.758 418.141 105.458 417.659 106.661C416.901 107.749 415.929 108.668 414.802 109.362C414.132 109.858 413.438 110.365 412.78 110.872L411.851 111.615C410.675 112.629 409.382 113.667 408.5 114.375L408.159 114.658L408.465 115.837L409.005 115.696C410.567 115.295 412.09 114.754 413.556 114.08C414.555 113.62 415.307 113.184 415.907 112.901C417.083 112.299 417.659 112.087 418.388 112.771C419.117 113.455 418.388 114.729 417.212 115.802C416.221 116.656 415.102 117.348 413.896 117.854V117.854C413.661 117.948 413.438 118.019 413.238 118.078C412.103 118.443 411.023 118.963 410.028 119.623L409.417 120.001L409.205 120.932C409.558 120.932 409.887 120.862 410.205 120.826C411.261 120.683 412.309 120.482 413.344 120.225V120.225C414.173 119.978 415.018 119.785 415.872 119.647C416.131 119.577 416.405 119.587 416.659 119.675C416.913 119.763 417.134 119.926 417.294 120.142C417.788 120.862 417.024 121.687 415.86 122.359C415.158 122.758 414.412 123.074 413.638 123.303C413.065 123.488 412.474 123.607 411.874 123.657C410.755 123.805 409.658 124.086 408.606 124.494L407.301 124.966C405.749 125.532 404.314 126.145 403.832 126.346L403.644 126.428C402.609 127.112 401.716 127.608 400.916 128.103C399.037 129.252 396.923 129.958 394.732 130.167C393.556 130.297 392.181 129.4 390.781 128.091" stroke="#263238" stroke-linecap="round" stroke-linejoin="round"/>
<path d="M394.638 110.931C394.638 110.931 398.047 115.071 395.273 119.069" stroke="#263238" stroke-linecap="round" stroke-linejoin="round"/>
<path d="M254.136 110.683C254.136 110.683 252.549 103.807 247.646 101.118C240.662 97.2971 230.01 98.677 230.01 98.677C230.01 98.677 234.09 100.776 235.254 103.218C235.254 103.218 232.808 101.826 228.505 103.218C227.309 103.644 226.028 103.77 224.772 103.588C223.516 103.405 222.324 102.917 221.298 102.168C221.298 102.168 220.475 107.676 223.038 109.127C225.601 110.577 222.92 109.634 222.92 109.634C222.92 109.634 220.71 112.559 218.735 112.087C218.735 112.087 218.852 118.149 220.592 120.343C220.592 120.343 218.617 123.197 218.735 125.214C218.751 125.798 218.579 126.372 218.245 126.85C217.91 127.328 217.43 127.685 216.877 127.867C216.877 127.867 217.453 131.807 218.97 132.845C218.97 132.845 217.794 140.18 220.146 144.025C221.96 146.924 223.923 149.726 226.024 152.423C226.024 152.423 225.448 155.065 224.049 155.265C224.049 155.265 226.024 159.535 235.219 156.857C235.219 156.857 247.67 160.396 251.679 158.214C254.222 159.228 256.953 159.679 259.686 159.535C259.686 159.535 259.004 154.817 260.52 152.895C263.245 150.123 265.768 147.159 268.069 144.025C270.162 140.758 269.115 131.771 269.115 131.771C269.115 131.771 271.102 129.412 270.749 127.867C270.749 127.867 269.009 128.398 268.186 127.231C268.186 127.231 269.821 123.692 271.326 123.032C271.326 123.032 270.985 119.293 268.304 118.314C268.304 118.314 270.162 115.047 271.913 114.587C271.913 114.587 265.588 111.898 262.178 114.587C262.37 113.136 262.885 111.746 263.685 110.521C264.485 109.296 265.549 108.267 266.799 107.511C266.799 107.511 261.426 107.747 259.686 112.228C259.686 112.228 256.217 102.428 256.911 98.7006C254.838 102.337 253.873 106.503 254.136 110.683Z" fill="#131313"/>
<path d="M232.679 160.997C232.679 160.997 237.382 175.928 231.127 185.257C231.127 185.257 245.706 190.553 258.169 185.257C253.858 177.957 252.439 169.297 254.195 160.997C254.195 160.997 245.083 154.781 232.679 160.997Z" fill="white" stroke="#131313" stroke-linecap="round" stroke-linejoin="round"/>
<path d="M233.54 279.697C233.582 279.695 233.622 279.694 233.66 279.692V284.057C227.221 284.287 220.8 284.876 214.426 285.822V281.896C217.206 281.038 221.977 280.484 226.173 280.144C228.348 279.967 230.349 279.85 231.808 279.776C232.536 279.739 233.129 279.714 233.54 279.697Z" fill="#131313" stroke="#131313"/>
<path d="M235.207 161.492C237.465 164.179 240.628 165.942 244.096 166.446C249.739 167.141 252.549 161.492 252.549 161.492H235.207Z" fill="#131313"/>
<path d="M261.143 137.645C261.143 137.645 263.225 135.439 264.389 137.645C265.552 139.85 263.319 150.819 259.686 149.651" fill="white"/>
<path d="M261.143 137.645C261.143 137.645 263.225 135.439 264.389 137.645C265.552 139.85 263.319 150.819 259.686 149.651" stroke="#131313" stroke-linecap="round" stroke-linejoin="round"/>
<path d="M225.649 137.645C225.649 137.645 223.579 135.439 222.415 137.645C221.251 139.85 223.485 150.819 227.118 149.651" fill="white"/>
<path d="M225.649 137.645C225.649 137.645 223.579 135.439 222.415 137.645C221.251 139.85 223.485 150.819 227.118 149.651" stroke="#131313" stroke-linecap="round" stroke-linejoin="round"/>
<path d="M243.202 116.981C253.431 116.981 259.016 123.751 259.486 125.615C260.516 130.92 261.059 136.309 261.109 141.713C260.625 148.116 258.634 154.312 255.3 159.794C252.867 163.815 235.948 163.603 232.268 159.912C228.893 156.527 225.06 144.803 225.295 141.867C225.531 138.93 226.377 127.714 226.918 125.697C228.035 121.652 233.69 116.981 243.202 116.981Z" fill="white" stroke="#131313" stroke-linecap="round" stroke-linejoin="round"/>
<path d="M239.275 126.086C237.701 125.814 236.081 126.024 234.628 126.689C233.174 127.354 231.954 128.443 231.127 129.813" stroke="#131313" stroke-linecap="round" stroke-linejoin="round"/>
<path d="M247.646 125.968C247.646 125.968 252.549 123.397 255.794 127.891" stroke="#131313" stroke-linecap="round" stroke-linejoin="round"/>
<path d="M237.182 133.316C237.182 133.316 234.16 134.944 232.291 134.496" stroke="#131313" stroke-linecap="round" stroke-linejoin="round"/>
<path d="M249.081 132.384C250.721 132.967 252.444 133.281 254.184 133.316" stroke="#131313" stroke-linecap="round" stroke-linejoin="round"/>
<path d="M240.204 138.211C240.204 138.211 241.827 134.413 243.226 134.566C244.625 134.719 246.471 138.211 246.471 138.211" stroke="#131313" stroke-linecap="round" stroke-linejoin="round"/>
<path d="M234.736 144.898C234.736 144.898 247.528 147.08 253.454 144.049" stroke="#131313" stroke-linecap="round" stroke-linejoin="round"/>
<path d="M236.218 145.146C236.934 146.559 238.042 147.736 239.408 148.535C240.773 149.334 242.339 149.721 243.919 149.651C249.739 149.651 252.549 144.45 252.549 144.45" stroke="#131313" stroke-linecap="round" stroke-linejoin="round"/>
<path d="M202.604 169.996C202.604 169.996 210.011 168.038 227.071 174.277C227.071 174.277 251.491 170.055 261.168 174.277C268.058 170.854 275.561 168.849 283.236 168.38C283.236 168.38 315.487 151.526 324.787 148.224C334.087 144.922 348.361 136.253 352.699 133.116C357.038 129.979 369.442 126.252 369.442 126.252C371.17 124.387 373.285 122.926 375.638 121.97C375.638 121.97 389.911 135.64 388.665 143.707L383.703 145.228C383.703 145.228 293.759 206.829 290.667 208.822C289.115 209.836 292.489 215.816 291.596 231.585C290.62 248.922 299.273 263.039 296.522 272.309C296.522 272.309 288.022 258.605 262.214 259.89C241.051 260.94 206.319 289.965 206.319 289.965C205.226 281.216 205.297 272.36 206.531 263.629C209.118 245.266 206.942 218.411 206.942 214.577C206.942 208.362 123.841 156.916 123.841 156.916L119.503 155.831L108.333 146.856C108.333 146.856 115.775 122.737 128.18 125.308L138.761 132.786L152.094 139.968C152.094 139.968 188.342 163.981 202.604 169.996Z" fill="#F88419"/>
<path opacity="0.3" d="M388.724 142.916C388.724 143.188 388.724 143.435 388.653 143.695L383.692 145.216C383.692 145.216 294.335 206.427 290.702 208.798V203.644C290.702 203.644 332.3 176.435 340.224 166.505C348.149 156.574 348.713 163.992 348.713 163.992C348.713 163.992 376.472 148.566 377.954 135.297C380.192 135.711 382.313 136.606 384.173 137.921C386.032 139.236 387.585 140.941 388.724 142.916Z" fill="black" fill-opacity="0.7"/>
<path opacity="0.3" d="M206.836 214.141C203.568 206.274 123.841 156.916 123.841 156.916L119.502 155.831L112.565 150.264C114.47 138.387 123.594 135.899 123.594 135.899C123.594 135.899 123.688 148.872 126.945 153.979C130.202 159.086 183.228 190.541 183.228 190.541C183.228 190.541 179.971 175.904 188.107 187.592C196.243 199.28 204.238 200.766 204.238 200.766C205.455 205.149 206.323 209.621 206.836 214.141Z" fill="black" fill-opacity="0.7"/>
<path opacity="0.3" d="M219.969 256.258C220.001 258.022 220.633 259.723 221.76 261.078C222.886 262.434 224.441 263.363 226.165 263.712C230.868 264.69 234.16 269.479 205.813 285.012C205.317 277.878 205.558 270.713 206.53 263.629C208.212 251.705 207.882 236.196 207.447 225.734C215.548 233.236 228.693 242.046 243.378 238.578C267.645 232.858 249.739 257.26 219.969 256.258Z" fill="black" fill-opacity="0.7"/>
<path d="M202.604 169.996C202.604 169.996 210.011 168.038 227.071 174.277C227.071 174.277 251.491 170.055 261.168 174.277C268.058 170.854 275.561 168.849 283.236 168.38C283.236 168.38 315.487 151.526 324.787 148.224C334.087 144.922 348.361 136.253 352.699 133.116C357.038 129.979 369.442 126.252 369.442 126.252C371.17 124.387 373.285 122.926 375.638 121.97C375.638 121.97 389.911 135.64 388.665 143.707L383.703 145.228C383.703 145.228 293.759 206.829 290.667 208.822C289.115 209.836 292.489 215.816 291.596 231.585C290.62 248.922 299.273 263.039 296.522 272.309C296.522 272.309 288.022 258.605 262.214 259.89C241.051 260.94 206.319 289.965 206.319 289.965C205.226 281.216 205.297 272.36 206.531 263.629C209.118 245.266 206.942 218.411 206.942 214.577C206.942 208.362 123.841 156.916 123.841 156.916L119.503 155.831L108.333 146.856C108.333 146.856 115.775 122.737 128.18 125.308L138.761 132.786L152.094 139.968C152.094 139.968 188.342 163.981 202.604 169.996Z" stroke="#131313" stroke-linecap="round" stroke-linejoin="round"/>
<path d="M261.298 278.61C261.427 278.614 261.543 278.617 261.643 278.62V283.329C257.224 282.842 251.215 282.849 246.252 282.98C243.658 283.049 241.342 283.152 239.674 283.238C238.84 283.28 238.168 283.319 237.704 283.347C237.638 283.351 237.575 283.355 237.518 283.358V279.559C238.979 279.199 241.105 278.952 243.531 278.789C246.157 278.612 249.098 278.536 251.855 278.513C254.612 278.491 257.18 278.521 259.059 278.557C259.999 278.575 260.766 278.595 261.298 278.61Z" fill="#131313" stroke="#131313"/>
<path d="M266.778 283.355L266.256 278.42C272.463 277.846 278.722 278.248 284.806 279.612L285.678 284.129C284.451 283.868 282.862 283.688 281.142 283.563C279.022 283.409 276.668 283.336 274.473 283.307C272.278 283.278 270.239 283.294 268.749 283.316C268.003 283.327 267.395 283.34 266.973 283.35C266.903 283.352 266.838 283.354 266.778 283.355Z" fill="#131313" stroke="#131313"/>
<path d="M243.378 279.634V283.066C243.378 283.519 243.558 283.954 243.877 284.275C244.197 284.596 244.631 284.776 245.083 284.776H253.148C253.372 284.776 253.594 284.732 253.801 284.646C254.008 284.56 254.196 284.434 254.354 284.275C254.512 284.116 254.638 283.928 254.723 283.72C254.809 283.513 254.853 283.29 254.853 283.066V279.398C254.852 279.17 254.805 278.944 254.716 278.734C254.627 278.524 254.497 278.334 254.334 278.175C254.171 278.016 253.978 277.891 253.766 277.807C253.555 277.724 253.329 277.683 253.101 277.688L245.036 277.923C244.593 277.939 244.173 278.125 243.864 278.444C243.555 278.763 243.381 279.189 243.378 279.634Z" fill="white" stroke="#131313" stroke-linecap="round" stroke-linejoin="round"/>
<path d="M249.081 285.023C249.081 285.023 250.092 317.209 248.505 337.743" stroke="#131313" stroke-linecap="round" stroke-linejoin="round"/>
<path d="M252.995 284.552C252.995 284.552 254.077 293.574 252.995 298.551C252.995 298.551 256.335 311.926 249.621 313.329" stroke="#131313" stroke-linecap="round" stroke-linejoin="round"/>
<path d="M235.16 338.581C241.917 336.984 248.857 336.305 255.794 336.564" stroke="#131313" stroke-linecap="round" stroke-linejoin="round"/>
<path d="M280.591 287.111C280.591 287.111 284.624 297.95 290.667 298.823" stroke="#131313" stroke-linecap="round" stroke-linejoin="round"/>
<path d="M217.336 287.889C217.336 287.889 214.984 296.24 209.423 298.823" stroke="#131313" stroke-linecap="round" stroke-linejoin="round"/>
<path d="M236.407 324.592C236.407 324.592 204.662 350.716 195.632 351.341" stroke="#131313" stroke-linecap="round" stroke-linejoin="round"/>
<path d="M245.483 338.58C245.483 338.58 255.795 338.58 268.998 353.83C278.181 364.445 307.915 372.642 307.915 372.642" stroke="#131313" stroke-linecap="round" stroke-linejoin="round"/>
<path d="M244.096 342.46C244.096 342.46 231.904 345.928 226.166 351.377" stroke="#131313" stroke-linecap="round" stroke-linejoin="round"/>
<path d="M290.667 208.822C290.667 208.822 291.619 181.353 285.329 172.921" stroke="#131313" stroke-linecap="round" stroke-linejoin="round"/>
<path d="M296.522 176.6C296.522 176.6 296.71 193.218 290.644 200.79" stroke="#131313" stroke-linecap="round" stroke-linejoin="round"/>
<path d="M206.942 214.577C206.942 214.577 201.428 191.933 203.227 180.882" stroke="#263238" stroke-linecap="round" stroke-linejoin="round"/>
<path d="M202.603 169.996C202.603 169.996 194.079 177.603 195.631 187.616" stroke="#263238" stroke-linecap="round" stroke-linejoin="round"/>
<path d="M369.43 126.24C373.554 129.605 377.06 133.668 379.788 138.246" stroke="#263238" stroke-linecap="round" stroke-linejoin="round"/>
<path d="M116.128 153.118C116.128 153.118 118.103 138.965 126.945 132.868" stroke="#263238" stroke-linecap="round" stroke-linejoin="round"/>
<path d="M285.329 227.846C285.329 227.846 245.024 257.744 224.59 256.564" stroke="#131313" stroke-linecap="round" stroke-linejoin="round"/>
<path d="M219.97 200.79C219.97 200.79 237.018 220.026 262.214 223.293" stroke="#131313" stroke-linecap="round" stroke-linejoin="round"/>
<path opacity="0.3" d="M333.229 361.426L326.985 437.686C326.985 437.686 336.309 426.093 353.604 428.511L356.391 433.96C356.391 433.96 389.311 444.893 400.587 445.376C400.587 445.376 394.708 395.239 385.819 382.985C376.931 370.731 333.229 361.426 333.229 361.426Z" fill="black" fill-opacity="0.7"/>
<path opacity="0.1" d="M376.484 277.971L438.952 229.438C438.952 229.438 474.718 281.639 488.627 285.354C488.627 285.354 473.683 321.338 418.411 337.531C418.388 337.531 389.512 287.406 376.484 277.971Z" fill="#0053F1"/>
<path opacity="0.1" d="M275.464 83.3918C275.464 83.3918 300.002 93.3578 318.237 110.035C318.237 110.035 355.791 84.3943 367.995 83.3918C367.995 83.3918 346.831 44.4712 329.795 29.6224C329.795 29.6224 286.528 64.7925 275.464 83.3918Z" fill="#0053F1"/>
<path opacity="0.1" d="M132.765 59.6973C132.765 59.6973 146.874 97.7332 145.886 113.148C157.614 113.516 169.161 110.183 178.901 103.618C183.483 100.416 188.725 98.2863 194.237 97.3881C199.75 96.4899 205.394 96.8457 210.752 98.4291C210.752 98.4291 204.873 60.5465 210.752 49.5544C210.752 49.5544 206.942 44.6245 186.061 44.9901C165.18 45.3557 140.207 59.4024 132.765 59.6973Z" fill="#0053F1"/>
<path opacity="0.1" d="M52.6261 92.8036C53.6726 92.4969 93.3421 122.973 108.603 126.193C108.603 126.193 72.8254 175.209 44.7252 194.445C44.7252 194.445 22.5272 152.847 0.305664 144.851C0.305664 144.851 19.3056 102.239 52.6261 92.8036Z" fill="#0053F1"/>
<path d="M211.986 81.6464C206.473 62.8745 202.811 43.6048 201.052 24.1148C201.009 23.945 200.928 23.787 200.816 23.6524C200.704 23.5177 200.564 23.4098 200.405 23.3364C171.941 10.7993 156.527 45.6036 129.226 38.1734C128.838 38.079 128.626 38.1734 128.767 38.5272C138.493 59.3022 146.171 80.9804 151.694 103.253C151.749 103.432 151.84 103.598 151.961 103.74C152.082 103.882 152.232 103.997 152.4 104.079C176.702 113.88 188.448 76.7872 211.587 82.0002C211.881 82.0945 212.069 81.9176 211.986 81.6464Z" fill="white"/>
<path d="M191.115 57.9299C191.056 57.3613 190.931 56.8016 190.743 56.2619C190.083 54.3716 188.702 52.8218 186.902 51.9534C185.103 51.0849 183.034 50.969 181.15 51.631C180.525 51.8516 179.932 52.1518 179.384 52.5243C178.213 51.4932 176.742 50.8692 175.189 50.7455C173.636 50.6218 172.085 51.0048 170.767 51.8376C169.448 52.6704 168.434 53.9083 167.874 55.3667C167.315 56.8251 167.24 58.4259 167.661 59.9303C167.302 59.9876 166.948 60.0747 166.602 60.1908C165.231 60.6644 164.085 61.633 163.387 62.9079C162.689 64.1827 162.49 65.6726 162.827 67.0872C162.056 67.4199 161.44 68.0357 161.107 68.8086C160.773 69.5814 160.747 70.4529 161.033 71.2448C161.319 72.0366 161.895 72.6889 162.645 73.0681C163.395 73.4474 164.26 73.525 165.065 73.285L191.106 64.1359C191.745 63.9092 192.298 63.4902 192.691 62.9361C193.083 62.3821 193.296 61.7199 193.299 61.0402C193.303 60.3604 193.097 59.6962 192.71 59.1381C192.323 58.58 191.774 58.1554 191.137 57.9221L191.115 57.9299Z" fill="#F2F2FB"/>
<path d="M187.115 55.9237C187.056 55.3551 186.931 54.7954 186.743 54.2557C186.083 52.3655 184.702 50.8156 182.902 49.9472C181.103 49.0787 179.034 48.9628 177.15 49.6248C176.525 49.8454 175.932 50.1456 175.384 50.5181C174.213 49.487 172.742 48.8631 171.189 48.7393C169.636 48.6156 168.085 48.9987 166.767 49.8314C165.448 50.6642 164.434 51.9021 163.874 53.3605C163.315 54.8189 163.24 56.4197 163.661 57.9241C163.302 57.9814 162.948 58.0685 162.602 58.1846C161.231 58.6582 160.085 59.6268 159.387 60.9017C158.689 62.1766 158.49 63.6665 158.827 65.0811C158.056 65.4138 157.44 66.0296 157.107 66.8025C156.773 67.5753 156.747 68.4468 157.033 69.2387C157.319 70.0305 157.895 70.6828 158.645 71.062C159.395 71.4413 160.26 71.5189 161.065 71.2789L187.106 62.1298C187.745 61.9031 188.298 61.4841 188.691 60.93C189.083 60.3759 189.296 59.7138 189.299 59.034C189.303 58.3543 189.097 57.69 188.71 57.1319C188.323 56.5739 187.774 56.1492 187.137 55.916L187.115 55.9237Z" stroke="#131313" stroke-linecap="round" stroke-linejoin="round"/>
<path opacity="0.1" d="M211.587 82.0355C188.448 76.8225 176.702 113.88 152.4 104.114C152.232 104.033 152.082 103.917 151.961 103.775C151.84 103.633 151.749 103.467 151.694 103.288C146.171 81.0157 138.493 59.3375 128.767 38.5625C128.626 38.2676 128.838 38.1143 129.226 38.2086C156.527 45.6035 171.941 10.7991 200.405 23.3363C200.564 23.4097 200.704 23.5176 200.816 23.6523C200.928 23.7869 201.009 23.9449 201.052 24.1147C202.811 43.6047 206.473 62.8744 211.986 81.6463C212.069 81.9176 211.881 82.0945 211.587 82.0355ZM152.67 103.206C176.385 112.122 188.107 76.3036 210.728 80.9858C205.356 62.4 201.719 43.353 199.865 24.0911C172.105 12.5329 156.891 46.1696 130.402 39.4234C139.779 59.946 147.234 81.2987 152.67 103.206Z" fill="#2B21ED"/>
<path d="M369.077 76.1621V76.0913C368.983 75.7257 368.877 75.3837 368.783 75.0181C368.689 74.6525 368.583 74.2397 368.478 73.8387C368.372 73.4377 368.207 72.9187 368.066 72.4588C367.925 71.9988 367.843 71.7039 367.725 71.2793L367.267 70.0174L366.879 68.9087C366.726 68.4724 366.549 68.036 366.385 67.6114L365.961 66.5145C365.797 66.0899 365.609 65.6772 365.432 65.2644L364.974 64.1911L364.41 62.9409C364.245 62.5989 364.092 62.2451 363.916 61.903C363.739 61.561 363.516 61.0893 363.316 60.7236C363.116 60.358 362.975 60.0396 362.799 59.7093C362.622 59.3791 362.387 58.9191 362.176 58.5299C361.964 58.1407 361.811 57.8577 361.635 57.5274L360.976 56.348L360.412 55.3573L359.73 54.1779L359.13 53.199C358.907 52.8334 358.672 52.4678 358.437 52.1022C358.202 51.7365 358.025 51.4535 357.825 51.135C357.625 50.8166 357.332 50.4038 357.096 50.0382C356.861 49.6726 356.685 49.4013 356.473 49.0947L355.721 48.0096L355.086 47.0779L354.333 46.0164L353.722 45.1318L352.934 44.0468L352.288 43.1622L351.371 41.9003L349.948 39.9896L349.395 39.2702L348.22 37.7605L347.89 37.3242L346.409 35.3781L346.138 35.0125C345.739 34.4936 345.339 33.9746 344.963 33.4439C344.763 33.1844 344.563 32.9368 344.375 32.6773L343.493 31.4979L342.835 30.6015L342.035 29.5401C341.812 29.2452 341.588 28.9386 341.377 28.6319C341.165 28.3253 340.848 27.9243 340.601 27.5704L339.931 26.6505L339.178 25.6008L338.52 24.6455C338.273 24.2917 338.026 23.9497 337.791 23.5958L337.132 22.6169L336.439 21.579C336.215 21.2488 335.992 20.9068 335.78 20.5648L335.11 19.5269C334.898 19.1848 334.687 18.8546 334.487 18.5126C334.287 18.1706 334.04 17.8049 333.828 17.4393C333.617 17.0737 333.417 16.7553 333.217 16.4132L332.582 15.3282L331.994 14.2667C331.798 13.9129 331.598 13.5473 331.395 13.1699L330.842 12.0966C330.642 11.731 330.454 11.3536 330.266 10.9762L329.737 9.87931C329.514 9.39575 329.278 8.92399 329.055 8.44043C327.628 9.85572 326.202 11.2553 324.775 12.6391L324.481 12.9222C323.235 14.1252 321.989 15.3046 320.742 16.4604L319.567 17.5337C318.591 18.4418 317.627 19.3382 316.651 20.2227L315.264 21.4965L312.571 24.0204C298.795 36.3996 283.959 47.537 268.234 57.3034C268.09 57.3813 267.981 57.511 267.929 57.6664C267.876 57.8217 267.884 57.9912 267.952 58.1407C279.521 79.1224 302.225 92.0605 317.509 110.035C317.554 110.091 317.609 110.137 317.672 110.172C317.734 110.206 317.803 110.228 317.874 110.236C317.945 110.244 318.017 110.237 318.086 110.217C318.154 110.196 318.218 110.163 318.273 110.117C329.687 100.299 342.019 91.6096 355.098 84.1703L356.203 83.5334C358.108 82.4719 360.024 81.4223 361.952 80.4198L362.716 80.0188C364.59 79.0517 366.467 78.1081 368.348 77.1882L369.23 76.7518L369.077 76.1621Z" fill="white"/>
<path opacity="0.1" d="M317.474 109.951C302.189 92.0244 279.486 79.0863 267.917 58.0574C267.849 57.9079 267.841 57.7384 267.893 57.583C267.946 57.4277 268.055 57.298 268.199 57.22C289.668 43.9988 309.35 27.9353 328.526 8.8642C328.796 8.59293 329.137 8.62832 329.278 8.94676C340.366 32.8534 362.305 48.4924 369.077 76.008C369.125 76.1661 369.123 76.3353 369.07 76.4918C369.018 76.6484 368.917 76.7844 368.783 76.8808C350.582 85.6549 333.588 96.7549 318.227 109.904C318.132 110.009 318 110.072 317.86 110.081C317.719 110.09 317.581 110.043 317.474 109.951ZM269.269 57.9277C280.826 78.3787 302.907 91.246 317.933 108.831C333.227 95.8612 350.038 84.8074 367.996 75.9137C360.941 49.2944 339.66 33.8087 328.561 10.5861C309.679 29.0557 290.35 44.8126 269.292 57.9277H269.269Z" fill="#2B21ED"/>
<path d="M485.075 296.747C468.944 278.159 457.727 256.859 450.261 233.483C450.242 233.408 450.206 233.337 450.155 233.278C450.105 233.218 450.042 233.171 449.971 233.139C449.899 233.107 449.822 233.092 449.744 233.094C449.666 233.097 449.59 233.117 449.521 233.153C426.253 244.947 404.56 256.741 381.328 267.674C381.258 267.704 381.196 267.747 381.144 267.801C381.091 267.856 381.051 267.92 381.024 267.991C380.998 268.062 380.986 268.137 380.99 268.212C380.994 268.288 381.012 268.362 381.046 268.429C391.724 287.44 398.938 308.208 402.35 329.759C402.394 329.922 402.496 330.063 402.637 330.157C402.777 330.25 402.947 330.289 403.114 330.266C433.048 327.94 461.576 316.566 484.934 297.643C485.07 297.542 485.16 297.391 485.187 297.224C485.213 297.056 485.173 296.885 485.075 296.747Z" fill="white"/>
<path opacity="0.1" d="M484.934 297.643C461.57 316.559 433.038 327.926 403.103 330.242C402.935 330.265 402.766 330.226 402.625 330.133C402.484 330.04 402.382 329.898 402.338 329.735C398.927 308.184 391.712 287.416 381.034 268.406C381.001 268.338 380.982 268.264 380.978 268.189C380.975 268.113 380.986 268.038 381.013 267.967C381.039 267.896 381.08 267.832 381.132 267.778C381.184 267.723 381.247 267.68 381.316 267.651C404.513 256.765 426.206 244.935 449.509 233.129C449.578 233.093 449.654 233.073 449.732 233.071C449.81 233.068 449.888 233.083 449.959 233.115C450.03 233.147 450.093 233.194 450.144 233.254C450.194 233.314 450.23 233.384 450.25 233.46C457.716 256.836 468.932 278.136 485.063 296.723C485.116 296.792 485.155 296.87 485.177 296.954C485.199 297.037 485.204 297.125 485.192 297.211C485.18 297.296 485.151 297.379 485.107 297.453C485.062 297.527 485.004 297.592 484.934 297.643ZM403.643 329.015C432.844 326.511 460.657 315.413 483.594 297.112C467.98 278.584 456.928 257.567 449.403 234.604C426.676 246.256 405.313 257.838 382.504 268.382C392.92 287.26 400.068 307.774 403.643 329.051V329.015Z" fill="#2B21ED"/>
<path d="M397.036 348.287C396.965 347.933 396.695 347.851 396.436 348.086C374.179 365.553 351.429 340.538 328.372 353.736C328.207 353.824 328.06 353.945 327.941 354.091C327.822 354.237 327.733 354.405 327.679 354.585C323.633 374.984 321.254 395.681 320.565 416.469C320.565 416.763 320.836 416.834 321.189 416.646C348.877 402.056 376.202 433.889 403.796 424.489C403.982 424.413 404.143 424.286 404.261 424.124C404.38 423.962 404.451 423.769 404.466 423.569C404.322 398.298 401.834 373.095 397.036 348.287Z" fill="white"/>
<path d="M376.047 388.595C376.279 388.073 376.45 387.526 376.556 386.964C376.927 384.996 376.503 382.961 375.378 381.306C374.252 379.652 372.518 378.514 370.556 378.142C369.906 378.02 369.242 377.982 368.582 378.03C368.082 376.55 367.119 375.271 365.835 374.385C364.552 373.499 363.018 373.053 361.461 373.113C359.905 373.173 358.409 373.736 357.197 374.719C355.986 375.701 355.123 377.05 354.738 378.564C354.398 378.433 354.048 378.331 353.691 378.258C352.268 377.981 350.793 378.245 349.553 378.999C348.313 379.753 347.397 380.943 346.984 382.337C346.15 382.239 345.31 382.463 344.636 382.965C343.962 383.467 343.505 384.209 343.358 385.038C343.211 385.867 343.385 386.722 343.845 387.426C344.306 388.13 345.017 388.632 345.833 388.828L372.945 393.965C373.612 394.089 374.3 394.004 374.916 393.721C375.532 393.438 376.046 392.971 376.388 392.384C376.73 391.797 376.883 391.119 376.826 390.442C376.769 389.764 376.505 389.121 376.07 388.6L376.047 388.595Z" fill="#F2F2FB"/>
<path d="M373.582 384.852C373.814 384.329 373.985 383.782 374.091 383.22C374.462 381.252 374.038 379.217 372.913 377.563C371.788 375.908 370.053 374.77 368.091 374.398C367.441 374.276 366.777 374.238 366.117 374.286C365.617 372.806 364.654 371.528 363.371 370.642C362.087 369.756 360.553 369.309 358.996 369.369C357.44 369.43 355.944 369.993 354.733 370.975C353.521 371.957 352.658 373.306 352.273 374.821C351.933 374.69 351.583 374.588 351.226 374.515C349.803 374.237 348.328 374.501 347.088 375.255C345.848 376.01 344.932 377.2 344.519 378.594C343.686 378.495 342.846 378.72 342.172 379.222C341.497 379.724 341.04 380.465 340.893 381.294C340.746 382.124 340.92 382.978 341.381 383.682C341.841 384.387 342.552 384.888 343.368 385.084L370.48 390.221C371.147 390.345 371.835 390.26 372.451 389.977C373.067 389.694 373.581 389.228 373.923 388.641C374.265 388.054 374.418 387.375 374.361 386.698C374.304 386.02 374.04 385.377 373.605 384.856L373.582 384.852Z" stroke="#131313" stroke-linecap="round" stroke-linejoin="round"/>
<path opacity="0.1" d="M403.797 424.489C376.202 433.924 348.878 402.08 321.189 416.646C320.836 416.834 320.554 416.764 320.566 416.469C321.255 395.681 323.634 374.984 327.679 354.585C327.733 354.405 327.822 354.237 327.941 354.091C328.06 353.945 328.207 353.824 328.373 353.736C351.429 340.538 374.227 365.53 396.436 348.086C396.695 347.851 396.965 347.933 397.036 348.287C401.835 373.095 404.322 398.298 404.467 423.569C404.451 423.769 404.38 423.962 404.262 424.124C404.143 424.286 403.982 424.413 403.797 424.489ZM321.871 415.254C349.101 401.655 375.955 432.131 403.126 423.427C402.993 398.722 400.667 374.077 396.178 349.785C374.027 366.155 351.5 342.083 328.749 354.502C324.899 374.545 322.599 394.856 321.871 415.254Z" fill="#2B21ED"/>
<path d="M100.749 123.728C81.0415 109.994 62.4711 94.6862 45.2189 77.9547C45.111 77.8458 44.9687 77.7779 44.8163 77.7628C44.664 77.7478 44.5111 77.7864 44.3841 77.8722C28.0585 89.7644 12.9012 103.192 -0.881911 117.972C-0.972668 118.095 -1.0156 118.246 -1.00261 118.398C-0.98961 118.55 -0.921588 118.692 -0.81137 118.798C16.7774 138.001 32.792 158.598 47.0766 180.386C47.1221 180.454 47.1819 180.51 47.2518 180.552C47.3216 180.594 47.3997 180.619 47.4805 180.627C47.5613 180.635 47.6429 180.625 47.7194 180.598C47.7959 180.57 47.8654 180.526 47.9231 180.469C67.3045 163.583 85.0222 144.866 100.831 124.577C100.885 124.517 100.926 124.447 100.951 124.371C100.976 124.295 100.985 124.214 100.977 124.134C100.969 124.054 100.945 123.977 100.906 123.907C100.866 123.837 100.813 123.776 100.749 123.728Z" fill="white"/>
<path d="M40.5341 140.857C40.0516 140.553 39.6059 140.194 39.2058 139.787C37.8056 138.359 37.0281 136.432 37.0444 134.429C37.0607 132.426 37.8694 130.512 39.2927 129.107C39.7654 128.642 40.2957 128.24 40.8706 127.911C40.4642 126.403 40.5548 124.803 41.1288 123.35C41.7029 121.897 42.7297 120.67 44.0561 119.85C45.3825 119.031 46.9374 118.663 48.4891 118.802C50.0407 118.942 51.5059 119.58 52.6662 120.623C52.876 120.325 53.1102 120.044 53.3663 119.784C54.3945 118.759 55.7666 118.154 57.215 118.088C58.6635 118.022 60.0846 118.499 61.2016 119.426C61.8394 118.879 62.6617 118.596 63.5003 118.637C64.3389 118.677 65.1303 119.038 65.7127 119.644C66.2951 120.251 66.6244 121.058 66.6332 121.9C66.642 122.742 66.3296 123.556 65.76 124.174L46.0912 143.585C45.6066 144.06 44.9877 144.374 44.3188 144.483C43.6499 144.592 42.9638 144.492 42.354 144.195C41.7443 143.898 41.2407 143.42 40.912 142.826C40.5833 142.231 40.4455 141.55 40.5175 140.874L40.5341 140.857Z" fill="#F2F2FB"/>
<path d="M40.5029 136.371C40.0204 136.067 39.5746 135.708 39.1746 135.301C37.7743 133.873 36.9968 131.946 37.0131 129.943C37.0295 127.94 37.8382 126.026 39.2615 124.621C39.7341 124.156 40.2644 123.755 40.8393 123.426C40.4329 121.917 40.5235 120.317 41.0976 118.864C41.6717 117.412 42.6984 116.184 44.0248 115.364C45.3512 114.545 46.9062 114.177 48.4578 114.317C50.0094 114.456 51.4746 115.094 52.6349 116.137C52.8447 115.839 53.0789 115.558 53.335 115.298C54.3633 114.273 55.7353 113.668 57.1838 113.602C58.6322 113.536 60.0533 114.013 61.1703 114.94C61.8081 114.393 62.6305 114.11 63.4691 114.151C64.3076 114.191 65.0991 114.552 65.6815 115.158C66.2639 115.765 66.5931 116.572 66.6019 117.414C66.6107 118.256 66.2984 119.07 65.7288 119.689L46.0599 139.099C45.5754 139.574 44.9564 139.888 44.2875 139.997C43.6187 140.106 42.9325 140.006 42.3228 139.709C41.713 139.412 41.2094 138.934 40.8807 138.34C40.552 137.745 40.4143 137.064 40.4862 136.388L40.5029 136.371Z" stroke="#131313" stroke-linecap="round" stroke-linejoin="round"/>
<path d="M80.372 208.414C80.5188 207.862 80.6013 207.294 80.6178 206.723C80.6738 204.721 79.9347 202.778 78.563 201.323C77.1914 199.868 75.2996 199.018 73.3038 198.962C72.6421 198.945 71.9809 199.013 71.3365 199.164C70.6099 197.782 69.4573 196.673 68.0507 196.001C66.644 195.329 65.0587 195.132 63.531 195.438C62.0033 195.744 60.6152 196.537 59.5736 197.699C58.532 198.861 57.8927 200.33 57.7511 201.886C57.3947 201.811 57.0328 201.765 56.669 201.75C55.2198 201.702 53.8046 202.196 52.6991 203.137C51.5935 204.078 50.8768 205.399 50.6885 206.841C49.8497 206.875 49.0557 207.23 48.4691 207.833C47.8826 208.435 47.5478 209.24 47.5332 210.082C47.5186 210.924 47.8253 211.74 48.3906 212.363C48.9559 212.985 49.7371 213.368 50.5742 213.432L78.1549 214.208C78.8324 214.225 79.4985 214.032 80.0624 213.655C80.6263 213.278 81.0604 212.735 81.3055 212.101C81.5506 211.468 81.5947 210.774 81.4318 210.114C81.2689 209.454 80.907 208.861 80.3953 208.415L80.372 208.414Z" fill="#F2F2FB"/>
<path d="M77.3496 205.108C77.4964 204.555 77.5788 203.988 77.5954 203.416C77.6513 201.414 76.9122 199.472 75.5406 198.017C74.1689 196.561 72.2771 195.712 70.2813 195.656C69.6196 195.639 68.9584 195.706 68.3141 195.858C67.5874 194.476 66.4349 193.366 65.0282 192.695C63.6216 192.023 62.0362 191.826 60.5085 192.132C58.9809 192.438 57.5927 193.231 56.5511 194.393C55.5095 195.555 54.8702 197.024 54.7286 198.58C54.3723 198.505 54.0103 198.459 53.6465 198.444C52.1974 198.396 50.7822 198.89 49.6766 199.831C48.571 200.772 47.8543 202.092 47.666 203.534C46.8272 203.569 46.0332 203.924 45.4467 204.527C44.8601 205.129 44.5253 205.934 44.5107 206.776C44.4961 207.618 44.8029 208.434 45.3682 209.056C45.9335 209.679 46.7146 210.061 47.5517 210.125L75.1325 210.902C75.8099 210.919 76.4761 210.725 77.04 210.348C77.6038 209.971 78.038 209.429 78.2831 208.795C78.5281 208.161 78.5723 207.467 78.4094 206.807C78.2465 206.148 77.8845 205.554 77.3729 205.108L77.3496 205.108Z" stroke="#131313" stroke-linecap="round" stroke-linejoin="round"/>
<path d="M331.457 77.3536C331.929 77.0329 332.362 76.6584 332.748 76.2377C334.098 74.7624 334.809 72.8094 334.724 70.8084C334.639 68.8074 333.765 66.9223 332.294 65.5677C331.805 65.1195 331.262 64.7362 330.676 64.4272C331.03 62.9055 330.885 61.3096 330.261 59.8776C329.637 58.4456 328.569 57.2541 327.215 56.4809C325.861 55.7077 324.295 55.3942 322.749 55.5871C321.203 55.7799 319.76 56.4689 318.637 57.5512C318.417 57.2601 318.173 56.9878 317.908 56.7371C316.845 55.7479 315.453 55.191 314.003 55.1749C312.554 55.1589 311.15 55.6848 310.065 56.6503C309.409 56.125 308.577 55.8711 307.741 55.9406C306.904 56.0101 306.125 56.3977 305.564 57.0241C305.003 57.6505 304.702 58.4684 304.722 59.3103C304.742 60.1522 305.082 60.9546 305.673 61.5533L325.997 80.2721C326.498 80.7303 327.127 81.0223 327.799 81.1082C328.471 81.1942 329.154 81.0699 329.753 80.7523C330.352 80.4348 330.839 79.9395 331.147 79.334C331.455 78.7285 331.569 78.0425 331.474 77.3694L331.457 77.3536Z" fill="#F2F2FB"/>
<path d="M331.334 72.8692C331.806 72.5485 332.239 72.174 332.625 71.7533C333.975 70.278 334.686 68.325 334.601 66.324C334.516 64.3231 333.641 62.4379 332.171 61.0834C331.682 60.6352 331.139 60.2519 330.553 59.9429C330.907 58.4211 330.762 56.8253 330.138 55.3933C329.514 53.9613 328.446 52.7699 327.092 51.9967C325.738 51.2235 324.172 50.9099 322.626 51.1028C321.08 51.2956 319.637 51.9846 318.514 53.0669C318.294 52.7758 318.05 52.5035 317.785 52.2529C316.722 51.2636 315.33 50.7067 313.88 50.6906C312.431 50.6746 311.027 51.2005 309.942 52.166C309.286 51.6407 308.454 51.3868 307.618 51.4563C306.781 51.5258 306.002 51.9134 305.441 52.5398C304.88 53.1662 304.579 53.9841 304.599 54.826C304.619 55.6679 304.959 56.4703 305.55 57.069L325.874 75.7877C326.375 76.2459 327.004 76.5379 327.676 76.6238C328.348 76.7098 329.031 76.5855 329.63 76.268C330.229 75.9504 330.716 75.4551 331.024 74.8497C331.332 74.2442 331.446 73.5581 331.351 72.8851L331.334 72.8692Z" stroke="#131313" stroke-linecap="round" stroke-linejoin="round"/>
<path d="M461.033 103.77C461.267 103.248 461.439 102.701 461.546 102.14C461.921 100.173 461.502 98.1367 460.38 96.4797C459.259 94.8226 457.527 93.6804 455.566 93.3042C454.916 93.1805 454.252 93.1414 453.592 93.1877C453.096 91.7065 452.135 90.4259 450.854 89.5369C449.573 88.648 448.039 88.1982 446.483 88.2548C444.926 88.3113 443.429 88.8711 442.215 89.8507C441.001 90.8303 440.136 92.1771 439.747 93.6905C439.408 93.559 439.058 93.4559 438.701 93.3825C437.278 93.1018 435.802 93.3625 434.561 94.1137C433.319 94.8649 432.401 96.0528 431.985 97.4461C431.151 97.3455 430.311 97.5683 429.636 98.0688C428.96 98.5693 428.501 99.3097 428.352 100.138C428.203 100.967 428.376 101.822 428.834 102.527C429.293 103.233 430.003 103.736 430.819 103.934L457.92 109.133C458.586 109.258 459.274 109.175 459.891 108.893C460.508 108.611 461.023 108.146 461.366 107.56C461.709 106.974 461.863 106.295 461.808 105.618C461.753 104.94 461.49 104.297 461.056 103.774L461.033 103.77Z" fill="#F2F2FB"/>
<path d="M458.578 100.021C458.811 99.4991 458.983 98.9521 459.091 98.3907C459.466 96.4235 459.047 94.3875 457.925 92.7304C456.804 91.0734 455.072 89.9312 453.111 89.5549C452.461 89.4313 451.797 89.3922 451.137 89.4385C450.64 87.9572 449.68 86.6767 448.399 85.7877C447.118 84.8987 445.584 84.449 444.027 84.5055C442.471 84.562 440.974 85.1218 439.76 86.1014C438.546 87.081 437.681 88.4279 437.292 89.9413C436.953 89.8097 436.603 89.7067 436.246 89.6332C434.823 89.3526 433.347 89.6132 432.106 90.3645C430.864 91.1157 429.946 92.3036 429.53 93.6969C428.696 93.5963 427.856 93.8191 427.18 94.3196C426.505 94.8201 426.046 95.5605 425.897 96.3893C425.748 97.2181 425.921 98.0727 426.379 98.7782C426.838 99.4837 427.548 99.9867 428.364 100.184L455.464 105.383C456.13 105.509 456.819 105.425 457.436 105.144C458.052 104.862 458.568 104.397 458.911 103.811C459.254 103.224 459.408 102.546 459.353 101.869C459.298 101.191 459.035 100.547 458.601 100.025L458.578 100.021Z" stroke="#131313" stroke-linecap="round" stroke-linejoin="round"/>
<path d="M444.095 223.958C444.481 223.538 444.818 223.074 445.098 222.576C446.078 220.832 446.327 218.767 445.79 216.838C445.253 214.909 443.974 213.273 442.234 212.29C441.657 211.965 441.041 211.716 440.4 211.549C440.4 209.987 439.896 208.466 438.963 207.214C438.031 205.962 436.72 205.046 435.227 204.602C433.733 204.158 432.136 204.211 430.675 204.752C429.213 205.293 427.965 206.293 427.117 207.603C426.836 207.37 426.537 207.161 426.222 206.977C424.963 206.257 423.481 206.032 422.066 206.348C420.65 206.663 419.403 207.496 418.566 208.684C417.807 208.322 416.94 208.265 416.141 208.524C415.342 208.782 414.672 209.338 414.268 210.076C413.864 210.814 413.756 211.679 413.966 212.494C414.177 213.31 414.69 214.013 415.401 214.461L439.44 228.047C440.032 228.379 440.711 228.519 441.385 228.449C442.059 228.379 442.695 228.103 443.207 227.657C443.718 227.211 444.08 226.617 444.242 225.957C444.405 225.297 444.36 224.603 444.115 223.969L444.095 223.958Z" fill="#F2F2FB"/>
<path d="M442.957 219.619C443.344 219.199 443.68 218.736 443.96 218.238C444.94 216.493 445.189 214.429 444.652 212.5C444.115 210.571 442.836 208.935 441.097 207.952C440.52 207.627 439.903 207.378 439.262 207.211C439.262 205.648 438.758 204.127 437.826 202.875C436.893 201.623 435.583 200.707 434.089 200.264C432.595 199.82 430.999 199.872 429.537 200.413C428.076 200.954 426.827 201.954 425.979 203.265C425.699 203.032 425.4 202.822 425.085 202.639C423.825 201.918 422.343 201.694 420.928 202.009C419.513 202.325 418.265 203.157 417.428 204.345C416.67 203.984 415.802 203.926 415.003 204.185C414.205 204.444 413.534 204.999 413.13 205.737C412.726 206.475 412.618 207.341 412.829 208.156C413.039 208.971 413.553 209.675 414.264 210.123L438.303 223.708C438.894 224.04 439.573 224.18 440.247 224.111C440.921 224.041 441.558 223.764 442.069 223.318C442.58 222.872 442.942 222.278 443.105 221.618C443.267 220.959 443.223 220.264 442.977 219.631L442.957 219.619Z" stroke="#131313" stroke-linecap="round" stroke-linejoin="round"/>
<path d="M110.209 306.522C110.595 306.102 110.932 305.638 111.212 305.14C112.192 303.395 112.441 301.331 111.904 299.402C111.367 297.473 110.088 295.837 108.349 294.854C107.771 294.529 107.155 294.28 106.514 294.113C106.514 292.55 106.01 291.03 105.078 289.778C104.145 288.526 102.835 287.61 101.341 287.166C99.8473 286.722 98.2506 286.775 96.7891 287.316C95.3275 287.856 94.0794 288.857 93.2308 290.167C92.9505 289.934 92.6515 289.725 92.3367 289.541C91.0771 288.82 89.5953 288.596 88.1799 288.912C86.7645 289.227 85.5168 290.06 84.68 291.248C83.9218 290.886 83.0544 290.829 82.2554 291.087C81.4565 291.346 80.7863 291.901 80.382 292.64C79.9778 293.378 79.87 294.243 80.0807 295.058C80.2914 295.873 80.8047 296.577 81.5156 297.025L105.555 310.61C106.146 310.942 106.825 311.083 107.499 311.013C108.173 310.943 108.81 310.666 109.321 310.22C109.832 309.774 110.194 309.181 110.357 308.521C110.519 307.861 110.475 307.167 110.229 306.533L110.209 306.522Z" fill="#F2F2FB"/>
<path d="M109.071 302.183C109.458 301.763 109.795 301.299 110.075 300.802C111.055 299.057 111.304 296.993 110.767 295.064C110.229 293.135 108.951 291.499 107.211 290.516C106.634 290.191 106.017 289.942 105.377 289.775C105.376 288.212 104.872 286.691 103.94 285.439C103.008 284.187 101.697 283.271 100.203 282.827C98.7096 282.384 97.1129 282.436 95.6514 282.977C94.1898 283.518 92.9417 284.518 92.0931 285.829C91.8129 285.595 91.5138 285.386 91.199 285.202C89.9394 284.482 88.4576 284.258 87.0422 284.573C85.6268 284.889 84.3791 285.721 83.5423 286.909C82.7841 286.547 81.9167 286.49 81.1178 286.749C80.3188 287.008 79.6486 287.563 79.2443 288.301C78.8401 289.039 78.7323 289.904 78.943 290.72C79.1537 291.535 79.667 292.238 80.3779 292.686L104.417 306.272C105.008 306.604 105.688 306.744 106.362 306.674C107.036 306.605 107.672 306.328 108.183 305.882C108.695 305.436 109.056 304.842 109.219 304.182C109.381 303.522 109.337 302.828 109.092 302.194L109.071 302.183Z" stroke="#131313" stroke-linecap="round" stroke-linejoin="round"/>
<path d="M447.688 281.912C447.553 281.356 447.354 280.818 447.096 280.309C446.188 278.525 444.611 277.176 442.712 276.558C440.813 275.94 438.747 276.105 436.968 277.015C436.379 277.318 435.832 277.695 435.339 278.139C434.04 277.275 432.499 276.855 430.943 276.942C429.388 277.029 427.902 277.618 426.707 278.621C425.513 279.624 424.674 280.988 424.315 282.509C423.956 284.029 424.097 285.626 424.716 287.06C424.367 287.165 424.028 287.299 423.702 287.461C422.407 288.115 421.401 289.229 420.88 290.587C420.36 291.944 420.362 293.448 420.886 294.804C420.166 295.238 419.639 295.931 419.412 296.742C419.185 297.553 419.276 298.42 419.665 299.166C420.055 299.912 420.714 300.48 421.508 300.755C422.301 301.03 423.17 300.99 423.935 300.643L448.511 288.062C449.114 287.752 449.606 287.262 449.921 286.66C450.236 286.058 450.357 285.373 450.27 284.699C450.182 284.025 449.889 283.394 449.431 282.894C448.972 282.393 448.371 282.046 447.709 281.901L447.688 281.912Z" fill="#F2F2FB"/>
<path d="M443.455 280.463C443.32 279.908 443.121 279.37 442.862 278.861C441.955 277.077 440.378 275.728 438.479 275.11C436.58 274.492 434.513 274.657 432.735 275.567C432.146 275.87 431.598 276.247 431.105 276.69C429.807 275.827 428.265 275.407 426.71 275.494C425.154 275.581 423.669 276.17 422.474 277.173C421.28 278.176 420.44 279.54 420.082 281.061C419.723 282.581 419.863 284.178 420.483 285.611C420.134 285.717 419.795 285.851 419.468 286.012C418.173 286.667 417.168 287.781 416.647 289.139C416.126 290.496 416.128 292 416.652 293.356C415.933 293.79 415.405 294.483 415.179 295.294C414.952 296.105 415.042 296.972 415.432 297.718C415.821 298.464 416.481 299.032 417.274 299.307C418.068 299.582 418.936 299.542 419.701 299.195L444.278 286.614C444.881 286.303 445.373 285.814 445.688 285.212C446.002 284.61 446.124 283.925 446.036 283.251C445.949 282.577 445.656 281.946 445.197 281.445C444.739 280.945 444.138 280.598 443.476 280.453L443.455 280.463Z" stroke="#131313" stroke-linecap="round" stroke-linejoin="round"/>
<path opacity="0.1" d="M47.0766 180.386C32.792 158.598 16.7774 138.001 -0.81137 118.798C-0.921588 118.692 -0.98961 118.55 -1.00261 118.398C-1.0156 118.246 -0.972668 118.095 -0.881911 117.972C12.9012 103.192 28.0585 89.7644 44.3841 77.8722C44.5111 77.7864 44.664 77.7478 44.8163 77.7628C44.9687 77.7779 45.111 77.8458 45.2189 77.9547C62.4711 94.6862 81.0415 109.994 100.749 123.728C100.808 123.782 100.854 123.847 100.886 123.92C100.918 123.994 100.934 124.072 100.934 124.152C100.934 124.232 100.918 124.311 100.886 124.384C100.854 124.457 100.808 124.523 100.749 124.577C84.9399 144.866 67.2222 163.583 47.8408 180.469C47.7276 180.557 47.5847 180.598 47.442 180.583C47.2994 180.567 47.1684 180.497 47.0766 180.386ZM0.305585 118.491C17.6289 137.417 33.4849 157.644 47.735 178.995C66.6062 162.433 83.923 144.17 99.4676 124.435C80.1049 110.703 61.8196 95.5035 44.7721 78.969C28.7922 90.771 13.9094 103.999 0.305585 118.491Z" fill="#2B21ED"/>
<circle opacity="0.3" cx="358" cy="209" r="9" fill="#C4C1FA"/>
<circle opacity="0.3" r="9" transform="matrix(-1 0 0 1 136 248)" fill="#C4C1FA"/>
<circle r="9" transform="matrix(-1 0 0 1 78 15)" fill="#F88419"/>
<circle opacity="0.3" r="9" transform="matrix(1 0 0 -1 391 47)" fill="#C4C1FA"/>
<circle cx="334" cy="208" r="6" fill="#0053F1"/>
<circle r="6" transform="matrix(-1 0 0 1 164 236)" fill="#0053F1"/>
<circle r="6" transform="matrix(-1 0 0 1 63 360)" fill="#0053F1"/>
<circle r="6" transform="matrix(1 0 0 -1 376 15)" fill="#0053F1"/>
<circle r="6" transform="matrix(1 0 0 -1 49 9)" fill="#0053F1"/>
<circle r="6" transform="matrix(1 0 0 -1 352 279)" fill="#F88419"/>
<circle r="6" transform="matrix(1 0 0 -1 139 354)" fill="#F88419"/>
<circle cx="349" cy="187" r="3" fill="#F88419"/>
<circle r="3" transform="matrix(-1 0 0 1 148 221)" fill="#F88419"/>
<circle r="3" transform="matrix(-1 0 0 1 254 9)" fill="#F88419"/>
<circle r="3" transform="matrix(1 0 0 -1 403 21)" fill="#F88419"/>
</g>
</svg>
