<svg width="131" height="28" viewBox="0 0 218 35" fill="none" xmlns="http://www.w3.org/2000/svg">
<g>
<path d="M54.6288 30.2761C53.9417 29.589 53.3404 29.2025 52.9969 29.2025C51.7943 30.2331 50.1623 30.7485 47.9291 30.7485C43.7203 30.7485 41.3152 27.9571 41.3152 23.9632C41.3152 19.8405 43.7632 17.0491 47.7573 17.0491C49.3463 17.0491 50.5489 17.4356 51.3649 18.1227V20.3558C51.3649 20.6994 51.5796 21.0429 52.1379 21.6012C52.6533 22.0736 53.0398 22.2883 53.2975 22.2883C53.6411 22.2883 53.9846 22.0736 54.4571 21.6012C54.9724 21.0859 55.2301 20.6994 55.2301 20.3558V16.2331C55.2301 15.546 54.4571 14.773 52.9969 14C51.5366 13.184 49.7758 12.8405 47.7143 12.8405C44.3645 12.8405 41.5729 13.8712 39.4685 15.9755C37.3641 18.0368 36.2474 20.6994 36.2474 23.9202C36.2474 24.4356 36.2904 24.908 36.3333 25.3804L17.6084 14.7301L25.21 10.3926C26.2407 9.79141 26.6273 8.46012 26.026 7.3865C25.4248 6.35583 24.0934 5.96933 23.0197 6.57055L15.3322 10.9509V2.19018C15.3322 0.98773 14.3444 0 13.1419 0C11.9393 0 10.9515 0.98773 10.9515 2.19018V10.9509L3.264 6.57055C2.19032 5.96933 0.858954 6.35583 0.257693 7.3865C-0.343568 8.41718 0.0429567 9.79141 1.07369 10.3926L8.71829 14.7301L1.11664 19.0675C0.0859038 19.6687 -0.300621 21 0.30064 22.0736C0.687165 22.7607 1.46021 23.1902 2.19032 23.1902C2.57684 23.1902 2.92042 23.1043 3.264 22.8896L10.9515 18.5092V27.3129C10.9515 28.5153 11.9393 29.5031 13.1419 29.5031C14.3444 29.5031 15.3322 28.5153 15.3322 27.3129V18.4663L40.6281 32.8528L42.6036 33.9693L42.6466 34.0123C42.7754 34.0982 42.9472 34.1411 43.0761 34.1841C44.4504 34.6994 45.9965 34.9571 47.7143 34.9571C51.0213 34.9571 53.727 33.9264 55.7455 31.908C55.7884 31.5644 55.4019 30.9632 54.6288 30.2761Z" fill="#E0E1E4"/>
<path d="M69.0163 12.8407C65.7523 12.8407 63.0467 13.8714 60.9422 16.0186C58.8378 18.08 57.7642 20.7425 57.7642 23.9634C57.7642 27.1413 58.7949 29.761 60.9422 31.9082C63.0467 33.9695 65.7523 35.0432 69.0163 35.0432C72.2803 35.0432 74.986 34.0125 77.0904 31.9082C79.1948 29.8039 80.3114 27.1413 80.3114 23.9634C80.3114 20.7425 79.2377 18.1229 77.0904 16.0186C74.943 13.8714 72.2803 12.8407 69.0163 12.8407ZM73.3969 28.9021C72.3233 30.1904 70.863 30.7916 69.0163 30.7916C67.1696 30.7916 65.7094 30.1904 64.6357 28.9021C63.562 27.6137 63.0037 25.9818 63.0037 23.9634C63.0037 21.945 63.562 20.2701 64.6357 19.0247C65.7094 17.7364 67.1696 17.1352 69.0163 17.1352C70.863 17.1352 72.3233 17.7364 73.3969 19.0247C74.5136 20.3131 75.1148 21.945 75.1148 23.9634C75.1148 25.9818 74.5565 27.6137 73.3969 28.9021Z" fill="#E0E1E4"/>
<path d="M88.9007 0.858699C88.4283 0.343362 88.0418 0.0856934 87.7411 0.0856934H81.7285C81.3849 0.0856934 81.0414 0.300417 80.4831 0.858699C80.0106 1.33109 79.7959 1.7176 79.7959 2.01821C79.7959 2.31882 80.0106 2.70533 80.4831 3.26361C80.9984 3.736 81.3849 3.95072 81.7285 3.95072H84.7778V34.5704H89.6308V2.01821C89.6738 1.67465 89.4161 1.33109 88.9007 0.858699Z" fill="#E0E1E4"/>
<path d="M114.626 29.2023V2.01821C114.626 1.67465 114.368 1.33109 113.853 0.8587C113.381 0.343362 112.994 0.0856934 112.694 0.0856934H108.055C107.712 0.0856934 107.368 0.300417 106.81 0.8587C106.337 1.33109 106.123 1.7176 106.123 2.01821C106.123 2.31882 106.337 2.70533 106.81 3.26361C107.325 3.736 107.712 3.95073 108.055 3.95073H109.773V13.5274C108.356 13.055 106.982 12.8403 105.607 12.8403C102.257 12.8403 99.5088 13.871 97.3614 16.0182C95.1711 18.0796 94.0974 20.7851 94.0974 24.0918C94.0974 27.2268 95.0422 29.8035 96.9749 31.8648C98.9075 33.9262 101.355 34.9998 104.276 34.9998C106.509 34.9998 108.442 34.3127 110.074 32.9385C110.632 33.7115 111.663 34.5704 112.178 34.5704H115.099V34.0121L114.97 33.6256C114.798 33.1961 114.626 31.4354 114.626 29.2023ZM109.73 29.4599C108.571 30.3618 107.153 30.7912 105.478 30.7912C101.656 30.7912 99.2511 27.9998 99.2511 24.0059C99.2511 19.8403 101.699 17.0489 105.822 17.0489C107.282 17.0489 108.614 17.3495 109.73 17.9507V29.4599Z" fill="#E0E1E4"/>
<path d="M127.94 21.9017C126.651 21.3864 125.878 20.9999 125.535 20.8281C124.418 20.2698 123.817 19.5827 123.817 18.8956C123.817 17.6072 125.019 16.8342 127.038 16.8342C128.799 16.8342 130.173 17.3066 131.161 18.2943C131.504 18.2943 132.063 17.9078 132.75 17.2207C133.437 16.5336 133.824 15.9324 133.824 15.6318C132.063 13.7851 129.744 12.8833 126.909 12.8833C121.841 12.8833 119.264 15.2023 119.264 19.1532C119.264 22.3312 120.896 23.8772 125.449 25.7667L127.94 26.8404C129.314 27.4416 129.958 28.1716 129.958 28.8588C129.958 30.233 128.498 31.0919 126.351 31.0919C124.375 31.0919 122.7 30.4477 121.455 29.1594C121.111 29.1594 120.553 29.5459 119.823 30.2759C119.093 31.0489 118.749 31.6072 118.749 31.9078C120.768 33.9262 123.387 34.9569 126.522 34.9569C131.633 34.9569 134.554 32.552 134.554 28.644C134.554 27.0551 134.038 25.7667 133.05 24.8649C132.106 23.9631 130.345 22.9324 127.94 21.9017Z" fill="#E0E1E4"/>
<path d="M151.732 30.6629C151.131 30.0187 150.616 29.6751 150.272 29.6751C149.456 30.4911 148.425 30.8346 147.051 30.8346C145.505 30.8346 144.689 29.9757 144.689 28.3438V17.1782H151.518V13.3132H144.689V5.54016H143.315L140.094 7.3009V13.3132H137.774C137.431 13.3132 137.001 13.5279 136.529 14.0003C136.057 14.4727 135.842 14.9021 135.842 15.2457C135.842 15.5892 136.057 15.9328 136.529 16.4911C137.044 16.9635 137.431 17.1782 137.774 17.1782H139.793V29.2027C139.793 33.0678 141.854 35.0003 145.977 35.0003C148.511 35.0003 150.744 34.0555 152.677 32.123C152.72 31.7794 152.376 31.2641 151.732 30.6629Z" fill="#E0E1E4"/>
<path d="M172.046 29.2027V20.2701C172.046 15.4174 169.169 12.8407 163.543 12.8407C160.15 12.8407 157.359 13.8714 155.211 16.0186C155.211 16.4481 155.598 17.0063 156.328 17.7793C157.101 18.4665 157.659 18.853 158.046 18.853C159.42 17.5217 161.095 16.8775 163.113 16.8775C165.604 16.8775 167.193 18.1229 167.193 20.399V22.0309C166.12 21.902 165.132 21.8591 164.187 21.8591C158.003 21.8591 154.696 24.3499 154.696 28.7732C154.696 32.7671 157.573 35.0002 161.739 35.0002C164.015 35.0002 165.948 34.3131 167.494 32.8959C168.095 33.7119 169.126 34.6137 169.684 34.6137H172.605V34.0554L172.476 33.6689C172.218 33.1965 172.046 31.4358 172.046 29.2027ZM167.193 29.3744C166.077 30.491 164.66 31.0922 162.942 31.0922C160.665 31.0922 159.549 30.1904 159.549 28.3867C159.549 26.3683 161.095 25.3806 164.23 25.3806C165.218 25.3806 166.206 25.4665 167.193 25.5953V29.3744Z" fill="#E0E1E4"/>
<path d="M194.637 30.2763C193.906 29.5892 193.348 29.2027 193.005 29.2027C191.802 30.2333 190.17 30.7487 187.937 30.7487C183.728 30.7487 181.323 27.9573 181.323 23.9634C181.323 19.8407 183.771 17.0493 187.765 17.0493C189.354 17.0493 190.557 17.4358 191.373 18.1229V20.356C191.373 20.6996 191.587 21.0432 192.146 21.6014C192.661 22.0738 193.048 22.2886 193.348 22.2886C193.692 22.2886 194.035 22.0738 194.508 21.6014C195.023 21.0861 195.281 20.6996 195.281 20.356V16.2333C195.281 15.5462 194.508 14.7732 193.048 14.0002C191.587 13.1843 189.826 12.8407 187.765 12.8407C184.415 12.8407 181.624 13.8714 179.519 15.9757C177.372 18.037 176.298 20.6996 176.298 23.9205C176.298 27.1843 177.372 29.8039 179.519 31.9082C181.624 33.9695 184.415 35.0432 187.851 35.0432C191.158 35.0432 193.864 34.0125 195.882 31.9941C195.753 31.5646 195.367 30.9634 194.637 30.2763Z" fill="#E0E1E4"/>
<path d="M210.742 23.6194L217.528 15.7605C217.528 15.374 217.055 14.8158 216.11 13.9998C215.209 13.1839 214.564 12.8403 214.178 12.8403L206.705 21.4293L204.815 21.6869V2.01821C204.815 1.67465 204.601 1.33109 204.042 0.8587C203.57 0.343362 203.183 0.0856934 202.84 0.0856934H198.201C197.858 0.0856934 197.514 0.300417 196.956 0.8587C196.484 1.33109 196.269 1.7176 196.269 2.01821C196.269 2.31882 196.484 2.70533 196.956 3.26361C197.471 3.736 197.858 3.95072 198.201 3.95072H199.919V34.5704H204.772V25.9385L206.533 25.7237L214.65 35.0428C215.037 35.0428 215.681 34.6133 216.583 33.7974C217.485 32.9385 217.957 32.3372 217.957 31.9507L210.742 23.6194Z" fill="#E0E1E4"/>
</g>
</svg>
