<svg width="280" height="48" viewBox="0 0 280 48" fill="none" xmlns="http://www.w3.org/2000/svg">
<g clip-path="url(#clip0)">
<path d="M46.169 14.6475C49.353 14.6475 51.7793 15.1486 53.4472 16.1513C55.1151 17.1539 55.9492 18.9883 55.9492 21.6547C55.9492 23.0625 55.7163 24.2358 55.2507 25.1744C54.7848 26.113 54.0972 26.8329 53.1874 27.3341C52.2774 27.8354 51.2646 28.182 50.1492 28.374C49.0336 28.5659 47.7069 28.6619 46.169 28.6619H42.1072V37.8451H38.793V14.6475H46.169ZM42.1072 17.3991V25.8145H46.4288C47.2085 25.8145 47.8638 25.7929 48.3945 25.7504C48.9253 25.7076 49.4778 25.6064 50.0517 25.4464C50.6257 25.2865 51.0808 25.0625 51.4165 24.7744C51.7522 24.4864 52.0282 24.081 52.245 23.5585C52.4618 23.036 52.5699 22.4011 52.5699 21.6547C52.5699 20.9293 52.4618 20.3002 52.245 19.7668C52.0282 19.2335 51.7522 18.8176 51.4165 18.5189C51.0808 18.2203 50.6313 17.9857 50.0679 17.815C49.5048 17.6444 48.9523 17.5324 48.4108 17.4793C47.8693 17.4257 47.2085 17.3991 46.4288 17.3991H42.1072ZM67.3866 23.6705C66.5633 23.5851 66.011 23.5426 65.7295 23.5426C64.343 23.5426 63.3142 23.9585 62.6426 24.7905C61.9712 25.6225 61.6353 26.9661 61.6353 28.8219V37.8451H58.6787V20.6308H61.5703V23.6386C62.4801 21.6333 64.1266 20.5987 66.5094 20.5348C66.8776 20.5348 67.17 20.5454 67.3866 20.5668V23.6705ZM83.0157 22.6467C84.6839 24.1825 85.5179 26.4009 85.5179 29.3019C85.5179 32.2029 84.6839 34.4214 83.0157 35.9572C81.3478 37.493 79.3875 38.261 77.1346 38.261C74.8819 38.261 72.9213 37.493 71.2534 35.9572C69.5854 34.4214 68.7516 32.2029 68.7516 29.3019C68.7516 26.4009 69.5854 24.1825 71.2534 22.6467C72.9213 21.1106 74.8819 20.3428 77.1346 20.3428C79.3875 20.3428 81.3478 21.1106 83.0157 22.6467ZM77.1346 35.7013C78.5859 35.7013 79.8207 35.152 80.8386 34.0534C81.857 32.9548 82.3659 31.3709 82.3659 29.3019C82.3659 27.1689 81.8623 25.5689 80.855 24.5026C79.8477 23.4357 78.6076 22.9025 77.1346 22.9025C75.6399 22.9025 74.3944 23.4197 73.3979 24.4545C72.4016 25.4891 71.9032 27.1049 71.9032 29.3019C71.9032 31.4349 72.4067 33.0349 73.4141 34.1012C74.4214 35.1681 75.6616 35.7013 77.1346 35.7013ZM92.0163 37.8451H89.0598V20.6308H92.0163V23.2225C93.2079 21.3028 94.9625 20.3428 97.2803 20.3428C99.7932 20.3428 101.472 21.3561 102.317 23.3826C103.66 21.3561 105.62 20.3428 108.198 20.3428C111.967 20.3428 113.852 22.5507 113.852 26.9661V37.8451H110.894V27.8301C110.894 26.273 110.64 25.0571 110.131 24.1825C109.623 23.3078 108.631 22.8706 107.158 22.8706C105.859 22.8706 104.83 23.3557 104.071 24.3265C103.313 25.2969 102.934 26.6889 102.934 28.5019V37.8451H99.9773V27.8301C99.9773 26.273 99.7227 25.0571 99.2135 24.1825C98.7047 23.3078 97.7135 22.8706 96.2406 22.8706C94.9408 22.8706 93.9119 23.3557 93.1536 24.3265C92.3956 25.2969 92.0163 26.6889 92.0163 28.5019V37.8451ZM120.252 30.1979C120.318 31.947 120.881 33.3017 121.942 34.2612C123.004 35.2212 124.239 35.7013 125.647 35.7013C127.987 35.7013 129.578 34.752 130.423 32.8536H133.477C133.045 34.432 132.14 35.728 130.764 36.7411C129.389 37.7544 127.683 38.261 125.647 38.261C122.961 38.261 120.86 37.4186 119.343 35.7332C117.827 34.0481 117.069 31.8937 117.069 29.2699C117.069 26.6035 117.875 24.4491 119.489 22.8065C121.103 21.1641 123.123 20.3428 125.55 20.3428C128.17 20.3428 130.233 21.2921 131.739 23.1905C133.245 25.089 133.9 27.4249 133.705 30.1979H120.252ZM120.285 27.7019H130.585C130.543 26.4009 130.066 25.265 129.156 24.2945C128.246 23.3237 127.044 22.8386 125.55 22.8386C124.119 22.8386 122.917 23.2385 121.942 24.0386C120.968 24.8384 120.416 26.0595 120.285 27.7019ZM137.994 16.3113H140.951V20.6308H144.265V22.9665H140.951V33.1735C140.951 34.1122 141.054 34.72 141.259 34.9973C141.466 35.2747 141.969 35.4131 142.77 35.4131H144.265V37.8451H142.121C140.432 37.8451 139.321 37.5677 138.79 37.0132C138.259 36.4587 137.994 35.296 137.994 33.5257V22.9665H135.232V20.6308H137.994V16.3113ZM149.529 30.1979C149.594 31.947 150.157 33.3017 151.219 34.2612C152.281 35.2212 153.515 35.7013 154.924 35.7013C157.262 35.7013 158.855 34.752 159.699 32.8536H162.753C162.32 34.432 161.416 35.728 160.041 36.7411C158.665 37.7544 156.959 38.261 154.924 38.261C152.237 38.261 150.136 37.4186 148.62 35.7332C147.103 34.0481 146.345 31.8937 146.345 29.2699C146.345 26.6035 147.152 24.4491 148.766 22.8065C150.38 21.1641 152.399 20.3428 154.825 20.3428C157.447 20.3428 159.51 21.2921 161.016 23.1905C162.521 25.089 163.176 27.4249 162.981 30.1979H149.529ZM149.562 27.7019H159.862C159.818 26.4009 159.342 25.265 158.432 24.2945C157.522 23.3237 156.32 22.8386 154.825 22.8386C153.396 22.8386 152.194 23.2385 151.219 24.0386C150.244 24.8384 149.692 26.0595 149.562 27.7019ZM177.245 35.3812C176.054 37.3011 174.224 38.261 171.754 38.261C168.028 38.261 166.166 36.0532 166.166 31.6377V20.6308H169.122V30.7737C169.122 31.5204 169.165 32.1603 169.252 32.6937C169.339 33.2268 169.501 33.7387 169.74 34.2293C169.978 34.72 170.352 35.0933 170.861 35.3491C171.37 35.6053 172.014 35.7332 172.794 35.7332C174.202 35.7332 175.297 35.2479 176.076 34.2774C176.855 33.3067 177.245 31.9149 177.245 30.1019V20.6308H180.203V37.8451H177.245V35.3812ZM194.889 25.6545C194.478 23.7557 193.102 22.8065 190.763 22.8065C189.788 22.8065 188.933 22.9879 188.196 23.3505C187.46 23.713 187.091 24.2571 187.091 24.9824C187.091 26.1981 187.98 26.9768 189.756 27.318L192.225 27.7981C193.092 27.9687 193.855 28.1714 194.516 28.4059C195.177 28.6405 195.799 28.95 196.384 29.3339C196.969 29.7178 197.418 30.2083 197.733 30.8057C198.047 31.4029 198.204 32.1069 198.204 32.9176C198.204 34.5601 197.532 35.8613 196.189 36.8212C194.847 37.7812 193.146 38.261 191.088 38.261C188.922 38.261 187.172 37.6691 185.84 36.4852C184.508 35.3012 183.755 33.8987 183.582 32.2778H186.701C187.178 34.624 188.661 35.7972 191.153 35.7972C192.301 35.7972 193.264 35.5626 194.044 35.0933C194.824 34.624 195.214 34.0053 195.214 33.2376C195.214 31.8297 194.034 30.8803 191.673 30.3898L189.073 29.8778C185.759 29.2164 184.102 27.6275 184.102 25.1104C184.102 23.6386 184.768 22.4705 186.1 21.6066C187.432 20.7428 189.095 20.3108 191.088 20.3108C192.951 20.3108 194.494 20.7907 195.718 21.7506C196.941 22.7106 197.695 24.0116 197.977 25.6545H194.889Z" fill="#161618"/>
<path fill-rule="evenodd" clip-rule="evenodd" d="M10.1348 37.8455H13.7857C10.5217 32.6681 7.25855 27.4896 3.99912 22.3104C3.50766 21.528 3.36412 20.8013 3.73272 19.8753C3.90776 19.4357 4.28008 19.0179 4.64041 18.7048C4.53388 18.5628 4.43189 18.4177 4.33482 18.2691C3.81166 17.4695 3.4287 16.5821 3.20404 15.6382C-0.130213 17.2299 -0.880783 20.4118 1.03975 23.5792L10.1348 37.8455ZM8.74473 26.478C10.8726 26.7181 12.8477 26.7078 14.9773 26.481C17.55 26.2071 19.872 25.592 21.3092 24.6621C22.8014 23.6971 23.8052 22.1619 23.8052 20.3697C23.807 18.2962 22.5104 16.6813 20.7456 15.7559C20.5914 16.5263 20.3321 17.2523 19.974 17.922C19.7836 18.2782 19.5662 18.6166 19.3223 18.9354C19.728 19.3431 20.087 19.8629 20.087 20.3701C20.087 21.1938 19.1268 22.102 18.426 22.4952C17.6168 22.9471 16.42 23.235 15.495 23.3317C14.2925 23.4602 13.0699 23.5135 11.8611 23.5364C11.2191 23.5364 10.5442 23.5011 9.90229 23.4648C8.82704 23.4043 7.65372 23.3434 6.61253 23.0617L8.74473 26.478Z" fill="#161618"/>
<path fill-rule="evenodd" clip-rule="evenodd" d="M11.9686 0C15.2487 5.26995 14.098 8.42419 13.6538 10.3968C12.9639 13.4609 16.9017 14.4796 17.1906 10.9083C17.258 10.0754 17.2086 9.10629 17.1587 8.19403C21.2068 14.5851 18.562 20.3568 11.9686 20.357C6.4336 20.3572 3.32064 15.3751 5.51092 10.4133C5.27307 13.039 7.14871 13.8826 6.84057 12.6841C6.7622 12.3788 6.59012 11.8543 6.48183 10.7924C5.96104 5.6938 12.3321 4.39144 11.9686 0Z" fill="#FB6C1C"/>
<path d="M211.545 35.218V15.3882H209V37.6118H223.779V35.218H211.545Z" fill="#161618"/>
<path d="M234.209 20.4993C232.577 20.4993 230.555 20.9198 228.14 22.1167L229.119 24.09C230.652 23.3136 232.349 22.5696 234.045 22.5696C237.699 22.5696 238.613 25.1575 238.613 27.4219V28.0366C236.884 27.4866 234.959 27.0985 233.132 27.0985C229.511 27.0985 226.509 29.3305 226.509 32.6624C226.509 35.962 229.119 38 232.675 38C234.894 38 237.406 36.9648 238.613 34.9916V37.6118H241.06V27.4219C241.06 23.3783 238.809 20.4993 234.209 20.4993ZM233.099 35.865C230.718 35.865 228.891 34.6357 228.891 32.5654C228.891 30.5598 231.011 29.1364 233.523 29.1364C235.35 29.1364 237.08 29.3952 238.613 29.8158V32.3713C237.96 34.7328 235.318 35.865 233.099 35.865Z" fill="#161618"/>
<path d="M254.868 20.4993C252.16 20.4993 250.007 21.8256 248.734 24.0253V15H246.288V37.6118H248.734V34.474C250.007 36.6737 252.16 38 254.868 38C259.305 38 262.632 34.3769 262.632 29.2335C262.632 24.1224 259.305 20.4993 254.868 20.4993ZM254.411 35.8326C251.083 35.8326 248.734 33.083 248.734 29.2335C248.734 25.384 251.083 22.6667 254.411 22.6667C257.706 22.6667 260.055 25.384 260.055 29.2335C260.055 33.083 257.706 35.8326 254.411 35.8326Z" fill="#161618"/>
<path d="M272.834 38C276.325 38 279 36.0267 279 32.9536C279 29.7834 276.194 28.8776 273.486 28.0366C270.355 27.0338 269.115 26.5809 269.115 25.1252C269.115 23.5077 270.681 22.6667 272.573 22.6667C274.074 22.6667 275.738 23.1842 277.434 24.2518L278.609 22.3755C276.814 21.211 274.661 20.4993 272.573 20.4993C269.213 20.4993 266.668 22.3755 266.668 25.4163C266.668 27.8101 268.234 29.007 272.312 30.1716C274.596 30.8186 276.553 31.4008 276.553 33.2124C276.553 34.7975 275.052 35.8326 272.834 35.8326C270.974 35.8326 269.05 35.121 267.125 33.73L265.852 35.5091C267.875 37.1266 270.485 38 272.834 38Z" fill="#161618"/>
<path d="M211.545 35.218V15.3882H209V37.6118H223.779V35.218H211.545Z" stroke="#161618" stroke-width="0.5"/>
<path d="M234.209 20.4993C232.577 20.4993 230.555 20.9198 228.14 22.1167L229.119 24.09C230.652 23.3136 232.349 22.5696 234.045 22.5696C237.699 22.5696 238.613 25.1575 238.613 27.4219V28.0366C236.884 27.4866 234.959 27.0985 233.132 27.0985C229.511 27.0985 226.509 29.3305 226.509 32.6624C226.509 35.962 229.119 38 232.675 38C234.894 38 237.406 36.9648 238.613 34.9916V37.6118H241.06V27.4219C241.06 23.3783 238.809 20.4993 234.209 20.4993ZM233.099 35.865C230.718 35.865 228.891 34.6357 228.891 32.5654C228.891 30.5598 231.011 29.1364 233.523 29.1364C235.35 29.1364 237.08 29.3952 238.613 29.8158V32.3713C237.96 34.7328 235.318 35.865 233.099 35.865Z" stroke="#161618" stroke-width="0.5"/>
<path d="M254.868 20.4993C252.16 20.4993 250.007 21.8256 248.734 24.0253V15H246.288V37.6118H248.734V34.474C250.007 36.6737 252.16 38 254.868 38C259.305 38 262.632 34.3769 262.632 29.2335C262.632 24.1224 259.305 20.4993 254.868 20.4993ZM254.411 35.8326C251.083 35.8326 248.734 33.083 248.734 29.2335C248.734 25.384 251.083 22.6667 254.411 22.6667C257.706 22.6667 260.055 25.384 260.055 29.2335C260.055 33.083 257.706 35.8326 254.411 35.8326Z" stroke="#161618" stroke-width="0.5"/>
<path d="M272.834 38C276.325 38 279 36.0267 279 32.9536C279 29.7834 276.194 28.8776 273.486 28.0366C270.355 27.0338 269.115 26.5809 269.115 25.1252C269.115 23.5077 270.681 22.6667 272.573 22.6667C274.074 22.6667 275.738 23.1842 277.434 24.2518L278.609 22.3755C276.814 21.211 274.661 20.4993 272.573 20.4993C269.213 20.4993 266.668 22.3755 266.668 25.4163C266.668 27.8101 268.234 29.007 272.312 30.1716C274.596 30.8186 276.553 31.4008 276.553 33.2124C276.553 34.7975 275.052 35.8326 272.834 35.8326C270.974 35.8326 269.05 35.121 267.125 33.73L265.852 35.5091C267.875 37.1266 270.485 38 272.834 38Z" stroke="#161618" stroke-width="0.5"/>
</g>
<defs>
<clipPath id="clip0">
<rect width="280" height="48" fill="white"/>
</clipPath>
</defs>
</svg>
