<svg width="141" height="40" viewBox="0 0 141 40" fill="none" xmlns="http://www.w3.org/2000/svg">
<g clip-path="url(#clip0)">
<path d="M127.723 26.5894H126.98V29.9536L130.182 29.9072V29.2576H127.723V26.5894Z" fill="#0053F1"/>
<path d="M117.746 27.239V26.5894H121.458V27.239H119.95V29.9536H119.185V27.239H117.746Z" fill="#0053F1"/>
<path d="M1.01758 21.7867H38.3957C38.852 21.8177 39.7646 21.6521 39.7646 20.7426V17.7264C39.7878 17.4789 39.6904 16.8726 39.115 16.4271C38.5396 15.9816 34.2968 12.2353 32.2472 10.4178C31.9456 10.1626 31.3424 9.47116 31.3424 8.74726V2.83079C31.3269 2.18114 31.6347 0.881836 32.9897 0.881836H43.941V3.94448L36.7252 3.87488C36.4932 3.85941 36.0245 4.00017 36.0059 4.68694C35.9874 5.37371 35.9982 7.13859 36.0059 7.9352C35.9595 8.19817 35.9827 8.82615 36.4468 9.2345C36.9108 9.64286 40.9711 13.2098 42.9433 14.9422C43.2681 15.1742 43.9178 15.847 43.9178 16.6823V24.8958H1.01758V21.7867Z" fill="#0053F1"/>
<path d="M47.0264 24.8958V0.881836H57.792C58.4031 0.912772 59.6249 1.28091 59.6249 2.50597V14.3853C59.656 14.9808 59.3836 16.1719 58.0472 16.1719H51.6203V13.086C52.9739 13.0628 55.6806 13.0303 55.6806 13.086V4.10689H50.9243V24.8726L47.0264 24.8958Z" fill="#0053F1"/>
<path d="M44.126 21.6704H46.7246V24.8955H44.126V21.6704Z" fill="#0053F1"/>
<path d="M51.249 24.8723V21.6704H61.8755L61.1562 24.8723H51.249Z" fill="#0053F1"/>
<path d="M58.4414 39.2805L66.5621 0.742188H70.5992L75.75 24.8721H71.8985L68.5806 6.47305L66.5621 17.2619H69.7407L70.3806 20.371H66.2372L63.0586 39.2805H58.4414Z" fill="#0053F1"/>
<path d="M70.9707 0.742188L71.6204 3.82803H77.5833V0.742188H70.9707Z" fill="#0053F1"/>
<path d="M77.9541 0.742188H90.5295V12.1343C90.5606 12.6293 90.3392 13.6517 89.207 13.7816C88.6191 13.828 87.3416 13.9208 86.9332 13.9208L91.3416 24.8257H87.1652L82.7569 13.7816V11.5311H86.7012V4.10646H81.8752V24.8257H77.9541V0.742188Z" fill="#0053F1"/>
<path d="M93.6855 0.742188H97.5371V10.8118L101.899 0.742188H106.215L97.5603 18.538V24.8721L93.6855 24.8257V0.742188Z" fill="#0053F1"/>
<path d="M90.9941 0.742188V3.82803H93.4534V0.742188H90.9941Z" fill="#0053F1"/>
<path d="M97.8848 0.742188V3.82803H100.135L101.574 0.742188H97.8848Z" fill="#0053F1"/>
<path d="M105.333 3.82803L106.864 0.742188H140.832V3.94404L105.333 3.82803Z" fill="#0053F1"/>
<path d="M101.319 13.5034L99.0918 17.5405L102.433 24.8259L106.772 24.8027L101.319 13.5034Z" fill="#0053F1"/>
<path fill-rule="evenodd" clip-rule="evenodd" d="M72.2471 26.6587V29.9534H74.4976C75.1936 29.9534 76.1681 29.5032 76.1681 28.2596C76.1681 27.016 75.3096 26.6587 74.6832 26.6587H72.2471ZM72.9895 29.2573V27.2387H74.312C75.1008 27.2387 75.4721 27.494 75.4721 28.2596C75.4721 29.1181 74.8224 29.2573 74.312 29.2573H72.9895Z" fill="#0053F1"/>
<path d="M77.3281 26.5894H78.1402V29.9536H77.3281V26.5894Z" fill="#0053F1"/>
<path d="M81.3193 28.1207H83.1291V29.2576C83.1291 29.652 82.9666 29.9536 82.433 29.9536H80.0896C79.8576 29.9691 79.3936 29.8515 79.3936 29.2576V27.239C79.3936 27.0224 79.5328 26.5894 80.0896 26.5894H82.433C83.1291 26.5894 83.1755 26.9374 83.1755 27.587H82.433V27.239H80.1592V29.2576H82.433V28.6775H81.3193V28.1207Z" fill="#0053F1"/>
<path d="M84.4043 26.5894H85.1931V29.9536H84.4043V26.5894Z" fill="#0053F1"/>
<path d="M86.1914 26.5894V27.239H87.63V29.9536H88.3956V27.239H89.9038V26.5894H86.1914Z" fill="#0053F1"/>
<path fill-rule="evenodd" clip-rule="evenodd" d="M89.7871 29.9072L91.7361 26.5894H92.4321L94.3347 29.9072H93.4066L92.989 29.2576H91.04L90.576 29.9072H89.7871ZM92.0377 27.239L91.3416 28.5615H92.757L92.0377 27.239Z" fill="#0053F1"/>
<path d="M95.0078 26.5894H95.7503V29.2576H98.2097V29.9072L95.0078 29.9536V26.5894Z" fill="#0053F1"/>
<path d="M104.66 27.7957V27.4013H102.595V29.2575H104.66V28.6774H105.356V29.3503C105.371 29.5359 105.296 29.9071 104.869 29.9071H102.433C102.232 29.8994 101.829 29.7772 101.829 29.3503V27.2853C101.822 27.0687 101.964 26.6357 102.595 26.6357H104.66C104.892 26.6202 105.356 26.7285 105.356 27.2853V27.7957H104.66Z" fill="#0053F1"/>
<path fill-rule="evenodd" clip-rule="evenodd" d="M105.89 29.9072L107.839 26.5894H108.535L110.437 29.9072H109.509L109.092 29.2576H107.143L106.679 29.9072H105.89ZM108.14 27.239L107.444 28.5615H108.859L108.14 27.239Z" fill="#0053F1"/>
<path fill-rule="evenodd" clip-rule="evenodd" d="M111.203 26.6357V29.9536H111.899V28.5615H114.034C114.266 28.5847 114.73 28.5244 114.73 28.0975V27.2854C114.768 27.0688 114.683 26.6357 114.034 26.6357H111.203ZM111.899 27.935V27.2854H113.663C113.848 27.2854 113.918 27.2854 113.918 27.6102C113.918 27.8701 113.747 27.935 113.663 27.935H111.899Z" fill="#0053F1"/>
<path d="M116.655 26.6357V29.9072H115.959V26.6357H116.655Z" fill="#0053F1"/>
<path fill-rule="evenodd" clip-rule="evenodd" d="M121.667 29.9072L123.616 26.5894H124.312L126.215 29.9072H125.286L124.869 29.2576H122.92L122.456 29.9072H121.667ZM123.918 27.239L123.222 28.5615H124.637L123.918 27.239Z" fill="#0053F1"/>
</g>
<defs>
<clipPath id="clip0">
<rect width="140" height="38.5615" fill="white" transform="translate(0.87793 0.719238)"/>
</clipPath>
</defs>
</svg>
