<svg width="400" height="135" viewBox="0 0 400 135" fill="none" xmlns="http://www.w3.org/2000/svg">
<g clip-path="url(#clip0)">
<path fill-rule="evenodd" clip-rule="evenodd" d="M160 18H178.971C183.041 18 186.063 19.0127 188.154 20.7526C190.408 22.6607 191.563 25.239 191.563 28.4393C191.563 32.4239 189.526 34.9511 186.063 36.2974V36.4657C190.351 37.8119 193.103 41.517 193.103 46.286C193.103 50.3247 191.669 53.2485 189.087 55.2679C186.778 57.1189 183.538 58.1316 179.411 58.1316H160V18ZM177.541 33.8874C180.347 33.8874 182.268 32.484 182.268 29.8487C182.268 27.3215 180.45 25.861 177.595 25.861H169.637V33.8874H177.541ZM178.307 50.1654C181.496 50.1654 183.475 48.3113 183.475 45.4536C183.475 42.2533 181.162 40.6246 178.198 40.6246H169.637V50.1654H178.307ZM196.794 18.012H205.755V25.4163H196.782L196.794 18.012ZM196.794 29.4039H205.755V58.1436H196.782L196.794 29.4039ZM212.41 50.5681V35.1194H208.661V29.3919H212.398V20.3078H221.156V29.3919H226.266V35.1194H221.156V48.5878C221.156 50.8325 222.368 51.3944 224.29 51.3944C224.756 51.3944 225.747 51.3734 226.535 51.3584L227.611 51.3373V58.0174C226.838 58.2428 223.799 58.4652 221.38 58.4652C216.135 58.4712 212.398 56.7283 212.398 50.556L212.41 50.5681ZM234.76 26.432H224.65V18.018H254.686V26.432H244.491V58.1316H234.748L234.76 26.432ZM248.682 43.8309C248.682 35.1885 254.744 28.6166 263.747 28.6166C272.839 28.6166 278.757 35.1825 278.757 43.8309C278.757 52.4792 272.815 59.0421 263.747 59.0421C254.719 59.0301 248.67 52.4612 248.67 43.8189L248.682 43.8309ZM269.684 43.8309C269.684 38.6112 267.59 35.0713 263.693 35.0713C259.795 35.0713 257.75 38.6112 257.75 43.8309C257.75 49.0505 259.786 52.5453 263.693 52.5453C267.599 52.5453 269.672 49.0415 269.672 43.8189L269.684 43.8309ZM281.921 29.4069H290.501V33.8814H290.664C292.64 30.4587 295.141 29.0403 297.689 28.9442C298.286 28.8878 298.887 28.9648 299.45 29.1695V37.0276H299.229C294.477 36.3755 290.858 38.9898 290.858 45.2222V58.1436H281.909L281.921 29.4069ZM302.129 29.4069H310.708V33.8814H310.86C312.839 30.4587 315.336 29.0403 317.888 28.9442C318.483 28.888 319.084 28.965 319.645 29.1695V37.0276H319.424C314.684 36.3755 311.078 38.9898 311.078 45.2222V58.1436H302.117L302.129 29.4069ZM319.939 43.7227C319.939 35.1344 325.825 28.5685 334.401 28.5685C338.414 28.5685 341.605 29.9148 344.023 32.1745C347.375 35.3147 349.026 40.315 348.972 46.1477H328.74C329.295 50.0212 331.38 52.4372 335.065 52.4372C337.426 52.4372 338.971 51.3734 339.738 49.5734H348.478C347.787 52.3311 346.107 54.7446 343.75 56.3617C341.39 58.0475 338.526 59.0031 334.962 59.0031C325.643 58.973 319.927 52.4071 319.927 43.7077L319.939 43.7227ZM339.895 40.6907C339.571 37.268 337.471 35.0804 334.565 35.0804C331.155 35.0804 329.413 37.268 328.807 40.6907H339.895ZM352.054 29.4069H360.688V33.3224H360.852C362.943 30.2333 365.637 28.5535 369.537 28.5535C375.698 28.5535 379.323 33.04 379.323 39.4466V58.1316H370.349V41.3037C370.349 38.2717 368.864 36.1952 365.952 36.1952C362.982 36.1952 361.003 38.7194 361.003 42.2593V58.1436H352.042L352.054 29.4069ZM384.805 50.556V35.1194H381.068V29.3919H384.805V20.3078H393.545V29.3919H398.657V35.1194H393.545V48.5878C393.545 50.8325 394.757 51.3944 396.679 51.3944C397.145 51.3944 398.136 51.3734 398.924 51.3584L400 51.3373V58.0174C399.227 58.2428 396.188 58.4652 393.772 58.4652C388.535 58.4712 384.805 56.7283 384.805 50.556ZM270.324 99.8378C270.324 106.482 264.814 110.199 257.029 110.199C246.867 110.199 242.015 104.649 241.609 97.509H246.058C246.664 103.519 250.407 106.632 257.232 106.632C262.235 106.632 265.826 104.399 265.826 99.9881C265.826 95.129 261.477 93.9781 255.007 92.6018C248.643 91.2135 243.188 89.4286 243.188 82.7335C243.188 76.8858 248.143 73.3639 255.474 73.3639C264.523 73.3639 268.263 77.8714 269.175 84.4193H264.859C264.202 79.3619 260.865 76.8347 255.556 76.8347C250.652 76.8347 247.419 78.866 247.419 82.5441C247.419 86.5618 251.461 87.7518 256.871 88.7915C263.887 90.1858 270.317 91.8716 270.317 99.8529L270.324 99.8378ZM160.012 109.505H164.558V92.8152H181.183V89.0469H164.552V78.0036H184.52V74.0971H160L160.012 109.505ZM188.632 109.505H192.727V83.8904H188.62L188.632 109.505ZM188.632 79.0163H192.727V74.0581H188.62L188.632 79.0163ZM202.555 109.505H198.448V74.046H202.543L202.555 109.505ZM219.453 110.199C225.369 110.199 229.454 107.077 230.666 101.575H226.672C225.76 105.048 223.235 106.851 219.441 106.851C214.183 106.851 211.304 102.885 211.001 97.6773H231.221C231.221 89.2002 227.026 83.2533 219.189 83.2533C211.758 83.2533 206.804 89.3024 206.804 96.7397C206.804 104.177 211.458 110.214 219.441 110.214L219.453 110.199ZM219.189 86.4176C223.89 86.4176 226.569 89.5428 226.823 94.6482H211.101C211.707 89.9875 214.334 86.4176 219.189 86.4176ZM278.254 118C281.439 118 283.461 116.909 285.585 111.602L296.759 83.8904H292.41L286.443 99.8529C285.634 101.986 284.725 104.862 284.725 104.862H284.625C284.625 104.862 283.664 101.986 282.855 99.8529L276.688 83.8904H272.239L282.452 108.778L281.439 111.305C280.427 113.784 279.267 114.43 277.545 114.43C276.182 114.43 275.324 114.181 274.766 113.883H274.563V117.453C275.675 117.901 276.688 118 278.254 118ZM319.627 102.482C319.627 107.639 315.33 110.265 309.323 110.265C302.144 110.265 298.15 106.945 297.747 101.193H301.941C302.499 105.656 305.532 106.903 309.423 106.903C313.721 106.903 315.485 105.07 315.485 102.696C315.485 99.8198 313.463 99.0746 308.66 98.0829C303.508 97.0432 298.901 96.0005 298.901 90.3992C298.901 86.1351 302.235 83.3585 308.296 83.3585C314.766 83.3585 317.951 86.3845 318.56 91.3908H314.369C313.966 88.0192 312.093 86.5318 308.202 86.5318C304.459 86.5318 302.944 88.1695 302.944 90.2008C302.944 92.9775 305.472 93.5063 309.972 94.4078C315.23 95.4325 319.627 96.5804 319.627 102.482V102.482ZM321.385 87.1568H325.176V104.706C325.176 108.312 327.601 109.664 330.934 109.664C332.038 109.66 333.139 109.543 334.219 109.316V105.854H334.068C333.363 106.069 332.632 106.185 331.895 106.199C330.225 106.199 329.264 105.598 329.264 103.819V87.1628H334.319V83.8904H329.27V75.81H325.176V83.8904H321.385V87.1568ZM360.703 101.581C359.491 107.083 355.397 110.205 349.49 110.205C341.502 110.205 336.853 104.159 336.853 96.7217C336.853 89.2843 341.805 83.2353 349.239 83.2353C357.073 83.2353 361.27 89.1852 361.27 97.6592H341.047C341.35 102.867 344.232 106.833 349.49 106.833C353.281 106.833 355.809 105.049 356.718 101.578L360.703 101.581ZM356.86 94.6392C356.609 89.5307 353.93 86.4086 349.229 86.4086C344.381 86.4086 341.747 89.9785 341.138 94.6392H356.86ZM365.264 109.511H369.349V93.5574C369.349 89.5428 372.889 86.667 376.074 86.667C378.753 86.667 380.571 88.5511 380.571 91.7244V109.52H384.669V93.5574C384.669 89.5428 387.699 86.667 391.087 86.667C393.718 86.667 395.891 88.5511 395.891 91.7244V109.52H399.985V91.526C399.985 86.2192 396.7 83.2954 392.048 83.2954C390.429 83.288 388.837 83.7063 387.434 84.5076C386.032 85.3089 384.868 86.4646 384.062 87.857H383.959C382.847 84.882 380.323 83.2954 377.135 83.2954C375.596 83.3109 374.087 83.7095 372.744 84.4546C371.402 85.1997 370.27 86.2673 369.452 87.5595H369.349V83.8904H365.255L365.264 109.511Z" fill="#0053F1"/>
<path fill-rule="evenodd" clip-rule="evenodd" d="M65.7592 101.682V70.7825L92.8796 55.3343L108.436 46.4635V66.4985C108.435 66.5982 108.462 66.6963 108.513 66.7827C108.564 66.8691 108.637 66.9408 108.724 66.9906C108.812 67.0403 108.912 67.0664 109.013 67.0662C109.115 67.0659 109.214 67.0394 109.302 66.9892L110.659 66.227L118.558 61.7272C118.997 61.4768 119.361 61.1169 119.615 60.6838C119.868 60.2506 120.001 59.7595 120 59.2598V36.5974C119.998 35.5982 119.73 34.6171 119.222 33.7522C118.714 32.8873 117.984 32.1691 117.104 31.6695L114.216 30.0234L97.2247 20.3383C96.7856 20.0887 96.2875 19.9574 95.7804 19.9574C95.2734 19.9574 94.7753 20.0887 94.3362 20.3383L85.1122 25.6037C85.0241 25.6533 84.9508 25.725 84.8998 25.8115C84.8489 25.8979 84.822 25.9961 84.822 26.0961C84.822 26.1961 84.8489 26.2943 84.8998 26.3808C84.9508 26.4672 85.0241 26.5389 85.1122 26.5886L102.673 36.5974L87.1168 45.4647L59.9965 60.9024L32.8796 45.4647L17.8858 36.9175L17.3201 36.5974L34.9054 26.5746C34.9936 26.525 35.0669 26.4533 35.1178 26.3668C35.1688 26.2804 35.1956 26.1822 35.1956 26.0822C35.1956 25.9822 35.1688 25.884 35.1178 25.7975C35.0669 25.7111 34.9936 25.6394 34.9054 25.5898L25.6815 20.3209C25.2427 20.0703 24.7445 19.9383 24.2372 19.9383C23.73 19.9383 23.2317 20.0703 22.793 20.3209L5.77338 30.0165L2.88492 31.6695C2.00787 32.1704 1.27979 32.8892 0.773512 33.754C0.267235 34.6188 0.000505068 35.5992 1.51951e-06 36.5974V59.2355C-9.39246e-06 59.7351 0.133212 60.2259 0.386346 60.6589C0.63948 61.0919 1.00366 61.4519 1.44246 61.7029L9.38307 66.227L10.6806 66.9648C10.7684 67.0151 10.8683 67.0417 10.9699 67.0418C11.0716 67.0419 11.1715 67.0155 11.2595 66.9653C11.3474 66.9152 11.4203 66.843 11.4708 66.7561C11.5213 66.6692 11.5475 66.5707 11.5468 66.4706V46.46L12.1124 46.7836L27.1098 55.3343L54.2231 70.7825V119.421L36.6378 109.398C36.5499 109.347 36.4501 109.321 36.3484 109.321C36.2468 109.321 36.1469 109.347 36.0589 109.397C35.9709 109.447 35.898 109.52 35.8476 109.607C35.7971 109.693 35.7709 109.792 35.7716 109.892V120.412C35.7705 120.912 35.9033 121.403 36.1565 121.837C36.4098 122.27 36.7745 122.63 37.2141 122.88L54.2231 132.593L57.108 134.239C57.9856 134.738 58.9812 135.001 59.9947 135.001C61.0082 135.001 62.0038 134.738 62.8814 134.239L65.7592 132.593L82.7647 122.901C83.2047 122.651 83.5699 122.291 83.8238 121.858C84.0776 121.425 84.2111 120.933 84.2107 120.433V109.892C84.2103 109.792 84.1835 109.694 84.1327 109.608C84.082 109.522 84.0093 109.45 83.9216 109.4C83.834 109.35 83.7347 109.324 83.6334 109.323C83.5322 109.323 83.4326 109.349 83.3445 109.398L65.7592 119.421V101.682ZM97.1999 101.505C96.76 101.755 96.3947 102.115 96.1409 102.548C95.887 102.981 95.7536 103.472 95.7539 103.972V114.496C95.7538 114.596 95.7805 114.694 95.8312 114.78C95.8819 114.867 95.9549 114.938 96.0428 114.988C96.1306 115.038 96.2303 115.064 96.3316 115.064C96.433 115.064 96.5325 115.037 96.6201 114.987L117.094 103.322C117.972 102.82 118.701 102.1 119.207 101.234C119.713 100.368 119.98 99.386 119.979 98.3867V75.0491C119.979 74.9493 119.952 74.8513 119.901 74.7649C119.851 74.6785 119.778 74.6068 119.69 74.557C119.602 74.5072 119.502 74.4811 119.401 74.4814C119.3 74.4816 119.2 74.5082 119.113 74.5584L116.412 76.0966L109.878 79.8203C109.438 80.0705 109.074 80.4303 108.82 80.8635C108.567 81.2967 108.434 81.7879 108.436 82.2877V95.1015L97.1999 101.505ZM24.2249 114.496C24.2249 114.596 24.1983 114.694 24.1476 114.78C24.0969 114.867 24.0239 114.938 23.936 114.988C23.8482 115.038 23.7485 115.064 23.6472 115.064C23.5458 115.064 23.4463 115.037 23.3587 114.987L2.88492 103.325C2.00683 102.824 1.27809 102.104 0.771747 101.238C0.265408 100.371 -0.000733786 99.3895 1.51951e-06 98.3902V75.0247C-7.79258e-05 74.925 0.0265831 74.8269 0.0772939 74.7405C0.128005 74.6541 0.200971 74.5824 0.288829 74.5326C0.376688 74.4829 0.476329 74.4568 0.577698 74.457C0.679067 74.4573 0.778577 74.4838 0.866185 74.534L3.60969 76.0966L10.1043 79.796C10.5433 80.0467 10.9077 80.4066 11.1609 80.8397C11.4141 81.2728 11.5471 81.7637 11.5468 82.2634V95.1015L22.7824 101.505C23.2214 101.756 23.5858 102.116 23.839 102.549C24.0922 102.982 24.2252 103.473 24.2249 103.972V114.496ZM36.6484 12.4245C36.5602 12.4741 36.487 12.5458 36.436 12.6323C36.385 12.7188 36.3582 12.817 36.3582 12.9169C36.3582 13.0169 36.385 13.1151 36.436 13.2016C36.487 13.2881 36.5602 13.3597 36.6484 13.4094L42.7364 16.8895L45.8865 18.6852C46.325 18.9348 46.8225 19.0662 47.329 19.0662C47.8355 19.0662 48.333 18.9348 48.7714 18.6852L59.9965 12.2783L71.2568 18.6957C71.6953 18.9452 72.1928 19.0767 72.6993 19.0767C73.2058 19.0767 73.7033 18.9452 74.1418 18.6957L77.3237 16.879L83.3763 13.4303C83.4645 13.3806 83.5378 13.3089 83.5888 13.2225C83.6397 13.136 83.6666 13.0378 83.6666 12.9378C83.6666 12.8378 83.6397 12.7396 83.5888 12.6532C83.5378 12.5667 83.4645 12.495 83.3763 12.4454L62.8708 0.762652C61.9932 0.263521 60.9976 0.000732422 59.9841 0.000732422C58.9706 0.000732422 57.9749 0.263521 57.0974 0.762652L36.6484 12.4245Z" fill="#0053F1"/>
</g>
<defs>
<clipPath id="clip0">
<rect width="400" height="135.001" fill="white"/>
</clipPath>
</defs>
</svg>
